<?xml version="1.0" encoding="UTF-8" standalone="no"?>
<svg
   xmlns:dc="http://purl.org/dc/elements/1.1/"
   xmlns:cc="http://creativecommons.org/ns#"
   xmlns:rdf="http://www.w3.org/1999/02/22-rdf-syntax-ns#"
   xmlns:svg="http://www.w3.org/2000/svg"
   xmlns="http://www.w3.org/2000/svg"
   xmlns:sodipodi="http://sodipodi.sourceforge.net/DTD/sodipodi-0.dtd"
   xmlns:inkscape="http://www.inkscape.org/namespaces/inkscape"
   inkscape:version="0.92.2 (5c3e80d, 2017-08-06)"
   height="4mm"
   width="4mm"
   sodipodi:docname="bypass-round-off.svg"
   id="svg97"
   version="1.1"
   viewBox="0 0 15.118111 15.118111">
  <metadata
     id="metadata101">
    <rdf:RDF>
      <cc:Work
         rdf:about="">
        <dc:format>image/svg+xml</dc:format>
        <dc:type
           rdf:resource="http://purl.org/dc/dcmitype/StillImage" />
        <dc:title />
      </cc:Work>
    </rdf:RDF>
  </metadata>
  <sodipodi:namedview
     inkscape:current-layer="svg97"
     inkscape:window-maximized="0"
     inkscape:window-y="23"
     inkscape:window-x="0"
     inkscape:cy="7.5590553"
     inkscape:cx="7.5590549"
     inkscape:zoom="36.909376"
     width="4mm"
     units="mm"
     inkscape:document-units="mm"
     showgrid="false"
     id="namedview99"
     inkscape:window-height="768"
     inkscape:window-width="1366"
     inkscape:pageshadow="2"
     inkscape:pageopacity="0"
     guidetolerance="10"
     gridtolerance="10"
     objecttolerance="10"
     borderopacity="1"
     bordercolor="#666666"
     pagecolor="#ffffff" />
  <defs
     id="defs89">
    <style
       id="style87">.cls-1{fill:#999;stroke:#000;stroke-width:0.5px;}.cls-2{fill:#fff;}</style>
  </defs>
  <g
     id="Bypass_off"
     data-name="Bypass off"
     transform="scale(1.2768674)">
    <circle
       style="fill:#999999;stroke:#000000;stroke-width:0.5px"
       class="cls-1"
       cx="5.9200001"
       cy="5.9200001"
       r="5.6700001"
       id="circle91" />
    <path
       style="fill:#ffffff"
       inkscape:connector-curvature="0"
       class="cls-2"
       d="m 7.92,6.92 a 1.29,1.29 0 0 1 -0.44,1 1.54,1.54 0 0 1 -1.08,0.4 H 4.32 V 3.44 h 1.93 a 1.53,1.53 0 0 1 1.06,0.39 1.3,1.3 0 0 1 0.43,1 1.17,1.17 0 0 1 -0.46,1 1.21,1.21 0 0 1 0.64,1.09 z M 5.28,4.34 v 1.08 h 1 A 0.52,0.52 0 0 0 6.8,4.88 0.52,0.52 0 0 0 6.28,4.34 Z m 1.12,3.1 a 0.58,0.58 0 0 0 0,-1.16 H 5.28 v 1.16 z"
       id="path93" />
  </g>
</svg>
