<?xml version="1.0" encoding="UTF-8" standalone="no"?>
<svg
   xmlns:dc="http://purl.org/dc/elements/1.1/"
   xmlns:cc="http://creativecommons.org/ns#"
   xmlns:rdf="http://www.w3.org/1999/02/22-rdf-syntax-ns#"
   xmlns:svg="http://www.w3.org/2000/svg"
   xmlns="http://www.w3.org/2000/svg"
   xmlns:sodipodi="http://sodipodi.sourceforge.net/DTD/sodipodi-0.dtd"
   xmlns:inkscape="http://www.inkscape.org/namespaces/inkscape"
   inkscape:version="1.0 (4035a4f, 2020-05-01)"
   height="4mm"
   width="4mm"
   sodipodi:docname="solo-round-on.svg"
   id="svg54"
   version="1.1"
   viewBox="0 0 15.118111 15.118111">
  <metadata
     id="metadata58">
    <rdf:RDF>
      <cc:Work
         rdf:about="">
        <dc:format>image/svg+xml</dc:format>
        <dc:type
           rdf:resource="http://purl.org/dc/dcmitype/StillImage" />
        <dc:title></dc:title>
      </cc:Work>
    </rdf:RDF>
  </metadata>
  <sodipodi:namedview
     inkscape:current-layer="svg54"
     inkscape:window-maximized="0"
     inkscape:window-y="23"
     inkscape:window-x="0"
     inkscape:cy="5.9200001"
     inkscape:cx="5.9200001"
     inkscape:zoom="85.135134"
     inkscape:document-units="mm"
     units="mm"
     showgrid="false"
     id="namedview56"
     inkscape:window-height="1194"
     inkscape:window-width="1330"
     inkscape:pageshadow="2"
     inkscape:pageopacity="0"
     guidetolerance="10"
     gridtolerance="10"
     objecttolerance="10"
     borderopacity="1"
     bordercolor="#666666"
     pagecolor="#ffffff" />
  <defs
     id="defs46">
    <style
       id="style44">.cls-1{fill:#7ac943;stroke:#000;stroke-width:0.5px;}.cls-2{fill:#fff;}</style>
  </defs>
  <g
     transform="scale(1.2768674)"
     data-name="Layer 2"
     id="Layer_2">
    <g
       data-name="Solo on"
       id="Solo_on">
      <circle
         id="circle48"
         r="5.6700001"
         cy="5.9200001"
         cx="5.9200001"
         class="cls-1" />
      <path
         id="path50"
         d="M 4.07,7 4.89,6.52 A 1.1,1.1 0 0 0 6,7.24 c 0.54,0 0.79,-0.22 0.79,-0.52 A 0.43,0.43 0 0 0 6.55,6.32 3.12,3.12 0 0 0 5.75,6 3.32,3.32 0 0 1 4.75,5.54 1.18,1.18 0 0 1 4.29,4.54 1.29,1.29 0 0 1 4.76,3.48 1.74,1.74 0 0 1 5.9,3.08 1.87,1.87 0 0 1 7.65,4.18 L 6.84,4.65 A 1,1 0 0 0 5.88,4 C 5.48,4 5.24,4.21 5.24,4.49 A 0.45,0.45 0 0 0 5.43,4.87 2.77,2.77 0 0 0 6.17,5.18 L 6.5,5.29 A 1.93,1.93 0 0 1 6.82,5.41 1.5,1.5 0 0 1 7.13,5.56 1.44,1.44 0 0 1 7.59,6 1.42,1.42 0 0 1 7.77,6.7 1.3,1.3 0 0 1 7.27,7.77 1.92,1.92 0 0 1 6,8.18 1.89,1.89 0 0 1 4.07,7 Z"
         class="cls-2" />
    </g>
  </g>
</svg>
