<?xml version="1.0" encoding="UTF-8" standalone="no"?>
<svg
   xmlns:dc="http://purl.org/dc/elements/1.1/"
   xmlns:cc="http://creativecommons.org/ns#"
   xmlns:rdf="http://www.w3.org/1999/02/22-rdf-syntax-ns#"
   xmlns:svg="http://www.w3.org/2000/svg"
   xmlns="http://www.w3.org/2000/svg"
   xmlns:sodipodi="http://sodipodi.sourceforge.net/DTD/sodipodi-0.dtd"
   xmlns:inkscape="http://www.inkscape.org/namespaces/inkscape"
   inkscape:version="0.92.2 (5c3e80d, 2017-08-06)"
   height="4mm"
   width="4mm"
   sodipodi:docname="solo-round-off.svg"
   id="svg20"
   version="1.1"
   viewBox="0 0 15.118111 15.118111">
  <metadata
     id="metadata24">
    <rdf:RDF>
      <cc:Work
         rdf:about="">
        <dc:format>image/svg+xml</dc:format>
        <dc:type
           rdf:resource="http://purl.org/dc/dcmitype/StillImage" />
        <dc:title />
      </cc:Work>
    </rdf:RDF>
  </metadata>
  <sodipodi:namedview
     inkscape:current-layer="svg20"
     inkscape:window-maximized="0"
     inkscape:window-y="23"
     inkscape:window-x="0"
     inkscape:cy="7.5590553"
     inkscape:cx="7.5590549"
     inkscape:zoom="36.909376"
     inkscape:document-units="mm"
     units="mm"
     showgrid="false"
     id="namedview22"
     inkscape:window-height="768"
     inkscape:window-width="1366"
     inkscape:pageshadow="2"
     inkscape:pageopacity="0"
     guidetolerance="10"
     gridtolerance="10"
     objecttolerance="10"
     borderopacity="1"
     bordercolor="#666666"
     pagecolor="#ffffff" />
  <defs
     id="defs12">
    <style
       id="style10">.cls-1{fill:#999;stroke:#000;stroke-width:0.5px;}.cls-2{fill:#fff;}</style>
  </defs>
  <g
     id="Solo_off"
     data-name="Solo off"
     transform="scale(1.2768674)">
    <circle
       style="fill:#999999;stroke:#000000;stroke-width:0.5px"
       class="cls-1"
       cx="5.9200001"
       cy="5.9200001"
       r="5.6700001"
       id="circle14" />
    <path
       style="fill:#ffffff"
       inkscape:connector-curvature="0"
       class="cls-2"
       d="M 4.07,7.11 4.89,6.62 A 1.1,1.1 0 0 0 6,7.37 c 0.54,0 0.79,-0.21 0.79,-0.51 A 0.43,0.43 0 0 0 6.55,6.46 3.05,3.05 0 0 0 5.73,6.14 3.31,3.31 0 0 1 4.73,5.69 1.19,1.19 0 0 1 4.27,4.69 1.29,1.29 0 0 1 4.74,3.63 1.69,1.69 0 0 1 5.88,3.23 1.87,1.87 0 0 1 7.63,4.33 L 6.82,4.8 A 1,1 0 0 0 5.88,4.17 c -0.4,0 -0.64,0.2 -0.64,0.49 A 0.46,0.46 0 0 0 5.43,5 3.15,3.15 0 0 0 6.17,5.31 L 6.5,5.42 A 1.93,1.93 0 0 1 6.82,5.54 1.54,1.54 0 0 1 7.13,5.68 1.6,1.6 0 0 1 7.59,6.12 1.37,1.37 0 0 1 7.77,6.81 1.32,1.32 0 0 1 7.27,7.89 1.92,1.92 0 0 1 6,8.32 1.89,1.89 0 0 1 4.07,7.11 Z"
       id="path16" />
  </g>
</svg>
