<?xml version="1.0" encoding="UTF-8" standalone="no"?>
<svg
   xmlns:dc="http://purl.org/dc/elements/1.1/"
   xmlns:cc="http://creativecommons.org/ns#"
   xmlns:rdf="http://www.w3.org/1999/02/22-rdf-syntax-ns#"
   xmlns:svg="http://www.w3.org/2000/svg"
   xmlns="http://www.w3.org/2000/svg"
   xmlns:sodipodi="http://sodipodi.sourceforge.net/DTD/sodipodi-0.dtd"
   xmlns:inkscape="http://www.inkscape.org/namespaces/inkscape"
   viewBox="0 0 134.40001 485.66928"
   version="1.1"
   id="svg1802"
   sodipodi:docname="eq-expander.svg"
   width="35.560001mm"
   height="128.5mm"
   inkscape:version="0.92.2 (5c3e80d, 2017-08-06)">
  <metadata
     id="metadata1806">
    <rdf:RDF>
      <cc:Work
         rdf:about="">
        <dc:format>image/svg+xml</dc:format>
        <dc:type
           rdf:resource="http://purl.org/dc/dcmitype/StillImage" />
        <dc:title>Asset 12</dc:title>
      </cc:Work>
    </rdf:RDF>
  </metadata>
  <sodipodi:namedview
     pagecolor="#ffffff"
     bordercolor="#666666"
     borderopacity="1"
     objecttolerance="10"
     gridtolerance="10"
     guidetolerance="10"
     inkscape:pageopacity="0"
     inkscape:pageshadow="2"
     inkscape:window-width="1920"
     inkscape:window-height="1017"
     id="namedview1804"
     showgrid="false"
     inkscape:document-units="mm"
     units="mm"
     inkscape:zoom="1.6616246"
     inkscape:cx="67.2"
     inkscape:cy="290.98032"
     inkscape:window-x="-8"
     inkscape:window-y="-8"
     inkscape:window-maximized="1"
     inkscape:current-layer="svg1802" />
  <defs
     id="defs9">
    <style
       id="style2">.cls-1{fill:#353535;}.cls-2{fill:#121212;}.cls-3{fill:#fff;}.cls-4{fill:gray;}.cls-12,.cls-13,.cls-5,.cls-8,.cls-9{fill:none;}.cls-5,.cls-8,.cls-9{stroke:#fff;}.cls-5{stroke-width:0.29px;}.cls-10,.cls-6{fill:#1a1a1a;}.cls-7{fill:#5e5e5e;}.cls-8{stroke-width:0.28px;}.cls-9{stroke-width:0.28px;}.cls-10{stroke:#000;stroke-width:0.5px;}.cls-11{fill:#b3b3b3;}.cls-12,.cls-13{stroke:#353535;}.cls-12{stroke-width:0.85px;}.cls-13{stroke-width:1.13px;}.cls-14{fill:url(#linear-gradient);}</style>
    <linearGradient
       id="linear-gradient"
       x1="756.32001"
       y1="349.56"
       x2="776.10999"
       y2="349.56"
       gradientUnits="userSpaceOnUse">
      <stop
         offset="0"
         stop-color="#3fa9f5"
         id="stop4" />
      <stop
         offset="1"
         stop-color="#ed1e79"
         id="stop6" />
    </linearGradient>
  </defs>
  <title
     id="title11">Asset 12</title>
  <path
     style="fill:#353535;stroke-width:1.33333707"
     inkscape:connector-curvature="0"
     d="M 0,-1.36734e-5 H 134.4 V 485.66926 H 0 Z"
     class="cls-1"
     id="rect4155" />
  <g
     id="g62"
     transform="matrix(1.3333333,0,0,1.3333405,0,-1.36734e-5)">
    <g
       id="g58">
      <path
         id="path22"
         class="cls-4"
         d="m 61.19,159.38 a 0.71,0.71 0 0 1 -0.26,-1 v 0 a 0.72,0.72 0 0 1 1,-0.27 v 0 a 0.71,0.71 0 0 1 0.26,1 v 0 a 0.7,0.7 0 0 1 -0.62,0.36 v 0 a 0.67,0.67 0 0 1 -0.35,-0.1 z"
         inkscape:connector-curvature="0"
         style="fill:#808080" />
      <path
         id="path20"
         class="cls-4"
         d="m 74.66,159.1 a 0.7,0.7 0 0 1 0.26,-1 v 0 a 0.72,0.72 0 0 1 1,0.26 v 0 a 0.73,0.73 0 0 1 -0.26,1 v 0 a 0.68,0.68 0 0 1 -0.36,0.1 v 0 a 0.72,0.72 0 0 1 -0.62,-0.37 z"
         inkscape:connector-curvature="0"
         style="fill:#808080" />
      <path
         id="path25"
         class="cls-4"
         d="m 58.19,157.09 v 0 a 0.73,0.73 0 0 1 0,-1 v 0 a 0.74,0.74 0 0 1 1,0 v 0 a 0.73,0.73 0 0 1 0,1 v 0 a 0.7,0.7 0 0 1 -0.51,0.21 v 0 a 0.73,0.73 0 0 1 -0.49,-0.21 z"
         inkscape:connector-curvature="0"
         style="fill:#808080" />
      <path
         id="path24"
         class="cls-4"
         d="m 77.61,157.06 a 0.73,0.73 0 0 1 0,-1 v 0 a 0.73,0.73 0 0 1 1,0 v 0 a 0.71,0.71 0 0 1 0,1 v 0 a 0.67,0.67 0 0 1 -0.5,0.21 v 0 a 0.7,0.7 0 0 1 -0.5,-0.21 z"
         inkscape:connector-curvature="0"
         style="fill:#808080" />
      <path
         id="path26"
         class="cls-4"
         d="m 55.89,154.1 a 0.7,0.7 0 0 1 0.26,-1 v 0 a 0.72,0.72 0 0 1 1,0.25 v 0 a 0.71,0.71 0 0 1 -0.26,1 v 0 a 0.78,0.78 0 0 1 -0.36,0.1 v 0 a 0.72,0.72 0 0 1 -0.64,-0.35 z"
         inkscape:connector-curvature="0"
         style="fill:#808080" />
      <path
         id="path28"
         class="cls-4"
         d="m 79.94,154.34 a 0.72,0.72 0 0 1 -0.26,-1 v 0 a 0.71,0.71 0 0 1 1,-0.27 v 0 a 0.72,0.72 0 0 1 0.26,1 v 0 a 0.7,0.7 0 0 1 -0.62,0.35 v 0 a 0.77,0.77 0 0 1 -0.36,-0.09 z"
         inkscape:connector-curvature="0"
         style="fill:#808080" />
      <path
         id="path30"
         class="cls-4"
         d="m 54.44,150.62 a 0.72,0.72 0 0 1 0.5,-0.88 v 0 a 0.72,0.72 0 0 1 0.88,0.51 v 0 a 0.7,0.7 0 0 1 -0.5,0.87 v 0 a 0.62,0.62 0 0 1 -0.19,0 v 0 a 0.71,0.71 0 0 1 -0.69,-0.52 z"
         inkscape:connector-curvature="0"
         style="fill:#808080" />
      <path
         id="path32"
         class="cls-4"
         d="m 81.49,151.1 a 0.72,0.72 0 0 1 -0.5,-0.88 v 0 a 0.71,0.71 0 0 1 0.87,-0.51 v 0 a 0.73,0.73 0 0 1 0.51,0.88 v 0 a 0.71,0.71 0 0 1 -0.7,0.53 v 0 a 0.58,0.58 0 0 1 -0.18,-0.02 z"
         inkscape:connector-curvature="0"
         style="fill:#808080" />
      <path
         id="path34"
         class="cls-4"
         d="m 53.94,146.88 a 0.71,0.71 0 0 1 0.72,-0.71 v 0 a 0.7,0.7 0 0 1 0.71,0.71 v 0 a 0.71,0.71 0 0 1 -0.71,0.72 v 0 a 0.73,0.73 0 0 1 -0.72,-0.72 z"
         inkscape:connector-curvature="0"
         style="fill:#808080" />
      <path
         id="path36"
         class="cls-4"
         d="m 81.43,146.85 v 0 0 0 a 0.71,0.71 0 0 1 0.7,-0.72 v 0 a 0.73,0.73 0 0 1 0.73,0.72 v 0 0 0 0 0 a 0.72,0.72 0 0 1 -0.72,0.72 v 0 a 0.71,0.71 0 0 1 -0.71,-0.72 z"
         inkscape:connector-curvature="0"
         style="fill:#808080" />
      <path
         id="path38"
         class="cls-4"
         d="m 54.93,144 a 0.69,0.69 0 0 1 -0.5,-0.86 v 0 a 0.72,0.72 0 0 1 0.87,-0.52 v 0 a 0.73,0.73 0 0 1 0.51,0.88 v 0 a 0.71,0.71 0 0 1 -0.69,0.53 v 0 a 0.63,0.63 0 0 1 -0.19,0 z"
         inkscape:connector-curvature="0"
         style="fill:#808080" />
      <path
         id="path40"
         class="cls-4"
         d="m 81,143.43 a 0.7,0.7 0 0 1 0.5,-0.87 v 0 a 0.71,0.71 0 0 1 0.88,0.5 v 0 a 0.72,0.72 0 0 1 -0.5,0.88 v 0 h -0.19 v 0 A 0.71,0.71 0 0 1 81,143.41 Z"
         inkscape:connector-curvature="0"
         style="fill:#808080" />
      <path
         id="path42"
         class="cls-4"
         d="m 56.13,140.63 a 0.71,0.71 0 0 1 -0.27,-1 v 0 a 0.71,0.71 0 0 1 1,-0.27 v 0 a 0.71,0.71 0 0 1 0.26,1 v 0 a 0.71,0.71 0 0 1 -0.62,0.36 v 0 a 0.63,0.63 0 0 1 -0.35,-0.09 z"
         inkscape:connector-curvature="0"
         style="fill:#808080" />
      <path
         id="path44"
         class="cls-4"
         d="m 79.65,140.3 a 0.73,0.73 0 0 1 0.26,-1 v 0 a 0.72,0.72 0 0 1 1,0.26 v 0 a 0.71,0.71 0 0 1 -0.25,1 v 0 a 0.71,0.71 0 0 1 -0.37,0.1 v 0 a 0.75,0.75 0 0 1 -0.62,-0.35 z"
         inkscape:connector-curvature="0"
         style="fill:#808080" />
      <path
         id="path46"
         class="cls-4"
         d="m 58.16,137.66 a 0.69,0.69 0 0 1 0,-1 v 0 a 0.73,0.73 0 0 1 1,0 v 0 a 0.73,0.73 0 0 1 0,1 v 0 a 0.7,0.7 0 0 1 -0.51,0.21 v 0 a 0.65,0.65 0 0 1 -0.49,-0.21 z"
         inkscape:connector-curvature="0"
         style="fill:#808080" />
      <path
         id="path48"
         class="cls-4"
         d="m 77.58,137.61 a 0.71,0.71 0 0 1 0,-1 v 0 a 0.71,0.71 0 0 1 1,0 v 0 a 0.73,0.73 0 0 1 0,1 v 0 a 0.73,0.73 0 0 1 -0.51,0.21 v 0 a 0.7,0.7 0 0 1 -0.49,-0.21 z"
         inkscape:connector-curvature="0"
         style="fill:#808080" />
      <path
         id="path50"
         class="cls-4"
         d="m 60.88,135.33 a 0.7,0.7 0 0 1 0.26,-1 v 0 a 0.71,0.71 0 0 1 1,0.25 v 0 a 0.72,0.72 0 0 1 -0.25,1 v 0 a 0.81,0.81 0 0 1 -0.37,0.09 v 0 a 0.7,0.7 0 0 1 -0.61,-0.35 z"
         inkscape:connector-curvature="0"
         style="fill:#808080" />
      <path
         id="path52"
         class="cls-4"
         d="m 74.88,135.55 a 0.7,0.7 0 0 1 -0.27,-1 v 0 a 0.7,0.7 0 0 1 1,-0.27 v 0 a 0.7,0.7 0 0 1 0.27,1 v 0 a 0.71,0.71 0 0 1 -0.62,0.36 v 0 a 0.7,0.7 0 0 1 -0.35,-0.09 z"
         inkscape:connector-curvature="0"
         style="fill:#808080" />
      <path
         id="path54"
         class="cls-4"
         d="m 64.11,133.78 a 0.72,0.72 0 0 1 0.51,-0.88 v 0 a 0.72,0.72 0 0 1 0.88,0.5 v 0 a 0.73,0.73 0 0 1 -0.51,0.88 v 0 H 64.8 v 0 a 0.73,0.73 0 0 1 -0.69,-0.52 z"
         inkscape:connector-curvature="0"
         style="fill:#808080" />
      <path
         id="path56"
         class="cls-4"
         d="m 71.73,134.26 a 0.71,0.71 0 0 1 -0.5,-0.88 v 0 a 0.7,0.7 0 0 1 0.86,-0.51 v 0 a 0.71,0.71 0 0 1 0.52,0.87 v 0 a 0.73,0.73 0 0 1 -0.7,0.53 v 0 h -0.18 z"
         inkscape:connector-curvature="0"
         style="fill:#808080" />
    </g>
    <path
       id="path60"
       class="cls-3"
       d="m 67.64,133.12 a 0.72,0.72 0 0 1 0.72,-0.72 v 0 a 0.71,0.71 0 0 1 0.71,0.71 v 0 a 0.71,0.71 0 0 1 -0.71,0.72 v 0 a 0.72,0.72 0 0 1 -0.72,-0.71 z"
       inkscape:connector-curvature="0"
       style="fill:#ffffff" />
  </g>
  <g
     id="g752"
     transform="matrix(1.3333333,0,0,1.3333405,0,-1.36734e-5)">
    <g
       id="g748">
      <path
         id="path708"
         class="cls-4"
         d="m 25.19,159.38 a 0.71,0.71 0 0 1 -0.26,-1 v 0 a 0.72,0.72 0 0 1 1,-0.27 v 0 a 0.71,0.71 0 0 1 0.26,1 v 0 a 0.7,0.7 0 0 1 -0.62,0.36 v 0 a 0.67,0.67 0 0 1 -0.35,-0.1 z"
         inkscape:connector-curvature="0"
         style="fill:#808080" />
      <path
         id="path710"
         class="cls-4"
         d="m 38.66,159.1 a 0.7,0.7 0 0 1 0.26,-1 v 0 a 0.72,0.72 0 0 1 1,0.26 v 0 a 0.73,0.73 0 0 1 -0.26,1 v 0 a 0.68,0.68 0 0 1 -0.36,0.1 v 0 a 0.72,0.72 0 0 1 -0.62,-0.37 z"
         inkscape:connector-curvature="0"
         style="fill:#808080" />
      <path
         id="path712"
         class="cls-4"
         d="m 22.19,157.09 v 0 a 0.73,0.73 0 0 1 0,-1 v 0 a 0.74,0.74 0 0 1 1,0 v 0 a 0.73,0.73 0 0 1 0,1 v 0 a 0.7,0.7 0 0 1 -0.51,0.21 v 0 a 0.73,0.73 0 0 1 -0.49,-0.21 z"
         inkscape:connector-curvature="0"
         style="fill:#808080" />
      <path
         id="path714"
         class="cls-4"
         d="m 41.61,157.06 a 0.73,0.73 0 0 1 0,-1 v 0 a 0.73,0.73 0 0 1 1,0 v 0 a 0.71,0.71 0 0 1 0,1 v 0 a 0.67,0.67 0 0 1 -0.5,0.21 v 0 a 0.7,0.7 0 0 1 -0.5,-0.21 z"
         inkscape:connector-curvature="0"
         style="fill:#808080" />
      <path
         id="path716"
         class="cls-4"
         d="m 19.89,154.1 a 0.7,0.7 0 0 1 0.26,-1 v 0 a 0.72,0.72 0 0 1 1,0.25 v 0 a 0.71,0.71 0 0 1 -0.26,1 v 0 a 0.78,0.78 0 0 1 -0.36,0.1 v 0 a 0.72,0.72 0 0 1 -0.64,-0.35 z"
         inkscape:connector-curvature="0"
         style="fill:#808080" />
      <path
         id="path718"
         class="cls-4"
         d="m 43.94,154.34 a 0.72,0.72 0 0 1 -0.26,-1 v 0 a 0.71,0.71 0 0 1 1,-0.27 v 0 a 0.72,0.72 0 0 1 0.26,1 v 0 a 0.7,0.7 0 0 1 -0.62,0.35 v 0 a 0.77,0.77 0 0 1 -0.36,-0.09 z"
         inkscape:connector-curvature="0"
         style="fill:#808080" />
      <path
         id="path720"
         class="cls-4"
         d="m 18.44,150.62 a 0.72,0.72 0 0 1 0.5,-0.88 v 0 a 0.72,0.72 0 0 1 0.88,0.51 v 0 a 0.7,0.7 0 0 1 -0.5,0.87 v 0 a 0.62,0.62 0 0 1 -0.19,0 v 0 a 0.71,0.71 0 0 1 -0.69,-0.52 z"
         inkscape:connector-curvature="0"
         style="fill:#808080" />
      <path
         id="path722"
         class="cls-4"
         d="m 45.49,151.1 a 0.72,0.72 0 0 1 -0.5,-0.88 v 0 a 0.71,0.71 0 0 1 0.87,-0.51 v 0 a 0.73,0.73 0 0 1 0.51,0.88 v 0 a 0.71,0.71 0 0 1 -0.7,0.53 v 0 a 0.58,0.58 0 0 1 -0.18,-0.02 z"
         inkscape:connector-curvature="0"
         style="fill:#808080" />
      <path
         id="path724"
         class="cls-4"
         d="m 17.94,146.88 a 0.71,0.71 0 0 1 0.72,-0.71 v 0 a 0.7,0.7 0 0 1 0.71,0.71 v 0 a 0.71,0.71 0 0 1 -0.71,0.72 v 0 a 0.73,0.73 0 0 1 -0.72,-0.72 z"
         inkscape:connector-curvature="0"
         style="fill:#808080" />
      <path
         id="path726"
         class="cls-4"
         d="m 45.43,146.85 v 0 0 0 a 0.71,0.71 0 0 1 0.7,-0.72 v 0 a 0.73,0.73 0 0 1 0.73,0.72 v 0 0 0 0 0 a 0.72,0.72 0 0 1 -0.72,0.72 v 0 a 0.71,0.71 0 0 1 -0.71,-0.72 z"
         inkscape:connector-curvature="0"
         style="fill:#808080" />
      <path
         id="path728"
         class="cls-4"
         d="m 18.93,144 a 0.69,0.69 0 0 1 -0.5,-0.86 v 0 a 0.72,0.72 0 0 1 0.87,-0.52 v 0 a 0.73,0.73 0 0 1 0.51,0.88 v 0 a 0.71,0.71 0 0 1 -0.69,0.53 v 0 a 0.63,0.63 0 0 1 -0.19,0 z"
         inkscape:connector-curvature="0"
         style="fill:#808080" />
      <path
         id="path730"
         class="cls-4"
         d="m 45,143.43 a 0.7,0.7 0 0 1 0.5,-0.87 v 0 a 0.71,0.71 0 0 1 0.88,0.5 v 0 a 0.72,0.72 0 0 1 -0.5,0.88 v 0 h -0.19 v 0 A 0.71,0.71 0 0 1 45,143.41 Z"
         inkscape:connector-curvature="0"
         style="fill:#808080" />
      <path
         id="path732"
         class="cls-4"
         d="m 20.13,140.63 a 0.71,0.71 0 0 1 -0.27,-1 v 0 a 0.71,0.71 0 0 1 1,-0.27 v 0 a 0.71,0.71 0 0 1 0.26,1 v 0 a 0.71,0.71 0 0 1 -0.62,0.36 v 0 a 0.63,0.63 0 0 1 -0.35,-0.09 z"
         inkscape:connector-curvature="0"
         style="fill:#808080" />
      <path
         id="path734"
         class="cls-4"
         d="m 43.65,140.3 a 0.73,0.73 0 0 1 0.26,-1 v 0 a 0.72,0.72 0 0 1 1,0.26 v 0 a 0.71,0.71 0 0 1 -0.25,1 v 0 a 0.71,0.71 0 0 1 -0.37,0.1 v 0 a 0.75,0.75 0 0 1 -0.62,-0.35 z"
         inkscape:connector-curvature="0"
         style="fill:#808080" />
      <path
         id="path736"
         class="cls-4"
         d="m 22.16,137.66 a 0.69,0.69 0 0 1 0,-1 v 0 a 0.73,0.73 0 0 1 1,0 v 0 a 0.73,0.73 0 0 1 0,1 v 0 a 0.7,0.7 0 0 1 -0.51,0.21 v 0 a 0.65,0.65 0 0 1 -0.49,-0.21 z"
         inkscape:connector-curvature="0"
         style="fill:#808080" />
      <path
         id="path738"
         class="cls-4"
         d="m 41.58,137.61 a 0.71,0.71 0 0 1 0,-1 v 0 a 0.71,0.71 0 0 1 1,0 v 0 a 0.73,0.73 0 0 1 0,1 v 0 a 0.73,0.73 0 0 1 -0.51,0.21 v 0 a 0.7,0.7 0 0 1 -0.49,-0.21 z"
         inkscape:connector-curvature="0"
         style="fill:#808080" />
      <path
         id="path740"
         class="cls-4"
         d="m 24.88,135.33 a 0.7,0.7 0 0 1 0.26,-1 v 0 a 0.71,0.71 0 0 1 1,0.25 v 0 a 0.72,0.72 0 0 1 -0.25,1 v 0 a 0.81,0.81 0 0 1 -0.37,0.09 v 0 a 0.7,0.7 0 0 1 -0.61,-0.35 z"
         inkscape:connector-curvature="0"
         style="fill:#808080" />
      <path
         id="path742"
         class="cls-4"
         d="m 38.88,135.55 a 0.7,0.7 0 0 1 -0.27,-1 v 0 a 0.7,0.7 0 0 1 1,-0.27 v 0 a 0.7,0.7 0 0 1 0.27,1 v 0 a 0.71,0.71 0 0 1 -0.62,0.36 v 0 a 0.7,0.7 0 0 1 -0.35,-0.09 z"
         inkscape:connector-curvature="0"
         style="fill:#808080" />
      <path
         id="path744"
         class="cls-4"
         d="m 28.11,133.78 a 0.72,0.72 0 0 1 0.51,-0.88 v 0 a 0.72,0.72 0 0 1 0.88,0.5 v 0 a 0.73,0.73 0 0 1 -0.51,0.88 v 0 H 28.8 v 0 a 0.73,0.73 0 0 1 -0.69,-0.52 z"
         inkscape:connector-curvature="0"
         style="fill:#808080" />
      <path
         id="path746"
         class="cls-4"
         d="m 35.73,134.26 a 0.71,0.71 0 0 1 -0.5,-0.88 v 0 a 0.7,0.7 0 0 1 0.86,-0.51 v 0 a 0.71,0.71 0 0 1 0.52,0.87 v 0 a 0.73,0.73 0 0 1 -0.7,0.53 v 0 h -0.18 z"
         inkscape:connector-curvature="0"
         style="fill:#808080" />
    </g>
    <path
       id="path750"
       class="cls-3"
       d="m 31.64,133.12 a 0.72,0.72 0 0 1 0.72,-0.72 v 0 a 0.71,0.71 0 0 1 0.71,0.71 v 0 a 0.71,0.71 0 0 1 -0.71,0.72 v 0 a 0.72,0.72 0 0 1 -0.72,-0.71 z"
       inkscape:connector-curvature="0"
       style="fill:#ffffff" />
  </g>
  <g
     id="branding"
     transform="matrix(1.3333333,0,0,1.3333405,-970,-1.36734e-5)">
    <path
       style="fill:url(#linear-gradient)"
       inkscape:connector-curvature="0"
       id="path1686"
       d="m 756.84,355.74 a 0.45,0.45 0 0 1 -0.25,-0.07 0.51,0.51 0 0 1 -0.2,-0.7 l 6.25,-11.32 a 0.52,0.52 0 0 1 1,0.25 v 9.33 l 5.28,-9.58 a 0.52,0.52 0 0 1 1,0.25 v 9.33 l 5.29,-9.58 a 0.5,0.5 0 0 1 0.57,-0.25 0.51,0.51 0 0 1 0.39,0.5 v 11.32 a 0.52,0.52 0 1 1 -1,0 v -9.33 l -5.29,9.58 a 0.5,0.5 0 0 1 -0.57,0.25 0.51,0.51 0 0 1 -0.39,-0.5 v -9.33 l -5.29,9.58 a 0.51,0.51 0 0 1 -0.58,0.25 0.52,0.52 0 0 1 -0.38,-0.5 v -9.33 l -5.29,9.58 a 0.51,0.51 0 0 1 -0.54,0.27 z"
       class="cls-14" />
    <path
       style="fill:#808080"
       inkscape:connector-curvature="0"
       id="path1688"
       d="M 783.64,348.62 Z"
       class="cls-4" />
    <path
       style="fill:#b3b3b3"
       inkscape:connector-curvature="0"
       id="path1690"
       d="m 783.64,343.4 h -0.1 a 0.48,0.48 0 0 0 -0.45,0.25 l -1.72,2.69 -1.71,-2.68 a 0.53,0.53 0 0 0 -0.46,-0.26 h -0.11 a 0.5,0.5 0 0 0 -0.5,0.5 v 4.73 a 0.48,0.48 0 0 0 0.49,0.48 0.48,0.48 0 0 0 0.49,-0.48 v -3.38 l 1.37,2.06 a 0.5,0.5 0 0 0 0.41,0.26 0.48,0.48 0 0 0 0.42,-0.26 l 1.38,-2.08 v 3.39 a 0.5,0.5 0 0 0 0.49,0.49 0.48,0.48 0 0 0 0.5,-0.49 v -4.72 a 0.49,0.49 0 0 0 -0.5,-0.5 z"
       class="cls-11" />
    <path
       style="fill:#808080"
       inkscape:connector-curvature="0"
       id="path1692"
       d="m 785.25,343.88 a 0.49,0.49 0 0 1 0.5,-0.49 0.48,0.48 0 0 1 0.49,0.49 v 4.74 a 0.48,0.48 0 0 1 -0.49,0.49 0.49,0.49 0 0 1 -0.5,-0.49 z"
       class="cls-4" />
    <path
       style="fill:#b3b3b3"
       inkscape:connector-curvature="0"
       id="path1694"
       d="m 785.75,343.39 a 0.49,0.49 0 0 0 -0.5,0.49 v 4.74 a 0.49,0.49 0 0 0 0.5,0.49 0.48,0.48 0 0 0 0.49,-0.49 v -4.74 a 0.48,0.48 0 0 0 -0.49,-0.49 z"
       class="cls-11" />
    <path
       style="fill:#808080"
       inkscape:connector-curvature="0"
       id="path1696"
       d="m 787.35,343.9 a 0.5,0.5 0 0 1 0.5,-0.5 h 0.1 a 0.62,0.62 0 0 1 0.52,0.29 l 2.82,3.65 v -3.47 a 0.5,0.5 0 0 1 1,0 v 4.74 a 0.48,0.48 0 0 1 -0.48,0.5 v 0 a 0.65,0.65 0 0 1 -0.52,-0.3 l -2.9,-3.76 v 3.58 a 0.5,0.5 0 0 1 -1,0 z"
       class="cls-4" />
    <path
       style="fill:#b3b3b3"
       inkscape:connector-curvature="0"
       id="path1698"
       d="m 791.78,343.39 a 0.49,0.49 0 0 0 -0.49,0.48 v 3.47 l -2.82,-3.65 a 0.62,0.62 0 0 0 -0.52,-0.29 h -0.1 a 0.5,0.5 0 0 0 -0.5,0.5 v 4.73 a 0.5,0.5 0 0 0 1,0 v -3.58 l 2.9,3.76 a 0.65,0.65 0 0 0 0.52,0.3 v 0 a 0.48,0.48 0 0 0 0.48,-0.5 v -4.74 a 0.49,0.49 0 0 0 -0.49,-0.48 z"
       class="cls-11" />
    <path
       style="fill:#808080"
       inkscape:connector-curvature="0"
       id="path1700"
       d="m 797.67,347.31 a 2.51,2.51 0 0 0 0.22,-1 2.41,2.41 0 0 0 -0.53,-1.56 2.21,2.21 0 0 1 0.57,1.52 2.24,2.24 0 0 1 -0.26,1.04 z"
       class="cls-4" />
    <path
       style="fill:#b3b3b3"
       inkscape:connector-curvature="0"
       id="path1702"
       d="m 795.43,343.43 h -1.61 a 0.5,0.5 0 0 0 -0.5,0.5 v 4.64 a 0.49,0.49 0 0 0 0.5,0.5 h 1.61 a 2.83,2.83 0 0 0 3,-2.82 v 0 a 2.82,2.82 0 0 0 -3,-2.8 z m -1.12,4.74 v -3.84 h 1.12 a 1.86,1.86 0 0 1 2,1.92 v 0 a 1.84,1.84 0 0 1 -2,1.9 z"
       class="cls-11" />
    <path
       style="fill:#808080"
       inkscape:connector-curvature="0"
       id="path1704"
       d="M 783.64,355.23 Z"
       class="cls-4" />
    <path
       style="fill:#b3b3b3"
       inkscape:connector-curvature="0"
       id="path1706"
       d="m 783.64,350 h -0.1 a 0.49,0.49 0 0 0 -0.45,0.26 l -1.72,2.74 -1.71,-2.68 a 0.53,0.53 0 0 0 -0.46,-0.26 h -0.11 a 0.5,0.5 0 0 0 -0.5,0.5 v 4.73 a 0.48,0.48 0 0 0 0.49,0.49 0.48,0.48 0 0 0 0.49,-0.49 v -3.38 l 1.37,2.06 a 0.5,0.5 0 0 0 0.41,0.26 0.48,0.48 0 0 0 0.42,-0.26 l 1.38,-2.07 v 3.38 a 0.51,0.51 0 0 0 0.49,0.5 0.49,0.49 0 0 0 0.5,-0.5 v -4.72 a 0.49,0.49 0 0 0 -0.5,-0.5 z"
       class="cls-11" />
    <path
       style="fill:#808080"
       inkscape:connector-curvature="0"
       id="path1708"
       d="m 785.2,355.19 v -4.65 a 0.49,0.49 0 0 1 0.5,-0.5 h 3.3 a 0.45,0.45 0 0 1 0,0.89 h -2.79 v 1.46 h 2.43 a 0.45,0.45 0 0 1 0.44,0.46 0.44,0.44 0 0 1 -0.44,0.43 h -2.43 v 1.52 H 789 a 0.45,0.45 0 0 1 0,0.89 h -3.3 a 0.49,0.49 0 0 1 -0.5,-0.5 z"
       class="cls-4" />
    <path
       style="fill:#b3b3b3"
       inkscape:connector-curvature="0"
       id="path1710"
       d="m 789,350 h -3.3 a 0.49,0.49 0 0 0 -0.5,0.5 v 4.65 a 0.49,0.49 0 0 0 0.5,0.5 h 3.3 a 0.45,0.45 0 0 0 0,-0.89 h -2.83 v -1.52 h 2.43 a 0.44,0.44 0 0 0 0.44,-0.43 0.45,0.45 0 0 0 -0.44,-0.46 h -2.43 v -1.46 H 789 a 0.45,0.45 0 0 0 0,-0.89 z"
       class="cls-11" />
    <path
       style="fill:#808080"
       inkscape:connector-curvature="0"
       id="path1712"
       d="m 790.2,350.49 a 0.5,0.5 0 0 1 1,0 v 4.29 h 2.56 a 0.45,0.45 0 0 1 0.45,0.45 0.46,0.46 0 0 1 -0.45,0.46 h -3 a 0.5,0.5 0 0 1 -0.5,-0.5 z"
       class="cls-4" />
    <path
       style="fill:#b3b3b3"
       inkscape:connector-curvature="0"
       id="path1714"
       d="m 790.7,350 a 0.49,0.49 0 0 0 -0.5,0.49 v 4.7 a 0.5,0.5 0 0 0 0.5,0.5 h 3 a 0.46,0.46 0 0 0 0.45,-0.46 0.45,0.45 0 0 0 -0.45,-0.45 h -2.56 v -4.29 A 0.49,0.49 0 0 0 790.65,350 Z"
       class="cls-11" />
    <path
       style="fill:#808080"
       inkscape:connector-curvature="0"
       id="path1716"
       d="m 799.14,353.92 a 2.51,2.51 0 0 0 0.22,-1 2.47,2.47 0 0 0 -0.53,-1.56 2.34,2.34 0 0 1 0.31,2.6 z"
       class="cls-4" />
    <path
       style="fill:#b3b3b3"
       inkscape:connector-curvature="0"
       id="path1718"
       d="m 796.9,350 h -1.61 a 0.5,0.5 0 0 0 -0.5,0.5 v 4.65 a 0.5,0.5 0 0 0 0.5,0.5 h 1.61 a 2.83,2.83 0 0 0 3,-2.83 v 0 a 2.82,2.82 0 0 0 -3,-2.81 z m -1.12,4.74 v -3.84 h 1.12 a 1.86,1.86 0 0 1 2,1.92 v 0 a 1.84,1.84 0 0 1 -2,1.9 z"
       class="cls-11" />
  </g>
</svg>
