<?xml version="1.0" encoding="UTF-8" standalone="no"?>
<svg
   inkscape:version="1.1 (c68e22c387, 2021-05-23)"
   sodipodi:docname="master-channel.svg"
   version="1.1"
   viewBox="0 0 96.000002 485.66927"
   height="128.5mm"
   width="25.4mm"
   data-name="Layer 2"
   id="Layer_2"
   xmlns:inkscape="http://www.inkscape.org/namespaces/inkscape"
   xmlns:sodipodi="http://sodipodi.sourceforge.net/DTD/sodipodi-0.dtd"
   xmlns="http://www.w3.org/2000/svg"
   xmlns:svg="http://www.w3.org/2000/svg"
   xmlns:rdf="http://www.w3.org/1999/02/22-rdf-syntax-ns#"
   xmlns:cc="http://creativecommons.org/ns#"
   xmlns:dc="http://purl.org/dc/elements/1.1/">
  <metadata
     id="metadata978">
    <rdf:RDF>
      <cc:Work
         rdf:about="">
        <dc:format>image/svg+xml</dc:format>
        <dc:type
           rdf:resource="http://purl.org/dc/dcmitype/StillImage" />
      </cc:Work>
    </rdf:RDF>
  </metadata>
  <sodipodi:namedview
     inkscape:current-layer="Layer_2"
     inkscape:window-maximized="0"
     inkscape:window-y="0"
     inkscape:window-x="0"
     inkscape:cy="114.67343"
     inkscape:cx="46.65565"
     inkscape:zoom="10.556063"
     units="mm"
     inkscape:document-units="mm"
     showgrid="false"
     id="namedview976"
     inkscape:window-height="1041"
     inkscape:window-width="1508"
     inkscape:pageshadow="2"
     inkscape:pageopacity="0"
     guidetolerance="10"
     gridtolerance="10"
     objecttolerance="10"
     borderopacity="1"
     bordercolor="#666666"
     pagecolor="#ffffff"
     inkscape:pagecheckerboard="0"
     showguides="true"
     inkscape:guide-bbox="true">
    <sodipodi:guide
       position="47.934537,381.74797"
       orientation="1,0"
       id="guide904" />
  </sodipodi:namedview>
  <defs
     id="defs838">
    <linearGradient
       gradientUnits="userSpaceOnUse"
       y2="349.55994"
       x2="34.00016"
       y1="349.55994"
       x1="14.21461"
       id="linear-gradient">
      <stop
         id="stop833"
         stop-color="#3fa9f5"
         offset="0" />
      <stop
         id="stop835"
         stop-color="#ed1e79"
         offset="1" />
    </linearGradient>
  </defs>
  <path
     style="fill:#353535;stroke-width:1.34118"
     d="M 0,0 H 97.133858 V 485.66929 H 0 Z"
     id="rect4155" />
  <g
     id="g2029"
     transform="scale(1.3333333)">
    <path
       style="fill:#ffffff"
       d="m 24.78282,113.45446 c 0.21582,0.20557 0.32617,0.479 0.32617,0.80957 0,0.33057 -0.11035,0.60352 -0.32617,0.81445 -0.21484,0.21094 -0.49316,0.31641 -0.82812,0.31641 -0.34082,0 -0.61816,-0.10547 -0.83398,-0.31641 -0.21582,-0.21094 -0.32129,-0.48389 -0.32129,-0.81445 0,-0.25879 0.06738,-0.48389 0.20117,-0.6709 l 1.07812,-1.61475 h 0.50781 l -0.79004,1.16943 c 0.07129,-0.005 0.12402,-0.01 0.1582,-0.01 0.33496,0 0.61328,0.10548 0.82812,0.31642 v 2.3e-4 z m -1.54199,0.80957 c 0,0.42139 0.29199,0.7041 0.71387,0.7041 0.4209,0 0.71387,-0.28271 0.71387,-0.7041 0,-0.42188 -0.29297,-0.69971 -0.71387,-0.69971 -0.42676,0 -0.71387,0.27783 -0.71387,0.69971 z"
       id="path2027" />
  </g>
  <g
     id="g2061"
     transform="scale(1.3333333)">
    <path
       style="fill:#ffffff"
       d="m 22.53673,263.37139 v 0.41602 H 22.1295 v 0.6377 h -0.44531 v -0.6377 h -1.71094 v -0.41602 l 1.20215,-2.2998 h 0.47949 l -1.20215,2.2998 h 1.23145 v -0.94922 h 0.44531 v 0.94922 z"
       id="path2057" />
    <path
       style="fill:#ffffff"
       d="m 25.1295,263.50518 c 0,0.30664 -0.10547,0.5459 -0.32129,0.72363 -0.21582,0.17188 -0.48828,0.25879 -0.8291,0.25879 -0.33496,0 -0.6084,-0.0869 -0.82422,-0.25879 -0.21484,-0.17773 -0.32031,-0.41699 -0.32031,-0.72363 0,-0.35938 0.19629,-0.64648 0.52148,-0.81445 -0.27246,-0.17285 -0.41113,-0.41699 -0.41113,-0.7334 0,-0.30176 0.10059,-0.53613 0.30176,-0.69922 0.20605,-0.16797 0.4502,-0.24902 0.73242,-0.24902 0.28809,0 0.53223,0.0811 0.7334,0.24902 0.20605,0.16309 0.30664,0.39746 0.30664,0.69922 0,0.31641 -0.13867,0.56055 -0.41211,0.7334 0.32617,0.16795 0.52246,0.45506 0.52246,0.81445 z m -0.44141,-0.0283 c 0,-0.36914 -0.28223,-0.58008 -0.70898,-0.58008 -0.4209,0 -0.7041,0.21094 -0.7041,0.58008 0,0.37793 0.2832,0.58398 0.7041,0.58398 0.42676,0 0.70898,-0.20605 0.70898,-0.58398 z m -1.30273,-1.50977 c 0,0.33984 0.26367,0.53711 0.59375,0.53711 0.33105,0 0.59473,-0.19727 0.59473,-0.53711 0,-0.34961 -0.24902,-0.53223 -0.59473,-0.53223 -0.33984,2e-5 -0.59375,0.18262 -0.59375,0.53223 z"
       id="path2059" />
  </g>
  <g
     id="g2073"
     transform="scale(1.3333333)">
    <path
       style="fill:#ffffff"
       d="m 20.26524,232.36045 v -0.36426 l 1.18359,-1.20703 c 0.31641,-0.31641 0.47363,-0.58984 0.47363,-0.81445 0,-0.37891 -0.2627,-0.59961 -0.59375,-0.59961 -0.31641,0 -0.5459,0.14941 -0.68945,0.45117 l -0.37402,-0.2207 c 0.21094,-0.43652 0.60352,-0.66113 1.05859,-0.66113 0.2832,0 0.52734,0.0908 0.7334,0.27734 0.20605,0.1875 0.31152,0.43652 0.31152,0.74805 0,0.33984 -0.20117,0.70898 -0.59961,1.10645 l -0.85742,0.85254 h 1.51855 v 0.43164 h -2.16504 z"
       id="path2069" />
    <path
       style="fill:#ffffff"
       d="m 25.21056,231.30674 v 0.41602 h -0.40723 v 0.6377 h -0.44531 v -0.6377 h -1.71094 v -0.41602 l 1.20215,-2.2998 h 0.47949 l -1.20215,2.2998 h 1.23145 v -0.94922 h 0.44531 v 0.94922 z"
       id="path2071" />
  </g>
  <g
     id="g2079"
     transform="scale(1.3333333)">
    <path
       style="fill:#ffffff"
       d="m 21.89415,215.08336 h 0.38379 v 3.354 h -0.44141 v -2.87549 l -0.71387,0.21094 -0.11035,-0.38281 z"
       id="path2075" />
    <path
       style="fill:#ffffff"
       d="m 25.12852,217.51744 c 0,0.30664 -0.10547,0.5459 -0.32031,0.72363 -0.21582,0.17188 -0.48926,0.25879 -0.8291,0.25879 -0.33594,0 -0.6084,-0.0869 -0.82422,-0.25879 -0.21582,-0.17773 -0.32129,-0.41699 -0.32129,-0.72363 0,-0.35938 0.19629,-0.64648 0.52246,-0.81445 -0.27344,-0.17334 -0.41211,-0.41748 -0.41211,-0.73389 0,-0.30176 0.10059,-0.53613 0.30176,-0.69922 0.20605,-0.16797 0.4502,-0.24902 0.7334,-0.24902 0.28711,0 0.53125,0.0811 0.73242,0.24902 0.20605,0.16309 0.30664,0.39746 0.30664,0.69922 0,0.31641 -0.13867,0.56055 -0.41211,0.73389 0.32617,0.16795 0.52246,0.45506 0.52246,0.81445 z m -0.44043,-0.0283 c 0,-0.36914 -0.2832,-0.58008 -0.70898,-0.58008 -0.42188,0 -0.7041,0.21094 -0.7041,0.58008 0,0.37793 0.28223,0.58398 0.7041,0.58398 0.42578,0 0.70898,-0.20605 0.70898,-0.58398 z m -1.30371,-1.51025 c 0,0.33984 0.26367,0.53711 0.59473,0.53711 0.33008,0 0.59375,-0.19727 0.59375,-0.53711 0,-0.34961 -0.24902,-0.53223 -0.59375,-0.53223 -0.34082,2e-5 -0.59473,0.18263 -0.59473,0.53223 z"
       id="path2077" />
  </g>
  <g
     id="g2085"
     transform="scale(1.3333333)">
    <path
       style="fill:#ffffff"
       d="m 22.02891,197.65287 h 0.38281 v 3.35352 h -0.44043 v -2.875 l -0.71387,0.21094 -0.11035,-0.38281 0.88184,-0.30664 z"
       id="path2081" />
    <path
       style="fill:#ffffff"
       d="m 22.9586,201.00639 v -0.36426 l 1.18359,-1.20703 c 0.31641,-0.31641 0.47363,-0.58984 0.47363,-0.81445 0,-0.37891 -0.2627,-0.59961 -0.59375,-0.59961 -0.31641,0 -0.5459,0.14941 -0.68945,0.45117 l -0.37402,-0.2207 c 0.21094,-0.43652 0.60352,-0.66113 1.05859,-0.66113 0.2832,0 0.52734,0.0908 0.7334,0.27734 0.20605,0.1875 0.31152,0.43652 0.31152,0.74805 0,0.33984 -0.20117,0.70898 -0.59961,1.10645 l -0.85742,0.85254 h 1.51855 v 0.43164 h -2.16504 z"
       id="path2083" />
  </g>
  <g
     id="g2089"
     transform="scale(1.3333333)">
    <path
       style="fill:#ffffff"
       d="m 24.85118,176.88301 c 0.21582,0.20605 0.3252,0.47852 0.3252,0.80957 0,0.33008 -0.10938,0.60352 -0.3252,0.81445 -0.21582,0.21093 -0.49414,0.31641 -0.8291,0.31641 -0.33984,0 -0.61816,-0.10547 -0.83398,-0.31641 -0.21484,-0.21094 -0.32031,-0.48438 -0.32031,-0.81445 0,-0.25879 0.06641,-0.48438 0.20117,-0.6709 l 1.07812,-1.61426 h 0.50781 l -0.79102,1.16895 c 0.07233,-0.005 0.125,-0.01 0.1582,-0.01 0.33496,0 0.61328,0.10547 0.8291,0.31641 v 2.3e-4 z m -1.54297,0.80957 c 0,0.42188 0.29199,0.7041 0.71387,0.7041 0.42188,0 0.71387,-0.28223 0.71387,-0.7041 0,-0.42187 -0.29199,-0.69922 -0.71387,-0.69922 -0.42676,0 -0.71387,0.27734 -0.71387,0.69922 z"
       id="path2087" />
  </g>
  <g
     id="g2093"
     transform="scale(1.3333333)">
    <path
       style="fill:#ffffff"
       d="m 23.88451,151.07469 c -0.40723,0 -0.72852,-0.1582 -0.95312,-0.47461 -0.22559,-0.31641 -0.33984,-0.73828 -0.33984,-1.26465 0,-0.52734 0.11426,-0.94922 0.33984,-1.26465 0.22461,-0.31641 0.5459,-0.47461 0.95312,-0.47461 0.40722,0 0.72852,0.1582 0.9541,0.47461 0.22461,0.31543 0.33984,0.7373 0.33984,1.26465 0,0.52637 -0.11523,0.94824 -0.33984,1.26465 -0.22559,0.31641 -0.54688,0.47461 -0.9541,0.47461 z m 0,-0.43652 c 0.54199,0 0.85352,-0.47363 0.85352,-1.30273 0,-0.8291 -0.31152,-1.30859 -0.85352,-1.30859 -0.54102,0 -0.84766,0.46973 -0.84766,1.30859 0,0.8291 0.30664,1.30273 0.84766,1.30273 z"
       id="path2091" />
  </g>
  <g
     id="g2105"
     transform="scale(1.3333333)">
    <path
       style="fill:#ffffff"
       d="m 21.68321,250.22723 c 0.5127,0.0957 0.87207,0.45508 0.87207,0.98633 0,0.32617 -0.11035,0.58496 -0.33496,0.77148 -0.22559,0.1875 -0.49414,0.2832 -0.81445,0.2832 -0.5127,0 -0.93457,-0.24023 -1.10254,-0.68066 l 0.37402,-0.2207 c 0.10059,0.31152 0.33984,0.46484 0.72852,0.46484 0.41602,0 0.7041,-0.22949 0.7041,-0.61816 0,-0.3877 -0.28809,-0.62207 -0.7041,-0.62207 h -0.11523 l -0.17773,-0.27344 0.77637,-1.0498 h -1.49023 v -0.41602 h 2.0127 v 0.39258 l -0.72852,0.98242 z"
       id="path2101" />
    <path
       style="fill:#ffffff"
       d="m 24.85118,250.32782 c 0.21582,0.20605 0.3252,0.47852 0.3252,0.80957 0,0.33008 -0.10938,0.60352 -0.3252,0.81445 -0.21582,0.21093 -0.49414,0.31641 -0.8291,0.31641 -0.33984,0 -0.61816,-0.10547 -0.83398,-0.31641 -0.21484,-0.21094 -0.32031,-0.48438 -0.32031,-0.81445 0,-0.25879 0.06641,-0.48438 0.20117,-0.6709 l 1.07812,-1.61426 h 0.50781 l -0.79102,1.16895 c 0.07233,-0.005 0.125,-0.01 0.1582,-0.01 0.33496,0 0.61328,0.10547 0.8291,0.31641 v 2.3e-4 z m -1.54297,0.80957 c 0,0.42188 0.29199,0.7041 0.71387,0.7041 0.42188,0 0.71387,-0.28223 0.71387,-0.7041 0,-0.42187 -0.29199,-0.69922 -0.71387,-0.69922 -0.42676,0 -0.71387,0.27734 -0.71387,0.69922 z"
       id="path2103" />
  </g>
  <path
     style="fill:none;stroke:#ffffff;stroke-width:0.39264px"
     d="m 56.567359,378.84763 h 3.833173"
     id="path4288" />
  <path
     style="fill:none;stroke:#ffffff;stroke-width:0.39264px"
     d="m 56.567359,350.53898 h 3.872319"
     id="path4292" />
  <path
     style="fill:none;stroke:#ffffff;stroke-width:0.39264px"
     d="m 56.567359,333.87126 h 3.872319"
     id="path4298" />
  <path
     style="fill:none;stroke:#ffffff;stroke-width:0.39264px"
     d="m 56.567359,307.41457 h 3.872319"
     id="path4300" />
  <path
     style="fill:none;stroke:#ffffff;stroke-width:0.39264px"
     d="m 56.567359,199.0933 h 3.872319"
     id="path4304" />
  <path
     style="fill:none;stroke:#ffffff;stroke-width:0.39264px"
     d="m 56.567359,151.7345 h 3.872319"
     id="path4306" />
  <path
     style="fill:none;stroke:#ffffff;stroke-width:0.39264px"
     d="m 35.878239,378.84763 h 3.833173"
     data-name="path4288"
     id="path4288-2" />
  <path
     style="fill:none;stroke:#ffffff;stroke-width:0.39264px"
     d="m 56.567359,367.73582 h 3.872319"
     id="path4290" />
  <path
     style="fill:none;stroke:#ffffff;stroke-width:0.39264px"
     d="m 35.878239,367.73582 h 3.87232"
     data-name="path4290"
     id="path4290-2" />
  <path
     style="fill:none;stroke:#ffffff;stroke-width:0.39264px"
     d="m 35.878239,350.53898 h 3.87232"
     data-name="path4292"
     id="path4292-2" />
  <path
     style="fill:none;stroke:#ffffff;stroke-width:0.39264px"
     d="m 35.878239,333.87126 h 3.87232"
     data-name="path4298"
     id="path4298-2" />
  <path
     style="fill:none;stroke:#ffffff;stroke-width:0.39264px"
     d="m 35.878239,307.41457 h 3.87232"
     data-name="path4300"
     id="path4300-2" />
  <path
     style="fill:none;stroke:#ffffff;stroke-width:0.39264px"
     d="m 56.567359,265.49961 h 3.872319"
     id="path4302" />
  <path
     style="fill:none;stroke:#ffffff;stroke-width:0.39264px"
     d="m 35.878239,265.49961 h 3.87232"
     data-name="path4302"
     id="path4302-2" />
  <path
     style="fill:none;stroke:#ffffff;stroke-width:0.39264px"
     d="m 56.567359,288.85709 h 3.872319"
     data-name="path4302"
     id="path4302-3" />
  <path
     style="fill:none;stroke:#ffffff;stroke-width:0.39264px"
     d="m 35.878239,288.85709 h 3.87232"
     data-name="path4302"
     id="path4302-4" />
  <path
     style="fill:none;stroke:#ffffff;stroke-width:0.39264px"
     d="m 35.878239,199.0933 h 3.87232"
     data-name="path4304"
     id="path4304-2" />
  <path
     style="fill:none;stroke:#ffffff;stroke-width:0.39264px"
     d="m 56.567359,175.24317 h 3.872319"
     data-name="path4304"
     id="path4304-3" />
  <path
     style="fill:none;stroke:#ffffff;stroke-width:0.39264px"
     d="m 35.878239,175.24317 h 3.87232"
     data-name="path4304"
     id="path4304-4" />
  <path
     style="fill:none;stroke:#ffffff;stroke-width:0.39264px"
     d="m 56.567359,236.09487 h 3.872319"
     data-name="path4304"
     id="path4304-5" />
  <path
     style="fill:none;stroke:#ffffff;stroke-width:0.39264px"
     d="m 35.878239,236.09487 h 3.87232"
     data-name="path4304"
     id="path4304-6" />
  <path
     style="fill:none;stroke:#ffffff;stroke-width:0.39264px"
     d="m 35.878239,151.7345 h 3.87232"
     data-name="path4306"
     id="path4306-2" />
  <rect
     style="fill:#1a1a1a;stroke-width:1.33333"
     height="226.5182"
     width="2.6456666"
     y="152.56848"
     x="66.832748"
     id="rect2179" />
  <rect
     style="fill:#5e5e5e;stroke-width:1.33333"
     height="226.5182"
     width="0.75590664"
     y="152.56848"
     x="69.467262"
     data-name="rect2179"
     id="rect2179-2" />
  <g
     id="g2386"
     transform="scale(1.3333333)">
    <rect
       style="fill:#121212"
       height="170.92912"
       width="4.5429702"
       y="113.38587"
       x="36.785809"
       id="rect2382" />
    <rect
       style="fill:#121212"
       height="170.92912"
       width="4.5278902"
       y="113.38587"
       x="30.55711"
       id="rect2384" />
  </g>
  <g
     id="g2560"
     transform="scale(1.3333333)">
    <path
       style="fill:#ffffff"
       d="m 5.52309,37.9042 h 1.98533 v 0.98176 h -3.0116 v -5.20491 h 1.02627 z"
       id="path2558" />
  </g>
  <g
     id="g2564"
     transform="scale(1.3333333)">
    <path
       style="fill:#ffffff"
       d="M 6.86361,64.39777 5.81554,62.59136 H 5.03449 v 1.80641 H 4.00822 v -5.20491 h 2.08251 c 0.48316,0 0.89186,0.17074 1.22698,0.50587 0.33422,0.33422 0.50587,0.74291 0.50587,1.21881 0,0.64755 -0.40143,1.24243 -1.00447,1.51761 l 1.15251,1.96263 H 6.86361 Z M 5.03449,60.15191 v 1.5394 h 1.05624 c 0.38689,0 0.70658,-0.34966 0.70658,-0.77379 0,-0.42322 -0.31969,-0.76561 -0.70658,-0.76561 z"
       id="path2562" />
  </g>
  <g
     id="g904"
     transform="scale(1.3333333)">
    <path
       id="path900"
       style="fill:#ffffff"
       d="m 20.68213,274.2343 h 2.09375 v 0.39746 l -1.22266,2.95605 h -0.46387 l 1.21191,-2.93262 h -1.61914 v -0.4209 z" />
    <path
       id="path902"
       style="fill:#ffffff"
       d="m 22.97412,277.58782 v -0.36426 l 1.18359,-1.20703 c 0.31641,-0.31641 0.47363,-0.58984 0.47363,-0.81445 0,-0.37891 -0.2627,-0.59961 -0.59375,-0.59961 -0.31641,0 -0.5459,0.14941 -0.68945,0.45117 l -0.37402,-0.2207 c 0.21094,-0.43652 0.60352,-0.66113 1.05859,-0.66113 0.2832,0 0.52734,0.0908 0.7334,0.27734 0.20605,0.1875 0.31152,0.43652 0.31152,0.74805 0,0.33984 -0.20117,0.70898 -0.59961,1.10645 l -0.85742,0.85254 h 1.51855 v 0.43164 h -2.16504 z" />
  </g>
  <path
     id="path906"
     style="fill:#ffffff;stroke-width:1.33333"
     d="m 32.420066,174.94296 c 0.6836,0.1276 1.16276,0.60677 1.16276,1.3151 0,0.4349 -0.147134,0.77995 -0.446613,1.02864 -0.300787,0.25 -0.658854,0.3776 -1.085934,0.3776 -0.6836,0 -1.246093,-0.3203 -1.470053,-0.90754 l 0.498693,-0.29427 c 0.13412,0.41536 0.45312,0.61979 0.97136,0.61979 0.554694,0 0.9388,-0.30599 0.9388,-0.82422 0,-0.51693 -0.38412,-0.82942 -0.9388,-0.82942 h -0.15364 l -0.236973,-0.36459 1.03516,-1.39973 h -1.986973 v -0.5547 h 2.683599 v 0.52344 l -0.971359,1.3099 z" />
  <path
     style="fill:none;stroke:#ffffff;stroke-width:0.39264px"
     d="m 56.567359,218.67126 h 3.872319"
     data-name="path4304"
     id="path4304-7" />
  <path
     style="fill:none;stroke:#ffffff;stroke-width:0.39264px"
     d="m 35.878239,218.67126 h 3.87232"
     data-name="path4304"
     id="path4304-8" />
  <path
     id="path910"
     style="fill:#ffffff;stroke-width:1.33333"
     d="m 32.420066,218.46169 c 0.6836,0.1276 1.16276,0.60677 1.16276,1.3151 0,0.4349 -0.147134,0.77995 -0.446613,1.02864 -0.300787,0.25 -0.658854,0.3776 -1.085934,0.3776 -0.6836,0 -1.246093,-0.3203 -1.470053,-0.90754 l 0.498693,-0.29427 c 0.13412,0.41536 0.45312,0.61979 0.97136,0.61979 0.554694,0 0.9388,-0.30599 0.9388,-0.82422 0,-0.51693 -0.38412,-0.82942 -0.9388,-0.82942 h -0.15364 l -0.236973,-0.36459 1.03516,-1.39973 h -1.986973 v -0.5547 h 2.683599 v 0.52344 l -0.971359,1.3099 z" />
  <rect
     id="rect958"
     style="fill:#121212;stroke-width:1.33333"
     ry="1.9075066"
     rx="1.9075066"
     height="92.220467"
     width="40.818893"
     y="8.3150263"
     x="48.358051" />
  <g
     id="g964"
     transform="scale(1.3333333)">
    <path
       id="path960"
       style="fill:#ffffff"
       d="m 18.70371,11.729 h 0.9668 v 4.90283 h -0.9668 z" />
    <path
       id="path962"
       style="fill:#ffffff"
       d="m 23.76621,11.729 h 0.96582 v 4.90283 h -0.73535 l -2.10059,-2.99756 v 2.99756 h -0.9668 V 11.729 h 0.73535 l 2.10156,2.99072 V 11.729 Z" />
  </g>
  <g
     id="g972"
     transform="scale(1.3333333)">
    <path
       id="path966"
       style="fill:#ffffff"
       d="m 46.80918,16.72998 c -0.70703,0 -1.30957,-0.24512 -1.80664,-0.73535 -0.49023,-0.49756 -0.73535,-1.09961 -0.73535,-1.81396 0,-0.71435 0.24512,-1.31689 0.73535,-1.80713 0.49707,-0.49707 1.09961,-0.74219 1.80664,-0.74219 0.70703,0 1.30957,0.24512 1.80664,0.74219 0.49805,0.49023 0.74316,1.09277 0.74316,1.80713 0,0.71436 -0.24512,1.31641 -0.74316,1.81396 -0.49707,0.49023 -1.09961,0.73535 -1.80664,0.73535 z m 0,-0.9458 c 0.44824,0 0.82617,-0.14697 1.12793,-0.44824 0.30078,-0.30078 0.45508,-0.68604 0.45508,-1.15527 0,-0.46923 -0.1543,-0.85449 -0.45508,-1.15576 -0.30176,-0.30127 -0.67969,-0.45508 -1.12793,-0.45508 -0.44824,0 -0.82617,0.15381 -1.12793,0.45508 -0.30078,0.30127 -0.45508,0.68652 -0.45508,1.15576 0,0.46924 0.1543,0.85449 0.45508,1.15527 0.30176,0.30127 0.67969,0.44824 1.12793,0.44824 z" />
    <path
       id="path968"
       style="fill:#ffffff"
       d="M 50.83359,16.26758 C 50.483,15.95947 50.3082,15.54639 50.3082,15.02783 V 11.729 h 0.95996 v 3.22217 c 0,0.51123 0.28711,0.83301 0.91016,0.83301 0.62305,0 0.91016,-0.32178 0.91016,-0.83301 V 11.729 h 0.9668 v 3.29883 c 0,0.51855 -0.1748,0.93164 -0.52539,1.23975 -0.34961,0.30811 -0.79785,0.4624 -1.35156,0.4624 -0.5459,0 -0.99414,-0.1543 -1.34473,-0.4624 z" />
    <path
       id="path970"
       style="fill:#ffffff"
       d="m 58.51426,11.729 v 0.9248 h -1.32422 v 3.97803 H 56.22422 V 12.6538 H 54.90684 V 11.729 Z" />
  </g>
  <rect
     id="rect835"
     style="fill:#000000;fill-opacity:1;stroke:none;stroke-width:1.33417;stroke-dasharray:none;stroke-opacity:1"
     ry="1.2226523"
     rx="1.2226523"
     height="18.897638"
     width="69.240944"
     y="109.06638"
     x="13.387362" />
</svg>
