<?xml version="1.0" encoding="UTF-8" standalone="no"?>
<svg xmlns:dc="http://purl.org/dc/elements/1.1/" xmlns:cc="http://creativecommons.org/ns#" xmlns:rdf="http://www.w3.org/1999/02/22-rdf-syntax-ns#" xmlns:svg="http://www.w3.org/2000/svg" xmlns="http://www.w3.org/2000/svg" xmlns:sodipodi="http://sodipodi.sourceforge.net/DTD/sodipodi-0.dtd" xmlns:inkscape="http://www.inkscape.org/namespaces/inkscape" inkscape:version="1.0 (4035a4f, 2020-05-01)" sodipodi:docname="RouteMaster5to1stereo.svg" version="1.1" viewBox="0 0 115.2 485.66925" height="128.5mm" width="30.48mm" data-name="Layer 2" id="Layer_2">
  <metadata id="metadata1691">
    <rdf:RDF>
      <cc:Work rdf:about="">
        <dc:format>image/svg+xml</dc:format>
        <dc:type rdf:resource="http://purl.org/dc/dcmitype/StillImage" />
        <dc:title></dc:title>
      </cc:Work>
    </rdf:RDF>
  </metadata>
  <sodipodi:namedview inkscape:current-layer="Layer_2" inkscape:window-maximized="0" inkscape:window-y="25" inkscape:window-x="0" inkscape:cy="182.12599" inkscape:cx="43.200001" inkscape:zoom="1.7447717" units="mm" inkscape:document-units="mm" showgrid="false" id="namedview1689" inkscape:window-height="1182" inkscape:window-width="1314" inkscape:pageshadow="2" inkscape:pageopacity="0" guidetolerance="10" gridtolerance="10" objecttolerance="10" borderopacity="1" bordercolor="#666666" pagecolor="#ffffff" />
  <defs id="defs1594">
    <linearGradient gradientUnits="userSpaceOnUse" y2="349.55969" x2="41.200939" y1="349.55969" x1="21.414419" id="linear-gradient">
      <stop id="stop1589" stop-color="#3fa9f5" offset="0" />
      <stop id="stop1591" stop-color="#ed1e79" offset="1" />
    </linearGradient>
  </defs>
  <g transform="scale(1.3333333)" id="Background">
    <rect y="0" x="0" id="rect1596" style="fill:#353535" height="364.25198" width="86.400002" />
    <g id="g1642">
      <path id="path1598" style="fill:url(#linear-gradient)" d="m 21.92848,355.73633 c -0.08496,0 -0.16992,-0.0205 -0.24805,-0.0635 -0.24902,-0.1377 -0.33887,-0.4502 -0.20215,-0.69824 l 6.25293,-11.3252 c 0.11426,-0.20605 0.35645,-0.30859 0.57812,-0.25 0.22754,0.0586 0.38574,0.26367 0.38574,0.49805 v 9.33105 l 5.28906,-9.5791 c 0.11426,-0.20605 0.35449,-0.30859 0.57812,-0.25 0.22754,0.0586 0.38574,0.26367 0.38574,0.49805 v 9.33105 l 5.28906,-9.5791 c 0.11426,-0.20605 0.35547,-0.30859 0.57812,-0.25 0.22754,0.0586 0.38574,0.26367 0.38574,0.49805 v 11.3252 c 0,0.28418 -0.22949,0.51367 -0.51367,0.51367 -0.28418,0 -0.51367,-0.22949 -0.51367,-0.51367 v -9.33105 l -5.28906,9.5791 c -0.11523,0.20508 -0.35742,0.30469 -0.57812,0.25 -0.22754,-0.0586 -0.38574,-0.26367 -0.38574,-0.49805 v -9.33105 l -5.28906,9.5791 c -0.11426,0.20508 -0.3584,0.30469 -0.57812,0.25 -0.22754,-0.0586 -0.38574,-0.26367 -0.38574,-0.49805 v -9.33105 l -5.28906,9.5791 c -0.09375,0.16992 -0.26953,0.26562 -0.4502,0.26562 z" />
      <g id="g1640">
        <path id="path1600" style="fill:#b3b3b3" d="M 48.73328,343.39503 H 48.6283 c -0.2019,0 -0.34692,0.0888 -0.4519,0.25806 l -1.71802,2.68616 -1.70996,-2.67798 c -0.09692,-0.1532 -0.24194,-0.26624 -0.45947,-0.26624 h -0.10498 c -0.28223,0 -0.5,0.22559 -0.5,0.5 v 4.73474 c 0,0.27429 0.20947,0.48425 0.48389,0.48425 0.27442,0 0.49194,-0.20996 0.49194,-0.48425 v -3.37976 l 1.37109,2.05725 c 0.10498,0.16125 0.23438,0.25806 0.41187,0.25806 0.18506,0 0.31421,-0.0968 0.41919,-0.25806 l 1.37939,-2.073 v 3.38733 c 0,0.26624 0.22559,0.49243 0.49194,0.49243 0.28247,0 0.5,-0.21802 0.5,-0.49243 v -4.72656 c 0,-0.27441 -0.21753,-0.5 -0.5,-0.5 z" />
        <g id="g1606">
          <path id="path1602" style="fill:#808080" d="m 50.34172,343.87878 c 0,-0.27383 0.21754,-0.49188 0.49999,-0.49188 0.27434,0 0.49188,0.21805 0.49188,0.49188 v 4.74285 c 0,0.27434 -0.21754,0.49239 -0.49188,0.49239 -0.28245,0 -0.49999,-0.21805 -0.49999,-0.49239 z" />
          <path id="path1604" style="fill:#b3b3b3" d="m 50.84168,343.38685 c -0.28247,0 -0.5,0.21814 -0.5,0.49194 v 4.7428 c 0,0.27441 0.21753,0.49243 0.5,0.49243 0.27441,0 0.49194,-0.21802 0.49194,-0.49243 v -4.7428 c 0,-0.2738 -0.21753,-0.49194 -0.49194,-0.49194 z" />
        </g>
        <g id="g1612">
          <path id="path1608" style="fill:#808080" d="m 52.43957,343.89501 c 0,-0.27434 0.21754,-0.49999 0.49999,-0.49999 h 0.10497 c 0.24188,0 0.3788,0.1212 0.51622,0.29056 l 2.82299,3.65361 v -3.46852 c 0,-0.26572 0.21754,-0.48377 0.48377,-0.48377 0.27434,0 0.49188,0.21805 0.49188,0.48377 v 4.74285 c 0,0.27434 -0.20943,0.49239 -0.48377,0.49239 h -0.04057 c -0.23377,0 -0.3788,-0.1212 -0.51622,-0.29868 l -2.90362,-3.75858 v 3.5811 c 0,0.26622 -0.21754,0.48427 -0.48377,0.48427 -0.27434,0 -0.49188,-0.21805 -0.49188,-0.48427 v -4.73474 z" />
          <path id="path1610" style="fill:#b3b3b3" d="m 56.86756,343.38685 c -0.26636,0 -0.48389,0.21814 -0.48389,0.48376 v 3.46863 l -2.823,-3.65369 c -0.13745,-0.16931 -0.27417,-0.29053 -0.51611,-0.29053 h -0.10498 c -0.28247,0 -0.5,0.22559 -0.5,0.5 v 4.73474 c 0,0.26624 0.21753,0.48425 0.49194,0.48425 0.26611,0 0.48364,-0.21802 0.48364,-0.48425 v -3.58118 l 2.90356,3.75867 c 0.13745,0.17749 0.28247,0.29871 0.51636,0.29871 h 0.04053 c 0.27441,0 0.48389,-0.21814 0.48389,-0.49243 v -4.74292 c 0,-0.26562 -0.21753,-0.48376 -0.49194,-0.48376 z" />
        </g>
        <g id="g1618">
          <path id="path1614" style="fill:#808080" d="m 62.7616,347.31911 c 0.13916,-0.31152 0.21484,-0.66602 0.21484,-1.05273 0,-0.53906 -0.1499,-1.02051 -0.41357,-1.41016 0.28906,0.37695 0.4541,0.84863 0.4541,1.37793 0,0.40039 -0.09082,0.7666 -0.25537,1.08496 z" />
          <path id="path1616" style="fill:#b3b3b3" d="M 60.51648,343.4275 H 58.9115 c -0.28223,0 -0.5,0.21753 -0.5,0.5 v 4.646 c 0,0.28247 0.21777,0.5 0.5,0.5 h 1.60498 c 1.77441,0 3.00049,-1.23425 3.00049,-2.823 v -0.0162 c 0,-1.58923 -1.22607,-2.80676 -3.00049,-2.80676 z m -1.11304,4.74231 v -3.83923 h 1.11304 c 1.18555,0 1.95996,0.81494 1.95996,1.91992 v 0.0162 c 0,1.10486 -0.77441,1.90308 -1.95996,1.90308 h -1.11304 z" />
        </g>
        <path id="path1620" style="fill:#b3b3b3" d="M 48.73328,350.00697 H 48.6283 c -0.2019,0 -0.34692,0.0887 -0.4519,0.25818 l -1.71802,2.68604 -1.70996,-2.67798 c -0.09692,-0.15308 -0.24194,-0.26624 -0.45947,-0.26624 h -0.10498 c -0.28223,0 -0.5,0.22571 -0.5,0.5 v 4.73474 c 0,0.27441 0.20947,0.48425 0.48389,0.48425 0.27442,0 0.49194,-0.20984 0.49194,-0.48425 v -3.37976 l 1.37109,2.05725 c 0.10498,0.16125 0.23438,0.25818 0.41187,0.25818 0.18506,0 0.31421,-0.0969 0.41919,-0.25818 l 1.37939,-2.073 v 3.38745 c 0,0.26624 0.22559,0.49231 0.49194,0.49231 0.28247,0 0.5,-0.21802 0.5,-0.49231 v -4.72668 c 0,-0.27429 -0.21753,-0.5 -0.5,-0.5 z" />
        <g id="g1626">
          <path id="path1622" style="fill:#808080" d="m 50.28543,355.18546 v -4.646 c 0,-0.28245 0.21754,-0.49999 0.49999,-0.49999 h 3.28293 c 0.24188,0 0.4432,0.20132 0.4432,0.4432 0,0.2505 -0.20132,0.44371 -0.4432,0.44371 H 51.2773 v 1.46804 h 2.42797 c 0.24188,0 0.44371,0.20182 0.44371,0.45182 0,0.24188 -0.20182,0.43559 -0.44371,0.43559 H 51.2773 v 1.51621 h 2.83111 c 0.24188,0 0.44371,0.20182 0.44371,0.44371 0,0.25 -0.20182,0.44371 -0.44371,0.44371 h -3.32299 c -0.28245,0 -0.49999,-0.21754 -0.49999,-0.49999 z" />
          <path id="path1624" style="fill:#b3b3b3" d="m 54.06824,350.03944 h -3.28271 c -0.28247,0 -0.5,0.21753 -0.5,0.5 v 4.646 c 0,0.28247 0.21753,0.5 0.5,0.5 h 3.323 c 0.2417,0 0.4436,-0.19373 0.4436,-0.44373 0,-0.24182 -0.2019,-0.44373 -0.4436,-0.44373 h -2.8313 v -1.51611 h 2.42798 c 0.24194,0 0.44385,-0.19373 0.44385,-0.43567 0,-0.25 -0.2019,-0.45178 -0.44385,-0.45178 h -2.42798 v -1.46802 h 2.79102 c 0.24194,0 0.44336,-0.19324 0.44336,-0.44373 0,-0.24194 -0.20142,-0.44324 -0.44336,-0.44324 v 0 z" />
        </g>
        <g id="g1632">
          <path id="path1628" style="fill:#808080" d="m 55.28842,350.49078 c 0,-0.27383 0.21754,-0.49188 0.49999,-0.49188 0.27434,0 0.49188,0.21805 0.49188,0.49188 v 4.29154 h 2.55677 c 0.25,0 0.45182,0.20132 0.45182,0.45131 0,0.24999 -0.20182,0.45182 -0.45182,0.45182 h -3.04865 c -0.28245,0 -0.49999,-0.21754 -0.49999,-0.49999 z" />
          <path id="path1630" style="fill:#b3b3b3" d="m 55.78846,349.99891 c -0.28247,0 -0.5,0.21802 -0.5,0.49182 v 4.6947 c 0,0.28247 0.21753,0.5 0.5,0.5 h 3.04858 c 0.25,0 0.4519,-0.20178 0.4519,-0.45178 0,-0.25 -0.2019,-0.45129 -0.4519,-0.45129 H 56.2804 v -4.29163 c 0,-0.2738 -0.21753,-0.49182 -0.49194,-0.49182 z" />
        </g>
        <g id="g1638">
          <path id="path1634" style="fill:#808080" d="m 64.23084,353.93043 c 0.13916,-0.31152 0.21436,-0.66602 0.21436,-1.05176 0,-0.61035 -0.19141,-1.14551 -0.52246,-1.55859 0.35791,0.39453 0.56299,0.91992 0.56299,1.52637 0,0.39941 -0.09033,0.76562 -0.25488,1.08398 z" />
          <path id="path1636" style="fill:#b3b3b3" d="m 61.98499,350.03944 h -1.60474 c -0.28247,0 -0.5,0.21753 -0.5,0.5 v 4.646 c 0,0.28247 0.21753,0.5 0.5,0.5 h 1.60474 c 1.77441,0 3.00049,-1.23425 3.00049,-2.823 v -0.0162 c 0,-1.58923 -1.22607,-2.80676 -3.00049,-2.80676 z m -1.11304,4.74292 v -3.83972 h 1.11304 c 1.18579,0 1.95996,0.81482 1.95996,1.9198 v 0.0162 c 0,1.10498 -0.77417,1.90369 -1.95996,1.90369 h -1.11304 z" />
        </g>
      </g>
    </g>
  </g>
  <g transform="scale(1.3333333)" id="section">
    <rect id="rect1645" style="fill:#424242" ry="1.45759" rx="1.45759" height="45.61795" width="77.896057" y="44.503941" x="4.25319" />
    <rect id="rect1647" style="fill:#424242" ry="1.45759" rx="1.45759" height="45.61795" width="77.896057" y="93.665199" x="4.25319" />
    <rect id="rect1649" style="fill:#424242" ry="1.45759" rx="1.45759" height="45.61795" width="77.896057" y="142.82646" x="4.25319" />
    <rect id="rect1651" style="fill:#424242" ry="1.45759" rx="1.45759" height="45.61795" width="77.896057" y="191.98772" x="4.25319" />
    <rect id="rect1653" style="fill:#424242" ry="1.45759" rx="1.45759" height="45.61795" width="77.896057" y="241.14899" x="4.25319" />
    <rect id="rect1655" style="fill:#121212" ry="1.45759" rx="1.45759" height="45.61795" width="77.896057" y="290.31024" x="4.25319" />
    <g id="g1661">
      <path id="path1657" style="fill:#1a1a1a" d="m 5.85926,25.80055 h 74.68408 c 0.72708,0 1.31738,0.5903 1.31738,1.31738 v 10.96045 c 0,0.72735 -0.59052,1.31787 -1.31787,1.31787 H 5.85926 c -0.72708,0 -1.31738,-0.5903 -1.31738,-1.31738 V 27.11793 c 0,-0.72708 0.5903,-1.31738 1.31738,-1.31738 z" />
      <path id="path1659" d="m 80.54285,26.08937 c 0.56738,0 1.02881,0.46149 1.02881,1.02875 v 10.96063 c 0,0.5672 -0.46143,1.02869 -1.02881,1.02869 H 5.8595 c -0.56714,0 -1.02856,-0.46149 -1.02856,-1.02869 V 27.11812 c 0,-0.56726 0.46143,-1.02875 1.02856,-1.02875 h 74.68335 m 0,-0.57758 H 5.8595 c -0.88354,0 -1.6062,0.72284 -1.6062,1.60632 v 10.96063 c 0,0.88348 0.72266,1.60626 1.6062,1.60626 h 74.68335 c 0.88354,0 1.60645,-0.72278 1.60645,-1.60626 V 27.11811 c 0,-0.88348 -0.7229,-1.60632 -1.60645,-1.60632 z" />
    </g>
  </g>
  <g transform="scale(1.3333333)" id="attenuverters">
    <g id="g1668">
      <path id="path1664" style="fill:#ffffff" d="m 11.28429,310.48379 h 2.13477 v 1.05566 h -3.23828 v -5.59668 h 1.10352 v 4.54102 z" />
      <path id="path1666" style="fill:#ffffff" d="m 75.31372,311.53934 -1.12744,-1.94287 h -0.83936 v 1.94287 H 72.2434 v -5.59668 h 2.23877 c 0.52002,0 0.95947,0.18359 1.31934,0.54346 0.35987,0.35987 0.54395,0.79932 0.54395,1.31104 0,0.6958 -0.43164,1.33545 -1.07959,1.63135 l 1.23926,2.11084 h -1.19141 z m -1.9668,-4.56543 v 1.65527 h 1.13525 c 0.41602,0 0.75977,-0.37598 0.75977,-0.83203 0,-0.45557 -0.34375,-0.82324 -0.75977,-0.82324 z" />
    </g>
  </g>
  <g transform="scale(1.3333333)" data-name="Titles outline" id="Titles_outline">
    <g id="g1685">
      <path id="path1671" style="fill:#cccccc" d="m 25.97205,18.42067 -1.25488,-2.18652 h -0.72168 v 2.18652 h -1.52148 v -6.6543 h 2.66211 c 0.63672,0 1.16895,0.21875 1.61621,0.66504 0.44629,0.44727 0.66504,0.97949 0.66504,1.61621 0,0.80762 -0.49414,1.5498 -1.22656,1.92969 l 1.41699,2.44336 h -1.63574 z m -1.97656,-5.22852 v 1.71094 h 1.14062 c 0.41797,0 0.75977,-0.37109 0.75977,-0.85547 0,-0.48535 -0.3418,-0.85547 -0.75977,-0.85547 z" />
      <path id="path1673" style="fill:#cccccc" d="m 34.97107,11.76637 v 6.6543 h -1.52051 v -3.86914 l -1.7207,2.82324 h -0.17188 l -1.71973,-2.82324 v 3.86914 h -1.52148 v -6.6543 h 1.52148 l 1.80566,2.95605 1.80664,-2.95605 h 1.52051 z" />
      <path id="path1675" style="fill:#cccccc" d="m 40.61951,14.10426 c 0.65625,0 1.19824,0.2002 1.62598,0.58984 0.4375,0.38965 0.65625,0.93164 0.65625,1.63477 0,0.69434 -0.23828,1.24512 -0.7041,1.63477 -0.46582,0.39062 -1.0459,0.58984 -1.7207,0.58984 -1.10254,0 -1.98633,-0.47559 -2.37598,-1.42578 l 1.31152,-0.76074 c 0.16211,0.46582 0.52246,0.70312 1.06445,0.70312 1.20801,0.07617 1.17871,-1.55859 0.04785,-1.48242 h -2.08203 l 0.27539,-3.82129 h 3.85059 v 1.42578 H 40.1449 l -0.06738,0.91211 z" />
      <path id="path1677" style="fill:#cccccc" d="m 43.51599,12.62184 4.27832,1.85352 v 1.23535 l -4.27832,1.85449 v -1.46387 l 2.66211,-1.00781 -2.66211,-1.00781 z" />
      <path id="path1679" style="fill:#cccccc" d="m 50.00623,11.76637 h 1.33105 v 6.6543 H 49.8158 v -5.04785 l -1.17871,0.32324 -0.37109,-1.30273 1.74023,-0.62695 z" />
      <path id="path1681" style="fill:#cccccc" d="m 59.41248,18.42067 h -1.63477 l -0.88379,-1.25488 -0.88477,1.25488 h -1.63477 l 1.70117,-2.41504 -1.64453,-2.33789 h 1.63574 l 0.82715,1.17871 0.82715,-1.17871 h 1.63477 l -1.64453,2.33789 1.70117,2.41504 z" />
      <path id="path1683" style="fill:#cccccc" d="m 59.61853,18.42067 v -1.10254 l 2.23438,-2.32031 c 0.44629,-0.46582 0.6748,-0.85547 0.6748,-1.17871 0,-0.41797 -0.2666,-0.70312 -0.71289,-0.70312 -0.44727,0 -0.77051,0.2373 -0.97949,0.72266 l -1.2832,-0.75098 c 0.40918,-0.95117 1.2832,-1.45508 2.24316,-1.45508 0.61816,0 1.15039,0.19043 1.58789,0.58008 0.44629,0.38086 0.66504,0.89355 0.66504,1.54004 0,0.7041 -0.3418,1.39746 -1.03613,2.0918 l -1.10254,1.1123 h 2.23438 v 1.46387 h -4.52539 z" />
    </g>
  </g>
</svg>
