<?xml version="1.0" encoding="UTF-8" standalone="no"?>
<svg xmlns:dc="http://purl.org/dc/elements/1.1/" xmlns:cc="http://creativecommons.org/ns#" xmlns:rdf="http://www.w3.org/1999/02/22-rdf-syntax-ns#" xmlns:svg="http://www.w3.org/2000/svg" xmlns="http://www.w3.org/2000/svg" xmlns:sodipodi="http://sodipodi.sourceforge.net/DTD/sodipodi-0.dtd" xmlns:inkscape="http://www.inkscape.org/namespaces/inkscape" inkscape:version="1.0 (4035a4f, 2020-05-01)" sodipodi:docname="RouteMaster5to1.svg" version="1.1" viewBox="0 0 76.8 485.66925" height="128.5mm" width="20.32mm" data-name="Layer 2" id="Layer_2">
  <metadata id="metadata924">
    <rdf:RDF>
      <cc:Work rdf:about="">
        <dc:format>image/svg+xml</dc:format>
        <dc:type rdf:resource="http://purl.org/dc/dcmitype/StillImage" />
        <dc:title></dc:title>
      </cc:Work>
    </rdf:RDF>
  </metadata>
  <sodipodi:namedview inkscape:current-layer="Layer_2" inkscape:window-maximized="0" inkscape:window-y="25" inkscape:window-x="0" inkscape:cy="182.12599" inkscape:cx="28.799999" inkscape:zoom="2.8167314" units="mm" inkscape:document-units="mm" showgrid="false" id="namedview922" inkscape:window-height="1155" inkscape:window-width="1202" inkscape:pageshadow="2" inkscape:pageopacity="0" guidetolerance="10" gridtolerance="10" objecttolerance="10" borderopacity="1" bordercolor="#666666" pagecolor="#ffffff" />
  <defs id="defs838">
    <linearGradient gradientUnits="userSpaceOnUse" y2="349.55969" x2="26.80094" y1="349.55969" x1="7.01442" id="linear-gradient">
      <stop id="stop833" stop-color="#3fa9f5" offset="0" />
      <stop id="stop835" stop-color="#ed1e79" offset="1" />
    </linearGradient>
  </defs>
  <g transform="scale(1.3333333)" id="Background">
    <rect y="0" x="0" id="rect840" style="fill:#353535" height="364.25198" width="57.599998" />
    <g id="g886">
      <path id="path842" style="fill:url(#linear-gradient)" d="m 7.52848,355.73633 c -0.08496,0 -0.16992,-0.0205 -0.24805,-0.0635 -0.24902,-0.1377 -0.33887,-0.4502 -0.20215,-0.69824 l 6.25293,-11.3252 c 0.11426,-0.20605 0.35645,-0.30859 0.57812,-0.25 0.22754,0.0586 0.38574,0.26367 0.38574,0.49805 v 9.33105 l 5.28906,-9.5791 c 0.11426,-0.20605 0.35449,-0.30859 0.57812,-0.25 0.22754,0.0586 0.38574,0.26367 0.38574,0.49805 v 9.33105 l 5.28906,-9.5791 c 0.11426,-0.20605 0.35547,-0.30859 0.57812,-0.25 0.22754,0.0586 0.38574,0.26367 0.38574,0.49805 v 11.3252 c 0,0.28418 -0.22949,0.51367 -0.51367,0.51367 -0.28418,0 -0.51367,-0.22949 -0.51367,-0.51367 v -9.33105 l -5.28906,9.5791 c -0.11523,0.20508 -0.35742,0.30469 -0.57812,0.25 -0.22754,-0.0586 -0.38574,-0.26367 -0.38574,-0.49805 v -9.33105 l -5.28906,9.5791 c -0.11426,0.20508 -0.3584,0.30469 -0.57812,0.25 -0.22754,-0.0586 -0.38574,-0.26367 -0.38574,-0.49805 v -9.33105 l -5.28906,9.5791 c -0.09375,0.16992 -0.26953,0.26562 -0.4502,0.26562 z" />
      <g id="g884">
        <path id="path844" style="fill:#b3b3b3" d="m 34.33321,343.39503 h -0.10498 c -0.2019,0 -0.34692,0.0888 -0.4519,0.25806 l -1.71802,2.68616 -1.70972,-2.67798 c -0.09692,-0.1532 -0.24194,-0.26624 -0.45947,-0.26624 h -0.10498 c -0.28247,0 -0.5,0.22559 -0.5,0.5 v 4.73474 c 0,0.27429 0.20947,0.48425 0.48364,0.48425 0.27441,0 0.49194,-0.20996 0.49194,-0.48425 v -3.37976 l 1.37109,2.05725 c 0.10498,0.16125 0.23438,0.25806 0.41187,0.25806 0.18506,0 0.31445,-0.0968 0.41943,-0.25806 l 1.37915,-2.073 v 3.38733 c 0,0.26624 0.22583,0.49243 0.49194,0.49243 0.28247,0 0.5,-0.21802 0.5,-0.49243 v -4.72656 c 0,-0.27441 -0.21753,-0.5 -0.5,-0.5 v 0 z" />
        <g id="g850">
          <path id="path846" style="fill:#808080" d="m 35.94172,343.87878 c 0,-0.27383 0.21754,-0.49188 0.49999,-0.49188 0.27434,0 0.49188,0.21805 0.49188,0.49188 v 4.74285 c 0,0.27434 -0.21754,0.49239 -0.49188,0.49239 -0.28245,0 -0.49999,-0.21805 -0.49999,-0.49239 z" />
          <path id="path848" style="fill:#b3b3b3" d="m 36.44161,343.38685 c -0.28223,0 -0.5,0.21814 -0.5,0.49194 v 4.7428 c 0,0.27441 0.21777,0.49243 0.5,0.49243 0.27441,0 0.49194,-0.21802 0.49194,-0.49243 v -4.7428 c 0,-0.2738 -0.21753,-0.49194 -0.49194,-0.49194 z" />
        </g>
        <g id="g856">
          <path id="path852" style="fill:#808080" d="m 38.03957,343.89501 c 0,-0.27434 0.21754,-0.49999 0.49999,-0.49999 h 0.10497 c 0.24188,0 0.3788,0.1212 0.51622,0.29056 l 2.82299,3.65361 v -3.46852 c 0,-0.26572 0.21754,-0.48377 0.48377,-0.48377 0.27434,0 0.49188,0.21805 0.49188,0.48377 v 4.74285 c 0,0.27434 -0.20943,0.49239 -0.48377,0.49239 h -0.04057 c -0.23377,0 -0.3788,-0.1212 -0.51622,-0.29868 l -2.90362,-3.75858 v 3.5811 c 0,0.26622 -0.21754,0.48427 -0.48377,0.48427 -0.27434,0 -0.49188,-0.21805 -0.49188,-0.48427 v -4.73474 z" />
          <path id="path854" style="fill:#b3b3b3" d="m 42.46748,343.38685 c -0.26611,0 -0.48364,0.21814 -0.48364,0.48376 v 3.46863 l -2.823,-3.65369 c -0.13745,-0.16931 -0.27441,-0.29053 -0.51636,-0.29053 H 38.5395 c -0.28247,0 -0.5,0.22559 -0.5,0.5 v 4.73474 c 0,0.26624 0.21753,0.48425 0.49194,0.48425 0.26611,0 0.48389,-0.21802 0.48389,-0.48425 v -3.58118 l 2.90356,3.75867 c 0.13745,0.17749 0.28247,0.29871 0.51611,0.29871 h 0.04053 c 0.27441,0 0.48389,-0.21814 0.48389,-0.49243 v -4.74292 c 0,-0.26562 -0.21753,-0.48376 -0.49194,-0.48376 z" />
        </g>
        <g id="g862">
          <path id="path858" style="fill:#808080" d="m 48.36153,347.31911 c 0.13916,-0.31152 0.21484,-0.66602 0.21484,-1.05273 0,-0.53906 -0.1499,-1.02051 -0.41357,-1.41016 0.28906,0.37695 0.4541,0.84863 0.4541,1.37793 0,0.40039 -0.09082,0.7666 -0.25537,1.08496 z" />
          <path id="path860" style="fill:#b3b3b3" d="m 46.11665,343.4275 h -1.60498 c -0.28247,0 -0.5,0.21753 -0.5,0.5 v 4.646 c 0,0.28247 0.21753,0.5 0.5,0.5 h 1.60498 c 1.77417,0 3.00049,-1.23425 3.00049,-2.823 v -0.0162 c 0,-1.58923 -1.22632,-2.80676 -3.00049,-2.80676 z m -1.11328,4.74231 v -3.83923 h 1.11328 c 1.18555,0 1.95972,0.81494 1.95972,1.91992 v 0.0162 c 0,1.10486 -0.77417,1.90308 -1.95972,1.90308 h -1.11328 z" />
        </g>
        <path id="path864" style="fill:#b3b3b3" d="m 34.33321,350.00697 h -0.10498 c -0.2019,0 -0.34692,0.0887 -0.4519,0.25818 l -1.71802,2.68604 -1.70972,-2.67798 c -0.09692,-0.15308 -0.24194,-0.26624 -0.45947,-0.26624 h -0.10498 c -0.28247,0 -0.5,0.22571 -0.5,0.5 v 4.73474 c 0,0.27441 0.20947,0.48425 0.48364,0.48425 0.27441,0 0.49194,-0.20984 0.49194,-0.48425 v -3.37976 l 1.37109,2.05725 c 0.10498,0.16125 0.23438,0.25818 0.41187,0.25818 0.18506,0 0.31445,-0.0969 0.41943,-0.25818 l 1.37915,-2.073 v 3.38745 c 0,0.26624 0.22583,0.49231 0.49194,0.49231 0.28247,0 0.5,-0.21802 0.5,-0.49231 v -4.72668 c 0,-0.27429 -0.21753,-0.5 -0.5,-0.5 v 0 z" />
        <g id="g870">
          <path id="path866" style="fill:#808080" d="m 35.88543,355.18546 v -4.646 c 0,-0.28245 0.21754,-0.49999 0.49999,-0.49999 h 3.28293 c 0.24188,0 0.4432,0.20132 0.4432,0.4432 0,0.2505 -0.20132,0.44371 -0.4432,0.44371 H 36.8773 v 1.46804 h 2.42797 c 0.24188,0 0.44371,0.20182 0.44371,0.45182 0,0.24188 -0.20182,0.43559 -0.44371,0.43559 H 36.8773 v 1.51621 h 2.83111 c 0.24188,0 0.44371,0.20182 0.44371,0.44371 0,0.25 -0.20182,0.44371 -0.44371,0.44371 h -3.32299 c -0.28245,0 -0.49999,-0.21754 -0.49999,-0.49999 z" />
          <path id="path868" style="fill:#b3b3b3" d="m 39.66841,350.03944 h -3.28296 c -0.28247,0 -0.5,0.21753 -0.5,0.5 v 4.646 c 0,0.28247 0.21753,0.5 0.5,0.5 h 3.323 c 0.24194,0 0.4436,-0.19373 0.4436,-0.44373 0,-0.24182 -0.20166,-0.44373 -0.4436,-0.44373 H 36.8774 v -1.51611 h 2.42798 c 0.2417,0 0.4436,-0.19373 0.4436,-0.43567 0,-0.25 -0.2019,-0.45178 -0.4436,-0.45178 H 36.8774 v -1.46802 h 2.79102 c 0.24194,0 0.44312,-0.19324 0.44312,-0.44373 0,-0.24194 -0.20117,-0.44324 -0.44312,-0.44324 v 0 z" />
        </g>
        <g id="g876">
          <path id="path872" style="fill:#808080" d="m 40.88842,350.49078 c 0,-0.27383 0.21754,-0.49188 0.49999,-0.49188 0.27434,0 0.49188,0.21805 0.49188,0.49188 v 4.29154 h 2.55677 c 0.25,0 0.45182,0.20132 0.45182,0.45131 0,0.24999 -0.20182,0.45182 -0.45182,0.45182 h -3.04865 c -0.28245,0 -0.49999,-0.21754 -0.49999,-0.49999 z" />
          <path id="path874" style="fill:#b3b3b3" d="m 41.38838,349.99891 c -0.28247,0 -0.5,0.21802 -0.5,0.49182 v 4.6947 c 0,0.28247 0.21753,0.5 0.5,0.5 h 3.04858 c 0.25,0 0.4519,-0.20178 0.4519,-0.45178 0,-0.25 -0.2019,-0.45129 -0.4519,-0.45129 h -2.55664 v -4.29163 c 0,-0.2738 -0.21753,-0.49182 -0.49194,-0.49182 z" />
        </g>
        <g id="g882">
          <path id="path878" style="fill:#808080" d="m 49.83077,353.93043 c 0.13916,-0.31152 0.21436,-0.66602 0.21436,-1.05176 0,-0.61035 -0.19141,-1.14551 -0.52246,-1.55859 0.35791,0.39453 0.56299,0.91992 0.56299,1.52637 0,0.39941 -0.09033,0.76562 -0.25488,1.08398 z" />
          <path id="path880" style="fill:#b3b3b3" d="m 47.58516,350.03944 h -1.60498 c -0.28247,0 -0.5,0.21753 -0.5,0.5 v 4.646 c 0,0.28247 0.21753,0.5 0.5,0.5 h 1.60498 c 1.77417,0 3.00049,-1.23425 3.00049,-2.823 v -0.0162 c 0,-1.58923 -1.22632,-2.80676 -3.00049,-2.80676 z m -1.11304,4.74292 v -3.83972 h 1.11304 c 1.18555,0 1.95996,0.81482 1.95996,1.9198 v 0.0162 c 0,1.10498 -0.77441,1.90369 -1.95996,1.90369 h -1.11304 z" />
        </g>
      </g>
    </g>
  </g>
  <g transform="scale(1.3333333)" id="section">
    <rect id="rect889" style="fill:#424242" ry="1.19012" rx="1.19012" height="45.61795" width="51.93071" y="44.503941" x="2.83465" />
    <rect id="rect891" style="fill:#424242" ry="1.19012" rx="1.19012" height="45.61795" width="51.93071" y="93.665199" x="2.83465" />
    <rect id="rect893" style="fill:#424242" ry="1.19012" rx="1.19012" height="45.61795" width="51.93071" y="142.82646" x="2.83465" />
    <rect id="rect895" style="fill:#424242" ry="1.19012" rx="1.19012" height="45.61795" width="51.93071" y="191.98772" x="2.83465" />
    <rect id="rect897" style="fill:#424242" ry="1.19012" rx="1.19012" height="45.61795" width="51.93071" y="241.14899" x="2.83465" />
    <rect id="rect899" style="fill:#121212" ry="1.19012" rx="1.19012" height="45.61795" width="51.93071" y="290.31024" x="2.83465" />
    <g id="g905">
      <rect id="rect901" style="fill:#1a1a1a" ry="1.07617" rx="1.07617" height="13.70312" width="51.458981" y="25.74684" x="3.0705099" />
      <path id="path903" d="m 53.45381,25.98335 c 0.46313,0 0.83984,0.37683 0.83984,0.84003 v 11.55011 c 0,0.46313 -0.37671,0.83997 -0.83984,0.83997 H 4.1462 c -0.46313,0 -0.83984,-0.37683 -0.83984,-0.83997 V 26.82338 c 0,-0.4632 0.37671,-0.84003 0.83984,-0.84003 h 49.30761 m 0,-0.47156 H 4.1462 c -0.72144,0 -1.31152,0.59021 -1.31152,1.31158 v 11.55011 c 0,0.72137 0.59009,1.31152 1.31152,1.31152 h 49.30761 c 0.72144,0 1.31152,-0.59015 1.31152,-1.31152 V 26.82337 c 0,-0.72137 -0.59009,-1.31158 -1.31152,-1.31158 z" />
    </g>
  </g>
  <g transform="scale(1.3333333)" data-name="Titles outline" id="Titles_outline">
    <g id="g918">
      <path id="path908" style="fill:#cccccc" d="m 17.821,18.42067 -1.25488,-2.18652 h -0.72168 v 2.18652 h -1.52148 v -6.6543 h 2.66211 c 0.63672,0 1.16895,0.21875 1.61621,0.66504 0.44629,0.44727 0.66504,0.97949 0.66504,1.61621 0,0.80762 -0.49414,1.5498 -1.22656,1.92969 l 1.41699,2.44336 h -1.63574 z m -1.97656,-5.22852 v 1.71094 h 1.14062 c 0.41797,0 0.75977,-0.37109 0.75977,-0.85547 0,-0.48535 -0.3418,-0.85547 -0.75977,-0.85547 z" />
      <path id="path910" style="fill:#cccccc" d="m 26.82002,11.76637 v 6.6543 h -1.52051 v -3.86914 l -1.7207,2.82324 H 23.40693 L 21.6872,14.55153 v 3.86914 h -1.52148 v -6.6543 h 1.52148 l 1.80566,2.95605 1.80664,-2.95605 h 1.52051 z" />
      <path id="path912" style="fill:#cccccc" d="m 32.46846,14.10426 c 0.65625,0 1.19824,0.2002 1.62598,0.58984 0.4375,0.38965 0.65625,0.93164 0.65625,1.63477 0,0.69434 -0.23828,1.24512 -0.7041,1.63477 -0.46582,0.39062 -1.0459,0.58984 -1.7207,0.58984 -1.10254,0 -1.98633,-0.47559 -2.37598,-1.42578 l 1.31152,-0.76074 c 0.16211,0.46582 0.52246,0.70312 1.06445,0.70312 1.20801,0.07617 1.17871,-1.55859 0.04785,-1.48242 H 30.2917 l 0.27539,-3.82129 h 3.85059 v 1.42578 h -2.42383 l -0.06738,0.91211 z" />
      <path id="path914" style="fill:#cccccc" d="m 35.36495,12.62184 4.27832,1.85352 v 1.23535 l -4.27832,1.85449 v -1.46387 l 2.66211,-1.00781 -2.66211,-1.00781 z" />
      <path id="path916" style="fill:#cccccc" d="m 41.85518,11.76637 h 1.33105 v 6.6543 h -1.52148 v -5.04785 l -1.17871,0.32324 -0.37109,-1.30273 1.74023,-0.62695 z" />
    </g>
  </g>
</svg>
