<?xml version="1.0" encoding="UTF-8" standalone="no"?>
<svg
   xmlns:dc="http://purl.org/dc/elements/1.1/"
   xmlns:cc="http://creativecommons.org/ns#"
   xmlns:rdf="http://www.w3.org/1999/02/22-rdf-syntax-ns#"
   xmlns:svg="http://www.w3.org/2000/svg"
   xmlns="http://www.w3.org/2000/svg"
   xmlns:xlink="http://www.w3.org/1999/xlink"
   xmlns:sodipodi="http://sodipodi.sourceforge.net/DTD/sodipodi-0.dtd"
   xmlns:inkscape="http://www.inkscape.org/namespaces/inkscape"
   inkscape:version="0.92.4 (5da689c313, 2019-01-14)"
   sodipodi:docname="E1-on.svg"
   id="svg14600"
   version="1.1"
   viewBox="0 0 203.30834 22.677165"
   height="6mm"
   width="53.792mm">
  <metadata
     id="metadata14604">
    <rdf:RDF>
      <cc:Work
         rdf:about="">
        <dc:format>image/svg+xml</dc:format>
        <dc:type
           rdf:resource="http://purl.org/dc/dcmitype/StillImage" />
        <dc:title></dc:title>
      </cc:Work>
    </rdf:RDF>
  </metadata>
  <sodipodi:namedview
     inkscape:current-layer="svg14600"
     inkscape:window-maximized="0"
     inkscape:window-y="23"
     inkscape:window-x="0"
     inkscape:cy="-38.525381"
     inkscape:cx="69.371159"
     inkscape:zoom="2.6192232"
     inkscape:document-units="mm"
     units="mm"
     showgrid="false"
     id="namedview14602"
     inkscape:window-height="1034"
     inkscape:window-width="1540"
     inkscape:pageshadow="2"
     inkscape:pageopacity="0"
     guidetolerance="10"
     gridtolerance="10"
     objecttolerance="10"
     borderopacity="1"
     bordercolor="#666666"
     pagecolor="#ffffff" />
  <defs
     id="defs14581">
    <linearGradient
       gradientUnits="userSpaceOnUse"
       gradientTransform="matrix(1.25,0,0,0.55,-15.58,-105.58)"
       y2="221.64"
       x2="19.27"
       y1="206.64999"
       x1="19.27"
       data-name="New Gradient Swatch 15"
       id="New_Gradient_Swatch_15">
      <stop
         id="stop14571"
         stop-color="#efe1ad"
         offset="0" />
      <stop
         id="stop14573"
         stop-color="#ecd48f"
         offset="0.35" />
      <stop
         id="stop14575"
         stop-color="#e5b84e"
         offset="1" />
    </linearGradient>
    <linearGradient
       xlink:href="#New_Gradient_Swatch_15"
       gradientTransform="matrix(0,-1.6674385,0.73367294,0,-50.850204,-534.1139)"
       y2="99.540001"
       x2="-327.12"
       y1="84.309998"
       x1="-327.12"
       id="New_Gradient_Swatch_15-2" />
    <linearGradient
       xlink:href="#New_Gradient_Swatch_15"
       gradientTransform="matrix(-1.6674385,0,0,-0.73367294,-444.12558,-504.05999)"
       y2="-685.85999"
       x2="-273.14999"
       y1="-700.84998"
       x1="-273.14999"
       id="New_Gradient_Swatch_15-3" />
    <linearGradient
       xlink:href="#New_Gradient_Swatch_15"
       gradientTransform="matrix(0,1.6674385,-0.73367294,0,-414.05833,-110.78461)"
       y2="-563.28003"
       x2="73.239998"
       y1="-578.51001"
       x1="73.239998"
       id="New_Gradient_Swatch_15-4" />
    <linearGradient
       y2="221.64"
       x2="19.27"
       y1="206.64999"
       x1="19.27"
       gradientTransform="matrix(1.6674385,0,0,0.73367294,-20.782953,-140.83853)"
       gradientUnits="userSpaceOnUse"
       id="linearGradient15167"
       xlink:href="#New_Gradient_Swatch_15"
       inkscape:collect="always" />
    <linearGradient
       id="New_Gradient_Swatch_15-2-9"
       x1="-327.12"
       y1="84.309998"
       x2="-327.12"
       y2="99.540001"
       gradientTransform="matrix(0,-1.6674384,-0.73367291,0,73.710804,-534.11432)"
       xlink:href="#New_Gradient_Swatch_15" />
    <linearGradient
       inkscape:collect="always"
       xlink:href="#New_Gradient_Swatch_15"
       id="linearGradient15167-7"
       gradientUnits="userSpaceOnUse"
       gradientTransform="matrix(1.6674384,0,0,-0.73367291,-20.782952,163.52858)"
       x1="19.27"
       y1="206.64999"
       x2="19.27"
       y2="221.64" />
  </defs>
  <path
     id="path14583-0"
     style="fill:url(#linearGradient15167-7);stroke-width:1.33395004"
     d="m 22.357014,0.50645667 c 0,0 0,0 0,0 H 0.3334877 c 0,0 0,0 0,0 L 11.325242,11.511551 v 0 z"
     inkscape:connector-curvature="0" />
  <path
     id="path14585-7"
     style="fill:url(#New_Gradient_Swatch_15-2-9);stroke-width:1.33395004"
     d="m 0.50358821,0.50645667 c 0,0 0,0 0,0 V 22.183157 c 0,0 0,0 0,0 L 11.682095,11.364817 v 0 z"
     inkscape:connector-curvature="0" />
  <path
     d="m 22.357015,22.183602 c 0,0 0,0 0,0 H 0.3334877 c 0,0 0,0 0,0 L 11.325242,11.178508 v 0 z"
     style="fill:url(#linearGradient15167);stroke-width:1.33395004"
     id="path14583"
     inkscape:connector-curvature="0" />
  <path
     d="m 22.357015,0.5069013 c 0,0 0,0 0,0 V 22.183602 c 0,0 0,0 0,0 L 11.178508,11.365261 v 0 z"
     style="fill:url(#New_Gradient_Swatch_15-2);stroke-width:1.33395004"
     id="path14585"
     inkscape:connector-curvature="0" />
  <path
     style="stroke-width:1.33395004"
     d="m 21.476608,0.6669754 a 0.54691983,0.54691983 0 0 1 0.54692,0.5469198 V 21.476608 a 0.54691983,0.54691983 0 0 1 -0.54692,0.54692 H 1.2138952 A 0.54691983,0.54691983 0 0 1 0.6669754,21.476608 V 1.2138952 A 0.54691983,0.54691983 0 0 1 1.2138952,0.6669754 H 21.476608 M 21.476608,0 H 1.2138952 A 1.2138952,1.2138952 0 0 0 0,1.2138952 V 21.476608 a 1.2138952,1.2138952 0 0 0 1.2138952,1.200556 H 21.476608 a 1.2138952,1.2138952 0 0 0 1.200556,-1.200556 V 1.2138952 A 1.2138952,1.2138952 0 0 0 21.476608,0 Z"
     id="path14591"
     inkscape:connector-curvature="0" />
  <g
     transform="scale(1.3339508)"
     id="Envelope_Buttons"
     data-name="Envelope Buttons">
    <path
       d="m 8.58,5.88 h 0.7 v 4.91 h -0.8 v -4 L 7.49,7 7.29,6.31 Z"
       style="fill:#1a1a1a"
       id="path14596"
       inkscape:connector-curvature="0" />
  </g>
</svg>
