<?xml version="1.0" encoding="UTF-8" standalone="no"?>
<svg
   xmlns:dc="http://purl.org/dc/elements/1.1/"
   xmlns:cc="http://creativecommons.org/ns#"
   xmlns:rdf="http://www.w3.org/1999/02/22-rdf-syntax-ns#"
   xmlns:svg="http://www.w3.org/2000/svg"
   xmlns="http://www.w3.org/2000/svg"
   xmlns:xlink="http://www.w3.org/1999/xlink"
   xmlns:sodipodi="http://sodipodi.sourceforge.net/DTD/sodipodi-0.dtd"
   xmlns:inkscape="http://www.inkscape.org/namespaces/inkscape"
   width="53.792mm"
   height="6mm"
   viewBox="0 0 203.30834 22.677165"
   version="1.1"
   id="svg14600"
   sodipodi:docname="E8-on.svg"
   inkscape:version="0.92.4 (5da689c313, 2019-01-14)">
  <metadata
     id="metadata14604">
    <rdf:RDF>
      <cc:Work
         rdf:about="">
        <dc:format>image/svg+xml</dc:format>
        <dc:type
           rdf:resource="http://purl.org/dc/dcmitype/StillImage" />
        <dc:title></dc:title>
      </cc:Work>
    </rdf:RDF>
  </metadata>
  <sodipodi:namedview
     inkscape:document-rotation="0"
     pagecolor="#ffffff"
     bordercolor="#666666"
     borderopacity="1"
     objecttolerance="10"
     gridtolerance="10"
     guidetolerance="10"
     inkscape:pageopacity="0"
     inkscape:pageshadow="2"
     inkscape:window-width="1540"
     inkscape:window-height="1034"
     id="namedview14602"
     showgrid="false"
     units="mm"
     inkscape:document-units="mm"
     inkscape:zoom="256"
     inkscape:cx="202.73379"
     inkscape:cy="20.909773"
     inkscape:window-x="0"
     inkscape:window-y="23"
     inkscape:window-maximized="0"
     inkscape:current-layer="svg14600" />
  <defs
     id="defs14581">
    <linearGradient
       id="New_Gradient_Swatch_15"
       data-name="New Gradient Swatch 15"
       x1="19.27"
       y1="206.64999"
       x2="19.27"
       y2="221.64"
       gradientTransform="matrix(1.25,0,0,0.55,-15.58,-105.58)"
       gradientUnits="userSpaceOnUse">
      <stop
         offset="0"
         stop-color="#efe1ad"
         id="stop14571" />
      <stop
         offset="0.35"
         stop-color="#ecd48f"
         id="stop14573" />
      <stop
         offset="1"
         stop-color="#e5b84e"
         id="stop14575" />
    </linearGradient>
    <linearGradient
       id="New_Gradient_Swatch_15-2"
       x1="-327.12"
       y1="84.309998"
       x2="-327.12"
       y2="99.540001"
       gradientTransform="matrix(0,-1.6674385,0.73367294,0,129.7811,-534.1139)"
       xlink:href="#New_Gradient_Swatch_15" />
    <linearGradient
       id="New_Gradient_Swatch_15-3"
       x1="-273.14999"
       y1="-700.84998"
       x2="-273.14999"
       y2="-685.85999"
       gradientTransform="matrix(-1.6674385,0,0,-0.73367294,-444.12558,-504.05999)"
       xlink:href="#New_Gradient_Swatch_15" />
    <linearGradient
       id="New_Gradient_Swatch_15-4"
       x1="73.239998"
       y1="-578.51001"
       x2="73.239998"
       y2="-563.28003"
       gradientTransform="matrix(0,1.6674385,-0.73367294,0,-414.05833,-110.78461)"
       xlink:href="#New_Gradient_Swatch_15" />
    <linearGradient
       inkscape:collect="always"
       xlink:href="#New_Gradient_Swatch_15"
       id="linearGradient15167"
       gradientUnits="userSpaceOnUse"
       gradientTransform="matrix(1.6674385,0,0,0.73367294,159.84835,-140.83853)"
       x1="19.27"
       y1="206.64999"
       x2="19.27"
       y2="221.64" />
    <linearGradient
       xlink:href="#New_Gradient_Swatch_15"
       gradientTransform="matrix(0,-1.6674384,-0.73367291,0,254.34211,-534.11432)"
       y2="99.540001"
       x2="-327.12"
       y1="84.309998"
       x1="-327.12"
       id="New_Gradient_Swatch_15-2-9" />
    <linearGradient
       y2="221.64"
       x2="19.27"
       y1="206.64999"
       x1="19.27"
       gradientTransform="matrix(1.6674384,0,0,-0.73367291,159.84835,163.52858)"
       gradientUnits="userSpaceOnUse"
       id="linearGradient15167-7"
       xlink:href="#New_Gradient_Swatch_15"
       inkscape:collect="always" />
  </defs>
  <path
     d="m 202.98832,0.50645667 c 0,0 0,0 0,0 h -22.02353 c 0,0 0,0 0,0 L 191.95655,11.511551 v 0 z"
     style="fill:url(#linearGradient15167-7);stroke-width:1.33395004"
     id="path14583-0"
     inkscape:connector-curvature="0" />
  <path
     d="m 181.13489,0.50645667 c 0,0 0,0 0,0 V 22.183157 c 0,0 0,0 0,0 l 11.17851,-10.81834 v 0 z"
     style="fill:url(#New_Gradient_Swatch_15-2-9);stroke-width:1.33395004"
     id="path14585-7"
     inkscape:connector-curvature="0" />
  <path
     id="path14583"
     style="fill:url(#linearGradient15167);stroke-width:1.33395004"
     d="m 202.98832,22.183602 c 0,0 0,0 0,0 h -22.02353 c 0,0 0,0 0,0 l 10.99176,-11.005094 v 0 z"
     inkscape:connector-curvature="0" />
  <path
     id="path14585"
     style="fill:url(#New_Gradient_Swatch_15-2);stroke-width:1.33395004"
     d="m 202.98832,0.5069013 c 0,0 0,0 0,0 V 22.183602 c 0,0 0,0 0,0 L 191.80981,11.365261 v 0 z"
     inkscape:connector-curvature="0" />
  <path
     id="path14591"
     d="m 202.10791,0.6669754 a 0.54691983,0.54691983 0 0 1 0.54692,0.5469198 V 21.476608 a 0.54691983,0.54691983 0 0 1 -0.54692,0.54692 H 181.8452 a 0.54691983,0.54691983 0 0 1 -0.54692,-0.54692 V 1.2138952 a 0.54691983,0.54691983 0 0 1 0.54692,-0.5469198 h 20.26271 M 202.10791,0 H 181.8452 a 1.2138952,1.2138952 0 0 0 -1.2139,1.2138952 V 21.476608 a 1.2138952,1.2138952 0 0 0 1.2139,1.200556 h 20.26271 a 1.2138952,1.2138952 0 0 0 1.20056,-1.200556 V 1.2138952 A 1.2138952,1.2138952 0 0 0 202.10791,0 Z"
     style="stroke-width:1.33395004"
     inkscape:connector-curvature="0" />
  <path
     id="path3265"
     style="fill:#000000;fill-opacity:1;stroke-width:1.33395004"
     d="m 194.18424,12.579156 c 0,1.187216 -0.90708,1.934229 -2.29439,1.934229 a 2.5745249,2.5745249 0 0 1 -1.66744,-0.520241 1.7474754,1.7474754 0 0 1 -0.62696,-1.413988 1.787494,1.787494 0 0 1 0.96045,-1.587401 1.5740618,1.5740618 0 0 1 -0.73368,-1.333951 1.6941174,1.6941174 0 0 1 0.60028,-1.3339507 2.4277904,2.4277904 0 0 1 2.93469,0 1.7074569,1.7074569 0 0 1 0.61362,1.3339507 1.5740618,1.5740618 0 0 1 -0.74701,1.333951 1.6941174,1.6941174 0 0 1 0.96044,1.587401 z m -1.0805,-0.106716 c 0,-0.640296 -0.49356,-1.013803 -1.21389,-1.013803 -0.72034,0 -1.2139,0.373507 -1.2139,1.013803 0,0.640296 0.48023,1.013803 1.2139,1.013803 0.73367,0 1.21389,-0.373507 1.21389,-1.013803 z m -2.21435,-2.814636 a 0.92042601,0.92042601 0 0 0 1.00046,0.907086 0.92042601,0.92042601 0 0 0 1.00046,-0.907086 0.893747,0.893747 0 0 0 -1.00046,-0.9070865 0.88040749,0.88040749 0 0 0 -1.00046,0.9070865 z"
     inkscape:connector-curvature="0" />
</svg>
