<?xml version="1.0" encoding="UTF-8" standalone="no"?>
<svg xmlns:dc="http://purl.org/dc/elements/1.1/" xmlns:cc="http://creativecommons.org/ns#" xmlns:rdf="http://www.w3.org/1999/02/22-rdf-syntax-ns#" xmlns:svg="http://www.w3.org/2000/svg" xmlns="http://www.w3.org/2000/svg" xmlns:sodipodi="http://sodipodi.sourceforge.net/DTD/sodipodi-0.dtd" xmlns:inkscape="http://www.inkscape.org/namespaces/inkscape" inkscape:version="1.0 (4035a4f, 2020-05-01)" sodipodi:docname="freeze-on-new.svg" id="svg1428" version="1.1" viewBox="0 0 41.5748 17.007874" height="4.5mm" width="11mm">
  <metadata id="metadata1434">
    <rdf:RDF>
      <cc:Work rdf:about="">
        <dc:format>image/svg+xml</dc:format>
        <dc:type rdf:resource="http://purl.org/dc/dcmitype/StillImage" />
        <dc:title></dc:title>
      </cc:Work>
    </rdf:RDF>
  </metadata>
  <defs id="defs1432" />
  <sodipodi:namedview inkscape:current-layer="svg1428" inkscape:window-maximized="0" inkscape:window-y="23" inkscape:window-x="0" inkscape:cy="6.377955" inkscape:cx="15.652794" inkscape:zoom="33.738385" inkscape:document-units="mm" units="mm" showgrid="false" id="namedview1430" inkscape:window-height="1035" inkscape:window-width="1936" inkscape:pageshadow="2" inkscape:pageopacity="0" guidetolerance="10" gridtolerance="10" objecttolerance="10" borderopacity="1" bordercolor="#666666" pagecolor="#ffffff" />
  <g transform="scale(1.3333334)" data-name="Layer 2" id="Layer_2">
    <g data-name="icon buttons" id="icon_buttons">
      <path id="path1422" style="fill:#ffffff" d="M 18.63257,7.72123 18.16474,7.45133 18.52461,7.35444 A 0.21407,0.21407 0 0 0 18.67548,7.09285 L 18.62011,6.88662 A 0.21407,0.21407 0 0 0 18.35852,6.73575 l -0.97995,0.263 -0.88444,-0.51212 0.88306,-0.51074 0.97994,0.263 a 0.21408,0.21408 0 0 0 0.2616,-0.15086 L 18.67409,5.8818 A 0.21408,0.21408 0 0 0 18.52323,5.6202 l -0.35987,-0.09689 0.46783,-0.2699 a 0.21471,0.21471 0 0 0 0.07889,-0.292 L 18.49554,4.59047 a 0.21471,0.21471 0 0 0 -0.292,-0.0789 L 17.73571,4.78147 17.8326,4.42161 A 0.21408,0.21408 0 0 0 17.68173,4.16001 L 17.4755,4.10465 a 0.21407,0.21407 0 0 0 -0.2616,0.15086 l -0.263,0.98 -0.86921,0.501 V 4.66374 l 0.74326,-0.74326 a 0.22221,0.22221 0 0 0 0,-0.31281 l -0.1564,-0.1564 a 0.22221,0.22221 0 0 0 -0.31281,0 L 16.08169,3.72394 V 3.16476 A 0.22211,0.22211 0 0 0 15.86023,2.9433 H 15.4173 A 0.22211,0.22211 0 0 0 15.19584,3.16476 V 3.72394 L 14.92317,3.45127 a 0.22221,0.22221 0 0 0 -0.31281,0 l -0.15778,0.1564 a 0.21972,0.21972 0 0 0 0,0.31281 l 0.74326,0.74326 v 1.07268 l -0.86922,-0.501 -0.263,-0.98 A 0.21406,0.21406 0 0 0 13.80203,4.10456 l -0.20624,0.05536 a 0.21408,0.21408 0 0 0 -0.15086,0.2616 l 0.09688,0.35986 -0.46782,-0.2699 a 0.21351,0.21351 0 0 0 -0.292,0.0789 l -0.21453,0.36955 a 0.2135,0.2135 0 0 0 0.07889,0.29205 l 0.46783,0.2699 -0.35987,0.09689 a 0.21464,0.21464 0 0 0 -0.15225,0.263 L 12.65742,6.088 a 0.21408,0.21408 0 0 0 0.2616,0.15086 l 0.97994,-0.263 0.88306,0.51074 -0.88306,0.51073 -0.97994,-0.263 a 0.21408,0.21408 0 0 0 -0.2616,0.15087 l -0.05536,0.20623 a 0.21408,0.21408 0 0 0 0.15087,0.2616 l 0.35986,0.09688 -0.46782,0.27129 a 0.21472,0.21472 0 0 0 -0.0789,0.292 l 0.21454,0.37094 a 0.21471,0.21471 0 0 0 0.292,0.07889 L 13.54044,8.19313 13.44355,8.553 a 0.21407,0.21407 0 0 0 0.15087,0.26159 l 0.20623,0.05537 a 0.21408,0.21408 0 0 0 0.2616,-0.15087 l 0.263,-0.97995 0.86922,-0.501 V 8.31086 L 14.4512,9.05412 a 0.21972,0.21972 0 0 0 0,0.31281 l 0.15641,0.1564 a 0.2222,0.2222 0 0 0 0.3128,0 l 0.27267,-0.27267 v 0.5578 a 0.22211,0.22211 0 0 0 0.22146,0.22146 h 0.44291 A 0.22211,0.22211 0 0 0 16.07891,9.80846 V 9.24928 l 0.27267,0.27267 a 0.22222,0.22222 0 0 0 0.3128,0 l 0.15641,-0.1564 a 0.22223,0.22223 0 0 0 0,-0.31281 L 16.08168,8.30947 V 7.23679 l 0.86921,0.50105 0.263,0.97994 a 0.21408,0.21408 0 0 0 0.2616,0.15087 l 0.20623,-0.05536 a 0.21408,0.21408 0 0 0 0.15087,-0.2616 l -0.09689,-0.35986 0.46783,0.2699 a 0.2135,0.2135 0 0 0 0.292,-0.0789 L 18.71007,8.01189 A 0.21146,0.21146 0 0 0 18.63256,7.72123 Z" />
      <path id="path1424" style="fill:#ffffff" d="m 30.02371,0.5 a 0.65813,0.65813 0 0 1 0.65739,0.65738 v 10.44113 a 0.65814,0.65814 0 0 1 -0.65739,0.6574 H 1.15739 A 0.65814,0.65814 0 0 1 0.5,11.59851 V 1.15738 A 0.65814,0.65814 0 0 1 1.15739,0.5 h 28.86632 m 0,-0.5 H 1.15739 A 1.16078,1.16078 0 0 0 0,1.15738 v 10.44113 a 1.16079,1.16079 0 0 0 1.15739,1.1574 h 28.86632 a 1.16079,1.16079 0 0 0 1.15739,-1.1574 V 1.15738 A 1.16078,1.16078 0 0 0 30.02371,0 Z" />
    </g>
  </g>
</svg>
