<?xml version="1.0" encoding="UTF-8" standalone="no"?>
<svg xmlns:dc="http://purl.org/dc/elements/1.1/" xmlns:cc="http://creativecommons.org/ns#" xmlns:rdf="http://www.w3.org/1999/02/22-rdf-syntax-ns#" xmlns:svg="http://www.w3.org/2000/svg" xmlns="http://www.w3.org/2000/svg" xmlns:sodipodi="http://sodipodi.sourceforge.net/DTD/sodipodi-0.dtd" xmlns:inkscape="http://www.inkscape.org/namespaces/inkscape" inkscape:version="1.0 (4035a4f, 2020-05-01)" sodipodi:docname="headphones-on.svg" id="svg2650" version="1.1" viewBox="0 0 17.007874 15.11811" height="4mm" width="4.5mm">
  <metadata id="metadata2656">
    <rdf:RDF>
      <cc:Work rdf:about="">
        <dc:format>image/svg+xml</dc:format>
        <dc:type rdf:resource="http://purl.org/dc/dcmitype/StillImage" />
        <dc:title></dc:title>
      </cc:Work>
    </rdf:RDF>
  </metadata>
  <defs id="defs2654" />
  <sodipodi:namedview inkscape:current-layer="svg2650" inkscape:window-maximized="0" inkscape:window-y="23" inkscape:window-x="0" inkscape:cy="5.6700001" inkscape:cx="6.3800001" inkscape:zoom="25.387828" units="mm" inkscape:document-units="mm" showgrid="false" id="namedview2652" inkscape:window-height="1144" inkscape:window-width="1679" inkscape:pageshadow="2" inkscape:pageopacity="0" guidetolerance="10" gridtolerance="10" objecttolerance="10" borderopacity="1" bordercolor="#666666" pagecolor="#ffffff" />
  <g transform="matrix(1.3370852,0,0,1.333115,2.5091107e-5,6.4721951e-5)" data-name="Layer 2" id="Layer_2">
    <g data-name="headphones on" id="headphones_on">
      <path style="fill:#7bbb56" d="m 6.38,0 a 6.27,6.27 0 0 1 2.45,0.49 6.52,6.52 0 0 1 2,1.32 6.3,6.3 0 0 1 1.37,1.95 5.62,5.62 0 0 1 0.52,2.34 7.06,7.06 0 0 1 -0.46,2.53 l -0.16,0.4 -1.42,0.26 a 2,2 0 0 1 -0.69,1.1 1.82,1.82 0 0 1 -1.2,0.43 v 0.26 A 0.25,0.25 0 0 1 8.72,11.27 0.24,0.24 0 0 1 8.55,11.34 H 8.1 A 0.24,0.24 0 0 1 7.85,11.08 V 6.44 A 0.24,0.24 0 0 1 7.92,6.26 0.22,0.22 0 0 1 8.1,6.18 H 8.59 A 0.21,0.21 0 0 1 8.76,6.26 0.24,0.24 0 0 1 8.83,6.44 V 6.7 a 1.85,1.85 0 0 1 1,0.29 2,2 0 0 1 0.71,0.77 l 0.52,-0.1 A 5.5,5.5 0 0 0 11.28,6.1 4.07,4.07 0 0 0 10.61,3.86 4.91,4.91 0 0 0 8.8,2.17 5,5 0 0 0 4,2.17 4.91,4.91 0 0 0 2.15,3.86 4.08,4.08 0 0 0 1.47,6.1 5.88,5.88 0 0 0 1.69,7.66 l 0.53,0.1 A 2,2 0 0 1 2.93,7 1.82,1.82 0 0 1 3.93,6.71 V 6.44 A 0.29,0.29 0 0 1 4,6.26 0.25,0.25 0 0 1 4.18,6.18 h 0.49 a 0.25,0.25 0 0 1 0.18,0.08 0.29,0.29 0 0 1 0.07,0.18 v 4.64 A 0.29,0.29 0 0 1 4.85,11.27 0.29,0.29 0 0 1 4.67,11.34 H 4.17 A 0.29,0.29 0 0 1 4,11.27 0.29,0.29 0 0 1 3.93,11.08 V 10.82 A 1.82,1.82 0 0 1 2.74,10.39 2,2 0 0 1 2,9.29 L 0.61,9 0.46,8.6 A 6.85,6.85 0 0 1 0,6.1 5.61,5.61 0 0 1 0.51,3.76 6.33,6.33 0 0 1 1.89,1.81 6.59,6.59 0 0 1 3.89,0.49 6.32,6.32 0 0 1 6.38,0" id="path6" />
    </g>
  </g>
</svg>
