<?xml version="1.0" encoding="UTF-8" standalone="no"?>
<svg xmlns:dc="http://purl.org/dc/elements/1.1/" xmlns:cc="http://creativecommons.org/ns#" xmlns:rdf="http://www.w3.org/1999/02/22-rdf-syntax-ns#" xmlns:svg="http://www.w3.org/2000/svg" xmlns="http://www.w3.org/2000/svg" xmlns:xlink="http://www.w3.org/1999/xlink" xmlns:sodipodi="http://sodipodi.sourceforge.net/DTD/sodipodi-0.dtd" xmlns:inkscape="http://www.inkscape.org/namespaces/inkscape" inkscape:version="1.0 (4035a4f, 2020-05-01)" sodipodi:docname="lock-on.svg" id="svg4184" version="1.1" viewBox="0 0 17.007874 17.007874" height="4.5mm" width="4.5mm">
  <metadata id="metadata4188">
    <rdf:RDF>
      <cc:Work rdf:about="">
        <dc:format>image/svg+xml</dc:format>
        <dc:type rdf:resource="http://purl.org/dc/dcmitype/StillImage" />
        <dc:title></dc:title>
      </cc:Work>
    </rdf:RDF>
  </metadata>
  <sodipodi:namedview inkscape:current-layer="svg4184" inkscape:window-maximized="0" inkscape:window-y="23" inkscape:window-x="0" inkscape:cy="6.3800001" inkscape:cx="6.3800001" inkscape:zoom="17.186468" inkscape:document-units="mm" units="mm" showgrid="false" id="namedview4186" inkscape:window-height="1053" inkscape:window-width="1703" inkscape:pageshadow="2" inkscape:pageopacity="0" guidetolerance="10" gridtolerance="10" objecttolerance="10" borderopacity="1" bordercolor="#666666" pagecolor="#ffffff" />
  <defs id="defs4166">
    <linearGradient gradientUnits="userSpaceOnUse" gradientTransform="matrix(1.25,0,0,0.55,-31.49,-85.48)" y2="177.64" x2="30.299999" y1="165.86" x1="30.299999" data-name="New Gradient Swatch 15" id="New_Gradient_Swatch_15">
      <stop id="stop4156" stop-color="#efe1ad" offset="0" />
      <stop id="stop4158" stop-color="#ecd48f" offset="0.35" />
      <stop id="stop4160" stop-color="#e5b84e" offset="1" />
    </linearGradient>
    <linearGradient xlink:href="#New_Gradient_Swatch_15" gradientTransform="matrix(0,-1.6661319,0.73309803,0,1.0929825,-367.90858)" y2="21.32" x2="-225.92" y1="9.3500004" x1="-225.92" id="New_Gradient_Swatch_15-2" />
    <linearGradient xlink:href="#New_Gradient_Swatch_15" gradientTransform="matrix(-1.6661319,0,0,-0.73309803,-252.87883,-410.98808)" y2="-559.62" x2="-156.87" y1="-571.40997" x1="-156.87" id="New_Gradient_Swatch_15-3" />
    <linearGradient xlink:href="#New_Gradient_Swatch_15" gradientTransform="matrix(0,1.6661319,-0.73309803,0,-295.94501,-157.01627)" y2="-402.94" x2="99.339996" y1="-414.89999" x1="99.339996" id="New_Gradient_Swatch_15-4" />
    <linearGradient y2="177.64" x2="30.299999" y1="165.86" x1="30.299999" gradientTransform="matrix(1.6661319,0,0,0.73309803,-41.973194,-113.93676)" gradientUnits="userSpaceOnUse" id="linearGradient4751" xlink:href="#New_Gradient_Swatch_15" inkscape:collect="always" />
    <linearGradient id="New_Gradient_Swatch_15-2-0" x1="-225.92" y1="9.3500004" x2="-225.92" y2="21.32" gradientTransform="matrix(0,-1.6661319,-0.73309805,0,16.06637,-367.8504)" xlink:href="#New_Gradient_Swatch_15" />
    <linearGradient xlink:href="#New_Gradient_Swatch_15" gradientTransform="matrix(0,-1.6661319,-0.73309807,0,16.06637,-367.85041)" y2="21.32" x2="-225.92" y1="9.3500004" x1="-225.92" id="New_Gradient_Swatch_15-2-0-3" />
    <linearGradient inkscape:collect="always" xlink:href="#New_Gradient_Swatch_15" id="linearGradient4751-7" gradientUnits="userSpaceOnUse" gradientTransform="matrix(1.6661319,0,0,-0.73309805,-41.973195,130.96283)" x1="30.299999" y1="165.86" x2="30.299999" y2="177.64" />
  </defs>
  <g id="g4909">
    <path d="m 16.754622,0.40473015 c 0,0 0,0 0,0 H 0.23992299 L 8.4906082,9.0286291 v 0 z" style="fill:url(#linearGradient4751-7);stroke-width:1.33291" id="path4168-1" />
    <path id="path4170-7" style="fill:url(#New_Gradient_Swatch_15-2-0-3);stroke-width:1.33291" d="m 0.40472985,0.43140046 v 0 16.24811654 0 L 9.1619194,8.5754535 c 0,0 0,0 0,0 z" />
    <path id="path4168" style="fill:url(#linearGradient4751);stroke-width:1.33291" d="m 16.754622,16.621332 c 0,0 0,0 0,0 H 0.23992299 L 8.490608,7.997433 v 0 z" />
    <path id="path4170" style="fill:url(#New_Gradient_Swatch_15-2);stroke-width:1.33291" d="m 16.754622,0.37321354 v 0 16.24811846 0 L 7.997433,8.5172661 c 0,0 0,0 0,0 z" />
    <path id="path4176" style="fill:#333333;stroke-width:1.33291" d="m 16.101498,0.66645275 a 0.25325205,0.25325205 0 0 1 0.239923,0.23992299 V 16.101498 a 0.25325205,0.25325205 0 0 1 -0.239923,0.239923 H 0.90637574 A 0.25325205,0.25325205 0 0 1 0.66645275,16.101498 V 0.90637574 A 0.23992299,0.23992299 0 0 1 0.90637574,0.66645275 H 16.101498 M 16.101498,0 H 0.90637574 A 0.9197048,0.9197048 0 0 0 0,0.90637574 V 16.101498 a 0.9197048,0.9197048 0 0 0 0.90637574,0.906376 H 16.101498 a 0.9197048,0.9197048 0 0 0 0.906376,-0.906376 V 0.90637574 A 0.9197048,0.9197048 0 0 0 16.101498,0 Z" />
    <path d="M 11.063116,7.997433 H 10.663244 V 6.9177795 a 2.2259522,2.2259522 0 1 0 -4.4519044,0 V 7.997433 H 5.9181004 A 0.69311086,0.69311086 0 0 0 5.2116605,8.7038729 v 2.7991011 a 0.70643992,0.70643992 0 0 0 0.7064399,0.70644 h 5.1450156 a 0.70643992,0.70643992 0 0 0 0.70644,-0.70644 V 8.6772148 A 0.70643992,0.70643992 0 0 0 11.063116,7.997433 Z m -1.5195126,0 H 7.4376127 V 6.9177795 a 1.0529954,1.0529954 0 0 1 2.1059907,0 z" style="fill:#1a1a1a;stroke-width:1.33291" id="path4180" />
  </g>
</svg>
