<?xml version="1.0" encoding="UTF-8" standalone="no"?>
<svg xmlns:dc="http://purl.org/dc/elements/1.1/" xmlns:cc="http://creativecommons.org/ns#" xmlns:rdf="http://www.w3.org/1999/02/22-rdf-syntax-ns#" xmlns:svg="http://www.w3.org/2000/svg" xmlns="http://www.w3.org/2000/svg" xmlns:sodipodi="http://sodipodi.sourceforge.net/DTD/sodipodi-0.dtd" xmlns:inkscape="http://www.inkscape.org/namespaces/inkscape" inkscape:version="1.0 (4035a4f, 2020-05-01)" sodipodi:docname="SL-off-new.svg" id="svg2582" version="1.1" viewBox="0 0 41.574804 17.007874" height="4.5mm" width="11mm">
  <metadata id="metadata2588">
    <rdf:RDF>
      <cc:Work rdf:about="">
        <dc:format>image/svg+xml</dc:format>
        <dc:type rdf:resource="http://purl.org/dc/dcmitype/StillImage" />
        <dc:title></dc:title>
      </cc:Work>
    </rdf:RDF>
  </metadata>
  <defs id="defs2586" />
  <sodipodi:namedview inkscape:current-layer="svg2582" inkscape:window-maximized="0" inkscape:window-y="23" inkscape:window-x="0" inkscape:cy="6.377955" inkscape:cx="15.964951" inkscape:zoom="33.738375" inkscape:document-units="mm" units="mm" showgrid="false" id="namedview2584" inkscape:window-height="902" inkscape:window-width="1975" inkscape:pageshadow="2" inkscape:pageopacity="0" guidetolerance="10" gridtolerance="10" objecttolerance="10" borderopacity="1" bordercolor="#666666" pagecolor="#ffffff" />
  <g transform="scale(1.3333331)" data-name="Layer 2" id="Layer_2">
    <g data-name="L/S off" id="L_S_off">
      <path id="path2572" style="fill:#999999" d="m 30.02373,0.5 a 0.65814,0.65814 0 0 1 0.65738,0.65738 v 10.44113 a 0.65814,0.65814 0 0 1 -0.65738,0.6574 H 1.15739 A 0.65814,0.65814 0 0 1 0.5,11.59851 V 1.15738 A 0.65814,0.65814 0 0 1 1.15739,0.5 h 28.86634 m 0,-0.5 H 1.15739 A 1.16078,1.16078 0 0 0 0,1.15738 v 10.44113 a 1.1608,1.1608 0 0 0 1.15739,1.1574 h 28.86634 a 1.1608,1.1608 0 0 0 1.15738,-1.1574 V 1.15738 A 1.16078,1.16078 0 0 0 30.02373,0 Z" />
      <g id="g2578">
        <line id="line2574" style="fill:none;stroke:#999999;stroke-width:0.9px;stroke-linecap:round" y2="6.3779402" x2="17.582161" y1="6.3779402" x1="11.33859" />
        <polygon id="polygon2576" style="fill:#999999" points="19.843,6.378 17.123,4.807 17.123,7.948 " />
      </g>
    </g>
  </g>
</svg>
