<?xml version="1.0" encoding="UTF-8" standalone="no"?>
<svg xmlns:dc="http://purl.org/dc/elements/1.1/" xmlns:cc="http://creativecommons.org/ns#" xmlns:rdf="http://www.w3.org/1999/02/22-rdf-syntax-ns#" xmlns:svg="http://www.w3.org/2000/svg" xmlns="http://www.w3.org/2000/svg" xmlns:xlink="http://www.w3.org/1999/xlink" xmlns:sodipodi="http://sodipodi.sourceforge.net/DTD/sodipodi-0.dtd" xmlns:inkscape="http://www.inkscape.org/namespaces/inkscape" inkscape:version="1.0 (4035a4f, 2020-05-01)" sodipodi:docname="sync-on2.svg" id="svg865" version="1.1" viewBox="0 0 62.362206 17.007874" height="4.5mm" width="16.5mm">
  <metadata id="metadata869">
    <rdf:RDF>
      <cc:Work rdf:about="">
        <dc:format>image/svg+xml</dc:format>
        <dc:type rdf:resource="http://purl.org/dc/dcmitype/StillImage" />
        <dc:title></dc:title>
      </cc:Work>
    </rdf:RDF>
  </metadata>
  <sodipodi:namedview inkscape:current-layer="svg865" inkscape:window-maximized="0" inkscape:window-y="23" inkscape:window-x="0" inkscape:cy="6.3800001" inkscape:cx="23.385" inkscape:zoom="14.28266" units="mm" inkscape:document-units="mm" showgrid="false" id="namedview867" inkscape:window-height="875" inkscape:window-width="1946" inkscape:pageshadow="2" inkscape:pageopacity="0" guidetolerance="10" gridtolerance="10" objecttolerance="10" borderopacity="1" bordercolor="#666666" pagecolor="#ffffff" />
  <defs id="defs843">
    <linearGradient gradientUnits="userSpaceOnUse" gradientTransform="matrix(1.25,0,0,0.55,-38.34,-84.95)" y2="176.69" x2="49.380001" y1="165.25999" x1="49.380001" data-name="New Gradient Swatch 15" id="New_Gradient_Swatch_15">
      <stop id="stop833" stop-color="#efe1ad" offset="0" />
      <stop id="stop835" stop-color="#ecd48f" offset="0.35" />
      <stop id="stop837" stop-color="#e5b84e" offset="1" />
    </linearGradient>
    <linearGradient xlink:href="#New_Gradient_Swatch_15" gradientTransform="matrix(0,-1.25,0.55,0,27.56,-240.62)" y2="34.200001" x2="-197.60001" y1="-7.9000001" x1="-197.60001" id="New_Gradient_Swatch_15-2" />
    <linearGradient xlink:href="#New_Gradient_Swatch_15" gradientTransform="matrix(-1.25,0,0,-0.55,-128.11,-306.52)" y2="-556.31" x2="-121.2" y1="-567.73999" x1="-121.2" id="New_Gradient_Swatch_15-3" />
    <linearGradient xlink:href="#New_Gradient_Swatch_15" gradientTransform="matrix(0,1.25,-0.55,0,-194.01,-150.85)" y2="-352.44" x2="125.78" y1="-394.54999" x1="125.78" id="New_Gradient_Swatch_15-4" />
    <linearGradient y2="176.69" x2="49.380001" y1="165.25999" x1="49.380001" gradientTransform="matrix(1.25,0,0,0.55,-38.34,-84.95)" gradientUnits="userSpaceOnUse" id="linearGradient871" xlink:href="#New_Gradient_Swatch_15" inkscape:collect="always" />
  </defs>
  <g transform="scale(1.3333805,1.3329055)" data-name="Layer 2" id="Layer_2">
    <g data-name="Sync Button" id="Sync_Button">
      <g id="g855">
        <path id="path845" style="fill:url(#linearGradient871)" d="M 46.39,12.48 H 0.38 l 23,-6.3 h 0.05 z" />
        <path id="path847" style="fill:url(#New_Gradient_Swatch_15-2)" d="m 46.39,0.28 c 0,0 0,0 0,0 v 12.18 c 0,0 0,0 0,0 L 23.21,6.38 c 0,0 0,0 0,0 z" />
        <path id="path849" style="fill:url(#New_Gradient_Swatch_15-3)" d="m 0.38,0.28 c 0,0 0,0 0,0 h 46 c 0,0 0,0 0,0 l -23,6.29 h -0.05 z" />
        <path id="path851" style="fill:url(#New_Gradient_Swatch_15-4)" d="m 0.38,12.48 c 0,0 0,0 0,0 V 0.3 c 0,0 0,0 0,0 l 23.19,6.07 c 0,0 0,0 0,0 z" />
        <path id="path853" style="fill:#333333" d="m 45.64,0.5 a 0.63,0.63 0 0 1 0.63,0.63 v 10.49 a 0.64,0.64 0 0 1 -0.63,0.64 H 1.13 A 0.64,0.64 0 0 1 0.5,11.62 V 1.13 A 0.63,0.63 0 0 1 1.13,0.5 h 44.51 m 0,-0.5 H 1.13 A 1.14,1.14 0 0 0 0,1.13 v 10.49 a 1.14,1.14 0 0 0 1.13,1.14 h 44.51 a 1.14,1.14 0 0 0 1.13,-1.14 V 1.13 A 1.14,1.14 0 0 0 45.64,0 Z" />
      </g>
      <g id="g861">
        <path id="path857" style="fill:#1a1a1a" d="M 21.28,8.73 A 2.11,2.11 0 0 1 19.73,8.1 2.15,2.15 0 0 1 19.1,6.54 2.18,2.18 0 0 1 22.82,5 2.06,2.06 0 0 1 23.46,6.54 2.17,2.17 0 0 1 21.28,8.73 Z m 0,-0.81 a 1.3,1.3 0 0 0 1,-0.39 1.34,1.34 0 0 0 0.39,-1 1.36,1.36 0 1 0 -2.71,0 1.34,1.34 0 0 0 0.39,1 1.31,1.31 0 0 0 0.93,0.39 z" />
        <path id="path859" style="fill:#1a1a1a" d="m 26.65,4.44 h 0.83 v 4.2 h -0.63 l -1.8,-2.56 v 2.56 h -0.83 v -4.2 h 0.63 L 26.65,7 Z" />
      </g>
    </g>
  </g>
</svg>
