<?xml version="1.0" encoding="UTF-8" standalone="no"?>
<!-- Generator: Adobe Illustrator 25.2.3, SVG Export Plug-In . SVG Version: 6.00 Build 0)  -->

<svg
   version="1.0"
   id="svg64581"
   x="0px"
   y="0px"
   width="5mm"
   height="5mm"
   viewBox="0 0 18.897638 18.897636"
   enable-background="new 0 0 21.26028 21.25987"
   xml:space="preserve"
   sodipodi:docname="button-sm.svg"
   inkscape:version="1.1.1 (3bf5ae0d25, 2021-09-20)"
   xmlns:inkscape="http://www.inkscape.org/namespaces/inkscape"
   xmlns:sodipodi="http://sodipodi.sourceforge.net/DTD/sodipodi-0.dtd"
   xmlns="http://www.w3.org/2000/svg"
   xmlns:svg="http://www.w3.org/2000/svg"><defs
   id="defs31" />
<sodipodi:namedview
   bordercolor="#666666"
   borderopacity="1.0"
   fit-margin-bottom="0"
   fit-margin-left="0"
   fit-margin-right="0"
   fit-margin-top="0"
   id="base"
   inkscape:current-layer="svg64581"
   inkscape:cx="-2.5859979"
   inkscape:cy="-3.8617568"
   inkscape:document-units="mm"
   inkscape:pageopacity="0.0"
   inkscape:pageshadow="2"
   inkscape:window-height="1080"
   inkscape:window-maximized="0"
   inkscape:window-width="1904"
   inkscape:window-x="-6"
   inkscape:window-y="640"
   inkscape:zoom="14.501172"
   pagecolor="#ffffff"
   showgrid="false"
   inkscape:pagecheckerboard="0"
   units="mm"
   width="4.25mm">
	</sodipodi:namedview>



<g
   id="g5959-5_76_"
   transform="matrix(0.88887056,0,0,0.88887391,268.38125,1057.7164)"
   style="stroke-width:1.12502">
	<path
   id="path5961-3_82_"
   inkscape:connector-curvature="0"
   d="m -280.67484,-1179.3201 c 0,5.8704 -4.76059,10.6293 -10.63092,10.6293 -5.86954,0 -10.62936,-4.7589 -10.62936,-10.6293 0,-5.8728 4.75983,-10.6309 10.62936,-10.6309 5.87034,0 10.63092,4.7581 10.63092,10.6309"
   style="stroke-width:1.12502" />
</g><g
   id="g5959-5_75_"
   transform="matrix(0.88887056,0,0,0.88887391,268.38125,1057.7164)"
   style="stroke-width:1.12502">
	
		<linearGradient
   id="path5961-3_1_"
   gradientUnits="userSpaceOnUse"
   x1="-589.50763"
   y1="-2199.0154"
   x2="-571.96295"
   y2="-2199.0154"
   gradientTransform="rotate(90,-945.86723,-1544.453)">
		<stop
   offset="0"
   style="stop-color:#787878"
   id="stop5" />
		<stop
   offset="1"
   style="stop-color:#474747"
   id="stop7" />
	</linearGradient>
	<path
   id="path5961-3_81_"
   inkscape:connector-curvature="0"
   fill="url(#path5961-3_1_)"
   d="m -300.0773,-1179.3215 c 0,-4.8445 3.92859,-8.7718 8.77298,-8.7718 4.84375,0 8.7717,3.9273 8.7717,8.7718 0,4.8464 -3.92795,8.7729 -8.7717,8.7729 -4.84439,0 -8.77298,-3.9265 -8.77298,-8.7729"
   style="fill:url(#path5961-3_1_);stroke-width:1.48902" />
</g><g
   opacity="0.21"
   id="g19"
   style="stroke-width:1.48902"
   transform="matrix(0.88887056,0,0,0.88887391,1.1112944e-6,-1.2223001e-5)">
	<g
   id="g5959-5_72_"
   transform="translate(301.93513,1189.951)"
   style="stroke-width:1.12502">
		
			<linearGradient
   id="path5961-3_2_"
   gradientUnits="userSpaceOnUse"
   x1="-298.72598"
   y1="-1119.5521"
   x2="-283.88739"
   y2="-1119.5521"
   gradientTransform="rotate(-90,-321.19019,-1149.4374)">
			<stop
   offset="0.00559"
   style="stop-color:#6B6B6B"
   id="stop12" />
			<stop
   offset="1"
   style="stop-color:#DEDEDE"
   id="stop14" />
		</linearGradient>
		<path
   id="path5961-3_76_"
   inkscape:connector-curvature="0"
   fill="url(#path5961-3_2_)"
   d="m -291.30551,-1171.9016 c -4.09726,0 -7.41876,-3.3226 -7.41876,-7.4198 0,-4.0967 3.3215,-7.4188 7.41876,-7.4188 4.09888,0 7.41983,3.3221 7.41983,7.4188 3e-5,4.0972 -3.32095,7.4198 -7.41983,7.4198"
   style="fill:url(#path5961-3_2_);stroke-width:1.48902" />
	</g>
</g><g
   id="g28"
   style="stroke-width:1.12502"
   transform="matrix(0.88887056,0,0,0.88887391,1.1112944e-6,-1.2223001e-5)">
	<g
   id="g5959-5_71_"
   transform="translate(301.93513,1189.951)"
   style="stroke-width:1.12502">
		
			<linearGradient
   id="path5961-3_3_"
   gradientUnits="userSpaceOnUse"
   x1="-297.97351"
   y1="-1119.5521"
   x2="-284.63989"
   y2="-1119.5521"
   gradientTransform="rotate(-90,-321.19019,-1149.4374)">
			<stop
   offset="0.00559"
   style="stop-color:#5B5B5B"
   id="stop21" />
			<stop
   offset="1"
   style="stop-color:#6C6C6C"
   id="stop23" />
		</linearGradient>
		<path
   id="path5961-3_75_"
   inkscape:connector-curvature="0"
   fill="url(#path5961-3_3_)"
   d="m -291.30545,-1172.6541 c -3.6817,0 -6.66632,-2.9857 -6.66632,-6.6673 0,-3.6812 2.98462,-6.6663 6.66632,-6.6663 3.68317,0 6.6673,2.9851 6.6673,6.6663 0,3.6816 -2.98413,6.6673 -6.6673,6.6673"
   style="fill:url(#path5961-3_3_);stroke-width:1.48902" />
	</g>
</g>
</svg>
