<?xml version="1.0" encoding="UTF-8" standalone="no"?>
<svg
   inkscape:version="1.1.1 (3bf5ae0d25, 2021-09-20)"
   sodipodi:docname="knob-grey-13.svg"
   id="svg875"
   version="1.1"
   viewBox="0 0 49.133857 49.133857"
   height="13mm"
   width="13mm"
   xmlns:inkscape="http://www.inkscape.org/namespaces/inkscape"
   xmlns:sodipodi="http://sodipodi.sourceforge.net/DTD/sodipodi-0.dtd"
   xmlns="http://www.w3.org/2000/svg"
   xmlns:svg="http://www.w3.org/2000/svg"
   xmlns:rdf="http://www.w3.org/1999/02/22-rdf-syntax-ns#"
   xmlns:cc="http://creativecommons.org/ns#"
   xmlns:dc="http://purl.org/dc/elements/1.1/">
  <metadata
     id="metadata881">
    <rdf:RDF>
      <cc:Work
         rdf:about="">
        <dc:format>image/svg+xml</dc:format>
        <dc:type
           rdf:resource="http://purl.org/dc/dcmitype/StillImage" />
      </cc:Work>
    </rdf:RDF>
  </metadata>
  <defs
     id="defs879" />
  <sodipodi:namedview
     inkscape:current-layer="svg875"
     inkscape:window-maximized="0"
     inkscape:window-y="0"
     inkscape:window-x="117"
     inkscape:cy="13.677871"
     inkscape:cx="34.602971"
     inkscape:zoom="19.593693"
     units="mm"
     inkscape:document-units="mm"
     showgrid="false"
     id="namedview877"
     inkscape:window-height="1080"
     inkscape:window-width="1495"
     inkscape:pageshadow="2"
     inkscape:pageopacity="0"
     guidetolerance="10"
     gridtolerance="10"
     objecttolerance="10"
     borderopacity="1"
     bordercolor="#666666"
     pagecolor="#ffffff"
     inkscape:document-rotation="0"
     inkscape:pagecheckerboard="0"
     showguides="true"
     inkscape:guide-bbox="true">
    <sodipodi:guide
       position="24.497679,53.165767"
       orientation="1,0"
       id="guide829" />
  </sodipodi:namedview>
  <g
     id="outside"
     transform="scale(2.3111114)"
     style="fill:#0a0a0a;fill-opacity:1;stroke-width:0.615385">
    <g
       style="opacity:0.9;fill:#0a0a0a;fill-opacity:1;stroke-width:0.615385"
       id="g860">
      <path
         d="M 10.62992,1 A 9.62992,9.62992 0 1 1 1,10.62992 9.64082,9.64082 0 0 1 10.62992,1 m 0,-1 A 10.62992,10.62992 0 1 0 21.25984,10.62992 10.62992,10.62992 0 0 0 10.62992,0 Z"
         style="fill:#0a0a0a;fill-opacity:1;stroke-width:0.615385"
         id="path858" />
    </g>
  </g>
  <circle
     cx="24.566929"
     cy="24.566929"
     style="opacity:0.8;fill:#141414;fill-opacity:1;stroke-width:1.42222"
     id="circle863"
     r="18.998426" />
  <g
     style="opacity:0.65;fill:#0f0f0f;fill-opacity:1;stroke-width:0.615385"
     id="g867"
     transform="scale(2.3111114)">
    <path
       d="m 10.62992,2.40945 a 8.22047,8.22047 0 1 1 -8.22047,8.22047 8.22047,8.22047 0 0 1 8.22047,-8.22047 m 0,-1.45 a 9.67047,9.67047 0 1 0 9.67047,9.67047 9.68142,9.68142 0 0 0 -9.67047,-9.67047 z"
       style="fill:#0f0f0f;fill-opacity:1;stroke-width:0.615385"
       id="path865" />
  </g>
  <g
     id="pointer"
     transform="matrix(2.0810976,0,0,2.3111114,2.389629,0)"
     style="fill:#cccccc;fill-opacity:1;stroke-width:0.648502">
    <path
       id="path10"
       d="m 11.07056,1.58411 v 0 a 0.44059,0.44059 0 0 0 -0.431,-0.44995 q -0.0095,-1.9e-4 -0.019,0 a 0.45,0.45 0 0 0 -0.44994,0.44995 l -0.79678,8.802 a 1.28422,1.28422 0 0 0 2.56843,0 z"
       style="fill:#cccccc;fill-opacity:1;stroke-width:0.648502" />
  </g>
</svg>
