<?xml version="1.0" encoding="UTF-8" standalone="no"?>
<svg xmlns:dc="http://purl.org/dc/elements/1.1/" xmlns:cc="http://creativecommons.org/ns#" xmlns:rdf="http://www.w3.org/1999/02/22-rdf-syntax-ns#" xmlns:svg="http://www.w3.org/2000/svg" xmlns="http://www.w3.org/2000/svg" xmlns:sodipodi="http://sodipodi.sourceforge.net/DTD/sodipodi-0.dtd" xmlns:inkscape="http://www.inkscape.org/namespaces/inkscape" inkscape:version="1.0 (4035a4f, 2020-05-01)" sodipodi:docname="omri-logo-mm-grad.svg" version="1.1" viewBox="0 0 22.677166 22.677166" height="6mm" width="6mm" data-name="Layer 2" id="Layer_2">
  <metadata id="metadata887">
    <rdf:RDF>
      <cc:Work rdf:about="">
        <dc:format>image/svg+xml</dc:format>
        <dc:type rdf:resource="http://purl.org/dc/dcmitype/StillImage" />
        <dc:title></dc:title>
      </cc:Work>
    </rdf:RDF>
  </metadata>
  <sodipodi:namedview inkscape:current-layer="Layer_2" inkscape:window-maximized="0" inkscape:window-y="25" inkscape:window-x="0" inkscape:cy="9.9212599" inkscape:cx="5.4114468" inkscape:zoom="19.845612" inkscape:document-units="mm" units="mm" showgrid="false" id="namedview885" inkscape:window-height="1229" inkscape:window-width="2042" inkscape:pageshadow="2" inkscape:pageopacity="0" guidetolerance="10" gridtolerance="10" objecttolerance="10" borderopacity="1" bordercolor="#666666" pagecolor="#ffffff" />
  <defs id="defs846">
    <linearGradient gradientUnits="userSpaceOnUse" y2="10.65408" x2="13.28815" y1="10.65408" x1="6.5543699" id="linear-gradient">
      <stop id="stop833" stop-color="#44a4f1" offset="0" />
      <stop id="stop835" stop-color="#5794e3" offset=".08934" />
      <stop id="stop837" stop-color="#9762b6" offset=".40763" />
      <stop id="stop839" stop-color="#c53d94" offset=".67636" />
      <stop id="stop841" stop-color="#e22680" offset=".882" />
      <stop id="stop843" stop-color="#ed1e79" offset="1" />
    </linearGradient>
  </defs>
  <g transform="matrix(24.948827,0,0,24.948827,176.29084,176.29089)" id="svg196">
    <g transform="matrix(0.04580805,0,0,0.04580805,-7.0660974,-7.0660991)" id="g1088">
      <ellipse style="fill:#424242" transform="rotate(-56.032,11.821514,2.4271084)" ry="0.18964" rx="0.53399003" cy="2.42711" cx="11.82152" id="ellipse26" />
      <path style="fill:#666666;fill-rule:evenodd" d="m 10.11022,12.22884 c -0.9775,0.20694 -1.71131,0.67871 -2.01267,1.09108 -0.20902,0.28603 -0.09459,0.5823 0.20883,0.59268 0.1411,0.0048 0.2848,-0.0079 0.42821,-0.03994 l 3.11053,-0.69409 c 0.26,-0.05802 0.49746,-0.16941 0.70145,-0.32102 0.0415,-0.03085 0.04572,-0.0916 0.0089,-0.12789 -0.26489,-0.26093 -0.78183,-0.85297 -2.44523,-0.50082 z" id="path28" />
      <g id="g34">
        <g id="g32">
          <path style="fill:url(#linear-gradient);fill-rule:evenodd" d="m 12.56124,12.8464 c 0.4436,-0.33647 0.72491,-0.86484 0.72689,-1.44872 l 3e-5,-0.01629 c 0,-2.20102 -1.50741,-3.9853 -3.36689,-3.9853 -1.85948,0 -3.36689,1.78428 -3.36689,3.9853 0,0.47223 0.06941,0.92524 0.19681,1.34556 0.21194,0.69926 0.84826,1.15916 1.54973,1.18512 -0.29916,-0.01386 -0.41107,-0.30792 -0.20335,-0.59216 0.30135,-0.41237 1.03516,-0.88414 2.01267,-1.09108 1.66341,-0.35215 2.18034,0.23989 2.44524,0.50082 0.03684,0.03629 0.03262,0.09704 -0.0089,0.12789 l 0.01466,-0.01115 z" id="path30" />
        </g>
      </g>
      <ellipse style="fill:#ffffff" transform="rotate(-51.54922,11.768209,9.8190044)" ry="0.36028999" rx="0.33096001" cy="9.8190098" cx="11.7682" id="ellipse36" />
      <ellipse style="fill:#ffffff" transform="rotate(-24.39217,12.475087,10.488124)" ry="0.33096001" rx="0.36028999" cy="10.48812" cx="12.47508" id="ellipse38" />
      <ellipse style="fill:#ffffff" transform="rotate(-9.38744,11.410568,10.798629)" ry="0.30520999" rx="0.36028999" cy="10.79865" cx="11.41059" id="ellipse40" />
      <path style="fill:#ffffff;fill-rule:evenodd" d="M 7.23132,8.98446 C 7.24714,8.99893 7.26324,9.01323 7.28036,9.02682 7.60696,9.28616 8.0439,9.27956 8.25628,9.01209 8.46726,8.74639 8.37702,8.32339 8.05567,8.06358 7.73896,8.31359 7.46007,8.62535 7.23132,8.98447 Z" id="path42" />
      <g id="g48">
        <g id="g46">
          <path style="fill:#858585" d="M 9.92126,0 C 4.4419,0 0,4.4419 0,9.92126 c 0,5.47936 4.4419,9.92126 9.92126,9.92126 5.47936,0 9.92126,-4.4419 9.92126,-9.92126 C 19.84252,4.4419 15.40062,0 9.92126,0 Z m 0,19.02561 c -5.02819,0 -9.10435,-4.07615 -9.10435,-9.10435 0,-5.0282 4.07616,-9.10435 9.10435,-9.10435 5.02819,0 9.10435,4.07616 9.10435,9.10435 0,5.02819 -4.07616,9.10435 -9.10435,9.10435 z" id="path44" />
        </g>
      </g>
      <path style="fill:#c7c7c7;fill-rule:evenodd" d="M 7.98509,8.12188 C 7.9658,8.13796 7.9464,8.15385 7.92741,8.17039 7.90816,8.18716 7.88936,8.20458 7.87042,8.22182 7.85206,8.23854 7.83356,8.25504 7.8155,8.2722 7.79662,8.29014 7.7782,8.30874 7.75965,8.32715 7.74215,8.34452 7.72447,8.36166 7.70728,8.37944 7.68881,8.39854 7.67085,8.4183 7.65274,8.43787 7.63614,8.4558 7.61934,8.47349 7.60304,8.49181 7.58495,8.51215 7.56742,8.53315 7.54971,8.55395 7.53405,8.57235 7.51816,8.59049 7.50281,8.60926 7.4851,8.6309 7.46799,8.65321 7.4507,8.67531 7.43606,8.69402 7.42117,8.71245 7.40683,8.73149 7.38932,8.75475 7.37245,8.77869 7.35539,8.80244 7.342,8.82108 7.32833,8.83942 7.31523,8.85836 7.29765,8.88377 7.28077,8.90985 7.26372,8.93578 L 7.23149,8.98461 C 7.24726,8.99902 7.2633,9.01328 7.28036,9.02682 7.4878,9.19154 7.73958,9.24856 7.95024,9.20001 8.03991,8.921 8.16267,8.65551 8.31708,8.41083 8.2655,8.28347 8.17733,8.1621 8.05612,8.06397 L 8.04291,8.07413 C 8.02341,8.08968 8.00431,8.10587 7.9851,8.12189 Z" id="path52" />
      <g id="g56">
        <polygon style="fill:#65995c" points="14.45493,1.11174 14.45483,1.11168 14.45481,1.11174 " id="polygon54" />
      </g>
      <path style="fill:#bba191;fill-rule:evenodd" d="m 11.07143,12.12036 c -0.26898,-0.0021 -0.58563,0.02896 -0.96121,0.10848 -0.02244,0.0047 -0.04402,0.01038 -0.06619,0.01541 l 10e-5,-7.5e-4 -0.05223,0.01288 c -0.03368,0.008 -0.06728,0.01609 -0.10032,0.02475 -0.02917,0.0076 -0.05776,0.01572 -0.08642,0.0238 -0.02842,0.008 -0.05692,0.01595 -0.08483,0.02441 -0.03408,0.01029 -0.06739,0.02114 -0.1007,0.03204 -0.02149,0.007 -0.04319,0.01392 -0.06435,0.02121 -0.03819,0.01312 -0.07545,0.02683 -0.11254,0.04069 l -0.03639,0.01316 -3e-5,4e-4 -0.03907,0.01455 c -0.24313,1.66473 -1.26152,4.50523 -2.64703,4.03914 -0.05571,-0.02747 -0.1109,-0.05587 -0.16583,-0.08471 1.11657,0.90171 2.28692,0.10254 2.64633,-0.58678 0.35583,-0.68246 0.59711,-1.84985 0.74382,-2.8285 0.00939,-0.06266 0.04756,-0.11747 0.10351,-0.14721 0.87792,-0.46679 1.04134,-0.09343 1.04134,-0.09343 l 0.0037,0.0026 c -0.01225,-0.21457 -0.01955,-0.42662 -0.02165,-0.6322 h -1e-5 z" id="path58" />
      <g id="g90">
        <path style="fill:#adadad;fill-rule:evenodd" d="m 16.84605,5.4193 c 0.05323,0.03586 0.01452,0.18646 -0.08647,0.33636 -0.10099,0.1499 -0.22601,0.24235 -0.27925,0.20648 l 0.17095,0.01298 c 0.03945,0.02658 0.1321,-0.04193 0.20693,-0.15301 0.07484,-0.11108 0.10353,-0.22268 0.06408,-0.24926 L 16.84605,5.41929 Z" id="path60" />
        <g id="g64">
          <path style="fill:#858585;fill-rule:evenodd" d="m 11.52321,2.87007 c 0.08686,0.05852 0.29086,-0.09232 0.45563,-0.33691 0.16478,-0.24459 0.22794,-0.4903 0.14108,-0.54882 l 0.64247,0.09967 c 0.13198,0.08891 0.036,0.46226 -0.21436,0.83389 -0.25037,0.37163 -0.56032,0.60081 -0.6923,0.5119 z" id="path62" />
        </g>
        <path style="fill:#b3b3b3;fill-rule:evenodd" d="m 16.84605,5.4193 -2.19082,-1.47646 -3.8e-4,5.5e-4 c -0.04289,0.09168 -0.09721,0.18814 -0.1622,0.2846 -0.06498,0.09645 -0.13397,0.18302 -0.20282,0.25721 l -3.8e-4,5.6e-4 2.19087,1.47638 c 0.05324,0.03586 0.17826,-0.05658 0.27925,-0.20648 0.10099,-0.1499 0.1397,-0.30049 0.08647,-0.33636 z" id="path66" />
        <path style="opacity:0.15;fill-rule:evenodd" d="m 14.41213,4.33937 c -0.04026,0.0525 -0.08125,0.10161 -0.1223,0.14584 l -3.8e-4,5.6e-4 2.19087,1.47638 C 16.51681,5.98673 16.58703,5.951 16.66011,5.87784 l -2.248,-1.53846 z" id="path68" />
        <g id="g72">
          <path style="fill:#9e9e9e;fill-rule:evenodd" d="m 11.85573,3.4298 c 0.13198,0.08891 0.44193,-0.14027 0.6923,-0.5119 0.25037,-0.37163 0.34634,-0.74497 0.21436,-0.83389 l 1.94462,1.3101 c 0.13198,0.08891 0.036,0.46226 -0.21436,0.83389 -0.25037,0.37163 -0.56032,0.60081 -0.6923,0.5119 z" id="path70" />
        </g>
        <g id="g76">
          <path style="fill:#424242;fill-rule:evenodd" d="m 15.90059,5.57157 c 0.05324,0.03586 0.17826,-0.05658 0.27925,-0.20648 0.10099,-0.1499 0.1397,-0.30049 0.08647,-0.33636 l -0.1236,-0.08327 c 0.05323,0.03586 0.01452,0.18646 -0.08647,0.33636 -0.10099,0.1499 -0.22601,0.24235 -0.27925,0.20648 z" id="path74" />
        </g>
        <g id="g82">
          <path style="opacity:0.15" d="m 16.66013,5.87783 -2.4e-4,-1.7e-4 c -0.04632,0.04631 -0.09151,0.07805 -0.12764,0.08842 l 0.11904,0.00904 c 0.02873,0.01935 0.08567,-0.01186 0.1434,-0.07308 L 16.66012,5.87783 Z" id="path78" />
          <path style="fill:#a79186" d="M 16.53224,5.96608 16.48033,5.96214 c 0.01331,0.00897 0.03111,0.00991 0.05191,0.00394 z" id="path80" />
        </g>
        <path style="opacity:0.15;fill-rule:evenodd" d="M 12.35025,3.16983 C 12.15212,3.38508 11.95429,3.4962 11.85573,3.42979 l 1.94462,1.3101 c 0.09184,0.06187 0.26986,-0.03055 0.45401,-0.21754 L 12.35025,3.16982 Z" id="path84" />
        <g style="opacity:0.1" id="g88">
          <path style="fill-rule:evenodd" d="m 11.84862,2.69904 c -0.13038,0.14162 -0.26055,0.21472 -0.3254,0.17103 L 11.85574,3.4298 C 11.9543,3.4962 12.15212,3.38509 12.35026,3.16984 L 11.84862,2.69905 Z" id="path86" />
        </g>
      </g>
      <g id="g96">
        <path style="fill:#b3b3b3;fill-rule:evenodd" d="m 15.95328,14.71091 v 0 c -0.16411,-0.13031 -0.40208,-0.1104 -0.54064,0.04681 -0.60352,0.68474 -1.33327,1.25537 -2.15255,1.67632 -1.58854,0.79482 -2.16617,-2.11904 -2.18865,-4.31368 -0.26898,-0.0021 -0.58563,0.02896 -0.96121,0.10848 C 9.84302,12.28541 9.59418,12.36187 9.36724,12.4514 9.12411,14.11613 8.10572,16.95663 6.72021,16.49054 4.29958,15.29686 2.60925,12.80221 2.60345,9.93639 2.59526,5.88791 5.8747,2.60343 9.92127,2.60343 c 0.61678,0 1.21542,0.07702 1.78751,0.22088 0.08571,-0.05991 0.18327,-0.1623 0.27007,-0.29114 0.101,-0.14991 0.16358,-0.30005 0.17708,-0.40744 C 11.41551,1.91377 10.63192,1.80406 9.82113,1.81385 5.36104,1.86768 1.80375,5.4785 1.81325,9.93891 c 0.00952,4.46982 3.63595,8.09038 8.10801,8.09038 2.42223,0 4.5961,-1.06241 6.08178,-2.74641 0.15004,-0.17007 0.12785,-0.43093 -0.04976,-0.57197 z" id="path94" />
      </g>
    </g>
  </g>
</svg>
