<?xml version="1.0" encoding="UTF-8" standalone="no"?>
<!-- Generator: Adobe Illustrator 25.2.3, SVG Export Plug-In . SVG Version: 6.00 Build 0)  -->

<svg
   version="1.0"
   id="svg111794"
   x="0px"
   y="0px"
   width="15.117"
   height="15.117"
   viewBox="0 0 15.116999 15.116999"
   enable-background="new 0 0 17.85552 17.85938"
   xml:space="preserve"
   sodipodi:docname="Trimpot.svg"
   inkscape:version="1.1.1 (3bf5ae0d25, 2021-09-20)"
   xmlns:inkscape="http://www.inkscape.org/namespaces/inkscape"
   xmlns:sodipodi="http://sodipodi.sourceforge.net/DTD/sodipodi-0.dtd"
   xmlns="http://www.w3.org/2000/svg"
   xmlns:svg="http://www.w3.org/2000/svg"><defs
   id="defs13" /><sodipodi:namedview
   id="namedview11"
   pagecolor="#ffffff"
   bordercolor="#666666"
   borderopacity="1.0"
   inkscape:pageshadow="2"
   inkscape:pageopacity="0.0"
   inkscape:pagecheckerboard="0"
   showgrid="false"
   units="px"
   inkscape:zoom="17.262556"
   inkscape:cx="-3.27298"
   inkscape:cy="10.166513"
   inkscape:window-width="1920"
   inkscape:window-height="1057"
   inkscape:window-x="-8"
   inkscape:window-y="1072"
   inkscape:window-maximized="1"
   inkscape:current-layer="svg111794" />

<g
   id="g8"
   style="stroke-width:1.18118"
   transform="scale(0.84660614)">
	<path
   opacity="0.99"
   fill="#ededed"
   enable-background="new    "
   d="M 7.85074,2.01721 H 9.9412 v 4.45324 c 0,0.29768 -0.24131,0.53899 -0.53899,0.53899 H 8.38973 c -0.29768,0 -0.53899,-0.24131 -0.53899,-0.53899 z"
   id="path2"
   style="stroke-width:1.28375" />
	<path
   opacity="0.4"
   d="m 9.94122,0.89518 v 1.20435 c 3.33276,0.49072 5.89355,3.354 5.89355,6.823 0,3.81384 -3.09167,6.90552 -6.9054,6.90552 -3.81373,0 -6.9054,-3.09167 -6.9054,-6.90552 0,-3.4458 2.52661,-6.29382 5.82678,-6.81274 V 0.90544 C 3.88995,1.434 0.83209,4.8173 0.83209,8.92253 c 0,4.47217 3.62524,8.09741 8.09729,8.09741 4.47205,0 8.09729,-3.62525 8.09729,-8.09741 0,-4.12842 -3.09204,-7.52832 -7.08545,-8.02735 z"
   id="path4"
   style="stroke-width:1.28375" />
	<rect
   x="7.85074"
   y="0.82529002"
   opacity="0.58"
   fill="#ffffff"
   width="2.0904601"
   height="1.2845"
   id="rect6"
   style="stroke-width:1.28375" />
</g></svg>
