<?xml version="1.0" encoding="UTF-8" standalone="no"?>
<svg
   xmlns:dc="http://purl.org/dc/elements/1.1/"
   xmlns:cc="http://creativecommons.org/ns#"
   xmlns:rdf="http://www.w3.org/1999/02/22-rdf-syntax-ns#"
   xmlns:svg="http://www.w3.org/2000/svg"
   xmlns="http://www.w3.org/2000/svg"
   xmlns:sodipodi="http://sodipodi.sourceforge.net/DTD/sodipodi-0.dtd"
   xmlns:inkscape="http://www.inkscape.org/namespaces/inkscape"
   inkscape:version="0.92.2 (5c3e80d, 2017-08-06)"
   height="128.5mm"
   width="30.48mm"
   sodipodi:docname="Aux-A-D-Grps.svg"
   id="svg1021"
   version="1.1"
   viewBox="0 0 115.2 485.66928">
  <metadata
     id="metadata1025">
    <rdf:RDF>
      <cc:Work
         rdf:about="">
        <dc:format>image/svg+xml</dc:format>
        <dc:type
           rdf:resource="http://purl.org/dc/dcmitype/StillImage" />
        <dc:title />
      </cc:Work>
    </rdf:RDF>
  </metadata>
  <sodipodi:namedview
     inkscape:current-layer="svg1021"
     inkscape:window-maximized="0"
     inkscape:window-y="23"
     inkscape:window-x="0"
     inkscape:cy="182.125"
     inkscape:cx="-18.411732"
     inkscape:zoom="2.7673301"
     units="mm"
     inkscape:document-units="mm"
     showgrid="false"
     id="namedview1023"
     inkscape:window-height="768"
     inkscape:window-width="1366"
     inkscape:pageshadow="2"
     inkscape:pageopacity="0"
     guidetolerance="10"
     gridtolerance="10"
     objecttolerance="10"
     borderopacity="1"
     bordercolor="#666666"
     pagecolor="#ffffff" />
  <defs
     id="defs840">
    <style
       id="style833">.cls-1{fill:#353535;}.cls-2{fill:url(#linear-gradient);}.cls-3{fill:gray;}.cls-4{fill:#b3b3b3;}.cls-5{fill:#ccc;}.cls-6{fill:#121212;}.cls-7{fill:#fff;}</style>
    <linearGradient
       gradientUnits="userSpaceOnUse"
       y2="349.56"
       x2="40.939999"
       y1="349.56"
       x1="21.09"
       id="linear-gradient">
      <stop
         id="stop835"
         stop-color="#3fa9f5"
         offset="0" />
      <stop
         id="stop837"
         stop-color="#ed1e79"
         offset="1" />
    </linearGradient>
  </defs>
  <g
     id="Layer_2-2"
     data-name="Layer 2"
     transform="scale(1.3333333)">
    <g
       id="background">
      <path
         style="fill:#353535"
         inkscape:connector-curvature="0"
         id="rect4155"
         class="cls-1"
         d="M 0,0 H 86.4 V 364.25 H 0 Z" />
    </g>
  </g>
  <g
     id="branding"
     transform="scale(1.3333333)">
    <path
       inkscape:connector-curvature="0"
       class="cls-2"
       d="m 21.6,355.74 a 0.47,0.47 0 0 1 -0.25,-0.07 0.51,0.51 0 0 1 -0.2,-0.7 l 6.27,-11.32 a 0.52,0.52 0 0 1 1,0.25 v 9.33 l 5.31,-9.58 a 0.51,0.51 0 0 1 0.58,-0.25 0.52,0.52 0 0 1 0.38,0.5 v 9.33 L 40,343.65 a 0.51,0.51 0 0 1 0.58,-0.25 0.51,0.51 0 0 1 0.39,0.5 v 11.32 a 0.52,0.52 0 0 1 -0.52,0.52 0.51,0.51 0 0 1 -0.51,-0.52 v -9.33 l -5.31,9.58 a 0.52,0.52 0 0 1 -1,-0.25 v -9.33 l -5.31,9.58 a 0.51,0.51 0 0 1 -0.58,0.25 0.52,0.52 0 0 1 -0.38,-0.5 v -9.33 l -5.31,9.58 a 0.51,0.51 0 0 1 -0.45,0.27 z"
       id="path845"
       style="fill:url(#linear-gradient)" />
    <path
       style="fill:#808080"
       inkscape:connector-curvature="0"
       class="cls-3"
       d="m 43.43,343.9 a 0.5,0.5 0 0 1 0.5,-0.5 H 44 a 0.54,0.54 0 0 1 0.47,0.26 l 1.71,2.68 1.72,-2.69 a 0.51,0.51 0 0 1 0.46,-0.25 h 0.1 a 0.5,0.5 0 0 1 0.51,0.5 v 4.72 a 0.49,0.49 0 0 1 -0.51,0.49 0.5,0.5 0 0 1 -0.49,-0.49 v -3.39 l -1.38,2.08 a 0.47,0.47 0 0 1 -0.84,0 l -1.37,-2.06 v 3.38 a 0.48,0.48 0 0 1 -0.5,0.48 0.47,0.47 0 0 1 -0.48,-0.48 z"
       id="path847" />
    <path
       style="fill:#b3b3b3"
       inkscape:connector-curvature="0"
       class="cls-4"
       d="m 48.49,343.4 h -0.1 a 0.51,0.51 0 0 0 -0.46,0.25 l -1.72,2.69 -1.71,-2.68 a 0.54,0.54 0 0 0 -0.47,-0.26 h -0.1 a 0.5,0.5 0 0 0 -0.5,0.5 v 4.73 a 0.47,0.47 0 0 0 0.48,0.48 0.48,0.48 0 0 0 0.5,-0.48 v -3.38 l 1.37,2.06 a 0.47,0.47 0 0 0 0.84,0 L 48,345.23 v 3.39 a 0.5,0.5 0 0 0 0.49,0.49 0.49,0.49 0 0 0 0.51,-0.49 v -4.72 a 0.5,0.5 0 0 0 -0.51,-0.5 z"
       id="path849" />
    <path
       style="fill:#808080"
       inkscape:connector-curvature="0"
       class="cls-3"
       d="m 50.11,343.88 a 0.5,0.5 0 0 1 1,0 v 4.74 a 0.5,0.5 0 0 1 -1,0 z"
       id="path851" />
    <path
       style="fill:#b3b3b3"
       inkscape:connector-curvature="0"
       class="cls-4"
       d="m 50.61,343.39 a 0.49,0.49 0 0 0 -0.5,0.49 v 4.74 a 0.5,0.5 0 0 0 1,0 v -4.74 a 0.49,0.49 0 0 0 -0.49,-0.49 z"
       id="path853" />
    <path
       style="fill:#808080"
       inkscape:connector-curvature="0"
       class="cls-3"
       d="m 52.21,343.9 a 0.5,0.5 0 0 1 0.5,-0.5 h 0.11 a 0.64,0.64 0 0 1 0.52,0.29 l 2.83,3.65 v -3.47 a 0.5,0.5 0 0 1 1,0 v 4.74 a 0.49,0.49 0 0 1 -0.49,0.5 v 0 a 0.66,0.66 0 0 1 -0.52,-0.3 l -2.91,-3.76 v 3.58 a 0.5,0.5 0 0 1 -1,0 z"
       id="path855" />
    <path
       style="fill:#b3b3b3"
       inkscape:connector-curvature="0"
       class="cls-4"
       d="m 56.65,343.39 a 0.49,0.49 0 0 0 -0.48,0.48 v 3.47 l -2.83,-3.65 a 0.64,0.64 0 0 0 -0.52,-0.29 h -0.11 a 0.5,0.5 0 0 0 -0.5,0.5 v 4.73 a 0.5,0.5 0 0 0 1,0 v -3.58 l 2.91,3.76 a 0.66,0.66 0 0 0 0.52,0.3 v 0 a 0.49,0.49 0 0 0 0.49,-0.5 v -4.74 a 0.49,0.49 0 0 0 -0.5,-0.48 z"
       id="path857" />
    <path
       style="fill:#808080"
       inkscape:connector-curvature="0"
       class="cls-3"
       d="m 58.2,343.93 a 0.5,0.5 0 0 1 0.51,-0.5 h 1.61 a 2.82,2.82 0 0 1 3,2.8 v 0 a 2.83,2.83 0 0 1 -3,2.82 h -1.61 a 0.49,0.49 0 0 1 -0.51,-0.5 z m 2.12,4.24 a 1.84,1.84 0 0 0 2,-1.9 v 0 a 1.85,1.85 0 0 0 -2,-1.92 H 59.2 v 3.84 z"
       id="path859" />
    <path
       style="fill:#b3b3b3"
       inkscape:connector-curvature="0"
       class="cls-4"
       d="m 60.32,343.43 h -1.61 a 0.5,0.5 0 0 0 -0.51,0.5 v 4.64 a 0.49,0.49 0 0 0 0.51,0.5 h 1.61 a 2.83,2.83 0 0 0 3,-2.82 v 0 a 2.82,2.82 0 0 0 -3,-2.8 z m -1.12,4.74 v -3.84 h 1.12 a 1.85,1.85 0 0 1 2,1.92 v 0 a 1.84,1.84 0 0 1 -2,1.9 z"
       id="path861" />
    <path
       style="fill:#808080"
       inkscape:connector-curvature="0"
       class="cls-3"
       d="m 43.43,350.51 a 0.5,0.5 0 0 1 0.5,-0.5 H 44 a 0.54,0.54 0 0 1 0.47,0.26 l 1.74,2.73 1.72,-2.68 a 0.52,0.52 0 0 1 0.46,-0.26 h 0.1 a 0.5,0.5 0 0 1 0.51,0.5 v 4.72 a 0.5,0.5 0 0 1 -0.51,0.5 0.51,0.51 0 0 1 -0.49,-0.5 v -3.38 l -1.38,2.07 a 0.47,0.47 0 0 1 -0.84,0 l -1.37,-2.06 v 3.38 a 0.49,0.49 0 0 1 -0.5,0.49 0.48,0.48 0 0 1 -0.48,-0.49 z"
       id="path863" />
    <path
       style="fill:#b3b3b3"
       inkscape:connector-curvature="0"
       class="cls-4"
       d="m 48.49,350 h -0.1 a 0.52,0.52 0 0 0 -0.46,0.26 L 46.21,353 44.5,350.32 A 0.54,0.54 0 0 0 44,350 h -0.1 a 0.5,0.5 0 0 0 -0.5,0.5 v 4.73 a 0.48,0.48 0 0 0 0.48,0.49 0.49,0.49 0 0 0 0.5,-0.49 v -3.38 l 1.37,2.06 a 0.47,0.47 0 0 0 0.84,0 L 48,351.85 v 3.38 a 0.51,0.51 0 0 0 0.49,0.5 0.5,0.5 0 0 0 0.51,-0.5 v -4.72 a 0.5,0.5 0 0 0 -0.51,-0.5 z"
       id="path865" />
    <path
       style="fill:#808080"
       inkscape:connector-curvature="0"
       class="cls-3"
       d="m 50.05,355.19 v -4.65 a 0.5,0.5 0 0 1 0.5,-0.5 h 3.3 a 0.45,0.45 0 0 1 0,0.89 h -2.8 v 1.46 h 2.43 a 0.46,0.46 0 0 1 0.45,0.46 0.44,0.44 0 0 1 -0.45,0.43 h -2.43 v 1.52 h 2.84 a 0.45,0.45 0 0 1 0,0.89 h -3.34 a 0.5,0.5 0 0 1 -0.5,-0.5 z"
       id="path867" />
    <path
       style="fill:#b3b3b3"
       inkscape:connector-curvature="0"
       class="cls-4"
       d="m 53.85,350 h -3.3 a 0.5,0.5 0 0 0 -0.5,0.5 v 4.65 a 0.5,0.5 0 0 0 0.5,0.5 h 3.34 a 0.45,0.45 0 0 0 0,-0.89 h -2.84 v -1.52 h 2.43 a 0.44,0.44 0 0 0 0.45,-0.43 0.46,0.46 0 0 0 -0.45,-0.46 h -2.43 v -1.46 h 2.8 a 0.45,0.45 0 0 0 0,-0.89 z"
       id="path869" />
    <path
       style="fill:#808080"
       inkscape:connector-curvature="0"
       class="cls-3"
       d="m 55.07,350.49 a 0.5,0.5 0 0 1 1,0 v 4.29 h 2.56 a 0.45,0.45 0 0 1 0.45,0.45 0.46,0.46 0 0 1 -0.45,0.46 h -3.06 a 0.5,0.5 0 0 1 -0.5,-0.5 z"
       id="path871" />
    <path
       style="fill:#b3b3b3"
       inkscape:connector-curvature="0"
       class="cls-4"
       d="m 55.57,350 a 0.49,0.49 0 0 0 -0.5,0.49 v 4.7 a 0.5,0.5 0 0 0 0.5,0.5 h 3.06 a 0.46,0.46 0 0 0 0.45,-0.46 0.45,0.45 0 0 0 -0.45,-0.45 h -2.56 v -4.29 A 0.49,0.49 0 0 0 55.57,350 Z"
       id="path873" />
    <path
       style="fill:#808080"
       inkscape:connector-curvature="0"
       class="cls-3"
       d="m 59.68,350.54 a 0.5,0.5 0 0 1 0.5,-0.5 h 1.61 a 2.82,2.82 0 0 1 3,2.81 v 0 a 2.84,2.84 0 0 1 -3,2.83 h -1.61 a 0.5,0.5 0 0 1 -0.5,-0.5 z m 2.11,4.24 a 1.85,1.85 0 0 0 2,-1.9 v 0 a 1.86,1.86 0 0 0 -2,-1.92 h -1.12 v 3.84 z"
       id="path875" />
    <path
       style="fill:#b3b3b3"
       inkscape:connector-curvature="0"
       class="cls-4"
       d="m 61.79,350 h -1.61 a 0.5,0.5 0 0 0 -0.5,0.5 v 4.65 a 0.5,0.5 0 0 0 0.5,0.5 h 1.61 a 2.84,2.84 0 0 0 3,-2.83 v 0 a 2.82,2.82 0 0 0 -3,-2.81 z m -1.12,4.74 v -3.84 h 1.12 a 1.86,1.86 0 0 1 2,1.92 v 0 a 1.85,1.85 0 0 1 -2,1.9 z"
       id="path877" />
    <path
       style="fill:#cccccc"
       inkscape:connector-curvature="0"
       class="cls-5"
       d="m 35.58,10 v 8.39 h -1.64 v -5.46 l -2.36,3.89 h -0.2 L 29,12.94 v 5.43 H 27.37 V 10 h 1.7 l 2.41,4 2.4,-4 z"
       id="path879" />
    <path
       style="fill:#cccccc"
       inkscape:connector-curvature="0"
       class="cls-5"
       d="M 39.48,16.79 H 43 v 1.58 H 37.83 V 10 H 43 v 1.58 h -3.52 v 1.79 h 3.18 v 1.53 h -3.18 z"
       id="path881" />
    <path
       style="fill:#cccccc"
       inkscape:connector-curvature="0"
       class="cls-5"
       d="m 46.53,16.79 h 3.2 v 1.58 H 44.87 V 10 h 1.66 z"
       id="path883" />
    <path
       style="fill:#cccccc"
       inkscape:connector-curvature="0"
       class="cls-5"
       d="m 54.69,10 a 3.81,3.81 0 0 1 2.88,1.21 4.1,4.1 0 0 1 1.16,3 4.11,4.11 0 0 1 -1.16,3 3.84,3.84 0 0 1 -2.88,1.21 H 51.35 V 10 Z m 0,6.81 a 2.31,2.31 0 0 0 1.77,-0.72 2.66,2.66 0 0 0 0.69,-1.9 2.59,2.59 0 0 0 -0.69,-1.88 2.29,2.29 0 0 0 -1.77,-0.73 H 53 v 5.23 z"
       id="path885" />
  </g>
  <g
     id="EQ_bgs_copy"
     data-name="EQ bgs copy"
     transform="scale(1.3333333)">
    <rect
       style="fill:#121212"
       class="cls-6"
       x="53.049999"
       y="28.35"
       width="27.92"
       height="36.849998"
       rx="1.42"
       id="rect888" />
  </g>
  <g
     id="labels"
     transform="scale(1.3333333)">
    <path
       style="fill:#cccccc"
       inkscape:connector-curvature="0"
       class="cls-5"
       d="m 16.51,31.52 h 0.94 v 4.9 h -0.94 z"
       id="path891" />
    <path
       style="fill:#cccccc"
       inkscape:connector-curvature="0"
       class="cls-5"
       d="m 21.33,31.52 h 0.93 v 4.9 h -0.71 l -2,-3 v 3 h -0.94 v -4.9 h 0.71 l 2,3 z"
       id="path893" />
    <path
       style="fill:#cccccc"
       inkscape:connector-curvature="0"
       class="cls-5"
       d="M 62.64,36.52 A 2.35,2.35 0 0 1 60.9,35.78 2.5,2.5 0 0 1 60.19,34 a 2.47,2.47 0 0 1 0.71,-1.81 2.43,2.43 0 0 1 3.49,0 2.47,2.47 0 0 1 0.71,1.81 2.5,2.5 0 0 1 -0.71,1.81 2.37,2.37 0 0 1 -1.75,0.71 z m 0,-1 a 1.43,1.43 0 0 0 1.09,-0.45 1.58,1.58 0 0 0 0.44,-1.07 1.61,1.61 0 0 0 -0.44,-1.16 1.55,1.55 0 0 0 -2.18,0 1.61,1.61 0 0 0 -0.44,1.16 1.58,1.58 0 0 0 0.44,1.15 1.43,1.43 0 0 0 1.09,0.42 z"
       id="path895" />
    <path
       style="fill:#cccccc"
       inkscape:connector-curvature="0"
       class="cls-5"
       d="M 66.49,36.06 A 1.61,1.61 0 0 1 66,34.82 v -3.3 h 0.93 v 3.22 a 0.88,0.88 0 0 0 1.76,0 v -3.22 h 0.93 v 3.3 a 1.61,1.61 0 0 1 -0.51,1.24 2.07,2.07 0 0 1 -2.6,0 z"
       id="path897" />
    <path
       style="fill:#cccccc"
       inkscape:connector-curvature="0"
       class="cls-5"
       d="m 73.83,31.52 v 0.92 h -1.27 v 4 h -0.94 v -4 h -1.27 v -0.92 z"
       id="path899" />
  </g>
  <g
     id="Aux_A_D_grps"
     data-name="Aux A–D grps"
     transform="scale(1.3333333)">
    <path
       style="fill:#ffffff"
       inkscape:connector-curvature="0"
       class="cls-7"
       d="m 19.19,80.31 -0.33,-1 h -2.23 l -0.34,1 H 15.1 l 2,-5.6 h 1.37 l 2,5.6 z m -2.21,-2 h 1.53 L 17.75,76 Z"
       id="path902" />
    <path
       style="fill:#ffffff"
       inkscape:connector-curvature="0"
       class="cls-7"
       d="m 23.89,76.31 h 1 v 4 h -1 V 79.86 A 1.32,1.32 0 0 1 22.7,80.42 1.44,1.44 0 0 1 21.61,80 1.66,1.66 0 0 1 21.19,78.79 v -2.48 h 1 v 2.33 a 0.73,0.73 0 0 0 0.79,0.82 c 0.54,0 0.88,-0.32 0.88,-1 z"
       id="path904" />
    <path
       style="fill:#ffffff"
       inkscape:connector-curvature="0"
       class="cls-7"
       d="M 30,80.31 H 28.76 L 27.9,79.1 27,80.31 h -1.16 l 1.46,-2 -1.4,-2 h 1.19 l 0.81,1.13 0.81,-1.13 h 1.18 l -1.4,2 z"
       id="path906" />
    <path
       style="fill:#ffffff"
       inkscape:connector-curvature="0"
       class="cls-7"
       d="m 36.91,80.31 -0.33,-1 h -2.23 l -0.34,1 h -1.19 l 2,-5.6 h 1.37 l 2,5.6 z m -2.21,-2 h 1.53 L 35.47,76 Z"
       id="path908" />
    <path
       style="fill:#ffffff"
       inkscape:connector-curvature="0"
       class="cls-7"
       d="m 38.81,78.39 v -1 h 4.12 v 1 z"
       id="path910" />
    <path
       style="fill:#ffffff"
       inkscape:connector-curvature="0"
       class="cls-7"
       d="m 46.59,74.71 a 2.57,2.57 0 0 1 1.92,0.81 2.93,2.93 0 0 1 0,4 2.53,2.53 0 0 1 -1.92,0.81 h -2.22 v -5.6 z m 0,4.55 a 1.57,1.57 0 0 0 1.19,-0.48 1.81,1.81 0 0 0 0.45,-1.27 1.74,1.74 0 0 0 -0.45,-1.25 1.55,1.55 0 0 0 -1.19,-0.49 h -1.11 v 3.49 z"
       id="path912" />
    <path
       style="fill:#ffffff"
       inkscape:connector-curvature="0"
       class="cls-7"
       d="m 58.37,77.3 v 0.44 a 2.59,2.59 0 0 1 -0.77,1.94 2.7,2.7 0 0 1 -2,0.74 2.93,2.93 0 0 1 -2.15,-0.84 2.78,2.78 0 0 1 -0.85,-2.06 2.89,2.89 0 0 1 2.93,-2.92 2.8,2.8 0 0 1 2.47,1.31 l -0.94,0.54 a 1.71,1.71 0 0 0 -1.5,-0.78 1.87,1.87 0 0 0 -1.32,3.16 1.9,1.9 0 0 0 1.4,0.51 1.55,1.55 0 0 0 1.63,-1.06 h -1.7 v -1 z"
       id="path914" />
    <path
       style="fill:#ffffff"
       inkscape:connector-curvature="0"
       class="cls-7"
       d="m 60.54,77 a 1.22,1.22 0 0 1 1.21,-0.77 v 1.15 a 1.17,1.17 0 0 0 -0.84,0.2 0.9,0.9 0 0 0 -0.37,0.82 v 1.91 h -1 v -4 h 1 z"
       id="path916" />
    <path
       style="fill:#ffffff"
       inkscape:connector-curvature="0"
       class="cls-7"
       d="m 66.46,76.82 a 2.09,2.09 0 0 1 0.54,1.49 2.15,2.15 0 0 1 -0.57,1.51 1.83,1.83 0 0 1 -1.38,0.6 1.53,1.53 0 0 1 -1.29,-0.58 v 2.07 h -1 v -5.6 h 1 v 0.48 a 1.51,1.51 0 0 1 1.29,-0.59 1.82,1.82 0 0 1 1.41,0.62 z m -1.57,2.62 a 1.06,1.06 0 0 0 0.79,-0.31 1.1,1.1 0 0 0 0.32,-0.82 1.12,1.12 0 0 0 -1.9,-0.81 1.09,1.09 0 0 0 -0.31,0.81 1.13,1.13 0 0 0 0.31,0.82 1.06,1.06 0 0 0 0.79,0.31 z"
       id="path918" />
    <path
       style="fill:#ffffff"
       inkscape:connector-curvature="0"
       class="cls-7"
       d="m 69.75,77.89 c 0.59,0.12 1.35,0.4 1.34,1.25 a 1.12,1.12 0 0 1 -0.46,1 2,2 0 0 1 -1.15,0.32 1.69,1.69 0 0 1 -1.68,-1 l 0.9,-0.5 a 0.75,0.75 0 0 0 0.78,0.52 c 0.37,0 0.55,-0.11 0.55,-0.35 0,-0.24 -0.32,-0.33 -0.72,-0.44 -0.6,-0.15 -1.34,-0.4 -1.34,-1.23 a 1.15,1.15 0 0 1 0.43,-0.93 1.73,1.73 0 0 1 1.09,-0.34 1.69,1.69 0 0 1 1.52,0.85 l -0.88,0.48 a 0.66,0.66 0 0 0 -0.64,-0.41 c -0.26,0 -0.46,0.13 -0.46,0.33 0,0.2 0.32,0.34 0.72,0.45 z"
       id="path920" />
  </g>
  <g
     id="A-D_grp_No.s"
     data-name="A-D grp No.s"
     transform="scale(1.3333333)">
    <path
       style="fill:#cccccc"
       inkscape:connector-curvature="0"
       class="cls-5"
       d="m 11.11,93.05 v 0.33 A 2.23,2.23 0 0 1 10.45,95 2.43,2.43 0 0 1 8.71,95.63 2.56,2.56 0 0 1 6.83,94.9 2.55,2.55 0 0 1 8.67,90.55 2.44,2.44 0 0 1 10.8,91.71 l -0.69,0.4 a 1.62,1.62 0 0 0 -1.44,-0.78 1.78,1.78 0 0 0 -1.27,3 1.82,1.82 0 0 0 1.32,0.5 1.47,1.47 0 0 0 1.58,-1.12 H 8.66 v -0.72 z"
       id="path923" />
    <path
       style="fill:#cccccc"
       inkscape:connector-curvature="0"
       class="cls-5"
       d="m 12.66,90.68 h 0.7 v 4.9 h -0.8 v -4 l -1,0.28 -0.19,-0.69 z"
       id="path925" />
    <path
       style="fill:#cccccc"
       inkscape:connector-curvature="0"
       class="cls-5"
       d="m 11.26,103.58 -0.34,-1 H 8.83 l -0.34,1 H 7.61 l 1.78,-4.9 h 1 l 1.77,4.9 z M 9.1,101.84 h 1.55 L 9.88,99.62 Z"
       id="path927" />
    <path
       style="fill:#cccccc"
       inkscape:connector-curvature="0"
       class="cls-5"
       d="m 76.84,93.05 v 0.33 a 2.2,2.2 0 0 1 -0.67,1.62 2.41,2.41 0 0 1 -1.73,0.63 2.56,2.56 0 0 1 -1.88,-0.73 2.56,2.56 0 1 1 4,-3.19 l -0.69,0.4 a 1.62,1.62 0 0 0 -1.44,-0.78 1.69,1.69 0 0 0 -1.27,0.51 1.83,1.83 0 0 0 0,2.51 1.8,1.8 0 0 0 1.31,0.5 1.48,1.48 0 0 0 1.53,-1.08 h -1.61 v -0.72 z"
       id="path929" />
    <path
       style="fill:#cccccc"
       inkscape:connector-curvature="0"
       class="cls-5"
       d="M 77.16,95.58 V 95 l 1.71,-1.74 a 1.75,1.75 0 0 0 0.62,-1.08 0.71,0.71 0 0 0 -0.76,-0.76 1,1 0 0 0 -0.91,0.61 l -0.68,-0.4 a 1.7,1.7 0 0 1 1.59,-1 1.59,1.59 0 0 1 1.1,0.4 1.41,1.41 0 0 1 0.47,1.11 2.4,2.4 0 0 1 -0.84,1.6 l -1.1,1.1 h 2 v 0.78 z"
       id="path931" />
    <path
       style="fill:#cccccc"
       inkscape:connector-curvature="0"
       class="cls-5"
       d="m 77.5,103.58 -0.34,-1 h -2.09 l -0.34,1 h -0.87 l 1.77,-4.9 h 1 l 1.77,4.9 z m -2.16,-1.74 h 1.55 l -0.77,-2.22 z"
       id="path933" />
    <path
       style="fill:#cccccc"
       inkscape:connector-curvature="0"
       class="cls-5"
       d="m 10.56,123.86 v 0.34 a 2.22,2.22 0 0 1 -0.67,1.65 2.37,2.37 0 0 1 -1.73,0.64 2.57,2.57 0 0 1 -1.88,-0.74 2.56,2.56 0 0 1 0,-3.6 2.49,2.49 0 0 1 1.83,-0.75 2.46,2.46 0 0 1 2.14,1.17 l -0.69,0.4 a 1.63,1.63 0 0 0 -1.45,-0.78 1.71,1.71 0 0 0 -1.26,0.5 1.74,1.74 0 0 0 -0.5,1.26 1.71,1.71 0 0 0 0.5,1.26 1.77,1.77 0 0 0 1.31,0.49 1.48,1.48 0 0 0 1.59,-1.12 H 8.11 v -0.72 z"
       id="path935" />
    <path
       style="fill:#cccccc"
       inkscape:connector-curvature="0"
       class="cls-5"
       d="m 13,123.5 a 1.49,1.49 0 0 1 0.7,2.57 1.81,1.81 0 0 1 -1.22,0.42 1.66,1.66 0 0 1 -1.64,-1 l 0.68,-0.4 a 0.91,0.91 0 0 0 1,0.63 c 0.56,0 0.91,-0.3 0.91,-0.79 0,-0.49 -0.35,-0.78 -0.91,-0.78 H 12.3 l -0.32,-0.49 1.02,-1.41 h -2 v -0.76 h 3 v 0.69 z"
       id="path937" />
    <path
       style="fill:#cccccc"
       inkscape:connector-curvature="0"
       class="cls-5"
       d="m 11.26,134.4 -0.34,-1 H 8.83 l -0.34,1 H 7.61 l 1.78,-4.91 h 1 l 1.77,4.91 z M 9.1,132.65 h 1.55 l -0.77,-2.21 z"
       id="path939" />
    <path
       style="fill:#cccccc"
       inkscape:connector-curvature="0"
       class="cls-5"
       d="m 76.59,123.86 v 0.34 a 2.21,2.21 0 0 1 -0.66,1.65 2.4,2.4 0 0 1 -1.74,0.64 2.57,2.57 0 0 1 -1.88,-0.74 2.58,2.58 0 0 1 0,-3.6 2.5,2.5 0 0 1 1.84,-0.75 2.45,2.45 0 0 1 2.13,1.17 l -0.69,0.39 a 1.64,1.64 0 0 0 -1.44,-0.77 1.71,1.71 0 0 0 -1.77,1.81 1.71,1.71 0 0 0 0.5,1.26 1.81,1.81 0 0 0 1.32,0.49 1.47,1.47 0 0 0 1.58,-1.12 h -1.64 v -0.72 z"
       id="path941" />
    <path
       style="fill:#cccccc"
       inkscape:connector-curvature="0"
       class="cls-5"
       d="m 80.78,124.76 v 0.75 h -0.56 v 0.89 H 79.4 v -0.89 H 77 v -0.75 l 1.68,-3.27 h 0.88 l -1.69,3.27 h 1.53 v -1.27 h 0.82 v 1.27 z"
       id="path943" />
    <path
       style="fill:#cccccc"
       inkscape:connector-curvature="0"
       class="cls-5"
       d="m 77.5,134.4 -0.34,-1 h -2.09 l -0.34,1 h -0.87 l 1.77,-4.91 h 1 l 1.77,4.91 z m -2.16,-1.75 h 1.55 l -0.77,-2.21 z"
       id="path945" />
    <path
       style="fill:#cccccc"
       inkscape:connector-curvature="0"
       class="cls-5"
       d="M 11.11,154.68 V 155 a 2.23,2.23 0 0 1 -0.66,1.66 2.43,2.43 0 0 1 -1.74,0.63 2.56,2.56 0 0 1 -1.88,-0.73 2.55,2.55 0 0 1 1.84,-4.35 2.44,2.44 0 0 1 2.13,1.16 l -0.69,0.4 A 1.62,1.62 0 0 0 8.67,153 a 1.78,1.78 0 0 0 -1.27,3 1.82,1.82 0 0 0 1.32,0.5 1.47,1.47 0 0 0 1.58,-1.12 H 8.66 v -0.72 z"
       id="path947" />
    <path
       style="fill:#cccccc"
       inkscape:connector-curvature="0"
       class="cls-5"
       d="m 12.66,152.31 h 0.7 v 4.9 h -0.8 v -4 l -1,0.28 -0.19,-0.69 z"
       id="path949" />
    <path
       style="fill:#cccccc"
       inkscape:connector-curvature="0"
       class="cls-5"
       d="m 11.8,163.81 a 1.29,1.29 0 0 1 -0.43,1 1.46,1.46 0 0 1 -1,0.4 H 8.23 v -4.9 h 1.94 a 1.43,1.43 0 0 1 1,0.39 1.26,1.26 0 0 1 0.42,1 1.19,1.19 0 0 1 -0.5,1 1.24,1.24 0 0 1 0.71,1.11 z M 9,161.07 v 1.28 h 1.14 a 0.64,0.64 0 0 0 0,-1.28 z m 1.3,3.39 a 0.69,0.69 0 0 0 0,-1.38 H 9 v 1.38 z"
       id="path951" />
    <path
       style="fill:#cccccc"
       inkscape:connector-curvature="0"
       class="cls-5"
       d="M 76.84,154.68 V 155 a 2.2,2.2 0 0 1 -0.67,1.66 2.41,2.41 0 0 1 -1.73,0.63 2.56,2.56 0 0 1 -1.88,-0.73 2.56,2.56 0 1 1 4,-3.19 l -0.69,0.4 A 1.62,1.62 0 0 0 74.4,153 a 1.69,1.69 0 0 0 -1.27,0.51 1.83,1.83 0 0 0 0,2.51 1.8,1.8 0 0 0 1.31,0.5 1.48,1.48 0 0 0 1.56,-1.12 h -1.61 v -0.72 z"
       id="path953" />
    <path
       style="fill:#cccccc"
       inkscape:connector-curvature="0"
       class="cls-5"
       d="m 77.16,157.21 v -0.63 l 1.71,-1.74 a 1.75,1.75 0 0 0 0.62,-1.08 0.71,0.71 0 0 0 -0.76,-0.76 1,1 0 0 0 -0.91,0.61 l -0.68,-0.4 a 1.7,1.7 0 0 1 1.59,-1 1.59,1.59 0 0 1 1.1,0.4 1.41,1.41 0 0 1 0.47,1.11 2.4,2.4 0 0 1 -0.84,1.6 l -1.1,1.1 h 2 v 0.78 z"
       id="path955" />
    <path
       style="fill:#cccccc"
       inkscape:connector-curvature="0"
       class="cls-5"
       d="m 78,163.81 a 1.29,1.29 0 0 1 -0.43,1 1.44,1.44 0 0 1 -1,0.4 h -2.1 v -4.9 h 2 a 1.42,1.42 0 0 1 1,0.39 1.26,1.26 0 0 1 0.42,1 1.19,1.19 0 0 1 -0.5,1 1.24,1.24 0 0 1 0.61,1.11 z m -2.77,-2.74 v 1.28 h 1.15 a 0.64,0.64 0 0 0 0,-1.28 z m 1.3,3.39 a 0.69,0.69 0 0 0 0,-1.38 h -1.3 v 1.38 z"
       id="path957" />
    <path
       style="fill:#cccccc"
       inkscape:connector-curvature="0"
       class="cls-5"
       d="m 10.56,185.49 v 0.34 a 2.22,2.22 0 0 1 -0.67,1.65 2.37,2.37 0 0 1 -1.73,0.64 2.57,2.57 0 0 1 -1.88,-0.74 2.56,2.56 0 0 1 0,-3.6 2.49,2.49 0 0 1 1.83,-0.78 2.46,2.46 0 0 1 2.14,1.17 l -0.69,0.4 a 1.63,1.63 0 0 0 -1.45,-0.78 1.71,1.71 0 0 0 -1.26,0.5 1.74,1.74 0 0 0 -0.5,1.26 1.71,1.71 0 0 0 0.5,1.26 1.77,1.77 0 0 0 1.31,0.49 1.48,1.48 0 0 0 1.59,-1.12 H 8.11 v -0.72 z"
       id="path959" />
    <path
       style="fill:#cccccc"
       inkscape:connector-curvature="0"
       class="cls-5"
       d="m 13,185.13 a 1.49,1.49 0 0 1 0.7,2.57 1.81,1.81 0 0 1 -1.22,0.42 1.66,1.66 0 0 1 -1.64,-1 l 0.68,-0.4 a 0.91,0.91 0 0 0 1,0.63 c 0.56,0 0.91,-0.3 0.91,-0.79 0,-0.49 -0.35,-0.78 -0.91,-0.78 H 12.3 l -0.32,-0.49 1.02,-1.41 h -2 v -0.76 h 3 v 0.69 z"
       id="path961" />
    <path
       style="fill:#cccccc"
       inkscape:connector-curvature="0"
       class="cls-5"
       d="m 11.8,194.63 a 1.3,1.3 0 0 1 -0.43,1 1.5,1.5 0 0 1 -1,0.4 H 8.23 v -4.91 h 1.94 a 1.44,1.44 0 0 1 1,0.4 1.26,1.26 0 0 1 0.42,1 1.17,1.17 0 0 1 -0.5,1 1.27,1.27 0 0 1 0.71,1.11 z M 9,191.88 v 1.29 h 1.14 a 0.65,0.65 0 0 0 0,-1.29 z m 1.3,3.39 a 0.69,0.69 0 0 0 0,-1.37 H 9 v 1.37 z"
       id="path963" />
    <path
       style="fill:#cccccc"
       inkscape:connector-curvature="0"
       class="cls-5"
       d="m 76.59,185.49 v 0.34 a 2.21,2.21 0 0 1 -0.66,1.65 2.4,2.4 0 0 1 -1.74,0.64 2.57,2.57 0 0 1 -1.88,-0.74 2.58,2.58 0 0 1 0,-3.6 2.5,2.5 0 0 1 1.84,-0.75 2.45,2.45 0 0 1 2.13,1.17 l -0.69,0.39 a 1.64,1.64 0 0 0 -1.44,-0.77 1.71,1.71 0 0 0 -1.77,1.76 1.71,1.71 0 0 0 0.5,1.26 1.81,1.81 0 0 0 1.32,0.49 1.47,1.47 0 0 0 1.58,-1.12 h -1.64 v -0.72 z"
       id="path965" />
    <path
       style="fill:#cccccc"
       inkscape:connector-curvature="0"
       class="cls-5"
       d="m 80.78,186.39 v 0.75 H 80.22 V 188 H 79.4 v -0.89 H 77 v -0.75 l 1.68,-3.27 h 0.88 l -1.69,3.27 h 1.53 v -1.27 h 0.82 v 1.27 z"
       id="path967" />
    <path
       style="fill:#cccccc"
       inkscape:connector-curvature="0"
       class="cls-5"
       d="m 78,194.63 a 1.3,1.3 0 0 1 -0.43,1 1.48,1.48 0 0 1 -1,0.4 h -2.1 v -4.91 h 2 a 1.43,1.43 0 0 1 1,0.4 1.26,1.26 0 0 1 0.42,1 1.17,1.17 0 0 1 -0.5,1 1.25,1.25 0 0 1 0.61,1.11 z m -2.77,-2.75 v 1.29 h 1.15 a 0.65,0.65 0 0 0 0,-1.29 z m 1.3,3.39 a 0.69,0.69 0 0 0 0,-1.37 h -1.3 v 1.37 z"
       id="path969" />
    <path
       style="fill:#cccccc"
       inkscape:connector-curvature="0"
       class="cls-5"
       d="m 11.11,216.31 v 0.33 a 2.19,2.19 0 0 1 -0.66,1.65 2.4,2.4 0 0 1 -1.74,0.64 2.56,2.56 0 0 1 -1.88,-0.73 2.55,2.55 0 0 1 1.84,-4.35 2.44,2.44 0 0 1 2.13,1.15 l -0.69,0.4 a 1.62,1.62 0 0 0 -1.44,-0.78 1.78,1.78 0 0 0 -1.27,3 1.82,1.82 0 0 0 1.32,0.5 A 1.47,1.47 0 0 0 10.3,217 H 8.66 v -0.72 z"
       id="path971" />
    <path
       style="fill:#cccccc"
       inkscape:connector-curvature="0"
       class="cls-5"
       d="m 12.66,213.94 h 0.7 v 4.9 h -0.8 v -4 l -1,0.28 -0.19,-0.69 z"
       id="path973" />
    <path
       style="fill:#cccccc"
       inkscape:connector-curvature="0"
       class="cls-5"
       d="m 8.28,226.2 a 2.54,2.54 0 0 1 1.84,-4.35 2.41,2.41 0 0 1 2.1,1.17 l -0.7,0.4 a 1.56,1.56 0 0 0 -1.4,-0.79 1.76,1.76 0 1 0 0,3.52 1.56,1.56 0 0 0 1.4,-0.79 l 0.7,0.4 a 2.32,2.32 0 0 1 -0.87,0.86 2.47,2.47 0 0 1 -1.23,0.31 2.47,2.47 0 0 1 -1.84,-0.73 z"
       id="path975" />
    <path
       style="fill:#cccccc"
       inkscape:connector-curvature="0"
       class="cls-5"
       d="m 76.84,216.31 v 0.33 a 2.16,2.16 0 0 1 -0.67,1.65 2.37,2.37 0 0 1 -1.73,0.64 2.56,2.56 0 0 1 -1.88,-0.73 2.56,2.56 0 1 1 4,-3.19 l -0.69,0.4 a 1.62,1.62 0 0 0 -1.44,-0.78 1.69,1.69 0 0 0 -1.27,0.51 1.83,1.83 0 0 0 0,2.51 1.8,1.8 0 0 0 1.31,0.5 A 1.48,1.48 0 0 0 76,217 h -1.61 v -0.72 z"
       id="path977" />
    <path
       style="fill:#cccccc"
       inkscape:connector-curvature="0"
       class="cls-5"
       d="m 77.16,218.84 v -0.63 l 1.71,-1.74 a 1.75,1.75 0 0 0 0.62,-1.08 0.71,0.71 0 0 0 -0.76,-0.76 1,1 0 0 0 -0.91,0.61 l -0.68,-0.4 a 1.7,1.7 0 0 1 1.59,-1 1.59,1.59 0 0 1 1.1,0.4 1.41,1.41 0 0 1 0.47,1.11 2.4,2.4 0 0 1 -0.84,1.6 l -1.1,1.1 h 2 v 0.78 z"
       id="path979" />
    <path
       style="fill:#cccccc"
       inkscape:connector-curvature="0"
       class="cls-5"
       d="m 74.52,226.2 a 2.54,2.54 0 0 1 1.84,-4.35 2.42,2.42 0 0 1 2.11,1.15 l -0.7,0.4 a 1.57,1.57 0 0 0 -1.41,-0.79 1.76,1.76 0 1 0 0,3.52 1.57,1.57 0 0 0 1.41,-0.79 l 0.7,0.4 a 2.4,2.4 0 0 1 -2.11,1.17 2.49,2.49 0 0 1 -1.84,-0.71 z"
       id="path981" />
    <path
       style="fill:#cccccc"
       inkscape:connector-curvature="0"
       class="cls-5"
       d="m 10.56,247.12 v 0.34 a 2.22,2.22 0 0 1 -0.67,1.65 2.37,2.37 0 0 1 -1.73,0.64 2.57,2.57 0 0 1 -1.88,-0.75 2.56,2.56 0 0 1 0,-3.6 2.49,2.49 0 0 1 1.83,-0.75 2.46,2.46 0 0 1 2.14,1.17 l -0.69,0.4 a 1.63,1.63 0 0 0 -1.45,-0.78 1.71,1.71 0 0 0 -1.26,0.5 1.74,1.74 0 0 0 -0.5,1.26 1.71,1.71 0 0 0 0.5,1.26 1.77,1.77 0 0 0 1.31,0.49 1.48,1.48 0 0 0 1.59,-1.12 H 8.11 v -0.72 z"
       id="path983" />
    <path
       style="fill:#cccccc"
       inkscape:connector-curvature="0"
       class="cls-5"
       d="m 13,246.76 a 1.49,1.49 0 0 1 0.7,2.57 1.81,1.81 0 0 1 -1.22,0.42 1.66,1.66 0 0 1 -1.64,-1 l 0.68,-0.4 a 0.91,0.91 0 0 0 1,0.63 c 0.56,0 0.91,-0.3 0.91,-0.79 0,-0.49 -0.35,-0.78 -0.91,-0.78 H 12.3 l -0.3,-0.51 1,-1.39 h -2 v -0.76 h 3 v 0.69 z"
       id="path985" />
    <path
       style="fill:#cccccc"
       inkscape:connector-curvature="0"
       class="cls-5"
       d="m 8.28,257 a 2.49,2.49 0 0 1 -0.73,-1.81 2.51,2.51 0 0 1 2.57,-2.55 2.41,2.41 0 0 1 2.1,1.17 l -0.7,0.41 a 1.56,1.56 0 0 0 -1.4,-0.79 1.73,1.73 0 0 0 -1.28,0.5 1.7,1.7 0 0 0 -0.48,1.26 1.74,1.74 0 0 0 0.48,1.26 1.72,1.72 0 0 0 1.28,0.49 1.54,1.54 0 0 0 1.4,-0.79 l 0.7,0.4 a 2.18,2.18 0 0 1 -0.87,0.86 2.48,2.48 0 0 1 -1.23,0.32 A 2.51,2.51 0 0 1 8.28,257 Z"
       id="path987" />
    <path
       style="fill:#cccccc"
       inkscape:connector-curvature="0"
       class="cls-5"
       d="m 76.59,247.12 v 0.34 a 2.21,2.21 0 0 1 -0.66,1.65 2.4,2.4 0 0 1 -1.74,0.64 2.57,2.57 0 0 1 -1.88,-0.74 2.58,2.58 0 0 1 0,-3.6 2.5,2.5 0 0 1 1.84,-0.75 2.45,2.45 0 0 1 2.13,1.17 l -0.69,0.4 a 1.62,1.62 0 0 0 -1.44,-0.78 1.71,1.71 0 0 0 -1.77,1.76 1.71,1.71 0 0 0 0.5,1.26 1.81,1.81 0 0 0 1.32,0.49 1.47,1.47 0 0 0 1.58,-1.12 h -1.64 v -0.72 z"
       id="path989" />
    <path
       style="fill:#cccccc"
       inkscape:connector-curvature="0"
       class="cls-5"
       d="m 80.78,248 v 0.74 h -0.56 v 0.89 H 79.4 v -0.89 H 77 V 248 l 1.68,-3.28 h 0.88 L 77.87,248 h 1.53 v -1.28 h 0.82 V 248 Z"
       id="path991" />
    <path
       style="fill:#cccccc"
       inkscape:connector-curvature="0"
       class="cls-5"
       d="m 74.52,257 a 2.48,2.48 0 0 1 -0.72,-1.81 2.45,2.45 0 0 1 0.72,-1.81 2.49,2.49 0 0 1 1.84,-0.74 2.42,2.42 0 0 1 2.11,1.17 l -0.7,0.41 a 1.57,1.57 0 0 0 -1.41,-0.79 1.73,1.73 0 0 0 -1.28,0.5 1.7,1.7 0 0 0 -0.48,1.26 1.74,1.74 0 0 0 0.48,1.26 1.72,1.72 0 0 0 1.28,0.49 1.55,1.55 0 0 0 1.41,-0.79 l 0.7,0.4 a 2.27,2.27 0 0 1 -0.88,0.86 2.45,2.45 0 0 1 -1.23,0.32 2.53,2.53 0 0 1 -1.84,-0.73 z"
       id="path993" />
    <path
       style="fill:#cccccc"
       inkscape:connector-curvature="0"
       class="cls-5"
       d="m 11.11,277.94 v 0.33 a 2.21,2.21 0 0 1 -0.66,1.66 2.43,2.43 0 0 1 -1.74,0.63 2.56,2.56 0 0 1 -1.88,-0.73 2.6,2.6 0 0 1 0,-3.61 2.49,2.49 0 0 1 1.84,-0.74 2.44,2.44 0 0 1 2.13,1.16 l -0.69,0.4 a 1.62,1.62 0 0 0 -1.44,-0.78 1.78,1.78 0 0 0 -1.27,3 1.82,1.82 0 0 0 1.32,0.5 1.47,1.47 0 0 0 1.58,-1.12 H 8.66 v -0.72 z"
       id="path995" />
    <path
       style="fill:#cccccc"
       inkscape:connector-curvature="0"
       class="cls-5"
       d="m 12.66,275.57 h 0.7 v 4.9 h -0.8 v -4 l -1,0.28 -0.19,-0.69 z"
       id="path997" />
    <path
       style="fill:#cccccc"
       inkscape:connector-curvature="0"
       class="cls-5"
       d="m 9.78,283.57 a 2.2,2.2 0 0 1 1.68,0.71 2.59,2.59 0 0 1 0,3.48 2.2,2.2 0 0 1 -1.68,0.71 H 7.86 v -4.9 z m 0,4.13 a 1.47,1.47 0 0 0 1.13,-0.47 1.7,1.7 0 0 0 0.44,-1.21 1.65,1.65 0 0 0 -0.44,-1.2 1.44,1.44 0 0 0 -1.13,-0.48 H 8.66 v 3.36 z"
       id="path999" />
    <path
       style="fill:#cccccc"
       inkscape:connector-curvature="0"
       class="cls-5"
       d="m 76.84,277.94 v 0.33 a 2.16,2.16 0 0 1 -0.67,1.65 2.37,2.37 0 0 1 -1.73,0.64 2.56,2.56 0 0 1 -1.88,-0.73 2.56,2.56 0 1 1 4,-3.19 l -0.69,0.4 a 1.62,1.62 0 0 0 -1.44,-0.78 1.69,1.69 0 0 0 -1.27,0.51 1.83,1.83 0 0 0 0,2.51 1.8,1.8 0 0 0 1.31,0.5 1.48,1.48 0 0 0 1.53,-1.12 h -1.61 v -0.72 z"
       id="path1001" />
    <path
       style="fill:#cccccc"
       inkscape:connector-curvature="0"
       class="cls-5"
       d="m 77.16,280.47 v -0.63 l 1.71,-1.74 a 1.75,1.75 0 0 0 0.62,-1.08 0.71,0.71 0 0 0 -0.76,-0.76 1,1 0 0 0 -0.91,0.61 l -0.68,-0.4 a 1.7,1.7 0 0 1 1.59,-1 1.59,1.59 0 0 1 1.1,0.4 1.41,1.41 0 0 1 0.47,1.13 2.4,2.4 0 0 1 -0.84,1.6 l -1.1,1.1 h 2 v 0.78 z"
       id="path1003" />
    <path
       style="fill:#cccccc"
       inkscape:connector-curvature="0"
       class="cls-5"
       d="m 76,283.57 a 2.2,2.2 0 0 1 1.67,0.71 2.59,2.59 0 0 1 0,3.48 2.2,2.2 0 0 1 -1.67,0.71 h -1.9 v -4.9 z m 0,4.13 a 1.42,1.42 0 0 0 1.12,-0.48 1.83,1.83 0 0 0 0,-2.4 1.42,1.42 0 0 0 -1.12,-0.48 h -1.09 v 3.36 z"
       id="path1005" />
    <path
       style="fill:#cccccc"
       inkscape:connector-curvature="0"
       class="cls-5"
       d="m 10.56,308.75 v 0.34 a 2.22,2.22 0 0 1 -0.67,1.65 2.37,2.37 0 0 1 -1.73,0.64 2.57,2.57 0 0 1 -1.88,-0.74 2.56,2.56 0 0 1 0,-3.6 2.49,2.49 0 0 1 1.83,-0.75 2.46,2.46 0 0 1 2.14,1.17 l -0.69,0.39 a 1.64,1.64 0 0 0 -1.45,-0.77 1.71,1.71 0 0 0 -1.26,0.5 1.74,1.74 0 0 0 -0.5,1.26 1.71,1.71 0 0 0 0.5,1.26 1.81,1.81 0 0 0 1.31,0.49 1.48,1.48 0 0 0 1.59,-1.12 H 8.11 v -0.72 z"
       id="path1007" />
    <path
       style="fill:#cccccc"
       inkscape:connector-curvature="0"
       class="cls-5"
       d="m 13,308.39 a 1.43,1.43 0 0 1 1.2,1.41 1.45,1.45 0 0 1 -0.5,1.16 1.81,1.81 0 0 1 -1.22,0.42 1.66,1.66 0 0 1 -1.64,-1 l 0.68,-0.4 a 0.91,0.91 0 0 0 1,0.63 c 0.56,0 0.91,-0.3 0.91,-0.79 C 13.43,309.33 13,309 12.48,309 H 12.3 l -0.32,-0.49 1.02,-1.37 h -2 v -0.76 h 3 v 0.69 z"
       id="path1009" />
    <path
       style="fill:#cccccc"
       inkscape:connector-curvature="0"
       class="cls-5"
       d="m 9.78,314.38 a 2.2,2.2 0 0 1 1.68,0.71 2.42,2.42 0 0 1 0.67,1.74 2.46,2.46 0 0 1 -0.67,1.75 2.2,2.2 0 0 1 -1.68,0.71 H 7.86 v -4.91 z m 0,4.14 a 1.48,1.48 0 0 0 1.13,-0.48 1.69,1.69 0 0 0 0.44,-1.21 1.66,1.66 0 0 0 -0.44,-1.2 1.48,1.48 0 0 0 -1.13,-0.48 H 8.66 v 3.37 z"
       id="path1011" />
    <path
       style="fill:#cccccc"
       inkscape:connector-curvature="0"
       class="cls-5"
       d="m 76.59,308.75 v 0.34 a 2.21,2.21 0 0 1 -0.66,1.65 2.4,2.4 0 0 1 -1.74,0.64 2.57,2.57 0 0 1 -1.88,-0.74 2.58,2.58 0 0 1 0,-3.6 2.5,2.5 0 0 1 1.84,-0.75 2.45,2.45 0 0 1 2.13,1.17 l -0.69,0.39 a 1.64,1.64 0 0 0 -1.44,-0.77 1.71,1.71 0 0 0 -1.77,1.76 1.71,1.71 0 0 0 0.5,1.26 1.85,1.85 0 0 0 1.32,0.49 1.47,1.47 0 0 0 1.58,-1.12 h -1.64 v -0.72 z"
       id="path1013" />
    <path
       style="fill:#cccccc"
       inkscape:connector-curvature="0"
       class="cls-5"
       d="m 80.78,309.65 v 0.75 h -0.56 v 0.89 H 79.4 V 310.4 H 77 v -0.75 l 1.68,-3.27 h 0.88 l -1.69,3.27 h 1.53 v -1.27 h 0.82 v 1.27 z"
       id="path1015" />
    <path
       style="fill:#cccccc"
       inkscape:connector-curvature="0"
       class="cls-5"
       d="m 76,314.38 a 2.2,2.2 0 0 1 1.67,0.71 2.42,2.42 0 0 1 0.67,1.74 2.46,2.46 0 0 1 -0.67,1.75 2.2,2.2 0 0 1 -1.67,0.71 h -1.9 v -4.91 z m 0,4.14 a 1.46,1.46 0 0 0 1.12,-0.48 1.69,1.69 0 0 0 0.45,-1.21 1.67,1.67 0 0 0 -0.45,-1.2 1.46,1.46 0 0 0 -1.12,-0.48 h -1.09 v 3.37 z"
       id="path1017" />
  </g>
</svg>
