<?xml version="1.0" encoding="UTF-8" standalone="no"?>
<svg
   xmlns:dc="http://purl.org/dc/elements/1.1/"
   xmlns:cc="http://creativecommons.org/ns#"
   xmlns:rdf="http://www.w3.org/1999/02/22-rdf-syntax-ns#"
   xmlns:svg="http://www.w3.org/2000/svg"
   xmlns="http://www.w3.org/2000/svg"
   xmlns:sodipodi="http://sodipodi.sourceforge.net/DTD/sodipodi-0.dtd"
   xmlns:inkscape="http://www.inkscape.org/namespaces/inkscape"
   inkscape:version="0.92.2 (5c3e80d, 2017-08-06)"
   height="128.5mm"
   width="30.48mm"
   sodipodi:docname="Bus-Snd-Pan-Rtn.svg"
   id="svg1233"
   version="1.1"
   viewBox="0 0 115.2 485.66928">
  <metadata
     id="metadata1237">
    <rdf:RDF>
      <cc:Work
         rdf:about="">
        <dc:format>image/svg+xml</dc:format>
        <dc:type
           rdf:resource="http://purl.org/dc/dcmitype/StillImage" />
        <dc:title />
      </cc:Work>
    </rdf:RDF>
  </metadata>
  <sodipodi:namedview
     inkscape:current-layer="svg1233"
     inkscape:window-maximized="0"
     inkscape:window-y="23"
     inkscape:window-x="0"
     inkscape:cy="182.125"
     inkscape:cx="-50.033352"
     inkscape:zoom="1.8287447"
     units="mm"
     inkscape:document-units="mm"
     showgrid="false"
     id="namedview1235"
     inkscape:window-height="768"
     inkscape:window-width="1366"
     inkscape:pageshadow="2"
     inkscape:pageopacity="0"
     guidetolerance="10"
     gridtolerance="10"
     objecttolerance="10"
     borderopacity="1"
     bordercolor="#666666"
     pagecolor="#ffffff" />
  <defs
     id="defs1028">
    <style
       id="style1021">.cls-1{fill:#353535;}.cls-2{fill:url(#linear-gradient);}.cls-3{fill:gray;}.cls-4{fill:#b3b3b3;}.cls-5{fill:#ccc;}.cls-6{fill:#121212;}.cls-7{fill:#fff;}</style>
    <linearGradient
       gradientUnits="userSpaceOnUse"
       y2="349.56"
       x2="40.939999"
       y1="349.56"
       x1="21.09"
       id="linear-gradient">
      <stop
         id="stop1023"
         stop-color="#3fa9f5"
         offset="0" />
      <stop
         id="stop1025"
         stop-color="#ed1e79"
         offset="1" />
    </linearGradient>
  </defs>
  <g
     id="Layer_2-2"
     data-name="Layer 2"
     transform="scale(1.3333333)">
    <g
       id="background">
      <path
         style="fill:#353535"
         inkscape:connector-curvature="0"
         id="rect4155"
         class="cls-1"
         d="M 0,0 H 86.4 V 364.25 H 0 Z" />
    </g>
  </g>
  <g
     id="branding"
     transform="scale(1.3333333)">
    <path
       inkscape:connector-curvature="0"
       class="cls-2"
       d="m 21.6,355.74 a 0.47,0.47 0 0 1 -0.25,-0.07 0.51,0.51 0 0 1 -0.2,-0.7 l 6.27,-11.32 a 0.52,0.52 0 0 1 1,0.25 v 9.33 l 5.31,-9.58 a 0.51,0.51 0 0 1 0.58,-0.25 0.52,0.52 0 0 1 0.38,0.5 v 9.33 L 40,343.65 a 0.51,0.51 0 0 1 0.58,-0.25 0.51,0.51 0 0 1 0.39,0.5 v 11.32 a 0.52,0.52 0 0 1 -0.52,0.52 0.51,0.51 0 0 1 -0.51,-0.52 v -9.33 l -5.31,9.58 a 0.52,0.52 0 0 1 -1,-0.25 v -9.33 l -5.31,9.58 a 0.51,0.51 0 0 1 -0.58,0.25 0.52,0.52 0 0 1 -0.38,-0.5 v -9.33 l -5.31,9.58 a 0.51,0.51 0 0 1 -0.45,0.27 z"
       id="path1033"
       style="fill:url(#linear-gradient)" />
    <path
       style="fill:#808080"
       inkscape:connector-curvature="0"
       class="cls-3"
       d="m 43.43,343.9 a 0.5,0.5 0 0 1 0.5,-0.5 H 44 a 0.54,0.54 0 0 1 0.47,0.26 l 1.71,2.68 1.72,-2.69 a 0.51,0.51 0 0 1 0.46,-0.25 h 0.1 a 0.5,0.5 0 0 1 0.51,0.5 v 4.72 a 0.49,0.49 0 0 1 -0.51,0.49 0.5,0.5 0 0 1 -0.49,-0.49 v -3.39 l -1.38,2.08 a 0.47,0.47 0 0 1 -0.84,0 l -1.37,-2.06 v 3.38 a 0.48,0.48 0 0 1 -0.5,0.48 0.47,0.47 0 0 1 -0.48,-0.48 z"
       id="path1035" />
    <path
       style="fill:#b3b3b3"
       inkscape:connector-curvature="0"
       class="cls-4"
       d="m 48.49,343.4 h -0.1 a 0.51,0.51 0 0 0 -0.46,0.25 l -1.72,2.69 -1.71,-2.68 a 0.54,0.54 0 0 0 -0.47,-0.26 h -0.1 a 0.5,0.5 0 0 0 -0.5,0.5 v 4.73 a 0.47,0.47 0 0 0 0.48,0.48 0.48,0.48 0 0 0 0.5,-0.48 v -3.38 l 1.37,2.06 a 0.47,0.47 0 0 0 0.84,0 L 48,345.23 v 3.39 a 0.5,0.5 0 0 0 0.49,0.49 0.49,0.49 0 0 0 0.51,-0.49 v -4.72 a 0.5,0.5 0 0 0 -0.51,-0.5 z"
       id="path1037" />
    <path
       style="fill:#808080"
       inkscape:connector-curvature="0"
       class="cls-3"
       d="m 50.11,343.88 a 0.5,0.5 0 0 1 1,0 v 4.74 a 0.5,0.5 0 0 1 -1,0 z"
       id="path1039" />
    <path
       style="fill:#b3b3b3"
       inkscape:connector-curvature="0"
       class="cls-4"
       d="m 50.61,343.39 a 0.49,0.49 0 0 0 -0.5,0.49 v 4.74 a 0.5,0.5 0 0 0 1,0 v -4.74 a 0.49,0.49 0 0 0 -0.49,-0.49 z"
       id="path1041" />
    <path
       style="fill:#808080"
       inkscape:connector-curvature="0"
       class="cls-3"
       d="m 52.21,343.9 a 0.5,0.5 0 0 1 0.5,-0.5 h 0.11 a 0.64,0.64 0 0 1 0.52,0.29 l 2.83,3.65 v -3.47 a 0.5,0.5 0 0 1 1,0 v 4.74 a 0.49,0.49 0 0 1 -0.49,0.5 v 0 a 0.66,0.66 0 0 1 -0.52,-0.3 l -2.91,-3.76 v 3.58 a 0.5,0.5 0 0 1 -1,0 z"
       id="path1043" />
    <path
       style="fill:#b3b3b3"
       inkscape:connector-curvature="0"
       class="cls-4"
       d="m 56.65,343.39 a 0.49,0.49 0 0 0 -0.48,0.48 v 3.47 l -2.83,-3.65 a 0.64,0.64 0 0 0 -0.52,-0.29 h -0.11 a 0.5,0.5 0 0 0 -0.5,0.5 v 4.73 a 0.5,0.5 0 0 0 1,0 v -3.58 l 2.91,3.76 a 0.66,0.66 0 0 0 0.52,0.3 v 0 a 0.49,0.49 0 0 0 0.49,-0.5 v -4.74 a 0.49,0.49 0 0 0 -0.5,-0.48 z"
       id="path1045" />
    <path
       style="fill:#808080"
       inkscape:connector-curvature="0"
       class="cls-3"
       d="m 58.2,343.93 a 0.5,0.5 0 0 1 0.51,-0.5 h 1.61 a 2.82,2.82 0 0 1 3,2.8 v 0 a 2.83,2.83 0 0 1 -3,2.82 h -1.61 a 0.49,0.49 0 0 1 -0.51,-0.5 z m 2.12,4.24 a 1.84,1.84 0 0 0 2,-1.9 v 0 a 1.85,1.85 0 0 0 -2,-1.92 H 59.2 v 3.84 z"
       id="path1047" />
    <path
       style="fill:#b3b3b3"
       inkscape:connector-curvature="0"
       class="cls-4"
       d="m 60.32,343.43 h -1.61 a 0.5,0.5 0 0 0 -0.51,0.5 v 4.64 a 0.49,0.49 0 0 0 0.51,0.5 h 1.61 a 2.83,2.83 0 0 0 3,-2.82 v 0 a 2.82,2.82 0 0 0 -3,-2.8 z m -1.12,4.74 v -3.84 h 1.12 a 1.85,1.85 0 0 1 2,1.92 v 0 a 1.84,1.84 0 0 1 -2,1.9 z"
       id="path1049" />
    <path
       style="fill:#808080"
       inkscape:connector-curvature="0"
       class="cls-3"
       d="m 43.43,350.51 a 0.5,0.5 0 0 1 0.5,-0.5 H 44 a 0.54,0.54 0 0 1 0.47,0.26 l 1.74,2.73 1.72,-2.68 a 0.52,0.52 0 0 1 0.46,-0.26 h 0.1 a 0.5,0.5 0 0 1 0.51,0.5 v 4.72 a 0.5,0.5 0 0 1 -0.51,0.5 0.51,0.51 0 0 1 -0.49,-0.5 v -3.38 l -1.38,2.07 a 0.47,0.47 0 0 1 -0.84,0 l -1.37,-2.06 v 3.38 a 0.49,0.49 0 0 1 -0.5,0.49 0.48,0.48 0 0 1 -0.48,-0.49 z"
       id="path1051" />
    <path
       style="fill:#b3b3b3"
       inkscape:connector-curvature="0"
       class="cls-4"
       d="m 48.49,350 h -0.1 a 0.52,0.52 0 0 0 -0.46,0.26 L 46.21,353 44.5,350.32 A 0.54,0.54 0 0 0 44,350 h -0.1 a 0.5,0.5 0 0 0 -0.5,0.5 v 4.73 a 0.48,0.48 0 0 0 0.48,0.49 0.49,0.49 0 0 0 0.5,-0.49 v -3.38 l 1.37,2.06 a 0.47,0.47 0 0 0 0.84,0 L 48,351.85 v 3.38 a 0.51,0.51 0 0 0 0.49,0.5 0.5,0.5 0 0 0 0.51,-0.5 v -4.72 a 0.5,0.5 0 0 0 -0.51,-0.5 z"
       id="path1053" />
    <path
       style="fill:#808080"
       inkscape:connector-curvature="0"
       class="cls-3"
       d="m 50.05,355.19 v -4.65 a 0.5,0.5 0 0 1 0.5,-0.5 h 3.3 a 0.45,0.45 0 0 1 0,0.89 h -2.8 v 1.46 h 2.43 a 0.46,0.46 0 0 1 0.45,0.46 0.44,0.44 0 0 1 -0.45,0.43 h -2.43 v 1.52 h 2.84 a 0.45,0.45 0 0 1 0,0.89 h -3.34 a 0.5,0.5 0 0 1 -0.5,-0.5 z"
       id="path1055" />
    <path
       style="fill:#b3b3b3"
       inkscape:connector-curvature="0"
       class="cls-4"
       d="m 53.85,350 h -3.3 a 0.5,0.5 0 0 0 -0.5,0.5 v 4.65 a 0.5,0.5 0 0 0 0.5,0.5 h 3.34 a 0.45,0.45 0 0 0 0,-0.89 h -2.84 v -1.52 h 2.43 a 0.44,0.44 0 0 0 0.45,-0.43 0.46,0.46 0 0 0 -0.45,-0.46 h -2.43 v -1.46 h 2.8 a 0.45,0.45 0 0 0 0,-0.89 z"
       id="path1057" />
    <path
       style="fill:#808080"
       inkscape:connector-curvature="0"
       class="cls-3"
       d="m 55.07,350.49 a 0.5,0.5 0 0 1 1,0 v 4.29 h 2.56 a 0.45,0.45 0 0 1 0.45,0.45 0.46,0.46 0 0 1 -0.45,0.46 h -3.06 a 0.5,0.5 0 0 1 -0.5,-0.5 z"
       id="path1059" />
    <path
       style="fill:#b3b3b3"
       inkscape:connector-curvature="0"
       class="cls-4"
       d="m 55.57,350 a 0.49,0.49 0 0 0 -0.5,0.49 v 4.7 a 0.5,0.5 0 0 0 0.5,0.5 h 3.06 a 0.46,0.46 0 0 0 0.45,-0.46 0.45,0.45 0 0 0 -0.45,-0.45 h -2.56 v -4.29 A 0.49,0.49 0 0 0 55.57,350 Z"
       id="path1061" />
    <path
       style="fill:#808080"
       inkscape:connector-curvature="0"
       class="cls-3"
       d="m 59.68,350.54 a 0.5,0.5 0 0 1 0.5,-0.5 h 1.61 a 2.82,2.82 0 0 1 3,2.81 v 0 a 2.84,2.84 0 0 1 -3,2.83 h -1.61 a 0.5,0.5 0 0 1 -0.5,-0.5 z m 2.11,4.24 a 1.85,1.85 0 0 0 2,-1.9 v 0 a 1.86,1.86 0 0 0 -2,-1.92 h -1.12 v 3.84 z"
       id="path1063" />
    <path
       style="fill:#b3b3b3"
       inkscape:connector-curvature="0"
       class="cls-4"
       d="m 61.79,350 h -1.61 a 0.5,0.5 0 0 0 -0.5,0.5 v 4.65 a 0.5,0.5 0 0 0 0.5,0.5 h 1.61 a 2.84,2.84 0 0 0 3,-2.83 v 0 a 2.82,2.82 0 0 0 -3,-2.81 z m -1.12,4.74 v -3.84 h 1.12 a 1.86,1.86 0 0 1 2,1.92 v 0 a 1.85,1.85 0 0 1 -2,1.9 z"
       id="path1065" />
    <path
       style="fill:#cccccc"
       inkscape:connector-curvature="0"
       class="cls-5"
       d="m 35.58,10 v 8.39 h -1.64 v -5.46 l -2.36,3.89 h -0.2 L 29,12.94 v 5.43 H 27.37 V 10 h 1.7 l 2.41,4 2.4,-4 z"
       id="path1067" />
    <path
       style="fill:#cccccc"
       inkscape:connector-curvature="0"
       class="cls-5"
       d="M 39.48,16.79 H 43 v 1.58 H 37.83 V 10 H 43 v 1.58 h -3.52 v 1.79 h 3.18 v 1.53 h -3.18 z"
       id="path1069" />
    <path
       style="fill:#cccccc"
       inkscape:connector-curvature="0"
       class="cls-5"
       d="m 46.53,16.79 h 3.2 v 1.58 H 44.87 V 10 h 1.66 z"
       id="path1071" />
    <path
       style="fill:#cccccc"
       inkscape:connector-curvature="0"
       class="cls-5"
       d="m 54.69,10 a 3.81,3.81 0 0 1 2.88,1.21 4.1,4.1 0 0 1 1.16,3 4.11,4.11 0 0 1 -1.16,3 3.84,3.84 0 0 1 -2.88,1.21 H 51.35 V 10 Z m 0,6.81 a 2.31,2.31 0 0 0 1.77,-0.72 2.66,2.66 0 0 0 0.69,-1.9 2.59,2.59 0 0 0 -0.69,-1.88 2.29,2.29 0 0 0 -1.77,-0.73 H 53 v 5.23 z"
       id="path1073" />
  </g>
  <g
     id="EQ_bgs_copy"
     data-name="EQ bgs copy"
     transform="scale(1.3333333)">
    <rect
       style="fill:#121212"
       class="cls-6"
       x="53.049999"
       y="28.35"
       width="27.92"
       height="36.849998"
       rx="1.42"
       id="rect1076" />
  </g>
  <g
     id="labels"
     transform="scale(1.3333333)">
    <path
       style="fill:#cccccc"
       inkscape:connector-curvature="0"
       class="cls-5"
       d="m 16.51,31.52 h 0.94 v 4.9 h -0.94 z"
       id="path1079" />
    <path
       style="fill:#cccccc"
       inkscape:connector-curvature="0"
       class="cls-5"
       d="m 21.33,31.52 h 0.93 v 4.9 h -0.71 l -2,-3 v 3 h -0.94 v -4.9 h 0.71 l 2,3 z"
       id="path1081" />
    <path
       style="fill:#cccccc"
       inkscape:connector-curvature="0"
       class="cls-5"
       d="M 62.64,36.52 A 2.35,2.35 0 0 1 60.9,35.78 2.5,2.5 0 0 1 60.19,34 a 2.47,2.47 0 0 1 0.71,-1.81 2.43,2.43 0 0 1 3.49,0 2.47,2.47 0 0 1 0.71,1.81 2.5,2.5 0 0 1 -0.71,1.81 2.37,2.37 0 0 1 -1.75,0.71 z m 0,-1 a 1.43,1.43 0 0 0 1.09,-0.45 1.58,1.58 0 0 0 0.44,-1.07 1.61,1.61 0 0 0 -0.44,-1.16 1.55,1.55 0 0 0 -2.18,0 1.61,1.61 0 0 0 -0.44,1.16 1.58,1.58 0 0 0 0.44,1.15 1.43,1.43 0 0 0 1.09,0.42 z"
       id="path1083" />
    <path
       style="fill:#cccccc"
       inkscape:connector-curvature="0"
       class="cls-5"
       d="M 66.49,36.06 A 1.61,1.61 0 0 1 66,34.82 v -3.3 h 0.93 v 3.22 a 0.88,0.88 0 0 0 1.76,0 v -3.22 h 0.93 v 3.3 a 1.61,1.61 0 0 1 -0.51,1.24 2.07,2.07 0 0 1 -2.6,0 z"
       id="path1085" />
    <path
       style="fill:#cccccc"
       inkscape:connector-curvature="0"
       class="cls-5"
       d="m 73.83,31.52 v 0.92 h -1.27 v 4 h -0.94 v -4 h -1.27 v -0.92 z"
       id="path1087" />
  </g>
  <g
     id="Bus_Send_Pan_Return"
     data-name="Bus Send Pan Return"
     transform="scale(1.3333333)">
    <path
       style="fill:#ffffff"
       inkscape:connector-curvature="0"
       class="cls-7"
       d="m 19.32,78.69 a 1.52,1.52 0 0 1 -0.51,1.17 1.79,1.79 0 0 1 -1.24,0.45 H 15.2 v -5.6 h 2.21 a 1.73,1.73 0 0 1 1.2,0.45 1.46,1.46 0 0 1 0.5,1.13 1.37,1.37 0 0 1 -0.53,1.12 1.39,1.39 0 0 1 0.74,1.28 z m -3,-2.94 V 77 h 1.11 a 0.6,0.6 0 0 0 0.6,-0.62 0.59,0.59 0 0 0 -0.6,-0.61 z m 1.27,3.53 a 0.66,0.66 0 0 0 0,-1.32 H 16.3 v 1.32 z"
       id="path1090" />
    <path
       style="fill:#ffffff"
       inkscape:connector-curvature="0"
       class="cls-7"
       d="m 21,79.9 a 1.81,1.81 0 0 1 -0.6,-1.42 v -3.77 h 1.1 v 3.68 c 0,0.59 0.33,1 1,1 0.67,0 1,-0.36 1,-1 v -3.68 h 1.1 v 3.77 a 1.81,1.81 0 0 1 -0.6,1.42 2.54,2.54 0 0 1 -3.08,0 z"
       id="path1092" />
    <path
       style="fill:#ffffff"
       inkscape:connector-curvature="0"
       class="cls-7"
       d="m 25.74,79 0.94,-0.55 a 1.26,1.26 0 0 0 1.29,0.85 c 0.61,0 0.89,-0.24 0.89,-0.59 A 0.49,0.49 0 0 0 28.6,78.26 3.39,3.39 0 0 0 27.66,77.9 3.9,3.9 0 0 1 26.5,77.38 1.34,1.34 0 0 1 26,76.27 a 1.47,1.47 0 0 1 0.53,-1.21 1.94,1.94 0 0 1 1.31,-0.46 2.16,2.16 0 0 1 2,1.26 l -0.93,0.53 a 1.13,1.13 0 0 0 -1.07,-0.72 c -0.46,0 -0.74,0.24 -0.74,0.56 a 0.53,0.53 0 0 0 0.22,0.44 3.67,3.67 0 0 0 0.84,0.35 l 0.39,0.12 0.36,0.14 A 1.9,1.9 0 0 1 29.79,77.94 1.57,1.57 0 0 1 30,78.74 1.52,1.52 0 0 1 29.4,80 2.29,2.29 0 0 1 27.94,80.45 2.15,2.15 0 0 1 25.74,79 Z"
       id="path1094" />
    <path
       style="fill:#ffffff"
       inkscape:connector-curvature="0"
       class="cls-7"
       d="m 33.2,79 0.94,-0.55 a 1.26,1.26 0 0 0 1.29,0.85 c 0.62,0 0.9,-0.24 0.9,-0.59 A 0.48,0.48 0 0 0 36.06,78.26 3.26,3.26 0 0 0 35.12,77.9 4,4 0 0 1 34,77.42 1.37,1.37 0 0 1 33.47,76.27 1.48,1.48 0 0 1 34,75.06 a 1.93,1.93 0 0 1 1.3,-0.46 2.15,2.15 0 0 1 2,1.26 l -0.93,0.53 A 1.11,1.11 0 0 0 35.3,75.67 c -0.45,0 -0.73,0.24 -0.73,0.56 a 0.55,0.55 0 0 0 0.21,0.44 3.6,3.6 0 0 0 0.85,0.35 l 0.38,0.12 0.36,0.14 a 1.63,1.63 0 0 1 0.35,0.17 1.55,1.55 0 0 1 0.53,0.49 1.57,1.57 0 0 1 0.21,0.8 A 1.5,1.5 0 0 1 36.86,80 2.25,2.25 0 0 1 35.4,80.45 2.16,2.16 0 0 1 33.2,79 Z"
       id="path1096" />
    <path
       style="fill:#ffffff"
       inkscape:connector-curvature="0"
       class="cls-7"
       d="m 41.65,74.71 h 1 v 5.6 h -1 v -0.47 a 1.56,1.56 0 0 1 -1.3,0.58 1.83,1.83 0 0 1 -1.38,-0.6 2.15,2.15 0 0 1 -0.57,-1.51 2.09,2.09 0 0 1 0.6,-1.49 1.82,1.82 0 0 1 1.38,-0.62 1.54,1.54 0 0 1 1.3,0.59 z m -1.11,4.73 a 1,1 0 0 0 0.79,-0.31 1.14,1.14 0 0 0 0.32,-0.82 1.1,1.1 0 0 0 -0.32,-0.81 1.05,1.05 0 0 0 -0.79,-0.32 1.11,1.11 0 0 0 -0.8,0.32 1.13,1.13 0 0 0 -0.31,0.81 1.18,1.18 0 0 0 0.31,0.82 1.1,1.1 0 0 0 0.8,0.31 z"
       id="path1098" />
    <path
       style="fill:#ffffff"
       inkscape:connector-curvature="0"
       class="cls-7"
       d="m 48.56,74.71 a 1.9,1.9 0 0 1 1.36,0.55 1.9,1.9 0 0 1 0,2.67 1.89,1.89 0 0 1 -1.36,0.54 h -1 v 1.84 h -1.09 v -5.6 z m 0,2.73 a 0.81,0.81 0 0 0 0.81,-0.85 0.8,0.8 0 0 0 -0.81,-0.84 h -1 v 1.69 z"
       id="path1100" />
    <path
       style="fill:#ffffff"
       inkscape:connector-curvature="0"
       class="cls-7"
       d="m 54.76,76.64 a 1.67,1.67 0 0 1 0.43,1.22 v 2.45 h -1 V 78 A 0.74,0.74 0 0 0 53.4,77.18 c -0.54,0 -0.88,0.33 -0.88,1 v 2.16 h -1 v -4 h 1 v 0.45 a 1.32,1.32 0 0 1 1.19,-0.56 1.44,1.44 0 0 1 1.05,0.41 z"
       id="path1102" />
    <path
       style="fill:#ffffff"
       inkscape:connector-curvature="0"
       class="cls-7"
       d="M 62,80.31 60.87,78.37 H 60 v 1.94 h -1.1 v -5.6 h 2.24 A 1.86,1.86 0 0 1 63,76.57 1.82,1.82 0 0 1 61.92,78.2 l 1.24,2.11 z m -2,-4.56 v 1.65 h 1.14 a 0.81,0.81 0 0 0 0.76,-0.83 0.79,0.79 0 0 0 -0.76,-0.82 z"
       id="path1104" />
    <path
       style="fill:#ffffff"
       inkscape:connector-curvature="0"
       class="cls-7"
       d="m 66.38,77.3 h -0.9 V 79 c 0,0.43 0.31,0.44 0.9,0.41 v 0.93 C 64.97,80.5 64.45,80.09 64.45,79 v -1.7 h -0.7 v -1 h 0.7 v -0.8 l 1,-0.32 v 1.12 h 0.9 z"
       id="path1106" />
    <path
       style="fill:#ffffff"
       inkscape:connector-curvature="0"
       class="cls-7"
       d="m 70.88,76.64 a 1.67,1.67 0 0 1 0.43,1.22 v 2.45 h -1 V 78 a 0.74,0.74 0 0 0 -0.79,-0.82 c -0.54,0 -0.88,0.33 -0.88,1 v 2.16 h -1 v -4 h 1 v 0.45 a 1.32,1.32 0 0 1 1.19,-0.56 1.44,1.44 0 0 1 1.05,0.41 z"
       id="path1108" />
  </g>
  <g
     id="BUS_Sd_Pn_Rtn_No.s"
     data-name="BUS Sd Pn Rtn No.s"
     transform="scale(1.3333333)">
    <path
       style="fill:#cccccc"
       inkscape:connector-curvature="0"
       class="cls-5"
       d="m 3.86,94.47 0.7,-0.41 a 1.16,1.16 0 0 0 1.22,0.83 c 0.61,0 0.91,-0.26 0.91,-0.65 a 0.5,0.5 0 0 0 -0.25,-0.45 3.23,3.23 0 0 0 -0.87,-0.35 3.27,3.27 0 0 1 -1,-0.45 1.14,1.14 0 0 1 -0.47,-1 1.27,1.27 0 0 1 0.46,-1 1.66,1.66 0 0 1 1.11,-0.38 1.8,1.8 0 0 1 1.71,1.08 L 6.7,92.08 a 1,1 0 0 0 -1,-0.69 c -0.47,0 -0.77,0.24 -0.77,0.61 0,0.37 0.24,0.53 1,0.77 l 0.41,0.14 a 2,2 0 0 1 0.36,0.14 1.46,1.46 0 0 1 0.36,0.19 1.16,1.16 0 0 1 0.5,1 A 1.3,1.3 0 0 1 7,95.29 1.92,1.92 0 0 1 5.75,95.67 1.86,1.86 0 0 1 3.86,94.47 Z"
       id="path1111" />
    <path
       style="fill:#cccccc"
       inkscape:connector-curvature="0"
       class="cls-5"
       d="m 11.33,93.43 v 2.15 H 10.57 V 93.51 A 0.72,0.72 0 0 0 9.79,92.7 c -0.54,0 -0.89,0.33 -0.89,1 v 1.88 H 8.14 v -3.5 H 8.9 v 0.45 A 1.19,1.19 0 0 1 10,92 a 1.3,1.3 0 0 1 1.33,1.43 z"
       id="path1113" />
    <path
       style="fill:#cccccc"
       inkscape:connector-curvature="0"
       class="cls-5"
       d="m 14.91,90.68 h 0.76 v 4.9 h -0.76 v -0.5 a 1.4,1.4 0 0 1 -1.22,0.59 1.64,1.64 0 0 1 -1.24,-0.53 1.94,1.94 0 0 1 0,-2.62 1.64,1.64 0 0 1 1.24,-0.52 1.4,1.4 0 0 1 1.22,0.59 z M 13.81,95 A 1.08,1.08 0 0 0 14.6,94.69 1.12,1.12 0 0 0 14.91,93.88 1.09,1.09 0 0 0 14.6,93.08 1.15,1.15 0 0 0 13,93 1.09,1.09 0 0 0 12.69,93.8 1.12,1.12 0 0 0 13,94.61 1.09,1.09 0 0 0 13.81,95 Z"
       id="path1115" />
    <path
       style="fill:#cccccc"
       inkscape:connector-curvature="0"
       class="cls-5"
       d="m 11.26,103.58 -0.34,-1 H 8.83 l -0.34,1 H 7.61 l 1.78,-4.9 h 1 l 1.77,4.9 z M 9.1,101.84 h 1.55 L 9.88,99.62 Z"
       id="path1117" />
    <path
       style="fill:#cccccc"
       inkscape:connector-curvature="0"
       class="cls-5"
       d="m 70.11,94.47 0.69,-0.41 a 1.17,1.17 0 0 0 1.22,0.83 c 0.61,0 0.91,-0.26 0.91,-0.65 a 0.48,0.48 0 0 0 -0.25,-0.45 3.28,3.28 0 0 0 -0.86,-0.35 3.27,3.27 0 0 1 -1,-0.45 1.12,1.12 0 0 1 -0.48,-1 1.27,1.27 0 0 1 0.46,-1 1.67,1.67 0 0 1 1.12,-0.38 1.79,1.79 0 0 1 1.7,1.08 l -0.67,0.39 a 1.06,1.06 0 0 0 -1,-0.69 c -0.47,0 -0.77,0.24 -0.77,0.61 0,0.37 0.23,0.53 1,0.77 l 0.41,0.14 a 2,2 0 0 1 0.36,0.14 1.46,1.46 0 0 1 0.36,0.19 1.16,1.16 0 0 1 0.5,1 1.3,1.3 0 0 1 -0.48,1.06 1.89,1.89 0 0 1 -1.25,0.38 1.85,1.85 0 0 1 -1.97,-1.21 z"
       id="path1119" />
    <path
       style="fill:#cccccc"
       inkscape:connector-curvature="0"
       class="cls-5"
       d="m 77.57,93.43 v 2.15 H 76.81 V 93.51 A 0.72,0.72 0 0 0 76,92.7 c -0.53,0 -0.89,0.33 -0.89,1 v 1.88 h -0.76 v -3.5 h 0.76 v 0.45 a 1.2,1.2 0 0 1 1.12,-0.53 1.3,1.3 0 0 1 1.34,1.43 z"
       id="path1121" />
    <path
       style="fill:#cccccc"
       inkscape:connector-curvature="0"
       class="cls-5"
       d="m 81.15,90.68 h 0.76 v 4.9 h -0.76 v -0.5 a 1.39,1.39 0 0 1 -1.22,0.59 1.62,1.62 0 0 1 -1.23,-0.53 1.91,1.91 0 0 1 0,-2.62 1.62,1.62 0 0 1 1.23,-0.52 1.39,1.39 0 0 1 1.22,0.59 z M 80.05,95 a 1.08,1.08 0 0 0 0.79,-0.31 1.12,1.12 0 0 0 0.31,-0.81 1.09,1.09 0 0 0 -0.31,-0.8 1,1 0 0 0 -0.79,-0.32 1,1 0 0 0 -0.79,0.32 1.09,1.09 0 0 0 -0.32,0.8 1.13,1.13 0 0 0 0.32,0.81 1.06,1.06 0 0 0 0.79,0.31 z"
       id="path1123" />
    <path
       style="fill:#cccccc"
       inkscape:connector-curvature="0"
       class="cls-5"
       d="m 78,102.18 a 1.29,1.29 0 0 1 -0.43,1 1.44,1.44 0 0 1 -1,0.4 h -2.1 v -4.9 h 2 a 1.42,1.42 0 0 1 1,0.39 1.26,1.26 0 0 1 0.42,1 1.19,1.19 0 0 1 -0.5,1 1.24,1.24 0 0 1 0.61,1.11 z m -2.77,-2.74 v 1.28 h 1.15 a 0.64,0.64 0 0 0 0,-1.28 z m 1.3,3.39 a 0.69,0.69 0 0 0 0,-1.38 h -1.3 v 1.38 z"
       id="path1125" />
    <path
       style="fill:#cccccc"
       inkscape:connector-curvature="0"
       class="cls-5"
       d="m 3.86,125.28 0.7,-0.4 a 1.16,1.16 0 0 0 1.22,0.82 c 0.61,0 0.91,-0.26 0.91,-0.64 a 0.53,0.53 0 0 0 -0.25,-0.46 4.08,4.08 0 0 0 -0.87,-0.35 3.51,3.51 0 0 1 -1,-0.44 1.15,1.15 0 0 1 -0.47,-1 1.24,1.24 0 0 1 0.46,-1 1.67,1.67 0 0 1 1.11,-0.39 1.81,1.81 0 0 1 1.71,1.08 l -0.68,0.39 a 1,1 0 0 0 -1,-0.68 c -0.47,0 -0.77,0.24 -0.77,0.61 0,0.37 0.24,0.53 1,0.76 l 0.41,0.14 0.36,0.14 A 1.18,1.18 0 0 1 7,124 a 1.16,1.16 0 0 1 0.5,1 1.28,1.28 0 0 1 -0.48,1 1.93,1.93 0 0 1 -1.25,0.39 1.87,1.87 0 0 1 -1.91,-1.11 z"
       id="path1127" />
    <path
       style="fill:#cccccc"
       inkscape:connector-curvature="0"
       class="cls-5"
       d="m 11.33,124.25 v 2.15 h -0.76 v -2.08 a 0.73,0.73 0 0 0 -0.78,-0.81 c -0.54,0 -0.89,0.33 -0.89,1 v 1.88 H 8.14 v -3.5 H 8.9 v 0.44 a 1.21,1.21 0 0 1 1.1,-0.53 1.31,1.31 0 0 1 1.33,1.45 z"
       id="path1129" />
    <path
       style="fill:#cccccc"
       inkscape:connector-curvature="0"
       class="cls-5"
       d="m 14.91,121.49 h 0.76 v 4.91 h -0.76 v -0.51 a 1.41,1.41 0 0 1 -1.22,0.6 1.68,1.68 0 0 1 -1.24,-0.53 1.84,1.84 0 0 1 -0.51,-1.31 1.81,1.81 0 0 1 0.51,-1.31 1.65,1.65 0 0 1 1.24,-0.54 1.43,1.43 0 0 1 1.22,0.59 z m -1.1,4.28 a 1.09,1.09 0 0 0 0.79,-0.32 1.1,1.1 0 0 0 0.31,-0.8 1.07,1.07 0 0 0 -0.31,-0.8 1.15,1.15 0 0 0 -1.59,0 1.07,1.07 0 0 0 -0.31,0.8 1.08,1.08 0 0 0 1.11,1.12 z"
       id="path1131" />
    <path
       style="fill:#cccccc"
       inkscape:connector-curvature="0"
       class="cls-5"
       d="M 8.28,133.76 A 2.49,2.49 0 0 1 7.55,132 a 2.51,2.51 0 0 1 2.57,-2.55 2.41,2.41 0 0 1 2.1,1.17 l -0.7,0.41 a 1.56,1.56 0 0 0 -1.4,-0.79 1.73,1.73 0 0 0 -1.28,0.5 1.7,1.7 0 0 0 -0.48,1.26 1.74,1.74 0 0 0 0.48,1.26 1.72,1.72 0 0 0 1.28,0.49 1.54,1.54 0 0 0 1.4,-0.79 l 0.7,0.4 a 2.18,2.18 0 0 1 -0.87,0.86 2.48,2.48 0 0 1 -1.23,0.32 2.51,2.51 0 0 1 -1.84,-0.78 z"
       id="path1133" />
    <path
       style="fill:#cccccc"
       inkscape:connector-curvature="0"
       class="cls-5"
       d="m 70.11,125.28 0.69,-0.4 a 1.17,1.17 0 0 0 1.22,0.82 c 0.61,0 0.91,-0.26 0.91,-0.64 a 0.51,0.51 0 0 0 -0.25,-0.46 4.17,4.17 0 0 0 -0.86,-0.35 3.51,3.51 0 0 1 -1,-0.44 1.13,1.13 0 0 1 -0.48,-1 1.24,1.24 0 0 1 0.46,-1 1.68,1.68 0 0 1 1.12,-0.39 1.81,1.81 0 0 1 1.7,1.08 l -0.67,0.39 a 1.07,1.07 0 0 0 -1,-0.68 c -0.47,0 -0.77,0.24 -0.77,0.61 0,0.37 0.23,0.53 1,0.76 l 0.41,0.14 0.36,0.14 a 1.18,1.18 0 0 1 0.36,0.2 1.15,1.15 0 0 1 0.5,1 1.29,1.29 0 0 1 -0.48,1.06 1.89,1.89 0 0 1 -1.25,0.39 1.86,1.86 0 0 1 -1.97,-1.23 z"
       id="path1135" />
    <path
       style="fill:#cccccc"
       inkscape:connector-curvature="0"
       class="cls-5"
       d="m 77.57,124.25 v 2.15 h -0.76 v -2.08 a 0.73,0.73 0 0 0 -0.78,-0.81 c -0.53,0 -0.89,0.33 -0.89,1 v 1.88 h -0.76 v -3.51 h 0.76 v 0.45 a 1.22,1.22 0 0 1 1.09,-0.54 1.31,1.31 0 0 1 1.34,1.46 z"
       id="path1137" />
    <path
       style="fill:#cccccc"
       inkscape:connector-curvature="0"
       class="cls-5"
       d="m 81.15,121.49 h 0.76 v 4.91 h -0.76 v -0.51 a 1.4,1.4 0 0 1 -1.22,0.6 1.66,1.66 0 0 1 -1.23,-0.49 1.81,1.81 0 0 1 -0.52,-1.31 1.78,1.78 0 0 1 0.52,-1.31 1.63,1.63 0 0 1 1.23,-0.54 1.42,1.42 0 0 1 1.22,0.59 z m -1.1,4.28 a 1.09,1.09 0 0 0 0.79,-0.32 1.1,1.1 0 0 0 0.31,-0.8 1.07,1.07 0 0 0 -0.31,-0.8 1.06,1.06 0 0 0 -0.79,-0.33 1,1 0 0 0 -0.79,0.33 1.08,1.08 0 0 0 -0.32,0.8 1.11,1.11 0 0 0 0.32,0.8 1.07,1.07 0 0 0 0.79,0.32 z"
       id="path1139" />
    <path
       style="fill:#cccccc"
       inkscape:connector-curvature="0"
       class="cls-5"
       d="m 76,129.49 a 2.2,2.2 0 0 1 1.67,0.71 2.42,2.42 0 0 1 0.67,1.75 2.45,2.45 0 0 1 -0.67,1.74 2.2,2.2 0 0 1 -1.67,0.71 h -1.9 v -4.91 z m 0,4.14 a 1.46,1.46 0 0 0 1.12,-0.48 1.84,1.84 0 0 0 0,-2.41 1.46,1.46 0 0 0 -1.12,-0.48 h -1.09 v 3.37 z"
       id="path1141" />
    <path
       style="fill:#cccccc"
       inkscape:connector-curvature="0"
       class="cls-5"
       d="m 6,152.31 a 1.61,1.61 0 1 1 0,3.22 H 5 v 1.68 H 4.21 v -4.9 z m 0,2.46 a 0.85,0.85 0 0 0 0,-1.7 H 5 v 1.7 z"
       id="path1143" />
    <path
       style="fill:#cccccc"
       inkscape:connector-curvature="0"
       class="cls-5"
       d="m 10.82,153.71 h 0.76 v 3.5 h -0.76 v -0.5 a 1.39,1.39 0 0 1 -1.22,0.59 1.62,1.62 0 0 1 -1.23,-0.53 1.91,1.91 0 0 1 0,-2.62 1.62,1.62 0 0 1 1.23,-0.53 1.39,1.39 0 0 1 1.22,0.59 z m -1.1,2.87 a 1.08,1.08 0 0 0 0.79,-0.31 1.12,1.12 0 0 0 0.31,-0.81 1.09,1.09 0 0 0 -0.31,-0.8 1,1 0 0 0 -0.79,-0.32 1,1 0 0 0 -0.79,0.32 1.09,1.09 0 0 0 -0.32,0.8 1.13,1.13 0 0 0 0.32,0.81 1.06,1.06 0 0 0 0.79,0.31 z"
       id="path1145" />
    <path
       style="fill:#cccccc"
       inkscape:connector-curvature="0"
       class="cls-5"
       d="m 15.65,155.06 v 2.15 h -0.76 v -2.07 a 0.72,0.72 0 0 0 -0.78,-0.81 c -0.54,0 -0.89,0.33 -0.89,1 v 1.88 h -0.76 v -3.5 h 0.76 v 0.45 a 1.19,1.19 0 0 1 1.08,-0.54 1.3,1.3 0 0 1 1.35,1.44 z"
       id="path1147" />
    <path
       style="fill:#cccccc"
       inkscape:connector-curvature="0"
       class="cls-5"
       d="m 11.26,165.21 -0.34,-1 H 8.83 l -0.34,1 H 7.61 l 1.78,-4.9 h 1 l 1.77,4.9 z M 9.1,163.47 h 1.55 l -0.77,-2.22 z"
       id="path1149" />
    <path
       style="fill:#cccccc"
       inkscape:connector-curvature="0"
       class="cls-5"
       d="m 72.26,152.31 a 1.59,1.59 0 0 1 1.63,1.61 1.58,1.58 0 0 1 -0.47,1.15 1.56,1.56 0 0 1 -1.16,0.46 h -1 v 1.68 h -0.8 v -4.9 z m 0,2.46 a 0.85,0.85 0 0 0 0,-1.7 h -1 v 1.7 z"
       id="path1151" />
    <path
       style="fill:#cccccc"
       inkscape:connector-curvature="0"
       class="cls-5"
       d="m 77.07,153.71 h 0.75 v 3.5 h -0.75 v -0.5 a 1.42,1.42 0 0 1 -1.23,0.59 1.62,1.62 0 0 1 -1.23,-0.53 1.94,1.94 0 0 1 0,-2.62 1.62,1.62 0 0 1 1.23,-0.53 1.42,1.42 0 0 1 1.23,0.59 z M 76,156.58 a 1.06,1.06 0 0 0 0.79,-0.31 1.13,1.13 0 0 0 0.32,-0.81 1.09,1.09 0 0 0 -0.32,-0.8 1.14,1.14 0 0 0 -1.58,0 1.09,1.09 0 0 0 -0.32,0.8 1.13,1.13 0 0 0 0.32,0.81 1.06,1.06 0 0 0 0.79,0.31 z"
       id="path1153" />
    <path
       style="fill:#cccccc"
       inkscape:connector-curvature="0"
       class="cls-5"
       d="m 81.89,155.06 v 2.15 h -0.76 v -2.07 a 0.72,0.72 0 0 0 -0.78,-0.81 c -0.53,0 -0.89,0.33 -0.89,1 v 1.88 H 78.7 v -3.5 h 0.76 v 0.45 a 1.19,1.19 0 0 1 1.08,-0.54 1.3,1.3 0 0 1 1.35,1.44 z"
       id="path1155" />
    <path
       style="fill:#cccccc"
       inkscape:connector-curvature="0"
       class="cls-5"
       d="m 78,163.81 a 1.29,1.29 0 0 1 -0.43,1 1.44,1.44 0 0 1 -1,0.4 h -2.1 v -4.9 h 2 a 1.42,1.42 0 0 1 1,0.39 1.26,1.26 0 0 1 0.42,1 1.19,1.19 0 0 1 -0.5,1 1.24,1.24 0 0 1 0.61,1.11 z m -2.77,-2.74 v 1.28 h 1.15 a 0.64,0.64 0 0 0 0,-1.28 z m 1.3,3.39 a 0.69,0.69 0 0 0 0,-1.38 h -1.3 v 1.38 z"
       id="path1157" />
    <path
       style="fill:#cccccc"
       inkscape:connector-curvature="0"
       class="cls-5"
       d="m 6,183.12 a 1.58,1.58 0 0 1 1.16,0.47 1.63,1.63 0 0 1 0,2.29 A 1.58,1.58 0 0 1 6,186.35 H 5 V 188 H 4.21 v -4.91 z m 0,2.47 a 0.86,0.86 0 0 0 0,-1.71 H 5 v 1.71 z"
       id="path1159" />
    <path
       style="fill:#cccccc"
       inkscape:connector-curvature="0"
       class="cls-5"
       d="m 10.82,184.53 h 0.76 V 188 h -0.76 v -0.51 a 1.4,1.4 0 0 1 -1.22,0.6 1.66,1.66 0 0 1 -1.23,-0.53 1.81,1.81 0 0 1 -0.52,-1.31 1.78,1.78 0 0 1 0.52,-1.25 1.63,1.63 0 0 1 1.23,-0.54 1.42,1.42 0 0 1 1.22,0.59 z m -1.1,2.87 a 1.09,1.09 0 0 0 0.79,-0.32 1.1,1.1 0 0 0 0.31,-0.8 1.07,1.07 0 0 0 -0.31,-0.8 1,1 0 0 0 -0.79,-0.32 1,1 0 0 0 -0.79,0.32 1.08,1.08 0 0 0 -0.32,0.8 1.11,1.11 0 0 0 0.32,0.8 1.07,1.07 0 0 0 0.79,0.32 z"
       id="path1161" />
    <path
       style="fill:#cccccc"
       inkscape:connector-curvature="0"
       class="cls-5"
       d="M 15.65,185.88 V 188 h -0.76 v -2 a 0.73,0.73 0 0 0 -0.78,-0.81 c -0.54,0 -0.89,0.33 -0.89,1 V 188 h -0.76 v -3.5 h 0.76 v 0.5 a 1.21,1.21 0 0 1 1.08,-0.54 1.31,1.31 0 0 1 1.35,1.42 z"
       id="path1163" />
    <path
       style="fill:#cccccc"
       inkscape:connector-curvature="0"
       class="cls-5"
       d="m 8.28,195.39 a 2.49,2.49 0 0 1 -0.73,-1.81 2.51,2.51 0 0 1 2.57,-2.58 2.41,2.41 0 0 1 2.1,1.17 l -0.7,0.41 a 1.56,1.56 0 0 0 -1.4,-0.79 1.73,1.73 0 0 0 -1.28,0.5 1.7,1.7 0 0 0 -0.48,1.26 1.74,1.74 0 0 0 0.48,1.26 1.72,1.72 0 0 0 1.28,0.49 1.54,1.54 0 0 0 1.4,-0.79 l 0.7,0.4 a 2.18,2.18 0 0 1 -0.87,0.86 2.48,2.48 0 0 1 -1.23,0.32 2.51,2.51 0 0 1 -1.84,-0.7 z"
       id="path1165" />
    <path
       style="fill:#cccccc"
       inkscape:connector-curvature="0"
       class="cls-5"
       d="m 72.26,183.12 a 1.57,1.57 0 0 1 1.16,0.47 1.54,1.54 0 0 1 0.47,1.14 1.61,1.61 0 0 1 -1.63,1.62 h -1 V 188 h -0.8 v -4.91 z m 0,2.47 a 0.86,0.86 0 0 0 0,-1.71 h -1 v 1.71 z"
       id="path1167" />
    <path
       style="fill:#cccccc"
       inkscape:connector-curvature="0"
       class="cls-5"
       d="m 77.07,184.52 h 0.75 V 188 h -0.75 v -0.51 a 1.43,1.43 0 0 1 -1.23,0.6 1.63,1.63 0 0 1 -1.23,-0.54 1.92,1.92 0 0 1 0,-2.61 1.63,1.63 0 0 1 1.23,-0.54 1.45,1.45 0 0 1 1.23,0.59 z M 76,187.4 a 1.07,1.07 0 0 0 0.79,-0.32 1.11,1.11 0 0 0 0.32,-0.8 1.08,1.08 0 0 0 -0.32,-0.8 1.14,1.14 0 0 0 -1.58,0 1.08,1.08 0 0 0 -0.32,0.8 1.11,1.11 0 0 0 0.32,0.8 1.07,1.07 0 0 0 0.79,0.32 z"
       id="path1169" />
    <path
       style="fill:#cccccc"
       inkscape:connector-curvature="0"
       class="cls-5"
       d="M 81.89,185.88 V 188 h -0.76 v -2 a 0.73,0.73 0 0 0 -0.78,-0.81 c -0.53,0 -0.89,0.33 -0.89,1 V 188 H 78.7 v -3.51 h 0.76 V 185 a 1.21,1.21 0 0 1 1.08,-0.54 1.31,1.31 0 0 1 1.35,1.42 z"
       id="path1171" />
    <path
       style="fill:#cccccc"
       inkscape:connector-curvature="0"
       class="cls-5"
       d="m 76,191.12 a 2.2,2.2 0 0 1 1.67,0.71 2.42,2.42 0 0 1 0.67,1.75 2.45,2.45 0 0 1 -0.67,1.74 A 2.2,2.2 0 0 1 76,196 h -1.9 v -4.91 z m 0,4.14 a 1.46,1.46 0 0 0 1.12,-0.48 1.84,1.84 0 0 0 0,-2.41 1.46,1.46 0 0 0 -1.12,-0.48 h -1.09 v 3.37 z"
       id="path1173" />
    <path
       style="fill:#cccccc"
       inkscape:connector-curvature="0"
       class="cls-5"
       d="m 7.71,218.84 -1,-1.78 h -1 v 1.78 h -0.8 v -4.9 h 2 a 1.57,1.57 0 0 1 1.57,1.57 1.54,1.54 0 0 1 -1,1.43 l 1.11,1.9 z m -2,-4.14 v 1.63 h 1.17 a 0.82,0.82 0 0 0 0,-1.63 z"
       id="path1175" />
    <path
       style="fill:#cccccc"
       inkscape:connector-curvature="0"
       class="cls-5"
       d="m 11,216.07 h -0.87 v 1.68 c 0,0.45 0.3,0.44 0.87,0.41 v 0.68 c -1.15,0.14 -1.62,-0.17 -1.62,-1.09 v -1.68 H 8.77 v -0.73 h 0.65 v -0.76 l 0.75,-0.22 v 1 H 11 Z"
       id="path1177" />
    <path
       style="fill:#cccccc"
       inkscape:connector-curvature="0"
       class="cls-5"
       d="m 15,216.69 v 2.15 h -0.76 v -2.07 a 0.72,0.72 0 0 0 -0.78,-0.81 c -0.54,0 -0.89,0.33 -0.89,1 v 1.88 h -0.76 v -3.5 h 0.76 v 0.45 a 1.19,1.19 0 0 1 1.08,-0.54 1.3,1.3 0 0 1 1.35,1.44 z"
       id="path1179" />
    <path
       style="fill:#cccccc"
       inkscape:connector-curvature="0"
       class="cls-5"
       d="m 11.26,226.84 -0.34,-1 H 8.83 l -0.34,1 H 7.61 l 1.78,-4.9 h 1 l 1.77,4.9 z M 9.1,225.1 h 1.55 l -0.77,-2.22 z"
       id="path1181" />
    <path
       style="fill:#cccccc"
       inkscape:connector-curvature="0"
       class="cls-5"
       d="m 74,218.84 -1,-1.79 h -1 v 1.79 h -0.8 v -4.9 h 2 a 1.57,1.57 0 0 1 1.57,1.57 1.54,1.54 0 0 1 -1,1.43 l 1.11,1.9 z m -2,-4.14 v 1.63 h 1.16 a 0.82,0.82 0 0 0 0,-1.63 z"
       id="path1183" />
    <path
       style="fill:#cccccc"
       inkscape:connector-curvature="0"
       class="cls-5"
       d="m 77.28,216.07 h -0.86 v 1.68 c 0,0.45 0.29,0.44 0.86,0.41 v 0.68 c -1.15,0.14 -1.62,-0.17 -1.62,-1.09 v -1.68 H 75 v -0.73 h 0.65 v -0.76 l 0.76,-0.22 v 1 h 0.86 z"
       id="path1185" />
    <path
       style="fill:#cccccc"
       inkscape:connector-curvature="0"
       class="cls-5"
       d="m 81.19,216.69 v 2.15 h -0.76 v -2.07 a 0.72,0.72 0 0 0 -0.78,-0.81 c -0.53,0 -0.89,0.33 -0.89,1 v 1.88 H 78 v -3.5 h 0.76 v 0.45 a 1.19,1.19 0 0 1 1.08,-0.54 1.3,1.3 0 0 1 1.35,1.44 z"
       id="path1187" />
    <path
       style="fill:#cccccc"
       inkscape:connector-curvature="0"
       class="cls-5"
       d="m 78,225.44 a 1.29,1.29 0 0 1 -0.43,1 1.44,1.44 0 0 1 -1,0.4 h -2.1 v -4.9 h 2 a 1.42,1.42 0 0 1 1,0.39 1.26,1.26 0 0 1 0.42,1 1.19,1.19 0 0 1 -0.5,1 1.24,1.24 0 0 1 0.61,1.11 z m -2.77,-2.74 v 1.3 h 1.15 a 0.64,0.64 0 0 0 0,-1.28 z m 1.3,3.38 a 0.69,0.69 0 0 0 0,-1.37 h -1.3 v 1.37 z"
       id="path1189" />
    <path
       style="fill:#cccccc"
       inkscape:connector-curvature="0"
       class="cls-5"
       d="m 7.71,249.66 -1,-1.79 h -1 v 1.79 h -0.8 v -4.91 h 2 a 1.59,1.59 0 0 1 1.57,1.58 1.54,1.54 0 0 1 -1,1.42 l 1.11,1.91 z m -2,-4.15 v 1.64 h 1.17 a 0.82,0.82 0 0 0 0,-1.64 z"
       id="path1191" />
    <path
       style="fill:#cccccc"
       inkscape:connector-curvature="0"
       class="cls-5"
       d="m 11,246.88 h -0.87 v 1.68 c 0,0.45 0.3,0.45 0.87,0.42 v 0.68 c -1.15,0.14 -1.62,-0.18 -1.62,-1.1 v -1.68 H 8.77 v -0.72 h 0.65 v -0.76 l 0.75,-0.23 v 1 H 11 Z"
       id="path1193" />
    <path
       style="fill:#cccccc"
       inkscape:connector-curvature="0"
       class="cls-5"
       d="m 15,247.51 v 2.15 h -0.76 v -2.08 a 0.73,0.73 0 0 0 -0.78,-0.81 c -0.54,0 -0.89,0.33 -0.89,1 v 1.88 h -0.76 v -3.5 h 0.76 v 0.44 a 1.21,1.21 0 0 1 1.08,-0.54 1.31,1.31 0 0 1 1.35,1.46 z"
       id="path1195" />
    <path
       style="fill:#cccccc"
       inkscape:connector-curvature="0"
       class="cls-5"
       d="m 8.28,257 a 2.49,2.49 0 0 1 -0.73,-1.81 2.51,2.51 0 0 1 2.57,-2.55 2.41,2.41 0 0 1 2.1,1.17 l -0.7,0.41 a 1.56,1.56 0 0 0 -1.4,-0.79 1.73,1.73 0 0 0 -1.28,0.5 1.7,1.7 0 0 0 -0.48,1.26 1.74,1.74 0 0 0 0.48,1.26 1.72,1.72 0 0 0 1.28,0.49 1.54,1.54 0 0 0 1.4,-0.79 l 0.7,0.4 a 2.18,2.18 0 0 1 -0.87,0.86 2.48,2.48 0 0 1 -1.23,0.32 A 2.51,2.51 0 0 1 8.28,257 Z"
       id="path1197" />
    <path
       style="fill:#cccccc"
       inkscape:connector-curvature="0"
       class="cls-5"
       d="m 74,249.66 -1,-1.79 h -1 v 1.79 h -0.8 v -4.91 h 2 a 1.59,1.59 0 0 1 1.57,1.58 1.54,1.54 0 0 1 -1,1.42 l 1.11,1.91 z m -2,-4.15 v 1.64 h 1.16 a 0.82,0.82 0 0 0 0,-1.64 z"
       id="path1199" />
    <path
       style="fill:#cccccc"
       inkscape:connector-curvature="0"
       class="cls-5"
       d="m 77.28,246.88 h -0.86 v 1.68 c 0,0.45 0.29,0.45 0.86,0.42 v 0.68 c -1.15,0.14 -1.62,-0.18 -1.62,-1.1 v -1.68 H 75 v -0.72 h 0.65 v -0.76 l 0.76,-0.23 v 1 h 0.86 z"
       id="path1201" />
    <path
       style="fill:#cccccc"
       inkscape:connector-curvature="0"
       class="cls-5"
       d="m 81.19,247.51 v 2.15 h -0.76 v -2.08 a 0.73,0.73 0 0 0 -0.78,-0.81 c -0.53,0 -0.89,0.33 -0.89,1 v 1.88 H 78 v -3.5 h 0.76 v 0.44 a 1.21,1.21 0 0 1 1.08,-0.54 1.31,1.31 0 0 1 1.35,1.46 z"
       id="path1203" />
    <path
       style="fill:#cccccc"
       inkscape:connector-curvature="0"
       class="cls-5"
       d="m 76,252.75 a 2.2,2.2 0 0 1 1.67,0.71 2.42,2.42 0 0 1 0.67,1.75 2.45,2.45 0 0 1 -0.64,1.79 2.2,2.2 0 0 1 -1.67,0.71 H 74.1 v -4.91 z m 0,4.14 a 1.42,1.42 0 0 0 1.12,-0.48 1.84,1.84 0 0 0 0,-2.41 1.46,1.46 0 0 0 -1.12,-0.48 h -1.09 v 3.37 z"
       id="path1205" />
    <path
       style="fill:#cccccc"
       inkscape:connector-curvature="0"
       class="cls-5"
       d="M 7.16,279.7 H 8 v 4.9 H 7.33 L 5,281.27 v 3.33 H 4.2 v -4.9 h 0.63 l 2.33,3.3 z"
       id="path1207" />
    <path
       style="fill:#cccccc"
       inkscape:connector-curvature="0"
       class="cls-5"
       d="M 9.08,285.3 H 8.7 l 2.8,-6.3 h 0.38 z"
       id="path1209" />
    <path
       style="fill:#cccccc"
       inkscape:connector-curvature="0"
       class="cls-5"
       d="m 15.11,284.6 -0.34,-1 h -2.09 l -0.34,1 h -0.88 l 1.78,-4.9 h 1 L 16,284.6 Z M 13,282.86 h 1.5 l -0.78,-2.22 z"
       id="path1211" />
    <path
       style="fill:#cccccc"
       inkscape:connector-curvature="0"
       class="cls-5"
       d="m 73.4,279.7 h 0.81 v 4.9 h -0.63 l -2.31,-3.33 v 3.33 h -0.81 v -4.9 h 0.63 l 2.31,3.3 z"
       id="path1213" />
    <path
       style="fill:#cccccc"
       inkscape:connector-curvature="0"
       class="cls-5"
       d="m 75.33,285.3 h -0.39 l 2.8,-6.3 h 0.39 z"
       id="path1215" />
    <path
       style="fill:#cccccc"
       inkscape:connector-curvature="0"
       class="cls-5"
       d="m 81.35,284.6 -0.34,-1 h -2.09 l -0.34,1 h -0.87 l 1.77,-4.9 h 1 l 1.77,4.9 z m -2.16,-1.74 h 1.55 L 80,280.64 Z"
       id="path1217" />
    <path
       style="fill:#cccccc"
       inkscape:connector-curvature="0"
       class="cls-5"
       d="M 7.16,310.38 H 8 v 4.91 H 7.33 L 5,312 v 3.33 H 4.2 v -4.91 h 0.63 l 2.31,3.33 z"
       id="path1219" />
    <path
       style="fill:#cccccc"
       inkscape:connector-curvature="0"
       class="cls-5"
       d="M 9.08,316 H 8.7 l 2.8,-6.31 h 0.38 z"
       id="path1221" />
    <path
       style="fill:#cccccc"
       inkscape:connector-curvature="0"
       class="cls-5"
       d="m 15.11,315.29 -0.34,-1 h -2.09 l -0.34,1 h -0.88 l 1.78,-4.91 h 1 L 16,315.29 Z M 13,313.54 h 1.5 l -0.78,-2.21 z"
       id="path1223" />
    <path
       style="fill:#cccccc"
       inkscape:connector-curvature="0"
       class="cls-5"
       d="m 73.4,310.38 h 0.81 v 4.91 H 73.58 L 71.27,312 v 3.33 h -0.81 v -4.91 h 0.63 l 2.31,3.33 z"
       id="path1225" />
    <path
       style="fill:#cccccc"
       inkscape:connector-curvature="0"
       class="cls-5"
       d="m 75.33,316 h -0.39 l 2.8,-6.31 h 0.39 z"
       id="path1227" />
    <path
       style="fill:#cccccc"
       inkscape:connector-curvature="0"
       class="cls-5"
       d="m 81.35,315.29 -0.34,-1 h -2.09 l -0.34,1 h -0.87 l 1.77,-4.91 h 1 l 1.77,4.91 z m -2.16,-1.75 h 1.55 L 80,311.33 Z"
       id="path1229" />
  </g>
</svg>
