<?xml version="1.0" encoding="UTF-8" standalone="no"?>
<svg
   xmlns:dc="http://purl.org/dc/elements/1.1/"
   xmlns:cc="http://creativecommons.org/ns#"
   xmlns:rdf="http://www.w3.org/1999/02/22-rdf-syntax-ns#"
   xmlns:svg="http://www.w3.org/2000/svg"
   xmlns="http://www.w3.org/2000/svg"
   xmlns:sodipodi="http://sodipodi.sourceforge.net/DTD/sodipodi-0.dtd"
   xmlns:inkscape="http://www.inkscape.org/namespaces/inkscape"
   inkscape:version="0.92.2 (5c3e80d, 2017-08-06)"
   height="128.5mm"
   width="30.48mm"
   sodipodi:docname="M_S-Grp-Mstr.svg"
   id="svg1984"
   version="1.1"
   viewBox="0 0 115.2 485.66928">
  <metadata
     id="metadata1988">
    <rdf:RDF>
      <cc:Work
         rdf:about="">
        <dc:format>image/svg+xml</dc:format>
        <dc:type
           rdf:resource="http://purl.org/dc/dcmitype/StillImage" />
        <dc:title />
      </cc:Work>
    </rdf:RDF>
  </metadata>
  <sodipodi:namedview
     inkscape:current-layer="svg1984"
     inkscape:window-maximized="0"
     inkscape:window-y="23"
     inkscape:window-x="0"
     inkscape:cy="203.99036"
     inkscape:cx="-43.817796"
     inkscape:zoom="1.9593693"
     units="mm"
     inkscape:document-units="mm"
     showgrid="false"
     id="namedview1986"
     inkscape:window-height="768"
     inkscape:window-width="1366"
     inkscape:pageshadow="2"
     inkscape:pageopacity="0"
     guidetolerance="10"
     gridtolerance="10"
     objecttolerance="10"
     borderopacity="1"
     bordercolor="#666666"
     pagecolor="#ffffff" />
  <defs
     id="defs1825">
    <style
       id="style1818">.cls-1{fill:#353535;}.cls-2{fill:url(#linear-gradient);}.cls-3{fill:gray;}.cls-4{fill:#b3b3b3;}.cls-5{fill:#ccc;}.cls-6{fill:#121212;}.cls-7{fill:#fff;}</style>
    <linearGradient
       gradientUnits="userSpaceOnUse"
       y2="349.56"
       x2="40.939999"
       y1="349.56"
       x1="21.09"
       id="linear-gradient">
      <stop
         id="stop1820"
         stop-color="#3fa9f5"
         offset="0" />
      <stop
         id="stop1822"
         stop-color="#ed1e79"
         offset="1" />
    </linearGradient>
  </defs>
  <g
     id="Layer_2-2"
     data-name="Layer 2"
     transform="scale(1.3333333)">
    <g
       id="background">
      <path
         style="fill:#353535"
         inkscape:connector-curvature="0"
         id="rect4155"
         class="cls-1"
         d="M 0,0 H 86.4 V 364.25 H 0 Z" />
    </g>
  </g>
  <g
     id="branding"
     transform="scale(1.3333333)">
    <path
       inkscape:connector-curvature="0"
       class="cls-2"
       d="m 21.6,355.74 a 0.47,0.47 0 0 1 -0.25,-0.07 0.51,0.51 0 0 1 -0.2,-0.7 l 6.27,-11.32 a 0.52,0.52 0 0 1 1,0.25 v 9.33 l 5.31,-9.58 a 0.51,0.51 0 0 1 0.58,-0.25 0.52,0.52 0 0 1 0.38,0.5 v 9.33 L 40,343.65 a 0.51,0.51 0 0 1 0.58,-0.25 0.51,0.51 0 0 1 0.39,0.5 v 11.32 a 0.52,0.52 0 0 1 -0.52,0.52 0.51,0.51 0 0 1 -0.51,-0.52 v -9.33 l -5.31,9.58 a 0.52,0.52 0 0 1 -1,-0.25 v -9.33 l -5.31,9.58 a 0.51,0.51 0 0 1 -0.58,0.25 0.52,0.52 0 0 1 -0.38,-0.5 v -9.33 l -5.31,9.58 a 0.51,0.51 0 0 1 -0.45,0.27 z"
       id="path1830"
       style="fill:url(#linear-gradient)" />
    <path
       style="fill:#808080"
       inkscape:connector-curvature="0"
       class="cls-3"
       d="m 43.43,343.9 a 0.5,0.5 0 0 1 0.5,-0.5 H 44 a 0.54,0.54 0 0 1 0.47,0.26 l 1.71,2.68 1.72,-2.69 a 0.51,0.51 0 0 1 0.46,-0.25 h 0.1 a 0.5,0.5 0 0 1 0.51,0.5 v 4.72 a 0.49,0.49 0 0 1 -0.51,0.49 0.5,0.5 0 0 1 -0.49,-0.49 v -3.39 l -1.38,2.08 a 0.47,0.47 0 0 1 -0.84,0 l -1.37,-2.06 v 3.38 a 0.48,0.48 0 0 1 -0.5,0.48 0.47,0.47 0 0 1 -0.48,-0.48 z"
       id="path1832" />
    <path
       style="fill:#b3b3b3"
       inkscape:connector-curvature="0"
       class="cls-4"
       d="m 48.49,343.4 h -0.1 a 0.51,0.51 0 0 0 -0.46,0.25 l -1.72,2.69 -1.71,-2.68 a 0.54,0.54 0 0 0 -0.47,-0.26 h -0.1 a 0.5,0.5 0 0 0 -0.5,0.5 v 4.73 a 0.47,0.47 0 0 0 0.48,0.48 0.48,0.48 0 0 0 0.5,-0.48 v -3.38 l 1.37,2.06 a 0.47,0.47 0 0 0 0.84,0 L 48,345.23 v 3.39 a 0.5,0.5 0 0 0 0.49,0.49 0.49,0.49 0 0 0 0.51,-0.49 v -4.72 a 0.5,0.5 0 0 0 -0.51,-0.5 z"
       id="path1834" />
    <path
       style="fill:#808080"
       inkscape:connector-curvature="0"
       class="cls-3"
       d="m 50.11,343.88 a 0.5,0.5 0 0 1 1,0 v 4.74 a 0.5,0.5 0 0 1 -1,0 z"
       id="path1836" />
    <path
       style="fill:#b3b3b3"
       inkscape:connector-curvature="0"
       class="cls-4"
       d="m 50.61,343.39 a 0.49,0.49 0 0 0 -0.5,0.49 v 4.74 a 0.5,0.5 0 0 0 1,0 v -4.74 a 0.49,0.49 0 0 0 -0.49,-0.49 z"
       id="path1838" />
    <path
       style="fill:#808080"
       inkscape:connector-curvature="0"
       class="cls-3"
       d="m 52.21,343.9 a 0.5,0.5 0 0 1 0.5,-0.5 h 0.11 a 0.64,0.64 0 0 1 0.52,0.29 l 2.83,3.65 v -3.47 a 0.5,0.5 0 0 1 1,0 v 4.74 a 0.49,0.49 0 0 1 -0.49,0.5 v 0 a 0.66,0.66 0 0 1 -0.52,-0.3 l -2.91,-3.76 v 3.58 a 0.5,0.5 0 0 1 -1,0 z"
       id="path1840" />
    <path
       style="fill:#b3b3b3"
       inkscape:connector-curvature="0"
       class="cls-4"
       d="m 56.65,343.39 a 0.49,0.49 0 0 0 -0.48,0.48 v 3.47 l -2.83,-3.65 a 0.64,0.64 0 0 0 -0.52,-0.29 h -0.11 a 0.5,0.5 0 0 0 -0.5,0.5 v 4.73 a 0.5,0.5 0 0 0 1,0 v -3.58 l 2.91,3.76 a 0.66,0.66 0 0 0 0.52,0.3 v 0 a 0.49,0.49 0 0 0 0.49,-0.5 v -4.74 a 0.49,0.49 0 0 0 -0.5,-0.48 z"
       id="path1842" />
    <path
       style="fill:#808080"
       inkscape:connector-curvature="0"
       class="cls-3"
       d="m 58.2,343.93 a 0.5,0.5 0 0 1 0.51,-0.5 h 1.61 a 2.82,2.82 0 0 1 3,2.8 v 0 a 2.83,2.83 0 0 1 -3,2.82 h -1.61 a 0.49,0.49 0 0 1 -0.51,-0.5 z m 2.12,4.24 a 1.84,1.84 0 0 0 2,-1.9 v 0 a 1.85,1.85 0 0 0 -2,-1.92 H 59.2 v 3.84 z"
       id="path1844" />
    <path
       style="fill:#b3b3b3"
       inkscape:connector-curvature="0"
       class="cls-4"
       d="m 60.32,343.43 h -1.61 a 0.5,0.5 0 0 0 -0.51,0.5 v 4.64 a 0.49,0.49 0 0 0 0.51,0.5 h 1.61 a 2.83,2.83 0 0 0 3,-2.82 v 0 a 2.82,2.82 0 0 0 -3,-2.8 z m -1.12,4.74 v -3.84 h 1.12 a 1.85,1.85 0 0 1 2,1.92 v 0 a 1.84,1.84 0 0 1 -2,1.9 z"
       id="path1846" />
    <path
       style="fill:#808080"
       inkscape:connector-curvature="0"
       class="cls-3"
       d="m 43.43,350.51 a 0.5,0.5 0 0 1 0.5,-0.5 H 44 a 0.54,0.54 0 0 1 0.47,0.26 l 1.74,2.73 1.72,-2.68 a 0.52,0.52 0 0 1 0.46,-0.26 h 0.1 a 0.5,0.5 0 0 1 0.51,0.5 v 4.72 a 0.5,0.5 0 0 1 -0.51,0.5 0.51,0.51 0 0 1 -0.49,-0.5 v -3.38 l -1.38,2.07 a 0.47,0.47 0 0 1 -0.84,0 l -1.37,-2.06 v 3.38 a 0.49,0.49 0 0 1 -0.5,0.49 0.48,0.48 0 0 1 -0.48,-0.49 z"
       id="path1848" />
    <path
       style="fill:#b3b3b3"
       inkscape:connector-curvature="0"
       class="cls-4"
       d="m 48.49,350 h -0.1 a 0.52,0.52 0 0 0 -0.46,0.26 L 46.21,353 44.5,350.32 A 0.54,0.54 0 0 0 44,350 h -0.1 a 0.5,0.5 0 0 0 -0.5,0.5 v 4.73 a 0.48,0.48 0 0 0 0.48,0.49 0.49,0.49 0 0 0 0.5,-0.49 v -3.38 l 1.37,2.06 a 0.47,0.47 0 0 0 0.84,0 L 48,351.85 v 3.38 a 0.51,0.51 0 0 0 0.49,0.5 0.5,0.5 0 0 0 0.51,-0.5 v -4.72 a 0.5,0.5 0 0 0 -0.51,-0.5 z"
       id="path1850" />
    <path
       style="fill:#808080"
       inkscape:connector-curvature="0"
       class="cls-3"
       d="m 50.05,355.19 v -4.65 a 0.5,0.5 0 0 1 0.5,-0.5 h 3.3 a 0.45,0.45 0 0 1 0,0.89 h -2.8 v 1.46 h 2.43 a 0.46,0.46 0 0 1 0.45,0.46 0.44,0.44 0 0 1 -0.45,0.43 h -2.43 v 1.52 h 2.84 a 0.45,0.45 0 0 1 0,0.89 h -3.34 a 0.5,0.5 0 0 1 -0.5,-0.5 z"
       id="path1852" />
    <path
       style="fill:#b3b3b3"
       inkscape:connector-curvature="0"
       class="cls-4"
       d="m 53.85,350 h -3.3 a 0.5,0.5 0 0 0 -0.5,0.5 v 4.65 a 0.5,0.5 0 0 0 0.5,0.5 h 3.34 a 0.45,0.45 0 0 0 0,-0.89 h -2.84 v -1.52 h 2.43 a 0.44,0.44 0 0 0 0.45,-0.43 0.46,0.46 0 0 0 -0.45,-0.46 h -2.43 v -1.46 h 2.8 a 0.45,0.45 0 0 0 0,-0.89 z"
       id="path1854" />
    <path
       style="fill:#808080"
       inkscape:connector-curvature="0"
       class="cls-3"
       d="m 55.07,350.49 a 0.5,0.5 0 0 1 1,0 v 4.29 h 2.56 a 0.45,0.45 0 0 1 0.45,0.45 0.46,0.46 0 0 1 -0.45,0.46 h -3.06 a 0.5,0.5 0 0 1 -0.5,-0.5 z"
       id="path1856" />
    <path
       style="fill:#b3b3b3"
       inkscape:connector-curvature="0"
       class="cls-4"
       d="m 55.57,350 a 0.49,0.49 0 0 0 -0.5,0.49 v 4.7 a 0.5,0.5 0 0 0 0.5,0.5 h 3.06 a 0.46,0.46 0 0 0 0.45,-0.46 0.45,0.45 0 0 0 -0.45,-0.45 h -2.56 v -4.29 A 0.49,0.49 0 0 0 55.57,350 Z"
       id="path1858" />
    <path
       style="fill:#808080"
       inkscape:connector-curvature="0"
       class="cls-3"
       d="m 59.68,350.54 a 0.5,0.5 0 0 1 0.5,-0.5 h 1.61 a 2.82,2.82 0 0 1 3,2.81 v 0 a 2.84,2.84 0 0 1 -3,2.83 h -1.61 a 0.5,0.5 0 0 1 -0.5,-0.5 z m 2.11,4.24 a 1.85,1.85 0 0 0 2,-1.9 v 0 a 1.86,1.86 0 0 0 -2,-1.92 h -1.12 v 3.84 z"
       id="path1860" />
    <path
       style="fill:#b3b3b3"
       inkscape:connector-curvature="0"
       class="cls-4"
       d="m 61.79,350 h -1.61 a 0.5,0.5 0 0 0 -0.5,0.5 v 4.65 a 0.5,0.5 0 0 0 0.5,0.5 h 1.61 a 2.84,2.84 0 0 0 3,-2.83 v 0 a 2.82,2.82 0 0 0 -3,-2.81 z m -1.12,4.74 v -3.84 h 1.12 a 1.86,1.86 0 0 1 2,1.92 v 0 a 1.85,1.85 0 0 1 -2,1.9 z"
       id="path1862" />
    <path
       style="fill:#cccccc"
       inkscape:connector-curvature="0"
       class="cls-5"
       d="m 35.58,10 v 8.39 h -1.64 v -5.46 l -2.36,3.89 h -0.2 L 29,12.94 v 5.43 H 27.37 V 10 h 1.7 l 2.41,4 2.4,-4 z"
       id="path1864" />
    <path
       style="fill:#cccccc"
       inkscape:connector-curvature="0"
       class="cls-5"
       d="M 39.48,16.79 H 43 v 1.58 H 37.83 V 10 H 43 v 1.58 h -3.52 v 1.79 h 3.18 v 1.53 h -3.18 z"
       id="path1866" />
    <path
       style="fill:#cccccc"
       inkscape:connector-curvature="0"
       class="cls-5"
       d="m 46.53,16.79 h 3.2 v 1.58 H 44.87 V 10 h 1.66 z"
       id="path1868" />
    <path
       style="fill:#cccccc"
       inkscape:connector-curvature="0"
       class="cls-5"
       d="m 54.69,10 a 3.81,3.81 0 0 1 2.88,1.21 4.1,4.1 0 0 1 1.16,3 4.11,4.11 0 0 1 -1.16,3 3.84,3.84 0 0 1 -2.88,1.21 H 51.35 V 10 Z m 0,6.81 a 2.31,2.31 0 0 0 1.77,-0.72 2.66,2.66 0 0 0 0.69,-1.9 2.59,2.59 0 0 0 -0.69,-1.88 2.29,2.29 0 0 0 -1.77,-0.73 H 53 v 5.23 z"
       id="path1870" />
  </g>
  <g
     id="EQ_bgs_copy"
     data-name="EQ bgs copy"
     transform="scale(1.3333333)">
    <rect
       style="fill:#121212"
       class="cls-6"
       x="53.049999"
       y="28.35"
       width="27.92"
       height="36.849998"
       rx="1.42"
       id="rect1873" />
  </g>
  <g
     id="labels"
     transform="scale(1.3333333)">
    <path
       style="fill:#cccccc"
       inkscape:connector-curvature="0"
       class="cls-5"
       d="m 16.51,31.52 h 0.94 v 4.9 h -0.94 z"
       id="path1876" />
    <path
       style="fill:#cccccc"
       inkscape:connector-curvature="0"
       class="cls-5"
       d="m 21.33,31.52 h 0.93 v 4.9 h -0.71 l -2,-3 v 3 h -0.94 v -4.9 h 0.71 l 2,3 z"
       id="path1878" />
    <path
       style="fill:#cccccc"
       inkscape:connector-curvature="0"
       class="cls-5"
       d="M 62.64,36.52 A 2.35,2.35 0 0 1 60.9,35.78 2.5,2.5 0 0 1 60.19,34 a 2.47,2.47 0 0 1 0.71,-1.81 2.43,2.43 0 0 1 3.49,0 2.47,2.47 0 0 1 0.71,1.81 2.5,2.5 0 0 1 -0.71,1.81 2.37,2.37 0 0 1 -1.75,0.71 z m 0,-1 a 1.43,1.43 0 0 0 1.09,-0.45 1.58,1.58 0 0 0 0.44,-1.07 1.61,1.61 0 0 0 -0.44,-1.16 1.55,1.55 0 0 0 -2.18,0 1.61,1.61 0 0 0 -0.44,1.16 1.58,1.58 0 0 0 0.44,1.15 1.43,1.43 0 0 0 1.09,0.42 z"
       id="path1880" />
    <path
       style="fill:#cccccc"
       inkscape:connector-curvature="0"
       class="cls-5"
       d="M 66.49,36.06 A 1.61,1.61 0 0 1 66,34.82 v -3.3 h 0.93 v 3.22 a 0.88,0.88 0 0 0 1.76,0 v -3.22 h 0.93 v 3.3 a 1.61,1.61 0 0 1 -0.51,1.24 2.07,2.07 0 0 1 -2.6,0 z"
       id="path1882" />
    <path
       style="fill:#cccccc"
       inkscape:connector-curvature="0"
       class="cls-5"
       d="m 73.83,31.52 v 0.92 h -1.27 v 4 h -0.94 v -4 h -1.27 v -0.92 z"
       id="path1884" />
  </g>
  <g
     id="M_S_Grp_Mstr"
     data-name="M/S Grp Mstr"
     transform="scale(1.3333333)">
    <path
       style="fill:#ffffff"
       inkscape:connector-curvature="0"
       class="cls-7"
       d="m 22.24,74.71 v 5.6 h -1.09 v -3.63 l -1.58,2.6 h -0.13 l -1.57,-2.59 v 3.62 h -1.11 v -5.6 h 1.14 l 1.61,2.65 1.6,-2.65 z"
       id="path1887" />
    <path
       style="fill:#ffffff"
       inkscape:connector-curvature="0"
       class="cls-7"
       d="m 23.88,81.11 h -0.45 l 3.2,-7.2 h 0.45 z"
       id="path1889" />
    <path
       style="fill:#ffffff"
       inkscape:connector-curvature="0"
       class="cls-7"
       d="m 28,79 0.94,-0.55 a 1.26,1.26 0 0 0 1.29,0.85 c 0.62,0 0.9,-0.24 0.9,-0.59 a 0.48,0.48 0 0 0 -0.27,-0.45 3.26,3.26 0 0 0 -0.94,-0.36 4,4 0 0 1 -1.16,-0.52 1.37,1.37 0 0 1 -0.53,-1.15 1.48,1.48 0 0 1 0.54,-1.21 1.93,1.93 0 0 1 1.3,-0.46 2.15,2.15 0 0 1 2,1.26 l -0.93,0.53 a 1.11,1.11 0 0 0 -1.07,-0.72 c -0.45,0 -0.73,0.24 -0.73,0.56 a 0.55,0.55 0 0 0 0.21,0.44 3.6,3.6 0 0 0 0.85,0.35 l 0.38,0.12 0.36,0.14 a 1.63,1.63 0 0 1 0.35,0.17 1.55,1.55 0 0 1 0.53,0.49 1.57,1.57 0 0 1 0.21,0.8 A 1.5,1.5 0 0 1 31.64,80 2.25,2.25 0 0 1 30.18,80.45 2.16,2.16 0 0 1 28,79 Z"
       id="path1891" />
    <path
       style="fill:#ffffff"
       inkscape:connector-curvature="0"
       class="cls-7"
       d="m 41.23,77.3 v 0.44 a 2.59,2.59 0 0 1 -0.77,1.94 2.73,2.73 0 0 1 -2,0.74 3,3 0 0 1 -2.15,-0.84 2.81,2.81 0 0 1 -0.84,-2.06 2.85,2.85 0 0 1 0.84,-2.07 3,3 0 0 1 4.53,0.46 l -0.94,0.54 a 1.73,1.73 0 0 0 -1.51,-0.78 1.87,1.87 0 0 0 -1.31,3.16 1.88,1.88 0 0 0 1.39,0.51 1.55,1.55 0 0 0 1.63,-1.06 h -1.68 v -1 z"
       id="path1893" />
    <path
       style="fill:#ffffff"
       inkscape:connector-curvature="0"
       class="cls-7"
       d="m 43.4,77 a 1.22,1.22 0 0 1 1.21,-0.77 v 1.15 a 1.21,1.21 0 0 0 -0.85,0.2 0.92,0.92 0 0 0 -0.36,0.82 v 1.91 h -1 v -4 h 1 z"
       id="path1895" />
    <path
       style="fill:#ffffff"
       inkscape:connector-curvature="0"
       class="cls-7"
       d="m 49.31,76.82 a 2.05,2.05 0 0 1 0.58,1.49 2.11,2.11 0 0 1 -0.58,1.51 1.81,1.81 0 0 1 -1.37,0.6 1.56,1.56 0 0 1 -1.3,-0.58 v 2.07 h -1 v -5.6 h 1 v 0.48 a 1.54,1.54 0 0 1 1.3,-0.59 1.8,1.8 0 0 1 1.37,0.62 z m -1.56,2.62 a 1.06,1.06 0 0 0 0.79,-0.31 1.14,1.14 0 0 0 0.32,-0.82 1.1,1.1 0 0 0 -0.32,-0.81 1.07,1.07 0 0 0 -0.79,-0.32 1.05,1.05 0 0 0 -0.79,0.32 1.1,1.1 0 0 0 -0.32,0.81 1.14,1.14 0 0 0 0.32,0.82 1,1 0 0 0 0.79,0.31 z"
       id="path1897" />
    <path
       style="fill:#ffffff"
       inkscape:connector-curvature="0"
       class="cls-7"
       d="m 58.94,74.71 v 5.6 h -1.09 v -3.63 l -1.58,2.6 h -0.12 l -1.58,-2.59 v 3.62 h -1.1 v -5.6 h 1.13 l 1.61,2.65 1.6,-2.65 z"
       id="path1899" />
    <path
       style="fill:#ffffff"
       inkscape:connector-curvature="0"
       class="cls-7"
       d="m 62,77.89 c 0.58,0.12 1.34,0.4 1.33,1.25 a 1.12,1.12 0 0 1 -0.46,1 2,2 0 0 1 -1.14,0.32 1.67,1.67 0 0 1 -1.68,-1 L 61,79 a 0.75,0.75 0 0 0 0.79,0.52 c 0.36,0 0.55,-0.11 0.55,-0.35 0,-0.24 -0.32,-0.33 -0.73,-0.44 -0.59,-0.15 -1.33,-0.4 -1.33,-1.23 a 1.12,1.12 0 0 1 0.43,-0.93 1.82,1.82 0 0 1 2.6,0.51 l -0.88,0.48 a 0.65,0.65 0 0 0 -0.64,-0.41 c -0.26,0 -0.46,0.13 -0.46,0.33 0,0.2 0.28,0.3 0.67,0.41 z"
       id="path1901" />
    <path
       style="fill:#ffffff"
       inkscape:connector-curvature="0"
       class="cls-7"
       d="M 66.59,77.3 H 65.68 V 79 c 0,0.43 0.32,0.44 0.91,0.41 v 0.93 C 65.17,80.5 64.65,80.09 64.65,79 V 77.3 H 64 v -1 h 0.69 v -0.8 l 1,-0.32 v 1.12 h 0.91 z"
       id="path1903" />
    <path
       style="fill:#ffffff"
       inkscape:connector-curvature="0"
       class="cls-7"
       d="M 68.81,77 A 1.23,1.23 0 0 1 70,76.23 v 1.15 a 1.19,1.19 0 0 0 -0.85,0.2 0.9,0.9 0 0 0 -0.37,0.82 v 1.91 h -1 v -4 h 1 z"
       id="path1905" />
  </g>
  <g
     id="M1_-_N_A"
     data-name="M1 - N/A"
     transform="scale(1.3333333)">
    <path
       style="fill:#cccccc"
       inkscape:connector-curvature="0"
       class="cls-5"
       d="m 11.85,95.48 v 4.9 h -0.8 V 96.89 L 9.56,99.35 H 9.46 L 8,96.88 v 3.5 H 7.16 v -4.9 H 8 L 9.48,97.93 11,95.48 Z"
       id="path1908" />
    <path
       style="fill:#cccccc"
       inkscape:connector-curvature="0"
       class="cls-5"
       d="m 13.72,95.48 h 0.7 v 4.9 h -0.81 v -4 l -1,0.28 -0.2,-0.69 z"
       id="path1910" />
    <path
       style="fill:#cccccc"
       inkscape:connector-curvature="0"
       class="cls-5"
       d="m 76.5,95.48 v 4.9 h -0.81 v -3.49 l -1.49,2.46 h -0.1 l -1.49,-2.47 v 3.5 H 71.8 v -4.9 h 0.87 l 1.48,2.45 1.48,-2.45 z"
       id="path1912" />
    <path
       style="fill:#cccccc"
       inkscape:connector-curvature="0"
       class="cls-5"
       d="M 77.2,100.38 V 99.75 L 78.91,98 a 1.75,1.75 0 0 0 0.62,-1.08 0.71,0.71 0 0 0 -0.75,-0.76 1,1 0 0 0 -0.91,0.61 l -0.68,-0.4 a 1.68,1.68 0 0 1 1.58,-1 1.63,1.63 0 0 1 1.11,0.4 1.44,1.44 0 0 1 0.46,1.11 2.4,2.4 0 0 1 -0.84,1.6 l -1.1,1.1 h 2 v 0.78 z"
       id="path1914" />
    <path
       style="fill:#cccccc"
       inkscape:connector-curvature="0"
       class="cls-5"
       d="m 11.25,126.3 v 4.9 h -0.8 v -3.49 L 9,130.17 H 8.9 L 7.37,127.7 v 3.5 H 6.56 v -4.9 h 0.87 l 1.48,2.45 1.48,-2.45 z"
       id="path1916" />
    <path
       style="fill:#cccccc"
       inkscape:connector-curvature="0"
       class="cls-5"
       d="m 14.08,128.3 a 1.44,1.44 0 0 1 1.2,1.42 1.46,1.46 0 0 1 -0.5,1.16 1.82,1.82 0 0 1 -1.22,0.41 1.65,1.65 0 0 1 -1.64,-1 l 0.68,-0.4 a 0.91,0.91 0 0 0 1,0.63 c 0.56,0 0.91,-0.31 0.91,-0.79 0,-0.48 -0.35,-0.78 -0.91,-0.78 h -0.18 l -0.32,-0.49 1,-1.39 h -2 v -0.76 h 3 V 127 Z"
       id="path1918" />
    <path
       style="fill:#cccccc"
       inkscape:connector-curvature="0"
       class="cls-5"
       d="m 76.5,126.3 v 4.9 h -0.81 v -3.49 l -1.49,2.46 h -0.1 l -1.49,-2.47 v 3.5 H 71.8 v -4.9 h 0.87 l 1.48,2.45 1.48,-2.45 z"
       id="path1920" />
    <path
       style="fill:#cccccc"
       inkscape:connector-curvature="0"
       class="cls-5"
       d="m 80.93,129.57 v 0.75 h -0.56 v 0.88 h -0.82 v -0.88 h -2.41 v -0.75 l 1.69,-3.27 h 0.88 L 78,129.57 h 1.53 v -1.27 h 0.82 v 1.27 z"
       id="path1922" />
    <path
       style="fill:#cccccc"
       inkscape:connector-curvature="0"
       class="cls-5"
       d="m 7.7,161.23 0.69,-0.41 a 1.18,1.18 0 0 0 1.22,0.83 c 0.61,0 0.91,-0.26 0.91,-0.64 a 0.51,0.51 0 0 0 -0.24,-0.46 4.32,4.32 0 0 0 -0.87,-0.35 3.27,3.27 0 0 1 -1,-0.45 1.13,1.13 0 0 1 -0.48,-1 1.24,1.24 0 0 1 0.47,-1 1.65,1.65 0 0 1 1.11,-0.39 1.83,1.83 0 0 1 1.71,1.08 l -0.68,0.39 a 1.07,1.07 0 0 0 -1,-0.69 c -0.47,0 -0.77,0.24 -0.77,0.61 0,0.37 0.24,0.54 1,0.77 a 3.3,3.3 0 0 1 0.4,0.14 l 0.37,0.14 a 1.46,1.46 0 0 1 0.36,0.19 1.22,1.22 0 0 1 0.5,1 1.3,1.3 0 0 1 -0.48,1.06 1.93,1.93 0 0 1 -1.26,0.38 1.86,1.86 0 0 1 -1.96,-1.2 z"
       id="path1924" />
    <path
       style="fill:#cccccc"
       inkscape:connector-curvature="0"
       class="cls-5"
       d="m 12.92,157.44 h 0.7 v 4.9 h -0.81 v -4 l -1,0.28 -0.19,-0.68 z"
       id="path1926" />
    <path
       style="fill:#cccccc"
       inkscape:connector-curvature="0"
       class="cls-5"
       d="m 71.34,161.23 0.7,-0.41 a 1.16,1.16 0 0 0 1.22,0.83 c 0.61,0 0.91,-0.26 0.91,-0.64 a 0.52,0.52 0 0 0 -0.25,-0.46 4.08,4.08 0 0 0 -0.87,-0.35 3.27,3.27 0 0 1 -1,-0.45 1.13,1.13 0 0 1 -0.47,-1 1.24,1.24 0 0 1 0.46,-1 1.67,1.67 0 0 1 1.11,-0.39 1.81,1.81 0 0 1 1.71,1.08 l -0.68,0.39 a 1.06,1.06 0 0 0 -1,-0.69 c -0.47,0 -0.77,0.24 -0.77,0.61 0,0.37 0.24,0.54 1,0.77 l 0.41,0.14 a 3.14,3.14 0 0 1 0.36,0.14 1.46,1.46 0 0 1 0.36,0.19 1.17,1.17 0 0 1 0.5,1 1.3,1.3 0 0 1 -0.48,1.06 1.93,1.93 0 0 1 -1.26,0.38 1.86,1.86 0 0 1 -1.96,-1.2 z"
       id="path1928" />
    <path
       style="fill:#cccccc"
       inkscape:connector-curvature="0"
       class="cls-5"
       d="m 75.4,162.34 v -0.63 L 77.11,160 a 1.72,1.72 0 0 0 0.62,-1.08 0.71,0.71 0 0 0 -0.76,-0.76 1,1 0 0 0 -0.91,0.61 l -0.68,-0.4 a 1.7,1.7 0 0 1 1.59,-1 1.58,1.58 0 0 1 1.1,0.41 1.37,1.37 0 0 1 0.46,1.1 2.42,2.42 0 0 1 -0.83,1.6 l -1.11,1.11 h 2 v 0.77 z"
       id="path1930" />
    <path
       style="fill:#cccccc"
       inkscape:connector-curvature="0"
       class="cls-5"
       d="m 7.3,191.87 0.69,-0.41 a 1.18,1.18 0 0 0 1.22,0.83 c 0.61,0 0.91,-0.26 0.91,-0.65 a 0.5,0.5 0 0 0 -0.24,-0.45 3.38,3.38 0 0 0 -0.87,-0.35 3.27,3.27 0 0 1 -1,-0.45 1.14,1.14 0 0 1 -0.48,-1 1.26,1.26 0 0 1 0.47,-1 1.65,1.65 0 0 1 1.08,-0.39 1.82,1.82 0 0 1 1.71,1.08 l -0.68,0.39 a 1.05,1.05 0 0 0 -1,-0.69 c -0.47,0 -0.77,0.24 -0.77,0.61 0,0.37 0.24,0.53 1,0.77 a 3.3,3.3 0 0 1 0.4,0.14 2.32,2.32 0 0 1 0.37,0.14 1.21,1.21 0 0 1 0.35,0.19 1.19,1.19 0 0 1 0.51,1 1.3,1.3 0 0 1 -0.48,1.06 1.93,1.93 0 0 1 -1.26,0.38 1.86,1.86 0 0 1 -1.93,-1.2 z"
       id="path1932" />
    <path
       style="fill:#cccccc"
       inkscape:connector-curvature="0"
       class="cls-5"
       d="m 13.48,190.08 a 1.44,1.44 0 0 1 1.19,1.42 1.42,1.42 0 0 1 -0.49,1.15 1.83,1.83 0 0 1 -1.22,0.42 1.68,1.68 0 0 1 -1.65,-1 l 0.69,-0.4 a 0.91,0.91 0 0 0 1,0.63 c 0.56,0 0.91,-0.31 0.91,-0.79 0,-0.48 -0.35,-0.79 -0.91,-0.79 h -0.18 l -0.33,-0.48 1.06,-1.39 h -2 v -0.76 h 3 v 0.69 z"
       id="path1934" />
    <path
       style="fill:#cccccc"
       inkscape:connector-curvature="0"
       class="cls-5"
       d="m 71.34,191.87 0.7,-0.41 a 1.16,1.16 0 0 0 1.22,0.83 c 0.61,0 0.91,-0.26 0.91,-0.65 a 0.5,0.5 0 0 0 -0.25,-0.45 3.23,3.23 0 0 0 -0.87,-0.35 3.27,3.27 0 0 1 -1,-0.45 1.14,1.14 0 0 1 -0.47,-1 1.26,1.26 0 0 1 0.46,-1 1.66,1.66 0 0 1 1.11,-0.38 1.8,1.8 0 0 1 1.71,1.08 l -0.68,0.39 a 1,1 0 0 0 -1,-0.69 c -0.47,0 -0.77,0.24 -0.77,0.61 0,0.37 0.24,0.53 1,0.77 l 0.41,0.14 a 2,2 0 0 1 0.36,0.14 1.46,1.46 0 0 1 0.36,0.19 1.16,1.16 0 0 1 0.5,1 1.3,1.3 0 0 1 -0.48,1.06 1.93,1.93 0 0 1 -1.26,0.38 1.86,1.86 0 0 1 -1.96,-1.21 z"
       id="path1936" />
    <path
       style="fill:#cccccc"
       inkscape:connector-curvature="0"
       class="cls-5"
       d="m 79.19,191.35 v 0.75 h -0.56 v 0.9 h -0.81 v -0.88 h -2.41 v -0.75 L 77.1,188.1 H 78 l -1.68,3.27 h 1.53 v -1.27 h 0.81 v 1.27 z"
       id="path1938" />
    <path
       style="fill:#cccccc"
       inkscape:connector-curvature="0"
       class="cls-5"
       d="m 10.05,218.19 v 4.91 h -0.8 v -3.5 l -1.49,2.47 h -0.1 l -1.49,-2.48 v 3.51 H 5.36 v -4.91 h 0.87 l 1.48,2.45 1.48,-2.45 z"
       id="path1940" />
    <path
       style="fill:#cccccc"
       inkscape:connector-curvature="0"
       class="cls-5"
       d="m 15.72,218.19 v 4.91 h -0.8 v -3.5 l -1.49,2.47 h -0.1 l -1.49,-2.48 v 3.51 H 11 v -4.91 h 0.87 l 1.48,2.45 1.48,-2.45 z"
       id="path1942" />
    <path
       style="fill:#cccccc"
       inkscape:connector-curvature="0"
       class="cls-5"
       d="m 72.93,218.19 a 2.2,2.2 0 0 1 1.67,0.71 2.42,2.42 0 0 1 0.68,1.74 2.46,2.46 0 0 1 -0.68,1.75 2.2,2.2 0 0 1 -1.67,0.71 H 71 v -4.91 z m 0,4.14 a 1.49,1.49 0 0 0 1.13,-0.48 1.73,1.73 0 0 0 0.44,-1.21 1.69,1.69 0 0 0 -0.44,-1.2 1.46,1.46 0 0 0 -1.13,-0.48 h -1.12 v 3.37 z"
       id="path1944" />
    <path
       style="fill:#cccccc"
       inkscape:connector-curvature="0"
       class="cls-5"
       d="m 76,218.19 h 0.8 v 4.91 H 76 Z"
       id="path1946" />
    <path
       style="fill:#cccccc"
       inkscape:connector-curvature="0"
       class="cls-5"
       d="m 82.49,218.19 v 4.91 h -0.81 v -3.5 l -1.49,2.47 h -0.1 l -1.49,-2.48 v 3.51 h -0.81 v -4.91 h 0.87 l 1.48,2.45 1.48,-2.45 z"
       id="path1948" />
    <path
       style="fill:#cccccc"
       inkscape:connector-curvature="0"
       class="cls-5"
       d="m 10.05,248.86 v 4.9 h -0.8 v -3.49 l -1.49,2.46 h -0.1 l -1.49,-2.47 v 3.5 H 5.36 v -4.9 h 0.87 l 1.48,2.45 1.48,-2.45 z"
       id="path1950" />
    <path
       style="fill:#cccccc"
       inkscape:connector-curvature="0"
       class="cls-5"
       d="m 13.33,253.85 a 2.49,2.49 0 0 1 -2.54,-2.54 2.51,2.51 0 0 1 2.54,-2.54 2.41,2.41 0 0 1 1.8,0.74 2.45,2.45 0 0 1 0.74,1.8 2.49,2.49 0 0 1 -0.74,1.81 2.44,2.44 0 0 1 -1.8,0.73 z m 0,-0.78 a 1.67,1.67 0 0 0 1.23,-0.5 1.7,1.7 0 0 0 0.5,-1.26 1.74,1.74 0 0 0 -3,-1.25 1.69,1.69 0 0 0 -0.5,1.25 1.74,1.74 0 0 0 0.5,1.26 1.7,1.7 0 0 0 1.27,0.5 z"
       id="path1952" />
    <path
       style="fill:#cccccc"
       inkscape:connector-curvature="0"
       class="cls-5"
       d="m 75.9,248.86 v 4.9 h -0.81 v -3.49 l -1.49,2.46 H 73.5 L 72,250.26 v 3.5 h -0.8 v -4.9 h 0.87 l 1.48,2.45 1.45,-2.45 z"
       id="path1954" />
    <path
       style="fill:#cccccc"
       inkscape:connector-curvature="0"
       class="cls-5"
       d="m 78.12,253.76 -1.7,-4.9 h 0.88 l 1.3,3.93 1.31,-3.93 h 0.88 l -1.7,4.9 z"
       id="path1956" />
    <path
       style="fill:#cccccc"
       inkscape:connector-curvature="0"
       class="cls-5"
       d="m 6.9,279.61 h 0.81 v 4.91 H 7.08 l -2.31,-3.33 v 3.33 H 4 v -4.91 h 0.63 l 2.31,3.33 z"
       id="path1958" />
    <path
       style="fill:#cccccc"
       inkscape:connector-curvature="0"
       class="cls-5"
       d="M 8.83,285.22 H 8.44 l 2.8,-6.31 h 0.39 z"
       id="path1960" />
    <path
       style="fill:#cccccc"
       inkscape:connector-curvature="0"
       class="cls-5"
       d="m 15,284.52 -0.34,-1 H 12.6 l -0.34,1 h -0.88 l 1.78,-4.91 h 1 l 1.77,4.91 z m -2.16,-1.75 h 1.55 l -0.78,-2.21 z"
       id="path1962" />
    <path
       style="fill:#cccccc"
       inkscape:connector-curvature="0"
       class="cls-5"
       d="M 74.14,279.61 H 75 v 4.91 H 74.37 L 72,281.19 v 3.33 h -0.8 v -4.91 h 0.63 l 2.31,3.33 z"
       id="path1964" />
    <path
       style="fill:#cccccc"
       inkscape:connector-curvature="0"
       class="cls-5"
       d="m 76.07,285.22 h -0.39 l 2.8,-6.31 h 0.39 z"
       id="path1966" />
    <path
       style="fill:#cccccc"
       inkscape:connector-curvature="0"
       class="cls-5"
       d="m 82.27,284.52 -0.34,-1 h -2.09 l -0.34,1 h -0.88 l 1.78,-4.91 h 1 l 1.77,4.91 z m -2.16,-1.75 h 1.55 l -0.78,-2.21 z"
       id="path1968" />
    <path
       style="fill:#cccccc"
       inkscape:connector-curvature="0"
       class="cls-5"
       d="m 7.1,310.51 h 0.81 v 4.91 H 7.28 L 5,312.09 v 3.33 H 4.16 v -4.91 h 0.63 l 2.31,3.33 z"
       id="path1970" />
    <path
       style="fill:#cccccc"
       inkscape:connector-curvature="0"
       class="cls-5"
       d="M 9,316.12 H 8.64 l 2.8,-6.31 h 0.39 z"
       id="path1972" />
    <path
       style="fill:#cccccc"
       inkscape:connector-curvature="0"
       class="cls-5"
       d="m 15.23,315.42 -0.34,-1 H 12.8 l -0.34,1 h -0.88 l 1.78,-4.91 h 1 l 1.77,4.91 z m -2.17,-1.75 h 1.56 l -0.78,-2.21 z"
       id="path1974" />
    <path
       style="fill:#cccccc"
       inkscape:connector-curvature="0"
       class="cls-5"
       d="m 74.34,310.51 h 0.81 v 4.91 h -0.63 l -2.31,-3.33 v 3.33 H 71.4 v -4.91 H 72 l 2.31,3.33 z"
       id="path1976" />
    <path
       style="fill:#cccccc"
       inkscape:connector-curvature="0"
       class="cls-5"
       d="m 76.27,316.12 h -0.39 l 2.8,-6.31 h 0.39 z"
       id="path1978" />
    <path
       style="fill:#cccccc"
       inkscape:connector-curvature="0"
       class="cls-5"
       d="m 82.47,315.42 -0.34,-1 H 80 l -0.34,1 h -0.88 l 1.78,-4.91 h 1 l 1.77,4.91 z m -2.16,-1.75 h 1.55 l -0.78,-2.21 z"
       id="path1980" />
  </g>
</svg>
