<?xml version="1.0" encoding="UTF-8" standalone="no"?>
<svg
   xmlns:dc="http://purl.org/dc/elements/1.1/"
   xmlns:cc="http://creativecommons.org/ns#"
   xmlns:rdf="http://www.w3.org/1999/02/22-rdf-syntax-ns#"
   xmlns:svg="http://www.w3.org/2000/svg"
   xmlns="http://www.w3.org/2000/svg"
   xmlns:sodipodi="http://sodipodi.sourceforge.net/DTD/sodipodi-0.dtd"
   xmlns:inkscape="http://www.inkscape.org/namespaces/inkscape"
   inkscape:version="0.92.2 (5c3e80d, 2017-08-06)"
   height="128.5mm"
   width="30.48mm"
   sodipodi:docname="Mute-Grps.svg"
   id="svg2753"
   version="1.1"
   viewBox="0 0 115.2 485.66929">
  <metadata
     id="metadata2757">
    <rdf:RDF>
      <cc:Work
         rdf:about="">
        <dc:format>image/svg+xml</dc:format>
        <dc:type
           rdf:resource="http://purl.org/dc/dcmitype/StillImage" />
        <dc:title />
      </cc:Work>
    </rdf:RDF>
  </metadata>
  <sodipodi:namedview
     inkscape:current-layer="svg2753"
     inkscape:window-maximized="0"
     inkscape:window-y="23"
     inkscape:window-x="0"
     inkscape:cy="182.125"
     inkscape:cx="-50.033352"
     inkscape:zoom="1.8287447"
     units="mm"
     inkscape:document-units="mm"
     showgrid="false"
     id="namedview2755"
     inkscape:window-height="768"
     inkscape:window-width="1366"
     inkscape:pageshadow="2"
     inkscape:pageopacity="0"
     guidetolerance="10"
     gridtolerance="10"
     objecttolerance="10"
     borderopacity="1"
     bordercolor="#666666"
     pagecolor="#ffffff" />
  <defs
     id="defs2576">
    <style
       id="style2569">.cls-1{fill:#353535;}.cls-2{fill:url(#linear-gradient);}.cls-3{fill:gray;}.cls-4{fill:#b3b3b3;}.cls-5{fill:#ccc;}.cls-6{fill:#121212;}.cls-7{fill:#fff;}</style>
    <linearGradient
       gradientUnits="userSpaceOnUse"
       y2="349.56"
       x2="40.939999"
       y1="349.56"
       x1="21.09"
       id="linear-gradient">
      <stop
         id="stop2571"
         stop-color="#3fa9f5"
         offset="0" />
      <stop
         id="stop2573"
         stop-color="#ed1e79"
         offset="1" />
    </linearGradient>
  </defs>
  <g
     id="Layer_2-2"
     data-name="Layer 2"
     transform="scale(1.3333334)">
    <g
       id="background">
      <path
         style="fill:#353535"
         inkscape:connector-curvature="0"
         id="rect4155"
         class="cls-1"
         d="M 0,0 H 86.4 V 364.25 H 0 Z" />
    </g>
  </g>
  <g
     id="branding"
     transform="scale(1.3333334)">
    <path
       inkscape:connector-curvature="0"
       class="cls-2"
       d="m 21.6,355.74 a 0.47,0.47 0 0 1 -0.25,-0.07 0.51,0.51 0 0 1 -0.2,-0.7 l 6.27,-11.32 a 0.52,0.52 0 0 1 1,0.25 v 9.33 l 5.31,-9.58 a 0.51,0.51 0 0 1 0.58,-0.25 0.52,0.52 0 0 1 0.38,0.5 v 9.33 L 40,343.65 a 0.51,0.51 0 0 1 0.58,-0.25 0.51,0.51 0 0 1 0.39,0.5 v 11.32 a 0.52,0.52 0 0 1 -0.52,0.52 0.51,0.51 0 0 1 -0.51,-0.52 v -9.33 l -5.31,9.58 a 0.52,0.52 0 0 1 -1,-0.25 v -9.33 l -5.31,9.58 a 0.51,0.51 0 0 1 -0.58,0.25 0.52,0.52 0 0 1 -0.38,-0.5 v -9.33 l -5.31,9.58 a 0.51,0.51 0 0 1 -0.45,0.27 z"
       id="path2581"
       style="fill:url(#linear-gradient)" />
    <path
       style="fill:#808080"
       inkscape:connector-curvature="0"
       class="cls-3"
       d="m 43.43,343.9 a 0.5,0.5 0 0 1 0.5,-0.5 H 44 a 0.54,0.54 0 0 1 0.47,0.26 l 1.71,2.68 1.72,-2.69 a 0.51,0.51 0 0 1 0.46,-0.25 h 0.1 a 0.5,0.5 0 0 1 0.51,0.5 v 4.72 a 0.49,0.49 0 0 1 -0.51,0.49 0.5,0.5 0 0 1 -0.49,-0.49 v -3.39 l -1.38,2.08 a 0.47,0.47 0 0 1 -0.84,0 l -1.37,-2.06 v 3.38 a 0.48,0.48 0 0 1 -0.5,0.48 0.47,0.47 0 0 1 -0.48,-0.48 z"
       id="path2583" />
    <path
       style="fill:#b3b3b3"
       inkscape:connector-curvature="0"
       class="cls-4"
       d="m 48.49,343.4 h -0.1 a 0.51,0.51 0 0 0 -0.46,0.25 l -1.72,2.69 -1.71,-2.68 a 0.54,0.54 0 0 0 -0.47,-0.26 h -0.1 a 0.5,0.5 0 0 0 -0.5,0.5 v 4.73 a 0.47,0.47 0 0 0 0.48,0.48 0.48,0.48 0 0 0 0.5,-0.48 v -3.38 l 1.37,2.06 a 0.47,0.47 0 0 0 0.84,0 L 48,345.23 v 3.39 a 0.5,0.5 0 0 0 0.49,0.49 0.49,0.49 0 0 0 0.51,-0.49 v -4.72 a 0.5,0.5 0 0 0 -0.51,-0.5 z"
       id="path2585" />
    <path
       style="fill:#808080"
       inkscape:connector-curvature="0"
       class="cls-3"
       d="m 50.11,343.88 a 0.5,0.5 0 0 1 1,0 v 4.74 a 0.5,0.5 0 0 1 -1,0 z"
       id="path2587" />
    <path
       style="fill:#b3b3b3"
       inkscape:connector-curvature="0"
       class="cls-4"
       d="m 50.61,343.39 a 0.49,0.49 0 0 0 -0.5,0.49 v 4.74 a 0.5,0.5 0 0 0 1,0 v -4.74 a 0.49,0.49 0 0 0 -0.49,-0.49 z"
       id="path2589" />
    <path
       style="fill:#808080"
       inkscape:connector-curvature="0"
       class="cls-3"
       d="m 52.21,343.9 a 0.5,0.5 0 0 1 0.5,-0.5 h 0.11 a 0.64,0.64 0 0 1 0.52,0.29 l 2.83,3.65 v -3.47 a 0.5,0.5 0 0 1 1,0 v 4.74 a 0.49,0.49 0 0 1 -0.49,0.5 v 0 a 0.66,0.66 0 0 1 -0.52,-0.3 l -2.91,-3.76 v 3.58 a 0.5,0.5 0 0 1 -1,0 z"
       id="path2591" />
    <path
       style="fill:#b3b3b3"
       inkscape:connector-curvature="0"
       class="cls-4"
       d="m 56.65,343.39 a 0.49,0.49 0 0 0 -0.48,0.48 v 3.47 l -2.83,-3.65 a 0.64,0.64 0 0 0 -0.52,-0.29 h -0.11 a 0.5,0.5 0 0 0 -0.5,0.5 v 4.73 a 0.5,0.5 0 0 0 1,0 v -3.58 l 2.91,3.76 a 0.66,0.66 0 0 0 0.52,0.3 v 0 a 0.49,0.49 0 0 0 0.49,-0.5 v -4.74 a 0.49,0.49 0 0 0 -0.5,-0.48 z"
       id="path2593" />
    <path
       style="fill:#808080"
       inkscape:connector-curvature="0"
       class="cls-3"
       d="m 58.2,343.93 a 0.5,0.5 0 0 1 0.51,-0.5 h 1.61 a 2.82,2.82 0 0 1 3,2.8 v 0 a 2.83,2.83 0 0 1 -3,2.82 h -1.61 a 0.49,0.49 0 0 1 -0.51,-0.5 z m 2.12,4.24 a 1.84,1.84 0 0 0 2,-1.9 v 0 a 1.85,1.85 0 0 0 -2,-1.92 H 59.2 v 3.84 z"
       id="path2595" />
    <path
       style="fill:#b3b3b3"
       inkscape:connector-curvature="0"
       class="cls-4"
       d="m 60.32,343.43 h -1.61 a 0.5,0.5 0 0 0 -0.51,0.5 v 4.64 a 0.49,0.49 0 0 0 0.51,0.5 h 1.61 a 2.83,2.83 0 0 0 3,-2.82 v 0 a 2.82,2.82 0 0 0 -3,-2.8 z m -1.12,4.74 v -3.84 h 1.12 a 1.85,1.85 0 0 1 2,1.92 v 0 a 1.84,1.84 0 0 1 -2,1.9 z"
       id="path2597" />
    <path
       style="fill:#808080"
       inkscape:connector-curvature="0"
       class="cls-3"
       d="m 43.43,350.51 a 0.5,0.5 0 0 1 0.5,-0.5 H 44 a 0.54,0.54 0 0 1 0.47,0.26 l 1.74,2.73 1.72,-2.68 a 0.52,0.52 0 0 1 0.46,-0.26 h 0.1 a 0.5,0.5 0 0 1 0.51,0.5 v 4.72 a 0.5,0.5 0 0 1 -0.51,0.5 0.51,0.51 0 0 1 -0.49,-0.5 v -3.38 l -1.38,2.07 a 0.47,0.47 0 0 1 -0.84,0 l -1.37,-2.06 v 3.38 a 0.49,0.49 0 0 1 -0.5,0.49 0.48,0.48 0 0 1 -0.48,-0.49 z"
       id="path2599" />
    <path
       style="fill:#b3b3b3"
       inkscape:connector-curvature="0"
       class="cls-4"
       d="m 48.49,350 h -0.1 a 0.52,0.52 0 0 0 -0.46,0.26 L 46.21,353 44.5,350.32 A 0.54,0.54 0 0 0 44,350 h -0.1 a 0.5,0.5 0 0 0 -0.5,0.5 v 4.73 a 0.48,0.48 0 0 0 0.48,0.49 0.49,0.49 0 0 0 0.5,-0.49 v -3.38 l 1.37,2.06 a 0.47,0.47 0 0 0 0.84,0 L 48,351.85 v 3.38 a 0.51,0.51 0 0 0 0.49,0.5 0.5,0.5 0 0 0 0.51,-0.5 v -4.72 a 0.5,0.5 0 0 0 -0.51,-0.5 z"
       id="path2601" />
    <path
       style="fill:#808080"
       inkscape:connector-curvature="0"
       class="cls-3"
       d="m 50.05,355.19 v -4.65 a 0.5,0.5 0 0 1 0.5,-0.5 h 3.3 a 0.45,0.45 0 0 1 0,0.89 h -2.8 v 1.46 h 2.43 a 0.46,0.46 0 0 1 0.45,0.46 0.44,0.44 0 0 1 -0.45,0.43 h -2.43 v 1.52 h 2.84 a 0.45,0.45 0 0 1 0,0.89 h -3.34 a 0.5,0.5 0 0 1 -0.5,-0.5 z"
       id="path2603" />
    <path
       style="fill:#b3b3b3"
       inkscape:connector-curvature="0"
       class="cls-4"
       d="m 53.85,350 h -3.3 a 0.5,0.5 0 0 0 -0.5,0.5 v 4.65 a 0.5,0.5 0 0 0 0.5,0.5 h 3.34 a 0.45,0.45 0 0 0 0,-0.89 h -2.84 v -1.52 h 2.43 a 0.44,0.44 0 0 0 0.45,-0.43 0.46,0.46 0 0 0 -0.45,-0.46 h -2.43 v -1.46 h 2.8 a 0.45,0.45 0 0 0 0,-0.89 z"
       id="path2605" />
    <path
       style="fill:#808080"
       inkscape:connector-curvature="0"
       class="cls-3"
       d="m 55.07,350.49 a 0.5,0.5 0 0 1 1,0 v 4.29 h 2.56 a 0.45,0.45 0 0 1 0.45,0.45 0.46,0.46 0 0 1 -0.45,0.46 h -3.06 a 0.5,0.5 0 0 1 -0.5,-0.5 z"
       id="path2607" />
    <path
       style="fill:#b3b3b3"
       inkscape:connector-curvature="0"
       class="cls-4"
       d="m 55.57,350 a 0.49,0.49 0 0 0 -0.5,0.49 v 4.7 a 0.5,0.5 0 0 0 0.5,0.5 h 3.06 a 0.46,0.46 0 0 0 0.45,-0.46 0.45,0.45 0 0 0 -0.45,-0.45 h -2.56 v -4.29 A 0.49,0.49 0 0 0 55.57,350 Z"
       id="path2609" />
    <path
       style="fill:#808080"
       inkscape:connector-curvature="0"
       class="cls-3"
       d="m 59.68,350.54 a 0.5,0.5 0 0 1 0.5,-0.5 h 1.61 a 2.82,2.82 0 0 1 3,2.81 v 0 a 2.84,2.84 0 0 1 -3,2.83 h -1.61 a 0.5,0.5 0 0 1 -0.5,-0.5 z m 2.11,4.24 a 1.85,1.85 0 0 0 2,-1.9 v 0 a 1.86,1.86 0 0 0 -2,-1.92 h -1.12 v 3.84 z"
       id="path2611" />
    <path
       style="fill:#b3b3b3"
       inkscape:connector-curvature="0"
       class="cls-4"
       d="m 61.79,350 h -1.61 a 0.5,0.5 0 0 0 -0.5,0.5 v 4.65 a 0.5,0.5 0 0 0 0.5,0.5 h 1.61 a 2.84,2.84 0 0 0 3,-2.83 v 0 a 2.82,2.82 0 0 0 -3,-2.81 z m -1.12,4.74 v -3.84 h 1.12 a 1.86,1.86 0 0 1 2,1.92 v 0 a 1.85,1.85 0 0 1 -2,1.9 z"
       id="path2613" />
    <path
       style="fill:#cccccc"
       inkscape:connector-curvature="0"
       class="cls-5"
       d="m 35.58,10 v 8.39 h -1.64 v -5.46 l -2.36,3.89 h -0.2 L 29,12.94 v 5.43 H 27.37 V 10 h 1.7 l 2.41,4 2.4,-4 z"
       id="path2615" />
    <path
       style="fill:#cccccc"
       inkscape:connector-curvature="0"
       class="cls-5"
       d="M 39.48,16.79 H 43 v 1.58 H 37.83 V 10 H 43 v 1.58 h -3.52 v 1.79 h 3.18 v 1.53 h -3.18 z"
       id="path2617" />
    <path
       style="fill:#cccccc"
       inkscape:connector-curvature="0"
       class="cls-5"
       d="m 46.53,16.79 h 3.2 v 1.58 H 44.87 V 10 h 1.66 z"
       id="path2619" />
    <path
       style="fill:#cccccc"
       inkscape:connector-curvature="0"
       class="cls-5"
       d="m 54.69,10 a 3.81,3.81 0 0 1 2.88,1.21 4.1,4.1 0 0 1 1.16,3 4.11,4.11 0 0 1 -1.16,3 3.84,3.84 0 0 1 -2.88,1.21 H 51.35 V 10 Z m 0,6.81 a 2.31,2.31 0 0 0 1.77,-0.72 2.66,2.66 0 0 0 0.69,-1.9 2.59,2.59 0 0 0 -0.69,-1.88 2.29,2.29 0 0 0 -1.77,-0.73 H 53 v 5.23 z"
       id="path2621" />
  </g>
  <g
     id="EQ_bgs_copy"
     data-name="EQ bgs copy"
     transform="scale(1.3333334)">
    <rect
       style="fill:#121212"
       class="cls-6"
       x="53.049999"
       y="28.35"
       width="27.92"
       height="36.849998"
       rx="1.42"
       id="rect2624" />
  </g>
  <g
     id="labels"
     transform="scale(1.3333334)">
    <path
       style="fill:#cccccc"
       inkscape:connector-curvature="0"
       class="cls-5"
       d="m 16.51,31.52 h 0.94 v 4.9 h -0.94 z"
       id="path2627" />
    <path
       style="fill:#cccccc"
       inkscape:connector-curvature="0"
       class="cls-5"
       d="m 21.33,31.52 h 0.93 v 4.9 h -0.71 l -2,-3 v 3 h -0.94 v -4.9 h 0.71 l 2,3 z"
       id="path2629" />
    <path
       style="fill:#cccccc"
       inkscape:connector-curvature="0"
       class="cls-5"
       d="M 62.64,36.52 A 2.35,2.35 0 0 1 60.9,35.78 2.5,2.5 0 0 1 60.19,34 a 2.47,2.47 0 0 1 0.71,-1.81 2.43,2.43 0 0 1 3.49,0 2.47,2.47 0 0 1 0.71,1.81 2.5,2.5 0 0 1 -0.71,1.81 2.37,2.37 0 0 1 -1.75,0.71 z m 0,-1 a 1.43,1.43 0 0 0 1.09,-0.45 1.58,1.58 0 0 0 0.44,-1.07 1.61,1.61 0 0 0 -0.44,-1.16 1.55,1.55 0 0 0 -2.18,0 1.61,1.61 0 0 0 -0.44,1.16 1.58,1.58 0 0 0 0.44,1.15 1.43,1.43 0 0 0 1.09,0.42 z"
       id="path2631" />
    <path
       style="fill:#cccccc"
       inkscape:connector-curvature="0"
       class="cls-5"
       d="M 66.49,36.06 A 1.61,1.61 0 0 1 66,34.82 v -3.3 h 0.93 v 3.22 a 0.88,0.88 0 0 0 1.76,0 v -3.22 h 0.93 v 3.3 a 1.61,1.61 0 0 1 -0.51,1.24 2.07,2.07 0 0 1 -2.6,0 z"
       id="path2633" />
    <path
       style="fill:#cccccc"
       inkscape:connector-curvature="0"
       class="cls-5"
       d="m 73.83,31.52 v 0.92 h -1.27 v 4 h -0.94 v -4 h -1.27 v -0.92 z"
       id="path2635" />
  </g>
  <g
     id="Mute_Grps"
     data-name="Mute Grps"
     transform="scale(1.3333334)">
    <path
       style="fill:#ffffff"
       inkscape:connector-curvature="0"
       class="cls-7"
       d="m 27.56,74.71 v 5.6 h -1.09 v -3.63 l -1.58,2.6 h -0.13 l -1.57,-2.59 v 3.62 h -1.11 v -5.6 h 1.14 l 1.61,2.65 1.6,-2.65 z"
       id="path2638" />
    <path
       style="fill:#ffffff"
       inkscape:connector-curvature="0"
       class="cls-7"
       d="m 29.56,79.9 a 1.81,1.81 0 0 1 -0.6,-1.42 v -3.77 h 1.09 v 3.68 c 0,0.59 0.33,1 1,1 0.67,0 1,-0.36 1,-1 v -3.68 h 1.1 v 3.77 a 1.81,1.81 0 0 1 -0.6,1.42 2.53,2.53 0 0 1 -3.07,0 z"
       id="path2640" />
    <path
       style="fill:#ffffff"
       inkscape:connector-curvature="0"
       class="cls-7"
       d="m 38.33,74.71 v 1.06 h -1.51 v 4.54 h -1.1 v -4.54 h -1.51 v -1.06 z"
       id="path2642" />
    <path
       style="fill:#ffffff"
       inkscape:connector-curvature="0"
       class="cls-7"
       d="m 40.45,79.26 h 2.36 v 1 h -3.46 v -5.6 h 3.42 v 1.06 H 40.45 V 77 h 2.12 v 1 h -2.12 z"
       id="path2644" />
    <path
       style="fill:#ffffff"
       inkscape:connector-curvature="0"
       class="cls-7"
       d="m 51.88,77.3 v 0.44 a 2.59,2.59 0 0 1 -0.77,1.94 2.7,2.7 0 0 1 -2,0.74 3,3 0 0 1 -2.11,-0.84 2.78,2.78 0 0 1 -0.85,-2.06 2.89,2.89 0 0 1 2.94,-2.92 2.79,2.79 0 0 1 2.43,1.31 l -0.94,0.54 a 1.71,1.71 0 0 0 -1.5,-0.78 1.76,1.76 0 0 0 -1.32,0.53 1.79,1.79 0 0 0 -0.51,1.32 1.75,1.75 0 0 0 0.52,1.31 1.86,1.86 0 0 0 1.39,0.51 1.55,1.55 0 0 0 1.63,-1.06 h -1.7 v -1 z"
       id="path2646" />
    <path
       style="fill:#ffffff"
       inkscape:connector-curvature="0"
       class="cls-7"
       d="m 54.05,77 a 1.23,1.23 0 0 1 1.22,-0.77 v 1.15 a 1.21,1.21 0 0 0 -0.85,0.2 0.9,0.9 0 0 0 -0.37,0.82 v 1.91 H 53 v -4 h 1 z"
       id="path2648" />
    <path
       style="fill:#ffffff"
       inkscape:connector-curvature="0"
       class="cls-7"
       d="m 60,76.82 a 2.09,2.09 0 0 1 0.57,1.49 2.15,2.15 0 0 1 -0.57,1.51 1.83,1.83 0 0 1 -1.38,0.6 1.53,1.53 0 0 1 -1.29,-0.58 v 2.07 h -1 v -5.6 h 1 v 0.48 A 1.51,1.51 0 0 1 58.62,76.2 1.82,1.82 0 0 1 60,76.82 Z m -1.6,2.62 a 1,1 0 0 0 0.79,-0.31 1.1,1.1 0 0 0 0.32,-0.82 1.12,1.12 0 0 0 -1.9,-0.81 1.09,1.09 0 0 0 -0.31,0.81 1.13,1.13 0 0 0 0.31,0.82 1.06,1.06 0 0 0 0.79,0.31 z"
       id="path2650" />
    <path
       style="fill:#ffffff"
       inkscape:connector-curvature="0"
       class="cls-7"
       d="m 63.27,77.89 c 0.58,0.12 1.34,0.4 1.33,1.25 a 1.12,1.12 0 0 1 -0.46,1 2,2 0 0 1 -1.14,0.32 1.67,1.67 0 0 1 -1.68,-1 l 0.89,-0.5 A 0.75,0.75 0 0 0 63,79.48 c 0.36,0 0.55,-0.11 0.55,-0.35 0,-0.24 -0.32,-0.33 -0.73,-0.44 -0.59,-0.15 -1.34,-0.4 -1.34,-1.23 a 1.13,1.13 0 0 1 0.44,-0.93 1.82,1.82 0 0 1 2.6,0.51 l -0.88,0.48 A 0.66,0.66 0 0 0 63,77.11 c -0.26,0 -0.46,0.13 -0.46,0.33 0,0.2 0.32,0.34 0.73,0.45 z"
       id="path2652" />
  </g>
  <g
     id="Mute_Grps_No.s"
     data-name="Mute Grps No.s"
     transform="scale(1.3333334)">
    <path
       style="fill:#cccccc"
       inkscape:connector-curvature="0"
       class="cls-5"
       d="m 11.11,93.05 v 0.33 A 2.23,2.23 0 0 1 10.45,95 2.43,2.43 0 0 1 8.71,95.63 2.56,2.56 0 0 1 6.83,94.9 2.55,2.55 0 0 1 8.67,90.55 2.44,2.44 0 0 1 10.8,91.71 l -0.69,0.4 a 1.62,1.62 0 0 0 -1.44,-0.78 1.78,1.78 0 0 0 -1.27,3 1.82,1.82 0 0 0 1.32,0.5 1.47,1.47 0 0 0 1.58,-1.12 H 8.66 v -0.72 z"
       id="path2655" />
    <path
       style="fill:#cccccc"
       inkscape:connector-curvature="0"
       class="cls-5"
       d="m 12.66,90.68 h 0.7 v 4.9 h -0.8 v -4 l -1,0.28 -0.19,-0.69 z"
       id="path2657" />
    <path
       style="fill:#cccccc"
       inkscape:connector-curvature="0"
       class="cls-5"
       d="m 12.22,98.68 v 4.9 h -0.81 v -3.49 l -1.49,2.46 h -0.1 l -1.49,-2.47 v 3.5 h -0.8 v -4.9 h 0.86 l 1.48,2.45 1.49,-2.45 z"
       id="path2659" />
    <path
       style="fill:#cccccc"
       inkscape:connector-curvature="0"
       class="cls-5"
       d="m 76.84,93.05 v 0.33 a 2.2,2.2 0 0 1 -0.67,1.62 2.41,2.41 0 0 1 -1.73,0.63 2.56,2.56 0 0 1 -1.88,-0.73 2.56,2.56 0 1 1 4,-3.19 l -0.69,0.4 a 1.62,1.62 0 0 0 -1.44,-0.78 1.69,1.69 0 0 0 -1.27,0.51 1.83,1.83 0 0 0 0,2.51 1.8,1.8 0 0 0 1.31,0.5 1.48,1.48 0 0 0 1.53,-1.08 h -1.61 v -0.72 z"
       id="path2661" />
    <path
       style="fill:#cccccc"
       inkscape:connector-curvature="0"
       class="cls-5"
       d="M 77.16,95.58 V 95 l 1.71,-1.74 a 1.75,1.75 0 0 0 0.62,-1.08 0.71,0.71 0 0 0 -0.76,-0.76 1,1 0 0 0 -0.91,0.61 l -0.68,-0.4 a 1.7,1.7 0 0 1 1.59,-1 1.59,1.59 0 0 1 1.1,0.4 1.41,1.41 0 0 1 0.47,1.11 2.4,2.4 0 0 1 -0.84,1.6 l -1.1,1.1 h 2 v 0.78 z"
       id="path2663" />
    <path
       style="fill:#cccccc"
       inkscape:connector-curvature="0"
       class="cls-5"
       d="m 78.46,98.68 v 4.9 h -0.8 v -3.49 l -1.5,2.46 h -0.09 l -1.5,-2.47 v 3.5 h -0.8 v -4.9 h 0.87 l 1.47,2.45 1.49,-2.45 z"
       id="path2665" />
    <path
       style="fill:#cccccc"
       inkscape:connector-curvature="0"
       class="cls-5"
       d="m 10.56,125.53 v 0.34 a 2.22,2.22 0 0 1 -0.67,1.65 2.37,2.37 0 0 1 -1.73,0.64 2.57,2.57 0 0 1 -1.88,-0.74 2.56,2.56 0 0 1 0,-3.6 2.49,2.49 0 0 1 1.83,-0.75 2.46,2.46 0 0 1 2.14,1.17 l -0.69,0.4 a 1.63,1.63 0 0 0 -1.45,-0.78 1.71,1.71 0 0 0 -1.26,0.5 1.74,1.74 0 0 0 -0.5,1.26 1.71,1.71 0 0 0 0.5,1.26 1.78,1.78 0 0 0 1.31,0.5 1.48,1.48 0 0 0 1.59,-1.13 H 8.11 v -0.72 z"
       id="path2667" />
    <path
       style="fill:#cccccc"
       inkscape:connector-curvature="0"
       class="cls-5"
       d="m 13,125.17 a 1.49,1.49 0 0 1 0.7,2.57 1.81,1.81 0 0 1 -1.22,0.42 1.66,1.66 0 0 1 -1.64,-1 l 0.68,-0.4 a 0.91,0.91 0 0 0 1,0.64 0.8,0.8 0 0 0 0.91,-0.8 c 0,-0.48 -0.35,-0.78 -0.91,-0.78 H 12.3 l -0.32,-0.48 1.06,-1.4 H 11 v -0.75 h 3 v 0.68 z"
       id="path2669" />
    <path
       style="fill:#cccccc"
       inkscape:connector-curvature="0"
       class="cls-5"
       d="m 12.22,131.17 v 4.9 h -0.81 v -3.5 L 9.92,135 h -0.1 l -1.49,-2.47 v 3.5 h -0.8 v -4.9 h 0.86 l 1.48,2.45 1.49,-2.45 z"
       id="path2671" />
    <path
       style="fill:#cccccc"
       inkscape:connector-curvature="0"
       class="cls-5"
       d="m 76.59,125.53 v 0.34 a 2.21,2.21 0 0 1 -0.66,1.65 2.4,2.4 0 0 1 -1.74,0.64 2.57,2.57 0 0 1 -1.88,-0.74 2.58,2.58 0 0 1 0,-3.6 2.5,2.5 0 0 1 1.84,-0.75 2.45,2.45 0 0 1 2.13,1.17 l -0.69,0.4 a 1.62,1.62 0 0 0 -1.44,-0.78 1.71,1.71 0 0 0 -1.77,1.76 1.71,1.71 0 0 0 0.5,1.26 1.82,1.82 0 0 0 1.32,0.5 1.48,1.48 0 0 0 1.58,-1.13 h -1.64 v -0.72 z"
       id="path2673" />
    <path
       style="fill:#cccccc"
       inkscape:connector-curvature="0"
       class="cls-5"
       d="m 80.78,126.44 v 0.75 h -0.56 v 0.88 H 79.4 v -0.88 H 77 v -0.75 l 1.68,-3.27 h 0.88 l -1.69,3.27 h 1.53 v -1.28 h 0.82 v 1.28 z"
       id="path2675" />
    <path
       style="fill:#cccccc"
       inkscape:connector-curvature="0"
       class="cls-5"
       d="m 78.46,131.17 v 4.9 h -0.8 v -3.5 l -1.5,2.43 h -0.09 l -1.5,-2.47 v 3.5 h -0.8 v -4.9 h 0.87 l 1.47,2.45 1.49,-2.45 z"
       id="path2677" />
    <path
       style="fill:#cccccc"
       inkscape:connector-curvature="0"
       class="cls-5"
       d="M 7.16,156.94 H 8 v 4.9 H 7.33 L 5,158.52 v 3.32 H 4.2 v -4.9 h 0.63 l 2.31,3.33 z"
       id="path2679" />
    <path
       style="fill:#cccccc"
       inkscape:connector-curvature="0"
       class="cls-5"
       d="M 9.08,162.54 H 8.7 l 2.8,-6.3 h 0.38 z"
       id="path2681" />
    <path
       style="fill:#cccccc"
       inkscape:connector-curvature="0"
       class="cls-5"
       d="m 15.11,161.84 -0.34,-1 h -2.09 l -0.34,1 h -0.88 l 1.78,-4.9 h 1 l 1.77,4.9 z M 13,160.1 h 1.5 l -0.78,-2.22 z"
       id="path2683" />
    <path
       style="fill:#cccccc"
       inkscape:connector-curvature="0"
       class="cls-5"
       d="m 73.4,156.94 h 0.81 v 4.9 h -0.63 l -2.31,-3.33 v 3.33 h -0.81 v -4.9 h 0.63 l 2.31,3.33 z"
       id="path2685" />
    <path
       style="fill:#cccccc"
       inkscape:connector-curvature="0"
       class="cls-5"
       d="m 75.33,162.54 h -0.39 l 2.8,-6.3 h 0.39 z"
       id="path2687" />
    <path
       style="fill:#cccccc"
       inkscape:connector-curvature="0"
       class="cls-5"
       d="m 81.35,161.84 -0.34,-1 h -2.09 l -0.34,1 h -0.87 l 1.77,-4.9 h 1 l 1.77,4.9 z m -2.16,-1.74 h 1.55 L 80,157.88 Z"
       id="path2689" />
    <path
       style="fill:#cccccc"
       inkscape:connector-curvature="0"
       class="cls-5"
       d="M 7.16,187.83 H 8 v 4.9 H 7.33 L 5,189.4 v 3.33 H 4.2 v -4.9 h 0.63 l 2.31,3.32 z"
       id="path2691" />
    <path
       style="fill:#cccccc"
       inkscape:connector-curvature="0"
       class="cls-5"
       d="M 9.08,193.43 H 8.7 l 2.8,-6.3 h 0.38 z"
       id="path2693" />
    <path
       style="fill:#cccccc"
       inkscape:connector-curvature="0"
       class="cls-5"
       d="m 15.11,192.73 -0.34,-1 h -2.09 l -0.34,1 h -0.88 l 1.78,-4.9 h 1 l 1.77,4.9 z M 13,191 h 1.5 l -0.78,-2.21 z"
       id="path2695" />
    <path
       style="fill:#cccccc"
       inkscape:connector-curvature="0"
       class="cls-5"
       d="m 73.4,187.83 h 0.81 v 4.9 h -0.63 l -2.31,-3.33 v 3.33 h -0.81 v -4.9 h 0.63 l 2.31,3.32 z"
       id="path2697" />
    <path
       style="fill:#cccccc"
       inkscape:connector-curvature="0"
       class="cls-5"
       d="m 75.33,193.43 h -0.39 l 2.8,-6.31 h 0.39 z"
       id="path2699" />
    <path
       style="fill:#cccccc"
       inkscape:connector-curvature="0"
       class="cls-5"
       d="m 81.35,192.73 -0.34,-1 h -2.09 l -0.34,1 h -0.87 l 1.77,-4.9 h 1 l 1.77,4.9 z M 79.19,191 h 1.55 L 80,188.77 Z"
       id="path2701" />
    <path
       style="fill:#cccccc"
       inkscape:connector-curvature="0"
       class="cls-5"
       d="M 7.16,218.25 H 8 v 4.9 H 7.33 L 5,219.83 v 3.32 H 4.2 v -4.9 h 0.63 l 2.31,3.33 z"
       id="path2703" />
    <path
       style="fill:#cccccc"
       inkscape:connector-curvature="0"
       class="cls-5"
       d="M 9.08,223.85 H 8.7 l 2.8,-6.3 h 0.38 z"
       id="path2705" />
    <path
       style="fill:#cccccc"
       inkscape:connector-curvature="0"
       class="cls-5"
       d="m 15.11,223.15 -0.34,-1 h -2.09 l -0.34,1 h -0.88 l 1.78,-4.9 h 1 l 1.77,4.9 z M 13,221.41 h 1.5 l -0.78,-2.21 z"
       id="path2707" />
    <path
       style="fill:#cccccc"
       inkscape:connector-curvature="0"
       class="cls-5"
       d="m 73.4,218.25 h 0.81 v 4.9 h -0.63 l -2.31,-3.32 v 3.32 h -0.81 v -4.9 h 0.63 l 2.31,3.33 z"
       id="path2709" />
    <path
       style="fill:#cccccc"
       inkscape:connector-curvature="0"
       class="cls-5"
       d="m 75.33,223.85 h -0.39 l 2.8,-6.3 h 0.39 z"
       id="path2711" />
    <path
       style="fill:#cccccc"
       inkscape:connector-curvature="0"
       class="cls-5"
       d="m 81.35,223.15 -0.34,-1 h -2.09 l -0.34,1 h -0.87 l 1.77,-4.9 h 1 l 1.77,4.9 z m -2.16,-1.74 h 1.55 L 80,219.2 Z"
       id="path2713" />
    <path
       style="fill:#cccccc"
       inkscape:connector-curvature="0"
       class="cls-5"
       d="M 7.16,248.94 H 8 v 4.9 H 7.33 L 5,250.51 v 3.33 H 4.2 v -4.9 h 0.63 l 2.31,3.32 z"
       id="path2715" />
    <path
       style="fill:#cccccc"
       inkscape:connector-curvature="0"
       class="cls-5"
       d="M 9.08,254.54 H 8.7 l 2.8,-6.3 h 0.38 z"
       id="path2717" />
    <path
       style="fill:#cccccc"
       inkscape:connector-curvature="0"
       class="cls-5"
       d="m 15.11,253.84 -0.34,-1 h -2.09 l -0.34,1 h -0.88 l 1.78,-4.9 h 1 l 1.77,4.9 z M 13,252.1 h 1.5 l -0.78,-2.22 z"
       id="path2719" />
    <path
       style="fill:#cccccc"
       inkscape:connector-curvature="0"
       class="cls-5"
       d="m 73.4,248.94 h 0.81 v 4.9 h -0.63 l -2.31,-3.33 v 3.33 h -0.81 v -4.9 h 0.63 l 2.31,3.32 z"
       id="path2721" />
    <path
       style="fill:#cccccc"
       inkscape:connector-curvature="0"
       class="cls-5"
       d="m 75.33,254.54 h -0.39 l 2.8,-6.3 h 0.39 z"
       id="path2723" />
    <path
       style="fill:#cccccc"
       inkscape:connector-curvature="0"
       class="cls-5"
       d="m 81.35,253.84 -0.34,-1 h -2.09 l -0.34,1 h -0.87 l 1.77,-4.9 h 1 l 1.77,4.9 z m -2.16,-1.74 h 1.55 L 80,249.88 Z"
       id="path2725" />
    <path
       style="fill:#cccccc"
       inkscape:connector-curvature="0"
       class="cls-5"
       d="M 7.16,279.7 H 8 v 4.9 H 7.33 L 5,281.27 v 3.33 H 4.2 v -4.9 h 0.63 l 2.33,3.3 z"
       id="path2727" />
    <path
       style="fill:#cccccc"
       inkscape:connector-curvature="0"
       class="cls-5"
       d="M 9.08,285.3 H 8.7 l 2.8,-6.3 h 0.38 z"
       id="path2729" />
    <path
       style="fill:#cccccc"
       inkscape:connector-curvature="0"
       class="cls-5"
       d="m 15.11,284.6 -0.34,-1 h -2.09 l -0.34,1 h -0.88 l 1.78,-4.9 h 1 L 16,284.6 Z M 13,282.86 h 1.5 l -0.78,-2.22 z"
       id="path2731" />
    <path
       style="fill:#cccccc"
       inkscape:connector-curvature="0"
       class="cls-5"
       d="m 73.4,279.7 h 0.81 v 4.9 h -0.63 l -2.31,-3.33 v 3.33 h -0.81 v -4.9 h 0.63 l 2.31,3.3 z"
       id="path2733" />
    <path
       style="fill:#cccccc"
       inkscape:connector-curvature="0"
       class="cls-5"
       d="m 75.33,285.3 h -0.39 l 2.8,-6.3 h 0.39 z"
       id="path2735" />
    <path
       style="fill:#cccccc"
       inkscape:connector-curvature="0"
       class="cls-5"
       d="m 81.35,284.6 -0.34,-1 h -2.09 l -0.34,1 h -0.87 l 1.77,-4.9 h 1 l 1.77,4.9 z m -2.16,-1.74 h 1.55 L 80,280.64 Z"
       id="path2737" />
    <path
       style="fill:#cccccc"
       inkscape:connector-curvature="0"
       class="cls-5"
       d="M 7.16,310.38 H 8 v 4.91 H 7.33 L 5,312 v 3.33 H 4.2 v -4.91 h 0.63 l 2.31,3.33 z"
       id="path2739" />
    <path
       style="fill:#cccccc"
       inkscape:connector-curvature="0"
       class="cls-5"
       d="M 9.08,316 H 8.7 l 2.8,-6.31 h 0.38 z"
       id="path2741" />
    <path
       style="fill:#cccccc"
       inkscape:connector-curvature="0"
       class="cls-5"
       d="m 15.11,315.29 -0.34,-1 h -2.09 l -0.34,1 h -0.88 l 1.78,-4.91 h 1 L 16,315.29 Z M 13,313.54 h 1.5 l -0.78,-2.21 z"
       id="path2743" />
    <path
       style="fill:#cccccc"
       inkscape:connector-curvature="0"
       class="cls-5"
       d="m 73.4,310.38 h 0.81 v 4.91 H 73.58 L 71.27,312 v 3.33 h -0.81 v -4.91 h 0.63 l 2.31,3.33 z"
       id="path2745" />
    <path
       style="fill:#cccccc"
       inkscape:connector-curvature="0"
       class="cls-5"
       d="m 75.33,316 h -0.39 l 2.8,-6.31 h 0.39 z"
       id="path2747" />
    <path
       style="fill:#cccccc"
       inkscape:connector-curvature="0"
       class="cls-5"
       d="m 81.35,315.29 -0.34,-1 h -2.09 l -0.34,1 h -0.87 l 1.77,-4.91 h 1 l 1.77,4.91 z m -2.16,-1.75 h 1.55 L 80,311.33 Z"
       id="path2749" />
  </g>
</svg>
