<?xml version="1.0" encoding="UTF-8" standalone="no"?>
<!-- Generator: Adobe Illustrator 23.0.3, SVG Export Plug-In . SVG Version: 6.00 Build 0)  -->

<svg
   xmlns:dc="http://purl.org/dc/elements/1.1/"
   xmlns:cc="http://creativecommons.org/ns#"
   xmlns:rdf="http://www.w3.org/1999/02/22-rdf-syntax-ns#"
   xmlns:svg="http://www.w3.org/2000/svg"
   xmlns="http://www.w3.org/2000/svg"
   xmlns:sodipodi="http://sodipodi.sourceforge.net/DTD/sodipodi-0.dtd"
   xmlns:inkscape="http://www.inkscape.org/namespaces/inkscape"
   version="1.0"
   x="0px"
   y="0px"
   width="9.6499996mm"
   height="5mm"
   viewBox="0 0 36.47244 18.897639"
   enable-background="new 0 0 27.4 14.2"
   xml:space="preserve"
   id="svg48"
   sodipodi:docname="dim-off.svg"
   inkscape:version="0.92.2 5c3e80d, 2017-08-06"><metadata
     id="metadata54"><rdf:RDF><cc:Work
         rdf:about=""><dc:format>image/svg+xml</dc:format><dc:type
           rdf:resource="http://purl.org/dc/dcmitype/StillImage" /><dc:title></dc:title></cc:Work></rdf:RDF></metadata><defs
     id="defs52" /><sodipodi:namedview
     pagecolor="#ffffff"
     bordercolor="#666666"
     borderopacity="1"
     objecttolerance="10"
     gridtolerance="10"
     guidetolerance="10"
     inkscape:pageopacity="0"
     inkscape:pageshadow="2"
     inkscape:window-width="1892"
     inkscape:window-height="1022"
     id="namedview50"
     showgrid="false"
     inkscape:document-units="mm"
     units="mm"
     inkscape:zoom="10.510949"
     inkscape:cx="13.7"
     inkscape:cy="7.0999999"
     inkscape:window-x="0"
     inkscape:window-y="0"
     inkscape:window-maximized="0"
     inkscape:current-layer="svg48" /><g
     id="Layer_1"
     transform="translate(0,4.6976389)" /><g
     id="Mute_x2F_Solo"
     transform="matrix(1.331111,0,0,1.331111,0,-0.0041369)"><g
       id="g7"><path
         d="M 1.6,13.9 C 0.9,13.9 0.3,13.3 0.3,12.6 V 1.6 C 0.3,0.9 0.9,0.3 1.6,0.3 h 24.2 c 0.7,0 1.3,0.6 1.3,1.3 v 11 c 0,0.7 -0.6,1.3 -1.3,1.3 z"
         id="path3"
         inkscape:connector-curvature="0"
         style="fill:#606060" /><path
         d="m 25.8,0.5 c 0.6,0 1.1,0.5 1.1,1.1 v 11 c 0,0.6 -0.5,1.1 -1.1,1.1 H 1.6 C 1,13.7 0.5,13.2 0.5,12.6 V 1.6 C 0.5,1 1,0.5 1.6,0.5 H 25.8 M 25.8,0 H 1.6 C 0.7,0 0,0.7 0,1.6 v 11 c 0,0.9 0.7,1.6 1.6,1.6 h 24.2 c 0.9,0 1.6,-0.7 1.6,-1.6 V 1.6 C 27.4,0.7 26.6,0 25.8,0 Z"
         id="path5"
         inkscape:connector-curvature="0" /></g><g
       id="g15"><path
         d="m 9.6,4.5 c 0.7,0 1.3,0.2 1.7,0.7 0.5,0.6 0.7,1.2 0.7,1.9 0,0.7 -0.2,1.3 -0.7,1.8 -0.5,0.5 -1,0.7 -1.7,0.7 h -2 V 4.5 Z m 0,4.3 c 0.5,0 0.9,-0.2 1.2,-0.5 C 11.1,8 11.3,7.5 11.3,7 11.3,6.5 11.1,6.1 10.8,5.7 10.5,5.4 10.1,5.2 9.6,5.2 H 8.4 v 3.5 h 1.2 z"
         id="path9"
         inkscape:connector-curvature="0"
         style="fill:#ffffff" /><path
         d="m 12.9,4.5 h 0.8 v 5.1 h -0.8 z"
         id="path11"
         inkscape:connector-curvature="0"
         style="fill:#ffffff" /><path
         d="M 19.7,4.5 V 9.6 H 18.9 V 6 L 17.3,8.6 H 17.2 L 15.7,6 V 9.6 H 14.9 V 4.5 h 0.9 l 1.5,2.6 1.5,-2.6 z"
         id="path13"
         inkscape:connector-curvature="0"
         style="fill:#ffffff" /></g><g
       id="g17" /><g
       id="g19" /><g
       id="g21" /><g
       id="g23" /><g
       id="g25" /><g
       id="g27" /><g
       id="g29" /><g
       id="g31" /><g
       id="g33" /><g
       id="g35" /><g
       id="g37" /><g
       id="g39" /><g
       id="g41" /><g
       id="g43" /><g
       id="g45" /></g></svg>