<?xml version="1.0" encoding="UTF-8" standalone="no"?>
<!-- Generator: Adobe Illustrator 23.0.3, SVG Export Plug-In . SVG Version: 6.00 Build 0)  -->

<svg
   xmlns:dc="http://purl.org/dc/elements/1.1/"
   xmlns:cc="http://creativecommons.org/ns#"
   xmlns:rdf="http://www.w3.org/1999/02/22-rdf-syntax-ns#"
   xmlns:svg="http://www.w3.org/2000/svg"
   xmlns="http://www.w3.org/2000/svg"
   xmlns:sodipodi="http://sodipodi.sourceforge.net/DTD/sodipodi-0.dtd"
   xmlns:inkscape="http://www.inkscape.org/namespaces/inkscape"
   version="1.0"
   x="0px"
   y="0px"
   width="9.6499996mm"
   height="5mm"
   viewBox="0 0 36.47244 18.897638"
   enable-background="new 0 0 27.35433 14.17323"
   xml:space="preserve"
   id="svg24"
   sodipodi:docname="high-pass-on.svg"
   inkscape:version="0.92.2 5c3e80d, 2017-08-06"><metadata
     id="metadata30"><rdf:RDF><cc:Work
         rdf:about=""><dc:format>image/svg+xml</dc:format><dc:type
           rdf:resource="http://purl.org/dc/dcmitype/StillImage" /><dc:title></dc:title></cc:Work></rdf:RDF></metadata><defs
     id="defs28" /><sodipodi:namedview
     pagecolor="#ffffff"
     bordercolor="#666666"
     borderopacity="1"
     objecttolerance="10"
     gridtolerance="10"
     guidetolerance="10"
     inkscape:pageopacity="0"
     inkscape:pageshadow="2"
     inkscape:window-width="1092"
     inkscape:window-height="862"
     id="namedview26"
     showgrid="false"
     inkscape:document-units="mm"
     units="mm"
     inkscape:zoom="10.528498"
     inkscape:cx="13.677165"
     inkscape:cy="7.0866151"
     inkscape:window-x="0"
     inkscape:window-y="0"
     inkscape:window-maximized="0"
     inkscape:current-layer="svg24" /><g
     id="Layer_1"
     transform="translate(0,4.7244077)" /><g
     id="fader_markers"
     transform="matrix(1.3333341,0,0,1.3333341,0,-9.4294725e-6)"><g
       id="g21"><g
         id="g17"><g
           id="g9"><path
             d="m 1.6958,13.92189 c -0.79688,0 -1.44531,-0.64746 -1.44531,-1.44434 V 1.69582 c 0,-0.79688 0.64844,-1.44531 1.44531,-1.44531 h 23.9624 c 0.79688,0 1.44531,0.64844 1.44531,1.44531 v 10.78174 c 0,0.79688 -0.64844,1.44434 -1.44531,1.44434 H 1.6958 Z"
             id="path3"
             inkscape:connector-curvature="0"
             style="fill:#00ba6e" /><g
             id="g7"><path
               d="m 25.65848,0.5013 c 0.65868,0 1.19456,0.53587 1.19456,1.19455 v 10.78152 c 0,0.65868 -0.53588,1.19455 -1.19456,1.19455 H 1.69586 c -0.65868,0 -1.19456,-0.53587 -1.19456,-1.19455 V 1.69585 c 0,-0.65868 0.53588,-1.19455 1.19456,-1.19455 h 23.96262 m 0,-0.5013 H 1.69586 C 0.76314,0 0,0.76313 0,1.69585 v 10.78152 c 0,0.93272 0.76314,1.69585 1.69586,1.69585 h 23.96262 c 0.93272,0 1.69586,-0.76313 1.69586,-1.69585 V 1.69585 C 27.35434,0.76313 26.59119,0 25.65848,0 Z"
               id="path5"
               inkscape:connector-curvature="0" /></g></g><g
           id="g15"><path
             d="m 12.55959,4.85495 h 0.8877 v 5.59668 h -0.8877 V 8.02878 h -2.31641 v 2.42285 H 9.35451 V 4.85495 h 0.88867 v 2.29492 h 2.31641 z"
             id="path11"
             inkscape:connector-curvature="0"
             style="fill:#ffffff" /><path
             d="m 16.51857,4.85495 c 0.50977,0 0.93457,0.17578 1.27441,0.52734 0.34766,0.35156 0.5166,0.79199 0.5166,1.31152 0,0.51953 -0.16895,0.95117 -0.5166,1.31152 -0.33984,0.35156 -0.76465,0.52734 -1.27441,0.52734 h -1.10352 v 1.91895 H 14.52638 V 4.85495 Z m 0,2.81446 c 0.52539,0 0.90332,-0.4082 0.90332,-0.97559 0,-0.56739 -0.37793,-0.97559 -0.90332,-0.97559 H 15.41505 V 7.6694 h 1.10352 z"
             id="path13"
             inkscape:connector-curvature="0"
             style="fill:#ffffff" /></g></g><polyline
         points="3.92176,11.33858 6.69294,2.98259 21.98982,2.98259   "
         id="polyline19"
         style="fill:none;stroke:#ffffff;stroke-width:0.69999999" /></g></g></svg>