<?xml version="1.0" encoding="UTF-8" standalone="no"?>
<!-- Generator: Adobe Illustrator 23.0.3, SVG Export Plug-In . SVG Version: 6.00 Build 0)  -->

<svg
   xmlns:dc="http://purl.org/dc/elements/1.1/"
   xmlns:cc="http://creativecommons.org/ns#"
   xmlns:rdf="http://www.w3.org/1999/02/22-rdf-syntax-ns#"
   xmlns:svg="http://www.w3.org/2000/svg"
   xmlns="http://www.w3.org/2000/svg"
   xmlns:sodipodi="http://sodipodi.sourceforge.net/DTD/sodipodi-0.dtd"
   xmlns:inkscape="http://www.inkscape.org/namespaces/inkscape"
   version="1.0"
   x="0px"
   y="0px"
   width="8mm"
   height="8mm"
   viewBox="0 0 30.236222 30.236222"
   enable-background="new 0 0 22.67717 22.67717"
   xml:space="preserve"
   id="svg43"
   sodipodi:docname="jack-unused.svg"
   inkscape:version="0.92.4 (5da689c313, 2019-01-14)"><metadata
     id="metadata49"><rdf:RDF><cc:Work
         rdf:about=""><dc:format>image/svg+xml</dc:format><dc:type
           rdf:resource="http://purl.org/dc/dcmitype/StillImage" /><dc:title /></cc:Work></rdf:RDF></metadata><defs
     id="defs47" /><sodipodi:namedview
     pagecolor="#ffffff"
     bordercolor="#666666"
     borderopacity="1"
     objecttolerance="10"
     gridtolerance="10"
     guidetolerance="10"
     inkscape:pageopacity="0"
     inkscape:pageshadow="2"
     inkscape:window-width="1920"
     inkscape:window-height="1017"
     id="namedview45"
     showgrid="false"
     inkscape:document-units="mm"
     units="mm"
     inkscape:zoom="10.406942"
     inkscape:cx="-4.6603511"
     inkscape:cy="11.338585"
     inkscape:window-x="-8"
     inkscape:window-y="-8"
     inkscape:window-maximized="1"
     inkscape:current-layer="svg43" /><g
     id="Layer_1"
     transform="translate(0,7.5590525)"
     style="opacity:0.5" /><g
     id="Pan_knob"
     transform="translate(0,7.5590525)"
     style="opacity:0.5" /><g
     id="Jacks"
     transform="matrix(1.3333337,0,0,1.3333337,-2.1241273e-6,-9.8037926e-6)"
     style="opacity:0.5"><g
       id="layer1_54_"
       transform="translate(-116.53208,-79.379106)"
       style=""><circle
         id="circle23_43_"
         cx="127.87067"
         cy="90.71769"
         r="11.33858"
         style="clip-rule:evenodd;fill:#9c9c9d;fill-rule:evenodd" /><circle
         id="circle27_43_"
         cx="127.82704"
         cy="90.648613"
         r="10.82072"
         style="clip-rule:evenodd;fill:#d2d2ce;fill-rule:evenodd" /><path
         id="path31_43_"
         d="m 117.58706,88.20011 c -0.0319,0.06715 -0.0694,0.13545 -0.0924,0.24477 -0.11868,0.55838 0.20404,0.56414 0.14488,1.13189 -0.0599,0.5677 -0.37598,0.50893 -0.37598,1.07977 0,0.57083 0.31634,0.51013 0.37598,1.07784 0.0599,0.56776 -0.26356,0.57349 -0.14488,1.13184 0.0436,0.20486 0.11407,0.30972 0.19093,0.39722 h 2.84219 c -0.2878,-0.8132 -0.43644,-1.66911 -0.43968,-2.53172 0.003,-0.8626 0.15183,-1.71851 0.4396,-2.53172 z m 17.41158,0 c 0.28716,0.81331 0.43512,1.66921 0.43773,2.53171 -0.003,0.8625 -0.15057,1.71841 -0.43773,2.53172 h 3.10823 c 0.0769,-0.08767 0.14737,-0.19218 0.19093,-0.39719 0.11867,-0.55838 -0.20226,-0.56413 -0.1424,-1.13189 0.0599,-0.5677 0.37405,-0.507 0.37405,-1.07784 0,-0.57084 -0.31454,-0.51203 -0.37405,-1.07976 -0.0599,-0.56776 0.26106,-0.57349 0.1424,-1.13189 -0.0212,-0.10932 -0.0577,-0.17761 -0.0924,-0.24477 z"
         inkscape:connector-curvature="0"
         style="clip-rule:evenodd;fill:#999999;fill-rule:evenodd" /><circle
         id="circle33_43_"
         cx="127.76218"
         cy="90.737373"
         r="7.6744599"
         style="clip-rule:evenodd;fill:#999999;fill-rule:evenodd" /><circle
         id="circle39_43_"
         cx="127.76218"
         cy="90.737373"
         r="6.5170298"
         style="clip-rule:evenodd;fill:#f3f5f6;fill-rule:evenodd" /><circle
         id="circle43_43_"
         cx="127.76218"
         cy="90.737373"
         r="5.6155601"
         style="clip-rule:evenodd;fill:#999999;fill-rule:evenodd" /><circle
         id="circle45_43_"
         cx="127.76218"
         cy="90.737373"
         r="5.1886902"
         style="clip-rule:evenodd;fill-rule:evenodd" /></g><g
       id="g12"
       style="" /><g
       id="g14"
       style="" /><g
       id="g16"
       style="" /><g
       id="g18"
       style="" /><g
       id="g20"
       style="" /><g
       id="g22"
       style="" /><g
       id="g24"
       style="" /><g
       id="g26"
       style="" /><g
       id="g28"
       style="" /><g
       id="g30"
       style="" /><g
       id="g32"
       style="" /><g
       id="g34"
       style="" /><g
       id="g36"
       style="" /><g
       id="g38"
       style="" /><g
       id="g40"
       style="" /></g></svg>