<?xml version="1.0" encoding="utf-8"?>
<!-- Generator: Adobe Illustrator 23.0.3, SVG Export Plug-In . SVG Version: 6.00 Build 0)  -->
<svg version="1.0" xmlns="http://www.w3.org/2000/svg" xmlns:xlink="http://www.w3.org/1999/xlink" x="0px" y="0px"
	 width="22.67717px" height="22.67717px" viewBox="0 0 22.67717 22.67717" enable-background="new 0 0 22.67717 22.67717"
	 xml:space="preserve">
<g id="Layer_1">
</g>
<g id="Pan_knob">
</g>
<g id="Jacks">
	<g id="layer1_54_" transform="translate(-116.53208,-79.379106)">
		<circle id="circle23_43_" fill-rule="evenodd" clip-rule="evenodd" fill="#9C9C9D" cx="127.87067" cy="90.71769" r="11.33858"/>
		<circle id="circle27_43_" fill-rule="evenodd" clip-rule="evenodd" fill="#D2D2CE" cx="127.82704" cy="90.64861" r="10.82072"/>
		<path id="path31_43_" fill-rule="evenodd" clip-rule="evenodd" fill="#999999" d="M117.58706,88.20011
			c-0.03189,0.06715-0.06943,0.13545-0.09245,0.24477c-0.11868,0.55838,0.20404,0.56414,0.14488,1.13189
			c-0.05986,0.5677-0.37598,0.50893-0.37598,1.07977c0,0.57083,0.31634,0.51013,0.37598,1.07784
			c0.05986,0.56776-0.26356,0.57349-0.14488,1.13184c0.04356,0.20486,0.11407,0.30972,0.19093,0.39722h2.84219
			c-0.2878-0.8132-0.43644-1.66911-0.43968-2.53172c0.00322-0.8626,0.15183-1.71851,0.4396-2.53172L117.58706,88.20011z
			 M134.99864,88.20011c0.28716,0.81331,0.43512,1.66921,0.43773,2.53171c-0.00261,0.8625-0.15057,1.71841-0.43773,2.53172h3.10823
			c0.07686-0.08767,0.14737-0.19218,0.19093-0.39719c0.11867-0.55838-0.20226-0.56413-0.1424-1.13189
			c0.05986-0.5677,0.37405-0.507,0.37405-1.07784s-0.31454-0.51203-0.37405-1.07976
			c-0.05986-0.56776,0.26106-0.57349,0.1424-1.13189c-0.02124-0.10932-0.05772-0.17761-0.09245-0.24477L134.99864,88.20011z"/>
		<circle id="circle33_43_" fill-rule="evenodd" clip-rule="evenodd" fill="#999999" cx="127.76218" cy="90.73737" r="7.67446"/>
		<circle id="circle39_43_" fill-rule="evenodd" clip-rule="evenodd" fill="#F3F5F6" cx="127.76218" cy="90.73737" r="6.51703"/>
		<circle id="circle43_43_" fill-rule="evenodd" clip-rule="evenodd" fill="#999999" cx="127.76218" cy="90.73737" r="5.61556"/>
		<circle id="circle45_43_" fill-rule="evenodd" clip-rule="evenodd" cx="127.76218" cy="90.73737" r="5.18869"/>
	</g>
	<g>
	</g>
	<g>
	</g>
	<g>
	</g>
	<g>
	</g>
	<g>
	</g>
	<g>
	</g>
	<g>
	</g>
	<g>
	</g>
	<g>
	</g>
	<g>
	</g>
	<g>
	</g>
	<g>
	</g>
	<g>
	</g>
	<g>
	</g>
	<g>
	</g>
</g>
</svg>
