<?xml version="1.0" encoding="UTF-8" standalone="no"?>
<svg
   xmlns:dc="http://purl.org/dc/elements/1.1/"
   xmlns:cc="http://creativecommons.org/ns#"
   xmlns:rdf="http://www.w3.org/1999/02/22-rdf-syntax-ns#"
   xmlns:svg="http://www.w3.org/2000/svg"
   xmlns="http://www.w3.org/2000/svg"
   xmlns:sodipodi="http://sodipodi.sourceforge.net/DTD/sodipodi-0.dtd"
   xmlns:inkscape="http://www.inkscape.org/namespaces/inkscape"
   viewBox="0 0 30.23622 30.23622"
   version="1.1"
   id="svg40"
   sodipodi:docname="jack-poly-unused.svg"
   width="8mm"
   height="8mm"
   inkscape:version="0.92.4 (5da689c313, 2019-01-14)">
  <metadata
     id="metadata44">
    <rdf:RDF>
      <cc:Work
         rdf:about="">
        <dc:format>image/svg+xml</dc:format>
        <dc:type
           rdf:resource="http://purl.org/dc/dcmitype/StillImage" />
        <dc:title>polyAsset 2</dc:title>
      </cc:Work>
    </rdf:RDF>
  </metadata>
  <sodipodi:namedview
     pagecolor="#ffffff"
     bordercolor="#666666"
     borderopacity="1"
     objecttolerance="10"
     gridtolerance="10"
     guidetolerance="10"
     inkscape:pageopacity="0"
     inkscape:pageshadow="2"
     inkscape:window-width="1920"
     inkscape:window-height="1017"
     id="namedview42"
     showgrid="false"
     inkscape:document-units="mm"
     units="mm"
     inkscape:zoom="10.405644"
     inkscape:cx="-4.6609318"
     inkscape:cy="11.34"
     inkscape:window-x="-8"
     inkscape:window-y="-8"
     inkscape:window-maximized="1"
     inkscape:current-layer="svg40" />
  <defs
     id="defs14">
    <style
       id="style2">.cls-1{fill:url(#linear-gradient);}.cls-2{fill:#828282;}.cls-3{fill:#1e1e1e;}.cls-4{fill:#878787;}.cls-5{fill:url(#linear-gradient-2);}</style>
    <linearGradient
       id="linear-gradient"
       x1="11.34"
       y1="0.14"
       x2="11.34"
       y2="22.540001"
       gradientUnits="userSpaceOnUse">
      <stop
         offset="0"
         stop-color="#c8c8c8"
         id="stop4" />
      <stop
         offset="1"
         stop-color="#969696"
         id="stop6" />
    </linearGradient>
    <linearGradient
       id="linear-gradient-2"
       x1="11.34"
       y1="4.04"
       x2="11.34"
       y2="18.639999"
       gradientUnits="userSpaceOnUse">
      <stop
         offset="0"
         stop-color="#af9420"
         id="stop9" />
      <stop
         offset="1"
         stop-color="#99841c"
         id="stop11" />
    </linearGradient>
  </defs>
  <title
     id="title16">polyAsset 2</title>
  <g
     id="Layer_2"
     data-name="Layer 2"
     transform="scale(1.3331666)"
     style="opacity:0.5">
    <g
       id="New_Jacks"
       data-name="New Jacks"
       style="">
      <circle
         class="cls-1"
         cx="11.34"
         cy="11.34"
         r="11.2"
         id="circle18"
         style="fill:url(#linear-gradient)" />
      <path
         class="cls-2"
         d="M 11.34,0.28 A 11.06,11.06 0 1 1 0.28,11.34 11.07,11.07 0 0 1 11.34,0.28 M 11.34,0 A 11.34,11.34 0 1 0 22.68,11.34 11.34,11.34 0 0 0 11.34,0 Z"
         id="path20"
         inkscape:connector-curvature="0"
         style="fill:#828282" />
      <path
         class="cls-3"
         d="M 11.34,19.7 A 8.36,8.36 0 1 1 19.7,11.34 8.37,8.37 0 0 1 11.34,19.7 Z"
         id="path22"
         inkscape:connector-curvature="0"
         style="fill:#1e1e1e" />
      <path
         class="cls-4"
         d="m 11.34,3.12 a 8.22,8.22 0 1 1 -8.22,8.22 8.23,8.23 0 0 1 8.22,-8.22 m 0,-0.29 a 8.51,8.51 0 1 0 8.5,8.51 8.51,8.51 0 0 0 -8.5,-8.51 z"
         id="path24"
         inkscape:connector-curvature="0"
         style="fill:#878787" />
      <circle
         class="cls-5"
         cx="11.34"
         cy="11.34"
         r="7.3000002"
         id="circle26"
         style="fill:url(#linear-gradient-2)" />
      <circle
         cx="11.34"
         cy="11.34"
         r="5.0999999"
         id="circle28"
         style="" />
      <rect
         class="cls-2"
         x="21.190001"
         y="10.79"
         width="0.69999999"
         height="1.2"
         id="rect30"
         style="fill:#828282" />
      <polygon
         class="cls-2"
         points="20.66,12.53 22.42,12.53 22.42,10.26 20.66,10.26 "
         id="polygon32"
         style="fill:#828282" />
      <rect
         class="cls-2"
         x="0.81"
         y="10.79"
         width="0.69999999"
         height="1.2"
         id="rect34"
         style="fill:#828282" />
      <polygon
         class="cls-2"
         points="0.28,12.53 2.04,12.53 2.04,10.26 0.28,10.26 "
         id="polygon36"
         style="fill:#828282" />
    </g>
  </g>
</svg>
