<?xml version="1.0" encoding="UTF-8" standalone="no"?>
<svg xmlns:dc="http://purl.org/dc/elements/1.1/" xmlns:cc="http://creativecommons.org/ns#" xmlns:rdf="http://www.w3.org/1999/02/22-rdf-syntax-ns#" xmlns:svg="http://www.w3.org/2000/svg" xmlns="http://www.w3.org/2000/svg" xmlns:sodipodi="http://sodipodi.sourceforge.net/DTD/sodipodi-0.dtd" xmlns:inkscape="http://www.inkscape.org/namespaces/inkscape" width="7.5mm" height="7.5mm" viewBox="0 0 28.346456 28.346456" version="1.1" id="svg2066" sodipodi:docname="knob-blue-7.5.svg" inkscape:version="1.0 (4035a4f, 2020-05-01)">
  <metadata id="metadata2072">
    <rdf:RDF>
      <cc:Work rdf:about="">
        <dc:format>image/svg+xml</dc:format>
        <dc:type rdf:resource="http://purl.org/dc/dcmitype/StillImage" />
        <dc:title></dc:title>
      </cc:Work>
    </rdf:RDF>
  </metadata>
  <defs id="defs2070" />
  <sodipodi:namedview inkscape:document-rotation="0" pagecolor="#ffffff" bordercolor="#666666" borderopacity="1" objecttolerance="10" gridtolerance="10" guidetolerance="10" inkscape:pageopacity="0" inkscape:pageshadow="2" inkscape:window-width="1942" inkscape:window-height="1333" id="namedview2068" showgrid="false" inkscape:document-units="mm" units="mm" inkscape:zoom="27.72041" inkscape:cx="-2.9294744" inkscape:cy="10.62992" inkscape:window-x="466" inkscape:window-y="156" inkscape:window-maximized="0" inkscape:current-layer="svg2066" />
  <path id="path2049" style="opacity:0.83;fill:#000000;fill-opacity:1;stroke-width:1.33333" d="M 14.173228,0.94488012 A 13.228348,13.228348 0 1 1 0.94488012,14.173228 13.243335,13.243335 0 0 1 14.173228,0.94488012 M 14.173228,0 A 14.173228,14.173228 0 1 0 28.346457,14.173228 14.173228,14.173228 0 0 0 14.173228,0 Z" />
  <path d="M 14.138188,0.94508012 A 13.228402,13.228402 0 1 0 27.401203,14.138855 13.228442,13.228442 0 0 0 14.138188,0.94508012 Z M 14.173255,25.133896 A 10.960655,10.960655 0 1 1 25.13387,14.173202 10.960748,10.960748 0 0 1 14.173255,25.133896 Z" style="opacity:0.82;fill:#0a0a0a;stroke-width:1.33333;fill-opacity:1" id="path2053" />
  <path d="M 24.566936,14.173228 A 10.393708,10.393708 0 0 1 14.173228,24.566936 10.393708,10.393708 0 0 1 3.7795205,14.173228 10.393708,10.393708 0 0 1 14.173228,3.7795205 10.393708,10.393708 0 0 1 24.566936,14.173228" style="opacity:0.75;fill:#141414;stroke-width:1.33333;fill-opacity:1" id="circle2055" />
  <g id="g2059" style="opacity:0.7;fill:#0f0f0f;fill-opacity:1" transform="scale(1.3333335)">
    <path id="path2057" style="fill:#0f0f0f;fill-opacity:1" d="m 10.62992,2.83464 a 7.79528,7.79528 0 1 1 -7.79528,7.79528 7.79529,7.79529 0 0 1 7.79528,-7.79528 m 0,-0.4252 a 8.22048,8.22048 0 1 0 8.22048,8.22048 8.22979,8.22979 0 0 0 -8.22048,-8.22048 z" />
  </g>
  <path id="path10" d="m 14.760749,2.1121469 v 0 A 0.58745341,0.58745341 0 0 0 14.186082,1.5122135 q -0.01267,-2.533e-4 -0.02533,0 a 0.60000007,0.60000007 0 0 0 -0.59992,0.5999334 L 12.498455,13.848148 a 1.7122935,1.7122935 0 0 0 3.424574,0 z" style="fill:#71a0ff;stroke-width:1.33333;fill-opacity:1" />
</svg>
