<?xml version="1.0" encoding="UTF-8" standalone="no"?>
<svg xmlns:dc="http://purl.org/dc/elements/1.1/" xmlns:cc="http://creativecommons.org/ns#" xmlns:rdf="http://www.w3.org/1999/02/22-rdf-syntax-ns#" xmlns:svg="http://www.w3.org/2000/svg" xmlns="http://www.w3.org/2000/svg" xmlns:sodipodi="http://sodipodi.sourceforge.net/DTD/sodipodi-0.dtd" xmlns:inkscape="http://www.inkscape.org/namespaces/inkscape" inkscape:version="1.0 (4035a4f, 2020-05-01)" sodipodi:docname="knob-red_1.svg" id="svg844" version="1.1" viewBox="0 0 28.346457 28.346457" height="7.5mm" width="7.5mm">
  <metadata id="metadata850">
    <rdf:RDF>
      <cc:Work rdf:about="">
        <dc:format>image/svg+xml</dc:format>
        <dc:type rdf:resource="http://purl.org/dc/dcmitype/StillImage" />
        <dc:title></dc:title>
      </cc:Work>
    </rdf:RDF>
  </metadata>
  <defs id="defs848" />
  <sodipodi:namedview inkscape:current-layer="svg844" inkscape:window-maximized="0" inkscape:window-y="189" inkscape:window-x="9" inkscape:cy="10.629915" inkscape:cx="10.629915" inkscape:zoom="31.420759" units="mm" inkscape:document-units="mm" showgrid="false" id="namedview846" inkscape:window-height="1302" inkscape:window-width="1824" inkscape:pageshadow="2" inkscape:pageopacity="0" guidetolerance="10" gridtolerance="10" objecttolerance="10" borderopacity="1" bordercolor="#666666" pagecolor="#ffffff" />
  <path id="path833" style="opacity:0.83;fill:#1a1a1a;stroke-width:1.33333" d="M 14.173258,0 A 14.173228,14.173228 0 1 0 28.346447,14.173175 14.173188,14.173188 0 0 0 14.173258,0 Z m 0,27.401537 A 13.228362,13.228362 0 1 1 27.40162,14.173175 13.228348,13.228348 0 0 1 14.173258,27.401537 Z" />
  <path id="path835" style="opacity:0.65;fill:#1a1a1a;stroke-width:1.33333" d="M 14.138192,0.94506678 A 13.228402,13.228402 0 1 0 27.401207,14.138842 13.228415,13.228415 0 0 0 14.138192,0.94506678 Z M 14.173258,25.13387 A 10.960655,10.960655 0 1 1 25.133873,14.173175 10.960748,10.960748 0 0 1 14.173258,25.13387 Z" />
  <path id="path837" style="opacity:0.5;fill:#333333;stroke-width:1.33333" d="M 14.173338,3.2124804 A 10.960655,10.960655 0 1 0 25.133953,14.173095 10.960681,10.960681 0 0 0 14.173338,3.2124804 Z m 0,21.3543356 A 10.393721,10.393721 0 1 1 24.56698,14.173095 10.393681,10.393681 0 0 1 14.173338,24.566816 Z" />
  <circle id="circle839" style="opacity:0.85;fill:#232323;stroke-width:1.33333" r="10.393708" cy="14.173216" cx="14.173232" />
  <path style="fill:#db4155;stroke-width:1.33333" d="m 14.760752,2.1121336 v 0 A 0.58742674,0.58742674 0 0 0 14.186085,1.5121335 q -0.01267,-2.533e-4 -0.02533,0 a 0.60000007,0.60000007 0 0 0 -0.59992,0.6000001 L 12.498458,13.848135 a 1.7122935,1.7122935 0 0 0 3.424574,0 z" id="path10" />
</svg>
