<?xml version="1.0" encoding="UTF-8" standalone="no"?>
<svg xmlns:dc="http://purl.org/dc/elements/1.1/" xmlns:cc="http://creativecommons.org/ns#" xmlns:rdf="http://www.w3.org/1999/02/22-rdf-syntax-ns#" xmlns:svg="http://www.w3.org/2000/svg" xmlns="http://www.w3.org/2000/svg" xmlns:sodipodi="http://sodipodi.sourceforge.net/DTD/sodipodi-0.dtd" xmlns:inkscape="http://www.inkscape.org/namespaces/inkscape" width="7.5mm" height="7.5mm" viewBox="0 0 28.346456 28.346456" version="1.1" id="svg875" sodipodi:docname="knob-red-7.5.svg" inkscape:version="1.0 (4035a4f, 2020-05-01)">
  <metadata id="metadata881">
    <rdf:RDF>
      <cc:Work rdf:about="">
        <dc:format>image/svg+xml</dc:format>
        <dc:type rdf:resource="http://purl.org/dc/dcmitype/StillImage" />
        <dc:title></dc:title>
      </cc:Work>
    </rdf:RDF>
  </metadata>
  <defs id="defs879" />
  <sodipodi:namedview inkscape:document-rotation="0" pagecolor="#ffffff" bordercolor="#666666" borderopacity="1" objecttolerance="10" gridtolerance="10" guidetolerance="10" inkscape:pageopacity="0" inkscape:pageshadow="2" inkscape:window-width="1495" inkscape:window-height="1086" id="namedview877" showgrid="false" inkscape:document-units="mm" units="mm" inkscape:zoom="19.593693" inkscape:cx="10.62992" inkscape:cy="10.62992" inkscape:window-x="174" inkscape:window-y="351" inkscape:window-maximized="0" inkscape:current-layer="svg875" />
  <g style="fill:#0a0a0a;fill-opacity:1" transform="scale(1.3333335)" id="outside">
    <g id="g860" style="opacity:0.9;fill:#0a0a0a;fill-opacity:1">
      <path id="path858" style="fill:#0a0a0a;fill-opacity:1" d="M 10.62992,1 A 9.62992,9.62992 0 1 1 1,10.62992 9.64082,9.64082 0 0 1 10.62992,1 m 0,-1 A 10.62992,10.62992 0 1 0 21.25984,10.62992 10.62992,10.62992 0 0 0 10.62992,0 Z" />
    </g>
  </g>
  <circle r="10.96063" id="circle863" style="opacity:0.8;fill:#141414;fill-opacity:1;stroke-width:1.33333" cy="14.173227" cx="14.173227" />
  <g transform="scale(1.3333335)" id="g867" style="opacity:0.65;fill:#0f0f0f;fill-opacity:1">
    <path id="path865" style="fill:#0f0f0f;fill-opacity:1" d="m 10.62992,2.40945 a 8.22047,8.22047 0 1 1 -8.22047,8.22047 8.22047,8.22047 0 0 1 8.22047,-8.22047 m 0,-1.45 a 9.67047,9.67047 0 1 0 9.67047,9.67047 9.68142,9.68142 0 0 0 -9.67047,-9.67047 z" />
  </g>
  <g style="fill:#db4155;fill-opacity:1" transform="scale(1.3333335)" id="pointer">
    <path style="fill:#db4155;fill-opacity:1" d="m 11.07056,1.58411 v 0 a 0.44059,0.44059 0 0 0 -0.431,-0.44995 q -0.0095,-1.9e-4 -0.019,0 a 0.45,0.45 0 0 0 -0.44994,0.44995 l -0.79678,8.802 a 1.28422,1.28422 0 0 0 2.56843,0 z" id="path10" />
  </g>
</svg>
