<?xml version="1.0" encoding="UTF-8" standalone="no"?>
<svg xmlns:dc="http://purl.org/dc/elements/1.1/" xmlns:cc="http://creativecommons.org/ns#" xmlns:rdf="http://www.w3.org/1999/02/22-rdf-syntax-ns#" xmlns:svg="http://www.w3.org/2000/svg" xmlns="http://www.w3.org/2000/svg" xmlns:sodipodi="http://sodipodi.sourceforge.net/DTD/sodipodi-0.dtd" xmlns:inkscape="http://www.inkscape.org/namespaces/inkscape" inkscape:version="1.0 (4035a4f, 2020-05-01)" sodipodi:docname="knob-red-8.svg" id="svg875" version="1.1" viewBox="0 0 30.23622 30.23622" height="8mm" width="8mm">
  <metadata id="metadata881">
    <rdf:RDF>
      <cc:Work rdf:about="">
        <dc:format>image/svg+xml</dc:format>
        <dc:type rdf:resource="http://purl.org/dc/dcmitype/StillImage" />
        <dc:title></dc:title>
      </cc:Work>
    </rdf:RDF>
  </metadata>
  <defs id="defs879" />
  <sodipodi:namedview inkscape:current-layer="svg875" inkscape:window-maximized="0" inkscape:window-y="159" inkscape:window-x="687" inkscape:cy="10.62992" inkscape:cx="12.594838" inkscape:zoom="19.593693" units="mm" inkscape:document-units="mm" showgrid="false" id="namedview877" inkscape:window-height="1086" inkscape:window-width="1495" inkscape:pageshadow="2" inkscape:pageopacity="0" guidetolerance="10" gridtolerance="10" objecttolerance="10" borderopacity="1" bordercolor="#666666" pagecolor="#ffffff" inkscape:document-rotation="0" />
  <g id="outside" transform="scale(1.4222223)" style="fill:#0a0a0a;fill-opacity:1">
    <g style="opacity:0.9;fill:#0a0a0a;fill-opacity:1" id="g860">
      <path d="M 10.62992,1 A 9.62992,9.62992 0 1 1 1,10.62992 9.64082,9.64082 0 0 1 10.62992,1 m 0,-1 A 10.62992,10.62992 0 1 0 21.25984,10.62992 10.62992,10.62992 0 0 0 10.62992,0 Z" style="fill:#0a0a0a;fill-opacity:1" id="path858" />
    </g>
  </g>
  <circle cx="15.118109" cy="15.118109" style="opacity:0.8;fill:#141414;fill-opacity:1;stroke-width:1.42222" id="circle863" r="11.691339" />
  <g style="opacity:0.65;fill:#0f0f0f;fill-opacity:1" id="g867" transform="scale(1.4222223)">
    <path d="m 10.62992,2.40945 a 8.22047,8.22047 0 1 1 -8.22047,8.22047 8.22047,8.22047 0 0 1 8.22047,-8.22047 m 0,-1.45 a 9.67047,9.67047 0 1 0 9.67047,9.67047 9.68142,9.68142 0 0 0 -9.67047,-9.67047 z" style="fill:#0f0f0f;fill-opacity:1" id="path865" />
  </g>
  <g id="pointer" transform="scale(1.4222223)" style="fill:#de3d2e;fill-opacity:1">
    <path id="path10" d="m 11.07056,1.58411 v 0 a 0.44059,0.44059 0 0 0 -0.431,-0.44995 q -0.0095,-1.9e-4 -0.019,0 a 0.45,0.45 0 0 0 -0.44994,0.44995 l -0.79678,8.802 a 1.28422,1.28422 0 0 0 2.56843,0 z" style="fill:#de3d2e;fill-opacity:1" />
  </g>
</svg>
