<?xml version="1.0" encoding="UTF-8" standalone="no"?>
<svg xmlns:dc="http://purl.org/dc/elements/1.1/" xmlns:cc="http://creativecommons.org/ns#" xmlns:rdf="http://www.w3.org/1999/02/22-rdf-syntax-ns#" xmlns:svg="http://www.w3.org/2000/svg" xmlns="http://www.w3.org/2000/svg" xmlns:sodipodi="http://sodipodi.sourceforge.net/DTD/sodipodi-0.dtd" xmlns:inkscape="http://www.inkscape.org/namespaces/inkscape" inkscape:version="1.0 (4035a4f, 2020-05-01)" sodipodi:docname="knob-red-7.5.svg" id="svg844" version="1.1" viewBox="0 0 28.346457 28.346457" height="7.5mm" width="7.5mm">
  <metadata id="metadata850">
    <rdf:RDF>
      <cc:Work rdf:about="">
        <dc:format>image/svg+xml</dc:format>
        <dc:type rdf:resource="http://purl.org/dc/dcmitype/StillImage" />
        <dc:title></dc:title>
      </cc:Work>
    </rdf:RDF>
  </metadata>
  <defs id="defs848" />
  <sodipodi:namedview inkscape:current-layer="svg844" inkscape:window-maximized="0" inkscape:window-y="23" inkscape:window-x="0" inkscape:cy="10.629915" inkscape:cx="10.629915" inkscape:zoom="31.420759" units="mm" inkscape:document-units="mm" showgrid="false" id="namedview846" inkscape:window-height="1215" inkscape:window-width="1607" inkscape:pageshadow="2" inkscape:pageopacity="0" guidetolerance="10" gridtolerance="10" objecttolerance="10" borderopacity="1" bordercolor="#666666" pagecolor="#ffffff" />
  <g transform="matrix(1.3333335,0,0,1.3333335,3.33331e-6,0)" data-name="Layer 2" id="Layer_2">
    <g data-name="knob original copy" id="knob_original_copy">
      <path id="path833" style="opacity:0.74" d="M 10.62994,0 A 10.62992,10.62992 0 1 0 21.25983,10.62988 10.62989,10.62989 0 0 0 10.62994,0 Z m 0,20.55115 a 9.92127,9.92127 0 1 1 9.92127,-9.92127 9.92126,9.92126 0 0 1 -9.92127,9.92127 z" />
      <path id="path835" style="opacity:0.65;fill:#1a1a1a" d="M 10.60364,0.7088 A 9.9213,9.9213 0 1 0 20.5509,10.60413 9.92131,9.92131 0 0 0 10.60364,0.7088 Z m 0.0263,18.1416 a 8.22049,8.22049 0 1 1 8.22046,-8.22052 8.22056,8.22056 0 0 1 -8.22046,8.22052 z" />
      <path id="path837" style="opacity:0.5;fill:#333333" d="M 10.63,2.40936 A 8.22049,8.22049 0 1 0 18.85046,10.62982 8.22051,8.22051 0 0 0 10.63,2.40936 Z m 0,16.01575 A 7.79529,7.79529 0 1 1 18.42523,10.62982 7.79526,7.79526 0 0 1 10.63,18.42511 Z" />
      <circle id="circle839" style="opacity:0.85;fill:#232323" r="7.79528" cy="10.62991" cx="10.62992" />
      <path style="fill:#db4155" d="m 11.07056,1.5841 v 0 a 0.44057,0.44057 0 0 0 -0.431,-0.45 q -0.0095,-1.9e-4 -0.019,0 a 0.45,0.45 0 0 0 -0.44994,0.45 l -0.79678,8.802 a 1.28422,1.28422 0 0 0 2.56843,0 z" id="path10" />
    </g>
  </g>
</svg>
