<?xml version="1.0" encoding="UTF-8" standalone="no"?>
<svg
   inkscape:version="1.1.1 (3bf5ae0d25, 2021-09-20)"
   sodipodi:docname="logo.svg"
   id="svg1018"
   version="1.1"
   viewBox="0 0 58.287875 16.474961"
   height="4.3590002mm"
   width="15.422mm"
   xmlns:inkscape="http://www.inkscape.org/namespaces/inkscape"
   xmlns:sodipodi="http://sodipodi.sourceforge.net/DTD/sodipodi-0.dtd"
   xmlns="http://www.w3.org/2000/svg"
   xmlns:svg="http://www.w3.org/2000/svg"
   xmlns:rdf="http://www.w3.org/1999/02/22-rdf-syntax-ns#"
   xmlns:cc="http://creativecommons.org/ns#"
   xmlns:dc="http://purl.org/dc/elements/1.1/">
  <metadata
     id="metadata1022">
    <rdf:RDF>
      <cc:Work
         rdf:about="">
        <dc:format>image/svg+xml</dc:format>
        <dc:type
           rdf:resource="http://purl.org/dc/dcmitype/StillImage" />
      </cc:Work>
    </rdf:RDF>
  </metadata>
  <sodipodi:namedview
     inkscape:current-layer="svg1018"
     inkscape:window-maximized="0"
     inkscape:window-y="32"
     inkscape:window-x="36"
     inkscape:cy="93.01379"
     inkscape:cx="57.431334"
     inkscape:zoom="1.601913"
     inkscape:document-units="mm"
     units="mm"
     showgrid="false"
     id="namedview1020"
     inkscape:window-height="986"
     inkscape:window-width="1761"
     inkscape:pageshadow="2"
     inkscape:pageopacity="0"
     guidetolerance="10"
     gridtolerance="10"
     objecttolerance="10"
     borderopacity="1"
     bordercolor="#666666"
     pagecolor="#ffffff"
     inkscape:pagecheckerboard="0" />
  <defs
     id="defs838">
    <linearGradient
       gradientUnits="userSpaceOnUse"
       y2="349.56036"
       x2="40.935059"
       y1="349.56036"
       x1="21.08536"
       id="linear-gradient">
      <stop
         id="stop833"
         stop-color="#3fa9f5"
         offset="0" />
      <stop
         id="stop835"
         stop-color="#ed1e79"
         offset="1" />
    </linearGradient>
  </defs>
  <g
     id="g894"
     transform="matrix(1.3333333,0,0,1.3333333,-28.113976,-457.84259)">
    <path
       id="path842"
       style="fill:url(#linear-gradient)"
       d="m 21.59961,355.73828 a 0.51442,0.51442 0 0 1 -0.44971,-0.76367 l 6.27344,-11.32617 a 0.50806,0.50806 0 0 1 0.5791,-0.249 0.51454,0.51454 0 0 1 0.38574,0.49805 v 9.334 l 5.3086,-9.583 a 0.5078,0.5078 0 0 1 0.5791,-0.249 0.51454,0.51454 0 0 1 0.38574,0.49805 v 9.334 l 5.30859,-9.583 a 0.50807,0.50807 0 0 1 0.57911,-0.249 0.51454,0.51454 0 0 1 0.38574,0.49805 v 11.32617 a 0.51465,0.51465 0 0 1 -1.0293,0 v -9.334 l -5.30859,9.583 a 0.50876,0.50876 0 0 1 -0.5791,0.249 0.51453,0.51453 0 0 1 -0.38575,-0.498 v -9.334 l -5.30859,9.583 a 0.50876,0.50876 0 0 1 -0.5791,0.249 0.51452,0.51452 0 0 1 -0.38574,-0.498 v -9.334 l -5.3086,9.583 a 0.51386,0.51386 0 0 1 -0.45068,0.26552 z" />
    <g
       id="g892">
      <g
         id="g848">
        <path
           id="path844"
           style="fill:#808080"
           d="m 43.42765,343.89506 a 0.49794,0.49794 0 0 1 0.50165,-0.5 h 0.10532 a 0.52451,0.52451 0 0 1 0.461,0.26622 l 1.71561,2.678 1.72375,-2.68608 a 0.50112,0.50112 0 0 1 0.45332,-0.25811 h 0.10532 a 0.49794,0.49794 0 0 1 0.50165,0.5 v 4.72663 a 0.49161,0.49161 0 0 1 -0.50165,0.49239 0.50029,0.50029 0 0 1 -0.49352,-0.49239 v -3.38742 l -1.38388,2.073 a 0.46581,0.46581 0 0 1 -0.8339,0 L 44.40654,345.25 v 3.37978 a 0.483,0.483 0 0 1 -0.49352,0.48428 0.4761,0.4761 0 0 1 -0.48537,-0.48428 z" />
        <path
           id="path846"
           style="fill:#b3b3b3"
           d="m 48.49358,343.39508 h -0.10532 a 0.50111,0.50111 0 0 0 -0.45332,0.25809 l -1.72376,2.68609 -1.7156,-2.678 a 0.5245,0.5245 0 0 0 -0.461,-0.26621 H 43.9293 a 0.49793,0.49793 0 0 0 -0.50165,0.5 v 4.73474 a 0.47609,0.47609 0 0 0 0.48537,0.48428 0.483,0.483 0 0 0 0.49352,-0.48428 V 345.25 l 1.37574,2.05728 a 0.46583,0.46583 0 0 0 0.8339,0 l 1.38388,-2.073 v 3.38739 a 0.50028,0.50028 0 0 0 0.49352,0.4924 0.4916,0.4916 0 0 0 0.50165,-0.4924 v -4.72662 a 0.49793,0.49793 0 0 0 -0.50165,-0.5 z" />
      </g>
      <g
         id="g854">
        <path
           id="path850"
           style="fill:#808080"
           d="m 50.10743,343.87883 a 0.49762,0.49762 0 0 1 0.99517,0 v 4.74286 a 0.49761,0.49761 0 0 1 -0.99517,0 z" />
        <path
           id="path852"
           style="fill:#b3b3b3"
           d="m 50.60909,343.387 a 0.49151,0.49151 0 0 0 -0.50166,0.49189 v 4.74282 a 0.49762,0.49762 0 0 0 0.99518,0 v -4.74282 A 0.48963,0.48963 0 0 0 50.60909,343.387 Z" />
      </g>
      <g
         id="g860">
        <path
           id="path856"
           style="fill:#808080"
           d="m 52.21226,343.89506 a 0.49794,0.49794 0 0 1 0.50165,-0.5 h 0.10532 a 0.628,0.628 0 0 1 0.51794,0.29056 l 2.83238,3.65362 v -3.46853 a 0.48948,0.48948 0 0 1 0.9789,0 v 4.74285 a 0.4829,0.4829 0 0 1 -0.48538,0.49239 h -0.0407 a 0.62761,0.62761 0 0 1 -0.51794,-0.29868 l -2.91328,-3.75858 v 3.5811 a 0.48947,0.48947 0 0 1 -0.97889,0 z" />
        <path
           id="path858"
           style="fill:#b3b3b3"
           d="m 56.65493,343.387 a 0.48613,0.48613 0 0 0 -0.48538,0.48377 v 3.4685 l -2.83238,-3.65359 a 0.628,0.628 0 0 0 -0.51794,-0.29056 h -0.10532 a 0.49794,0.49794 0 0 0 -0.50166,0.5 v 4.73474 a 0.48948,0.48948 0 0 0 0.9789,0 v -3.58108 l 2.91328,3.75857 a 0.6276,0.6276 0 0 0 0.51794,0.29868 h 0.0407 a 0.48289,0.48289 0 0 0 0.48537,-0.49237 v -4.74286 a 0.48793,0.48793 0 0 0 -0.49351,-0.48377 z" />
      </g>
      <g
         id="g866">
        <path
           id="path862"
           style="fill:#808080"
           d="m 58.20417,343.92752 a 0.49294,0.49294 0 0 1 0.50165,-0.5 h 1.6103 a 2.81927,2.81927 0 0 1 3.01045,2.80677 v 0.0162 a 2.832,2.832 0 0 1 -3.01045,2.823 h -1.6103 a 0.493,0.493 0 0 1 -0.50165,-0.5 z m 2.112,4.24235 a 1.84312,1.84312 0 0 0 1.96643,-1.90313 v -0.0162 a 1.85607,1.85607 0 0 0 -1.96643,-1.91985 h -1.11683 v 3.83921 z" />
        <path
           id="path864"
           style="fill:#b3b3b3"
           d="m 60.31612,343.42752 h -1.61029 a 0.49294,0.49294 0 0 0 -0.50166,0.5 v 4.646 a 0.493,0.493 0 0 0 0.50166,0.5 h 1.61029 a 2.832,2.832 0 0 0 3.01045,-2.823 v -0.0162 a 2.81927,2.81927 0 0 0 -3.01045,-2.80676 z m -1.11678,4.74234 v -3.8392 h 1.11678 a 1.85608,1.85608 0 0 1 1.96644,1.91986 v 0.0162 a 1.84311,1.84311 0 0 1 -1.96644,1.90311 z" />
      </g>
      <g
         id="g872">
        <path
           id="path868"
           style="fill:#808080"
           d="m 43.42765,350.50706 a 0.49794,0.49794 0 0 1 0.50165,-0.5 h 0.10532 a 0.52451,0.52451 0 0 1 0.461,0.26622 l 1.71561,2.678 1.72375,-2.68608 a 0.50112,0.50112 0 0 1 0.45332,-0.25811 h 0.10532 a 0.49794,0.49794 0 0 1 0.50165,0.5 v 4.72663 a 0.4916,0.4916 0 0 1 -0.50165,0.49239 0.50029,0.50029 0 0 1 -0.49352,-0.49239 v -3.38742 l -1.38388,2.073 a 0.46581,0.46581 0 0 1 -0.8339,0 l -1.37578,-2.0573 v 3.37978 a 0.483,0.483 0 0 1 -0.49352,0.48428 0.4761,0.4761 0 0 1 -0.48537,-0.48428 z" />
        <path
           id="path870"
           style="fill:#b3b3b3"
           d="m 48.49358,350.00708 h -0.10532 a 0.50109,0.50109 0 0 0 -0.45332,0.25809 l -1.72376,2.68609 -1.7156,-2.678 a 0.52451,0.52451 0 0 0 -0.461,-0.2662 H 43.9293 a 0.49793,0.49793 0 0 0 -0.50165,0.5 v 4.73474 a 0.47609,0.47609 0 0 0 0.48537,0.48428 0.483,0.483 0 0 0 0.49352,-0.48428 v -3.3798 l 1.37574,2.05728 a 0.46583,0.46583 0 0 0 0.8339,0 l 1.38388,-2.073 v 3.38739 a 0.50028,0.50028 0 0 0 0.49352,0.49237 0.49159,0.49159 0 0 0 0.50165,-0.49237 v -4.72665 a 0.49793,0.49793 0 0 0 -0.50165,-0.5 z" />
      </g>
      <g
         id="g878">
        <path
           id="path874"
           style="fill:#808080"
           d="m 50.051,355.18551 v -4.646 a 0.493,0.493 0 0 1 0.50166,-0.5 h 3.29385 a 0.44769,0.44769 0 0 1 0.44467,0.4432 0.44255,0.44255 0 0 1 -0.44467,0.44371 h -2.80038 v 1.468 h 2.436 a 0.4503,0.4503 0 0 1 0.44519,0.45182 0.44166,0.44166 0 0 1 -0.44519,0.43559 h -2.436 v 1.51621 h 2.84052 a 0.44859,0.44859 0 0 1 0.44519,0.44371 0.44331,0.44331 0 0 1 -0.44519,0.44371 h -3.334 A 0.493,0.493 0 0 1 50.051,355.18551 Z" />
        <path
           id="path876"
           style="fill:#b3b3b3"
           d="m 53.84645,350.03952 h -3.29383 a 0.493,0.493 0 0 0 -0.50167,0.5 v 4.646 a 0.493,0.493 0 0 0 0.50167,0.5 h 3.334 a 0.44333,0.44333 0 0 0 0.44519,-0.44373 0.44857,0.44857 0 0 0 -0.44519,-0.44369 h -2.84049 v -1.51621 h 2.436 a 0.44166,0.44166 0 0 0 0.44518,-0.43561 0.45028,0.45028 0 0 0 -0.44518,-0.45181 h -2.436 v -1.46805 h 2.80032 a 0.44254,0.44254 0 0 0 0.44468,-0.44369 0.4477,0.4477 0 0 0 -0.44468,-0.44321 z" />
      </g>
      <g
         id="g884">
        <path
           id="path880"
           style="fill:#808080"
           d="m 55.07059,350.49084 a 0.49762,0.49762 0 0 1 0.99517,0 v 4.29153 H 58.631 a 0.45157,0.45157 0 1 1 0,0.90314 h -3.05876 a 0.49294,0.49294 0 0 1 -0.50165,-0.5 z" />
        <path
           id="path882"
           style="fill:#b3b3b3"
           d="m 55.57224,349.999 a 0.4915,0.4915 0 0 0 -0.50166,0.49188 v 4.69468 a 0.493,0.493 0 0 0 0.50166,0.5 H 58.631 a 0.45157,0.45157 0 1 0 0,-0.90314 h -2.56524 v -4.29154 A 0.48963,0.48963 0 0 0 55.57224,349.999 Z" />
      </g>
      <g
         id="g890">
        <path
           id="path886"
           style="fill:#808080"
           d="m 59.6776,350.53952 a 0.493,0.493 0 0 1 0.50165,-0.5 h 1.61029 A 2.81928,2.81928 0 0 1 64.8,352.84629 v 0.0162 a 2.832,2.832 0 0 1 -3.01046,2.823 h -1.61029 a 0.49294,0.49294 0 0 1 -0.50165,-0.5 z m 2.11194,4.24285 a 1.8435,1.8435 0 0 0 1.96644,-1.90363 v -0.0162 a 1.85608,1.85608 0 0 0 -1.96644,-1.91986 h -1.11677 v 3.83971 z" />
        <path
           id="path888"
           style="fill:#b3b3b3"
           d="m 61.78954,350.03952 h -1.61029 a 0.493,0.493 0 0 0 -0.50165,0.5 v 4.646 a 0.493,0.493 0 0 0 0.50165,0.5 h 1.61029 a 2.832,2.832 0 0 0 3.01046,-2.823 v -0.0162 a 2.81927,2.81927 0 0 0 -3.01046,-2.80676 z m -1.11677,4.74286 v -3.83972 h 1.11677 a 1.85608,1.85608 0 0 1 1.96644,1.91986 v 0.0162 a 1.84351,1.84351 0 0 1 -1.96644,1.90363 z" />
      </g>
    </g>
  </g>
</svg>
