<?xml version="1.0" encoding="UTF-8" standalone="no"?>
<svg
   xmlns:dc="http://purl.org/dc/elements/1.1/"
   xmlns:cc="http://creativecommons.org/ns#"
   xmlns:rdf="http://www.w3.org/1999/02/22-rdf-syntax-ns#"
   xmlns:svg="http://www.w3.org/2000/svg"
   xmlns="http://www.w3.org/2000/svg"
   xmlns:sodipodi="http://sodipodi.sourceforge.net/DTD/sodipodi-0.dtd"
   xmlns:inkscape="http://www.inkscape.org/namespaces/inkscape"
   viewBox="0 0 36.472439 18.897638"
   version="1.1"
   id="svg20"
   sodipodi:docname="mono-off.svg"
   width="9.6499996mm"
   height="5mm"
   inkscape:version="0.92.2 5c3e80d, 2017-08-06">
  <metadata
     id="metadata24">
    <rdf:RDF>
      <cc:Work
         rdf:about="">
        <dc:format>image/svg+xml</dc:format>
        <dc:type
           rdf:resource="http://purl.org/dc/dcmitype/StillImage" />
        <dc:title>Asset 1</dc:title>
      </cc:Work>
    </rdf:RDF>
  </metadata>
  <sodipodi:namedview
     pagecolor="#ffffff"
     bordercolor="#666666"
     borderopacity="1"
     objecttolerance="10"
     gridtolerance="10"
     guidetolerance="10"
     inkscape:pageopacity="0"
     inkscape:pageshadow="2"
     inkscape:window-width="1326"
     inkscape:window-height="1051"
     id="namedview22"
     showgrid="false"
     inkscape:document-units="mm"
     units="mm"
     inkscape:zoom="10.530164"
     inkscape:cx="13.675"
     inkscape:cy="7.085"
     inkscape:window-x="0"
     inkscape:window-y="0"
     inkscape:window-maximized="0"
     inkscape:current-layer="svg20" />
  <defs
     id="defs4">
    <style
       id="style2">.cls-1{fill:#606060;}.cls-2{fill:#fff;}</style>
  </defs>
  <title
     id="title6">Asset 1</title>
  <g
     id="Layer_2"
     data-name="Layer 2"
     transform="matrix(1.3335444,0,0,1.3335444,0,-0.002021)">
    <g
       id="Mute_Solo"
       data-name="Mute/Solo">
      <rect
         class="cls-1"
         x="0.25"
         y="0.25"
         width="26.85"
         height="13.67"
         rx="1.34"
         id="rect8"
         style="fill:#606060" />
      <path
         d="m 25.76,0.5 a 1.09,1.09 0 0 1 1.09,1.09 v 11 a 1.09,1.09 0 0 1 -1.09,1.09 H 1.59 A 1.09,1.09 0 0 1 0.5,12.58 v -11 A 1.09,1.09 0 0 1 1.59,0.5 h 24.17 m 0,-0.5 H 1.59 A 1.6,1.6 0 0 0 0,1.59 v 11 a 1.59,1.59 0 0 0 1.59,1.59 h 24.17 a 1.59,1.59 0 0 0 1.59,-1.59 v -11 A 1.59,1.59 0 0 0 25.76,0 Z"
         id="path10"
         inkscape:connector-curvature="0" />
      <path
         class="cls-2"
         d="M 10.63,4.54 V 9.65 H 9.79 V 6 L 8.24,8.58 H 8.14 L 6.58,6 V 9.65 H 5.74 V 4.54 H 6.65 L 8.19,7.1 9.73,4.54 Z"
         id="path12"
         inkscape:connector-curvature="0"
         style="fill:#ffffff" />
      <path
         class="cls-2"
         d="M 14.13,9.75 A 2.57,2.57 0 0 1 12.25,9 2.6,2.6 0 0 1 11.48,7.12 2.65,2.65 0 0 1 16,5.22 2.54,2.54 0 0 1 16.78,7.1 2.65,2.65 0 0 1 14.13,9.75 Z m 0,-0.82 A 1.75,1.75 0 0 0 15.41,8.41 1.79,1.79 0 0 0 15.94,7.1 1.76,1.76 0 0 0 15.41,5.79 1.71,1.71 0 0 0 14.13,5.27 1.75,1.75 0 0 0 12.84,5.79 1.79,1.79 0 0 0 12.32,7.1 a 1.82,1.82 0 0 0 0.52,1.31 1.79,1.79 0 0 0 1.29,0.52 z"
         id="path14"
         inkscape:connector-curvature="0"
         style="fill:#ffffff" />
      <path
         class="cls-2"
         d="m 20.69,4.54 h 0.84 V 9.65 H 20.87 L 18.47,6.19 V 9.65 H 17.63 V 4.54 h 0.65 L 20.69,8 Z"
         id="path16"
         inkscape:connector-curvature="0"
         style="fill:#ffffff" />
    </g>
  </g>
</svg>
