<?xml version="1.0" encoding="utf-8"?>
<!-- Generator: Adobe Illustrator 23.0.3, SVG Export Plug-In . SVG Version: 6.00 Build 0)  -->
<svg version="1.0" xmlns="http://www.w3.org/2000/svg" xmlns:xlink="http://www.w3.org/1999/xlink" x="0px" y="0px"
	 width="27.35433px" height="14.17323px" viewBox="0 0 27.35433 14.17323" enable-background="new 0 0 27.35433 14.17323"
	 xml:space="preserve">
<g id="Layer_1">
</g>
<g id="Mute_x2F_Solo">
	<g>
		<g>
			<path fill="#D41308" d="M1.32617,13.82324c-0.53857,0-0.97656-0.4375-0.97656-0.97559V1.32617
				c0-0.53857,0.43799-0.97656,0.97656-0.97656h24.70215c0.53906,0,0.97656,0.43799,0.97656,0.97656v11.52148
				c0,0.53809-0.4375,0.97559-0.97656,0.97559H1.32617z"/>
			<path d="M26.02835,0.69886c0.3458,0,0.62713,0.28133,0.62713,0.62712v11.52126c0,0.34579-0.28133,0.62712-0.62713,0.62712
				H1.32599c-0.3458,0-0.62713-0.28133-0.62713-0.62712V1.32598c0-0.34579,0.28133-0.62712,0.62713-0.62712H26.02835 M26.02835,0
				H1.32599C0.5967,0,0,0.59669,0,1.32598v11.52126c0,0.72929,0.5967,1.32598,1.32599,1.32598h24.70236
				c0.72929,0,1.32599-0.59669,1.32599-1.32598V1.32598C27.35434,0.59669,26.75764,0,26.02835,0L26.02835,0z"/>
		</g>
		<g>
			<path fill="#FFFFFF" d="M16.58527,3.9685v6.30176h-0.99853V5.77807l-1.84912,3.16895h-0.12158l-1.84912-3.17773v4.50098h-0.99854
				V3.9685h1.07666l1.83154,3.15039L15.5174,3.9685H16.58527z"/>
		</g>
	</g>
	<g>
	</g>
	<g>
	</g>
	<g>
	</g>
	<g>
	</g>
	<g>
	</g>
	<g>
	</g>
	<g>
	</g>
	<g>
	</g>
	<g>
	</g>
	<g>
	</g>
	<g>
	</g>
	<g>
	</g>
	<g>
	</g>
	<g>
	</g>
	<g>
	</g>
</g>
</svg>
