<?xml version="1.0" encoding="UTF-8" standalone="no"?>
<!-- Generator: Adobe Illustrator 23.0.3, SVG Export Plug-In . SVG Version: 6.00 Build 0)  -->

<svg
   xmlns:dc="http://purl.org/dc/elements/1.1/"
   xmlns:cc="http://creativecommons.org/ns#"
   xmlns:rdf="http://www.w3.org/1999/02/22-rdf-syntax-ns#"
   xmlns:svg="http://www.w3.org/2000/svg"
   xmlns="http://www.w3.org/2000/svg"
   xmlns:sodipodi="http://sodipodi.sourceforge.net/DTD/sodipodi-0.dtd"
   xmlns:inkscape="http://www.inkscape.org/namespaces/inkscape"
   version="1.0"
   x="0px"
   y="0px"
   width="9.6499996mm"
   height="5mm"
   viewBox="0 0 36.472439 18.897638"
   enable-background="new 0 0 27.35433 14.17323"
   xml:space="preserve"
   id="svg46"
   sodipodi:docname="mute-off.svg"
   inkscape:version="0.92.2 5c3e80d, 2017-08-06"><metadata
     id="metadata52"><rdf:RDF><cc:Work
         rdf:about=""><dc:format>image/svg+xml</dc:format><dc:type
           rdf:resource="http://purl.org/dc/dcmitype/StillImage" /><dc:title></dc:title></cc:Work></rdf:RDF></metadata><defs
     id="defs50" /><sodipodi:namedview
     pagecolor="#ffffff"
     bordercolor="#666666"
     borderopacity="1"
     objecttolerance="10"
     gridtolerance="10"
     guidetolerance="10"
     inkscape:pageopacity="0"
     inkscape:pageshadow="2"
     inkscape:window-width="2331"
     inkscape:window-height="1098"
     id="namedview48"
     showgrid="false"
     inkscape:document-units="mm"
     units="mm"
     inkscape:zoom="29.779089"
     inkscape:cx="8.7889463"
     inkscape:cy="8.6970228"
     inkscape:window-x="0"
     inkscape:window-y="0"
     inkscape:window-maximized="0"
     inkscape:current-layer="svg46" /><g
     id="Layer_1"
     transform="translate(0,4.7244078)" /><g
     id="g869"><path
       d="m 1.768226,18.563801 c -0.79101306,0 -1.4348928,-0.643226 -1.4348928,-1.433599 V 1.7682344 c 0,-0.79101298 0.64387974,-1.43489272 1.4348928,-1.43489272 h 32.936187 c 0.791666,0 1.434893,0.64387974 1.434893,1.43489272 V 17.130202 c 0,0.790359 -0.643227,1.433599 -1.434893,1.433599 z"
       id="path3"
       inkscape:connector-curvature="0"
       style="fill:#606060;stroke-width:1.33333278;fill-opacity:1" /><path
       style="stroke-width:1.33333278"
       d="m 34.704453,0.66667488 c 0.607266,0 1.101319,0.49403982 1.101319,1.10130622 V 17.129655 c 0,0.607266 -0.494053,1.101306 -1.101319,1.101306 H 1.767986 c -0.6072665,0 -1.1013196,-0.49404 -1.1013196,-1.101306 V 1.7679811 c 0,-0.6072664 0.4940531,-1.10130622 1.1013196,-1.10130622 h 32.936467 m 0,-0.6666664029158 H 1.767986 C 0.79559968,8.4770842e-6 0,0.79559483 0,1.7679811 V 17.129655 c 0,0.972386 0.79559968,1.767973 1.767986,1.767973 h 32.936467 c 0.972386,0 1.767986,-0.795587 1.767986,-1.767973 V 1.7679811 c 0,-0.97238627 -0.7956,-1.7679726229158 -1.767986,-1.7679726229158 z"
       id="path5"
       inkscape:connector-curvature="0" /><g
       transform="matrix(1.3333328,0,0,1.3333328,0,8.4770842e-6)"
       id="g11"><path
         style="fill:#ffffff"
         inkscape:connector-curvature="0"
         id="path9"
         d="m 16.58527,3.9685 v 6.30176 H 15.58674 V 5.77807 L 13.73762,8.94702 H 13.61604 L 11.76692,5.76929 v 4.50098 H 10.76838 V 3.9685 h 1.07666 L 13.67658,7.11889 15.5174,3.9685 Z" /></g></g><g
     id="g15"
     transform="matrix(1.3333328,0,0,1.3333328,0,8.4770842e-6)" /><g
     id="g17"
     transform="matrix(1.3333328,0,0,1.3333328,0,8.4770842e-6)" /><g
     id="g19"
     transform="matrix(1.3333328,0,0,1.3333328,0,8.4770842e-6)" /><g
     id="g21"
     transform="matrix(1.3333328,0,0,1.3333328,0,8.4770842e-6)" /><g
     id="g23"
     transform="matrix(1.3333328,0,0,1.3333328,0,8.4770842e-6)" /><g
     id="g25"
     transform="matrix(1.3333328,0,0,1.3333328,0,8.4770842e-6)" /><g
     id="g27"
     transform="matrix(1.3333328,0,0,1.3333328,0,8.4770842e-6)" /><g
     id="g29"
     transform="matrix(1.3333328,0,0,1.3333328,0,8.4770842e-6)" /><g
     id="g31"
     transform="matrix(1.3333328,0,0,1.3333328,0,8.4770842e-6)" /><g
     id="g33"
     transform="matrix(1.3333328,0,0,1.3333328,0,8.4770842e-6)" /><g
     id="g35"
     transform="matrix(1.3333328,0,0,1.3333328,0,8.4770842e-6)" /><g
     id="g37"
     transform="matrix(1.3333328,0,0,1.3333328,0,8.4770842e-6)" /><g
     id="g39"
     transform="matrix(1.3333328,0,0,1.3333328,0,8.4770842e-6)" /><g
     id="g41"
     transform="matrix(1.3333328,0,0,1.3333328,0,8.4770842e-6)" /><g
     id="g43"
     transform="matrix(1.3333328,0,0,1.3333328,0,8.4770842e-6)" /></svg>