<?xml version="1.0" encoding="UTF-8" standalone="no"?>
<svg
   xmlns:dc="http://purl.org/dc/elements/1.1/"
   xmlns:cc="http://creativecommons.org/ns#"
   xmlns:rdf="http://www.w3.org/1999/02/22-rdf-syntax-ns#"
   xmlns:svg="http://www.w3.org/2000/svg"
   xmlns="http://www.w3.org/2000/svg"
   xmlns:sodipodi="http://sodipodi.sourceforge.net/DTD/sodipodi-0.dtd"
   xmlns:inkscape="http://www.inkscape.org/namespaces/inkscape"
   width="24"
   height="24"
   viewBox="0 0 6.35 6.35"
   version="1.1"
   id="svg8"
   sodipodi:docname="RoundSmallBlackKnob.svg"
   inkscape:version="0.92.3 (2405546, 2018-03-11)">
  <metadata
     id="metadata14">
    <rdf:RDF>
      <cc:Work
         rdf:about="">
        <dc:format>image/svg+xml</dc:format>
        <dc:type
           rdf:resource="http://purl.org/dc/dcmitype/StillImage" />
        <dc:title></dc:title>
      </cc:Work>
    </rdf:RDF>
  </metadata>
  <defs
     id="defs12" />
  <sodipodi:namedview
     pagecolor="#ffffff"
     bordercolor="#666666"
     borderopacity="1"
     objecttolerance="10"
     gridtolerance="10"
     guidetolerance="10"
     inkscape:pageopacity="0"
     inkscape:pageshadow="2"
     inkscape:window-width="1920"
     inkscape:window-height="1017"
     id="namedview10"
     showgrid="false"
     inkscape:zoom="13.906433"
     inkscape:cx="-2.6085831"
     inkscape:cy="18.421862"
     inkscape:window-x="-8"
     inkscape:window-y="-8"
     inkscape:window-maximized="1"
     inkscape:current-layer="svg8" />
  <path
     d="m 6.2698724,2.8464028 c -0.137,-0.221 -0.367,-0.438 -0.495,-0.748 -0.128,-0.308 -0.12,-0.624 -0.178,-0.875 a 3.123,3.123 0 0 0 -0.469,-0.469 c -0.252,-0.059 -0.566,-0.05 -0.875,-0.178 -0.311,-0.129 -0.528,-0.358 -0.748,-0.4950001 a 3.124,3.124 0 0 0 -0.658,0 c -0.221,0.1370001 -0.439,0.3660001 -0.749,0.4950001 -0.308,0.127 -0.623,0.12 -0.875,0.178 a 3.121,3.121 0 0 0 -0.469,0.468 c -0.058,0.252 -0.05,0.568 -0.179,0.876 -0.127,0.31 -0.357,0.527 -0.49400001,0.748 a 3.124,3.124 0 0 0 0,0.658 c 0.13700001,0.221 0.36600001,0.438 0.49400001,0.748 0.128,0.308 0.12,0.624 0.18,0.875 0.139,0.173 0.295,0.33 0.468,0.47 0.252,0.058 0.567,0.05 0.875,0.178 0.31,0.128 0.528,0.358 0.749,0.494 a 3.174,3.174 0 0 0 0.658,0 c 0.22,-0.137 0.437,-0.365 0.747,-0.494 0.31,-0.128 0.624,-0.12 0.876,-0.179 0.173,-0.139 0.33,-0.296 0.469,-0.468 0.059,-0.252 0.05,-0.568 0.178,-0.876 0.128,-0.31 0.358,-0.527 0.495,-0.748 a 3.19,3.19 0 0 0 0,-0.658"
     id="path2"
     inkscape:connector-curvature="0"
     style="fill-rule:evenodd;stroke:#787878;stroke-width:0.127;stroke-linecap:round;stroke-linejoin:round" />
  <circle
     r="2.4779999"
     cy="3.1754026"
     cx="3.1518724"
     id="circle4"
     style="fill:#464646;stroke:#595959;stroke-width:0.086" />
  <rect
     ry="0.26300001"
     y="0.069402792"
     x="2.9718723"
     height="2.596"
     width="0.368"
     rx="0.26300001"
     id="rect6"
     style="fill:#e7e7e7;stroke:#2b2b2b;stroke-width:0.133;stroke-linejoin:round" />
</svg>
