<?xml version="1.0" encoding="utf-8"?>
<!-- Generator: Adobe Illustrator 23.0.3, SVG Export Plug-In . SVG Version: 6.00 Build 0)  -->
<svg version="1.0" xmlns="http://www.w3.org/2000/svg" xmlns:xlink="http://www.w3.org/1999/xlink" x="0px" y="0px"
	 width="27.35433px" height="14.17323px" viewBox="0 0 27.35433 14.17323" enable-background="new 0 0 27.35433 14.17323"
	 xml:space="preserve">
<g id="Layer_1">
</g>
<g id="Mute_x2F_Solo">
	<g>
		<g>
			<path fill="#37A22B" d="M1.32617,13.92285c-0.59326,0-1.07617-0.48242-1.07617-1.0752V1.32617
				C0.25,0.73291,0.73291,0.25,1.32617,0.25h24.70215c0.59375,0,1.07617,0.48291,1.07617,1.07617v11.52148
				c0,0.59277-0.48242,1.0752-1.07617,1.0752H1.32617z"/>
			<g>
				<path d="M26.02835,0.5c0.45545,0,0.82599,0.37053,0.82599,0.82598v11.52126c0,0.45545-0.37054,0.82598-0.82599,0.82598H1.32599
					c-0.45545,0-0.82599-0.37053-0.82599-0.82598V1.32598C0.5,0.87053,0.87054,0.5,1.32599,0.5H26.02835 M26.02835,0H1.32599
					C0.5967,0,0,0.59669,0,1.32598v11.52126c0,0.72929,0.5967,1.32598,1.32599,1.32598h24.70236
					c0.72929,0,1.32599-0.59669,1.32599-1.32598V1.32598C27.35434,0.59669,26.75764,0,26.02835,0L26.02835,0z"/>
			</g>
		</g>
		<g>
			<path fill="#FFFFFF" d="M11.42678,8.95581l0.85938-0.52148c0.24316,0.71094,0.74658,1.06152,1.51074,1.06152
				c0.75537,0,1.12891-0.33301,1.12891-0.82812c0-0.26074-0.10449-0.4502-0.3042-0.58496s-0.56445-0.28809-1.07666-0.4502
				c-0.58154-0.17969-0.86816-0.29688-1.27588-0.57617c-0.39111-0.28809-0.59082-0.70215-0.59082-1.26953
				c0-0.55762,0.19141-0.99902,0.57324-1.32324c0.38184-0.33301,0.84229-0.49512,1.38037-0.49512
				c0.97266,0,1.72803,0.52246,2.11865,1.38672l-0.84229,0.50391c-0.25195-0.58496-0.67725-0.88184-1.27637-0.88184
				c-0.58154,0-0.95508,0.30566-0.95508,0.7832c0,0.46777,0.29541,0.68359,1.22412,0.98047
				c0.23486,0.08105,0.39941,0.13574,0.50391,0.18066c0.11279,0.03613,0.26025,0.09863,0.45117,0.17969
				c0.19971,0.08105,0.34766,0.1709,0.44287,0.25195c0.32129,0.26172,0.66846,0.69336,0.625,1.29688
				c0,0.56738-0.19971,1.02637-0.59863,1.35938c-0.39111,0.33301-0.91162,0.49512-1.5542,0.49512
				C12.59865,10.50464,11.74807,9.91968,11.42678,8.95581z"/>
		</g>
	</g>
	<g>
	</g>
	<g>
	</g>
	<g>
	</g>
	<g>
	</g>
	<g>
	</g>
	<g>
	</g>
	<g>
	</g>
	<g>
	</g>
	<g>
	</g>
	<g>
	</g>
	<g>
	</g>
	<g>
	</g>
	<g>
	</g>
	<g>
	</g>
	<g>
	</g>
</g>
</svg>
