<?xml version="1.0" encoding="UTF-8" standalone="no"?>
<svg
   xmlns:dc="http://purl.org/dc/elements/1.1/"
   xmlns:cc="http://creativecommons.org/ns#"
   xmlns:rdf="http://www.w3.org/1999/02/22-rdf-syntax-ns#"
   xmlns:svg="http://www.w3.org/2000/svg"
   xmlns="http://www.w3.org/2000/svg"
   xmlns:sodipodi="http://sodipodi.sourceforge.net/DTD/sodipodi-0.dtd"
   xmlns:inkscape="http://www.inkscape.org/namespaces/inkscape"
   viewBox="0 0 36.472439 18.897638"
   version="1.1"
   id="svg17"
   sodipodi:docname="solo-darker.svg"
   width="9.6499996mm"
   height="5mm"
   inkscape:version="0.92.2 5c3e80d, 2017-08-06">
  <metadata
     id="metadata21">
    <rdf:RDF>
      <cc:Work
         rdf:about="">
        <dc:format>image/svg+xml</dc:format>
        <dc:type
           rdf:resource="http://purl.org/dc/dcmitype/StillImage" />
        <dc:title>polyAsset 1</dc:title>
      </cc:Work>
    </rdf:RDF>
  </metadata>
  <sodipodi:namedview
     pagecolor="#ffffff"
     bordercolor="#666666"
     borderopacity="1"
     objecttolerance="10"
     gridtolerance="10"
     guidetolerance="10"
     inkscape:pageopacity="0"
     inkscape:pageshadow="2"
     inkscape:window-width="1273"
     inkscape:window-height="825"
     id="namedview19"
     showgrid="false"
     inkscape:document-units="mm"
     units="mm"
     inkscape:zoom="10.530164"
     inkscape:cx="13.675"
     inkscape:cy="7.085"
     inkscape:window-x="0"
     inkscape:window-y="0"
     inkscape:window-maximized="0"
     inkscape:current-layer="svg17" />
  <defs
     id="defs4">
    <style
       id="style2">.cls-1{fill:#606060;}.cls-2{fill:#fff;}</style>
  </defs>
  <title
     id="title6">polyAsset 1</title>
  <g
     id="Layer_2"
     data-name="Layer 2"
     transform="matrix(1.3350087,0,0,1.333637,0,1.0350604e-6)">
    <g
       id="Layer_1-2"
       data-name="Layer 1">
      <g
         id="Mute_Solo"
         data-name="Mute/Solo">
        <path
           class="cls-1"
           d="M 1.33,13.92 A 1.07,1.07 0 0 1 0.25,12.85 V 1.33 A 1.08,1.08 0 0 1 1.33,0.25 H 26 a 1.07,1.07 0 0 1 1.1,1.08 V 12.85 A 1.07,1.07 0 0 1 26,13.92 Z"
           id="path8"
           inkscape:connector-curvature="0"
           style="fill:#606060" />
        <path
           d="m 26,0.5 a 0.83,0.83 0 0 1 0.82,0.83 V 12.85 A 0.82,0.82 0 0 1 26,13.67 H 1.33 A 0.83,0.83 0 0 1 0.5,12.85 V 1.33 A 0.83,0.83 0 0 1 1.33,0.5 H 26 M 26,0 H 1.33 A 1.34,1.34 0 0 0 0,1.33 v 11.52 a 1.33,1.33 0 0 0 1.33,1.32 H 26 a 1.32,1.32 0 0 0 1.32,-1.32 V 1.33 A 1.33,1.33 0 0 0 26,0 Z"
           id="path10"
           inkscape:connector-curvature="0" />
        <path
           class="cls-2"
           d="M 11.43,9 12.29,8.47 A 1.44,1.44 0 0 0 13.8,9.5 c 0.75,0 1.13,-0.34 1.13,-0.83 A 0.68,0.68 0 0 0 14.62,8.08 4.62,4.62 0 0 0 13.54,7.63 4,4 0 0 1 12.27,7.06 1.48,1.48 0 0 1 11.68,5.79 1.67,1.67 0 0 1 12.25,4.46 2,2 0 0 1 13.63,4 2.24,2.24 0 0 1 15.75,5.39 l -0.84,0.5 A 1.3,1.3 0 0 0 13.63,5 c -0.58,0 -1,0.3 -1,0.78 0,0.48 0.29,0.68 1.22,1 l 0.5,0.18 0.46,0.18 a 1.71,1.71 0 0 1 0.44,0.25 1.52,1.52 0 0 1 0.62,1.3 A 1.7,1.7 0 0 1 15.33,10 2.37,2.37 0 0 1 13.77,10.49 2.3,2.3 0 0 1 11.43,9 Z"
           id="path12"
           inkscape:connector-curvature="0"
           style="fill:#ffffff" />
      </g>
    </g>
  </g>
</svg>
