<?xml version="1.0" encoding="UTF-8" standalone="no"?>
<!-- Generator: Adobe Illustrator 23.0.3, SVG Export Plug-In . SVG Version: 6.00 Build 0)  -->

<svg
   xmlns:dc="http://purl.org/dc/elements/1.1/"
   xmlns:cc="http://creativecommons.org/ns#"
   xmlns:rdf="http://www.w3.org/1999/02/22-rdf-syntax-ns#"
   xmlns:svg="http://www.w3.org/2000/svg"
   xmlns="http://www.w3.org/2000/svg"
   xmlns:sodipodi="http://sodipodi.sourceforge.net/DTD/sodipodi-0.dtd"
   xmlns:inkscape="http://www.inkscape.org/namespaces/inkscape"
   version="1.0"
   x="0px"
   y="0px"
   width="9.6499996mm"
   height="5mm"
   viewBox="0 0 36.47244 18.897638"
   enable-background="new 0 0 27.35433 14.17323"
   xml:space="preserve"
   id="svg48"
   sodipodi:docname="solo-off.svg"
   inkscape:version="0.92.2 5c3e80d, 2017-08-06"><metadata
     id="metadata54"><rdf:RDF><cc:Work
         rdf:about=""><dc:format>image/svg+xml</dc:format><dc:type
           rdf:resource="http://purl.org/dc/dcmitype/StillImage" /><dc:title></dc:title></cc:Work></rdf:RDF></metadata><defs
     id="defs52" /><sodipodi:namedview
     pagecolor="#ffffff"
     bordercolor="#666666"
     borderopacity="1"
     objecttolerance="10"
     gridtolerance="10"
     guidetolerance="10"
     inkscape:pageopacity="0"
     inkscape:pageshadow="2"
     inkscape:window-width="1479"
     inkscape:window-height="759"
     id="namedview50"
     showgrid="false"
     inkscape:document-units="mm"
     units="mm"
     inkscape:zoom="10.528498"
     inkscape:cx="36.357318"
     inkscape:cy="7.0866151"
     inkscape:window-x="0"
     inkscape:window-y="0"
     inkscape:window-maximized="0"
     inkscape:current-layer="svg48" /><g
     id="Layer_1"
     transform="translate(0,4.7244077)" /><g
     id="g833"><path
       d="m 1.7683683,18.565025 c -0.7910835,0 -1.43436722,-0.641932 -1.43436722,-1.432289 V 1.7707789 c 0,-0.7910118 0.64328372,-1.43423718 1.43436722,-1.43423718 H 34.70749 c 0.790429,0 1.433726,0.64322538 1.433726,1.43423718 V 17.132722 c 0,0.790358 -0.643283,1.43229 -1.433726,1.43229 H 1.7683683 Z"
       id="path3"
       inkscape:connector-curvature="0"
       style="fill:#808080;stroke:#000000;stroke-width:0.66522592;stroke-miterlimit:4;stroke-dasharray:none;stroke-opacity:1" /><g
       transform="matrix(1.3333328,0,0,1.3333328,0,8.1180171e-6)"
       id="g13"><path
         style="fill:#ffffff"
         inkscape:connector-curvature="0"
         id="path11"
         d="m 11.42678,8.95581 0.85938,-0.52148 c 0.24316,0.71094 0.74658,1.06152 1.51074,1.06152 0.75537,0 1.12891,-0.33301 1.12891,-0.82812 0,-0.26074 -0.10449,-0.4502 -0.3042,-0.58496 C 14.4219,7.94801 14.05716,7.79468 13.54495,7.63257 12.96341,7.45288 12.67679,7.33569 12.26907,7.0564 11.87796,6.76831 11.67825,6.35425 11.67825,5.78687 c 0,-0.55762 0.19141,-0.99902 0.57324,-1.32324 0.38184,-0.33301 0.84229,-0.49512 1.38037,-0.49512 0.97266,0 1.72803,0.52246 2.11865,1.38672 L 14.90822,5.85914 C 14.65627,5.27418 14.23097,4.9773 13.63185,4.9773 c -0.58154,0 -0.95508,0.30566 -0.95508,0.7832 0,0.46777 0.29541,0.68359 1.22412,0.98047 0.23486,0.08105 0.39941,0.13574 0.50391,0.18066 0.11279,0.03613 0.26025,0.09863 0.45117,0.17969 0.19971,0.08105 0.34766,0.1709 0.44287,0.25195 0.32129,0.26172 0.66846,0.69336 0.625,1.29688 0,0.56738 -0.19971,1.02637 -0.59863,1.35938 -0.39111,0.33301 -0.91162,0.49512 -1.5542,0.49512 -1.17236,-10e-6 -2.02294,-0.58497 -2.34423,-1.54884 z" /></g></g><g
     id="g17"
     transform="matrix(1.3333328,0,0,1.3333328,0,8.1180171e-6)" /><g
     id="g19"
     transform="matrix(1.3333328,0,0,1.3333328,0,8.1180171e-6)" /><g
     id="g21"
     transform="matrix(1.3333328,0,0,1.3333328,0,8.1180171e-6)" /><g
     id="g23"
     transform="matrix(1.3333328,0,0,1.3333328,0,8.1180171e-6)" /><g
     id="g25"
     transform="matrix(1.3333328,0,0,1.3333328,0,8.1180171e-6)" /><g
     id="g27"
     transform="matrix(1.3333328,0,0,1.3333328,0,8.1180171e-6)" /><g
     id="g29"
     transform="matrix(1.3333328,0,0,1.3333328,0,8.1180171e-6)" /><g
     id="g31"
     transform="matrix(1.3333328,0,0,1.3333328,0,8.1180171e-6)" /><g
     id="g33"
     transform="matrix(1.3333328,0,0,1.3333328,0,8.1180171e-6)" /><g
     id="g35"
     transform="matrix(1.3333328,0,0,1.3333328,0,8.1180171e-6)" /><g
     id="g37"
     transform="matrix(1.3333328,0,0,1.3333328,0,8.1180171e-6)" /><g
     id="g39"
     transform="matrix(1.3333328,0,0,1.3333328,0,8.1180171e-6)" /><g
     id="g41"
     transform="matrix(1.3333328,0,0,1.3333328,0,8.1180171e-6)" /><g
     id="g43"
     transform="matrix(1.3333328,0,0,1.3333328,0,8.1180171e-6)" /><g
     id="g45"
     transform="matrix(1.3333328,0,0,1.3333328,0,8.1180171e-6)" /></svg>