<?xml version="1.0" encoding="UTF-8" standalone="no"?>
<svg
   xmlns:dc="http://purl.org/dc/elements/1.1/"
   xmlns:cc="http://creativecommons.org/ns#"
   xmlns:rdf="http://www.w3.org/1999/02/22-rdf-syntax-ns#"
   xmlns:svg="http://www.w3.org/2000/svg"
   xmlns="http://www.w3.org/2000/svg"
   xmlns:sodipodi="http://sodipodi.sourceforge.net/DTD/sodipodi-0.dtd"
   xmlns:inkscape="http://www.inkscape.org/namespaces/inkscape"
   inkscape:version="0.92.2 (5c3e80d, 2017-08-06)"
   height="128.5mm"
   width="30.48mm"
   sodipodi:docname="Aux-A-D-GrpsJr.svg"
   id="svg1201"
   version="1.1"
   viewBox="0 0 115.2 485.66928">
  <metadata
     id="metadata1205">
    <rdf:RDF>
      <cc:Work
         rdf:about="">
        <dc:format>image/svg+xml</dc:format>
        <dc:type
           rdf:resource="http://purl.org/dc/dcmitype/StillImage" />
        <dc:title />
      </cc:Work>
    </rdf:RDF>
  </metadata>
  <sodipodi:namedview
     inkscape:current-layer="svg1201"
     inkscape:window-maximized="0"
     inkscape:window-y="23"
     inkscape:window-x="0"
     inkscape:cy="242.83597"
     inkscape:cx="57.599998"
     inkscape:zoom="1.1489362"
     units="mm"
     inkscape:document-units="mm"
     showgrid="false"
     id="namedview1203"
     inkscape:window-height="768"
     inkscape:window-width="1366"
     inkscape:pageshadow="2"
     inkscape:pageopacity="0"
     guidetolerance="10"
     gridtolerance="10"
     objecttolerance="10"
     borderopacity="1"
     bordercolor="#666666"
     pagecolor="#ffffff" />
  <defs
     id="defs1020">
    <style
       id="style1013">.cls-1{fill:#353535;}.cls-2{fill:url(#linear-gradient);}.cls-3{fill:gray;}.cls-4{fill:#b3b3b3;}.cls-5{fill:#ccc;}.cls-6{fill:#121212;}.cls-7{fill:#fff;}</style>
    <linearGradient
       gradientUnits="userSpaceOnUse"
       y2="349.56"
       x2="40.939999"
       y1="349.56"
       x1="21.09"
       id="linear-gradient"
       gradientTransform="scale(1.3333333)">
      <stop
         id="stop1015"
         stop-color="#3fa9f5"
         offset="0" />
      <stop
         id="stop1017"
         stop-color="#ed1e79"
         offset="1" />
    </linearGradient>
  </defs>
  <g
     id="Layer_2-2"
     data-name="Layer 2"
     transform="scale(1.3333333)">
    <g
       id="background">
      <path
         style="fill:#353535"
         inkscape:connector-curvature="0"
         id="rect4155"
         class="cls-1"
         d="M 0,0 H 86.4 V 364.25 H 0 Z" />
    </g>
  </g>
  <path
     style="fill:url(#linear-gradient);stroke-width:1.33333325"
     id="path1025"
     d="m 28.799999,474.31999 a 0.62666665,0.62666665 0 0 1 -0.333333,-0.0933 0.67999998,0.67999998 0 0 1 -0.266667,-0.93333 l 8.36,-15.09333 a 0.69333332,0.69333332 0 0 1 1.333333,0.33333 v 12.44 l 7.08,-12.77333 a 0.67999998,0.67999998 0 0 1 0.773334,-0.33333 0.69333332,0.69333332 0 0 1 0.506666,0.66666 v 12.44 l 7.08,-12.77333 a 0.67999998,0.67999998 0 0 1 0.773333,-0.33333 0.67999998,0.67999998 0 0 1 0.52,0.66666 v 15.09333 a 0.69333332,0.69333332 0 0 1 -0.693333,0.69334 0.67999998,0.67999998 0 0 1 -0.68,-0.69334 V 461.1867 l -7.08,12.77333 a 0.69333332,0.69333332 0 0 1 -1.333333,-0.33334 V 461.1867 l -7.08,12.77333 a 0.67999998,0.67999998 0 0 1 -0.773333,0.33333 0.69333332,0.69333332 0 0 1 -0.506667,-0.66667 V 461.1867 l -7.08,12.77333 a 0.67999998,0.67999998 0 0 1 -0.6,0.36 z"
     class="cls-2"
     inkscape:connector-curvature="0" />
  <path
     id="path1027"
     d="m 57.906665,458.53332 a 0.66666665,0.66666665 0 0 1 0.666667,-0.66666 h 0.09333 a 0.71999998,0.71999998 0 0 1 0.626667,0.34666 l 2.28,3.57334 2.293333,-3.58667 a 0.67999998,0.67999998 0 0 1 0.613333,-0.33333 h 0.133334 a 0.66666665,0.66666665 0 0 1 0.68,0.66666 v 6.29334 a 0.65333332,0.65333332 0 0 1 -0.68,0.65333 0.66666665,0.66666665 0 0 1 -0.653334,-0.65333 v -4.52 l -1.84,2.77333 a 0.62666665,0.62666665 0 0 1 -1.12,0 l -1.826666,-2.74667 v 4.50667 a 0.63999998,0.63999998 0 0 1 -0.666667,0.64 0.62666665,0.62666665 0 0 1 -0.64,-0.64 z"
     class="cls-3"
     inkscape:connector-curvature="0"
     style="fill:#808080;stroke-width:1.33333325" />
  <path
     id="path1029"
     d="m 64.653332,457.86666 h -0.133334 a 0.67999998,0.67999998 0 0 0 -0.613333,0.33333 l -2.293333,3.58667 -2.28,-3.57334 a 0.71999998,0.71999998 0 0 0 -0.626667,-0.34666 h -0.133333 a 0.66666665,0.66666665 0 0 0 -0.666667,0.66666 v 6.30667 a 0.62666665,0.62666665 0 0 0 0.64,0.64 0.63999998,0.63999998 0 0 0 0.666667,-0.64 v -4.50667 l 1.826666,2.74667 a 0.62666665,0.62666665 0 0 0 1.12,0 l 1.84,-2.77333 v 4.52 a 0.66666665,0.66666665 0 0 0 0.653334,0.65333 0.65333332,0.65333332 0 0 0 0.68,-0.65333 v -6.29334 a 0.66666665,0.66666665 0 0 0 -0.68,-0.66666 z"
     class="cls-4"
     inkscape:connector-curvature="0"
     style="fill:#b3b3b3;stroke-width:1.33333325" />
  <path
     id="path1031"
     d="m 66.813332,458.50666 a 0.66666665,0.66666665 0 0 1 1.333333,0 v 6.32 a 0.66666665,0.66666665 0 0 1 -1.333333,0 z"
     class="cls-3"
     inkscape:connector-curvature="0"
     style="fill:#808080;stroke-width:1.33333325" />
  <path
     id="path1033"
     d="m 67.479998,457.85332 a 0.65333332,0.65333332 0 0 0 -0.666666,0.65334 v 6.32 a 0.66666665,0.66666665 0 0 0 1.333333,0 v -6.32 a 0.65333332,0.65333332 0 0 0 -0.653333,-0.65334 z"
     class="cls-4"
     inkscape:connector-curvature="0"
     style="fill:#b3b3b3;stroke-width:1.33333325" />
  <path
     id="path1035"
     d="m 69.613332,458.53332 a 0.66666665,0.66666665 0 0 1 0.666666,-0.66666 h 0.146667 a 0.85333331,0.85333331 0 0 1 0.693333,0.38666 l 3.773333,4.86667 v -4.62667 a 0.666667,0.666667 0 0 1 1.333334,0 v 6.32 a 0.65333332,0.65333332 0 0 1 -0.653334,0.66667 v 0 a 0.87999998,0.87999998 0 0 1 -0.693333,-0.4 l -3.88,-5.01333 v 4.77333 a 0.66666665,0.66666665 0 0 1 -1.333333,0 z"
     class="cls-3"
     inkscape:connector-curvature="0"
     style="fill:#808080;stroke-width:1.33333325" />
  <path
     id="path1037"
     d="m 75.533331,457.85332 a 0.65333332,0.65333332 0 0 0 -0.64,0.64 v 4.62667 l -3.773333,-4.86667 a 0.85333331,0.85333331 0 0 0 -0.693333,-0.38666 h -0.146667 a 0.66666665,0.66666665 0 0 0 -0.666666,0.66666 v 6.30667 a 0.66666665,0.66666665 0 0 0 1.333333,0 v -4.77333 l 3.88,5.01333 a 0.87999998,0.87999998 0 0 0 0.693333,0.4 v 0 a 0.65333332,0.65333332 0 0 0 0.653333,-0.66667 v -6.32 a 0.65333332,0.65333332 0 0 0 -0.666666,-0.64 z"
     class="cls-4"
     inkscape:connector-curvature="0"
     style="fill:#b3b3b3;stroke-width:1.33333325" />
  <path
     id="path1039"
     d="m 77.599998,458.57332 a 0.66666665,0.66666665 0 0 1 0.68,-0.66666 h 2.146667 a 3.7599999,3.7599999 0 0 1 4,3.73333 v 0 a 3.7733332,3.7733332 0 0 1 -4,3.76 h -2.146667 a 0.65333332,0.65333332 0 0 1 -0.68,-0.66667 z m 2.826667,5.65334 a 2.4533333,2.4533333 0 0 0 2.666666,-2.53334 v 0 a 2.4666666,2.4666666 0 0 0 -2.666666,-2.56 h -1.493334 v 5.12 z"
     class="cls-3"
     inkscape:connector-curvature="0"
     style="fill:#808080;stroke-width:1.33333325" />
  <path
     id="path1041"
     d="m 80.426665,457.90666 h -2.146667 a 0.66666665,0.66666665 0 0 0 -0.68,0.66666 v 6.18667 a 0.65333332,0.65333332 0 0 0 0.68,0.66667 h 2.146667 a 3.7733332,3.7733332 0 0 0 4,-3.76 v 0 a 3.7599999,3.7599999 0 0 0 -4,-3.73334 z m -1.493334,6.32 v -5.12 h 1.493334 a 2.4666666,2.4666666 0 0 1 2.666666,2.56 v 0 a 2.4533333,2.4533333 0 0 1 -2.666666,2.53333 z"
     class="cls-4"
     inkscape:connector-curvature="0"
     style="fill:#b3b3b3;stroke-width:1.33333325" />
  <path
     id="path1043"
     d="m 57.906665,467.34665 a 0.66666665,0.66666665 0 0 1 0.666667,-0.66666 h 0.09333 a 0.71999998,0.71999998 0 0 1 0.626667,0.34666 l 2.32,3.64 2.293333,-3.57333 a 0.69333332,0.69333332 0 0 1 0.613333,-0.34667 h 0.133334 a 0.66666665,0.66666665 0 0 1 0.68,0.66667 v 6.29333 a 0.66666665,0.66666665 0 0 1 -0.68,0.66667 0.67999998,0.67999998 0 0 1 -0.653334,-0.66667 v -4.50666 l -1.84,2.76 a 0.62666665,0.62666665 0 0 1 -1.12,0 l -1.826666,-2.74667 v 4.50667 a 0.65333332,0.65333332 0 0 1 -0.666667,0.65333 0.63999998,0.63999998 0 0 1 -0.64,-0.65333 z"
     class="cls-3"
     inkscape:connector-curvature="0"
     style="fill:#808080;stroke-width:1.33333325" />
  <path
     id="path1045"
     d="m 64.653332,466.66665 h -0.133334 a 0.69333332,0.69333332 0 0 0 -0.613333,0.34667 l -2.293333,3.65333 -2.28,-3.57333 a 0.71999998,0.71999998 0 0 0 -0.666667,-0.42667 h -0.133333 a 0.66666665,0.66666665 0 0 0 -0.666667,0.66667 v 6.30667 a 0.63999998,0.63999998 0 0 0 0.64,0.65333 0.65333332,0.65333332 0 0 0 0.666667,-0.65333 v -4.50667 l 1.826666,2.74667 a 0.62666665,0.62666665 0 0 0 1.12,0 l 1.88,-2.74667 v 4.50667 a 0.67999998,0.67999998 0 0 0 0.653334,0.66666 0.66666665,0.66666665 0 0 0 0.68,-0.66666 v -6.29334 a 0.66666665,0.66666665 0 0 0 -0.68,-0.66666 z"
     class="cls-4"
     inkscape:connector-curvature="0"
     style="fill:#b3b3b3;stroke-width:1.33333325" />
  <path
     id="path1047"
     d="m 66.733332,473.58665 v -6.2 a 0.66666665,0.66666665 0 0 1 0.666666,-0.66666 h 4.4 a 0.59999999,0.59999999 0 0 1 0,1.18666 h -3.733333 v 1.94667 h 3.24 a 0.61333332,0.61333332 0 0 1 0.6,0.61333 0.58666665,0.58666665 0 0 1 -0.6,0.57334 h -3.24 v 2.02666 h 3.786667 a 0.59999999,0.59999999 0 0 1 0,1.18667 h -4.453334 a 0.66666665,0.66666665 0 0 1 -0.666666,-0.66667 z"
     class="cls-3"
     inkscape:connector-curvature="0"
     style="fill:#808080;stroke-width:1.33333325" />
  <path
     id="path1049"
     d="m 71.799998,466.66665 h -4.4 a 0.66666665,0.66666665 0 0 0 -0.666666,0.66667 v 6.2 a 0.66666665,0.66666665 0 0 0 0.666666,0.66667 h 4.453334 a 0.59999999,0.59999999 0 0 0 0,-1.18667 h -3.786667 v -2.02667 h 3.24 a 0.58666665,0.58666665 0 0 0 0.6,-0.57333 0.61333332,0.61333332 0 0 0 -0.6,-0.61333 h -3.24 v -1.94667 h 3.733333 a 0.59999999,0.59999999 0 0 0 0,-1.18667 z"
     class="cls-4"
     inkscape:connector-curvature="0"
     style="fill:#b3b3b3;stroke-width:1.33333325" />
  <path
     id="path1051"
     d="m 73.426665,467.31999 a 0.66666665,0.66666665 0 0 1 1.333333,0 v 5.72 h 3.413333 a 0.59999999,0.59999999 0 0 1 0.6,0.6 0.61333332,0.61333332 0 0 1 -0.6,0.61333 h -4.08 a 0.66666665,0.66666665 0 0 1 -0.666666,-0.66667 z"
     class="cls-3"
     inkscape:connector-curvature="0"
     style="fill:#808080;stroke-width:1.33333325" />
  <path
     id="path1053"
     d="m 74.093331,466.66665 a 0.65333332,0.65333332 0 0 0 -0.666666,0.65334 v 6.26666 a 0.66666665,0.66666665 0 0 0 0.666666,0.66667 h 4.08 a 0.61333332,0.61333332 0 0 0 0.6,-0.61333 0.59999999,0.59999999 0 0 0 -0.6,-0.6 h -3.413333 v -5.72 a 0.65333332,0.65333332 0 0 0 -0.666667,-0.65334 z"
     class="cls-4"
     inkscape:connector-curvature="0"
     style="fill:#b3b3b3;stroke-width:1.33333325" />
  <path
     id="path1055"
     d="m 79.573331,467.38665 a 0.66666665,0.66666665 0 0 1 0.666667,-0.66666 h 2.146667 a 3.7599999,3.7599999 0 0 1 4,3.74666 v 0 a 3.7866666,3.7866666 0 0 1 -4,3.77334 h -2.146667 a 0.66666665,0.66666665 0 0 1 -0.666667,-0.66667 z m 2.813334,5.65334 a 2.4666666,2.4666666 0 0 0 2.666666,-2.53334 v 0 a 2.4799999,2.4799999 0 0 0 -2.666666,-2.56 h -1.493334 v 5.12 z"
     class="cls-3"
     inkscape:connector-curvature="0"
     style="fill:#808080;stroke-width:1.33333325" />
  <path
     id="path1057"
     d="m 82.386665,466.66665 h -2.146667 a 0.66666665,0.66666665 0 0 0 -0.666667,0.66667 v 6.2 a 0.66666665,0.66666665 0 0 0 0.666667,0.66667 h 2.146667 a 3.7866666,3.7866666 0 0 0 4,-3.77334 v 0 a 3.7599999,3.7599999 0 0 0 -4,-3.74666 z m -1.493334,6.32 v -5.12 h 1.493334 a 2.4799999,2.4799999 0 0 1 2.666666,2.56 v 0 a 2.4666666,2.4666666 0 0 1 -2.666666,2.53334 z"
     class="cls-4"
     inkscape:connector-curvature="0"
     style="fill:#b3b3b3;stroke-width:1.33333325" />
  <path
     id="path1059"
     d="M 47.439999,13.333333 V 24.519999 H 45.253332 V 17.24 l -3.146666,5.186666 h -0.266667 l -3.173333,-5.173333 v 7.24 h -2.173334 v -11.16 h 2.266667 l 3.213333,5.333333 3.2,-5.333333 z"
     class="cls-5"
     inkscape:connector-curvature="0"
     style="fill:#cccccc;stroke-width:1.33333325" />
  <path
     id="path1061"
     d="m 52.639999,22.386666 h 4.693333 v 2.106667 h -6.893333 v -11.16 h 6.893333 V 15.44 h -4.693333 v 2.386666 h 4.24 v 2.04 h -4.24 z"
     class="cls-5"
     inkscape:connector-curvature="0"
     style="fill:#cccccc;stroke-width:1.33333325" />
  <path
     id="path1063"
     d="m 62.039998,22.386666 h 4.266667 v 2.106667 h -6.48 v -11.16 h 2.213333 z"
     class="cls-5"
     inkscape:connector-curvature="0"
     style="fill:#cccccc;stroke-width:1.33333325" />
  <path
     id="path1065"
     d="m 72.919998,13.333333 a 5.0799999,5.0799999 0 0 1 3.84,1.613333 5.4666665,5.4666665 0 0 1 1.546667,4 5.4799999,5.4799999 0 0 1 -1.546667,4 5.1199999,5.1199999 0 0 1 -3.84,1.613333 H 68.466665 V 13.333333 Z m 0,9.08 a 3.0799999,3.0799999 0 0 0 2.36,-0.96 3.5466666,3.5466666 0 0 0 0.92,-2.533333 3.4533332,3.4533332 0 0 0 -0.92,-2.506667 3.0533333,3.0533333 0 0 0 -2.36,-0.973333 h -2.253333 v 6.973333 z"
     class="cls-5"
     inkscape:connector-curvature="0"
     style="fill:#cccccc;stroke-width:1.33333325" />
  <g
     id="EQ_bgs_copy"
     data-name="EQ bgs copy"
     transform="scale(1.3333333)">
    <rect
       style="fill:#121212"
       class="cls-6"
       x="53.049999"
       y="28.35"
       width="27.92"
       height="36.849998"
       rx="1.42"
       id="rect1068" />
  </g>
  <path
     id="path1071"
     d="m 22.013333,42.026666 h 1.253333 v 6.533333 h -1.253333 z"
     class="cls-5"
     inkscape:connector-curvature="0"
     style="fill:#cccccc;stroke-width:1.33333325" />
  <path
     id="path1073"
     d="m 28.439999,42.026666 h 1.24 v 6.533333 h -0.946666 l -2.666667,-4 v 4 h -1.253333 v -6.533333 h 0.946666 l 2.666667,4 z"
     class="cls-5"
     inkscape:connector-curvature="0"
     style="fill:#cccccc;stroke-width:1.33333325" />
  <path
     id="path1075"
     d="m 83.519998,48.693332 a 3.1333333,3.1333333 0 0 1 -2.32,-0.986667 3.3333333,3.3333333 0 0 1 -0.946667,-2.373333 3.2933333,3.2933333 0 0 1 0.946667,-2.413333 3.2399999,3.2399999 0 0 1 4.653333,0 3.2933333,3.2933333 0 0 1 0.946667,2.413333 3.3333333,3.3333333 0 0 1 -0.946667,2.413333 3.1599999,3.1599999 0 0 1 -2.333333,0.946667 z m 0,-1.333333 a 1.9066666,1.9066666 0 0 0 1.453333,-0.6 2.1066666,2.1066666 0 0 0 0.586667,-1.426667 2.1466666,2.1466666 0 0 0 -0.586667,-1.546666 2.0666666,2.0666666 0 0 0 -2.906666,0 2.1466666,2.1466666 0 0 0 -0.586667,1.546666 2.1066666,2.1066666 0 0 0 0.586667,1.533333 1.9066666,1.9066666 0 0 0 1.453333,0.56 z"
     class="cls-5"
     inkscape:connector-curvature="0"
     style="fill:#cccccc;stroke-width:1.33333325" />
  <path
     id="path1077"
     d="m 88.653331,48.079999 a 2.1466666,2.1466666 0 0 1 -0.653333,-1.653333 v -4.4 h 1.24 v 4.293333 a 1.1733333,1.1733333 0 0 0 2.346666,0 v -4.293333 h 1.24 v 4.4 a 2.1466666,2.1466666 0 0 1 -0.68,1.653333 2.7599999,2.7599999 0 0 1 -3.466666,0 z"
     class="cls-5"
     inkscape:connector-curvature="0"
     style="fill:#cccccc;stroke-width:1.33333325" />
  <path
     id="path1079"
     d="m 98.439998,42.026666 v 1.226666 h -1.693334 v 5.333333 h -1.253333 v -5.333333 h -1.693333 v -1.226666 z"
     class="cls-5"
     inkscape:connector-curvature="0"
     style="fill:#cccccc;stroke-width:1.33333325" />
  <g
     id="Aux_A_D_grps"
     data-name="Aux A–D grps"
     transform="scale(1.3333333)">
    <path
       style="fill:#ffffff"
       inkscape:connector-curvature="0"
       class="cls-7"
       d="m 19.19,80.31 -0.33,-1 h -2.23 l -0.34,1 H 15.1 l 2,-5.6 h 1.37 l 2,5.6 z m -2.21,-2 h 1.53 L 17.75,76 Z"
       id="path1082" />
    <path
       style="fill:#ffffff"
       inkscape:connector-curvature="0"
       class="cls-7"
       d="m 23.89,76.31 h 1 v 4 h -1 V 79.86 A 1.32,1.32 0 0 1 22.7,80.42 1.44,1.44 0 0 1 21.61,80 1.66,1.66 0 0 1 21.19,78.79 v -2.48 h 1 v 2.33 a 0.73,0.73 0 0 0 0.79,0.82 c 0.54,0 0.88,-0.32 0.88,-1 z"
       id="path1084" />
    <path
       style="fill:#ffffff"
       inkscape:connector-curvature="0"
       class="cls-7"
       d="M 30,80.31 H 28.76 L 27.9,79.1 27,80.31 h -1.16 l 1.46,-2 -1.4,-2 h 1.19 l 0.81,1.13 0.81,-1.13 h 1.18 l -1.4,2 z"
       id="path1086" />
    <path
       style="fill:#ffffff"
       inkscape:connector-curvature="0"
       class="cls-7"
       d="m 36.91,80.31 -0.33,-1 h -2.23 l -0.34,1 h -1.19 l 2,-5.6 h 1.37 l 2,5.6 z m -2.21,-2 h 1.53 L 35.47,76 Z"
       id="path1088" />
    <path
       style="fill:#ffffff"
       inkscape:connector-curvature="0"
       class="cls-7"
       d="m 38.81,78.39 v -1 h 4.12 v 1 z"
       id="path1090" />
    <path
       style="fill:#ffffff"
       inkscape:connector-curvature="0"
       class="cls-7"
       d="m 46.59,74.71 a 2.57,2.57 0 0 1 1.92,0.81 2.93,2.93 0 0 1 0,4 2.53,2.53 0 0 1 -1.92,0.81 h -2.22 v -5.6 z m 0,4.55 a 1.57,1.57 0 0 0 1.19,-0.48 1.81,1.81 0 0 0 0.45,-1.27 1.74,1.74 0 0 0 -0.45,-1.25 1.55,1.55 0 0 0 -1.19,-0.49 h -1.11 v 3.49 z"
       id="path1092" />
    <path
       style="fill:#ffffff"
       inkscape:connector-curvature="0"
       class="cls-7"
       d="m 58.37,77.3 v 0.44 a 2.59,2.59 0 0 1 -0.77,1.94 2.7,2.7 0 0 1 -2,0.74 2.93,2.93 0 0 1 -2.15,-0.84 2.78,2.78 0 0 1 -0.85,-2.06 2.89,2.89 0 0 1 2.93,-2.92 2.8,2.8 0 0 1 2.47,1.31 l -0.94,0.54 a 1.71,1.71 0 0 0 -1.5,-0.78 1.87,1.87 0 0 0 -1.32,3.16 1.9,1.9 0 0 0 1.4,0.51 1.55,1.55 0 0 0 1.63,-1.06 h -1.7 v -1 z"
       id="path1094" />
    <path
       style="fill:#ffffff"
       inkscape:connector-curvature="0"
       class="cls-7"
       d="m 60.54,77 a 1.22,1.22 0 0 1 1.21,-0.77 v 1.15 a 1.17,1.17 0 0 0 -0.84,0.2 0.9,0.9 0 0 0 -0.37,0.82 v 1.91 h -1 v -4 h 1 z"
       id="path1096" />
    <path
       style="fill:#ffffff"
       inkscape:connector-curvature="0"
       class="cls-7"
       d="m 66.46,76.82 a 2.09,2.09 0 0 1 0.54,1.49 2.15,2.15 0 0 1 -0.57,1.51 1.83,1.83 0 0 1 -1.38,0.6 1.53,1.53 0 0 1 -1.29,-0.58 v 2.07 h -1 v -5.6 h 1 v 0.48 a 1.51,1.51 0 0 1 1.29,-0.59 1.82,1.82 0 0 1 1.41,0.62 z m -1.57,2.62 a 1.06,1.06 0 0 0 0.79,-0.31 1.1,1.1 0 0 0 0.32,-0.82 1.12,1.12 0 0 0 -1.9,-0.81 1.09,1.09 0 0 0 -0.31,0.81 1.13,1.13 0 0 0 0.31,0.82 1.06,1.06 0 0 0 0.79,0.31 z"
       id="path1098" />
    <path
       style="fill:#ffffff"
       inkscape:connector-curvature="0"
       class="cls-7"
       d="m 69.75,77.89 c 0.59,0.12 1.35,0.4 1.34,1.25 a 1.12,1.12 0 0 1 -0.46,1 2,2 0 0 1 -1.15,0.32 1.69,1.69 0 0 1 -1.68,-1 l 0.9,-0.5 a 0.75,0.75 0 0 0 0.78,0.52 c 0.37,0 0.55,-0.11 0.55,-0.35 0,-0.24 -0.32,-0.33 -0.72,-0.44 -0.6,-0.15 -1.34,-0.4 -1.34,-1.23 a 1.15,1.15 0 0 1 0.43,-0.93 1.73,1.73 0 0 1 1.09,-0.34 1.69,1.69 0 0 1 1.52,0.85 l -0.88,0.48 a 0.66,0.66 0 0 0 -0.64,-0.41 c -0.26,0 -0.46,0.13 -0.46,0.33 0,0.2 0.32,0.34 0.72,0.45 z"
       id="path1100" />
  </g>
  <path
     id="path1103"
     d="m 14.88,124.06666 v 0.44 a 2.9733333,2.9733333 0 0 1 -0.88,2.16 3.2266666,3.2266666 0 0 1 -2.32,0.84 3.4133332,3.4133332 0 0 1 -2.5066669,-0.97333 3.3999999,3.3999999 0 0 1 2.4533329,-5.8 3.2399999,3.2399999 0 0 1 2.84,1.54667 l -0.92,0.53333 a 2.1466666,2.1466666 0 0 0 -1.92,-1.04 2.3733333,2.3733333 0 0 0 -1.6933329,4 A 2.4266666,2.4266666 0 0 0 11.693333,126.44 1.9466666,1.9466666 0 0 0 13.8,124.94666 h -2.186667 v -0.96 z"
     class="cls-5"
     inkscape:connector-curvature="0"
     style="fill:#cccccc;stroke-width:1.33333325" />
  <path
     id="path1105"
     d="m 16.96,120.90666 h 0.933333 V 127.44 h -1.08 v -5.33334 L 15.48,122.48 15.226666,121.56 Z"
     class="cls-5"
     inkscape:connector-curvature="0"
     style="fill:#cccccc;stroke-width:1.33333325" />
  <path
     id="path1107"
     d="m 15.08,138.10666 -0.453334,-1.33333 H 11.84 l -0.453334,1.33333 h -1.173333 l 2.373333,-6.53333 H 13.92 l 2.36,6.53333 z m -2.88,-2.32 h 2.066666 l -1.026666,-2.96 z"
     class="cls-5"
     inkscape:connector-curvature="0"
     style="fill:#cccccc;stroke-width:1.33333325" />
  <path
     id="path1109"
     d="m 102.45333,124.06666 v 0.44 a 2.9333333,2.9333333 0 0 1 -0.89333,2.16 3.2133333,3.2133333 0 0 1 -2.306669,0.84 3.4133332,3.4133332 0 0 1 -2.506667,-0.97333 A 3.4133332,3.4133332 0 1 1 102.08,122.28 l -0.92,0.53333 a 2.1599999,2.1599999 0 0 0 -1.920002,-1.04 2.2533333,2.2533333 0 0 0 -1.693334,0.68 2.4399999,2.4399999 0 0 0 0,3.34667 2.3999999,2.3999999 0 0 0 1.746667,0.66666 1.9733333,1.9733333 0 0 0 2.039999,-1.44 h -2.146666 v -0.96 z"
     class="cls-5"
     inkscape:connector-curvature="0"
     style="fill:#cccccc;stroke-width:1.33333325" />
  <path
     id="path1111"
     d="m 102.88,127.44 v -0.77334 l 2.28,-2.32 a 2.3333333,2.3333333 0 0 0 0.82666,-1.44 0.94666664,0.94666664 0 0 0 -1.01333,-1.01333 1.3333333,1.3333333 0 0 0 -1.21333,0.81333 l -0.90667,-0.53333 a 2.2666666,2.2666666 0 0 1 2.12,-1.33333 2.1199999,2.1199999 0 0 1 1.46667,0.53333 1.88,1.88 0 0 1 0.62666,1.48 3.1999999,3.1999999 0 0 1 -1.12,2.13333 l -1.46666,1.46667 h 2.66666 v 1.04 z"
     class="cls-5"
     inkscape:connector-curvature="0"
     style="fill:#cccccc;stroke-width:1.33333325" />
  <path
     id="path1113"
     d="M 103.33333,138.10666 102.88,136.77333 h -2.78667 l -0.453332,1.33333 h -1.16 L 100.84,131.57333 h 1.33333 l 2.36,6.53333 z m -2.88,-2.32 H 102.52 l -1.02667,-2.96 z"
     class="cls-5"
     inkscape:connector-curvature="0"
     style="fill:#cccccc;stroke-width:1.33333325" />
  <path
     id="path1115"
     d="M 14.88,165.14666 V 165.6 a 2.9466666,2.9466666 0 0 1 -0.88,2.2 3.1733333,3.1733333 0 0 1 -2.32,0.85333 3.4266666,3.4266666 0 0 1 -2.5066669,-0.98667 3.4399999,3.4399999 0 0 1 0,-4.8 3.3333333,3.3333333 0 0 1 2.4533329,-1 3.2533333,3.2533333 0 0 1 2.84,1.56 l -0.92,0.53334 a 2.1466666,2.1466666 0 0 0 -1.92,-1.04 2.2799999,2.2799999 0 0 0 -2.2933329,2.41333 2.2799999,2.2799999 0 0 0 0.6666667,1.68 2.4133333,2.4133333 0 0 0 1.7600002,0.65333 1.9466666,1.9466666 0 0 0 2.106666,-1.49333 h -2.253333 v -0.96 z"
     class="cls-5"
     inkscape:connector-curvature="0"
     style="fill:#cccccc;stroke-width:1.33333325" />
  <path
     id="path1117"
     d="m 16.96,161.98666 h 0.933333 v 6.54667 h -1.08 V 163.2 l -1.333333,0.37333 -0.253334,-0.92 z"
     class="cls-5"
     inkscape:connector-curvature="0"
     style="fill:#cccccc;stroke-width:1.33333325" />
  <path
     id="path1119"
     d="M 15.8,177.33333 A 1.7333333,1.7333333 0 0 1 15.226666,178.66666 2,2 0 0 1 13.893333,179.2 H 11.04 v -6.54667 h 2.586666 a 1.92,1.92 0 0 1 1.333334,0.53333 1.68,1.68 0 0 1 0.56,1.33334 1.56,1.56 0 0 1 -0.666667,1.33333 1.6666666,1.6666666 0 0 1 0.946667,1.48 z m -3.693334,-3.66667 v 1.72 h 1.52 a 0.86666665,0.86666665 0 0 0 0,-1.72 z m 1.733334,4.52 a 0.91999998,0.91999998 0 0 0 0,-1.82666 h -1.733334 v 1.82666 z"
     class="cls-5"
     inkscape:connector-curvature="0"
     style="fill:#cccccc;stroke-width:1.33333325" />
  <path
     id="path1121"
     d="M 102.45333,165.14666 V 165.6 a 2.9066666,2.9066666 0 0 1 -0.89333,2.2 3.1599999,3.1599999 0 0 1 -2.306669,0.85333 3.4266666,3.4266666 0 0 1 -2.506667,-0.98667 3.4399999,3.4399999 0 0 1 0,-4.8 3.3333333,3.3333333 0 0 1 2.453334,-1 3.2666666,3.2666666 0 0 1 2.840002,1.56 l -0.92,0.52 a 2.1866666,2.1866666 0 0 0 -1.920002,-1.02666 2.2933333,2.2933333 0 0 0 -1.693334,0.66666 2.3199999,2.3199999 0 0 0 -0.666666,1.68 2.2799999,2.2799999 0 0 0 0.666666,1.68 2.3866666,2.3866666 0 0 0 1.746667,0.65334 1.9733333,1.9733333 0 0 0 2.079999,-1.49334 h -2.146666 v -0.96 z"
     class="cls-5"
     inkscape:connector-curvature="0"
     style="fill:#cccccc;stroke-width:1.33333325" />
  <path
     id="path1123"
     d="m 102.88,168.53333 v -0.84 l 2.28,-2.36 a 2.2933333,2.2933333 0 0 0 0.82666,-1.44 0.94666664,0.94666664 0 0 0 -1.01333,-1 1.3333333,1.3333333 0 0 0 -1.21333,0.81333 l -0.90667,-0.53333 a 2.2799999,2.2799999 0 0 1 2.12,-1.33333 2.1199999,2.1199999 0 0 1 1.46667,0.54666 1.8666666,1.8666666 0 0 1 0.62666,1.48 3.1733333,3.1733333 0 0 1 -1.12,2.12 l -1.46666,1.48 h 2.66666 v 1.04 z"
     class="cls-5"
     inkscape:connector-curvature="0"
     style="fill:#cccccc;stroke-width:1.33333325" />
  <path
     id="path1125"
     d="m 104,177.33333 a 1.7333333,1.7333333 0 0 1 -0.57334,1.33333 1.9733333,1.9733333 0 0 1 -1.33333,0.53334 h -2.799999 v -6.54667 H 101.96 a 1.9066666,1.9066666 0 0 1 1.33333,0.53333 1.68,1.68 0 0 1 0.56,1.33334 1.56,1.56 0 0 1 -0.66667,1.33333 1.6666666,1.6666666 0 0 1 0.81334,1.48 z m -3.69334,-3.66667 v 1.72 H 101.84 a 0.86666665,0.86666665 0 0 0 0,-1.72 z m 1.73334,4.52 a 0.91999998,0.91999998 0 0 0 0,-1.82666 h -1.73334 v 1.82666 z"
     class="cls-5"
     inkscape:connector-curvature="0"
     style="fill:#cccccc;stroke-width:1.33333325" />
  <path
     id="path1127"
     d="m 14.88,206.23999 v 0.42667 a 2.9733333,2.9733333 0 0 1 -0.88,2.21333 3.2266666,3.2266666 0 0 1 -2.32,0.84 3.4133332,3.4133332 0 0 1 -2.5066669,-0.97333 3.3999999,3.3999999 0 0 1 2.4533329,-5.8 3.2399999,3.2399999 0 0 1 2.84,1.54667 l -0.92,0.53333 a 2.1466666,2.1466666 0 0 0 -1.92,-1.02667 2.3733333,2.3733333 0 0 0 -1.6933329,4 2.4266666,2.4266666 0 0 0 1.7599999,0.66667 A 1.9466666,1.9466666 0 0 0 13.8,207.17333 h -2.186667 v -0.96 z"
     class="cls-5"
     inkscape:connector-curvature="0"
     style="fill:#cccccc;stroke-width:1.33333325" />
  <path
     id="path1129"
     d="m 16.96,203.07999 h 0.933333 v 6.53334 h -1.08 v -5.33334 l -1.333333,0.37334 -0.253334,-0.92 z"
     class="cls-5"
     inkscape:connector-curvature="0"
     style="fill:#cccccc;stroke-width:1.33333325" />
  <path
     id="path1131"
     d="m 11.106666,219.42666 a 3.3866666,3.3866666 0 0 1 2.453334,-5.8 3.2266666,3.2266666 0 0 1 2.813333,1.56 L 15.44,215.71999 a 2.1199999,2.1199999 0 0 0 -1.88,-1.05333 2.3466666,2.3466666 0 1 0 0,4.69333 2.1199999,2.1199999 0 0 0 1.88,-1.05333 l 0.933333,0.53333 a 3.1999999,3.1999999 0 0 1 -2.813333,1.56 3.3199999,3.3199999 0 0 1 -2.453334,-0.97333 z"
     class="cls-5"
     inkscape:connector-curvature="0"
     style="fill:#cccccc;stroke-width:1.33333325" />
  <path
     id="path1133"
     d="m 102.45333,206.23999 v 0.42667 a 2.9333333,2.9333333 0 0 1 -0.89333,2.21333 3.2133333,3.2133333 0 0 1 -2.306669,0.84 3.4133332,3.4133332 0 0 1 -2.506667,-0.97333 3.4133332,3.4133332 0 1 1 5.333336,-4.25333 l -0.92,0.53333 a 2.1599999,2.1599999 0 0 0 -1.960002,-1.02667 2.2533333,2.2533333 0 0 0 -1.693334,0.68 2.4399999,2.4399999 0 0 0 0,3.34667 2.3999999,2.3999999 0 0 0 1.746667,0.66667 1.9733333,1.9733333 0 0 0 2.079999,-1.49334 h -2.146666 v -0.96 z"
     class="cls-5"
     inkscape:connector-curvature="0"
     style="fill:#cccccc;stroke-width:1.33333325" />
  <path
     id="path1135"
     d="m 102.88,209.61333 v -0.84 l 2.28,-2.32 a 2.3333333,2.3333333 0 0 0 0.82666,-1.44 0.94666664,0.94666664 0 0 0 -1.01333,-1.01334 1.3333333,1.3333333 0 0 0 -1.21333,0.81334 l -0.90667,-0.53334 a 2.2666666,2.2666666 0 0 1 2.12,-1.33333 2.1199999,2.1199999 0 0 1 1.46667,0.53333 1.88,1.88 0 0 1 0.62666,1.48 3.1999999,3.1999999 0 0 1 -1.12,2.13334 l -1.46666,1.46666 h 2.66666 v 1.04 z"
     class="cls-5"
     inkscape:connector-curvature="0"
     style="fill:#cccccc;stroke-width:1.33333325" />
  <path
     id="path1137"
     d="m 99.359998,219.42666 a 3.3866666,3.3866666 0 0 1 2.453332,-5.8 3.2266666,3.2266666 0 0 1 2.81333,1.56 l -0.93333,0.53333 a 2.0933333,2.0933333 0 0 0 -1.88,-1.05333 2.3466666,2.3466666 0 1 0 0,4.69333 2.0933333,2.0933333 0 0 0 1.88,-1.05333 l 0.93333,0.53333 a 3.1999999,3.1999999 0 0 1 -2.81333,1.56 3.3199999,3.3199999 0 0 1 -2.453332,-0.97333 z"
     class="cls-5"
     inkscape:connector-curvature="0"
     style="fill:#cccccc;stroke-width:1.33333325" />
  <path
     id="path1139"
     d="m 14.88,247.31999 v 0.45334 a 2.9466666,2.9466666 0 0 1 -0.88,2.2 3.1733333,3.1733333 0 0 1 -2.32,0.85333 3.4266666,3.4266666 0 0 1 -2.5066669,-0.98667 3.4399999,3.4399999 0 0 1 0,-4.8 3.3333333,3.3333333 0 0 1 2.4533329,-1.04 3.2533333,3.2533333 0 0 1 2.84,1.56 l -0.92,0.53334 a 2.1466666,2.1466666 0 0 0 -1.92,-1.04 2.2799999,2.2799999 0 0 0 -2.2933329,2.38666 2.2799999,2.2799999 0 0 0 0.6666667,1.68 2.4133333,2.4133333 0 0 0 1.7600002,0.65334 1.9466666,1.9466666 0 0 0 2.106666,-1.49334 h -2.253333 v -0.96 z"
     class="cls-5"
     inkscape:connector-curvature="0"
     style="fill:#cccccc;stroke-width:1.33333325" />
  <path
     id="path1141"
     d="m 16.96,244.15999 h 0.933333 v 6.50667 h -1.08 v -5.33333 l -1.333333,0.37333 -0.253334,-0.92 z"
     class="cls-5"
     inkscape:connector-curvature="0"
     style="fill:#cccccc;stroke-width:1.33333325" />
  <path
     id="path1143"
     d="m 13.12,254.82666 a 2.9333333,2.9333333 0 0 1 2.226666,0.94667 3.2266666,3.2266666 0 0 1 0.893334,2.33333 3.2666666,3.2666666 0 0 1 -0.893334,2.32 2.9333333,2.9333333 0 0 1 -2.226666,0.94667 h -2.573334 v -6.54667 z m 0,5.52 a 1.8933333,1.8933333 0 0 0 1.493333,-0.64 2.4933333,2.4933333 0 0 0 0,-3.21333 1.9466666,1.9466666 0 0 0 -1.493333,-0.64 h -1.506667 v 4.49333 z"
     class="cls-5"
     inkscape:connector-curvature="0"
     style="fill:#cccccc;stroke-width:1.33333325" />
  <path
     id="path1145"
     d="m 102.45333,247.31999 v 0.45334 a 2.9066666,2.9066666 0 0 1 -0.89333,2.2 3.1599999,3.1599999 0 0 1 -2.306669,0.85333 3.4266666,3.4266666 0 0 1 -2.506667,-0.98667 3.4399999,3.4399999 0 0 1 0,-4.8 3.3333333,3.3333333 0 0 1 2.453334,-1.04 3.2666666,3.2666666 0 0 1 2.840002,1.56 l -0.92,0.52 a 2.1866666,2.1866666 0 0 0 -1.920002,-1.02666 2.2933333,2.2933333 0 0 0 -1.693334,0.66666 2.3199999,2.3199999 0 0 0 -0.666666,1.68 2.2799999,2.2799999 0 0 0 0.666666,1.68 2.3866666,2.3866666 0 0 0 1.746667,0.65334 1.9733333,1.9733333 0 0 0 2.079999,-1.45334 h -2.146666 v -0.96 z"
     class="cls-5"
     inkscape:connector-curvature="0"
     style="fill:#cccccc;stroke-width:1.33333325" />
  <path
     id="path1147"
     d="m 102.88,250.66666 v -0.84 l 2.28,-2.33333 a 2.2666666,2.2666666 0 0 0 0.82666,-1.44 0.94666664,0.94666664 0 0 0 -1.01333,-1 1.3333333,1.3333333 0 0 0 -1.21333,0.81333 l -0.90667,-0.53333 a 2.2799999,2.2799999 0 0 1 2.12,-1.33334 2.1199999,2.1199999 0 0 1 1.46667,0.54667 1.8666666,1.8666666 0 0 1 0.62666,1.48 3.1733333,3.1733333 0 0 1 -1.12,2.12 l -1.46666,1.48 h 2.66666 v 1.04 z"
     class="cls-5"
     inkscape:connector-curvature="0"
     style="fill:#cccccc;stroke-width:1.33333325" />
  <path
     id="path1149"
     d="m 101.33333,254.82666 a 2.9333333,2.9333333 0 0 1 2.22667,0.94667 3.2266666,3.2266666 0 0 1 0.89333,2.33333 3.2666666,3.2666666 0 0 1 -0.89333,2.32 2.9333333,2.9333333 0 0 1 -2.22667,0.90667 h -2.533332 v -6.54667 z m 0,5.52 a 1.9466666,1.9466666 0 0 0 1.49333,-0.64 2.4533333,2.4533333 0 0 0 0,-3.21333 1.9466666,1.9466666 0 0 0 -1.49333,-0.64 h -1.453332 v 4.49333 z"
     class="cls-5"
     inkscape:connector-curvature="0"
     style="fill:#cccccc;stroke-width:1.33333325" />
  <path
     id="path1151"
     d="m 9.5466664,290.99999 h 1.1199996 v 6.53334 H 9.7733331 l -3.1066666,-4.42667 v 4.42667 H 5.5999999 v -6.53334 h 0.8399999 l 3.08,4.44 z"
     class="cls-5"
     inkscape:connector-curvature="0"
     style="fill:#cccccc;stroke-width:1.33333325" />
  <path
     id="path1153"
     d="M 12.106666,298.46666 H 11.6 l 3.733333,-8.4 H 15.84 Z"
     class="cls-5"
     inkscape:connector-curvature="0"
     style="fill:#cccccc;stroke-width:1.33333325" />
  <path
     id="path1155"
     d="m 20.146666,297.53333 -0.453333,-1.33334 h -2.786667 l -0.453333,1.33334 H 15.28 l 2.373333,-6.53334 h 1.333333 l 2.36,6.53334 z m -2.813333,-2.32 h 2 l -1.04,-2.94667 z"
     class="cls-5"
     inkscape:connector-curvature="0"
     style="fill:#cccccc;stroke-width:1.33333325" />
  <path
     id="path1157"
     d="m 97.866664,290.99999 h 1.08 v 6.53334 h -0.84 l -3.08,-4.42667 v 4.42667 h -1.08 v -6.53334 h 0.84 l 3.08,4.44 z"
     class="cls-5"
     inkscape:connector-curvature="0"
     style="fill:#cccccc;stroke-width:1.33333325" />
  <path
     id="path1159"
     d="m 100.44,298.46666 h -0.520002 l 3.733332,-8.4 h 0.52 z"
     class="cls-5"
     inkscape:connector-curvature="0"
     style="fill:#cccccc;stroke-width:1.33333325" />
  <path
     id="path1161"
     d="m 108.46666,297.53333 -0.45333,-1.33334 h -2.78667 l -0.45333,1.33334 h -1.16 l 2.36,-6.53334 h 1.33333 l 2.36,6.53334 z m -2.88,-2.32 h 2.06667 l -0.98667,-2.94667 z"
     class="cls-5"
     inkscape:connector-curvature="0"
     style="fill:#cccccc;stroke-width:1.33333325" />
  <path
     id="path1163"
     d="m 9.5466664,331.91999 h 1.1199996 v 6.53333 H 9.7733331 l -3.1066666,-4.44 v 4.44 H 5.5999999 v -6.53333 h 0.8399999 l 3.08,4.42667 z"
     class="cls-5"
     inkscape:connector-curvature="0"
     style="fill:#cccccc;stroke-width:1.33333325" />
  <path
     id="path1165"
     d="M 12.106666,339.38666 H 11.6 l 3.733333,-8.4 H 15.84 Z"
     class="cls-5"
     inkscape:connector-curvature="0"
     style="fill:#cccccc;stroke-width:1.33333325" />
  <path
     id="path1167"
     d="m 20.146666,338.45332 -0.453333,-1.33333 h -2.786667 l -0.453333,1.33333 H 15.28 l 2.373333,-6.53333 h 1.333333 l 2.36,6.53333 z m -2.813333,-2.32 h 2 l -1.04,-2.95999 z"
     class="cls-5"
     inkscape:connector-curvature="0"
     style="fill:#cccccc;stroke-width:1.33333325" />
  <path
     id="path1169"
     d="m 97.866664,331.91999 h 1.08 v 6.53333 h -0.84 l -3.08,-4.44 v 4.44 h -1.08 v -6.53333 h 0.84 l 3.08,4.42667 z"
     class="cls-5"
     inkscape:connector-curvature="0"
     style="fill:#cccccc;stroke-width:1.33333325" />
  <path
     id="path1171"
     d="m 100.44,339.38666 h -0.520002 l 3.733332,-8.4 h 0.52 z"
     class="cls-5"
     inkscape:connector-curvature="0"
     style="fill:#cccccc;stroke-width:1.33333325" />
  <path
     id="path1173"
     d="m 108.46666,338.45332 -0.45333,-1.33333 h -2.78667 l -0.45333,1.33333 h -1.16 l 2.36,-6.53333 h 1.33333 l 2.36,6.53333 z m -2.88,-2.32 h 2.06667 l -0.98667,-2.95999 z"
     class="cls-5"
     inkscape:connector-curvature="0"
     style="fill:#cccccc;stroke-width:1.33333325" />
  <path
     id="path1175"
     d="m 9.5466664,372.93332 h 1.1199996 v 6.53334 H 9.7733331 l -3.1066666,-4.44 v 4.44 H 5.5999999 v -6.53334 h 0.8399999 l 3.1066666,4.4 z"
     class="cls-5"
     inkscape:connector-curvature="0"
     style="fill:#cccccc;stroke-width:1.33333325" />
  <path
     id="path1177"
     d="M 12.106666,380.39999 H 11.6 l 3.733333,-8.4 H 15.84 Z"
     class="cls-5"
     inkscape:connector-curvature="0"
     style="fill:#cccccc;stroke-width:1.33333325" />
  <path
     id="path1179"
     d="m 20.146666,379.46666 -0.453333,-1.33334 h -2.786667 l -0.453333,1.33334 H 15.28 l 2.373333,-6.53334 h 1.333333 l 2.346667,6.53334 z m -2.813333,-2.32 h 2 l -1.04,-2.96 z"
     class="cls-5"
     inkscape:connector-curvature="0"
     style="fill:#cccccc;stroke-width:1.33333325" />
  <path
     id="path1181"
     d="m 97.866664,372.93332 h 1.08 v 6.53334 h -0.84 l -3.08,-4.44 v 4.44 h -1.08 v -6.53334 h 0.84 l 3.08,4.4 z"
     class="cls-5"
     inkscape:connector-curvature="0"
     style="fill:#cccccc;stroke-width:1.33333325" />
  <path
     id="path1183"
     d="m 100.44,380.39999 h -0.520002 l 3.733332,-8.4 h 0.52 z"
     class="cls-5"
     inkscape:connector-curvature="0"
     style="fill:#cccccc;stroke-width:1.33333325" />
  <path
     id="path1185"
     d="m 108.46666,379.46666 -0.45333,-1.33334 h -2.78667 l -0.45333,1.33334 h -1.16 l 2.36,-6.53334 h 1.33333 l 2.36,6.53334 z m -2.88,-2.32 h 2.06667 l -0.98667,-2.96 z"
     class="cls-5"
     inkscape:connector-curvature="0"
     style="fill:#cccccc;stroke-width:1.33333325" />
  <path
     id="path1187"
     d="m 9.5466664,413.83999 h 1.1199996 v 6.54667 H 9.7733331 l -3.1066666,-4.38667 v 4.44 H 5.5999999 v -6.54667 h 0.8399999 l 3.08,4.44 z"
     class="cls-5"
     inkscape:connector-curvature="0"
     style="fill:#cccccc;stroke-width:1.33333325" />
  <path
     id="path1189"
     d="M 12.106666,421.33332 H 11.6 l 3.733333,-8.41333 H 15.84 Z"
     class="cls-5"
     inkscape:connector-curvature="0"
     style="fill:#cccccc;stroke-width:1.33333325" />
  <path
     id="path1191"
     d="m 20.146666,420.38666 -0.453333,-1.33334 h -2.786667 l -0.453333,1.33334 H 15.28 l 2.373333,-6.54667 h 1.333333 l 2.346667,6.54667 z m -2.813333,-2.33334 h 2 l -1.04,-2.94666 z"
     class="cls-5"
     inkscape:connector-curvature="0"
     style="fill:#cccccc;stroke-width:1.33333325" />
  <path
     id="path1193"
     d="m 97.866664,413.83999 h 1.08 v 6.54667 h -0.84 l -3.08,-4.38667 v 4.44 h -1.08 v -6.54667 h 0.84 l 3.08,4.44 z"
     class="cls-5"
     inkscape:connector-curvature="0"
     style="fill:#cccccc;stroke-width:1.33333325" />
  <path
     id="path1195"
     d="m 100.44,421.33332 h -0.520002 l 3.733332,-8.41333 h 0.52 z"
     class="cls-5"
     inkscape:connector-curvature="0"
     style="fill:#cccccc;stroke-width:1.33333325" />
  <path
     id="path1197"
     d="m 108.46666,420.38666 -0.45333,-1.33334 h -2.78667 l -0.45333,1.33334 h -1.16 l 2.36,-6.54667 h 1.33333 l 2.36,6.54667 z m -2.88,-2.33334 h 2.06667 l -0.98667,-2.94666 z"
     class="cls-5"
     inkscape:connector-curvature="0"
     style="fill:#cccccc;stroke-width:1.33333325" />
</svg>
