<?xml version="1.0" encoding="UTF-8" standalone="no"?>
<svg
   xmlns:dc="http://purl.org/dc/elements/1.1/"
   xmlns:cc="http://creativecommons.org/ns#"
   xmlns:rdf="http://www.w3.org/1999/02/22-rdf-syntax-ns#"
   xmlns:svg="http://www.w3.org/2000/svg"
   xmlns="http://www.w3.org/2000/svg"
   xmlns:xlink="http://www.w3.org/1999/xlink"
   xmlns:sodipodi="http://sodipodi.sourceforge.net/DTD/sodipodi-0.dtd"
   xmlns:inkscape="http://www.inkscape.org/namespaces/inkscape"
   height="128.5mm"
   width="30.48mm"
   viewBox="0 0 115.2 485.66928"
   version="1.1"
   id="svg1354"
   sodipodi:docname="Aux-A_B-1-8Jr.svg"
   inkscape:version="0.92.2 (5c3e80d, 2017-08-06)">
  <metadata
     id="metadata1358">
    <rdf:RDF>
      <cc:Work
         rdf:about="">
        <dc:format>image/svg+xml</dc:format>
        <dc:type
           rdf:resource="http://purl.org/dc/dcmitype/StillImage" />
        <dc:title />
      </cc:Work>
    </rdf:RDF>
  </metadata>
  <sodipodi:namedview
     units="mm"
     inkscape:document-units="mm"
     inkscape:document-rotation="0"
     pagecolor="#ffffff"
     bordercolor="#666666"
     borderopacity="1"
     objecttolerance="10"
     gridtolerance="10"
     guidetolerance="10"
     inkscape:pageopacity="0"
     inkscape:pageshadow="2"
     inkscape:window-width="1920"
     inkscape:window-height="1017"
     id="namedview1356"
     showgrid="false"
     inkscape:zoom="1.0192176"
     inkscape:cx="-109.68518"
     inkscape:cy="242.83597"
     inkscape:window-x="-8"
     inkscape:window-y="-8"
     inkscape:window-maximized="1"
     inkscape:current-layer="svg1354" />
  <defs
     id="defs860">
    <style
       id="style833">.cls-1{fill:#353535;}.cls-2{fill:url(#linear-gradient);}.cls-3{fill:gray;}.cls-4{fill:#b3b3b3;}.cls-5{fill:#ccc;}.cls-6{fill:#121212;}.cls-7{fill:#fff;}.cls-8{fill:url(#linear-gradient-2);}.cls-9{fill:#828282;}.cls-10{fill:#1e1e1e;}.cls-11{fill:#878787;}.cls-12{fill:#646464;}.cls-13{fill:url(#linear-gradient-3);}.cls-14{fill:url(#linear-gradient-4);}.cls-15{fill:url(#linear-gradient-5);}.cls-16{fill:url(#linear-gradient-6);}.cls-17{fill:url(#linear-gradient-7);}.cls-18{fill:url(#linear-gradient-8);}.cls-19{fill:url(#linear-gradient-9);}.cls-20{fill:url(#linear-gradient-10);}.cls-21{fill:url(#linear-gradient-11);}.cls-22{fill:url(#linear-gradient-12);}.cls-23{fill:url(#linear-gradient-13);}.cls-24{fill:url(#linear-gradient-14);}.cls-25{fill:url(#linear-gradient-15);}.cls-26{fill:url(#linear-gradient-16);}.cls-27{fill:url(#linear-gradient-17);}</style>
    <linearGradient
       id="linear-gradient"
       x1="21.09"
       y1="349.56"
       x2="40.939999"
       y2="349.56"
       gradientUnits="userSpaceOnUse"
       gradientTransform="scale(1.3333333)">
      <stop
         offset="0"
         stop-color="#3fa9f5"
         id="stop835" />
      <stop
         offset="1"
         stop-color="#ed1e79"
         id="stop837" />
    </linearGradient>
    <linearGradient
       id="linear-gradient-2"
       x1="57.119999"
       y1="301.89001"
       x2="57.119999"
       y2="324.28"
       gradientUnits="userSpaceOnUse">
      <stop
         offset="0"
         stop-color="#c8c8c8"
         id="stop840" />
      <stop
         offset="1"
         stop-color="#969696"
         id="stop842" />
    </linearGradient>
    <linearGradient
       id="linear-gradient-3"
       x1="57.119999"
       y1="271.13"
       x2="57.119999"
       y2="293.53"
       xlink:href="#linear-gradient-2" />
    <linearGradient
       id="linear-gradient-4"
       x1="57.119999"
       y1="240.38"
       x2="57.119999"
       y2="262.76999"
       xlink:href="#linear-gradient-2" />
    <linearGradient
       id="linear-gradient-5"
       x1="57.119999"
       y1="209.62"
       x2="57.119999"
       y2="232.02"
       xlink:href="#linear-gradient-2" />
    <linearGradient
       id="linear-gradient-6"
       x1="57.119999"
       y1="178.87"
       x2="57.119999"
       y2="201.25999"
       xlink:href="#linear-gradient-2" />
    <linearGradient
       id="linear-gradient-7"
       x1="57.119999"
       y1="148.11"
       x2="57.119999"
       y2="170.5"
       xlink:href="#linear-gradient-2" />
    <linearGradient
       id="linear-gradient-8"
       x1="57.119999"
       y1="117.35"
       x2="57.119999"
       y2="139.75"
       xlink:href="#linear-gradient-2" />
    <linearGradient
       id="linear-gradient-9"
       x1="57.119999"
       y1="86.599998"
       x2="57.119999"
       y2="108.99"
       xlink:href="#linear-gradient-2" />
    <linearGradient
       id="linear-gradient-10"
       x1="29.280001"
       y1="301.89001"
       x2="29.280001"
       y2="324.28"
       xlink:href="#linear-gradient-2" />
    <linearGradient
       id="linear-gradient-11"
       x1="29.280001"
       y1="271.13"
       x2="29.280001"
       y2="293.53"
       xlink:href="#linear-gradient-2" />
    <linearGradient
       id="linear-gradient-12"
       x1="29.280001"
       y1="240.38"
       x2="29.280001"
       y2="262.76999"
       xlink:href="#linear-gradient-2" />
    <linearGradient
       id="linear-gradient-13"
       x1="29.280001"
       y1="209.62"
       x2="29.280001"
       y2="232.02"
       xlink:href="#linear-gradient-2" />
    <linearGradient
       id="linear-gradient-14"
       x1="29.280001"
       y1="178.87"
       x2="29.280001"
       y2="201.25999"
       xlink:href="#linear-gradient-2" />
    <linearGradient
       id="linear-gradient-15"
       x1="29.280001"
       y1="148.11"
       x2="29.280001"
       y2="170.5"
       xlink:href="#linear-gradient-2" />
    <linearGradient
       id="linear-gradient-16"
       x1="29.280001"
       y1="117.35"
       x2="29.280001"
       y2="139.75"
       xlink:href="#linear-gradient-2" />
    <linearGradient
       id="linear-gradient-17"
       x1="29.280001"
       y1="86.599998"
       x2="29.280001"
       y2="108.99"
       xlink:href="#linear-gradient-2" />
  </defs>
  <g
     id="background"
     transform="scale(1.3333333)">
    <path
       style="fill:#353535"
       inkscape:connector-curvature="0"
       id="rect4155"
       class="cls-1"
       d="M 0,0 H 86.4 V 364.25 H 0 Z" />
  </g>
  <path
     inkscape:connector-curvature="0"
     class="cls-2"
     d="m 28.799999,474.31999 a 0.62666665,0.62666665 0 0 1 -0.333333,-0.0933 0.67999998,0.67999998 0 0 1 -0.266667,-0.93333 l 8.36,-15.09333 a 0.69333332,0.69333332 0 0 1 1.333333,0.33333 v 12.44 l 7.08,-12.77333 a 0.67999998,0.67999998 0 0 1 0.773334,-0.33333 0.69333332,0.69333332 0 0 1 0.506666,0.66666 v 12.44 l 7.08,-12.77333 a 0.67999998,0.67999998 0 0 1 0.773333,-0.33333 0.67999998,0.67999998 0 0 1 0.52,0.66666 v 15.09333 a 0.69333332,0.69333332 0 0 1 -0.693333,0.69334 0.67999998,0.67999998 0 0 1 -0.68,-0.69334 V 461.1867 l -7.08,12.77333 a 0.69333332,0.69333332 0 0 1 -1.333333,-0.33334 V 461.1867 l -7.08,12.77333 a 0.67999998,0.67999998 0 0 1 -0.773333,0.33333 0.69333332,0.69333332 0 0 1 -0.506667,-0.66667 V 461.1867 l -7.08,12.77333 a 0.67999998,0.67999998 0 0 1 -0.6,0.36 z"
     id="path865"
     style="fill:url(#linear-gradient);stroke-width:1.33333325" />
  <path
     style="fill:#808080;stroke-width:1.33333325"
     inkscape:connector-curvature="0"
     class="cls-3"
     d="m 57.906665,458.53332 a 0.66666665,0.66666665 0 0 1 0.666667,-0.66666 h 0.09333 a 0.71999998,0.71999998 0 0 1 0.626667,0.34666 l 2.28,3.57334 2.293333,-3.58667 a 0.67999998,0.67999998 0 0 1 0.613333,-0.33333 h 0.133334 a 0.66666665,0.66666665 0 0 1 0.68,0.66666 v 6.29334 a 0.65333332,0.65333332 0 0 1 -0.68,0.65333 0.66666665,0.66666665 0 0 1 -0.653334,-0.65333 v -4.52 l -1.84,2.77333 a 0.62666665,0.62666665 0 0 1 -1.12,0 l -1.826666,-2.74667 v 4.50667 a 0.63999998,0.63999998 0 0 1 -0.666667,0.64 0.62666665,0.62666665 0 0 1 -0.64,-0.64 z"
     id="path867" />
  <path
     style="fill:#b3b3b3;stroke-width:1.33333325"
     inkscape:connector-curvature="0"
     class="cls-4"
     d="m 64.653332,457.86666 h -0.133334 a 0.67999998,0.67999998 0 0 0 -0.613333,0.33333 l -2.293333,3.58667 -2.28,-3.57334 a 0.71999998,0.71999998 0 0 0 -0.626667,-0.34666 h -0.133333 a 0.66666665,0.66666665 0 0 0 -0.666667,0.66666 v 6.30667 a 0.62666665,0.62666665 0 0 0 0.64,0.64 0.63999998,0.63999998 0 0 0 0.666667,-0.64 v -4.50667 l 1.826666,2.74667 a 0.62666665,0.62666665 0 0 0 1.12,0 l 1.84,-2.77333 v 4.52 a 0.66666665,0.66666665 0 0 0 0.653334,0.65333 0.65333332,0.65333332 0 0 0 0.68,-0.65333 v -6.29334 a 0.66666665,0.66666665 0 0 0 -0.68,-0.66666 z"
     id="path869" />
  <path
     style="fill:#808080;stroke-width:1.33333325"
     inkscape:connector-curvature="0"
     class="cls-3"
     d="m 66.813332,458.50666 a 0.66666665,0.66666665 0 0 1 1.333333,0 v 6.32 a 0.66666665,0.66666665 0 0 1 -1.333333,0 z"
     id="path871" />
  <path
     style="fill:#b3b3b3;stroke-width:1.33333325"
     inkscape:connector-curvature="0"
     class="cls-4"
     d="m 67.479998,457.85332 a 0.65333332,0.65333332 0 0 0 -0.666666,0.65334 v 6.32 a 0.66666665,0.66666665 0 0 0 1.333333,0 v -6.32 a 0.65333332,0.65333332 0 0 0 -0.653333,-0.65334 z"
     id="path873" />
  <path
     style="fill:#808080;stroke-width:1.33333325"
     inkscape:connector-curvature="0"
     class="cls-3"
     d="m 69.613332,458.53332 a 0.66666665,0.66666665 0 0 1 0.666666,-0.66666 h 0.146667 a 0.85333331,0.85333331 0 0 1 0.693333,0.38666 l 3.773333,4.86667 v -4.62667 a 0.666667,0.666667 0 0 1 1.333334,0 v 6.32 a 0.65333332,0.65333332 0 0 1 -0.653334,0.66667 v 0 a 0.87999998,0.87999998 0 0 1 -0.693333,-0.4 l -3.88,-5.01333 v 4.77333 a 0.66666665,0.66666665 0 0 1 -1.333333,0 z"
     id="path875" />
  <path
     style="fill:#b3b3b3;stroke-width:1.33333325"
     inkscape:connector-curvature="0"
     class="cls-4"
     d="m 75.533331,457.85332 a 0.65333332,0.65333332 0 0 0 -0.64,0.64 v 4.62667 l -3.773333,-4.86667 a 0.85333331,0.85333331 0 0 0 -0.693333,-0.38666 h -0.146667 a 0.66666665,0.66666665 0 0 0 -0.666666,0.66666 v 6.30667 a 0.66666665,0.66666665 0 0 0 1.333333,0 v -4.77333 l 3.88,5.01333 a 0.87999998,0.87999998 0 0 0 0.693333,0.4 v 0 a 0.65333332,0.65333332 0 0 0 0.653333,-0.66667 v -6.32 a 0.65333332,0.65333332 0 0 0 -0.666666,-0.64 z"
     id="path877" />
  <path
     style="fill:#808080;stroke-width:1.33333325"
     inkscape:connector-curvature="0"
     class="cls-3"
     d="m 77.599998,458.57332 a 0.66666665,0.66666665 0 0 1 0.68,-0.66666 h 2.146667 a 3.7599999,3.7599999 0 0 1 4,3.73333 v 0 a 3.7733332,3.7733332 0 0 1 -4,3.76 h -2.146667 a 0.65333332,0.65333332 0 0 1 -0.68,-0.66667 z m 2.826667,5.65334 a 2.4533333,2.4533333 0 0 0 2.666666,-2.53334 v 0 a 2.4666666,2.4666666 0 0 0 -2.666666,-2.56 h -1.493334 v 5.12 z"
     id="path879" />
  <path
     style="fill:#b3b3b3;stroke-width:1.33333325"
     inkscape:connector-curvature="0"
     class="cls-4"
     d="m 80.426665,457.90666 h -2.146667 a 0.66666665,0.66666665 0 0 0 -0.68,0.66666 v 6.18667 a 0.65333332,0.65333332 0 0 0 0.68,0.66667 h 2.146667 a 3.7733332,3.7733332 0 0 0 4,-3.76 v 0 a 3.7599999,3.7599999 0 0 0 -4,-3.73334 z m -1.493334,6.32 v -5.12 h 1.493334 a 2.4666666,2.4666666 0 0 1 2.666666,2.56 v 0 a 2.4533333,2.4533333 0 0 1 -2.666666,2.53333 z"
     id="path881" />
  <path
     style="fill:#808080;stroke-width:1.33333325"
     inkscape:connector-curvature="0"
     class="cls-3"
     d="m 57.906665,467.34665 a 0.66666665,0.66666665 0 0 1 0.666667,-0.66666 h 0.09333 a 0.71999998,0.71999998 0 0 1 0.626667,0.34666 l 2.32,3.64 2.293333,-3.57333 a 0.69333332,0.69333332 0 0 1 0.613333,-0.34667 h 0.133334 a 0.66666665,0.66666665 0 0 1 0.68,0.66667 v 6.29333 a 0.66666665,0.66666665 0 0 1 -0.68,0.66667 0.67999998,0.67999998 0 0 1 -0.653334,-0.66667 v -4.50666 l -1.84,2.76 a 0.62666665,0.62666665 0 0 1 -1.12,0 l -1.826666,-2.74667 v 4.50667 a 0.65333332,0.65333332 0 0 1 -0.666667,0.65333 0.63999998,0.63999998 0 0 1 -0.64,-0.65333 z"
     id="path883" />
  <path
     style="fill:#b3b3b3;stroke-width:1.33333325"
     inkscape:connector-curvature="0"
     class="cls-4"
     d="m 64.653332,466.66665 h -0.133334 a 0.69333332,0.69333332 0 0 0 -0.613333,0.34667 l -2.293333,3.65333 -2.28,-3.57333 a 0.71999998,0.71999998 0 0 0 -0.666667,-0.42667 h -0.133333 a 0.66666665,0.66666665 0 0 0 -0.666667,0.66667 v 6.30667 a 0.63999998,0.63999998 0 0 0 0.64,0.65333 0.65333332,0.65333332 0 0 0 0.666667,-0.65333 v -4.50667 l 1.826666,2.74667 a 0.62666665,0.62666665 0 0 0 1.12,0 l 1.88,-2.74667 v 4.50667 a 0.67999998,0.67999998 0 0 0 0.653334,0.66666 0.66666665,0.66666665 0 0 0 0.68,-0.66666 v -6.29334 a 0.66666665,0.66666665 0 0 0 -0.68,-0.66666 z"
     id="path885" />
  <path
     style="fill:#808080;stroke-width:1.33333325"
     inkscape:connector-curvature="0"
     class="cls-3"
     d="m 66.733332,473.58665 v -6.2 a 0.66666665,0.66666665 0 0 1 0.666666,-0.66666 h 4.4 a 0.59999999,0.59999999 0 0 1 0,1.18666 h -3.733333 v 1.94667 h 3.24 a 0.61333332,0.61333332 0 0 1 0.6,0.61333 0.58666665,0.58666665 0 0 1 -0.6,0.57334 h -3.24 v 2.02666 h 3.786667 a 0.59999999,0.59999999 0 0 1 0,1.18667 h -4.453334 a 0.66666665,0.66666665 0 0 1 -0.666666,-0.66667 z"
     id="path887" />
  <path
     style="fill:#b3b3b3;stroke-width:1.33333325"
     inkscape:connector-curvature="0"
     class="cls-4"
     d="m 71.799998,466.66665 h -4.4 a 0.66666665,0.66666665 0 0 0 -0.666666,0.66667 v 6.2 a 0.66666665,0.66666665 0 0 0 0.666666,0.66667 h 4.453334 a 0.59999999,0.59999999 0 0 0 0,-1.18667 h -3.786667 v -2.02667 h 3.24 a 0.58666665,0.58666665 0 0 0 0.6,-0.57333 0.61333332,0.61333332 0 0 0 -0.6,-0.61333 h -3.24 v -1.94667 h 3.733333 a 0.59999999,0.59999999 0 0 0 0,-1.18667 z"
     id="path889" />
  <path
     style="fill:#808080;stroke-width:1.33333325"
     inkscape:connector-curvature="0"
     class="cls-3"
     d="m 73.426665,467.31999 a 0.66666665,0.66666665 0 0 1 1.333333,0 v 5.72 h 3.413333 a 0.59999999,0.59999999 0 0 1 0.6,0.6 0.61333332,0.61333332 0 0 1 -0.6,0.61333 h -4.08 a 0.66666665,0.66666665 0 0 1 -0.666666,-0.66667 z"
     id="path891" />
  <path
     style="fill:#b3b3b3;stroke-width:1.33333325"
     inkscape:connector-curvature="0"
     class="cls-4"
     d="m 74.093331,466.66665 a 0.65333332,0.65333332 0 0 0 -0.666666,0.65334 v 6.26666 a 0.66666665,0.66666665 0 0 0 0.666666,0.66667 h 4.08 a 0.61333332,0.61333332 0 0 0 0.6,-0.61333 0.59999999,0.59999999 0 0 0 -0.6,-0.6 h -3.413333 v -5.72 a 0.65333332,0.65333332 0 0 0 -0.666667,-0.65334 z"
     id="path893" />
  <path
     style="fill:#808080;stroke-width:1.33333325"
     inkscape:connector-curvature="0"
     class="cls-3"
     d="m 79.573331,467.38665 a 0.66666665,0.66666665 0 0 1 0.666667,-0.66666 h 2.146667 a 3.7599999,3.7599999 0 0 1 4,3.74666 v 0 a 3.7866666,3.7866666 0 0 1 -4,3.77334 h -2.146667 a 0.66666665,0.66666665 0 0 1 -0.666667,-0.66667 z m 2.813334,5.65334 a 2.4666666,2.4666666 0 0 0 2.666666,-2.53334 v 0 a 2.4799999,2.4799999 0 0 0 -2.666666,-2.56 h -1.493334 v 5.12 z"
     id="path895" />
  <path
     style="fill:#b3b3b3;stroke-width:1.33333325"
     inkscape:connector-curvature="0"
     class="cls-4"
     d="m 82.386665,466.66665 h -2.146667 a 0.66666665,0.66666665 0 0 0 -0.666667,0.66667 v 6.2 a 0.66666665,0.66666665 0 0 0 0.666667,0.66667 h 2.146667 a 3.7866666,3.7866666 0 0 0 4,-3.77334 v 0 a 3.7599999,3.7599999 0 0 0 -4,-3.74666 z m -1.493334,6.32 v -5.12 h 1.493334 a 2.4799999,2.4799999 0 0 1 2.666666,2.56 v 0 a 2.4666666,2.4666666 0 0 1 -2.666666,2.53334 z"
     id="path897" />
  <path
     style="fill:#cccccc;stroke-width:1.33333325"
     inkscape:connector-curvature="0"
     class="cls-5"
     d="M 47.439999,13.333333 V 24.519999 H 45.253332 V 17.24 l -3.146666,5.186666 h -0.266667 l -3.173333,-5.173333 v 7.24 h -2.173334 v -11.16 h 2.266667 l 3.213333,5.333333 3.2,-5.333333 z"
     id="path899" />
  <path
     style="fill:#cccccc;stroke-width:1.33333325"
     inkscape:connector-curvature="0"
     class="cls-5"
     d="m 52.639999,22.386666 h 4.693333 v 2.106667 h -6.893333 v -11.16 h 6.893333 V 15.44 h -4.693333 v 2.386666 h 4.24 v 2.04 h -4.24 z"
     id="path901" />
  <path
     style="fill:#cccccc;stroke-width:1.33333325"
     inkscape:connector-curvature="0"
     class="cls-5"
     d="m 62.039998,22.386666 h 4.266667 v 2.106667 h -6.48 v -11.16 h 2.213333 z"
     id="path903" />
  <path
     style="fill:#cccccc;stroke-width:1.33333325"
     inkscape:connector-curvature="0"
     class="cls-5"
     d="m 72.919998,13.333333 a 5.0799999,5.0799999 0 0 1 3.84,1.613333 5.4666665,5.4666665 0 0 1 1.546667,4 5.4799999,5.4799999 0 0 1 -1.546667,4 5.1199999,5.1199999 0 0 1 -3.84,1.613333 H 68.466665 V 13.333333 Z m 0,9.08 a 3.0799999,3.0799999 0 0 0 2.36,-0.96 3.5466666,3.5466666 0 0 0 0.92,-2.533333 3.4533332,3.4533332 0 0 0 -0.92,-2.506667 3.0533333,3.0533333 0 0 0 -2.36,-0.973333 h -2.253333 v 6.973333 z"
     id="path905" />
  <g
     transform="scale(1.3333333)"
     data-name="EQ bgs copy"
     id="EQ_bgs_copy">
    <rect
       id="rect908"
       rx="1.42"
       height="36.849998"
       width="27.92"
       y="28.35"
       x="53.049999"
       class="cls-6" />
  </g>
  <path
     style="fill:#cccccc;stroke-width:1.33333325"
     inkscape:connector-curvature="0"
     class="cls-5"
     d="m 22.013333,42.026666 h 1.253333 v 6.533333 h -1.253333 z"
     id="path911" />
  <path
     style="fill:#cccccc;stroke-width:1.33333325"
     inkscape:connector-curvature="0"
     class="cls-5"
     d="m 28.439999,42.026666 h 1.24 v 6.533333 h -0.946666 l -2.666667,-4 v 4 h -1.253333 v -6.533333 h 0.946666 l 2.666667,4 z"
     id="path913" />
  <path
     style="fill:#cccccc;stroke-width:1.33333325"
     inkscape:connector-curvature="0"
     class="cls-5"
     d="m 83.519998,48.693332 a 3.1333333,3.1333333 0 0 1 -2.32,-0.986667 3.3333333,3.3333333 0 0 1 -0.946667,-2.373333 3.2933333,3.2933333 0 0 1 0.946667,-2.413333 3.2399999,3.2399999 0 0 1 4.653333,0 3.2933333,3.2933333 0 0 1 0.946667,2.413333 3.3333333,3.3333333 0 0 1 -0.946667,2.413333 3.1599999,3.1599999 0 0 1 -2.333333,0.946667 z m 0,-1.333333 a 1.9066666,1.9066666 0 0 0 1.453333,-0.6 2.1066666,2.1066666 0 0 0 0.586667,-1.426667 2.1466666,2.1466666 0 0 0 -0.586667,-1.546666 2.0666666,2.0666666 0 0 0 -2.906666,0 2.1466666,2.1466666 0 0 0 -0.586667,1.546666 2.1066666,2.1066666 0 0 0 0.586667,1.533333 1.9066666,1.9066666 0 0 0 1.453333,0.56 z"
     id="path915" />
  <path
     style="fill:#cccccc;stroke-width:1.33333325"
     inkscape:connector-curvature="0"
     class="cls-5"
     d="m 88.653331,48.079999 a 2.1466666,2.1466666 0 0 1 -0.653333,-1.653333 v -4.4 h 1.24 v 4.293333 a 1.1733333,1.1733333 0 0 0 2.346666,0 v -4.293333 h 1.24 v 4.4 a 2.1466666,2.1466666 0 0 1 -0.68,1.653333 2.7599999,2.7599999 0 0 1 -3.466666,0 z"
     id="path917" />
  <path
     style="fill:#cccccc;stroke-width:1.33333325"
     inkscape:connector-curvature="0"
     class="cls-5"
     d="m 98.439998,42.026666 v 1.226666 h -1.693334 v 5.333333 h -1.253333 v -5.333333 h -1.693333 v -1.226666 z"
     id="path919" />
  <path
     style="fill:#ffffff;stroke-width:1.33333325"
     inkscape:connector-curvature="0"
     class="cls-7"
     d="m 40.439999,107.08 -0.44,-1.33334 H 37.026666 L 36.573332,107.08 h -1.586666 l 2.666666,-7.466669 h 1.826667 L 42.146666,107.08 Z m -2.946667,-2.66667 h 2.04 l -1.013333,-3.08 z"
     id="path922" />
  <path
     style="fill:#ffffff;stroke-width:1.33333325"
     inkscape:connector-curvature="0"
     class="cls-7"
     d="m 43.826666,106.53333 a 2.4133333,2.4133333 0 0 1 -0.8,-1.89333 v -5.026669 h 1.466666 V 104.52 c 0,0.78666 0.44,1.33333 1.333334,1.33333 0.893333,0 1.333333,-0.48 1.333333,-1.33333 v -4.906669 h 1.466666 V 104.64 a 2.4133333,2.4133333 0 0 1 -0.626666,1.89333 3.3866666,3.3866666 0 0 1 -4.106667,0 z"
     id="path924" />
  <path
     style="fill:#ffffff;stroke-width:1.33333325"
     inkscape:connector-curvature="0"
     class="cls-7"
     d="m 56.159999,107.08 h -1.68 l -1.453334,-2.42667 -1.44,2.42667 h -1.666666 l 2.28,-3.82667 -2.16,-3.639999 h 1.666666 l 1.333334,2.239999 1.333333,-2.239999 h 1.626667 L 53.866665,103.24 Z"
     id="path926" />
  <path
     style="fill:#ffffff;stroke-width:1.33333325"
     inkscape:connector-curvature="0"
     class="cls-7"
     d="m 65.506665,107.08 -0.44,-1.33334 H 62.093332 L 61.639998,107.08 h -1.639999 l 2.666666,-7.466669 h 1.826667 L 67.159998,107.08 Z m -2.946667,-2.66667 h 2.04 l -1.013333,-3.08 z"
     id="path928" />
  <path
     style="fill:#ffffff;stroke-width:1.33333325"
     inkscape:connector-curvature="0"
     class="cls-7"
     d="m 68.639998,108.14666 h -0.64 l 4.266667,-9.599996 h 0.613333 z"
     id="path930" />
  <path
     style="fill:#ffffff;stroke-width:1.33333325"
     inkscape:connector-curvature="0"
     class="cls-7"
     d="m 79.999998,104.92 a 2.0533333,2.0533333 0 0 1 -0.666667,1.56 2.3999999,2.3999999 0 0 1 -1.653333,0.6 h -3.2 v -7.466669 h 2.946667 a 2.3599999,2.3599999 0 0 1 1.613333,0.599999 1.9333333,1.9333333 0 0 1 0.653333,1.50667 1.8266666,1.8266666 0 0 1 -0.693333,1.49333 1.8666666,1.8666666 0 0 1 1,1.70667 z m -4,-3.92 v 1.66666 h 1.466667 a 0.79999998,0.79999998 0 0 0 0.8,-0.82666 0.78666665,0.78666665 0 0 0 -0.8,-0.81334 z m 1.693333,4.70666 a 0.88,0.88 0 0 0 0,-1.76 h -1.693333 v 1.76 z"
     id="path932" />
  <path
     style="fill:#cccccc;stroke-width:1.33333325"
     inkscape:connector-curvature="0"
     class="cls-5"
     d="M 13.586666,133.84 13.12,132.50666 H 10.346666 L 9.8799998,133.84 h -1.16 l 2.3733332,-6.53334 h 1.333333 l 2.36,6.53334 z m -2.92,-2.32 h 2.106667 l -1.04,-2.96 z"
     id="path935" />
  <path
     style="fill:#cccccc;stroke-width:1.33333325"
     inkscape:connector-curvature="0"
     class="cls-5"
     d="m 16.16,127.30666 h 0.933333 V 133.84 H 16 v -5.33334 l -1.333334,0.37334 -0.253333,-0.92 z"
     id="path937" />
  <path
     style="fill:#cccccc;stroke-width:1.33333325"
     inkscape:connector-curvature="0"
     class="cls-5"
     d="m 101.44,133.84 -0.46667,-1.33334 H 98.199998 L 97.733331,133.84 h -1.16 l 2.373333,-6.53334 H 100.28 l 2.36,6.53334 z m -2.893336,-2.32 h 2.079996 l -1.039996,-2.96 z"
     id="path939" />
  <path
     style="fill:#cccccc;stroke-width:1.33333325"
     inkscape:connector-curvature="0"
     class="cls-5"
     d="M 102.92,133.84 V 133 l 2.28,-2.33334 a 2.2933333,2.2933333 0 0 0 0.84,-1.44 0.94666664,0.94666664 0 0 0 -1.01334,-1.01333 1.3333333,1.3333333 0 0 0 -1.21333,0.81333 l -0.90667,-0.53333 a 2.2533333,2.2533333 0 0 1 2.10667,-1.33333 2.1733333,2.1733333 0 0 1 1.48,0.53333 1.88,1.88 0 0 1 0.61333,1.48 A 3.2266666,3.2266666 0 0 1 106,131.30666 l -1.48,1.46667 h 2.66666 v 1.04 z"
     id="path941" />
  <path
     style="fill:#cccccc;stroke-width:1.33333325"
     inkscape:connector-curvature="0"
     class="cls-5"
     d="M 12.56,174.93333 12.106666,173.6 H 9.3333331 l -0.4533333,1.33333 H 7.6933331 L 10.066666,168.4 H 11.4 l 2.36,6.53333 z m -2.8800002,-2.32 h 2.0666662 l -1.08,-2.94667 z"
     id="path943" />
  <path
     style="fill:#cccccc;stroke-width:1.33333325"
     inkscape:connector-curvature="0"
     class="cls-5"
     d="m 16.88,171.06666 a 1.92,1.92 0 0 1 1.6,1.89334 1.9466666,1.9466666 0 0 1 -0.666667,1.54666 2.3999999,2.3999999 0 0 1 -1.626667,0.54667 A 2.2266666,2.2266666 0 0 1 14,173.72 l 0.92,-0.53334 a 1.2,1.2 0 0 0 1.333333,0.84 c 0.76,0 1.226667,-0.41333 1.226667,-1.05333 0,-0.64 -0.466667,-1.04 -1.226667,-1.04 H 16 L 15.573333,171.28 16.986666,169.42666 H 14.32 v -1.01333 h 4 v 0.92 z"
     id="path945" />
  <path
     style="fill:#cccccc;stroke-width:1.33333325"
     inkscape:connector-curvature="0"
     class="cls-5"
     d="M 101.2,174.93333 100.73333,173.6 h -2.773332 l -0.466667,1.33333 h -1.16 L 98.666664,168.4 h 1.333334 l 2.373332,6.53333 z m -2.893336,-2.32 h 2.079996 l -1.039996,-2.94667 z"
     id="path947" />
  <path
     style="fill:#cccccc;stroke-width:1.33333325"
     inkscape:connector-curvature="0"
     class="cls-5"
     d="m 107.65333,172.76 v 1 h -0.74667 v 1.17333 h -1.08 V 173.76 h -3.16 v -1 L 104.92,168.4 h 1.16 l -2.25334,4.36 H 105.88 v -1.69334 h 1.08 V 172.76 Z"
     id="path949" />
  <path
     style="fill:#cccccc;stroke-width:1.33333325"
     inkscape:connector-curvature="0"
     class="cls-5"
     d="M 12.546666,216.45333 12.08,215.11999 H 9.3333331 l -0.4666667,1.33334 H 7.6799998 l 2.3733332,-6.53334 h 1.333333 l 2.36,6.53334 z m -2.8933329,-2.32 h 2.0799999 l -1.066667,-2.94667 z"
     id="path951" />
  <path
     style="fill:#cccccc;stroke-width:1.33333325"
     inkscape:connector-curvature="0"
     class="cls-5"
     d="m 16.306666,212.38666 a 2.3599999,2.3599999 0 0 1 1.586667,0.56 2.1199999,2.1199999 0 0 1 0,3.06667 2.4133333,2.4133333 0 0 1 -1.626667,0.56 2.2266666,2.2266666 0 0 1 -2.213333,-1.4 l 0.92,-0.53334 a 1.2,1.2 0 0 0 1.333333,0.89334 c 0.746667,0 1.213334,-0.41334 1.213334,-1.05334 a 1.0533333,1.0533333 0 0 0 -1.186667,-1.05333 H 14.36 l 0.253333,-3.50667 h 3.64 v 1.01334 H 15.586666 L 15.48,212.38666 Z"
     id="path953" />
  <path
     style="fill:#cccccc;stroke-width:1.33333325"
     inkscape:connector-curvature="0"
     class="cls-5"
     d="M 101.33333,216.45333 100.88,215.11999 h -2.760002 l -0.453334,1.33334 h -1.173333 l 2.373333,-6.53334 H 100.2 l 2.36,6.53334 z m -2.879999,-2.32 H 100.52 l -1.040002,-2.94667 z"
     id="path955" />
  <path
     style="fill:#cccccc;stroke-width:1.33333325"
     inkscape:connector-curvature="0"
     class="cls-5"
     d="m 105.10666,212.11999 a 2.2533333,2.2533333 0 0 1 1.66667,0.62667 2.0933333,2.0933333 0 0 1 0.64,1.6 2.1333333,2.1333333 0 0 1 -0.64,1.61333 2.5733333,2.5733333 0 0 1 -3.33333,0 2.1333333,2.1333333 0 0 1 -0.64,-1.61333 2.2533333,2.2533333 0 0 1 0.38666,-1.33333 l 2.06667,-3.10667 H 106.48 l -1.49334,2.2 z m 1.24,2.22667 a 1.24,1.24 0 1 0 -1.24,1.21333 1.1733333,1.1733333 0 0 0 1.24,-1.21333 z"
     id="path957" />
  <path
     style="fill:#cccccc;stroke-width:1.33333325"
     inkscape:connector-curvature="0"
     class="cls-5"
     d="M 12.986666,257.33333 12.52,255.99999 H 9.7466664 l -0.4133333,1.33334 H 8.1199998 l 2.3733332,-6.53334 h 1.333333 L 14.2,257.33333 Z m -2.893333,-2.32 h 2.08 l -1.04,-3.01334 z"
     id="path959" />
  <path
     style="fill:#cccccc;stroke-width:1.33333325"
     inkscape:connector-curvature="0"
     class="cls-5"
     d="m 13.946666,250.77333 h 4.16 v 0.93333 l -2.293333,5.62667 h -1.146667 l 2.266667,-5.50667 h -2.986667 z"
     id="path961" />
  <path
     style="fill:#cccccc;stroke-width:1.33333325"
     inkscape:connector-curvature="0"
     class="cls-5"
     d="M 101.33333,257.33333 100.88,255.99999 h -2.786669 l -0.453333,1.33334 h -1.173334 l 2.373334,-6.53334 h 1.333332 l 2.37333,6.53334 z m -2.893332,-2.32 H 100.52 l -1.040002,-3.01334 z"
     id="path963" />
  <path
     style="fill:#cccccc;stroke-width:1.33333325"
     inkscape:connector-curvature="0"
     class="cls-5"
     d="m 107.34666,255.49333 c 0,1.2 -0.90666,1.93333 -2.28,1.93333 a 2.5733333,2.5733333 0 0 1 -1.68,-0.50667 1.8666666,1.8666666 0 0 1 0.34667,-3.01333 1.5333333,1.5333333 0 0 1 -0.74667,-1.33333 1.68,1.68 0 0 1 0.6,-1.33334 2.4533333,2.4533333 0 0 1 2.94667,0 1.68,1.68 0 0 1 0.6,1.33334 1.56,1.56 0 0 1 -0.74667,1.33333 1.7066666,1.7066666 0 0 1 0.96,1.58667 z m -1.06666,-0.0933 c 0,-0.65333 -0.49334,-1.02666 -1.21334,-1.02666 -0.72,0 -1.22666,0.37333 -1.22666,1.02666 0,0.65334 0.48,1.01334 1.22666,1.01334 0.74667,0 1.21334,-0.41334 1.21334,-1.01334 z m -2.21334,-2.82666 a 1,1 0 0 0 2,0 1,1 0 0 0 -2,0 z"
     id="path965" />
  <path
     style="fill:#cccccc;stroke-width:1.33333325"
     inkscape:connector-curvature="0"
     class="cls-5"
     d="m 14.2,295.59999 a 1.76,1.76 0 0 1 -0.573334,1.33334 1.9733333,1.9733333 0 0 1 -1.333333,0.53333 H 9.4399998 v -6.54667 H 12 a 1.88,1.88 0 0 1 1.333333,0.53334 1.6533333,1.6533333 0 0 1 0.56,1.33333 1.5733333,1.5733333 0 0 1 -0.653333,1.33333 1.68,1.68 0 0 1 0.96,1.48 z m -3.68,-3.6 v 1.72 H 12 a 0.86666665,0.86666665 0 0 0 0,-1.72 z m 1.72,4.52 a 0.91999998,0.91999998 0 0 0 0,-1.82666 h -1.72 v 1.82666 z"
     id="path967" />
  <path
     style="fill:#cccccc;stroke-width:1.33333325"
     inkscape:connector-curvature="0"
     class="cls-5"
     d="m 16,290.91999 h 0.933333 v 6.54667 h -1.08 v -5.33333 L 14.52,292.50666 14.253333,291.59999 Z"
     id="path969" />
  <path
     style="fill:#cccccc;stroke-width:1.33333325"
     inkscape:connector-curvature="0"
     class="cls-5"
     d="m 102.26666,295.59999 a 1.76,1.76 0 0 1 -0.57333,1.33334 2,2 0 0 1 -1.33333,0.53333 h -2.800002 v -6.54667 h 2.586662 a 1.92,1.92 0 0 1 1.33334,0.53334 1.6533333,1.6533333 0 0 1 0.56,1.33333 1.56,1.56 0 0 1 -0.66667,1.33333 1.6666666,1.6666666 0 0 1 0.89333,1.48 z m -3.693329,-3.6 v 1.72 h 1.519999 a 0.86666665,0.86666665 0 0 0 0,-1.72 z m 1.733329,4.52 a 0.91999998,0.91999998 0 0 0 0,-1.82666 h -1.733329 v 1.82666 z"
     id="path971" />
  <path
     style="fill:#cccccc;stroke-width:1.33333325"
     inkscape:connector-curvature="0"
     class="cls-5"
     d="m 102.66666,297.46666 v -0.84 l 2.28,-2.33333 a 2.2933333,2.2933333 0 0 0 0.82667,-1.44 0.94666664,0.94666664 0 0 0 -1.01333,-1 1.3333333,1.3333333 0 0 0 -1.21334,0.81333 L 102.64,292.13333 a 2.2799999,2.2799999 0 0 1 2.12,-1.33334 2.1199999,2.1199999 0 0 1 1.46666,0.54667 1.8666666,1.8666666 0 0 1 0.62667,1.48 3.1999999,3.1999999 0 0 1 -1.12,2.12 l -1.46667,1.48 h 2.66667 v 1.04 z"
     id="path973" />
  <path
     style="fill:#cccccc;stroke-width:1.33333325"
     inkscape:connector-curvature="0"
     class="cls-5"
     d="M 13.333333,336.47999 A 1.72,1.72 0 0 1 12.76,337.81332 1.9466666,1.9466666 0 0 1 11.426666,338.34666 H 8.5199998 v -6.53333 h 2.5866662 a 1.9066666,1.9066666 0 0 1 1.333334,0.52 1.68,1.68 0 0 1 0.56,1.33333 1.5866666,1.5866666 0 0 1 -0.666667,1.33333 1.6533333,1.6533333 0 0 1 1,1.48 z m -3.6933332,-3.65333 v 1.70666 h 1.4666662 a 0.85333331,0.85333331 0 0 0 0,-1.70666 z M 11.32,337.33332 a 0.91999998,0.91999998 0 0 0 0,-1.82666 H 9.5866664 v 1.82666 z"
     id="path975" />
  <path
     style="fill:#cccccc;stroke-width:1.33333325"
     inkscape:connector-curvature="0"
     class="cls-5"
     d="m 16.68,334.47999 a 1.92,1.92 0 0 1 1.586666,1.89333 1.8933333,1.8933333 0 0 1 -0.653333,1.53334 2.4399999,2.4399999 0 0 1 -1.626667,0.56 2.2399999,2.2399999 0 0 1 -2.2,-1.33334 l 0.92,-0.53333 a 1.2,1.2 0 0 0 1.333334,0.84 c 0.746666,0 1.213333,-0.41333 1.213333,-1.05333 0,-0.64 -0.466667,-1.05334 -1.213333,-1.05334 H 15.8 l -0.44,-0.64 1.413333,-1.85333 h -2.666667 v -1.01333 h 4 v 0.90667 z"
     id="path977" />
  <path
     style="fill:#cccccc;stroke-width:1.33333325"
     inkscape:connector-curvature="0"
     class="cls-5"
     d="m 101.90666,336.47999 a 1.7466666,1.7466666 0 0 1 -0.56,1.33333 1.96,1.96 0 0 1 -1.399996,0.53334 h -2.8 v -6.53333 h 2.666667 a 1.8666666,1.8666666 0 0 1 1.333329,0.52 1.68,1.68 0 0 1 0.56,1.33333 1.5733333,1.5733333 0 0 1 -0.65333,1.33333 1.6666666,1.6666666 0 0 1 0.85333,1.48 z m -3.679996,-3.65333 v 1.70666 h 1.52 a 0.85333331,0.85333331 0 0 0 0,-1.70666 z m 1.773334,4.50666 a 0.91999998,0.91999998 0 0 0 0,-1.82666 h -1.773334 v 1.82666 z"
     id="path979" />
  <path
     style="fill:#cccccc;stroke-width:1.33333325"
     inkscape:connector-curvature="0"
     class="cls-5"
     d="m 107.44,336.17332 v 1 h -0.77334 v 1.17334 h -1.08 v -1.17334 H 102.4 v -1 l 2.25333,-4.35999 h 1.17333 l -2.25333,4.35999 h 2.04 v -1.70666 h 1.05333 v 1.70666 z"
     id="path981" />
  <path
     style="fill:#cccccc;stroke-width:1.33333325"
     inkscape:connector-curvature="0"
     class="cls-5"
     d="M 13.253333,377.49332 A 1.7333333,1.7333333 0 0 1 12.68,378.82666 1.9733333,1.9733333 0 0 1 11.346666,379.35999 H 8.4933331 v -6.54667 H 11.16 a 1.88,1.88 0 0 1 1.333333,0.53334 1.68,1.68 0 0 1 0.56,1.33333 1.56,1.56 0 0 1 -0.666667,1.33333 1.6666666,1.6666666 0 0 1 0.866667,1.48 z m -3.6933332,-3.66666 v 1.72 h 1.5333332 a 0.86666665,0.86666665 0 0 0 0,-1.72 z m 1.7333332,4.52 a 0.91999998,0.91999998 0 0 0 0,-1.82667 H 9.5599998 v 1.82667 z"
     id="path983" />
  <path
     style="fill:#cccccc;stroke-width:1.33333325"
     inkscape:connector-curvature="0"
     class="cls-5"
     d="m 16.106666,375.27999 a 2.3199999,2.3199999 0 0 1 1.573334,0.56 2.1466666,2.1466666 0 0 1 0,3.08 2.3733333,2.3733333 0 0 1 -1.613334,0.56 2.2266666,2.2266666 0 0 1 -2.226666,-1.4 l 0.92,-0.53333 a 1.2133333,1.2133333 0 0 0 1.333333,0.88 c 0.733333,0 1.213333,-0.4 1.213333,-1.05334 a 1.0533333,1.0533333 0 0 0 -1.2,-1.04 h -1.96 l 0.253334,-3.52 h 3.64 v 1.01334 h -2.666667 l -0.106667,1.45333 z"
     id="path985" />
  <path
     style="fill:#cccccc;stroke-width:1.33333325"
     inkscape:connector-curvature="0"
     class="cls-5"
     d="m 102,377.49332 a 1.7733333,1.7733333 0 0 1 -0.56,1.33334 2.0133333,2.0133333 0 0 1 -1.33334,0.53333 h -2.799996 v -6.54667 h 2.6 a 1.88,1.88 0 0 1 1.333336,0.53334 1.68,1.68 0 0 1 0.56,1.33333 1.5466666,1.5466666 0 0 1 -0.65334,1.33333 1.68,1.68 0 0 1 0.85334,1.48 z m -3.680002,-3.66666 v 1.72 h 1.52 a 0.86666665,0.86666665 0 0 0 0,-1.72 z m 1.68,4.52 a 0.91999998,0.91999998 0 0 0 0,-1.82667 h -1.68 v 1.82667 z"
     id="path987" />
  <path
     style="fill:#cccccc;stroke-width:1.33333325"
     inkscape:connector-curvature="0"
     class="cls-5"
     d="m 104.97333,375.01332 a 2.2266666,2.2266666 0 0 1 1.65333,0.62667 2.0933333,2.0933333 0 0 1 0.65334,1.6 2.1466666,2.1466666 0 0 1 -0.65334,1.62667 2.3199999,2.3199999 0 0 1 -1.65333,0.61333 2.4133333,2.4133333 0 0 1 -1.68,-0.61333 2.3599999,2.3599999 0 0 1 -0.24,-2.93334 l 2.06667,-3.12 h 1.22666 l -1.49333,2.2 z m 1.22667,2.22667 a 1.24,1.24 0 1 0 -1.22667,1.21333 1.16,1.16 0 0 0 1.22667,-1.21333 z"
     id="path989" />
  <path
     style="fill:#cccccc;stroke-width:1.33333325"
     inkscape:connector-curvature="0"
     class="cls-5"
     d="M 13.626666,418.66666 A 1.7333333,1.7333333 0 0 1 13.053333,419.99999 1.9733333,1.9733333 0 0 1 11.72,420.53332 H 8.8666664 v -6.54666 h 2.5999996 a 1.88,1.88 0 0 1 1.333334,0.53333 1.68,1.68 0 0 1 0.56,1.33333 1.6,1.6 0 0 1 -0.666667,1.33334 1.64,1.64 0 0 1 0.933333,1.48 z m -3.6933329,-3.66667 v 1.72 h 1.5333329 a 0.86666665,0.86666665 0 0 0 0,-1.72 z m 1.7333329,4.52 a 0.91999998,0.91999998 0 0 0 0,-1.82667 H 9.9333331 v 1.82667 z"
     id="path991" />
  <path
     style="fill:#cccccc;stroke-width:1.33333325"
     inkscape:connector-curvature="0"
     class="cls-5"
     d="m 13.813333,414.01332 h 4.16 v 0.93334 l -2.306667,5.61333 H 14.533333 L 16.8,415.05332 h -2.986667 z"
     id="path993" />
  <path
     style="fill:#cccccc;stroke-width:1.33333325"
     inkscape:connector-curvature="0"
     class="cls-5"
     d="m 102,418.66666 a 1.7333333,1.7333333 0 0 1 -0.57334,1.33333 1.9733333,1.9733333 0 0 1 -1.33333,0.53333 h -2.799999 v -6.54666 h 2.6 a 1.9066666,1.9066666 0 0 1 1.333329,0.53333 1.68,1.68 0 0 1 0.56,1.33333 1.6,1.6 0 0 1 -0.66666,1.33334 1.64,1.64 0 0 1 0.88,1.48 z m -3.693336,-3.66667 v 1.72 h 1.533334 a 0.86666665,0.86666665 0 0 0 0,-1.72 z m 1.733336,4.52 a 0.91999998,0.91999998 0 0 0 0,-1.82667 h -1.733336 v 1.82667 z"
     id="path995" />
  <path
     style="fill:#cccccc;stroke-width:1.33333325"
     inkscape:connector-curvature="0"
     class="cls-5"
     d="m 107.18666,418.74666 c 0,1.2 -0.90666,1.93333 -2.28,1.93333 a 2.5866666,2.5866666 0 0 1 -1.68,-0.52 1.7466666,1.7466666 0 0 1 -0.62666,-1.41333 1.7866666,1.7866666 0 0 1 0.96,-1.58667 1.5733333,1.5733333 0 0 1 -0.73334,-1.33333 1.6933333,1.6933333 0 0 1 0.6,-1.33334 2.2799999,2.2799999 0 0 1 1.48,-0.49333 2.3199999,2.3199999 0 0 1 1.46667,0.49333 1.6933333,1.6933333 0 0 1 0.6,1.33334 1.5733333,1.5733333 0 0 1 -0.74667,1.33333 1.6933333,1.6933333 0 0 1 0.96,1.58667 z M 106.12,418.63999 c 0,-0.64 -0.50667,-1.01333 -1.21334,-1.01333 -0.70666,0 -1.22666,0.37333 -1.22666,1.01333 0,0.64 0.48,1.02667 1.22666,1.02667 0.74667,0 1.21334,-0.38667 1.21334,-1 z m -2.21334,-2.81333 a 0.99999998,0.99999998 0 0 0 1.98667,0 0.99999998,0.99999998 0 0 0 -1.98667,0 z"
     id="path997" />
</svg>
