<?xml version="1.0" encoding="UTF-8" standalone="no"?>
<svg
   xmlns:dc="http://purl.org/dc/elements/1.1/"
   xmlns:cc="http://creativecommons.org/ns#"
   xmlns:rdf="http://www.w3.org/1999/02/22-rdf-syntax-ns#"
   xmlns:svg="http://www.w3.org/2000/svg"
   xmlns="http://www.w3.org/2000/svg"
   xmlns:xlink="http://www.w3.org/1999/xlink"
   xmlns:sodipodi="http://sodipodi.sourceforge.net/DTD/sodipodi-0.dtd"
   xmlns:inkscape="http://www.inkscape.org/namespaces/inkscape"
   height="128.5mm"
   width="30.48mm"
   viewBox="0 0 115.2 485.66928"
   version="1.1"
   id="svg2900"
   sodipodi:docname="M_S-Grp-MstrJr.svg"
   inkscape:version="0.92.2 (5c3e80d, 2017-08-06)">
  <metadata
     id="metadata2904">
    <rdf:RDF>
      <cc:Work
         rdf:about="">
        <dc:format>image/svg+xml</dc:format>
        <dc:type
           rdf:resource="http://purl.org/dc/dcmitype/StillImage" />
        <dc:title />
      </cc:Work>
    </rdf:RDF>
  </metadata>
  <sodipodi:namedview
     units="mm"
     inkscape:document-units="mm"
     inkscape:document-rotation="0"
     pagecolor="#ffffff"
     bordercolor="#666666"
     borderopacity="1"
     objecttolerance="10"
     gridtolerance="10"
     guidetolerance="10"
     inkscape:pageopacity="0"
     inkscape:pageshadow="2"
     inkscape:window-width="1232"
     inkscape:window-height="768"
     id="namedview2902"
     showgrid="false"
     inkscape:zoom="1.1489362"
     inkscape:cx="57.599998"
     inkscape:cy="242.83597"
     inkscape:window-x="0"
     inkscape:window-y="23"
     inkscape:window-maximized="0"
     inkscape:current-layer="svg2900" />
  <defs
     id="defs2380">
    <style
       id="style2353">.cls-1{fill:#353535;}.cls-2{fill:url(#linear-gradient);}.cls-3{fill:gray;}.cls-4{fill:#b3b3b3;}.cls-5{fill:#ccc;}.cls-6{fill:#121212;}.cls-7{fill:#fff;}.cls-8{fill:url(#linear-gradient-2);}.cls-9{fill:#828282;}.cls-10{fill:#1e1e1e;}.cls-11{fill:#878787;}.cls-12{fill:#646464;}.cls-13{fill:url(#linear-gradient-3);}.cls-14{fill:url(#linear-gradient-4);}.cls-15{fill:url(#linear-gradient-5);}.cls-16{fill:url(#linear-gradient-6);}.cls-17{fill:url(#linear-gradient-7);}.cls-18{fill:url(#linear-gradient-8);}.cls-19{fill:url(#linear-gradient-9);}.cls-20{fill:url(#linear-gradient-10);}.cls-21{fill:url(#linear-gradient-11);}.cls-22{fill:url(#linear-gradient-12);}.cls-23{fill:url(#linear-gradient-13);}.cls-24{fill:url(#linear-gradient-14);}.cls-25{fill:url(#linear-gradient-15);}.cls-26{fill:url(#linear-gradient-16);}.cls-27{fill:url(#linear-gradient-17);}</style>
    <linearGradient
       id="linear-gradient"
       x1="21.09"
       y1="349.56"
       x2="40.939999"
       y2="349.56"
       gradientUnits="userSpaceOnUse"
       gradientTransform="scale(1.3333333)">
      <stop
         offset="0"
         stop-color="#3fa9f5"
         id="stop2355" />
      <stop
         offset="1"
         stop-color="#ed1e79"
         id="stop2357" />
    </linearGradient>
    <linearGradient
       id="linear-gradient-2"
       x1="57.119999"
       y1="301.89001"
       x2="57.119999"
       y2="324.28"
       gradientUnits="userSpaceOnUse">
      <stop
         offset="0"
         stop-color="#c8c8c8"
         id="stop2360" />
      <stop
         offset="1"
         stop-color="#969696"
         id="stop2362" />
    </linearGradient>
    <linearGradient
       id="linear-gradient-3"
       x1="57.119999"
       y1="271.13"
       x2="57.119999"
       y2="293.53"
       xlink:href="#linear-gradient-2" />
    <linearGradient
       id="linear-gradient-4"
       x1="57.119999"
       y1="240.38"
       x2="57.119999"
       y2="262.76999"
       xlink:href="#linear-gradient-2" />
    <linearGradient
       id="linear-gradient-5"
       x1="57.119999"
       y1="209.62"
       x2="57.119999"
       y2="232.02"
       xlink:href="#linear-gradient-2" />
    <linearGradient
       id="linear-gradient-6"
       x1="57.119999"
       y1="178.87"
       x2="57.119999"
       y2="201.25999"
       xlink:href="#linear-gradient-2" />
    <linearGradient
       id="linear-gradient-7"
       x1="57.119999"
       y1="148.11"
       x2="57.119999"
       y2="170.5"
       xlink:href="#linear-gradient-2" />
    <linearGradient
       id="linear-gradient-8"
       x1="57.119999"
       y1="117.35"
       x2="57.119999"
       y2="139.75"
       xlink:href="#linear-gradient-2" />
    <linearGradient
       id="linear-gradient-9"
       x1="57.119999"
       y1="86.599998"
       x2="57.119999"
       y2="108.99"
       xlink:href="#linear-gradient-2" />
    <linearGradient
       id="linear-gradient-10"
       x1="29.280001"
       y1="301.89001"
       x2="29.280001"
       y2="324.28"
       xlink:href="#linear-gradient-2" />
    <linearGradient
       id="linear-gradient-11"
       x1="29.280001"
       y1="271.13"
       x2="29.280001"
       y2="293.53"
       xlink:href="#linear-gradient-2" />
    <linearGradient
       id="linear-gradient-12"
       x1="29.280001"
       y1="240.38"
       x2="29.280001"
       y2="262.76999"
       xlink:href="#linear-gradient-2" />
    <linearGradient
       id="linear-gradient-13"
       x1="29.280001"
       y1="209.62"
       x2="29.280001"
       y2="232.02"
       xlink:href="#linear-gradient-2" />
    <linearGradient
       id="linear-gradient-14"
       x1="29.280001"
       y1="178.87"
       x2="29.280001"
       y2="201.25999"
       xlink:href="#linear-gradient-2" />
    <linearGradient
       id="linear-gradient-15"
       x1="29.280001"
       y1="148.11"
       x2="29.280001"
       y2="170.5"
       xlink:href="#linear-gradient-2" />
    <linearGradient
       id="linear-gradient-16"
       x1="29.280001"
       y1="117.35"
       x2="29.280001"
       y2="139.75"
       xlink:href="#linear-gradient-2" />
    <linearGradient
       id="linear-gradient-17"
       x1="29.280001"
       y1="86.599998"
       x2="29.280001"
       y2="108.99"
       xlink:href="#linear-gradient-2" />
  </defs>
  <g
     id="background"
     transform="scale(1.3333333)">
    <path
       style="fill:#353535"
       inkscape:connector-curvature="0"
       id="rect4155"
       class="cls-1"
       d="M 0,0 H 86.4 V 364.25 H 0 Z" />
  </g>
  <path
     inkscape:connector-curvature="0"
     class="cls-2"
     d="m 28.799999,474.31999 a 0.62666665,0.62666665 0 0 1 -0.333333,-0.0933 0.67999998,0.67999998 0 0 1 -0.266667,-0.93333 l 8.36,-15.09333 a 0.69333332,0.69333332 0 0 1 1.333333,0.33333 v 12.44 l 7.08,-12.77333 a 0.67999998,0.67999998 0 0 1 0.773334,-0.33333 0.69333332,0.69333332 0 0 1 0.506666,0.66666 v 12.44 l 7.08,-12.77333 a 0.67999998,0.67999998 0 0 1 0.773333,-0.33333 0.67999998,0.67999998 0 0 1 0.52,0.66666 v 15.09333 a 0.69333332,0.69333332 0 0 1 -0.693333,0.69334 0.67999998,0.67999998 0 0 1 -0.68,-0.69334 V 461.1867 l -7.08,12.77333 a 0.69333332,0.69333332 0 0 1 -1.333333,-0.33334 V 461.1867 l -7.08,12.77333 a 0.67999998,0.67999998 0 0 1 -0.773333,0.33333 0.69333332,0.69333332 0 0 1 -0.506667,-0.66667 V 461.1867 l -7.08,12.77333 a 0.67999998,0.67999998 0 0 1 -0.6,0.36 z"
     id="path2385"
     style="fill:url(#linear-gradient);stroke-width:1.33333325" />
  <path
     style="fill:#808080;stroke-width:1.33333325"
     inkscape:connector-curvature="0"
     class="cls-3"
     d="m 57.906665,458.53332 a 0.66666665,0.66666665 0 0 1 0.666667,-0.66666 h 0.09333 a 0.71999998,0.71999998 0 0 1 0.626667,0.34666 l 2.28,3.57334 2.293333,-3.58667 a 0.67999998,0.67999998 0 0 1 0.613333,-0.33333 h 0.133334 a 0.66666665,0.66666665 0 0 1 0.68,0.66666 v 6.29334 a 0.65333332,0.65333332 0 0 1 -0.68,0.65333 0.66666665,0.66666665 0 0 1 -0.653334,-0.65333 v -4.52 l -1.84,2.77333 a 0.62666665,0.62666665 0 0 1 -1.12,0 l -1.826666,-2.74667 v 4.50667 a 0.63999998,0.63999998 0 0 1 -0.666667,0.64 0.62666665,0.62666665 0 0 1 -0.64,-0.64 z"
     id="path2387" />
  <path
     style="fill:#b3b3b3;stroke-width:1.33333325"
     inkscape:connector-curvature="0"
     class="cls-4"
     d="m 64.653332,457.86666 h -0.133334 a 0.67999998,0.67999998 0 0 0 -0.613333,0.33333 l -2.293333,3.58667 -2.28,-3.57334 a 0.71999998,0.71999998 0 0 0 -0.626667,-0.34666 h -0.133333 a 0.66666665,0.66666665 0 0 0 -0.666667,0.66666 v 6.30667 a 0.62666665,0.62666665 0 0 0 0.64,0.64 0.63999998,0.63999998 0 0 0 0.666667,-0.64 v -4.50667 l 1.826666,2.74667 a 0.62666665,0.62666665 0 0 0 1.12,0 l 1.84,-2.77333 v 4.52 a 0.66666665,0.66666665 0 0 0 0.653334,0.65333 0.65333332,0.65333332 0 0 0 0.68,-0.65333 v -6.29334 a 0.66666665,0.66666665 0 0 0 -0.68,-0.66666 z"
     id="path2389" />
  <path
     style="fill:#808080;stroke-width:1.33333325"
     inkscape:connector-curvature="0"
     class="cls-3"
     d="m 66.813332,458.50666 a 0.66666665,0.66666665 0 0 1 1.333333,0 v 6.32 a 0.66666665,0.66666665 0 0 1 -1.333333,0 z"
     id="path2391" />
  <path
     style="fill:#b3b3b3;stroke-width:1.33333325"
     inkscape:connector-curvature="0"
     class="cls-4"
     d="m 67.479998,457.85332 a 0.65333332,0.65333332 0 0 0 -0.666666,0.65334 v 6.32 a 0.66666665,0.66666665 0 0 0 1.333333,0 v -6.32 a 0.65333332,0.65333332 0 0 0 -0.653333,-0.65334 z"
     id="path2393" />
  <path
     style="fill:#808080;stroke-width:1.33333325"
     inkscape:connector-curvature="0"
     class="cls-3"
     d="m 69.613332,458.53332 a 0.66666665,0.66666665 0 0 1 0.666666,-0.66666 h 0.146667 a 0.85333331,0.85333331 0 0 1 0.693333,0.38666 l 3.773333,4.86667 v -4.62667 a 0.666667,0.666667 0 0 1 1.333334,0 v 6.32 a 0.65333332,0.65333332 0 0 1 -0.653334,0.66667 v 0 a 0.87999998,0.87999998 0 0 1 -0.693333,-0.4 l -3.88,-5.01333 v 4.77333 a 0.66666665,0.66666665 0 0 1 -1.333333,0 z"
     id="path2395" />
  <path
     style="fill:#b3b3b3;stroke-width:1.33333325"
     inkscape:connector-curvature="0"
     class="cls-4"
     d="m 75.533331,457.85332 a 0.65333332,0.65333332 0 0 0 -0.64,0.64 v 4.62667 l -3.773333,-4.86667 a 0.85333331,0.85333331 0 0 0 -0.693333,-0.38666 h -0.146667 a 0.66666665,0.66666665 0 0 0 -0.666666,0.66666 v 6.30667 a 0.66666665,0.66666665 0 0 0 1.333333,0 v -4.77333 l 3.88,5.01333 a 0.87999998,0.87999998 0 0 0 0.693333,0.4 v 0 a 0.65333332,0.65333332 0 0 0 0.653333,-0.66667 v -6.32 a 0.65333332,0.65333332 0 0 0 -0.666666,-0.64 z"
     id="path2397" />
  <path
     style="fill:#808080;stroke-width:1.33333325"
     inkscape:connector-curvature="0"
     class="cls-3"
     d="m 77.599998,458.57332 a 0.66666665,0.66666665 0 0 1 0.68,-0.66666 h 2.146667 a 3.7599999,3.7599999 0 0 1 4,3.73333 v 0 a 3.7733332,3.7733332 0 0 1 -4,3.76 h -2.146667 a 0.65333332,0.65333332 0 0 1 -0.68,-0.66667 z m 2.826667,5.65334 a 2.4533333,2.4533333 0 0 0 2.666666,-2.53334 v 0 a 2.4666666,2.4666666 0 0 0 -2.666666,-2.56 h -1.493334 v 5.12 z"
     id="path2399" />
  <path
     style="fill:#b3b3b3;stroke-width:1.33333325"
     inkscape:connector-curvature="0"
     class="cls-4"
     d="m 80.426665,457.90666 h -2.146667 a 0.66666665,0.66666665 0 0 0 -0.68,0.66666 v 6.18667 a 0.65333332,0.65333332 0 0 0 0.68,0.66667 h 2.146667 a 3.7733332,3.7733332 0 0 0 4,-3.76 v 0 a 3.7599999,3.7599999 0 0 0 -4,-3.73334 z m -1.493334,6.32 v -5.12 h 1.493334 a 2.4666666,2.4666666 0 0 1 2.666666,2.56 v 0 a 2.4533333,2.4533333 0 0 1 -2.666666,2.53333 z"
     id="path2401" />
  <path
     style="fill:#808080;stroke-width:1.33333325"
     inkscape:connector-curvature="0"
     class="cls-3"
     d="m 57.906665,467.34665 a 0.66666665,0.66666665 0 0 1 0.666667,-0.66666 h 0.09333 a 0.71999998,0.71999998 0 0 1 0.626667,0.34666 l 2.32,3.64 2.293333,-3.57333 a 0.69333332,0.69333332 0 0 1 0.613333,-0.34667 h 0.133334 a 0.66666665,0.66666665 0 0 1 0.68,0.66667 v 6.29333 a 0.66666665,0.66666665 0 0 1 -0.68,0.66667 0.67999998,0.67999998 0 0 1 -0.653334,-0.66667 v -4.50666 l -1.84,2.76 a 0.62666665,0.62666665 0 0 1 -1.12,0 l -1.826666,-2.74667 v 4.50667 a 0.65333332,0.65333332 0 0 1 -0.666667,0.65333 0.63999998,0.63999998 0 0 1 -0.64,-0.65333 z"
     id="path2403" />
  <path
     style="fill:#b3b3b3;stroke-width:1.33333325"
     inkscape:connector-curvature="0"
     class="cls-4"
     d="m 64.653332,466.66665 h -0.133334 a 0.69333332,0.69333332 0 0 0 -0.613333,0.34667 l -2.293333,3.65333 -2.28,-3.57333 a 0.71999998,0.71999998 0 0 0 -0.666667,-0.42667 h -0.133333 a 0.66666665,0.66666665 0 0 0 -0.666667,0.66667 v 6.30667 a 0.63999998,0.63999998 0 0 0 0.64,0.65333 0.65333332,0.65333332 0 0 0 0.666667,-0.65333 v -4.50667 l 1.826666,2.74667 a 0.62666665,0.62666665 0 0 0 1.12,0 l 1.88,-2.74667 v 4.50667 a 0.67999998,0.67999998 0 0 0 0.653334,0.66666 0.66666665,0.66666665 0 0 0 0.68,-0.66666 v -6.29334 a 0.66666665,0.66666665 0 0 0 -0.68,-0.66666 z"
     id="path2405" />
  <path
     style="fill:#808080;stroke-width:1.33333325"
     inkscape:connector-curvature="0"
     class="cls-3"
     d="m 66.733332,473.58665 v -6.2 a 0.66666665,0.66666665 0 0 1 0.666666,-0.66666 h 4.4 a 0.59999999,0.59999999 0 0 1 0,1.18666 h -3.733333 v 1.94667 h 3.24 a 0.61333332,0.61333332 0 0 1 0.6,0.61333 0.58666665,0.58666665 0 0 1 -0.6,0.57334 h -3.24 v 2.02666 h 3.786667 a 0.59999999,0.59999999 0 0 1 0,1.18667 h -4.453334 a 0.66666665,0.66666665 0 0 1 -0.666666,-0.66667 z"
     id="path2407" />
  <path
     style="fill:#b3b3b3;stroke-width:1.33333325"
     inkscape:connector-curvature="0"
     class="cls-4"
     d="m 71.799998,466.66665 h -4.4 a 0.66666665,0.66666665 0 0 0 -0.666666,0.66667 v 6.2 a 0.66666665,0.66666665 0 0 0 0.666666,0.66667 h 4.453334 a 0.59999999,0.59999999 0 0 0 0,-1.18667 h -3.786667 v -2.02667 h 3.24 a 0.58666665,0.58666665 0 0 0 0.6,-0.57333 0.61333332,0.61333332 0 0 0 -0.6,-0.61333 h -3.24 v -1.94667 h 3.733333 a 0.59999999,0.59999999 0 0 0 0,-1.18667 z"
     id="path2409" />
  <path
     style="fill:#808080;stroke-width:1.33333325"
     inkscape:connector-curvature="0"
     class="cls-3"
     d="m 73.426665,467.31999 a 0.66666665,0.66666665 0 0 1 1.333333,0 v 5.72 h 3.413333 a 0.59999999,0.59999999 0 0 1 0.6,0.6 0.61333332,0.61333332 0 0 1 -0.6,0.61333 h -4.08 a 0.66666665,0.66666665 0 0 1 -0.666666,-0.66667 z"
     id="path2411" />
  <path
     style="fill:#b3b3b3;stroke-width:1.33333325"
     inkscape:connector-curvature="0"
     class="cls-4"
     d="m 74.093331,466.66665 a 0.65333332,0.65333332 0 0 0 -0.666666,0.65334 v 6.26666 a 0.66666665,0.66666665 0 0 0 0.666666,0.66667 h 4.08 a 0.61333332,0.61333332 0 0 0 0.6,-0.61333 0.59999999,0.59999999 0 0 0 -0.6,-0.6 h -3.413333 v -5.72 a 0.65333332,0.65333332 0 0 0 -0.666667,-0.65334 z"
     id="path2413" />
  <path
     style="fill:#808080;stroke-width:1.33333325"
     inkscape:connector-curvature="0"
     class="cls-3"
     d="m 79.573331,467.38665 a 0.66666665,0.66666665 0 0 1 0.666667,-0.66666 h 2.146667 a 3.7599999,3.7599999 0 0 1 4,3.74666 v 0 a 3.7866666,3.7866666 0 0 1 -4,3.77334 h -2.146667 a 0.66666665,0.66666665 0 0 1 -0.666667,-0.66667 z m 2.813334,5.65334 a 2.4666666,2.4666666 0 0 0 2.666666,-2.53334 v 0 a 2.4799999,2.4799999 0 0 0 -2.666666,-2.56 h -1.493334 v 5.12 z"
     id="path2415" />
  <path
     style="fill:#b3b3b3;stroke-width:1.33333325"
     inkscape:connector-curvature="0"
     class="cls-4"
     d="m 82.386665,466.66665 h -2.146667 a 0.66666665,0.66666665 0 0 0 -0.666667,0.66667 v 6.2 a 0.66666665,0.66666665 0 0 0 0.666667,0.66667 h 2.146667 a 3.7866666,3.7866666 0 0 0 4,-3.77334 v 0 a 3.7599999,3.7599999 0 0 0 -4,-3.74666 z m -1.493334,6.32 v -5.12 h 1.493334 a 2.4799999,2.4799999 0 0 1 2.666666,2.56 v 0 a 2.4666666,2.4666666 0 0 1 -2.666666,2.53334 z"
     id="path2417" />
  <path
     style="fill:#cccccc;stroke-width:1.33333325"
     inkscape:connector-curvature="0"
     class="cls-5"
     d="M 47.439999,13.333333 V 24.519999 H 45.253332 V 17.24 l -3.146666,5.186666 h -0.266667 l -3.173333,-5.173333 v 7.24 h -2.173334 v -11.16 h 2.266667 l 3.213333,5.333333 3.2,-5.333333 z"
     id="path2419" />
  <path
     style="fill:#cccccc;stroke-width:1.33333325"
     inkscape:connector-curvature="0"
     class="cls-5"
     d="m 52.639999,22.386666 h 4.693333 v 2.106667 h -6.893333 v -11.16 h 6.893333 V 15.44 h -4.693333 v 2.386666 h 4.24 v 2.04 h -4.24 z"
     id="path2421" />
  <path
     style="fill:#cccccc;stroke-width:1.33333325"
     inkscape:connector-curvature="0"
     class="cls-5"
     d="m 62.039998,22.386666 h 4.266667 v 2.106667 h -6.48 v -11.16 h 2.213333 z"
     id="path2423" />
  <path
     style="fill:#cccccc;stroke-width:1.33333325"
     inkscape:connector-curvature="0"
     class="cls-5"
     d="m 72.919998,13.333333 a 5.0799999,5.0799999 0 0 1 3.84,1.613333 5.4666665,5.4666665 0 0 1 1.546667,4 5.4799999,5.4799999 0 0 1 -1.546667,4 5.1199999,5.1199999 0 0 1 -3.84,1.613333 H 68.466665 V 13.333333 Z m 0,9.08 a 3.0799999,3.0799999 0 0 0 2.36,-0.96 3.5466666,3.5466666 0 0 0 0.92,-2.533333 3.4533332,3.4533332 0 0 0 -0.92,-2.506667 3.0533333,3.0533333 0 0 0 -2.36,-0.973333 h -2.253333 v 6.973333 z"
     id="path2425" />
  <g
     transform="scale(1.3333333)"
     data-name="EQ bgs copy"
     id="EQ_bgs_copy">
    <rect
       id="rect2428"
       rx="1.42"
       height="36.849998"
       width="27.92"
       y="28.35"
       x="53.049999"
       class="cls-6" />
  </g>
  <path
     style="fill:#cccccc;stroke-width:1.33333325"
     inkscape:connector-curvature="0"
     class="cls-5"
     d="m 22.013333,42.026666 h 1.253333 v 6.533333 h -1.253333 z"
     id="path2431" />
  <path
     style="fill:#cccccc;stroke-width:1.33333325"
     inkscape:connector-curvature="0"
     class="cls-5"
     d="m 28.439999,42.026666 h 1.24 v 6.533333 h -0.946666 l -2.666667,-4 v 4 h -1.253333 v -6.533333 h 0.946666 l 2.666667,4 z"
     id="path2433" />
  <path
     style="fill:#cccccc;stroke-width:1.33333325"
     inkscape:connector-curvature="0"
     class="cls-5"
     d="m 83.519998,48.693332 a 3.1333333,3.1333333 0 0 1 -2.32,-0.986667 3.3333333,3.3333333 0 0 1 -0.946667,-2.373333 3.2933333,3.2933333 0 0 1 0.946667,-2.413333 3.2399999,3.2399999 0 0 1 4.653333,0 3.2933333,3.2933333 0 0 1 0.946667,2.413333 3.3333333,3.3333333 0 0 1 -0.946667,2.413333 3.1599999,3.1599999 0 0 1 -2.333333,0.946667 z m 0,-1.333333 a 1.9066666,1.9066666 0 0 0 1.453333,-0.6 2.1066666,2.1066666 0 0 0 0.586667,-1.426667 2.1466666,2.1466666 0 0 0 -0.586667,-1.546666 2.0666666,2.0666666 0 0 0 -2.906666,0 2.1466666,2.1466666 0 0 0 -0.586667,1.546666 2.1066666,2.1066666 0 0 0 0.586667,1.533333 1.9066666,1.9066666 0 0 0 1.453333,0.56 z"
     id="path2435" />
  <path
     style="fill:#cccccc;stroke-width:1.33333325"
     inkscape:connector-curvature="0"
     class="cls-5"
     d="m 88.653331,48.079999 a 2.1466666,2.1466666 0 0 1 -0.653333,-1.653333 v -4.4 h 1.24 v 4.293333 a 1.1733333,1.1733333 0 0 0 2.346666,0 v -4.293333 h 1.24 v 4.4 a 2.1466666,2.1466666 0 0 1 -0.68,1.653333 2.7599999,2.7599999 0 0 1 -3.466666,0 z"
     id="path2437" />
  <path
     style="fill:#cccccc;stroke-width:1.33333325"
     inkscape:connector-curvature="0"
     class="cls-5"
     d="m 98.439998,42.026666 v 1.226666 h -1.693334 v 5.333333 h -1.253333 v -5.333333 h -1.693333 v -1.226666 z"
     id="path2439" />
  <path
     style="fill:#ffffff;stroke-width:1.33333325"
     inkscape:connector-curvature="0"
     class="cls-7"
     d="M 29.653333,99.613331 V 107.08 h -1.453334 v -4.84 l -2.106666,3.46666 h -0.173334 l -2.093333,-3.45333 V 107.08 h -1.48 v -7.466669 h 1.52 l 2.146667,3.533329 2.133333,-3.533329 z"
     id="path2442" />
  <path
     style="fill:#ffffff;stroke-width:1.33333325"
     inkscape:connector-curvature="0"
     class="cls-7"
     d="m 31.839999,108.14666 h -0.6 l 4.266667,-9.599996 h 0.6 z"
     id="path2444" />
  <path
     style="fill:#ffffff;stroke-width:1.33333325"
     inkscape:connector-curvature="0"
     class="cls-7"
     d="M 37.333332,105.33333 38.586666,104.6 a 1.68,1.68 0 0 0 1.72,1.13333 c 0.826666,0 1.2,-0.32 1.2,-0.78667 a 0.63999998,0.63999998 0 0 0 -0.36,-0.6 4.3466666,4.3466666 0 0 0 -1.253334,-0.48 5.3333332,5.3333332 0 0 1 -1.546666,-0.69333 1.8266666,1.8266666 0 0 1 -0.706667,-1.53333 1.9733333,1.9733333 0 0 1 0.72,-1.61334 2.5733333,2.5733333 0 0 1 1.733333,-0.613329 2.8666666,2.8666666 0 0 1 2.666667,1.679999 l -1.24,0.70667 a 1.48,1.48 0 0 0 -1.426667,-0.96 c -0.6,0 -0.973333,0.32 -0.973333,0.74666 a 0.73333332,0.73333332 0 0 0 0.28,0.58667 4.7999999,4.7999999 0 0 0 1.133333,0.46667 l 0.506667,0.16 0.48,0.18666 a 2.1733333,2.1733333 0 0 1 0.466667,0.22667 2.0666666,2.0666666 0 0 1 0.706666,0.65333 2.0933333,2.0933333 0 0 1 0.28,1.06667 2,2 0 0 1 -0.786666,1.73333 2.9999999,2.9999999 0 0 1 -1.946667,0.6 2.8799999,2.8799999 0 0 1 -2.906667,-1.93333 z"
     id="path2446" />
  <path
     style="fill:#ffffff;stroke-width:1.33333325"
     inkscape:connector-curvature="0"
     class="cls-7"
     d="m 54.973332,103.06666 v 0.58667 a 3.4533332,3.4533332 0 0 1 -1.026667,2.58667 3.6399999,3.6399999 0 0 1 -2.666666,0.98666 3.9999999,3.9999999 0 0 1 -2.866667,-1.12 3.7466666,3.7466666 0 0 1 -1.12,-2.74666 3.7999999,3.7999999 0 0 1 1.12,-2.76 3.9999999,3.9999999 0 0 1 6.04,0.61333 l -1.253333,0.72 a 2.3066666,2.3066666 0 0 0 -2.013334,-1.04 2.4933333,2.4933333 0 0 0 -1.746666,4.21333 2.5066666,2.5066666 0 0 0 1.853333,0.68 2.0666666,2.0666666 0 0 0 2.173333,-1.41333 h -2.24 V 103.04 Z"
     id="path2448" />
  <path
     style="fill:#ffffff;stroke-width:1.33333325"
     inkscape:connector-curvature="0"
     class="cls-7"
     d="M 57.866665,102.66666 A 1.6266666,1.6266666 0 0 1 59.479999,101.64 v 1.53333 a 1.6133333,1.6133333 0 0 0 -1.133334,0.26667 1.2266666,1.2266666 0 0 0 -0.48,1.09333 V 107.08 h -1.333333 v -5.33334 h 1.333333 z"
     id="path2450" />
  <path
     style="fill:#ffffff;stroke-width:1.33333325"
     inkscape:connector-curvature="0"
     class="cls-7"
     d="m 65.746665,102.42666 a 2.7333333,2.7333333 0 0 1 0.773333,1.98667 2.8133333,2.8133333 0 0 1 -0.773333,2.01333 2.4133333,2.4133333 0 0 1 -1.826667,0.8 2.0799999,2.0799999 0 0 1 -1.733333,-0.77333 v 2.76 h -1.333333 v -7.46667 h 1.333333 v 0.64 a 2.0533333,2.0533333 0 0 1 1.733333,-0.78666 2.3999999,2.3999999 0 0 1 1.826667,0.82666 z m -2.08,3.49334 a 1.4133333,1.4133333 0 0 0 1.053333,-0.41334 1.52,1.52 0 0 0 0.426667,-1.09333 1.4666666,1.4666666 0 0 0 -0.426667,-1.08 1.4266666,1.4266666 0 0 0 -1.053333,-0.42667 1.4,1.4 0 0 0 -1.053333,0.42667 1.4666666,1.4666666 0 0 0 -0.426667,1.08 1.52,1.52 0 0 0 0.426667,1.09333 1.3333333,1.3333333 0 0 0 1.053333,0.41334 z"
     id="path2452" />
  <path
     style="fill:#ffffff;stroke-width:1.33333325"
     inkscape:connector-curvature="0"
     class="cls-7"
     d="M 78.586665,99.613331 V 107.08 h -1.453334 v -4.84 l -2.106666,3.46666 h -0.16 l -2.106667,-3.45333 V 107.08 h -1.466666 v -7.466669 h 1.506666 l 2.146667,3.533329 2.133333,-3.533329 z"
     id="path2454" />
  <path
     style="fill:#ffffff;stroke-width:1.33333325"
     inkscape:connector-curvature="0"
     class="cls-7"
     d="m 82.666665,103.85333 c 0.773333,0.16 1.786666,0.53333 1.773333,1.66667 a 1.4933333,1.4933333 0 0 1 -0.613333,1.33333 2.6666666,2.6666666 0 0 1 -1.52,0.42667 2.2266666,2.2266666 0 0 1 -2.24,-1.33334 l 1.266666,-0.61333 a 0.99999998,0.99999998 0 0 0 1.053334,0.69333 c 0.48,0 0.733333,-0.14666 0.733333,-0.46666 0,-0.32 -0.426667,-0.44 -0.973333,-0.58667 -0.786667,-0.2 -1.773334,-0.53333 -1.773334,-1.64 a 1.4933333,1.4933333 0 0 1 0.573334,-1.24 2.4266666,2.4266666 0 0 1 3.466666,0.68 l -1.173333,0.64 a 0.86666665,0.86666665 0 0 0 -0.853333,-0.54667 c -0.346667,0 -0.613334,0.17334 -0.613334,0.44 0,0.26667 0.373334,0.4 0.893334,0.54667 z"
     id="path2456" />
  <path
     style="fill:#ffffff;stroke-width:1.33333325"
     inkscape:connector-curvature="0"
     class="cls-7"
     d="m 88.786664,103.06666 h -1.213333 v 2.26667 c 0,0.57333 0.426667,0.58667 1.213333,0.54667 v 1.24 c -1.893333,0.21333 -2.586666,-0.33334 -2.586666,-1.78667 v -2.26667 h -0.866667 v -1.33333 h 0.92 v -1.06667 L 87.586664,100.24 v 1.49333 h 1.213334 z"
     id="path2458" />
  <path
     style="fill:#ffffff;stroke-width:1.33333325"
     inkscape:connector-curvature="0"
     class="cls-7"
     d="M 91.746664,102.66666 A 1.64,1.64 0 0 1 93.333331,101.64 v 1.53333 a 1.5866666,1.5866666 0 0 0 -1.133333,0.26667 1.2,1.2 0 0 0 -0.493334,1.09333 V 107.08 h -1.333333 v -5.33334 h 1.333333 z"
     id="path2460" />
  <path
     style="fill:#cccccc;stroke-width:1.33333325"
     inkscape:connector-curvature="0"
     class="cls-5"
     d="M 14.666666,127.30666 V 133.84 h -1.08 v -4.65334 l -2.026666,3.28 H 11.426666 L 9.4399998,129.17333 V 133.84 h -1.08 v -6.53334 h 1.16 l 1.9733332,3.26667 1.986667,-3.26667 z"
     id="path2463" />
  <path
     style="fill:#cccccc;stroke-width:1.33333325"
     inkscape:connector-curvature="0"
     class="cls-5"
     d="M 17.106666,127.30666 H 18.04 V 133.84 h -1.066667 v -5.33334 L 15.64,128.88 15.373333,127.96 Z"
     id="path2465" />
  <path
     style="fill:#cccccc;stroke-width:1.33333325"
     inkscape:connector-curvature="0"
     class="cls-5"
     d="M 102.66666,127.30666 V 133.84 H 101.6 v -4.65334 l -2.000002,3.28 h -0.12 l -2,-3.29333 V 133.84 h -1.066667 v -6.53334 h 1.16 l 1.973333,3.26667 1.973336,-3.26667 z"
     id="path2467" />
  <path
     style="fill:#cccccc;stroke-width:1.33333325"
     inkscape:connector-curvature="0"
     class="cls-5"
     d="M 103.65333,133.84 V 133 l 2.28,-2.33334 a 2.3333333,2.3333333 0 0 0 0.82667,-1.44 0.94666664,0.94666664 0 0 0 -1.01334,-1.01333 1.3333333,1.3333333 0 0 0 -1.21333,0.81333 l -0.90667,-0.53333 a 2.2533333,2.2533333 0 0 1 2.10667,-1.33333 2.1733333,2.1733333 0 0 1 1.48,0.53333 1.88,1.88 0 0 1 0.61333,1.48 3.2266666,3.2266666 0 0 1 -1.16,2.16 l -1.48,1.46667 h 2.66667 v 1.04 z"
     id="path2469" />
  <path
     style="fill:#cccccc;stroke-width:1.33333325"
     inkscape:connector-curvature="0"
     class="cls-5"
     d="m 9.0933331,173.45333 0.9199999,-0.54667 A 1.56,1.56 0 0 0 11.64,174.01333 c 0.813333,0 1.213333,-0.34667 1.213333,-0.85333 A 0.66666665,0.66666665 0 0 0 12.52,172.54666 5.5599999,5.5599999 0 0 0 11.373333,172.08 4.3599999,4.3599999 0 0 1 10.04,171.48 a 1.48,1.48 0 0 1 -0.6400002,-1.33334 1.6533333,1.6533333 0 0 1 0.6133332,-1.33333 2.2399999,2.2399999 0 0 1 1.493333,-0.52 2.4399999,2.4399999 0 0 1 2.28,1.44 l -0.906666,0.52 a 1.44,1.44 0 0 0 -1.333334,-0.92 c -0.626666,0 -1.026666,0.32 -1.026666,0.81333 0,0.49334 0.306666,0.72 1.333333,1.02667 A 4.8399999,4.8399999 0 0 1 12.4,171.36 a 4.1866666,4.1866666 0 0 1 0.48,0.18666 1.9466666,1.9466666 0 0 1 0.48,0.25334 1.56,1.56 0 0 1 0.666666,1.33333 1.7333333,1.7333333 0 0 1 -0.64,1.41333 2.5199999,2.5199999 0 0 1 -1.666666,0.50667 2.4666666,2.4666666 0 0 1 -2.6266669,-1.6 z"
     id="path2471" />
  <path
     style="fill:#cccccc;stroke-width:1.33333325"
     inkscape:connector-curvature="0"
     class="cls-5"
     d="m 16,168.4 h 0.933333 v 6.53333 H 15.866666 V 169.6 l -1.333333,0.37333 -0.266667,-0.90667 z"
     id="path2473" />
  <path
     style="fill:#cccccc;stroke-width:1.33333325"
     inkscape:connector-curvature="0"
     class="cls-5"
     d="m 97.173331,173.45333 0.92,-0.54667 a 1.5733333,1.5733333 0 0 0 1.626667,1.10667 c 0.813332,0 1.213332,-0.34667 1.213332,-0.85333 a 0.67999998,0.67999998 0 0 0 -0.32,-0.61334 5.7599999,5.7599999 0 0 0 -1.159999,-0.46666 4.3599999,4.3599999 0 0 1 -1.333333,-0.6 1.5066666,1.5066666 0 0 1 -0.64,-1.33334 1.6533333,1.6533333 0 0 1 0.626666,-1.33333 2.1999999,2.1999999 0 0 1 1.48,-0.52 2.4399999,2.4399999 0 0 1 2.279996,1.44 l -0.90666,0.52 a 1.4266666,1.4266666 0 0 0 -1.333336,-0.92 c -0.626666,0 -1.026666,0.32 -1.026666,0.81333 0,0.49334 0.32,0.72 1.333333,1.02667 a 4.3999999,4.3999999 0 0 1 0.533329,0.18667 l 0.49334,0.18666 a 1.7333333,1.7333333 0 0 1 1.14666,1.6 1.7333333,1.7333333 0 0 1 -0.64,1.41334 2.5733333,2.5733333 0 0 1 -1.679996,0.50666 2.4799999,2.4799999 0 0 1 -2.613333,-1.61333 z"
     id="path2475" />
  <path
     style="fill:#cccccc;stroke-width:1.33333325"
     inkscape:connector-curvature="0"
     class="cls-5"
     d="m 102.57333,174.93333 v -0.84 l 2.28,-2.32 a 2.2666666,2.2666666 0 0 0 0.84,-1.44 0.94666664,0.94666664 0 0 0 -1.01333,-1.01333 1.3333333,1.3333333 0 0 0 -1.21334,0.81333 l -0.90666,-0.52 a 2.2399999,2.2399999 0 0 1 2.10666,-1.33333 2.1199999,2.1199999 0 0 1 1.48,0.54666 1.8266666,1.8266666 0 0 1 0.61334,1.46667 3.2266666,3.2266666 0 0 1 -1.10667,2.13333 l -1.48,1.48 H 106.84 v 1.02667 z"
     id="path2477" />
  <path
     style="fill:#cccccc;stroke-width:1.33333325"
     inkscape:connector-curvature="0"
     class="cls-5"
     d="m 12.573333,209.91999 v 6.53334 h -1.066667 v -4.65334 l -1.9866662,3.28 H 9.3333331 l -1.9866666,-3.29333 v 4.66667 H 6.3199998 v -6.53334 h 1.16 l 1.9733333,3.26667 1.9733329,-3.26667 z"
     id="path2479" />
  <path
     style="fill:#cccccc;stroke-width:1.33333325"
     inkscape:connector-curvature="0"
     class="cls-5"
     d="m 20.133333,209.91999 v 6.53334 h -1.066667 v -4.65334 l -1.986666,3.28 H 16.946666 L 14.96,211.78666 v 4.66667 h -1.08 v -6.53334 h 1.16 l 1.973333,3.26667 1.973333,-3.26667 z"
     id="path2481" />
  <path
     style="fill:#cccccc;stroke-width:1.33333325"
     inkscape:connector-curvature="0"
     class="cls-5"
     d="m 96.959998,209.91999 a 2.9599999,2.9599999 0 0 1 2.24,0.94667 3.2799999,3.2799999 0 0 1 0.893332,2.32 3.3333333,3.3333333 0 0 1 -0.893332,2.33333 2.9466666,2.9466666 0 0 1 -2.24,0.93334 h -2.56 v -6.53334 z m 0,5.50667 a 1.9866666,1.9866666 0 0 0 1.506666,-0.62667 2.3066666,2.3066666 0 0 0 0.586667,-1.61333 2.2533333,2.2533333 0 0 0 -0.586667,-1.6 1.9466666,1.9466666 0 0 0 -1.506666,-0.64 h -1.493334 v 4.48 z"
     id="path2483" />
  <path
     style="fill:#cccccc;stroke-width:1.33333325"
     inkscape:connector-curvature="0"
     class="cls-5"
     d="m 101.06666,209.91999 h 1.08 v 6.53334 h -1.08 z"
     id="path2485" />
  <path
     style="fill:#cccccc;stroke-width:1.33333325"
     inkscape:connector-curvature="0"
     class="cls-5"
     d="m 109.70666,209.91999 v 6.53334 h -1.08 v -4.65334 l -1.96,3.28 h -0.13333 l -1.98667,-3.29333 v 4.66667 H 103.48 v -6.53334 h 1.16 l 1.96,3.26667 1.98666,-3.26667 z"
     id="path2487" />
  <path
     style="fill:#cccccc;stroke-width:1.33333325"
     inkscape:connector-curvature="0"
     class="cls-5"
     d="m 12.64,250.77333 v 6.56 h -1.066667 v -4.65334 l -1.9866666,3.32 H 9.4533331 l -1.9866666,-3.36 v 4.69334 h -1.08 v -6.53334 h 1.16 l 1.9733333,3.26667 1.9733332,-3.26667 z"
     id="path2489" />
  <path
     style="fill:#cccccc;stroke-width:1.33333325"
     inkscape:connector-curvature="0"
     class="cls-5"
     d="m 17.013333,257.42666 a 3.3199999,3.3199999 0 0 1 -3.386667,-3.38667 3.3466666,3.3466666 0 0 1 3.386667,-3.37333 3.3733332,3.3733332 0 0 1 3.386666,3.38667 3.3466666,3.3466666 0 0 1 -3.386666,3.38666 z m 0,-1.04 a 2.2266666,2.2266666 0 0 0 1.64,-0.66667 2.2666666,2.2666666 0 0 0 0.68,-1.68 2.2266666,2.2266666 0 0 0 -0.68,-1.66666 2.1866666,2.1866666 0 0 0 -1.64,-0.68 2.2266666,2.2266666 0 0 0 -1.653333,0.68 2.2666666,2.2666666 0 0 0 -0.666667,1.66666 2.3066666,2.3066666 0 0 0 0.666667,1.68 2.2666666,2.2666666 0 0 0 1.653333,0.66667 z"
     id="path2491" />
  <path
     style="fill:#cccccc;stroke-width:1.33333325"
     inkscape:connector-curvature="0"
     class="cls-5"
     d="m 102.21333,250.77333 v 6.56 h -1.06667 v -4.65334 l -1.986662,3.32 h -0.133334 l -1.986666,-3.29333 v 4.62667 h -1.04 v -6.53334 h 1.16 l 1.973333,3.26667 1.973329,-3.26667 z"
     id="path2493" />
  <path
     style="fill:#cccccc;stroke-width:1.33333325"
     inkscape:connector-curvature="0"
     class="cls-5"
     d="M 105.18666,257.33333 102.92,250.79999 h 1.17333 l 1.73333,5.24 1.74667,-5.24 h 1.17333 l -2.26666,6.53334 z"
     id="path2495" />
  <path
     style="fill:#cccccc;stroke-width:1.33333325"
     inkscape:connector-curvature="0"
     class="cls-5"
     d="m 9.4933331,290.91999 h 1.0799999 v 6.54667 H 9.7333331 l -3.0666666,-4.44 v 4.44 H 5.5733332 v -6.54667 h 0.84 l 3.0799999,4.44 z"
     id="path2497" />
  <path
     style="fill:#cccccc;stroke-width:1.33333325"
     inkscape:connector-curvature="0"
     class="cls-5"
     d="m 12.066666,298.39999 h -0.52 L 15.28,289.98666 h 0.52 z"
     id="path2499" />
  <path
     style="fill:#cccccc;stroke-width:1.33333325"
     inkscape:connector-curvature="0"
     class="cls-5"
     d="M 20.333333,297.46666 19.88,296.13333 H 17.093333 L 16.64,297.46666 H 15.466666 L 17.84,290.91999 h 1.333333 l 2.36,6.54667 z m -2.88,-2.33333 H 19.52 l -1.04,-2.94667 z"
     id="path2501" />
  <path
     style="fill:#cccccc;stroke-width:1.33333325"
     inkscape:connector-curvature="0"
     class="cls-5"
     d="m 98.319998,290.91999 h 1.066666 v 6.54667 h -0.84 l -3.08,-4.44 v 4.44 h -1.066666 v -6.54667 h 0.84 l 3.08,4.44 z"
     id="path2503" />
  <path
     style="fill:#cccccc;stroke-width:1.33333325"
     inkscape:connector-curvature="0"
     class="cls-5"
     d="m 100.88,298.39999 h -0.50667 l 3.73333,-8.41333 h 0.50667 z"
     id="path2505" />
  <path
     style="fill:#cccccc;stroke-width:1.33333325"
     inkscape:connector-curvature="0"
     class="cls-5"
     d="m 109.14666,297.46666 -0.45333,-1.33333 h -2.78667 l -0.45333,1.33333 h -1.16 l 2.37333,-6.54667 H 108 l 2.36,6.54667 z m -2.88,-2.33333 h 2.06667 l -1.02667,-2.94667 z"
     id="path2507" />
  <path
     style="fill:#cccccc;stroke-width:1.33333325"
     inkscape:connector-curvature="0"
     class="cls-5"
     d="m 9.4933331,331.81333 h 1.0799999 v 6.53333 H 9.7333331 l -3.0666666,-4.44 v 4.44 H 5.5733332 v -6.53333 h 0.84 l 3.0799999,4.43999 z"
     id="path2509" />
  <path
     style="fill:#cccccc;stroke-width:1.33333325"
     inkscape:connector-curvature="0"
     class="cls-5"
     d="m 12.066666,339.27999 h -0.52 l 3.733334,-8.4 h 0.52 z"
     id="path2511" />
  <path
     style="fill:#cccccc;stroke-width:1.33333325"
     inkscape:connector-curvature="0"
     class="cls-5"
     d="M 20.333333,338.34666 19.88,337.01332 H 17.093333 L 16.64,338.34666 H 15.466666 L 17.84,331.81333 h 1.333333 l 2.36,6.53333 z m -2.88,-2.34667 H 19.52 l -1.04,-2.96 z"
     id="path2513" />
  <path
     style="fill:#cccccc;stroke-width:1.33333325"
     inkscape:connector-curvature="0"
     class="cls-5"
     d="m 98.319998,331.81333 h 1.066666 v 6.53333 h -0.84 l -3.08,-4.44 v 4.44 h -1.08 v -6.53333 h 0.853334 l 3.08,4.43999 z"
     id="path2515" />
  <path
     style="fill:#cccccc;stroke-width:1.33333325"
     inkscape:connector-curvature="0"
     class="cls-5"
     d="m 100.88,339.27999 h -0.50667 l 3.73333,-8.4 h 0.50667 z"
     id="path2517" />
  <path
     style="fill:#cccccc;stroke-width:1.33333325"
     inkscape:connector-curvature="0"
     class="cls-5"
     d="m 109.14666,338.34666 -0.45333,-1.33334 h -2.78667 l -0.45333,1.33334 H 104.28 l 2.37333,-6.53333 h 1.33333 l 2.36,6.53333 z m -2.88,-2.34667 h 2.06667 l -1.02667,-2.96 z"
     id="path2519" />
  <path
     style="fill:#cccccc;stroke-width:1.33333325"
     inkscape:connector-curvature="0"
     class="cls-5"
     d="m 9.4933331,372.81332 h 1.0799999 v 6.54667 H 9.7333331 l -3.0666666,-4.44 v 4.44 H 5.5733332 v -6.54667 h 0.84 l 3.0799999,4.44 z"
     id="path2521" />
  <path
     style="fill:#cccccc;stroke-width:1.33333325"
     inkscape:connector-curvature="0"
     class="cls-5"
     d="m 12.066666,380.29332 h -0.52 L 15.28,371.87999 h 0.52 z"
     id="path2523" />
  <path
     style="fill:#cccccc;stroke-width:1.33333325"
     inkscape:connector-curvature="0"
     class="cls-5"
     d="M 20.333333,379.35999 19.88,378.02666 H 17.093333 L 16.64,379.35999 H 15.466666 L 17.84,372.81332 h 1.333333 l 2.36,6.54667 z m -2.88,-2.33333 H 19.52 l -1.04,-2.94667 z"
     id="path2525" />
  <path
     style="fill:#cccccc;stroke-width:1.33333325"
     inkscape:connector-curvature="0"
     class="cls-5"
     d="m 98.319998,372.81332 h 1.066666 v 6.54667 h -0.84 l -3.08,-4.44 v 4.44 h -1.08 v -6.54667 h 0.853334 l 3.08,4.44 z"
     id="path2527" />
  <path
     style="fill:#cccccc;stroke-width:1.33333325"
     inkscape:connector-curvature="0"
     class="cls-5"
     d="m 100.88,380.29332 h -0.50667 l 3.73333,-8.41333 h 0.50667 z"
     id="path2529" />
  <path
     style="fill:#cccccc;stroke-width:1.33333325"
     inkscape:connector-curvature="0"
     class="cls-5"
     d="m 109.14666,379.35999 -0.45333,-1.33333 h -2.78667 l -0.45333,1.33333 H 104.28 l 2.38666,-6.54667 H 108 l 2.36,6.54667 z m -2.88,-2.33333 h 2.06667 l -1.02667,-2.94667 z"
     id="path2531" />
  <path
     style="fill:#cccccc;stroke-width:1.33333325"
     inkscape:connector-curvature="0"
     class="cls-5"
     d="m 9.4933331,414.01332 h 1.0799999 v 6.54667 H 9.7333331 l -3.0666666,-4.44 v 4.44 H 5.5733332 v -6.54667 h 0.84 l 3.0799999,4.44 z"
     id="path2533" />
  <path
     style="fill:#cccccc;stroke-width:1.33333325"
     inkscape:connector-curvature="0"
     class="cls-5"
     d="m 12.066666,421.49332 h -0.52 L 15.28,413.07999 h 0.52 z"
     id="path2535" />
  <path
     style="fill:#cccccc;stroke-width:1.33333325"
     inkscape:connector-curvature="0"
     class="cls-5"
     d="M 20.333333,420.55999 19.88,419.22666 H 17.093333 L 16.64,420.55999 H 15.466666 L 17.84,414.01332 h 1.333333 l 2.36,6.54667 z m -2.88,-2.33333 H 19.52 l -1.04,-2.94667 z"
     id="path2537" />
  <path
     style="fill:#cccccc;stroke-width:1.33333325"
     inkscape:connector-curvature="0"
     class="cls-5"
     d="m 98.319998,414.01332 h 1.066666 v 6.54667 h -0.84 l -3.08,-4.44 v 4.44 h -1.066666 v -6.54667 h 0.84 l 3.08,4.44 z"
     id="path2539" />
  <path
     style="fill:#cccccc;stroke-width:1.33333325"
     inkscape:connector-curvature="0"
     class="cls-5"
     d="m 100.88,421.49332 h -0.50667 l 3.73333,-8.41333 h 0.50667 z"
     id="path2541" />
  <path
     style="fill:#cccccc;stroke-width:1.33333325"
     inkscape:connector-curvature="0"
     class="cls-5"
     d="m 109.16,420.55999 -0.46667,-1.33333 h -2.78667 l -0.45333,1.33333 h -1.16 l 2.37333,-6.54667 H 108 l 2.36,6.54667 z m -2.89334,-2.33333 h 2.08 l -1.04,-2.94667 z"
     id="path2543" />
</svg>
