<?xml version="1.0" encoding="UTF-8" standalone="no"?>
<svg
   xmlns:dc="http://purl.org/dc/elements/1.1/"
   xmlns:cc="http://creativecommons.org/ns#"
   xmlns:rdf="http://www.w3.org/1999/02/22-rdf-syntax-ns#"
   xmlns:svg="http://www.w3.org/2000/svg"
   xmlns="http://www.w3.org/2000/svg"
   xmlns:sodipodi="http://sodipodi.sourceforge.net/DTD/sodipodi-0.dtd"
   xmlns:inkscape="http://www.inkscape.org/namespaces/inkscape"
   inkscape:version="0.92.2 (5c3e80d, 2017-08-06)"
   height="128.5mm"
   width="30.48mm"
   sodipodi:docname="M_S-1-8Jr.svg"
   id="svg981"
   version="1.1"
   viewBox="0 0 115.2 485.66928">
  <metadata
     id="metadata985">
    <rdf:RDF>
      <cc:Work
         rdf:about="">
        <dc:format>image/svg+xml</dc:format>
        <dc:type
           rdf:resource="http://purl.org/dc/dcmitype/StillImage" />
        <dc:title />
      </cc:Work>
    </rdf:RDF>
  </metadata>
  <sodipodi:namedview
     inkscape:current-layer="svg981"
     inkscape:window-maximized="0"
     inkscape:window-y="23"
     inkscape:window-x="0"
     inkscape:cy="182.125"
     inkscape:cx="-43.817797"
     inkscape:zoom="1.9593693"
     units="mm"
     inkscape:document-units="mm"
     showgrid="false"
     id="namedview983"
     inkscape:window-height="768"
     inkscape:window-width="1366"
     inkscape:pageshadow="2"
     inkscape:pageopacity="0"
     guidetolerance="10"
     gridtolerance="10"
     objecttolerance="10"
     borderopacity="1"
     bordercolor="#666666"
     pagecolor="#ffffff" />
  <defs
     id="defs840">
    <style
       id="style833">.cls-1{fill:#353535;}.cls-2{fill:url(#linear-gradient);}.cls-3{fill:gray;}.cls-4{fill:#b3b3b3;}.cls-5{fill:#ccc;}.cls-6{fill:#121212;}.cls-7{fill:#fff;}</style>
    <linearGradient
       gradientUnits="userSpaceOnUse"
       y2="349.56"
       x2="40.939999"
       y1="349.56"
       x1="21.09"
       id="linear-gradient">
      <stop
         id="stop835"
         stop-color="#3fa9f5"
         offset="0" />
      <stop
         id="stop837"
         stop-color="#ed1e79"
         offset="1" />
    </linearGradient>
  </defs>
  <g
     id="Layer_2-2"
     data-name="Layer 2"
     transform="scale(1.3333333)">
    <g
       id="background">
      <path
         style="fill:#353535"
         inkscape:connector-curvature="0"
         id="rect4155"
         class="cls-1"
         d="M 0,0 H 86.4 V 364.25 H 0 Z" />
    </g>
  </g>
  <g
     id="branding"
     transform="scale(1.3333333)">
    <path
       inkscape:connector-curvature="0"
       class="cls-2"
       d="m 21.6,355.74 a 0.47,0.47 0 0 1 -0.25,-0.07 0.51,0.51 0 0 1 -0.2,-0.7 l 6.27,-11.32 a 0.52,0.52 0 0 1 1,0.25 v 9.33 l 5.31,-9.58 a 0.51,0.51 0 0 1 0.58,-0.25 0.52,0.52 0 0 1 0.38,0.5 v 9.33 L 40,343.65 a 0.51,0.51 0 0 1 0.58,-0.25 0.51,0.51 0 0 1 0.39,0.5 v 11.32 a 0.52,0.52 0 0 1 -0.52,0.52 0.51,0.51 0 0 1 -0.51,-0.52 v -9.33 l -5.31,9.58 a 0.52,0.52 0 0 1 -1,-0.25 v -9.33 l -5.31,9.58 a 0.51,0.51 0 0 1 -0.58,0.25 0.52,0.52 0 0 1 -0.38,-0.5 v -9.33 l -5.31,9.58 a 0.51,0.51 0 0 1 -0.45,0.27 z"
       id="path845"
       style="fill:url(#linear-gradient)" />
    <path
       style="fill:#808080"
       inkscape:connector-curvature="0"
       class="cls-3"
       d="m 43.43,343.9 a 0.5,0.5 0 0 1 0.5,-0.5 H 44 a 0.54,0.54 0 0 1 0.47,0.26 l 1.71,2.68 1.72,-2.69 a 0.51,0.51 0 0 1 0.46,-0.25 h 0.1 a 0.5,0.5 0 0 1 0.51,0.5 v 4.72 a 0.49,0.49 0 0 1 -0.51,0.49 0.5,0.5 0 0 1 -0.49,-0.49 v -3.39 l -1.38,2.08 a 0.47,0.47 0 0 1 -0.84,0 l -1.37,-2.06 v 3.38 a 0.48,0.48 0 0 1 -0.5,0.48 0.47,0.47 0 0 1 -0.48,-0.48 z"
       id="path847" />
    <path
       style="fill:#b3b3b3"
       inkscape:connector-curvature="0"
       class="cls-4"
       d="m 48.49,343.4 h -0.1 a 0.51,0.51 0 0 0 -0.46,0.25 l -1.72,2.69 -1.71,-2.68 a 0.54,0.54 0 0 0 -0.47,-0.26 h -0.1 a 0.5,0.5 0 0 0 -0.5,0.5 v 4.73 a 0.47,0.47 0 0 0 0.48,0.48 0.48,0.48 0 0 0 0.5,-0.48 v -3.38 l 1.37,2.06 a 0.47,0.47 0 0 0 0.84,0 L 48,345.23 v 3.39 a 0.5,0.5 0 0 0 0.49,0.49 0.49,0.49 0 0 0 0.51,-0.49 v -4.72 a 0.5,0.5 0 0 0 -0.51,-0.5 z"
       id="path849" />
    <path
       style="fill:#808080"
       inkscape:connector-curvature="0"
       class="cls-3"
       d="m 50.11,343.88 a 0.5,0.5 0 0 1 1,0 v 4.74 a 0.5,0.5 0 0 1 -1,0 z"
       id="path851" />
    <path
       style="fill:#b3b3b3"
       inkscape:connector-curvature="0"
       class="cls-4"
       d="m 50.61,343.39 a 0.49,0.49 0 0 0 -0.5,0.49 v 4.74 a 0.5,0.5 0 0 0 1,0 v -4.74 a 0.49,0.49 0 0 0 -0.49,-0.49 z"
       id="path853" />
    <path
       style="fill:#808080"
       inkscape:connector-curvature="0"
       class="cls-3"
       d="m 52.21,343.9 a 0.5,0.5 0 0 1 0.5,-0.5 h 0.11 a 0.64,0.64 0 0 1 0.52,0.29 l 2.83,3.65 v -3.47 a 0.5,0.5 0 0 1 1,0 v 4.74 a 0.49,0.49 0 0 1 -0.49,0.5 v 0 a 0.66,0.66 0 0 1 -0.52,-0.3 l -2.91,-3.76 v 3.58 a 0.5,0.5 0 0 1 -1,0 z"
       id="path855" />
    <path
       style="fill:#b3b3b3"
       inkscape:connector-curvature="0"
       class="cls-4"
       d="m 56.65,343.39 a 0.49,0.49 0 0 0 -0.48,0.48 v 3.47 l -2.83,-3.65 a 0.64,0.64 0 0 0 -0.52,-0.29 h -0.11 a 0.5,0.5 0 0 0 -0.5,0.5 v 4.73 a 0.5,0.5 0 0 0 1,0 v -3.58 l 2.91,3.76 a 0.66,0.66 0 0 0 0.52,0.3 v 0 a 0.49,0.49 0 0 0 0.49,-0.5 v -4.74 a 0.49,0.49 0 0 0 -0.5,-0.48 z"
       id="path857" />
    <path
       style="fill:#808080"
       inkscape:connector-curvature="0"
       class="cls-3"
       d="m 58.2,343.93 a 0.5,0.5 0 0 1 0.51,-0.5 h 1.61 a 2.82,2.82 0 0 1 3,2.8 v 0 a 2.83,2.83 0 0 1 -3,2.82 h -1.61 a 0.49,0.49 0 0 1 -0.51,-0.5 z m 2.12,4.24 a 1.84,1.84 0 0 0 2,-1.9 v 0 a 1.85,1.85 0 0 0 -2,-1.92 H 59.2 v 3.84 z"
       id="path859" />
    <path
       style="fill:#b3b3b3"
       inkscape:connector-curvature="0"
       class="cls-4"
       d="m 60.32,343.43 h -1.61 a 0.5,0.5 0 0 0 -0.51,0.5 v 4.64 a 0.49,0.49 0 0 0 0.51,0.5 h 1.61 a 2.83,2.83 0 0 0 3,-2.82 v 0 a 2.82,2.82 0 0 0 -3,-2.8 z m -1.12,4.74 v -3.84 h 1.12 a 1.85,1.85 0 0 1 2,1.92 v 0 a 1.84,1.84 0 0 1 -2,1.9 z"
       id="path861" />
    <path
       style="fill:#808080"
       inkscape:connector-curvature="0"
       class="cls-3"
       d="m 43.43,350.51 a 0.5,0.5 0 0 1 0.5,-0.5 H 44 a 0.54,0.54 0 0 1 0.47,0.26 l 1.74,2.73 1.72,-2.68 a 0.52,0.52 0 0 1 0.46,-0.26 h 0.1 a 0.5,0.5 0 0 1 0.51,0.5 v 4.72 a 0.5,0.5 0 0 1 -0.51,0.5 0.51,0.51 0 0 1 -0.49,-0.5 v -3.38 l -1.38,2.07 a 0.47,0.47 0 0 1 -0.84,0 l -1.37,-2.06 v 3.38 a 0.49,0.49 0 0 1 -0.5,0.49 0.48,0.48 0 0 1 -0.48,-0.49 z"
       id="path863" />
    <path
       style="fill:#b3b3b3"
       inkscape:connector-curvature="0"
       class="cls-4"
       d="m 48.49,350 h -0.1 a 0.52,0.52 0 0 0 -0.46,0.26 L 46.21,353 44.5,350.32 A 0.54,0.54 0 0 0 44,350 h -0.1 a 0.5,0.5 0 0 0 -0.5,0.5 v 4.73 a 0.48,0.48 0 0 0 0.48,0.49 0.49,0.49 0 0 0 0.5,-0.49 v -3.38 l 1.37,2.06 a 0.47,0.47 0 0 0 0.84,0 L 48,351.85 v 3.38 a 0.51,0.51 0 0 0 0.49,0.5 0.5,0.5 0 0 0 0.51,-0.5 v -4.72 a 0.5,0.5 0 0 0 -0.51,-0.5 z"
       id="path865" />
    <path
       style="fill:#808080"
       inkscape:connector-curvature="0"
       class="cls-3"
       d="m 50.05,355.19 v -4.65 a 0.5,0.5 0 0 1 0.5,-0.5 h 3.3 a 0.45,0.45 0 0 1 0,0.89 h -2.8 v 1.46 h 2.43 a 0.46,0.46 0 0 1 0.45,0.46 0.44,0.44 0 0 1 -0.45,0.43 h -2.43 v 1.52 h 2.84 a 0.45,0.45 0 0 1 0,0.89 h -3.34 a 0.5,0.5 0 0 1 -0.5,-0.5 z"
       id="path867" />
    <path
       style="fill:#b3b3b3"
       inkscape:connector-curvature="0"
       class="cls-4"
       d="m 53.85,350 h -3.3 a 0.5,0.5 0 0 0 -0.5,0.5 v 4.65 a 0.5,0.5 0 0 0 0.5,0.5 h 3.34 a 0.45,0.45 0 0 0 0,-0.89 h -2.84 v -1.52 h 2.43 a 0.44,0.44 0 0 0 0.45,-0.43 0.46,0.46 0 0 0 -0.45,-0.46 h -2.43 v -1.46 h 2.8 a 0.45,0.45 0 0 0 0,-0.89 z"
       id="path869" />
    <path
       style="fill:#808080"
       inkscape:connector-curvature="0"
       class="cls-3"
       d="m 55.07,350.49 a 0.5,0.5 0 0 1 1,0 v 4.29 h 2.56 a 0.45,0.45 0 0 1 0.45,0.45 0.46,0.46 0 0 1 -0.45,0.46 h -3.06 a 0.5,0.5 0 0 1 -0.5,-0.5 z"
       id="path871" />
    <path
       style="fill:#b3b3b3"
       inkscape:connector-curvature="0"
       class="cls-4"
       d="m 55.57,350 a 0.49,0.49 0 0 0 -0.5,0.49 v 4.7 a 0.5,0.5 0 0 0 0.5,0.5 h 3.06 a 0.46,0.46 0 0 0 0.45,-0.46 0.45,0.45 0 0 0 -0.45,-0.45 h -2.56 v -4.29 A 0.49,0.49 0 0 0 55.57,350 Z"
       id="path873" />
    <path
       style="fill:#808080"
       inkscape:connector-curvature="0"
       class="cls-3"
       d="m 59.68,350.54 a 0.5,0.5 0 0 1 0.5,-0.5 h 1.61 a 2.82,2.82 0 0 1 3,2.81 v 0 a 2.84,2.84 0 0 1 -3,2.83 h -1.61 a 0.5,0.5 0 0 1 -0.5,-0.5 z m 2.11,4.24 a 1.85,1.85 0 0 0 2,-1.9 v 0 a 1.86,1.86 0 0 0 -2,-1.92 h -1.12 v 3.84 z"
       id="path875" />
    <path
       style="fill:#b3b3b3"
       inkscape:connector-curvature="0"
       class="cls-4"
       d="m 61.79,350 h -1.61 a 0.5,0.5 0 0 0 -0.5,0.5 v 4.65 a 0.5,0.5 0 0 0 0.5,0.5 h 1.61 a 2.84,2.84 0 0 0 3,-2.83 v 0 a 2.82,2.82 0 0 0 -3,-2.81 z m -1.12,4.74 v -3.84 h 1.12 a 1.86,1.86 0 0 1 2,1.92 v 0 a 1.85,1.85 0 0 1 -2,1.9 z"
       id="path877" />
    <path
       style="fill:#cccccc"
       inkscape:connector-curvature="0"
       class="cls-5"
       d="m 35.58,10 v 8.39 h -1.64 v -5.46 l -2.36,3.89 h -0.2 L 29,12.94 v 5.43 H 27.37 V 10 h 1.7 l 2.41,4 2.4,-4 z"
       id="path879" />
    <path
       style="fill:#cccccc"
       inkscape:connector-curvature="0"
       class="cls-5"
       d="M 39.48,16.79 H 43 v 1.58 H 37.83 V 10 H 43 v 1.58 h -3.52 v 1.79 h 3.18 v 1.53 h -3.18 z"
       id="path881" />
    <path
       style="fill:#cccccc"
       inkscape:connector-curvature="0"
       class="cls-5"
       d="m 46.53,16.79 h 3.2 v 1.58 H 44.87 V 10 h 1.66 z"
       id="path883" />
    <path
       style="fill:#cccccc"
       inkscape:connector-curvature="0"
       class="cls-5"
       d="m 54.69,10 a 3.81,3.81 0 0 1 2.88,1.21 4.1,4.1 0 0 1 1.16,3 4.11,4.11 0 0 1 -1.16,3 3.84,3.84 0 0 1 -2.88,1.21 H 51.35 V 10 Z m 0,6.81 a 2.31,2.31 0 0 0 1.77,-0.72 2.66,2.66 0 0 0 0.69,-1.9 2.59,2.59 0 0 0 -0.69,-1.88 2.29,2.29 0 0 0 -1.77,-0.73 H 53 v 5.23 z"
       id="path885" />
  </g>
  <g
     id="EQ_bgs_copy"
     data-name="EQ bgs copy"
     transform="scale(1.3333333)">
    <rect
       style="fill:#121212"
       class="cls-6"
       x="53.049999"
       y="28.35"
       width="27.92"
       height="36.849998"
       rx="1.42"
       id="rect888" />
  </g>
  <g
     id="labels"
     transform="scale(1.3333333)">
    <path
       style="fill:#cccccc"
       inkscape:connector-curvature="0"
       class="cls-5"
       d="m 16.51,31.52 h 0.94 v 4.9 h -0.94 z"
       id="path891" />
    <path
       style="fill:#cccccc"
       inkscape:connector-curvature="0"
       class="cls-5"
       d="m 21.33,31.52 h 0.93 v 4.9 h -0.71 l -2,-3 v 3 h -0.94 v -4.9 h 0.71 l 2,3 z"
       id="path893" />
    <path
       style="fill:#cccccc"
       inkscape:connector-curvature="0"
       class="cls-5"
       d="M 62.64,36.52 A 2.35,2.35 0 0 1 60.9,35.78 2.5,2.5 0 0 1 60.19,34 a 2.47,2.47 0 0 1 0.71,-1.81 2.43,2.43 0 0 1 3.49,0 2.47,2.47 0 0 1 0.71,1.81 2.5,2.5 0 0 1 -0.71,1.81 2.37,2.37 0 0 1 -1.75,0.71 z m 0,-1 a 1.43,1.43 0 0 0 1.09,-0.45 1.58,1.58 0 0 0 0.44,-1.07 1.61,1.61 0 0 0 -0.44,-1.16 1.55,1.55 0 0 0 -2.18,0 1.61,1.61 0 0 0 -0.44,1.16 1.58,1.58 0 0 0 0.44,1.15 1.43,1.43 0 0 0 1.09,0.42 z"
       id="path895" />
    <path
       style="fill:#cccccc"
       inkscape:connector-curvature="0"
       class="cls-5"
       d="M 66.49,36.06 A 1.61,1.61 0 0 1 66,34.82 v -3.3 h 0.93 v 3.22 a 0.88,0.88 0 0 0 1.76,0 v -3.22 h 0.93 v 3.3 a 1.61,1.61 0 0 1 -0.51,1.24 2.07,2.07 0 0 1 -2.6,0 z"
       id="path897" />
    <path
       style="fill:#cccccc"
       inkscape:connector-curvature="0"
       class="cls-5"
       d="m 73.83,31.52 v 0.92 h -1.27 v 4 h -0.94 v -4 h -1.27 v -0.92 z"
       id="path899" />
  </g>
  <g
     id="M_S_1-8"
     data-name="M/S 1-8"
     transform="scale(1.3333333)">
    <path
       style="fill:#ffffff"
       inkscape:connector-curvature="0"
       class="cls-7"
       d="m 32.91,74.71 v 5.6 h -1.09 v -3.63 l -1.58,2.6 h -0.13 l -1.57,-2.59 v 3.62 h -1.1 v -5.6 h 1.13 l 1.61,2.65 1.6,-2.65 z"
       id="path902" />
    <path
       style="fill:#ffffff"
       inkscape:connector-curvature="0"
       class="cls-7"
       d="M 34.56,81.11 H 34.1 l 3.2,-7.2 h 0.45 z"
       id="path904" />
    <path
       style="fill:#ffffff"
       inkscape:connector-curvature="0"
       class="cls-7"
       d="m 38.65,79 1,-0.55 a 1.24,1.24 0 0 0 1.28,0.85 c 0.62,0 0.9,-0.24 0.9,-0.59 a 0.48,0.48 0 0 0 -0.27,-0.45 3.14,3.14 0 0 0 -0.94,-0.36 4,4 0 0 1 -1.16,-0.52 1.37,1.37 0 0 1 -0.53,-1.15 1.48,1.48 0 0 1 0.54,-1.21 1.93,1.93 0 0 1 1.3,-0.46 2.14,2.14 0 0 1 2,1.26 l -0.93,0.53 a 1.11,1.11 0 0 0 -1.07,-0.72 c -0.45,0 -0.73,0.24 -0.73,0.56 a 0.55,0.55 0 0 0 0.21,0.44 4,4 0 0 0 0.85,0.35 l 0.38,0.12 0.36,0.14 a 1.52,1.52 0 0 1 0.36,0.17 1.62,1.62 0 0 1 0.52,0.49 1.57,1.57 0 0 1 0.21,0.8 1.5,1.5 0 0 1 -0.62,1.3 2.25,2.25 0 0 1 -1.46,0.45 2.16,2.16 0 0 1 -2.2,-1.45 z"
       id="path906" />
    <path
       style="fill:#ffffff"
       inkscape:connector-curvature="0"
       class="cls-7"
       d="m 47.44,74.71 h 1 v 5.6 H 47.3 v -4.43 l -1.06,0.3 -0.27,-1 z"
       id="path908" />
    <path
       style="fill:#ffffff"
       inkscape:connector-curvature="0"
       class="cls-7"
       d="m 49.9,78.39 v -1 H 54 v 1 z"
       id="path910" />
    <path
       style="fill:#ffffff"
       inkscape:connector-curvature="0"
       class="cls-7"
       d="m 59.22,78.75 c 0,1 -0.77,1.67 -2,1.67 -1.23,0 -2,-0.64 -2,-1.67 A 1.49,1.49 0 0 1 56,77.4 1.35,1.35 0 0 1 55.42,76.24 1.48,1.48 0 0 1 55.91,75 a 2.18,2.18 0 0 1 2.6,0 1.51,1.51 0 0 1 0.49,1.24 1.35,1.35 0 0 1 -0.59,1.16 1.48,1.48 0 0 1 0.81,1.35 z m -2,-0.91 c -0.54,0 -0.91,0.29 -0.91,0.77 0,0.48 0.37,0.77 0.91,0.77 0.54,0 0.91,-0.28 0.91,-0.77 0,-0.49 -0.38,-0.77 -0.92,-0.77 z m 0,-2.2 a 0.75,0.75 0 0 0 -0.52,0.18 0.63,0.63 0 0 0 -0.2,0.48 0.65,0.65 0 0 0 0.2,0.49 0.88,0.88 0 0 0 1,0 0.61,0.61 0 0 0 0.2,-0.49 0.59,0.59 0 0 0 -0.2,-0.48 0.75,0.75 0 0 0 -0.49,-0.18 z"
       id="path912" />
  </g>
  <g
     id="M_S_1-8_No.s"
     data-name="M/S 1-8 No.s"
     transform="scale(1.3333333)">
    <path
       style="fill:#cccccc"
       inkscape:connector-curvature="0"
       class="cls-5"
       d="m 11.85,95.48 v 4.9 h -0.8 V 96.89 L 9.56,99.35 H 9.46 L 8,96.88 v 3.5 H 7.16 v -4.9 H 8 L 9.48,97.93 11,95.48 Z"
       id="path915" />
    <path
       style="fill:#cccccc"
       inkscape:connector-curvature="0"
       class="cls-5"
       d="m 13.72,95.48 h 0.7 v 4.9 h -0.81 v -4 l -1,0.28 -0.2,-0.69 z"
       id="path917" />
    <path
       style="fill:#cccccc"
       inkscape:connector-curvature="0"
       class="cls-5"
       d="m 76.5,95.48 v 4.9 h -0.81 v -3.49 l -1.49,2.46 h -0.1 l -1.49,-2.47 v 3.5 H 71.8 v -4.9 h 0.87 l 1.48,2.45 1.48,-2.45 z"
       id="path919" />
    <path
       style="fill:#cccccc"
       inkscape:connector-curvature="0"
       class="cls-5"
       d="M 77.2,100.38 V 99.75 L 78.91,98 a 1.75,1.75 0 0 0 0.62,-1.08 0.71,0.71 0 0 0 -0.75,-0.76 1,1 0 0 0 -0.91,0.61 l -0.68,-0.4 a 1.68,1.68 0 0 1 1.58,-1 1.63,1.63 0 0 1 1.11,0.4 1.44,1.44 0 0 1 0.46,1.11 2.4,2.4 0 0 1 -0.84,1.6 l -1.1,1.1 h 2 v 0.78 z"
       id="path921" />
    <path
       style="fill:#cccccc"
       inkscape:connector-curvature="0"
       class="cls-5"
       d="m 11.26,126.3 v 4.9 h -0.8 v -3.49 L 9,130.17 H 8.9 L 7.38,127.7 v 3.5 H 6.57 v -4.9 h 0.87 l 1.48,2.45 1.48,-2.45 z"
       id="path923" />
    <path
       style="fill:#cccccc"
       inkscape:connector-curvature="0"
       class="cls-5"
       d="m 14.09,128.3 a 1.44,1.44 0 0 1 1.2,1.42 1.46,1.46 0 0 1 -0.5,1.16 1.8,1.8 0 0 1 -1.22,0.41 1.66,1.66 0 0 1 -1.64,-1 l 0.68,-0.4 a 0.92,0.92 0 0 0 1,0.63 c 0.56,0 0.91,-0.31 0.91,-0.79 0,-0.48 -0.35,-0.78 -0.91,-0.78 h -0.18 l -0.32,-0.49 1.06,-1.39 h -2.1 v -0.76 h 3 V 127 Z"
       id="path925" />
    <path
       style="fill:#cccccc"
       inkscape:connector-curvature="0"
       class="cls-5"
       d="m 76.31,126.3 v 4.9 h -0.8 v -3.49 L 74,130.17 h -0.1 l -1.49,-2.47 v 3.5 H 71.6 v -4.9 h 0.87 l 1.53,2.45 1.48,-2.45 z"
       id="path927" />
    <path
       style="fill:#cccccc"
       inkscape:connector-curvature="0"
       class="cls-5"
       d="m 80.75,129.57 v 0.75 h -0.57 v 0.88 h -0.81 v -0.88 H 77 v -0.75 l 1.69,-3.27 h 0.88 l -1.69,3.27 h 1.53 v -1.27 h 0.81 v 1.27 z"
       id="path929" />
    <path
       style="fill:#cccccc"
       inkscape:connector-curvature="0"
       class="cls-5"
       d="m 11.24,157.44 v 4.9 h -0.8 v -3.49 l -1.5,2.46 H 8.85 l -1.5,-2.47 v 3.5 h -0.8 v -4.9 h 0.87 l 1.47,2.45 1.49,-2.45 z"
       id="path931" />
    <path
       style="fill:#cccccc"
       inkscape:connector-curvature="0"
       class="cls-5"
       d="m 13.65,159.29 a 1.75,1.75 0 0 1 1.19,0.42 1.59,1.59 0 0 1 0,2.3 1.81,1.81 0 0 1 -1.22,0.42 1.67,1.67 0 0 1 -1.66,-1.05 l 0.69,-0.4 a 0.9,0.9 0 0 0 1,0.67 c 0.56,0 0.92,-0.31 0.92,-0.79 a 0.8,0.8 0 0 0 -0.9,-0.79 h -1.48 l 0.19,-2.63 h 2.73 v 0.76 h -2 L 13,159.29 Z"
       id="path933" />
    <path
       style="fill:#cccccc"
       inkscape:connector-curvature="0"
       class="cls-5"
       d="m 76.44,157.44 v 4.9 h -0.81 v -3.49 l -1.49,2.46 H 74 l -1.49,-2.47 v 3.5 h -0.8 v -4.9 h 0.86 l 1.48,2.45 1.49,-2.45 z"
       id="path935" />
    <path
       style="fill:#cccccc"
       inkscape:connector-curvature="0"
       class="cls-5"
       d="m 78.84,159.09 a 1.67,1.67 0 0 1 1.24,0.47 1.54,1.54 0 0 1 0.49,1.2 1.58,1.58 0 0 1 -0.49,1.21 1.7,1.7 0 0 1 -1.24,0.46 1.76,1.76 0 0 1 -1.26,-0.46 1.6,1.6 0 0 1 -0.48,-1.21 1.77,1.77 0 0 1 0.29,-1 L 79,157.44 h 0.92 l -1.12,1.65 z m 0.92,1.67 a 0.93,0.93 0 1 0 -0.92,0.91 0.87,0.87 0 0 0 0.92,-0.91 z"
       id="path937" />
    <path
       style="fill:#cccccc"
       inkscape:connector-curvature="0"
       class="cls-5"
       d="M 11.43,188.08 V 193 h -0.8 v -3.49 L 9.14,192 H 9 L 7.51,189.53 V 193 H 6.74 v -4.9 h 0.87 l 1.48,2.45 1.48,-2.45 z"
       id="path939" />
    <path
       style="fill:#cccccc"
       inkscape:connector-curvature="0"
       class="cls-5"
       d="m 12,188.08 h 3.12 v 0.7 l -1.7,4.22 h -0.85 l 1.7,-4.13 H 12 Z"
       id="path941" />
    <path
       style="fill:#cccccc"
       inkscape:connector-curvature="0"
       class="cls-5"
       d="M 76.38,188.08 V 193 h -0.8 v -3.49 L 74.08,192 H 74 l -1.49,-2.47 V 193 H 71.7 v -4.9 h 0.87 l 1.43,2.43 1.48,-2.45 z"
       id="path943" />
    <path
       style="fill:#cccccc"
       inkscape:connector-curvature="0"
       class="cls-5"
       d="m 80.55,191.62 c 0,0.9 -0.68,1.45 -1.71,1.45 a 1.93,1.93 0 0 1 -1.26,-0.38 1.33,1.33 0 0 1 -0.47,-1.07 1.35,1.35 0 0 1 0.72,-1.19 1.16,1.16 0 0 1 -0.55,-1 1.26,1.26 0 0 1 0.45,-1 1.84,1.84 0 0 1 2.21,0 1.26,1.26 0 0 1 0.45,1 1.17,1.17 0 0 1 -0.56,1 1.29,1.29 0 0 1 0.72,1.19 z m -0.8,-0.07 c 0,-0.49 -0.37,-0.77 -0.91,-0.77 -0.54,0 -0.92,0.28 -0.92,0.77 0,0.49 0.36,0.76 0.92,0.76 0.56,0 0.91,-0.31 0.91,-0.76 z m -1.66,-2.12 a 0.75,0.75 0 1 0 0.75,-0.68 0.67,0.67 0 0 0 -0.75,0.68 z"
       id="path945" />
    <path
       style="fill:#cccccc"
       inkscape:connector-curvature="0"
       class="cls-5"
       d="m 7.7,222 0.69,-0.4 a 1.16,1.16 0 0 0 1.22,0.82 c 0.61,0 0.91,-0.26 0.91,-0.64 A 0.52,0.52 0 0 0 10.27,221.32 4.08,4.08 0 0 0 9.4,221 a 3.21,3.21 0 0 1 -1,-0.45 1.1,1.1 0 0 1 -0.48,-1 1.24,1.24 0 0 1 0.46,-1 1.67,1.67 0 0 1 1.11,-0.39 1.81,1.81 0 0 1 1.71,1.08 l -0.68,0.39 a 1,1 0 0 0 -1,-0.68 c -0.46,0 -0.77,0.23 -0.77,0.61 0,0.38 0.24,0.53 1,0.76 l 0.41,0.14 0.36,0.14 a 1.18,1.18 0 0 1 0.36,0.2 1.15,1.15 0 0 1 0.5,1 1.29,1.29 0 0 1 -0.48,1.06 1.93,1.93 0 0 1 -1.25,0.39 A 1.85,1.85 0 0 1 7.7,222 Z"
       id="path947" />
    <path
       style="fill:#cccccc"
       inkscape:connector-curvature="0"
       class="cls-5"
       d="m 12.91,218.19 h 0.7 v 4.91 h -0.8 v -4 l -1,0.28 -0.2,-0.68 z"
       id="path949" />
    <path
       style="fill:#cccccc"
       inkscape:connector-curvature="0"
       class="cls-5"
       d="m 72.34,222 0.7,-0.4 a 1.16,1.16 0 0 0 1.21,0.82 c 0.61,0 0.92,-0.26 0.92,-0.64 a 0.52,0.52 0 0 0 -0.25,-0.46 4.08,4.08 0 0 0 -0.87,-0.35 3.27,3.27 0 0 1 -1,-0.45 1.12,1.12 0 0 1 -0.47,-1 1.24,1.24 0 0 1 0.46,-1 1.67,1.67 0 0 1 1.11,-0.39 1.81,1.81 0 0 1 1.71,1.08 l -0.68,0.39 a 1,1 0 0 0 -1,-0.68 c -0.47,0 -0.77,0.23 -0.77,0.61 0,0.38 0.24,0.53 1,0.76 l 0.41,0.14 0.36,0.14 a 1.18,1.18 0 0 1 0.36,0.2 1.15,1.15 0 0 1 0.5,1 1.29,1.29 0 0 1 -0.48,1.06 1.94,1.94 0 0 1 -1.26,0.39 1.86,1.86 0 0 1 -1.96,-1.22 z"
       id="path951" />
    <path
       style="fill:#cccccc"
       inkscape:connector-curvature="0"
       class="cls-5"
       d="m 76.4,223.1 v -0.63 l 1.71,-1.75 a 1.72,1.72 0 0 0 0.62,-1.08 0.71,0.71 0 0 0 -0.76,-0.75 1,1 0 0 0 -0.91,0.61 l -0.68,-0.4 a 1.71,1.71 0 0 1 1.58,-1 1.64,1.64 0 0 1 1.11,0.41 1.39,1.39 0 0 1 0.46,1.11 2.42,2.42 0 0 1 -0.83,1.59 l -1.11,1.11 h 2 v 0.78 z"
       id="path953" />
    <path
       style="fill:#cccccc"
       inkscape:connector-curvature="0"
       class="cls-5"
       d="m 7.11,252.65 0.69,-0.41 a 1.18,1.18 0 0 0 1.22,0.83 c 0.61,0 0.91,-0.26 0.91,-0.65 a 0.5,0.5 0 0 0 -0.24,-0.45 3.55,3.55 0 0 0 -0.87,-0.35 3.27,3.27 0 0 1 -1,-0.45 1.12,1.12 0 0 1 -0.48,-1 1.26,1.26 0 0 1 0.46,-1 1.67,1.67 0 0 1 1.12,-0.38 1.82,1.82 0 0 1 1.71,1.08 l -0.68,0.39 a 1.06,1.06 0 0 0 -1,-0.69 c -0.47,0 -0.77,0.24 -0.77,0.61 0,0.37 0.23,0.53 1,0.76 l 0.41,0.14 0.36,0.15 a 1.29,1.29 0 0 1 0.36,0.19 1.19,1.19 0 0 1 0.51,1 1.31,1.31 0 0 1 -0.49,1.06 1.89,1.89 0 0 1 -1.25,0.38 1.85,1.85 0 0 1 -1.97,-1.21 z"
       id="path955" />
    <path
       style="fill:#cccccc"
       inkscape:connector-curvature="0"
       class="cls-5"
       d="m 13.28,250.86 a 1.49,1.49 0 0 1 0.7,2.57 1.81,1.81 0 0 1 -1.22,0.42 1.67,1.67 0 0 1 -1.64,-1 l 0.68,-0.4 a 0.92,0.92 0 0 0 1,0.63 c 0.56,0 0.91,-0.31 0.91,-0.79 0,-0.48 -0.35,-0.79 -0.91,-0.79 h -0.18 l -0.32,-0.48 1.06,-1.39 h -2.09 v -0.76 h 3 v 0.68 z"
       id="path957" />
    <path
       style="fill:#cccccc"
       inkscape:connector-curvature="0"
       class="cls-5"
       d="m 72.13,252.65 0.69,-0.41 a 1.18,1.18 0 0 0 1.22,0.83 c 0.61,0 0.91,-0.26 0.91,-0.65 a 0.5,0.5 0 0 0 -0.24,-0.45 3.38,3.38 0 0 0 -0.87,-0.35 3.27,3.27 0 0 1 -1,-0.45 1.12,1.12 0 0 1 -0.48,-1 1.29,1.29 0 0 1 0.46,-1 1.67,1.67 0 0 1 1.12,-0.38 1.82,1.82 0 0 1 1.71,1.08 l -0.68,0.39 a 1.06,1.06 0 0 0 -1,-0.69 c -0.47,0 -0.77,0.24 -0.77,0.61 0,0.37 0.24,0.53 1,0.76 l 0.41,0.14 0.37,0.15 a 1.21,1.21 0 0 1 0.35,0.19 1.19,1.19 0 0 1 0.51,1 1.28,1.28 0 0 1 -0.49,1.06 1.89,1.89 0 0 1 -1.25,0.38 1.86,1.86 0 0 1 -1.97,-1.21 z"
       id="path959" />
    <path
       style="fill:#cccccc"
       inkscape:connector-curvature="0"
       class="cls-5"
       d="m 80,252.13 v 0.75 h -0.56 v 0.88 h -0.81 v -0.88 H 76.2 v -0.75 l 1.68,-3.27 h 0.88 l -1.69,3.27 h 1.54 v -1.28 h 0.81 v 1.28 z"
       id="path961" />
    <path
       style="fill:#cccccc"
       inkscape:connector-curvature="0"
       class="cls-5"
       d="M 7.09,283.4 7.78,283 A 1.18,1.18 0 0 0 9,283.82 c 0.61,0 0.91,-0.26 0.91,-0.64 a 0.52,0.52 0 0 0 -0.24,-0.46 4.32,4.32 0 0 0 -0.87,-0.35 3.51,3.51 0 0 1 -1,-0.44 1.13,1.13 0 0 1 -0.48,-1 1.25,1.25 0 0 1 0.47,-1 1.64,1.64 0 0 1 1.11,-0.39 1.83,1.83 0 0 1 1.71,1.08 L 9.9,281 a 1.06,1.06 0 0 0 -1,-0.68 c -0.47,0 -0.77,0.24 -0.77,0.61 0,0.37 0.24,0.53 1,0.76 l 0.4,0.14 0.37,0.14 a 1,1 0 0 1 0.35,0.2 1.19,1.19 0 0 1 0.51,1 1.26,1.26 0 0 1 -0.49,1.05 1.89,1.89 0 0 1 -1.25,0.39 1.86,1.86 0 0 1 -1.93,-1.21 z"
       id="path963" />
    <path
       style="fill:#cccccc"
       inkscape:connector-curvature="0"
       class="cls-5"
       d="m 12.85,281.46 a 1.77,1.77 0 0 1 1.19,0.42 1.61,1.61 0 0 1 0,2.31 1.81,1.81 0 0 1 -1.22,0.42 1.67,1.67 0 0 1 -1.66,-1.05 l 0.69,-0.4 a 0.89,0.89 0 0 0 1,0.66 c 0.56,0 0.91,-0.3 0.91,-0.79 a 0.78,0.78 0 0 0 -0.89,-0.78 h -1.48 l 0.19,-2.64 h 2.73 v 0.76 h -2 l -0.08,1.09 z"
       id="path965" />
    <path
       style="fill:#cccccc"
       inkscape:connector-curvature="0"
       class="cls-5"
       d="M 72.27,283.4 73,283 a 1.17,1.17 0 0 0 1.22,0.82 c 0.61,0 0.91,-0.26 0.91,-0.64 a 0.52,0.52 0 0 0 -0.24,-0.46 4.32,4.32 0 0 0 -0.87,-0.35 3.51,3.51 0 0 1 -1,-0.44 1.13,1.13 0 0 1 -0.48,-1 1.27,1.27 0 0 1 0.46,-1 1.68,1.68 0 0 1 1.12,-0.39 1.83,1.83 0 0 1 1.71,1.08 l -0.68,0.39 a 1.07,1.07 0 0 0 -1,-0.68 c -0.47,0 -0.77,0.24 -0.77,0.61 0,0.37 0.24,0.53 1,0.76 l 0.41,0.14 L 75,282 a 1,1 0 0 1 0.35,0.2 1.19,1.19 0 0 1 0.51,1 1.26,1.26 0 0 1 -0.49,1.05 1.89,1.89 0 0 1 -1.25,0.39 1.86,1.86 0 0 1 -1.85,-1.24 z"
       id="path967" />
    <path
       style="fill:#cccccc"
       inkscape:connector-curvature="0"
       class="cls-5"
       d="m 78.05,281.26 a 1.69,1.69 0 0 1 1.25,0.47 1.6,1.6 0 0 1 0.48,1.2 1.64,1.64 0 0 1 -0.48,1.22 1.93,1.93 0 0 1 -2.5,0 1.79,1.79 0 0 1 -0.19,-2.2 l 1.55,-2.34 h 0.92 L 78,281.26 Z m 0.93,1.67 a 0.93,0.93 0 0 0 -1.86,0 0.93,0.93 0 0 0 1.86,0 z"
       id="path969" />
    <path
       style="fill:#cccccc"
       inkscape:connector-curvature="0"
       class="cls-5"
       d="m 7.33,314.3 0.7,-0.4 a 1.16,1.16 0 0 0 1.22,0.82 c 0.61,0 0.91,-0.26 0.91,-0.64 a 0.53,0.53 0 0 0 -0.25,-0.46 4.08,4.08 0 0 0 -0.87,-0.35 3.51,3.51 0 0 1 -1,-0.44 1.15,1.15 0 0 1 -0.47,-1 1.24,1.24 0 0 1 0.46,-1 1.67,1.67 0 0 1 1.11,-0.39 1.81,1.81 0 0 1 1.71,1.08 l -0.68,0.39 a 1,1 0 0 0 -1,-0.68 c -0.46,0 -0.77,0.24 -0.77,0.61 0,0.37 0.24,0.53 1,0.76 l 0.41,0.14 0.36,0.14 a 1.18,1.18 0 0 1 0.36,0.2 1.16,1.16 0 0 1 0.5,1 1.28,1.28 0 0 1 -0.48,1.05 1.93,1.93 0 0 1 -1.25,0.39 1.87,1.87 0 0 1 -1.97,-1.22 z"
       id="path971" />
    <path
       style="fill:#cccccc"
       inkscape:connector-curvature="0"
       class="cls-5"
       d="m 11.17,310.51 h 3.12 v 0.7 l -1.73,4.21 h -0.84 l 1.69,-4.13 h -2.24 z"
       id="path973" />
    <path
       style="fill:#cccccc"
       inkscape:connector-curvature="0"
       class="cls-5"
       d="m 72.23,314.3 0.69,-0.4 a 1.18,1.18 0 0 0 1.22,0.82 c 0.61,0 0.91,-0.26 0.91,-0.64 a 0.52,0.52 0 0 0 -0.24,-0.46 4.32,4.32 0 0 0 -0.87,-0.35 3.51,3.51 0 0 1 -1,-0.44 1.16,1.16 0 0 1 -0.48,-1 1.25,1.25 0 0 1 0.47,-1 1.67,1.67 0 0 1 1.11,-0.39 1.83,1.83 0 0 1 1.71,1.08 l -0.68,0.39 a 1.06,1.06 0 0 0 -1,-0.68 c -0.47,0 -0.77,0.24 -0.77,0.61 0,0.37 0.24,0.53 1,0.76 l 0.4,0.14 0.37,0.14 a 1.18,1.18 0 0 1 0.36,0.2 1.21,1.21 0 0 1 0.5,1 1.28,1.28 0 0 1 -0.48,1.05 1.94,1.94 0 0 1 -1.26,0.39 1.86,1.86 0 0 1 -1.96,-1.22 z"
       id="path975" />
    <path
       style="fill:#cccccc"
       inkscape:connector-curvature="0"
       class="cls-5"
       d="m 79.75,314.06 c 0,0.9 -0.68,1.45 -1.71,1.45 a 1.94,1.94 0 0 1 -1.26,-0.39 1.31,1.31 0 0 1 -0.47,-1.06 1.34,1.34 0 0 1 0.72,-1.19 1.18,1.18 0 0 1 -0.55,-1 1.27,1.27 0 0 1 0.45,-1 1.82,1.82 0 0 1 2.2,0 1.25,1.25 0 0 1 0.46,1 1.18,1.18 0 0 1 -0.56,1 1.27,1.27 0 0 1 0.72,1.19 z M 79,314 c 0,-0.48 -0.38,-0.76 -0.91,-0.76 -0.53,0 -0.92,0.28 -0.92,0.76 0,0.48 0.36,0.77 0.92,0.77 0.56,0 0.91,-0.31 0.91,-0.77 z m -1.66,-2.11 a 0.75,0.75 0 0 0 1.49,0 0.75,0.75 0 0 0 -1.49,0 z"
       id="path977" />
  </g>
</svg>
