<?xml version="1.0" encoding="UTF-8" standalone="no"?>
<svg
   xmlns:dc="http://purl.org/dc/elements/1.1/"
   xmlns:cc="http://creativecommons.org/ns#"
   xmlns:rdf="http://www.w3.org/1999/02/22-rdf-syntax-ns#"
   xmlns:svg="http://www.w3.org/2000/svg"
   xmlns="http://www.w3.org/2000/svg"
   xmlns:sodipodi="http://sodipodi.sourceforge.net/DTD/sodipodi-0.dtd"
   xmlns:inkscape="http://www.inkscape.org/namespaces/inkscape"
   viewBox="0 0 172.80001 485.66928"
   version="1.1"
   id="svg444"
   sodipodi:docname="BassMaster.svg"
   width="45.720001mm"
   height="128.5mm"
   inkscape:version="0.92.2 (5c3e80d, 2017-08-06)">
  <metadata
     id="metadata448">
    <rdf:RDF>
      <cc:Work
         rdf:about="">
        <dc:format>image/svg+xml</dc:format>
        <dc:type
           rdf:resource="http://purl.org/dc/dcmitype/StillImage" />
        <dc:title />
      </cc:Work>
    </rdf:RDF>
  </metadata>
  <sodipodi:namedview
     pagecolor="#ffffff"
     bordercolor="#666666"
     borderopacity="1"
     objecttolerance="10"
     gridtolerance="10"
     guidetolerance="10"
     inkscape:pageopacity="0"
     inkscape:pageshadow="2"
     inkscape:window-width="1920"
     inkscape:window-height="1017"
     id="namedview446"
     showgrid="false"
     inkscape:document-units="mm"
     units="mm"
     inkscape:zoom="1.8325568"
     inkscape:cx="1.3161338"
     inkscape:cy="272.47553"
     inkscape:window-x="-8"
     inkscape:window-y="-8"
     inkscape:window-maximized="1"
     inkscape:current-layer="svg444" />
  <defs
     id="defs19">
    <style
       id="style2">.cls-1{fill:#353535;}.cls-2{fill:url(#linear-gradient);}.cls-3{fill:gray;}.cls-4{fill:#b3b3b3;}.cls-5{fill:#424242;}.cls-6{fill:#121212;}.cls-7{fill:#fff;}.cls-8{fill:#ccc;}.cls-9{fill:#1a1a1a;}.cls-10{fill:#707070;}.cls-11{fill:url(#linear-gradient-2);}.cls-12{fill:url(#linear-gradient-3);}.cls-13{fill:none;}</style>
    <linearGradient
       id="linear-gradient"
       x1="21.34"
       y1="349.56"
       x2="41.189999"
       y2="349.56"
       gradientUnits="userSpaceOnUse"
       gradientTransform="matrix(1.3333333,0,0,1.3333406,0,-4.1893518e-5)">
      <stop
         offset="0"
         stop-color="#3fa9f5"
         id="stop4" />
      <stop
         offset="1"
         stop-color="#ed1e79"
         id="stop6" />
    </linearGradient>
    <linearGradient
       id="linear-gradient-2"
       x1="43.200001"
       y1="47.419998"
       x2="43.200001"
       y2="82.860001"
       gradientUnits="userSpaceOnUse">
      <stop
         offset="0"
         stop-color="#b3b3b3"
         id="stop9" />
      <stop
         offset="1"
         id="stop11" />
    </linearGradient>
    <linearGradient
       id="linear-gradient-3"
       x1="43.200001"
       y1="49.509998"
       x2="43.200001"
       y2="80.769997"
       gradientUnits="userSpaceOnUse">
      <stop
         offset="0"
         stop-color="#e6e6e6"
         id="stop14" />
      <stop
         offset="1"
         stop-color="#999"
         id="stop16" />
    </linearGradient>
  </defs>
  <g
     id="Background"
     transform="matrix(2,0,0,1.3333406,0,-4.1893518e-5)"
     style="stroke-width:0.81649655">
    <g
       data-name="background"
       id="background-2"
       style="stroke-width:0.81649655">
      <path
         style="fill:#353535;stroke-width:0.81649655"
         inkscape:connector-curvature="0"
         d="M 0,0 H 86.4 V 364.25 H 0 Z"
         class="cls-1"
         id="rect4155" />
    </g>
  </g>
  <path
     class="cls-2"
     d="m 29.146666,474.32254 a 0.59999999,0.60000327 0 0 1 -0.333333,-0.0933 0.67999998,0.68000371 0 0 1 -0.266667,-0.93334 l 8.36,-15.09341 a 0.67999998,0.68000371 0 0 1 0.773333,-0.33334 0.67999998,0.68000371 0 0 1 0.52,0.66667 v 12.44007 l 7.066667,-12.7734 a 0.69333332,0.69333711 0 0 1 1.333333,0.33333 v 12.44007 l 7.08,-12.7734 a 0.67999998,0.68000371 0 0 1 0.773333,-0.33334 0.69333332,0.69333711 0 0 1 0.506667,0.66667 v 15.09342 a 0.69333332,0.69333711 0 1 1 -1.333334,0 v -12.44007 l -7.079999,12.7734 a 0.66666665,0.6666703 0 0 1 -0.76,0.33334 0.67999998,0.68000371 0 0 1 -0.52,-0.66667 v -12.44007 l -7.08,12.7734 a 0.68718425,0.68718802 0 0 1 -1.333334,-0.33333 v -12.44007 l -7.079999,12.7734 a 0.70666665,0.70667052 0 0 1 -0.626667,0.36 z"
     id="path24"
     inkscape:connector-curvature="0"
     style="fill:url(#linear-gradient);stroke-width:1.33333695" />
  <path
     class="cls-3"
     d="m 58.239999,458.53579 a 0.66666665,0.6666703 0 0 1 0.68,-0.66667 h 0.133333 a 0.67999998,0.68000371 0 0 1 0.613333,0.34667 l 2.293333,3.57335 2.293334,-3.58668 a 0.66666665,0.6666703 0 0 1 0.613333,-0.33334 h 0.133333 a 0.66666665,0.6666703 0 0 1 0.666667,0.66667 v 6.29337 a 0.66666665,0.6666703 0 0 1 -1.333333,0 v -4.52003 l -1.853334,2.77335 a 0.61333332,0.61333668 0 0 1 -1.106666,0 l -1.84,-2.74668 v 4.50669 a 0.63999998,0.64000349 0 0 1 -0.653333,0.64 0.63999998,0.64000349 0 0 1 -0.653334,-0.64 z"
     id="path26"
     inkscape:connector-curvature="0"
     style="fill:#808080;stroke-width:1.33333695" />
  <path
     class="cls-4"
     d="m 64.999998,457.86912 h -0.133333 a 0.66666665,0.6666703 0 0 0 -0.613333,0.33334 l -2.293334,3.58668 -2.293333,-3.57335 a 0.67999998,0.68000371 0 0 0 -0.613333,-0.34667 h -0.133333 a 0.66666665,0.6666703 0 0 0 -0.68,0.66667 v 6.3067 a 0.63999998,0.64000349 0 0 0 0.653333,0.64 0.63999998,0.64000349 0 0 0 0.653333,-0.64 v -4.50669 l 1.786667,2.74668 a 0.61333332,0.61333668 0 0 0 1.106666,0 l 1.853334,-2.77335 v 4.52003 a 0.66666665,0.6666703 0 0 0 1.333333,0 v -6.29337 a 0.66666665,0.6666703 0 0 0 -0.666667,-0.66667 z"
     id="path28"
     inkscape:connector-curvature="0"
     style="fill:#b3b3b3;stroke-width:1.33333695" />
  <path
     class="cls-3"
     d="m 67.146665,458.50912 a 0.66666665,0.6666703 0 0 1 1.333333,0 v 6.32004 a 0.63999998,0.64000349 0 0 1 -0.653333,0.65333 0.65333332,0.65333689 0 0 1 -0.68,-0.65333 z"
     id="path30"
     inkscape:connector-curvature="0"
     style="fill:#808080;stroke-width:1.33333695" />
  <path
     class="cls-4"
     d="m 67.826665,457.85579 a 0.66666665,0.6666703 0 0 0 -0.68,0.65333 v 6.32004 a 0.65333332,0.65333689 0 0 0 0.68,0.65333 0.63999998,0.64000349 0 0 0 0.653333,-0.65333 v -6.32004 a 0.65333332,0.65333689 0 0 0 -0.653333,-0.65333 z"
     id="path32"
     inkscape:connector-curvature="0"
     style="fill:#b3b3b3;stroke-width:1.33333695" />
  <path
     class="cls-3"
     d="m 69.959998,458.53579 a 0.66666665,0.6666703 0 0 1 0.666667,-0.66667 h 0.146667 a 0.81333331,0.81333777 0 0 1 0.68,0.38667 l 3.786666,4.86669 v -4.62669 a 0.66666665,0.6666703 0 0 1 1.333333,0 v 6.32003 a 0.65333332,0.65333689 0 0 1 -0.653333,0.66667 v 0 a 0.87999998,0.8800048 0 0 1 -0.693333,-0.4 l -3.88,-5.01336 v 4.77336 a 0.66666665,0.6666703 0 0 1 -1.333333,0 z"
     id="path34"
     inkscape:connector-curvature="0"
     style="fill:#808080;stroke-width:1.33333695" />
  <path
     class="cls-4"
     d="m 75.879998,457.85579 a 0.65333332,0.65333689 0 0 0 -0.64,0.64 v 4.62669 l -3.786666,-4.86669 a 0.81333331,0.81333777 0 0 0 -0.68,-0.38667 h -0.106667 a 0.66666665,0.6666703 0 0 0 -0.666667,0.66667 v 6.3067 a 0.666667,0.66667065 0 0 0 1.333334,0 v -4.77336 l 3.879999,5.01336 a 0.87999998,0.8800048 0 0 0 0.693334,0.4 v 0 a 0.65333332,0.65333689 0 0 0 0.653333,-0.66667 v -6.32003 a 0.65333332,0.65333689 0 0 0 -0.666667,-0.64 z"
     id="path36"
     inkscape:connector-curvature="0"
     style="fill:#b3b3b3;stroke-width:1.33333695" />
  <path
     class="cls-3"
     d="m 77.946665,458.57579 a 0.66666665,0.6666703 0 0 1 0.666666,-0.66667 h 2.146667 a 3.7599999,3.7600205 0 0 1 4,3.73335 v 0 a 3.7733332,3.7733539 0 0 1 -4,3.76002 h -2.093333 a 0.65333332,0.65333689 0 0 1 -0.666667,-0.66667 z m 2.813333,5.65336 a 2.4666666,2.4666801 0 0 0 2.666667,-2.53334 v 0 a 2.4799999,2.4800135 0 0 0 -2.666667,-2.56002 h -1.48 v 5.12003 z"
     id="path38"
     inkscape:connector-curvature="0"
     style="fill:#808080;stroke-width:1.33333695" />
  <path
     class="cls-4"
     d="m 80.759998,457.90912 h -2.093333 a 0.66666665,0.6666703 0 0 0 -0.666667,0.66667 v 6.1867 a 0.65333332,0.65333689 0 0 0 0.666667,0.66667 h 2.146666 a 3.7733332,3.7733539 0 0 0 4,-3.76002 v 0 a 3.7599999,3.7600205 0 0 0 -4,-3.73335 z m -1.48,6.32003 v -5.12002 h 1.48 a 2.4799999,2.4800135 0 0 1 2.666667,2.56001 v 0 a 2.4666666,2.4666801 0 0 1 -2.666667,2.53335 z"
     id="path40"
     inkscape:connector-curvature="0"
     style="fill:#b3b3b3;stroke-width:1.33333695" />
  <path
     class="cls-3"
     d="m 58.239999,467.34917 a 0.66666665,0.6666703 0 0 1 0.68,-0.66667 h 0.133333 a 0.67999998,0.68000371 0 0 1 0.613333,0.34667 l 2.293333,3.64002 2.293334,-3.57335 a 0.67999998,0.68000371 0 0 1 0.613333,-0.34667 h 0.133333 a 0.66666665,0.6666703 0 0 1 0.666667,0.66667 v 6.29337 a 0.66666665,0.6666703 0 1 1 -1.333333,0 v -4.50669 l -1.853334,2.76001 a 0.61333332,0.61333668 0 0 1 -1.106666,0 l -1.84,-2.74668 v 4.50669 a 0.63999998,0.64000349 0 0 1 -0.653333,0.65334 0.63999998,0.64000349 0 0 1 -0.653334,-0.65334 z"
     id="path42"
     inkscape:connector-curvature="0"
     style="fill:#808080;stroke-width:1.33333695" />
  <path
     class="cls-4"
     d="m 64.999998,466.66917 h -0.133333 a 0.67999998,0.68000371 0 0 0 -0.613333,0.34667 l -2.293334,3.65335 -2.293333,-3.57335 a 0.67999998,0.68000371 0 0 0 -0.613333,-0.34667 h -0.133333 a 0.66666665,0.6666703 0 0 0 -0.68,0.66667 v 6.3067 a 0.63999998,0.64000349 0 0 0 0.653333,0.65334 0.63999998,0.64000349 0 0 0 0.653333,-0.65334 v -4.50669 l 1.786667,2.68001 a 0.61333332,0.61333668 0 0 0 1.106666,0 l 1.853334,-2.76001 v 4.50669 a 0.66666665,0.6666703 0 1 0 1.333333,0 v -6.29337 a 0.66666665,0.6666703 0 0 0 -0.666667,-0.66667 z"
     id="path44"
     inkscape:connector-curvature="0"
     style="fill:#b3b3b3;stroke-width:1.33333695" />
  <path
     class="cls-3"
     d="m 67.079998,473.58921 v -6.20004 a 0.66666665,0.6666703 0 0 1 0.666667,-0.66667 h 4.386667 a 0.59999999,0.60000327 0 1 1 0,1.18667 h -3.733334 v 1.94668 h 3.253334 a 0.59999999,0.60000327 0 0 1 0.586666,0.61334 0.58666665,0.58666986 0 0 1 -0.586666,0.57334 h -3.253334 v 2.02667 h 3.786667 a 0.59999999,0.60000327 0 1 1 0,1.18668 h -4.44 a 0.66666665,0.6666703 0 0 1 -0.666667,-0.66667 z"
     id="path46"
     inkscape:connector-curvature="0"
     style="fill:#808080;stroke-width:1.33333695" />
  <path
     class="cls-4"
     d="m 72.133332,466.66917 h -4.386667 a 0.66666665,0.6666703 0 0 0 -0.666667,0.66667 v 6.20003 a 0.66666665,0.6666703 0 0 0 0.666667,0.66667 h 4.44 a 0.59999999,0.60000327 0 1 0 0,-1.18667 h -3.786667 v -2.02668 h 3.253334 a 0.58666665,0.58666986 0 0 0 0.586666,-0.57333 0.59999999,0.60000327 0 0 0 -0.586666,-0.61334 h -3.253334 v -1.94668 h 3.733334 a 0.59999999,0.60000327 0 1 0 0,-1.18667 z"
     id="path48"
     inkscape:connector-curvature="0"
     style="fill:#b3b3b3;stroke-width:1.33333695" />
  <path
     class="cls-3"
     d="m 73.773331,467.32251 a 0.666667,0.66667065 0 0 1 1.333334,0 v 5.72003 h 3.426666 a 0.59999999,0.60000327 0 0 1 0.6,0.6 0.61333332,0.61333668 0 0 1 -0.6,0.61334 h -4.093333 a 0.66666665,0.6666703 0 0 1 -0.666667,-0.66667 z"
     id="path50"
     inkscape:connector-curvature="0"
     style="fill:#808080;stroke-width:1.33333695" />
  <path
     class="cls-4"
     d="m 74.439998,466.66917 a 0.65333332,0.65333689 0 0 0 -0.666667,0.65334 v 6.2667 a 0.66666665,0.6666703 0 0 0 0.666667,0.66667 h 4.08 a 0.61333332,0.61333668 0 0 0 0.6,-0.61334 0.59999999,0.60000327 0 0 0 -0.6,-0.6 h -3.426667 v -5.72003 a 0.65333332,0.65333689 0 0 0 -0.653333,-0.65334 z"
     id="path52"
     inkscape:connector-curvature="0"
     style="fill:#b3b3b3;stroke-width:1.33333695" />
  <path
     class="cls-3"
     d="m 79.906665,467.38917 a 0.66666665,0.6666703 0 0 1 0.68,-0.66667 h 2.146666 a 3.7599999,3.7600205 0 0 1 4,3.74669 v 0 a 3.7866666,3.7866873 0 0 1 -4,3.77335 h -2.146666 a 0.66666665,0.6666703 0 0 1 -0.68,-0.66667 z m 2.826666,5.65337 a 2.4533333,2.4533467 0 0 0 2.666667,-2.53335 v 0 a 2.4666666,2.4666801 0 0 0 -2.666667,-2.56001 h -1.493333 v 5.12002 z"
     id="path54"
     inkscape:connector-curvature="0"
     style="fill:#808080;stroke-width:1.33333695" />
  <path
     class="cls-4"
     d="m 82.733331,466.66917 h -2.146666 a 0.66666665,0.6666703 0 0 0 -0.68,0.66667 v 6.20003 a 0.66666665,0.6666703 0 0 0 0.68,0.66667 h 2.146666 a 3.7866666,3.7866873 0 0 0 4,-3.77335 v 0 a 3.7599999,3.7600205 0 0 0 -4,-3.74669 z m -1.493333,6.32003 v -5.12003 h 1.493333 a 2.4666666,2.4666801 0 0 1 2.666667,2.56002 v 0 a 2.4533333,2.4533467 0 0 1 -2.666667,2.53335 z"
     id="path56"
     inkscape:connector-curvature="0"
     style="fill:#b3b3b3;stroke-width:1.33333695" />
  <path
     class="cls-4"
     d="m 14.333333,21.240074 a 2.9866666,2.9866829 0 0 1 -1,2.293346 A 3.4133332,3.4133519 0 0 1 10.96,24.426758 H 6.4266665 V 13.453365 h 4.2399995 a 3.2799999,3.2800179 0 0 1 2.306667,0.866671 2.8666666,2.8666823 0 0 1 0.96,2.213346 2.6666666,2.6666812 0 0 1 -1.013333,2.200012 2.7466666,2.7466816 0 0 1 1.413333,2.50668 z M 8.5466665,15.466709 v 2.413347 h 2.1199995 a 1.2133333,1.2133399 0 0 0 0,-2.413347 z m 2.4399995,6.933371 a 1.3333333,1.3333406 0 0 0 0,-2.586681 H 8.5466665 v 2.586681 z"
     id="path58"
     inkscape:connector-curvature="0"
     style="fill:#b3b3b3;stroke-width:1.33333695" />
  <path
     class="cls-4"
     d="m 22.919999,24.426758 -0.64,-1.973344 H 18 l -0.666667,1.973344 h -2.266667 l 3.76,-10.973393 h 2.666667 l 3.773333,10.973393 z m -4.253333,-4.000022 h 2.96 l -1.48,-4.426691 z"
     id="path60"
     inkscape:connector-curvature="0"
     style="fill:#b3b3b3;stroke-width:1.33333695" />
  <path
     class="cls-4"
     d="m 25.773333,21.933411 1.813333,-1.080006 a 2.4133333,2.4133465 0 0 0 2.48,1.666676 c 1.173333,0 1.72,-0.480003 1.72,-1.160006 a 1.0133333,1.0133389 0 0 0 -0.506667,-0.893339 7.5599998,7.5600412 0 0 0 -1.813333,-0.693337 6.7599998,6.7600368 0 0 1 -2.226667,-1.026672 2.6666666,2.6666812 0 0 1 -1.013333,-2.253346 2.9466666,2.9466827 0 0 1 1.026667,-2.373346 3.7066666,3.7066869 0 0 1 2.506666,-0.893338 4.1066666,4.106689 0 0 1 3.84,2.46668 l -1.786666,1.053339 a 2.1333333,2.133345 0 0 0 -2.053334,-1.413341 c -0.88,0 -1.413333,0.453336 -1.413333,1.093339 a 0.99999998,1.0000054 0 0 0 0.413333,0.840005 6.1999998,6.2000338 0 0 0 1.626667,0.693337 l 0.733333,0.253335 0.693334,0.266668 a 3.2266666,3.2266843 0 0 1 0.68,0.333335 2.7466666,2.7466816 0 0 1 1.413333,2.520014 2.9733333,2.9733495 0 0 1 -1.093333,2.413346 4.2666666,4.2666899 0 0 1 -2.813334,0.893338 4.1599999,4.1600227 0 0 1 -4.226666,-2.706681 z"
     id="path62"
     inkscape:connector-curvature="0"
     style="fill:#b3b3b3;stroke-width:1.33333695" />
  <path
     class="cls-4"
     d="m 34.666666,21.933411 1.813333,-1.080006 a 2.4133333,2.4133465 0 0 0 2.48,1.666676 c 1.173333,0 1.72,-0.480003 1.72,-1.160006 a 1.0133333,1.0133389 0 0 0 -0.506667,-0.893339 7.5599998,7.5600412 0 0 0 -1.813333,-0.693337 6.7599998,6.7600368 0 0 1 -2.226667,-1.026672 2.6666666,2.6666812 0 0 1 -1.013333,-2.253346 2.9466666,2.9466827 0 0 1 1.026667,-2.373346 3.7066666,3.7066869 0 0 1 2.52,-0.893338 4.1066666,4.106689 0 0 1 3.84,2.46668 l -1.786667,1.053339 a 2.1333333,2.133345 0 0 0 -2.053333,-1.413341 c -0.88,0 -1.413334,0.453336 -1.413334,1.093339 a 0.99999998,1.0000054 0 0 0 0.413334,0.840005 6.1999998,6.2000338 0 0 0 1.626666,0.693337 l 0.733334,0.253335 c 0.173333,0 0.4,0.146667 0.693333,0.266668 a 3.2266666,3.2266843 0 0 1 0.68,0.333335 2.7466666,2.7466816 0 0 1 1.44,2.520014 2.9733333,2.9733495 0 0 1 -1.093333,2.413346 4.2666666,4.2666899 0 0 1 -2.813334,0.893338 4.1599999,4.1600227 0 0 1 -4.266666,-2.706681 z"
     id="path64"
     inkscape:connector-curvature="0"
     style="fill:#b3b3b3;stroke-width:1.33333695" />
  <path
     class="cls-3"
     d="m 54.959999,13.453365 v 10.973393 h -2.106667 v -7.093372 l -3.026667,5.066694 h -0.24 l -3.026666,-5.066694 v 7.106705 h -2.12 V 13.453365 h 2.226666 l 3.04,5.213362 3.08,-5.186695 z"
     id="path66"
     inkscape:connector-curvature="0"
     style="fill:#808080;stroke-width:1.33333695" />
  <path
     class="cls-3"
     d="m 64.173332,24.426758 -0.653334,-1.973344 h -4.279999 l -0.573334,1.973344 h -2.36 l 3.76,-10.973393 h 2.666667 l 3.773333,10.973393 z m -4.253333,-4.000022 h 2.946666 l -1.533333,-4.426691 z"
     id="path68"
     inkscape:connector-curvature="0"
     style="fill:#808080;stroke-width:1.33333695" />
  <path
     class="cls-3"
     d="m 67.013332,21.933411 1.813333,-1.080006 a 2.4266666,2.4266799 0 0 0 2.48,1.666676 c 1.173333,0 1.72,-0.480003 1.72,-1.160006 a 1.0133333,1.0133389 0 0 0 -0.506667,-0.893339 7.5599998,7.5600412 0 0 0 -1.853333,-0.693337 6.7599998,6.7600368 0 0 1 -2.226667,-1.026672 2.6666666,2.6666812 0 0 1 -1.013333,-2.253346 2.9466666,2.9466827 0 0 1 1.026667,-2.373346 3.7066666,3.7066869 0 0 1 2.506666,-0.893338 4.1066666,4.106689 0 0 1 3.84,2.46668 l -1.786666,1.053339 a 2.1333333,2.133345 0 0 0 -2.053334,-1.413341 c -0.88,0 -1.413333,0.453336 -1.413333,1.093339 a 0.99999998,1.0000054 0 0 0 0.413333,0.840005 6.1999998,6.2000338 0 0 0 1.626667,0.693337 l 0.733333,0.253335 0.693334,0.266668 a 3.2266666,3.2266843 0 0 1 0.679999,0.333335 2.7466666,2.7466816 0 0 1 1.453334,2.520014 2.9733333,2.9733495 0 0 1 -1.093334,2.413346 4.2399999,4.2400231 0 0 1 -2.813333,0.893338 4.1599999,4.1600227 0 0 1 -4.226666,-2.706681 z"
     id="path70"
     inkscape:connector-curvature="0"
     style="fill:#808080;stroke-width:1.33333695" />
  <path
     class="cls-3"
     d="m 83.559998,13.453365 v 2.066678 h -2.906667 v 8.906715 h -2.12 v -8.906715 h -2.893333 v -2.066678 z"
     id="path72"
     inkscape:connector-curvature="0"
     style="fill:#808080;stroke-width:1.33333695" />
  <path
     class="cls-3"
     d="m 87.159998,22.36008 h 4.533333 v 2.066678 H 85.026665 V 13.453365 h 6.573333 v 2.066678 h -4.44 v 2.333346 h 4 V 19.8934 h -4 z"
     id="path74"
     inkscape:connector-curvature="0"
     style="fill:#808080;stroke-width:1.33333695" />
  <path
     class="cls-3"
     d="m 99.373331,24.426758 -2.16,-3.813354 h -1.613333 v 3.813354 h -2.12 V 13.453365 h 4.306666 a 3.4399999,3.4400187 0 0 1 2.533336,1.066672 3.5733332,3.5733528 0 0 1 -1.040002,5.760032 l 2.386662,4.146689 z m -3.773333,-8.960049 v 3.200018 h 2.186666 a 1.5733333,1.5733419 0 0 0 1.453334,-1.640009 1.5466666,1.5466751 0 0 0 -1.453334,-1.613343 z"
     id="path76"
     inkscape:connector-curvature="0"
     style="fill:#808080;stroke-width:1.33333695" />
  <g
     data-name="Section BGs"
     id="Section_BGs"
     transform="matrix(1.3333333,0,0,1.3333406,0,-4.1893518e-5)">
    <rect
       ry="2.72"
       style="fill:#424242"
       id="rect83"
       rx="2.72"
       height="73.870003"
       width="77.900002"
       y="187.45"
       x="4.25"
       class="cls-5" />
    <rect
       ry="2.72"
       style="fill:#424242"
       id="rect85"
       rx="2.72"
       height="73.870003"
       width="77.900002"
       y="108.89"
       x="4.25"
       class="cls-5" />
    <rect
       ry="2.8099999"
       style="fill:#424242"
       id="rect87"
       rx="2.8099999"
       height="78.730003"
       width="77.900002"
       y="25.51"
       x="4.25"
       class="cls-5" />
    <rect
       ry="1.41"
       style="fill:#121212"
       id="rect89"
       rx="1.41"
       height="69.169998"
       width="30.610001"
       y="267.01999"
       x="51.27"
       class="cls-6" />
    <rect
       ry="1.41"
       style="fill:#424242"
       id="rect91"
       rx="1.41"
       height="69.169998"
       width="30.610001"
       y="267.01999"
       x="4.25"
       class="cls-5" />
  </g>
  <g
     id="labels"
     transform="matrix(1.3333333,0,0,1.3333406,0,-4.1893518e-5)">
    <path
       style="fill:#ffffff"
       inkscape:connector-curvature="0"
       id="path94"
       d="m 16.27,270.77 h 1 v 4.9 h -1 z"
       class="cls-7" />
    <path
       style="fill:#ffffff"
       inkscape:connector-curvature="0"
       id="path96"
       d="m 21.16,270.77 h 1 v 4.9 h -0.74 l -2.1,-3 v 3 h -1 v -4.9 h 0.73 l 2.1,3 z"
       class="cls-7" />
    <path
       style="fill:#ffffff"
       inkscape:connector-curvature="0"
       id="path98"
       d="m 42.71,293.7 h 2 v 1 h -3.05 v -5.31 h 1.05 z"
       class="cls-7" />
    <path
       style="fill:#ffffff"
       inkscape:connector-curvature="0"
       id="path100"
       d="M 44.09,321.65 43,319.8 h -0.8 v 1.85 h -1 v -5.32 h 2.1 a 1.76,1.76 0 0 1 1.77,1.76 1.73,1.73 0 0 1 -1,1.55 l 1.17,2 z m -1.87,-4.34 v 1.57 h 1.08 a 0.76,0.76 0 0 0 0.72,-0.79 0.75,0.75 0 0 0 -0.72,-0.78 z"
       class="cls-7" />
    <path
       style="fill:#ffffff"
       inkscape:connector-curvature="0"
       id="path102"
       d="m 61.65,275.91 a 2.36,2.36 0 0 1 -1.75,-0.74 2.55,2.55 0 0 1 -0.71,-1.81 2.51,2.51 0 0 1 0.71,-1.81 2.43,2.43 0 0 1 3.49,0 2.48,2.48 0 0 1 0.72,1.81 2.51,2.51 0 0 1 -0.72,1.81 2.35,2.35 0 0 1 -1.74,0.74 z m 0,-1 a 1.41,1.41 0 0 0 1.08,-0.45 1.58,1.58 0 0 0 0.44,-1.15 1.61,1.61 0 0 0 -0.44,-1.16 1.53,1.53 0 0 0 -2.17,0 1.61,1.61 0 0 0 -0.44,1.16 1.58,1.58 0 0 0 0.44,1.15 1.41,1.41 0 0 0 1.09,0.54 z"
       class="cls-7" />
    <path
       style="fill:#ffffff"
       inkscape:connector-curvature="0"
       id="path104"
       d="m 65.73,275.44 a 1.57,1.57 0 0 1 -0.51,-1.23 v -3.3 h 0.93 v 3.22 a 0.88,0.88 0 0 0 1.76,0 v -3.22 h 0.93 v 3.3 a 1.57,1.57 0 0 1 -0.51,1.23 2,2 0 0 1 -2.6,0 z"
       class="cls-7" />
    <path
       style="fill:#ffffff"
       inkscape:connector-curvature="0"
       id="path106"
       d="m 73.34,270.91 v 0.92 h -1.27 v 4 h -0.94 v -4 h -1.27 v -0.92 z"
       class="cls-7" />
    <path
       style="fill:#ffffff"
       inkscape:connector-curvature="0"
       id="path108"
       d="m 36.25,198.19 h 2 V 199 h -2.8 v -4.9 h 0.8 z"
       class="cls-7" />
    <path
       style="fill:#ffffff"
       inkscape:connector-curvature="0"
       id="path110"
       d="m 41.18,199.05 a 2.51,2.51 0 0 1 -2.55,-2.54 2.55,2.55 0 1 1 5.09,0 2.51,2.51 0 0 1 -2.54,2.54 z m 0,-0.78 a 1.67,1.67 0 0 0 1.23,-0.5 1.74,1.74 0 0 0 0.5,-1.26 1.69,1.69 0 0 0 -0.5,-1.25 1.64,1.64 0 0 0 -1.23,-0.51 1.67,1.67 0 0 0 -1.24,0.51 1.69,1.69 0 0 0 -0.5,1.25 1.74,1.74 0 0 0 0.5,1.26 1.7,1.7 0 0 0 1.24,0.5 z"
       class="cls-7" />
    <path
       style="fill:#ffffff"
       inkscape:connector-curvature="0"
       id="path112"
       d="m 45.63,199 -1.39,-4.9 h 0.85 l 1,3.83 1.11,-3.83 H 48 l 1.11,3.83 1,-3.83 H 51 l -1.43,4.9 h -0.93 l -1,-3.58 -1,3.58 z"
       class="cls-7" />
    <path
       style="fill:#ffffff"
       inkscape:connector-curvature="0"
       id="path114"
       d="m 21.42,36 a 2.51,2.51 0 0 1 -0.73,-1.82 2.51,2.51 0 0 1 2.56,-2.54 2.42,2.42 0 0 1 2.11,1.17 l -0.7,0.41 A 1.56,1.56 0 0 0 23.25,32.42 1.72,1.72 0 0 0 22,33 a 1.89,1.89 0 0 0 0,2.52 1.72,1.72 0 0 0 1.27,0.5 1.56,1.56 0 0 0 1.41,-0.79 l 0.7,0.4 A 2.25,2.25 0 0 1 24.51,36.49 2.62,2.62 0 0 1 21.42,36 Z"
       class="cls-7" />
    <path
       style="fill:#ffffff"
       inkscape:connector-curvature="0"
       id="path116"
       d="m 29.38,36.67 -1,-1.78 h -0.95 v 1.78 h -0.8 v -4.9 h 2 a 1.57,1.57 0 0 1 1.57,1.58 1.54,1.54 0 0 1 -1,1.42 l 1.11,1.9 z m -2,-4.14 v 1.64 h 1.16 a 0.82,0.82 0 0 0 0,-1.64 z"
       class="cls-7" />
    <path
       style="fill:#ffffff"
       inkscape:connector-curvature="0"
       id="path118"
       d="m 33.7,36.77 a 2.51,2.51 0 0 1 -2.54,-2.55 2.46,2.46 0 0 1 0.73,-1.8 2.49,2.49 0 0 1 1.81,-0.74 2.55,2.55 0 1 1 0,5.09 z m 0,-0.79 a 1.77,1.77 0 0 0 1.23,-3 1.64,1.64 0 0 0 -1.23,-0.51 1.68,1.68 0 0 0 -1.24,0.51 1.76,1.76 0 0 0 1.24,3 z"
       class="cls-7" />
    <path
       style="fill:#ffffff"
       inkscape:connector-curvature="0"
       id="path120"
       d="m 37.09,35.56 0.7,-0.41 A 1.16,1.16 0 0 0 39,36 c 0.61,0 0.92,-0.26 0.92,-0.64 a 0.52,0.52 0 0 0 -0.25,-0.46 4.32,4.32 0 0 0 -0.87,-0.35 3.27,3.27 0 0 1 -1,-0.45 1.12,1.12 0 0 1 -0.47,-1 1.24,1.24 0 0 1 0.46,-1 1.67,1.67 0 0 1 1.11,-0.39 1.81,1.81 0 0 1 1.71,1.08 l -0.68,0.39 a 1.07,1.07 0 0 0 -1,-0.69 c -0.47,0 -0.77,0.24 -0.77,0.61 0,0.37 0.24,0.54 1,0.77 a 3.3,3.3 0 0 1 0.4,0.14 2.61,2.61 0 0 1 0.37,0.14 1.46,1.46 0 0 1 0.36,0.19 1.17,1.17 0 0 1 0.5,1 1.3,1.3 0 0 1 -0.48,1.06 1.94,1.94 0 0 1 -1.26,0.39 1.86,1.86 0 0 1 -1.96,-1.23 z"
       class="cls-7" />
    <path
       style="fill:#ffffff"
       inkscape:connector-curvature="0"
       id="path122"
       d="m 41.56,35.56 0.69,-0.41 a 1.17,1.17 0 0 0 1.22,0.83 c 0.61,0 0.91,-0.26 0.91,-0.64 a 0.51,0.51 0 0 0 -0.24,-0.46 4.32,4.32 0 0 0 -0.87,-0.35 3.27,3.27 0 0 1 -1,-0.45 1.1,1.1 0 0 1 -0.48,-1 1.27,1.27 0 0 1 0.46,-1 1.68,1.68 0 0 1 1.12,-0.39 1.83,1.83 0 0 1 1.71,1.08 l -0.68,0.39 a 1.08,1.08 0 0 0 -1,-0.69 c -0.47,0 -0.77,0.24 -0.77,0.61 0,0.37 0.24,0.54 1,0.77 A 3.63,3.63 0 0 1 44,34 l 0.37,0.14 a 1.3,1.3 0 0 1 0.86,1.2 1.28,1.28 0 0 1 -0.49,1.06 1.89,1.89 0 0 1 -1.25,0.39 1.86,1.86 0 0 1 -1.93,-1.23 z"
       class="cls-7" />
    <path
       style="fill:#ffffff"
       inkscape:connector-curvature="0"
       id="path124"
       d="m 48.7,36.77 a 2.51,2.51 0 0 1 -2.54,-2.55 2.46,2.46 0 0 1 0.73,-1.8 2.49,2.49 0 0 1 1.81,-0.74 2.55,2.55 0 1 1 0,5.09 z m 0,-0.79 a 1.77,1.77 0 0 0 1.23,-3 1.64,1.64 0 0 0 -1.23,-0.51 1.68,1.68 0 0 0 -1.24,0.51 1.76,1.76 0 0 0 1.24,3 z"
       class="cls-7" />
    <path
       style="fill:#ffffff"
       inkscape:connector-curvature="0"
       id="path126"
       d="m 53.57,36.67 -1.7,-4.9 h 0.88 l 1.3,3.93 1.31,-3.93 h 0.88 l -1.7,4.9 z"
       class="cls-7" />
    <path
       style="fill:#ffffff"
       inkscape:connector-curvature="0"
       id="path128"
       d="m 58.13,35.9 h 2.17 v 0.77 h -3 v -4.9 h 2.94 v 0.77 h -2.11 v 1.28 h 2 v 0.76 h -2 z"
       class="cls-7" />
    <path
       style="fill:#ffffff"
       inkscape:connector-curvature="0"
       id="path130"
       d="m 64.39,36.67 -1,-1.78 h -1 v 1.78 h -0.81 v -4.9 h 2 a 1.57,1.57 0 0 1 1.58,1.58 1.54,1.54 0 0 1 -1,1.42 l 1.11,1.9 z m -2,-4.14 v 1.64 h 1.15 a 0.82,0.82 0 0 0 0,-1.64 z"
       class="cls-7" />
    <path
       style="fill:#ffffff"
       inkscape:connector-curvature="0"
       id="path132"
       d="m 37.56,115.5 h 0.81 v 4.9 h -0.81 v -2.12 h -2.1 v 2.12 h -0.8 v -4.9 h 0.8 v 2 h 2.1 z"
       class="cls-7" />
    <path
       style="fill:#ffffff"
       inkscape:connector-curvature="0"
       id="path134"
       d="m 39.7,115.5 h 0.8 v 4.9 h -0.8 z"
       class="cls-7" />
    <path
       style="fill:#ffffff"
       inkscape:connector-curvature="0"
       id="path136"
       d="m 46.6,117.87 v 0.33 a 2.21,2.21 0 0 1 -0.66,1.66 2.43,2.43 0 0 1 -1.74,0.63 2.56,2.56 0 0 1 -1.88,-0.73 2.6,2.6 0 0 1 0,-3.61 2.53,2.53 0 0 1 1.84,-0.74 2.45,2.45 0 0 1 2.13,1.16 l -0.69,0.4 a 1.62,1.62 0 0 0 -1.44,-0.78 1.7,1.7 0 0 0 -1.27,0.51 1.74,1.74 0 0 0 -0.5,1.26 1.7,1.7 0 0 0 0.5,1.25 1.82,1.82 0 0 0 1.32,0.5 1.46,1.46 0 0 0 1.58,-1.12 h -1.64 v -0.72 z"
       class="cls-7" />
    <path
       style="fill:#ffffff"
       inkscape:connector-curvature="0"
       id="path138"
       d="m 50.59,115.5 h 0.81 v 4.9 h -0.81 v -2.12 h -2.1 v 2.12 h -0.81 v -4.9 h 0.81 v 2 h 2.1 z"
       class="cls-7" />
    <path
       style="fill:#cccccc"
       inkscape:connector-curvature="0"
       id="path140"
       d="m 11.33,82.9 a 1.39,1.39 0 0 1 0.92,0.32 1.12,1.12 0 0 1 0.38,0.89 1.08,1.08 0 0 1 -0.39,0.88 1.37,1.37 0 0 1 -0.93,0.33 A 1.27,1.27 0 0 1 10,84.49 l 0.43,-0.25 a 0.79,0.79 0 0 0 0.84,0.58 0.72,0.72 0 1 0 0,-1.43 h -1.04 l 0.14,-2 h 2.11 v 0.48 h -1.65 l -0.06,1 z"
       class="cls-8" />
    <path
       style="fill:#cccccc"
       inkscape:connector-curvature="0"
       id="path142"
       d="m 14.6,85.32 a 1.28,1.28 0 0 1 -1.09,-0.55 2.89,2.89 0 0 1 0,-2.9 1.38,1.38 0 0 1 2.19,0 2.89,2.89 0 0 1 0,2.9 1.29,1.29 0 0 1 -1.1,0.55 z m 0,-0.5 c 0.62,0 1,-0.55 1,-1.5 0,-0.95 -0.36,-1.5 -1,-1.5 -0.64,0 -1,0.54 -1,1.5 0,0.96 0.4,1.5 1,1.5 z"
       class="cls-8" />
    <path
       style="fill:#cccccc"
       inkscape:connector-curvature="0"
       id="path144"
       d="m 19.26,81.4 h 0.51 v 3.84 H 19.26 V 83.51 H 17.4 v 1.73 H 16.89 V 81.4 H 17.4 V 83 h 1.86 z"
       class="cls-8" />
    <path
       style="fill:#cccccc"
       inkscape:connector-curvature="0"
       id="path146"
       d="m 21.24,84.79 h 1.46 v 0.45 H 20.59 V 84.93 L 22,83 h -1.36 v -0.5 h 2 v 0.32 z"
       class="cls-8" />
    <path
       style="fill:#cccccc"
       inkscape:connector-curvature="0"
       id="path148"
       d="m 63.17,82.9 a 1.35,1.35 0 0 1 0.91,0.32 1.09,1.09 0 0 1 0.38,0.89 1.07,1.07 0 0 1 -0.38,0.88 1.39,1.39 0 0 1 -0.93,0.33 1.27,1.27 0 0 1 -1.27,-0.83 l 0.43,-0.25 a 0.79,0.79 0 0 0 0.84,0.58 0.72,0.72 0 1 0 0,-1.43 h -1.08 l 0.14,-2 h 2.11 v 0.48 h -1.65 l -0.06,1 z"
       class="cls-8" />
    <path
       style="fill:#cccccc"
       inkscape:connector-curvature="0"
       id="path150"
       d="m 66.44,85.32 a 1.27,1.27 0 0 1 -1.09,-0.55 2.89,2.89 0 0 1 0,-2.9 1.37,1.37 0 0 1 2.18,0 2.89,2.89 0 0 1 0,2.9 1.26,1.26 0 0 1 -1.09,0.55 z m 0,-0.5 c 0.62,0 1,-0.55 1,-1.5 0,-0.95 -0.36,-1.5 -1,-1.5 -0.64,0 -1,0.54 -1,1.5 0,0.96 0.38,1.5 1,1.5 z"
       class="cls-8" />
    <path
       style="fill:#cccccc"
       inkscape:connector-curvature="0"
       id="path152"
       d="m 70,85.32 a 1.28,1.28 0 0 1 -1,-0.55 2.89,2.89 0 0 1 0,-2.9 1.38,1.38 0 0 1 2.19,0 2.89,2.89 0 0 1 0,2.9 1.29,1.29 0 0 1 -1.19,0.55 z m 0,-0.5 c 0.62,0 1,-0.55 1,-1.5 0,-0.95 -0.36,-1.5 -1,-1.5 -0.64,0 -1,0.54 -1,1.5 0,0.96 0.42,1.5 1,1.5 z"
       class="cls-8" />
    <path
       style="fill:#cccccc"
       inkscape:connector-curvature="0"
       id="path154"
       d="m 74.7,81.4 h 0.51 v 3.84 H 74.7 v -1.73 h -1.86 v 1.73 H 72.33 V 81.4 h 0.51 V 83 h 1.86 z"
       class="cls-8" />
    <path
       style="fill:#cccccc"
       inkscape:connector-curvature="0"
       id="path156"
       d="m 76.68,84.79 h 1.46 v 0.45 H 76 v -0.31 l 1.4,-2 H 76.08 V 82.5 h 2 v 0.32 z"
       class="cls-8" />
    <path
       style="fill:#cccccc"
       inkscape:connector-curvature="0"
       id="path158"
       d="m 58.19,129.17 v 0.34 a 2.2,2.2 0 0 1 -2.32,2.29 2.43,2.43 0 0 1 -1.81,-0.74 2.65,2.65 0 0 1 0,-3.61 2.39,2.39 0 0 1 1.77,-0.74 2.36,2.36 0 0 1 2.06,1.16 l -0.67,0.4 a 1.55,1.55 0 0 0 -1.39,-0.77 1.58,1.58 0 0 0 -1.22,0.5 1.77,1.77 0 0 0 -0.48,1.26 1.68,1.68 0 0 0 1.75,1.74 1.42,1.42 0 0 0 1.52,-1.12 h -1.58 v -0.72 z"
       class="cls-8" />
    <path
       style="fill:#cccccc"
       inkscape:connector-curvature="0"
       id="path160"
       d="m 61.52,128.2 h 0.73 v 3.51 h -0.73 v -0.51 a 1.34,1.34 0 0 1 -1.18,0.6 1.55,1.55 0 0 1 -1.19,-0.54 1.84,1.84 0 0 1 -0.49,-1.31 1.87,1.87 0 0 1 0.49,-1.31 1.57,1.57 0 0 1 1.19,-0.53 1.36,1.36 0 0 1 1.18,0.59 z m -1.07,2.87 a 1,1 0 0 0 0.77,-0.31 1.23,1.23 0 0 0 0,-1.61 1.07,1.07 0 0 0 -1.53,0 1.23,1.23 0 0 0 0,1.61 1,1 0 0 0 0.76,0.31 z"
       class="cls-8" />
    <path
       style="fill:#cccccc"
       inkscape:connector-curvature="0"
       id="path162"
       d="m 63.13,127.54 a 0.5,0.5 0 0 1 0,-0.68 0.45,0.45 0 0 1 0.67,0 0.49,0.49 0 0 1 0,0.68 0.45,0.45 0 0 1 -0.67,0 z m 0,4.17 v -3.51 h 0.73 v 3.51 z"
       class="cls-8" />
    <path
       style="fill:#cccccc"
       inkscape:connector-curvature="0"
       id="path164"
       d="m 67.75,129.56 v 2.15 H 67 v -2.08 a 0.72,0.72 0 0 0 -0.76,-0.81 c -0.51,0 -0.85,0.33 -0.85,1 v 1.88 h -0.74 v -3.5 h 0.74 v 0.45 a 1.12,1.12 0 0 1 1,-0.54 1.29,1.29 0 0 1 1.36,1.45 z"
       class="cls-8" />
    <path
       style="fill:#cccccc"
       inkscape:connector-curvature="0"
       id="path166"
       d="m 72.3,126.8 h 0.76 v 4.91 H 72.3 v -0.51 a 1.4,1.4 0 0 1 -1.22,0.6 1.65,1.65 0 0 1 -1.24,-0.54 1.81,1.81 0 0 1 -0.51,-1.31 1.84,1.84 0 0 1 0.51,-1.31 1.68,1.68 0 0 1 1.24,-0.53 1.42,1.42 0 0 1 1.22,0.59 z m -1.1,4.28 a 1.09,1.09 0 0 0 0.79,-0.32 1.11,1.11 0 0 0 0.31,-0.81 1.11,1.11 0 1 0 -2.21,0 1.11,1.11 0 0 0 0.31,0.81 1.09,1.09 0 0 0 0.8,0.32 z"
       class="cls-8" />
    <path
       style="fill:#cccccc"
       inkscape:connector-curvature="0"
       id="path168"
       d="m 77.56,130.31 a 1.32,1.32 0 0 1 -0.43,1 1.48,1.48 0 0 1 -1,0.4 H 74 v -4.91 h 2 a 1.46,1.46 0 0 1 1,0.39 1.28,1.28 0 0 1 0.42,1 1.17,1.17 0 0 1 -0.5,1 1.25,1.25 0 0 1 0.64,1.12 z m -2.77,-2.75 v 1.29 h 1.15 a 0.65,0.65 0 0 0 0,-1.29 z m 1.3,3.39 a 0.69,0.69 0 0 0 0,-1.37 h -1.3 V 131 Z"
       class="cls-8" />
    <path
       style="fill:#cccccc"
       inkscape:connector-curvature="0"
       id="path170"
       d="m 58.19,207.73 v 0.33 a 2.18,2.18 0 0 1 -2.32,2.29 2.42,2.42 0 0 1 -1.81,-0.73 2.65,2.65 0 0 1 0,-3.61 2.44,2.44 0 0 1 3.83,0.42 l -0.67,0.4 a 1.55,1.55 0 0 0 -1.39,-0.78 1.59,1.59 0 0 0 -1.22,0.51 1.88,1.88 0 0 0 0,2.51 1.7,1.7 0 0 0 1.27,0.5 1.42,1.42 0 0 0 1.52,-1.12 h -1.58 v -0.72 z"
       class="cls-8" />
    <path
       style="fill:#cccccc"
       inkscape:connector-curvature="0"
       id="path172"
       d="m 61.52,206.76 h 0.73 v 3.5 h -0.73 v -0.5 a 1.33,1.33 0 0 1 -1.18,0.59 1.54,1.54 0 0 1 -1.19,-0.53 2,2 0 0 1 0,-2.62 1.54,1.54 0 0 1 1.19,-0.53 1.36,1.36 0 0 1 1.18,0.59 z m -1.07,2.87 a 1,1 0 0 0 0.77,-0.31 1.16,1.16 0 0 0 0.3,-0.81 1.12,1.12 0 0 0 -0.3,-0.8 1.07,1.07 0 0 0 -1.53,0 1.12,1.12 0 0 0 -0.3,0.8 1.16,1.16 0 0 0 0.3,0.81 1,1 0 0 0 0.76,0.31 z"
       class="cls-8" />
    <path
       style="fill:#cccccc"
       inkscape:connector-curvature="0"
       id="path174"
       d="m 63.13,206.09 a 0.5,0.5 0 0 1 0,-0.68 0.46,0.46 0 0 1 0.67,0 0.49,0.49 0 0 1 0,0.68 0.45,0.45 0 0 1 -0.67,0 z m 0,4.17 v -3.5 h 0.73 v 3.5 z"
       class="cls-8" />
    <path
       style="fill:#cccccc"
       inkscape:connector-curvature="0"
       id="path176"
       d="m 67.75,208.11 v 2.15 H 67 v -2.07 a 0.71,0.71 0 0 0 -0.76,-0.81 c -0.51,0 -0.85,0.33 -0.85,1 v 1.87 h -0.74 v -3.5 h 0.74 v 0.45 a 1.12,1.12 0 0 1 1,-0.54 1.29,1.29 0 0 1 1.36,1.45 z"
       class="cls-8" />
    <path
       style="fill:#cccccc"
       inkscape:connector-curvature="0"
       id="path178"
       d="m 72.3,205.36 h 0.76 v 4.9 H 72.3 v -0.5 a 1.39,1.39 0 0 1 -1.22,0.59 1.64,1.64 0 0 1 -1.24,-0.53 1.94,1.94 0 0 1 0,-2.62 1.64,1.64 0 0 1 1.24,-0.53 1.42,1.42 0 0 1 1.22,0.59 z m -1.1,4.27 a 1.08,1.08 0 0 0 0.79,-0.31 1.12,1.12 0 0 0 0.31,-0.81 1.11,1.11 0 1 0 -2.21,0 1.12,1.12 0 0 0 0.31,0.81 1.09,1.09 0 0 0 0.8,0.31 z"
       class="cls-8" />
    <path
       style="fill:#cccccc"
       inkscape:connector-curvature="0"
       id="path180"
       d="m 77.56,208.86 a 1.29,1.29 0 0 1 -0.43,1 1.44,1.44 0 0 1 -1,0.4 H 74 v -4.9 h 2 a 1.42,1.42 0 0 1 1,0.39 1.26,1.26 0 0 1 0.42,1 1.18,1.18 0 0 1 -0.5,1 1.24,1.24 0 0 1 0.64,1.11 z m -2.77,-2.74 v 1.28 h 1.15 a 0.64,0.64 0 0 0 0,-1.28 z m 1.3,3.39 a 0.69,0.69 0 0 0 0,-1.38 h -1.3 v 1.38 z"
       class="cls-8" />
    <path
       style="fill:#cccccc"
       inkscape:connector-curvature="0"
       id="path182"
       d="M 10.24,131.51 8.85,126.6 H 9.7 l 1,3.83 1.12,-3.83 h 0.74 l 1.1,3.83 1,-3.83 h 0.85 l -1.39,4.91 h -0.93 l -1,-3.58 -1.05,3.58 z"
       class="cls-8" />
    <path
       style="fill:#cccccc"
       inkscape:connector-curvature="0"
       id="path184"
       d="m 15.94,127.34 a 0.48,0.48 0 0 1 0,-0.68 0.46,0.46 0 0 1 0.68,0 0.48083261,0.48083261 0 1 1 -0.68,0.68 z m 0,4.17 V 128 h 0.76 v 3.51 z"
       class="cls-8" />
    <path
       style="fill:#cccccc"
       inkscape:connector-curvature="0"
       id="path186"
       d="M 20.2,126.6 H 21 v 4.91 H 20.2 V 131 a 1.4,1.4 0 0 1 -1.22,0.6 1.65,1.65 0 0 1 -1.24,-0.54 1.92,1.92 0 0 1 0,-2.61 1.65,1.65 0 0 1 1.24,-0.54 1.42,1.42 0 0 1 1.22,0.59 z m -1.1,4.28 a 1.09,1.09 0 0 0 0.79,-0.32 1.11,1.11 0 0 0 0.31,-0.81 1.09,1.09 0 0 0 -1.1,-1.12 1.11,1.11 0 0 0 -1.1,1.12 1.08,1.08 0 0 0 0.32,0.81 1.05,1.05 0 0 0 0.78,0.32 z"
       class="cls-8" />
    <path
       style="fill:#cccccc"
       inkscape:connector-curvature="0"
       id="path188"
       d="m 23.69,128.73 h -0.87 v 1.68 c 0,0.45 0.29,0.44 0.87,0.42 v 0.68 c -1.16,0.14 -1.63,-0.18 -1.63,-1.1 v -1.68 H 21.42 V 128 h 0.64 v -0.75 l 0.76,-0.23 v 1 h 0.87 z"
       class="cls-8" />
    <path
       style="fill:#cccccc"
       inkscape:connector-curvature="0"
       id="path190"
       d="m 27.45,129.36 v 2.15 H 26.7 v -2.08 a 0.73,0.73 0 0 0 -0.79,-0.81 c -0.53,0 -0.89,0.33 -0.89,1 v 1.88 h -0.75 v -4.9 H 25 v 1.85 a 1.21,1.21 0 0 1 1.09,-0.54 1.3,1.3 0 0 1 1.36,1.45 z"
       class="cls-8" />
    <path
       style="fill:#cccccc"
       inkscape:connector-curvature="0"
       id="path192"
       d="m 30.88,128.43 a 1.21,1.21 0 0 1 -1.64,0 1.13,1.13 0 0 1 0.82,-1.92 1.14,1.14 0 0 1 0.82,0.32 1.13,1.13 0 0 1 0.32,0.8 1.11,1.11 0 0 1 -0.32,0.8 z m -1.55,2.35 3.23,-3.59 0.37,0.22 -3.22,3.59 z m 1.23,-3.15 a 0.49,0.49 0 0 0 -0.5,-0.51 0.51,0.51 0 0 0 0,1 0.49,0.49 0 0 0 0.5,-0.49 z m 0.92,3.64 a 1.13,1.13 0 0 1 -0.32,-0.8 1.07,1.07 0 0 1 0.32,-0.79 1.18,1.18 0 0 1 1.64,0 1.08,1.08 0 0 1 0.33,0.79 1.17,1.17 0 0 1 -2,0.8 z m 1.32,-0.8 a 0.49,0.49 0 0 0 -0.5,-0.51 0.51,0.51 0 0 0 0,1 0.48,0.48 0 0 0 0.5,-0.49 z"
       class="cls-8" />
    <path
       style="fill:#cccccc"
       inkscape:connector-curvature="0"
       id="path194"
       d="m 10.24,210.06 -1.39,-4.9 H 9.7 l 1,3.83 1.12,-3.83 h 0.74 l 1.1,3.83 1,-3.83 h 0.85 l -1.39,4.9 h -0.93 l -1,-3.58 -1.05,3.58 z"
       class="cls-8" />
    <path
       style="fill:#cccccc"
       inkscape:connector-curvature="0"
       id="path196"
       d="m 15.94,205.89 a 0.46,0.46 0 0 1 0,-0.67 0.46,0.46 0 0 1 0.68,0 0.46,0.46 0 0 1 0,0.67 0.48,0.48 0 0 1 -0.68,0 z m 0,4.17 v -3.5 h 0.76 v 3.5 z"
       class="cls-8" />
    <path
       style="fill:#cccccc"
       inkscape:connector-curvature="0"
       id="path198"
       d="M 20.2,205.16 H 21 v 4.9 h -0.8 v -0.5 a 1.39,1.39 0 0 1 -1.22,0.59 1.64,1.64 0 0 1 -1.24,-0.53 1.94,1.94 0 0 1 0,-2.62 1.64,1.64 0 0 1 1.24,-0.53 1.39,1.39 0 0 1 1.22,0.59 z m -1.1,4.27 a 1.08,1.08 0 0 0 0.79,-0.31 1.12,1.12 0 0 0 0.31,-0.81 1.08,1.08 0 0 0 -1.1,-1.12 1.09,1.09 0 0 0 -1.1,1.12 1.09,1.09 0 0 0 0.32,0.81 1,1 0 0 0 0.78,0.31 z"
       class="cls-8" />
    <path
       style="fill:#cccccc"
       inkscape:connector-curvature="0"
       id="path200"
       d="M 23.69,207.29 H 22.82 V 209 c 0,0.45 0.29,0.44 0.87,0.41 v 0.68 c -1.16,0.14 -1.63,-0.17 -1.63,-1.09 v -1.68 h -0.64 v -0.73 h 0.64 v -0.76 l 0.76,-0.22 v 1 h 0.87 z"
       class="cls-8" />
    <path
       style="fill:#cccccc"
       inkscape:connector-curvature="0"
       id="path202"
       d="m 27.45,207.91 v 2.15 H 26.7 V 208 a 0.73,0.73 0 0 0 -0.79,-0.81 c -0.53,0 -0.89,0.33 -0.89,1 v 1.88 h -0.75 v -4.9 H 25 V 207 a 1.21,1.21 0 0 1 1.09,-0.54 1.29,1.29 0 0 1 1.36,1.45 z"
       class="cls-8" />
    <path
       style="fill:#cccccc"
       inkscape:connector-curvature="0"
       id="path204"
       d="m 30.88,207 a 1.15,1.15 0 0 1 -2,-0.8 1.08,1.08 0 0 1 0.33,-0.79 1.14,1.14 0 0 1 2,0.79 1.13,1.13 0 0 1 -0.33,0.8 z m -1.55,2.35 3.23,-3.59 0.37,0.21 -3.22,3.6 z m 1.23,-3.15 a 0.49,0.49 0 0 0 -0.5,-0.51 0.51,0.51 0 0 0 0,1 0.48,0.48 0 0 0 0.5,-0.5 z m 0.92,3.63 a 1.09,1.09 0 0 1 -0.32,-0.79 1.11,1.11 0 0 1 0.32,-0.8 1.18,1.18 0 0 1 1.64,0 1.12,1.12 0 0 1 0.33,0.8 1.1,1.1 0 0 1 -0.33,0.79 1.18,1.18 0 0 1 -1.64,0 z M 32.8,209 a 0.49,0.49 0 0 0 -0.5,-0.52 0.5,0.5 0 0 0 -0.5,0.52 0.49,0.49 0 0 0 0.5,0.5 0.48,0.48 0 0 0 0.5,-0.5 z"
       class="cls-8" />
  </g>
  <g
     data-name="Value BGs"
     id="Value_BGs"
     transform="matrix(1.3333333,0,0,1.3333406,0,-4.1893518e-5)">
    <path
       style="fill:#1a1a1a"
       inkscape:connector-curvature="0"
       id="path207"
       d="M 52.63,245.19 H 77.2 a 1,1 0 0 1 1,1 v 9 a 1,1 0 0 1 -1,1 H 52.63 a 1,1 0 0 1 -1,-1 v -9 a 1,1 0 0 1 1,-1 z"
       class="cls-9" />
    <path
       inkscape:connector-curvature="0"
       id="path209"
       d="m 77.2,245.4 a 0.75,0.75 0 0 1 0.75,0.75 v 9 a 0.75,0.75 0 0 1 -0.75,0.76 H 52.63 a 0.76,0.76 0 0 1 -0.76,-0.76 v -9 a 0.76,0.76 0 0 1 0.76,-0.75 H 77.2 m 0,-0.43 H 52.63 a 1.18,1.18 0 0 0 -1.18,1.18 v 9 a 1.18,1.18 0 0 0 1.18,1.18 H 77.2 a 1.18,1.18 0 0 0 1.18,-1.18 v -9 A 1.18,1.18 0 0 0 77.2,245 Z" />
    <path
       style="fill:#1a1a1a"
       inkscape:connector-curvature="0"
       id="path211"
       d="m 9,245.19 h 24.55 a 1,1 0 0 1 1,1 v 9 a 1,1 0 0 1 -1,1 H 9 a 1,1 0 0 1 -1,-1 v -9 a 1,1 0 0 1 1,-1 z"
       class="cls-9" />
    <path
       inkscape:connector-curvature="0"
       id="path213"
       d="m 33.55,245.4 a 0.76,0.76 0 0 1 0.75,0.75 v 9 a 0.76,0.76 0 0 1 -0.75,0.76 H 9 a 0.76,0.76 0 0 1 -0.75,-0.76 v -9 A 0.76,0.76 0 0 1 9,245.4 h 24.55 m 0,-0.43 H 9 a 1.18,1.18 0 0 0 -1.17,1.18 v 9 A 1.18,1.18 0 0 0 9,256.31 h 24.55 a 1.18,1.18 0 0 0 1.17,-1.18 v -9 A 1.18,1.18 0 0 0 33.55,245 Z" />
    <rect
       ry="1.02"
       style="fill:#1a1a1a"
       id="rect215"
       rx="1.02"
       height="10.89"
       width="29.32"
       y="88.940002"
       x="28.540001"
       class="cls-9" />
    <path
       inkscape:connector-curvature="0"
       id="path217"
       d="m 56.84,89.16 a 0.79,0.79 0 0 1 0.8,0.79 v 8.86 a 0.8,0.8 0 0 1 -0.8,0.8 H 29.56 a 0.8,0.8 0 0 1 -0.8,-0.8 V 90 a 0.79,0.79 0 0 1 0.8,-0.79 h 27.28 m 0,-0.45 H 29.56 A 1.25,1.25 0 0 0 28.32,90 v 8.86 a 1.25,1.25 0 0 0 1.24,1.24 h 27.28 a 1.25,1.25 0 0 0 1.24,-1.24 V 90 a 1.25,1.25 0 0 0 -1.24,-1.24 z" />
    <rect
       ry="0.97000003"
       style="fill:#1a1a1a"
       id="rect219"
       rx="0.97000003"
       height="10.91"
       width="26.51"
       y="166.63"
       x="51.66"
       class="cls-9" />
    <path
       inkscape:connector-curvature="0"
       id="path221"
       d="m 77.2,166.84 a 0.75,0.75 0 0 1 0.75,0.75 v 9 a 0.75,0.75 0 0 1 -0.75,0.75 H 52.63 a 0.76,0.76 0 0 1 -0.76,-0.75 v -9 a 0.76,0.76 0 0 1 0.76,-0.75 H 77.2 m 0,-0.42 H 52.63 a 1.18,1.18 0 0 0 -1.18,1.17 v 9 a 1.18,1.18 0 0 0 1.18,1.18 H 77.2 a 1.18,1.18 0 0 0 1.18,-1.18 v -9 a 1.18,1.18 0 0 0 -1.18,-1.17 z" />
    <rect
       ry="0.97000003"
       style="fill:#1a1a1a"
       id="rect223"
       rx="0.97000003"
       height="10.91"
       width="26.51"
       y="166.63"
       x="8.0100002"
       class="cls-9" />
    <path
       inkscape:connector-curvature="0"
       id="path225"
       d="m 33.55,166.84 a 0.76,0.76 0 0 1 0.75,0.75 v 9 a 0.76,0.76 0 0 1 -0.75,0.75 H 9 a 0.76,0.76 0 0 1 -0.75,-0.75 v -9 A 0.76,0.76 0 0 1 9,166.84 h 24.55 m 0,-0.42 H 9 a 1.18,1.18 0 0 0 -1.17,1.17 v 9 A 1.18,1.18 0 0 0 9,177.76 h 24.55 a 1.18,1.18 0 0 0 1.17,-1.18 v -9 a 1.18,1.18 0 0 0 -1.17,-1.17 z" />
  </g>
  <g
     data-name="Arc dots"
     id="Arc_dots"
     transform="matrix(1.3333333,0,0,1.3333406,0,-4.1893518e-5)">
    <path
       style="fill:#b3b3b3"
       inkscape:connector-curvature="0"
       id="path228"
       d="m 57.7,240.42 a 0.71,0.71 0 0 1 -0.26,-1 v 0 a 0.73,0.73 0 0 1 1,-0.27 v 0 a 0.72,0.72 0 0 1 0.25,1 v 0 a 0.7,0.7 0 0 1 -0.62,0.36 v 0 a 0.69,0.69 0 0 1 -0.37,-0.09 z"
       class="cls-4" />
    <path
       style="fill:#b3b3b3"
       inkscape:connector-curvature="0"
       id="path230"
       d="m 71.17,240.14 a 0.71,0.71 0 0 1 0.26,-1 v 0 a 0.72,0.72 0 0 1 1,0.26 v 0 a 0.72,0.72 0 0 1 -0.26,1 v 0 a 0.65,0.65 0 0 1 -0.36,0.1 v 0 a 0.73,0.73 0 0 1 -0.64,-0.36 z"
       class="cls-4" />
    <path
       style="fill:#707070"
       inkscape:connector-curvature="0"
       id="path232"
       d="m 54.71,238.13 v 0 a 0.72,0.72 0 0 1 0,-1 v 0 a 0.73,0.73 0 0 1 1,0 v 0 a 0.71,0.71 0 0 1 0,1 v 0 a 0.69,0.69 0 0 1 -0.51,0.21 v 0 a 0.69,0.69 0 0 1 -0.49,-0.21 z"
       class="cls-10" />
    <path
       style="fill:#707070"
       inkscape:connector-curvature="0"
       id="path234"
       d="m 74.13,238.1 a 0.71,0.71 0 0 1 0,-1 v 0 a 0.73,0.73 0 0 1 1,0 v 0 a 0.73,0.73 0 0 1 0,1 v 0 a 0.7,0.7 0 0 1 -0.51,0.21 v 0 a 0.67,0.67 0 0 1 -0.49,-0.21 z"
       class="cls-10" />
    <path
       style="fill:#707070"
       inkscape:connector-curvature="0"
       id="path236"
       d="m 52.4,235.14 a 0.71,0.71 0 0 1 0.27,-1 v 0 a 0.71,0.71 0 0 1 1,0.25 v 0 a 0.71,0.71 0 0 1 -0.26,1 v 0 a 0.78,0.78 0 0 1 -0.36,0.1 v 0 a 0.73,0.73 0 0 1 -0.65,-0.35 z"
       class="cls-10" />
    <path
       style="fill:#707070"
       inkscape:connector-curvature="0"
       id="path238"
       d="m 76.45,235.38 a 0.72,0.72 0 0 1 -0.25,-1 v 0 a 0.71,0.71 0 0 1 1,-0.27 v 0 a 0.72,0.72 0 0 1 0.25,1 v 0 a 0.7,0.7 0 0 1 -0.61,0.35 v 0 a 0.81,0.81 0 0 1 -0.39,-0.08 z"
       class="cls-10" />
    <path
       style="fill:#707070"
       inkscape:connector-curvature="0"
       id="path240"
       d="m 51,231.66 a 0.73,0.73 0 0 1 0.51,-0.88 v 0 a 0.71,0.71 0 0 1 0.87,0.51 v 0 a 0.72,0.72 0 0 1 -0.5,0.88 H 51.69 A 0.71,0.71 0 0 1 51,231.66 Z"
       class="cls-10" />
    <path
       style="fill:#707070"
       inkscape:connector-curvature="0"
       id="path242"
       d="m 78,232.14 a 0.73,0.73 0 0 1 -0.51,-0.88 v 0 a 0.71,0.71 0 0 1 0.87,-0.51 v 0 a 0.73,0.73 0 0 1 0.51,0.88 v 0 a 0.71,0.71 0 0 1 -0.69,0.54 v 0 A 0.52,0.52 0 0 1 78,232.14 Z"
       class="cls-10" />
    <path
       style="fill:#707070"
       inkscape:connector-curvature="0"
       id="path244"
       d="m 50.46,227.92 a 0.71,0.71 0 0 1 0.71,-0.71 v 0 a 0.71,0.71 0 0 1 0.72,0.71 v 0 a 0.72,0.72 0 0 1 -0.72,0.72 v 0 a 0.72,0.72 0 0 1 -0.71,-0.72 z"
       class="cls-10" />
    <path
       style="fill:#707070"
       inkscape:connector-curvature="0"
       id="path246"
       d="m 77.94,227.89 v 0 0 0 a 0.71,0.71 0 0 1 0.71,-0.72 v 0 a 0.72,0.72 0 0 1 0.72,0.72 v 0 0 0 0 0 a 0.71,0.71 0 0 1 -0.71,0.72 v 0 a 0.71,0.71 0 0 1 -0.72,-0.72 z"
       class="cls-10" />
    <path
       style="fill:#707070"
       inkscape:connector-curvature="0"
       id="path248"
       d="m 51.45,225.05 a 0.7,0.7 0 0 1 -0.51,-0.86 v 0 a 0.72,0.72 0 0 1 0.87,-0.52 v 0 a 0.74,0.74 0 0 1 0.52,0.88 v 0 a 0.74,0.74 0 0 1 -0.7,0.53 v 0 z"
       class="cls-10" />
    <path
       style="fill:#707070"
       inkscape:connector-curvature="0"
       id="path250"
       d="m 77.48,224.47 a 0.71,0.71 0 0 1 0.51,-0.87 v 0 a 0.7,0.7 0 0 1 0.87,0.5 v 0 a 0.72,0.72 0 0 1 -0.5,0.88 v 0 h -0.19 v 0 a 0.71,0.71 0 0 1 -0.69,-0.51 z"
       class="cls-10" />
    <path
       style="fill:#707070"
       inkscape:connector-curvature="0"
       id="path252"
       d="m 52.64,221.67 a 0.72,0.72 0 0 1 -0.27,-1 v 0 a 0.71,0.71 0 0 1 1,-0.27 v 0 a 0.7,0.7 0 0 1 0.26,1 v 0 a 0.7,0.7 0 0 1 -0.62,0.36 v 0 a 0.65,0.65 0 0 1 -0.37,-0.09 z"
       class="cls-10" />
    <path
       style="fill:#707070"
       inkscape:connector-curvature="0"
       id="path254"
       d="m 76.17,221.34 a 0.73,0.73 0 0 1 0.25,-1 v 0 a 0.73,0.73 0 0 1 1,0.26 v 0 a 0.71,0.71 0 0 1 -0.26,1 v 0 a 0.7,0.7 0 0 1 -0.36,0.1 v 0 a 0.72,0.72 0 0 1 -0.63,-0.36 z"
       class="cls-10" />
    <path
       style="fill:#707070"
       inkscape:connector-curvature="0"
       id="path256"
       d="m 54.67,218.7 a 0.69,0.69 0 0 1 0,-1 v 0 a 0.73,0.73 0 0 1 1,0 v 0 a 0.71,0.71 0 0 1 0,1 v 0 a 0.67,0.67 0 0 1 -0.5,0.21 v 0 a 0.66,0.66 0 0 1 -0.5,-0.21 z"
       class="cls-10" />
    <path
       style="fill:#707070"
       inkscape:connector-curvature="0"
       id="path258"
       d="m 74.09,218.65 a 0.71,0.71 0 0 1 0,-1 v 0 a 0.71,0.71 0 0 1 1,0 v 0 a 0.71,0.71 0 0 1 0,1 v 0 a 0.71,0.71 0 0 1 -0.51,0.21 v 0 a 0.7,0.7 0 0 1 -0.49,-0.21 z"
       class="cls-10" />
    <path
       style="fill:#707070"
       inkscape:connector-curvature="0"
       id="path260"
       d="m 57.4,216.37 a 0.7,0.7 0 0 1 0.25,-1 v 0 a 0.72,0.72 0 0 1 1,0.25 v 0 a 0.72,0.72 0 0 1 -0.26,1 v 0 a 0.8,0.8 0 0 1 -0.36,0.09 v 0 a 0.68,0.68 0 0 1 -0.63,-0.34 z"
       class="cls-10" />
    <path
       style="fill:#707070"
       inkscape:connector-curvature="0"
       id="path262"
       d="m 71.39,216.59 a 0.71,0.71 0 0 1 -0.27,-1 v 0 a 0.71,0.71 0 0 1 1,-0.27 v 0 a 0.7,0.7 0 0 1 0.26,1 v 0 a 0.71,0.71 0 0 1 -0.62,0.36 v 0 a 0.63,0.63 0 0 1 -0.37,-0.09 z"
       class="cls-10" />
    <path
       style="fill:#707070"
       inkscape:connector-curvature="0"
       id="path264"
       d="m 60.63,214.82 a 0.71,0.71 0 0 1 0.5,-0.88 v 0 a 0.71,0.71 0 0 1 0.88,0.5 v 0 a 0.71,0.71 0 0 1 -0.5,0.88 v 0 h -0.2 v 0 a 0.71,0.71 0 0 1 -0.68,-0.5 z"
       class="cls-10" />
    <path
       style="fill:#707070"
       inkscape:connector-curvature="0"
       id="path266"
       d="m 68.25,215.3 a 0.71,0.71 0 0 1 -0.51,-0.88 v 0 a 0.71,0.71 0 0 1 0.87,-0.51 v 0 a 0.71,0.71 0 0 1 0.51,0.87 v 0 a 0.71,0.71 0 0 1 -0.69,0.53 v 0 z"
       class="cls-10" />
    <path
       style="fill:#707070"
       inkscape:connector-curvature="0"
       id="path268"
       d="m 64.16,214.16 a 0.71,0.71 0 0 1 0.71,-0.72 v 0 a 0.71,0.71 0 0 1 0.72,0.71 v 0 a 0.72,0.72 0 0 1 -0.72,0.72 v 0 a 0.71,0.71 0 0 1 -0.71,-0.71 z"
       class="cls-10" />
    <path
       style="fill:#b3b3b3"
       inkscape:connector-curvature="0"
       id="path270"
       d="m 14.05,240.42 a 0.71,0.71 0 0 1 -0.26,-1 v 0 a 0.72,0.72 0 0 1 1,-0.27 v 0 a 0.71,0.71 0 0 1 0.26,1 v 0 a 0.7,0.7 0 0 1 -0.62,0.36 v 0 a 0.67,0.67 0 0 1 -0.38,-0.09 z"
       class="cls-4" />
    <path
       style="fill:#b3b3b3"
       inkscape:connector-curvature="0"
       id="path272"
       d="m 27.52,240.14 a 0.7,0.7 0 0 1 0.26,-1 v 0 a 0.72,0.72 0 0 1 1,0.26 v 0 a 0.73,0.73 0 0 1 -0.26,1 v 0 a 0.68,0.68 0 0 1 -0.36,0.1 v 0 a 0.72,0.72 0 0 1 -0.64,-0.36 z"
       class="cls-4" />
    <path
       style="fill:#707070"
       inkscape:connector-curvature="0"
       id="path274"
       d="m 11.05,238.13 v 0 a 0.73,0.73 0 0 1 0,-1 v 0 a 0.74,0.74 0 0 1 1,0 v 0 a 0.73,0.73 0 0 1 0,1 v 0 a 0.7,0.7 0 0 1 -0.51,0.21 v 0 a 0.73,0.73 0 0 1 -0.49,-0.21 z"
       class="cls-10" />
    <path
       style="fill:#707070"
       inkscape:connector-curvature="0"
       id="path276"
       d="m 30.47,238.1 a 0.73,0.73 0 0 1 0,-1 v 0 a 0.73,0.73 0 0 1 1,0 v 0 a 0.71,0.71 0 0 1 0,1 v 0 a 0.67,0.67 0 0 1 -0.5,0.21 v 0 a 0.7,0.7 0 0 1 -0.5,-0.21 z"
       class="cls-10" />
    <path
       style="fill:#707070"
       inkscape:connector-curvature="0"
       id="path278"
       d="m 8.75,235.14 a 0.7,0.7 0 0 1 0.26,-1 H 9 a 0.72,0.72 0 0 1 1,0.25 v 0 a 0.71,0.71 0 0 1 -0.26,1 v 0 a 0.78,0.78 0 0 1 -0.36,0.1 v 0 a 0.72,0.72 0 0 1 -0.63,-0.35 z"
       class="cls-10" />
    <path
       style="fill:#707070"
       inkscape:connector-curvature="0"
       id="path280"
       d="m 32.8,235.38 a 0.72,0.72 0 0 1 -0.26,-1 v 0 a 0.71,0.71 0 0 1 1,-0.27 v 0 a 0.72,0.72 0 0 1 0.26,1 v 0 a 0.7,0.7 0 0 1 -0.62,0.35 v 0 a 0.77,0.77 0 0 1 -0.38,-0.08 z"
       class="cls-10" />
    <path
       style="fill:#707070"
       inkscape:connector-curvature="0"
       id="path282"
       d="m 7.3,231.66 a 0.72,0.72 0 0 1 0.5,-0.88 v 0 a 0.72,0.72 0 0 1 0.88,0.51 v 0 a 0.72,0.72 0 0 1 -0.5,0.88 H 8 a 0.7,0.7 0 0 1 -0.7,-0.51 z"
       class="cls-10" />
    <path
       style="fill:#707070"
       inkscape:connector-curvature="0"
       id="path284"
       d="m 34.35,232.14 a 0.72,0.72 0 0 1 -0.5,-0.88 v 0 a 0.71,0.71 0 0 1 0.87,-0.51 v 0 a 0.73,0.73 0 0 1 0.51,0.88 v 0 a 0.72,0.72 0 0 1 -0.7,0.54 v 0 a 0.62,0.62 0 0 1 -0.18,-0.03 z"
       class="cls-10" />
    <path
       style="fill:#707070"
       inkscape:connector-curvature="0"
       id="path286"
       d="m 6.8,227.92 a 0.71,0.71 0 0 1 0.72,-0.71 v 0 a 0.7,0.7 0 0 1 0.71,0.71 v 0 a 0.71,0.71 0 0 1 -0.71,0.72 v 0 A 0.73,0.73 0 0 1 6.8,227.92 Z"
       class="cls-10" />
    <path
       style="fill:#707070"
       inkscape:connector-curvature="0"
       id="path288"
       d="m 34.29,227.89 v 0 0 0 a 0.71,0.71 0 0 1 0.7,-0.72 v 0 a 0.73,0.73 0 0 1 0.73,0.72 v 0 0 0 0 0 A 0.72,0.72 0 0 1 35,228.61 v 0 a 0.71,0.71 0 0 1 -0.71,-0.72 z"
       class="cls-10" />
    <path
       style="fill:#707070"
       inkscape:connector-curvature="0"
       id="path290"
       d="m 7.79,225.05 a 0.69,0.69 0 0 1 -0.5,-0.86 v 0 a 0.72,0.72 0 0 1 0.87,-0.52 v 0 a 0.73,0.73 0 0 1 0.51,0.88 v 0 a 0.71,0.71 0 0 1 -0.69,0.53 H 8 a 0.63,0.63 0 0 1 -0.21,-0.03 z"
       class="cls-10" />
    <path
       style="fill:#707070"
       inkscape:connector-curvature="0"
       id="path292"
       d="m 33.83,224.47 a 0.7,0.7 0 0 1 0.5,-0.87 v 0 a 0.71,0.71 0 0 1 0.88,0.5 v 0 a 0.72,0.72 0 0 1 -0.5,0.88 v 0 h -0.19 v 0 a 0.71,0.71 0 0 1 -0.69,-0.51 z"
       class="cls-10" />
    <path
       style="fill:#707070"
       inkscape:connector-curvature="0"
       id="path294"
       d="m 9,221.67 a 0.71,0.71 0 0 1 -0.27,-1 v 0 a 0.71,0.71 0 0 1 1,-0.27 v 0 a 0.71,0.71 0 0 1 0.26,1 v 0 a 0.71,0.71 0 0 1 -0.62,0.36 v 0 A 0.63,0.63 0 0 1 9,221.67 Z"
       class="cls-10" />
    <path
       style="fill:#707070"
       inkscape:connector-curvature="0"
       id="path296"
       d="m 32.51,221.34 a 0.73,0.73 0 0 1 0.26,-1 v 0 a 0.72,0.72 0 0 1 1,0.26 v 0 a 0.71,0.71 0 0 1 -0.25,1 v 0 a 0.71,0.71 0 0 1 -0.37,0.1 v 0 a 0.75,0.75 0 0 1 -0.64,-0.36 z"
       class="cls-10" />
    <path
       style="fill:#707070"
       inkscape:connector-curvature="0"
       id="path298"
       d="m 11,218.7 a 0.69,0.69 0 0 1 0,-1 v 0 a 0.73,0.73 0 0 1 1,0 v 0 a 0.73,0.73 0 0 1 0,1 v 0 a 0.7,0.7 0 0 1 -0.51,0.21 v 0 A 0.65,0.65 0 0 1 11,218.7 Z"
       class="cls-10" />
    <path
       style="fill:#707070"
       inkscape:connector-curvature="0"
       id="path300"
       d="m 30.44,218.65 a 0.71,0.71 0 0 1 0,-1 v 0 a 0.71,0.71 0 0 1 1,0 v 0 a 0.73,0.73 0 0 1 0,1 v 0 a 0.73,0.73 0 0 1 -0.51,0.21 v 0 a 0.7,0.7 0 0 1 -0.49,-0.21 z"
       class="cls-10" />
    <path
       style="fill:#707070"
       inkscape:connector-curvature="0"
       id="path302"
       d="m 13.74,216.37 a 0.7,0.7 0 0 1 0.26,-1 v 0 a 0.71,0.71 0 0 1 1,0.25 v 0 a 0.72,0.72 0 0 1 -0.25,1 v 0 a 0.81,0.81 0 0 1 -0.37,0.09 v 0 a 0.7,0.7 0 0 1 -0.64,-0.34 z"
       class="cls-10" />
    <path
       style="fill:#707070"
       inkscape:connector-curvature="0"
       id="path304"
       d="m 27.74,216.59 a 0.7,0.7 0 0 1 -0.27,-1 v 0 a 0.7,0.7 0 0 1 1,-0.27 v 0 a 0.7,0.7 0 0 1 0.27,1 v 0 a 0.71,0.71 0 0 1 -0.62,0.36 v 0 a 0.61,0.61 0 0 1 -0.38,-0.09 z"
       class="cls-10" />
    <path
       style="fill:#707070"
       inkscape:connector-curvature="0"
       id="path306"
       d="m 17,214.82 a 0.72,0.72 0 0 1 0.51,-0.88 v 0 a 0.72,0.72 0 0 1 0.88,0.5 v 0 a 0.73,0.73 0 0 1 -0.51,0.88 v 0 h -0.19 v 0 A 0.73,0.73 0 0 1 17,214.82 Z"
       class="cls-10" />
    <path
       style="fill:#707070"
       inkscape:connector-curvature="0"
       id="path308"
       d="m 24.59,215.3 a 0.71,0.71 0 0 1 -0.5,-0.88 v 0 a 0.7,0.7 0 0 1 0.86,-0.51 v 0 a 0.72,0.72 0 0 1 0.52,0.87 v 0 a 0.73,0.73 0 0 1 -0.7,0.53 v 0 z"
       class="cls-10" />
    <path
       style="fill:#707070"
       inkscape:connector-curvature="0"
       id="path310"
       d="m 20.5,214.16 a 0.72,0.72 0 0 1 0.72,-0.72 v 0 a 0.71,0.71 0 0 1 0.71,0.71 v 0 a 0.71,0.71 0 0 1 -0.71,0.72 v 0 a 0.72,0.72 0 0 1 -0.72,-0.71 z"
       class="cls-10" />
    <path
       style="fill:#b3b3b3"
       inkscape:connector-curvature="0"
       id="path312"
       d="m 57.7,161.86 a 0.7,0.7 0 0 1 -0.26,-1 v 0 a 0.72,0.72 0 0 1 1,-0.26 v 0 a 0.71,0.71 0 0 1 0.25,1 v 0 a 0.69,0.69 0 0 1 -0.62,0.35 v 0 a 0.69,0.69 0 0 1 -0.37,-0.09 z"
       class="cls-4" />
    <path
       style="fill:#b3b3b3"
       inkscape:connector-curvature="0"
       id="path314"
       d="m 71.17,161.59 a 0.71,0.71 0 0 1 0.26,-1 v 0 a 0.72,0.72 0 0 1 1,0.25 v 0 a 0.72,0.72 0 0 1 -0.26,1 v 0 a 0.65,0.65 0 0 1 -0.36,0.1 v 0 a 0.72,0.72 0 0 1 -0.64,-0.35 z"
       class="cls-4" />
    <path
       style="fill:#707070"
       inkscape:connector-curvature="0"
       id="path316"
       d="m 54.71,159.58 v 0 a 0.72,0.72 0 0 1 0,-1 v 0 a 0.71,0.71 0 0 1 1,0 v 0 a 0.71,0.71 0 0 1 0,1 v 0 a 0.73,0.73 0 0 1 -0.51,0.21 v 0 a 0.74,0.74 0 0 1 -0.49,-0.21 z"
       class="cls-10" />
    <path
       style="fill:#707070"
       inkscape:connector-curvature="0"
       id="path318"
       d="m 74.13,159.55 a 0.71,0.71 0 0 1 0,-1 v 0 a 0.71,0.71 0 0 1 1,0 v 0 a 0.73,0.73 0 0 1 0,1 v 0 a 0.75,0.75 0 0 1 -0.51,0.21 v 0 a 0.7,0.7 0 0 1 -0.49,-0.21 z"
       class="cls-10" />
    <path
       style="fill:#707070"
       inkscape:connector-curvature="0"
       id="path320"
       d="m 52.4,156.58 a 0.71,0.71 0 0 1 0.27,-1 v 0 a 0.71,0.71 0 0 1 1,0.26 v 0 a 0.7,0.7 0 0 1 -0.26,1 v 0 A 0.69,0.69 0 0 1 53,157 v 0 a 0.74,0.74 0 0 1 -0.6,-0.42 z"
       class="cls-10" />
    <path
       style="fill:#707070"
       inkscape:connector-curvature="0"
       id="path322"
       d="m 76.45,156.82 a 0.72,0.72 0 0 1 -0.25,-1 v 0 a 0.72,0.72 0 0 1 1,-0.27 v 0 a 0.72,0.72 0 0 1 0.25,1 v 0 a 0.71,0.71 0 0 1 -0.61,0.36 v 0 a 0.71,0.71 0 0 1 -0.39,-0.09 z"
       class="cls-10" />
    <path
       style="fill:#707070"
       inkscape:connector-curvature="0"
       id="path324"
       d="m 51,153.1 a 0.71,0.71 0 0 1 0.51,-0.87 v 0 a 0.7,0.7 0 0 1 0.87,0.5 v 0 a 0.72,0.72 0 0 1 -0.5,0.88 v 0 a 0.58,0.58 0 0 1 -0.19,0 v 0 A 0.71,0.71 0 0 1 51,153.1 Z"
       class="cls-10" />
    <path
       style="fill:#707070"
       inkscape:connector-curvature="0"
       id="path326"
       d="m 78,153.58 a 0.72,0.72 0 0 1 -0.51,-0.88 v 0 a 0.7,0.7 0 0 1 0.87,-0.5 v 0 a 0.72,0.72 0 0 1 0.51,0.88 v 0 a 0.71,0.71 0 0 1 -0.69,0.53 v 0 A 0.52,0.52 0 0 1 78,153.58 Z"
       class="cls-10" />
    <path
       style="fill:#707070"
       inkscape:connector-curvature="0"
       id="path328"
       d="m 50.46,149.37 a 0.71,0.71 0 0 1 0.71,-0.72 v 0 a 0.72,0.72 0 0 1 0.72,0.72 v 0 a 0.71,0.71 0 0 1 -0.72,0.71 v 0 a 0.71,0.71 0 0 1 -0.71,-0.71 z"
       class="cls-10" />
    <path
       style="fill:#707070"
       inkscape:connector-curvature="0"
       id="path330"
       d="m 77.94,149.34 v 0 -0.05 0 a 0.71,0.71 0 0 1 0.71,-0.71 v 0 a 0.71,0.71 0 0 1 0.72,0.71 v 0 0 0 0 0 A 0.71,0.71 0 0 1 78.66,150 v 0 a 0.71,0.71 0 0 1 -0.72,-0.66 z"
       class="cls-10" />
    <path
       style="fill:#707070"
       inkscape:connector-curvature="0"
       id="path332"
       d="m 51.45,146.5 a 0.71,0.71 0 0 1 -0.51,-0.87 v 0 a 0.71,0.71 0 0 1 0.87,-0.51 v 0 a 0.73,0.73 0 0 1 0.52,0.87 v 0 a 0.73,0.73 0 0 1 -0.7,0.54 v 0 a 0.57,0.57 0 0 1 -0.18,-0.03 z"
       class="cls-10" />
    <path
       style="fill:#707070"
       inkscape:connector-curvature="0"
       id="path334"
       d="M 77.48,145.92 A 0.72,0.72 0 0 1 78,145 v 0 a 0.7,0.7 0 0 1 0.87,0.5 v 0 a 0.71,0.71 0 0 1 -0.5,0.88 v 0 h -0.19 v 0 a 0.72,0.72 0 0 1 -0.7,-0.46 z"
       class="cls-10" />
    <path
       style="fill:#707070"
       inkscape:connector-curvature="0"
       id="path336"
       d="m 52.64,143.11 a 0.72,0.72 0 0 1 -0.27,-1 v 0 a 0.72,0.72 0 0 1 1,-0.27 v 0 a 0.71,0.71 0 0 1 0.26,1 v 0 a 0.7,0.7 0 0 1 -0.62,0.36 v 0 a 0.67,0.67 0 0 1 -0.37,-0.09 z"
       class="cls-10" />
    <path
       style="fill:#707070"
       inkscape:connector-curvature="0"
       id="path338"
       d="m 76.17,142.78 a 0.72,0.72 0 0 1 0.25,-1 v 0 a 0.73,0.73 0 0 1 1,0.25 v 0 a 0.72,0.72 0 0 1 -0.26,1 v 0 a 0.8,0.8 0 0 1 -0.36,0.09 v 0 a 0.7,0.7 0 0 1 -0.63,-0.34 z"
       class="cls-10" />
    <path
       style="fill:#707070"
       inkscape:connector-curvature="0"
       id="path340"
       d="m 54.67,140.15 a 0.7,0.7 0 0 1 0,-1 v 0 a 0.71,0.71 0 0 1 1,0 v 0 a 0.71,0.71 0 0 1 0,1 v 0 a 0.7,0.7 0 0 1 -0.5,0.21 v 0 a 0.69,0.69 0 0 1 -0.5,-0.21 z"
       class="cls-10" />
    <path
       style="fill:#707070"
       inkscape:connector-curvature="0"
       id="path342"
       d="m 74.09,140.09 a 0.71,0.71 0 0 1 0,-1 v 0 a 0.71,0.71 0 0 1 1,0 v 0 a 0.71,0.71 0 0 1 0,1 v 0 a 0.71,0.71 0 0 1 -0.51,0.21 v 0 a 0.7,0.7 0 0 1 -0.49,-0.21 z"
       class="cls-10" />
    <path
       style="fill:#707070"
       inkscape:connector-curvature="0"
       id="path344"
       d="m 57.4,137.81 a 0.7,0.7 0 0 1 0.25,-1 v 0 a 0.72,0.72 0 0 1 1,0.26 v 0 a 0.71,0.71 0 0 1 -0.26,1 v 0 a 0.7,0.7 0 0 1 -0.36,0.1 v 0 a 0.69,0.69 0 0 1 -0.63,-0.36 z"
       class="cls-10" />
    <path
       style="fill:#707070"
       inkscape:connector-curvature="0"
       id="path346"
       d="m 71.39,138 a 0.71,0.71 0 0 1 -0.27,-1 v 0 a 0.72,0.72 0 0 1 1,-0.27 v 0 a 0.71,0.71 0 0 1 0.26,1 v 0 a 0.73,0.73 0 0 1 -0.62,0.36 v 0 A 0.64,0.64 0 0 1 71.39,138 Z"
       class="cls-10" />
    <path
       style="fill:#707070"
       inkscape:connector-curvature="0"
       id="path348"
       d="m 60.63,136.26 a 0.72,0.72 0 0 1 0.5,-0.88 v 0 a 0.72,0.72 0 0 1 0.88,0.51 v 0 a 0.71,0.71 0 0 1 -0.5,0.87 v 0 h -0.2 v 0 a 0.71,0.71 0 0 1 -0.68,-0.5 z"
       class="cls-10" />
    <path
       style="fill:#707070"
       inkscape:connector-curvature="0"
       id="path350"
       d="m 68.25,136.75 a 0.72,0.72 0 0 1 -0.51,-0.88 v 0 a 0.73,0.73 0 0 1 0.87,-0.52 v 0 a 0.71,0.71 0 0 1 0.51,0.87 v 0 a 0.71,0.71 0 0 1 -0.69,0.53 z"
       class="cls-10" />
    <path
       style="fill:#707070"
       inkscape:connector-curvature="0"
       id="path352"
       d="m 64.16,135.6 a 0.7,0.7 0 0 1 0.71,-0.71 v 0 a 0.71,0.71 0 0 1 0.72,0.7 v 0 a 0.73,0.73 0 0 1 -0.72,0.73 v 0 a 0.72,0.72 0 0 1 -0.71,-0.72 z"
       class="cls-10" />
    <path
       style="fill:#b3b3b3"
       inkscape:connector-curvature="0"
       id="path354"
       d="m 32.18,84.06 a 1.08,1.08 0 0 1 -0.39,-1.49 v 0 a 1.1,1.1 0 0 1 1.49,-0.41 v 0 a 1.1,1.1 0 0 1 0.39,1.5 v 0 a 1.07,1.07 0 0 1 -1,0.54 v 0 a 1.12,1.12 0 0 1 -0.49,-0.14 z"
       class="cls-4" />
    <path
       style="fill:#b3b3b3"
       inkscape:connector-curvature="0"
       id="path356"
       d="m 52.76,83.63 a 1.09,1.09 0 0 1 0.39,-1.48 v 0 a 1.09,1.09 0 0 1 1.5,0.39 v 0 a 1.1,1.1 0 0 1 -0.39,1.5 v 0 a 1.11,1.11 0 0 1 -0.55,0.15 v 0 a 1.11,1.11 0 0 1 -0.95,-0.56 z"
       class="cls-4" />
    <path
       style="fill:#707070"
       inkscape:connector-curvature="0"
       id="path358"
       d="m 27.61,80.56 v 0 a 1.1,1.1 0 0 1 0,-1.56 v 0 a 1.1,1.1 0 0 1 1.54,0 v 0 a 1.09,1.09 0 0 1 0,1.55 v 0 a 1.05,1.05 0 0 1 -0.77,0.32 v 0 a 1.12,1.12 0 0 1 -0.77,-0.31 z"
       class="cls-10" />
    <path
       style="fill:#707070"
       inkscape:connector-curvature="0"
       id="path360"
       d="m 57.27,80.52 a 1.11,1.11 0 0 1 0,-1.55 v 0 a 1.11,1.11 0 0 1 1.55,0 v 0 a 1.11,1.11 0 0 1 0,1.55 v 0 a 1.08,1.08 0 0 1 -0.77,0.32 v 0 a 1.09,1.09 0 0 1 -0.78,-0.32 z"
       class="cls-10" />
    <path
       style="fill:#707070"
       inkscape:connector-curvature="0"
       id="path362"
       d="m 24.09,76 a 1.08,1.08 0 0 1 0.4,-1.49 v 0 a 1.09,1.09 0 0 1 1.49,0.4 v 0 a 1.07,1.07 0 0 1 -0.39,1.48 v 0 a 1.16,1.16 0 0 1 -0.56,0.16 v 0 A 1.1,1.1 0 0 1 24.09,76 Z"
       class="cls-10" />
    <path
       style="fill:#707070"
       inkscape:connector-curvature="0"
       id="path364"
       d="m 60.83,76.35 a 1.09,1.09 0 0 1 -0.4,-1.48 v 0 a 1.09,1.09 0 0 1 1.5,-0.41 v 0 a 1.12,1.12 0 0 1 0.4,1.5 v 0 a 1.1,1.1 0 0 1 -0.95,0.54 v 0 a 1,1 0 0 1 -0.55,-0.15 z"
       class="cls-10" />
    <path
       style="fill:#707070"
       inkscape:connector-curvature="0"
       id="path366"
       d="m 21.87,70.67 a 1.09,1.09 0 0 1 0.78,-1.34 v 0 a 1.1,1.1 0 0 1 1.34,0.78 v 0 a 1.09,1.09 0 0 1 -0.78,1.34 v 0 a 0.89,0.89 0 0 1 -0.29,0 v 0 a 1.09,1.09 0 0 1 -1.05,-0.78 z"
       class="cls-10" />
    <path
       style="fill:#707070"
       inkscape:connector-curvature="0"
       id="path368"
       d="m 63.2,71.4 a 1.09,1.09 0 0 1 -0.77,-1.34 v 0 a 1.07,1.07 0 0 1 1.33,-0.77 v 0 a 1.11,1.11 0 0 1 0.78,1.34 v 0 a 1.1,1.1 0 0 1 -1.06,0.82 v 0 A 0.92,0.92 0 0 1 63.2,71.4 Z"
       class="cls-10" />
    <path
       style="fill:#707070"
       inkscape:connector-curvature="0"
       id="path370"
       d="m 21.12,65 a 1.09,1.09 0 0 1 1.09,-1.1 v 0 A 1.08,1.08 0 0 1 23.3,65 v 0 a 1.09,1.09 0 0 1 -1.09,1.09 v 0 A 1.1,1.1 0 0 1 21.12,65 Z"
       class="cls-10" />
    <path
       style="fill:#707070"
       inkscape:connector-curvature="0"
       id="path372"
       d="m 63.1,64.92 v 0 -0.08 0 a 1.09,1.09 0 0 1 1.08,-1.09 v 0 a 1.09,1.09 0 0 1 1.1,1.09 v 0 0 0 0 0 A 1.09,1.09 0 0 1 64.19,66 v 0 A 1.09,1.09 0 0 1 63.1,64.92 Z"
       class="cls-10" />
    <path
       style="fill:#707070"
       inkscape:connector-curvature="0"
       id="path374"
       d="m 22.63,60.58 a 1.07,1.07 0 0 1 -0.77,-1.32 v 0 a 1.08,1.08 0 0 1 1.32,-0.79 v 0 A 1.11,1.11 0 0 1 24,59.81 v 0 a 1.1,1.1 0 0 1 -1.06,0.82 v 0 a 0.92,0.92 0 0 1 -0.31,-0.05 z"
       class="cls-10" />
    <path
       style="fill:#707070"
       inkscape:connector-curvature="0"
       id="path376"
       d="m 62.4,59.69 a 1.1,1.1 0 0 1 0.77,-1.34 v 0 a 1.09,1.09 0 0 1 1.34,0.78 v 0 a 1.1,1.1 0 0 1 -0.77,1.34 v 0 h -0.29 v 0 A 1.09,1.09 0 0 1 62.4,59.69 Z"
       class="cls-10" />
    <path
       style="fill:#707070"
       inkscape:connector-curvature="0"
       id="path378"
       d="M 24.45,55.41 A 1.1,1.1 0 0 1 24,53.93 v 0 a 1.09,1.09 0 0 1 1.5,-0.41 v 0 A 1.08,1.08 0 0 1 25.9,55 v 0 a 1.09,1.09 0 0 1 -1,0.56 v 0 a 1.1,1.1 0 0 1 -0.45,-0.15 z"
       class="cls-10" />
    <path
       style="fill:#707070"
       inkscape:connector-curvature="0"
       id="path380"
       d="m 60.39,54.9 a 1.1,1.1 0 0 1 0.39,-1.48 v 0 a 1.09,1.09 0 0 1 1.5,0.39 v 0 a 1.08,1.08 0 0 1 -0.39,1.49 v 0 a 1.07,1.07 0 0 1 -0.55,0.14 v 0 A 1.1,1.1 0 0 1 60.39,54.9 Z"
       class="cls-10" />
    <path
       style="fill:#707070"
       inkscape:connector-curvature="0"
       id="path382"
       d="m 27.55,50.88 a 1.08,1.08 0 0 1 0,-1.54 v 0 a 1.11,1.11 0 0 1 1.55,0 v 0 a 1.1,1.1 0 0 1 0,1.54 v 0 a 1.09,1.09 0 0 1 -0.78,0.32 v 0 a 1.07,1.07 0 0 1 -0.77,-0.32 z"
       class="cls-10" />
    <path
       style="fill:#707070"
       inkscape:connector-curvature="0"
       id="path384"
       d="m 57.22,50.8 a 1.09,1.09 0 0 1 0,-1.55 v 0 a 1.1,1.1 0 0 1 1.54,0 v 0 a 1.11,1.11 0 0 1 0,1.55 v 0 a 1.05,1.05 0 0 1 -0.77,0.32 v 0 A 1.07,1.07 0 0 1 57.22,50.8 Z"
       class="cls-10" />
    <path
       style="fill:#707070"
       inkscape:connector-curvature="0"
       id="path386"
       d="m 31.72,47.32 a 1.08,1.08 0 0 1 0.39,-1.49 v 0 a 1.1,1.1 0 0 1 1.49,0.39 v 0 a 1.09,1.09 0 0 1 -0.4,1.49 v 0 a 1.08,1.08 0 0 1 -0.55,0.15 v 0 a 1.07,1.07 0 0 1 -0.93,-0.54 z"
       class="cls-10" />
    <path
       style="fill:#707070"
       inkscape:connector-curvature="0"
       id="path388"
       d="m 53.1,47.65 a 1.07,1.07 0 0 1 -0.41,-1.48 v 0 a 1.07,1.07 0 0 1 1.48,-0.41 v 0 a 1.07,1.07 0 0 1 0.41,1.48 v 0 a 1.11,1.11 0 0 1 -0.95,0.56 v 0 A 1,1 0 0 1 53.1,47.65 Z"
       class="cls-10" />
    <path
       style="fill:#707070"
       inkscape:connector-curvature="0"
       id="path390"
       d="m 36.65,44.94 a 1.09,1.09 0 0 1 0.78,-1.34 v 0 a 1.1,1.1 0 0 1 1.34,0.77 v 0 A 1.1,1.1 0 0 1 38,45.71 v 0 a 1.43,1.43 0 0 1 -0.29,0 v 0 a 1.1,1.1 0 0 1 -1.06,-0.77 z"
       class="cls-10" />
    <path
       style="fill:#707070"
       inkscape:connector-curvature="0"
       id="path392"
       d="m 48.29,45.69 a 1.1,1.1 0 0 1 -0.77,-1.34 v 0 a 1.08,1.08 0 0 1 1.32,-0.79 v 0 a 1.1,1.1 0 0 1 0.79,1.33 v 0 a 1.1,1.1 0 0 1 -1.06,0.81 v 0 z"
       class="cls-10" />
    <path
       style="fill:#707070"
       inkscape:connector-curvature="0"
       id="path394"
       d="m 42,43.94 a 1.08,1.08 0 0 1 1.09,-1.09 v 0 a 1.08,1.08 0 0 1 1.1,1.07 v 0 A 1.11,1.11 0 0 1 43.13,45 v 0 A 1.11,1.11 0 0 1 42,43.94 Z"
       class="cls-10" />
    <path
       style="fill:#b3b3b3"
       inkscape:connector-curvature="0"
       id="path396"
       d="m 14.05,161.86 a 0.7,0.7 0 0 1 -0.26,-1 v 0 a 0.7,0.7 0 0 1 1,-0.26 v 0 a 0.71,0.71 0 0 1 0.26,1 v 0 a 0.69,0.69 0 0 1 -0.62,0.35 v 0 a 0.67,0.67 0 0 1 -0.38,-0.09 z"
       class="cls-4" />
    <path
       style="fill:#b3b3b3"
       inkscape:connector-curvature="0"
       id="path398"
       d="m 27.52,161.59 a 0.7,0.7 0 0 1 0.26,-1 v 0 a 0.72,0.72 0 0 1 1,0.25 v 0 a 0.73,0.73 0 0 1 -0.26,1 v 0 a 0.68,0.68 0 0 1 -0.36,0.1 v 0 a 0.71,0.71 0 0 1 -0.64,-0.35 z"
       class="cls-4" />
    <path
       style="fill:#707070"
       inkscape:connector-curvature="0"
       id="path400"
       d="m 11.05,159.58 v 0 a 0.73,0.73 0 0 1 0,-1 v 0 a 0.72,0.72 0 0 1 1,0 v 0 a 0.73,0.73 0 0 1 0,1 v 0 a 0.75,0.75 0 0 1 -0.51,0.21 v 0 a 0.78,0.78 0 0 1 -0.49,-0.21 z"
       class="cls-10" />
    <path
       style="fill:#707070"
       inkscape:connector-curvature="0"
       id="path402"
       d="m 30.47,159.55 a 0.73,0.73 0 0 1 0,-1 v 0 a 0.71,0.71 0 0 1 1,0 v 0 a 0.71,0.71 0 0 1 0,1 v 0 a 0.7,0.7 0 0 1 -0.5,0.21 v 0 a 0.75,0.75 0 0 1 -0.5,-0.21 z"
       class="cls-10" />
    <path
       style="fill:#707070"
       inkscape:connector-curvature="0"
       id="path404"
       d="m 8.75,156.58 a 0.7,0.7 0 0 1 0.26,-1 H 9 a 0.72,0.72 0 0 1 1,0.26 v 0 a 0.7,0.7 0 0 1 -0.26,1 v 0 a 0.69,0.69 0 0 1 -0.36,0.11 v 0 a 0.73,0.73 0 0 1 -0.63,-0.37 z"
       class="cls-10" />
    <path
       style="fill:#707070"
       inkscape:connector-curvature="0"
       id="path406"
       d="m 32.8,156.82 a 0.72,0.72 0 0 1 -0.26,-1 v 0 a 0.72,0.72 0 0 1 1,-0.27 v 0 a 0.72,0.72 0 0 1 0.26,1 v 0 a 0.71,0.71 0 0 1 -0.62,0.36 v 0 a 0.68,0.68 0 0 1 -0.38,-0.09 z"
       class="cls-10" />
    <path
       style="fill:#707070"
       inkscape:connector-curvature="0"
       id="path408"
       d="m 7.3,153.1 a 0.7,0.7 0 0 1 0.5,-0.87 v 0 a 0.71,0.71 0 0 1 0.88,0.5 v 0 a 0.72,0.72 0 0 1 -0.5,0.88 v 0 a 0.62,0.62 0 0 1 -0.19,0 H 8 A 0.71,0.71 0 0 1 7.3,153.1 Z"
       class="cls-10" />
    <path
       style="fill:#707070"
       inkscape:connector-curvature="0"
       id="path410"
       d="m 34.35,153.58 a 0.71,0.71 0 0 1 -0.5,-0.88 v 0 a 0.69,0.69 0 0 1 0.87,-0.5 v 0 a 0.72,0.72 0 0 1 0.51,0.88 v 0 a 0.73,0.73 0 0 1 -0.7,0.53 v 0 z"
       class="cls-10" />
    <path
       style="fill:#707070"
       inkscape:connector-curvature="0"
       id="path412"
       d="m 6.8,149.37 a 0.72,0.72 0 0 1 0.72,-0.72 v 0 a 0.71,0.71 0 0 1 0.71,0.72 v 0 a 0.71,0.71 0 0 1 -0.71,0.71 v 0 A 0.72,0.72 0 0 1 6.8,149.37 Z"
       class="cls-10" />
    <path
       style="fill:#707070"
       inkscape:connector-curvature="0"
       id="path414"
       d="m 34.29,149.34 v 0 -0.05 0 a 0.7,0.7 0 0 1 0.7,-0.71 v 0 a 0.72,0.72 0 0 1 0.73,0.71 v 0 0 0 0 0 A 0.72,0.72 0 0 1 35,150 v 0 a 0.71,0.71 0 0 1 -0.71,-0.66 z"
       class="cls-10" />
    <path
       style="fill:#707070"
       inkscape:connector-curvature="0"
       id="path416"
       d="m 7.79,146.5 a 0.7,0.7 0 0 1 -0.5,-0.87 v 0 a 0.7,0.7 0 0 1 0.87,-0.51 v 0 a 0.71,0.71 0 0 1 0.51,0.87 v 0 a 0.71,0.71 0 0 1 -0.69,0.54 H 8 A 0.63,0.63 0 0 1 7.79,146.5 Z"
       class="cls-10" />
    <path
       style="fill:#707070"
       inkscape:connector-curvature="0"
       id="path418"
       d="m 33.83,145.92 a 0.71,0.71 0 0 1 0.5,-0.88 v 0 a 0.71,0.71 0 0 1 0.88,0.5 v 0 a 0.71,0.71 0 0 1 -0.5,0.88 v 0 h -0.19 v 0 a 0.72,0.72 0 0 1 -0.69,-0.5 z"
       class="cls-10" />
    <path
       style="fill:#707070"
       inkscape:connector-curvature="0"
       id="path420"
       d="m 9,143.11 a 0.71,0.71 0 0 1 -0.27,-1 v 0 a 0.72,0.72 0 0 1 1,-0.27 v 0 a 0.72,0.72 0 0 1 0.26,1 v 0 a 0.71,0.71 0 0 1 -0.62,0.36 v 0 A 0.64,0.64 0 0 1 9,143.11 Z"
       class="cls-10" />
    <path
       style="fill:#707070"
       inkscape:connector-curvature="0"
       id="path422"
       d="m 32.51,142.78 a 0.73,0.73 0 0 1 0.26,-1 v 0 a 0.72,0.72 0 0 1 1,0.25 v 0 a 0.72,0.72 0 0 1 -0.25,1 v 0 a 0.81,0.81 0 0 1 -0.37,0.09 v 0 a 0.72,0.72 0 0 1 -0.64,-0.34 z"
       class="cls-10" />
    <path
       style="fill:#707070"
       inkscape:connector-curvature="0"
       id="path424"
       d="m 11,140.15 a 0.7,0.7 0 0 1 0,-1 v 0 a 0.71,0.71 0 0 1 1,0 v 0 a 0.73,0.73 0 0 1 0,1 v 0 a 0.75,0.75 0 0 1 -0.51,0.21 v 0 A 0.69,0.69 0 0 1 11,140.15 Z"
       class="cls-10" />
    <path
       style="fill:#707070"
       inkscape:connector-curvature="0"
       id="path426"
       d="m 30.44,140.09 a 0.71,0.71 0 0 1 0,-1 v 0 a 0.71,0.71 0 0 1 1,0 v 0 a 0.73,0.73 0 0 1 0,1 v 0 a 0.73,0.73 0 0 1 -0.51,0.21 v 0 a 0.7,0.7 0 0 1 -0.49,-0.21 z"
       class="cls-10" />
    <path
       style="fill:#707070"
       inkscape:connector-curvature="0"
       id="path428"
       d="m 13.74,137.81 a 0.7,0.7 0 0 1 0.26,-1 v 0 a 0.71,0.71 0 0 1 1,0.26 v 0 a 0.71,0.71 0 0 1 -0.25,1 v 0 a 0.71,0.71 0 0 1 -0.37,0.1 v 0 a 0.71,0.71 0 0 1 -0.64,-0.36 z"
       class="cls-10" />
    <path
       style="fill:#707070"
       inkscape:connector-curvature="0"
       id="path430"
       d="m 27.74,138 a 0.7,0.7 0 0 1 -0.27,-1 v 0 a 0.71,0.71 0 0 1 1,-0.27 v 0 a 0.71,0.71 0 0 1 0.27,1 v 0 a 0.73,0.73 0 0 1 -0.62,0.36 v 0 A 0.62,0.62 0 0 1 27.74,138 Z"
       class="cls-10" />
    <path
       style="fill:#707070"
       inkscape:connector-curvature="0"
       id="path432"
       d="m 17,136.26 a 0.73,0.73 0 0 1 0.51,-0.88 v 0 a 0.73,0.73 0 0 1 0.88,0.51 v 0 a 0.72,0.72 0 0 1 -0.51,0.87 v 0 h -0.19 v 0 A 0.73,0.73 0 0 1 17,136.26 Z"
       class="cls-10" />
    <path
       style="fill:#707070"
       inkscape:connector-curvature="0"
       id="path434"
       d="m 24.59,136.75 a 0.72,0.72 0 0 1 -0.5,-0.88 v 0 a 0.71,0.71 0 0 1 0.86,-0.52 v 0 a 0.72,0.72 0 0 1 0.52,0.87 v 0 a 0.73,0.73 0 0 1 -0.7,0.53 z"
       class="cls-10" />
    <path
       style="fill:#707070"
       inkscape:connector-curvature="0"
       id="path436"
       d="m 20.5,135.6 a 0.71,0.71 0 0 1 0.72,-0.71 v 0 a 0.7,0.7 0 0 1 0.71,0.7 v 0 a 0.72,0.72 0 0 1 -0.71,0.73 v 0 A 0.73,0.73 0 0 1 20.5,135.6 Z"
       class="cls-10" />
  </g>
  <g
     data-name="Freq Knob"
     id="Freq_Knob"
     transform="matrix(1.3333333,0,0,1.3333406,0,-4.1893518e-5)">
    <circle
       style="fill:url(#linear-gradient-2)"
       r="17.719999"
       cy="65.139999"
       cx="43.200001"
       class="cls-11"
       id="path5084" />
    <circle
       style="fill:url(#linear-gradient-3)"
       r="15.63"
       cy="65.139999"
       cx="43.200001"
       class="cls-12"
       id="path5086" />
    <circle
       style="fill:none"
       r="16.33"
       cy="63.75"
       cx="43.200001"
       class="cls-13"
       data-name="path5084"
       id="path5084-2" />
  </g>
</svg>
