<?xml version="1.0" encoding="UTF-8" standalone="no"?>
<svg
   xmlns:dc="http://purl.org/dc/elements/1.1/"
   xmlns:cc="http://creativecommons.org/ns#"
   xmlns:rdf="http://www.w3.org/1999/02/22-rdf-syntax-ns#"
   xmlns:svg="http://www.w3.org/2000/svg"
   xmlns="http://www.w3.org/2000/svg"
   xmlns:sodipodi="http://sodipodi.sourceforge.net/DTD/sodipodi-0.dtd"
   xmlns:inkscape="http://www.inkscape.org/namespaces/inkscape"
   inkscape:version="0.92.2 (5c3e80d, 2017-08-06)"
   height="128.5mm"
   width="45.720001mm"
   sodipodi:docname="BassMasterSnr.svg"
   id="svg1452"
   version="1.1"
   viewBox="0 0 172.8 485.66928">
  <metadata
     id="metadata1456">
    <rdf:RDF>
      <cc:Work
         rdf:about="">
        <dc:format>image/svg+xml</dc:format>
        <dc:type
           rdf:resource="http://purl.org/dc/dcmitype/StillImage" />
        <dc:title />
      </cc:Work>
    </rdf:RDF>
  </metadata>
  <sodipodi:namedview
     inkscape:current-layer="svg1452"
     inkscape:window-maximized="0"
     inkscape:window-y="23"
     inkscape:window-x="0"
     inkscape:cy="170.53202"
     inkscape:cx="-82.536314"
     inkscape:zoom="1.3836651"
     units="mm"
     inkscape:document-units="mm"
     showgrid="false"
     id="namedview1454"
     inkscape:window-height="768"
     inkscape:window-width="1366"
     inkscape:pageshadow="2"
     inkscape:pageopacity="0"
     guidetolerance="10"
     gridtolerance="10"
     objecttolerance="10"
     borderopacity="1"
     bordercolor="#666666"
     pagecolor="#ffffff" />
  <defs
     id="defs850">
    <style
       id="style833">.cls-1{fill:#353535;}.cls-2{fill:url(#linear-gradient);}.cls-3{fill:gray;}.cls-4{fill:#b3b3b3;}.cls-5{fill:#424242;}.cls-6{fill:#121212;}.cls-7{fill:#fff;}.cls-8{fill:#ccc;}.cls-9{fill:#1a1a1a;}.cls-10{fill:#707070;}.cls-11{fill:url(#linear-gradient-2);}.cls-12{fill:url(#linear-gradient-3);}.cls-13,.cls-14,.cls-15,.cls-16{fill:none;}.cls-14{stroke:#353535;stroke-width:0.85px;}.cls-15,.cls-16{stroke:#fff;}.cls-15{stroke-width:0.28px;}.cls-16{stroke-width:0.28px;}</style>
    <linearGradient
       gradientUnits="userSpaceOnUse"
       y2="349.56"
       x2="62.790001"
       y1="349.56"
       x1="42.939999"
       id="linear-gradient">
      <stop
         id="stop835"
         stop-color="#3fa9f5"
         offset="0" />
      <stop
         id="stop837"
         stop-color="#ed1e79"
         offset="1" />
    </linearGradient>
    <linearGradient
       gradientUnits="userSpaceOnUse"
       y2="82.860001"
       x2="43.200001"
       y1="47.419998"
       x1="43.200001"
       id="linear-gradient-2">
      <stop
         id="stop840"
         stop-color="#b3b3b3"
         offset="0" />
      <stop
         id="stop842"
         offset="1" />
    </linearGradient>
    <linearGradient
       gradientUnits="userSpaceOnUse"
       y2="80.769997"
       x2="43.200001"
       y1="49.509998"
       x1="43.200001"
       id="linear-gradient-3">
      <stop
         id="stop845"
         stop-color="#e6e6e6"
         offset="0" />
      <stop
         id="stop847"
         stop-color="#999"
         offset="1" />
    </linearGradient>
  </defs>
  <g
     id="Background"
     transform="scale(1.3333333)">
    <g
       id="background-2"
       data-name="background">
      <path
         style="fill:#353535"
         inkscape:connector-curvature="0"
         id="rect4155"
         class="cls-1"
         d="M 0,0 H 129.6 V 364.25 H 0 Z" />
    </g>
  </g>
  <g
     id="branding"
     transform="scale(1.3333333)">
    <path
       inkscape:connector-curvature="0"
       class="cls-2"
       d="m 43.46,355.74 a 0.45,0.45 0 0 1 -0.25,-0.07 0.51,0.51 0 0 1 -0.2,-0.7 l 6.27,-11.32 a 0.51,0.51 0 0 1 0.58,-0.25 0.51,0.51 0 0 1 0.39,0.5 v 9.33 l 5.3,-9.58 a 0.52,0.52 0 0 1 1,0.25 v 9.33 l 5.31,-9.58 a 0.51,0.51 0 0 1 0.58,-0.25 0.52,0.52 0 0 1 0.38,0.5 v 11.32 a 0.52,0.52 0 1 1 -1,0 v -9.33 l -5.31,9.58 a 0.5,0.5 0 0 1 -0.57,0.25 0.51,0.51 0 0 1 -0.39,-0.5 v -9.33 l -5.31,9.58 a 0.5153882,0.5153882 0 0 1 -1,-0.25 v -9.33 l -5.31,9.58 a 0.53,0.53 0 0 1 -0.47,0.27 z"
       id="path855"
       style="fill:url(#linear-gradient)" />
    <path
       style="fill:#808080"
       inkscape:connector-curvature="0"
       class="cls-3"
       d="m 65.28,343.9 a 0.5,0.5 0 0 1 0.51,-0.5 h 0.1 a 0.51,0.51 0 0 1 0.46,0.26 l 1.72,2.68 1.72,-2.69 a 0.5,0.5 0 0 1 0.46,-0.25 h 0.1 a 0.5,0.5 0 0 1 0.5,0.5 v 4.72 a 0.5,0.5 0 0 1 -1,0 v -3.39 l -1.39,2.08 a 0.46,0.46 0 0 1 -0.83,0 l -1.38,-2.06 v 3.38 a 0.48,0.48 0 0 1 -0.49,0.48 0.48,0.48 0 0 1 -0.49,-0.48 z"
       id="path857" />
    <path
       style="fill:#b3b3b3"
       inkscape:connector-curvature="0"
       class="cls-4"
       d="m 70.35,343.4 h -0.1 a 0.5,0.5 0 0 0 -0.46,0.25 l -1.72,2.69 -1.72,-2.68 a 0.51,0.51 0 0 0 -0.46,-0.26 h -0.1 a 0.5,0.5 0 0 0 -0.51,0.5 v 4.73 a 0.48,0.48 0 0 0 0.49,0.48 0.48,0.48 0 0 0 0.49,-0.48 v -3.38 l 1.38,2.06 a 0.46,0.46 0 0 0 0.83,0 l 1.39,-2.08 v 3.39 a 0.5,0.5 0 0 0 1,0 v -4.72 a 0.5,0.5 0 0 0 -0.5,-0.5 z"
       id="path859" />
    <path
       style="fill:#808080"
       inkscape:connector-curvature="0"
       class="cls-3"
       d="m 72,343.88 a 0.5,0.5 0 0 1 1,0 v 4.74 a 0.48,0.48 0 0 1 -0.49,0.49 0.49,0.49 0 0 1 -0.51,-0.49 z"
       id="path861" />
    <path
       style="fill:#b3b3b3"
       inkscape:connector-curvature="0"
       class="cls-4"
       d="m 72.47,343.39 a 0.5,0.5 0 0 0 -0.51,0.49 v 4.74 a 0.49,0.49 0 0 0 0.51,0.49 0.48,0.48 0 0 0 0.49,-0.49 v -4.74 a 0.49,0.49 0 0 0 -0.49,-0.49 z"
       id="path863" />
    <path
       style="fill:#808080"
       inkscape:connector-curvature="0"
       class="cls-3"
       d="m 74.07,343.9 a 0.5,0.5 0 0 1 0.5,-0.5 h 0.11 a 0.61,0.61 0 0 1 0.51,0.29 l 2.81,3.65 v -3.47 a 0.5,0.5 0 0 1 1,0 v 4.74 a 0.49,0.49 0 0 1 -0.49,0.5 v 0 a 0.66,0.66 0 0 1 -0.52,-0.3 l -2.91,-3.76 v 3.58 a 0.5,0.5 0 0 1 -1,0 z"
       id="path865" />
    <path
       style="fill:#b3b3b3"
       inkscape:connector-curvature="0"
       class="cls-4"
       d="m 78.51,343.39 a 0.49,0.49 0 0 0 -0.48,0.48 v 3.47 l -2.84,-3.65 a 0.61,0.61 0 0 0 -0.51,-0.29 h -0.11 a 0.5,0.5 0 0 0 -0.5,0.5 v 4.73 a 0.5,0.5 0 0 0 1,0 v -3.58 l 2.93,3.76 a 0.66,0.66 0 0 0 0.52,0.3 v 0 a 0.49,0.49 0 0 0 0.49,-0.5 v -4.74 a 0.49,0.49 0 0 0 -0.5,-0.48 z"
       id="path867" />
    <path
       style="fill:#808080"
       inkscape:connector-curvature="0"
       class="cls-3"
       d="m 80.06,343.93 a 0.5,0.5 0 0 1 0.5,-0.5 h 1.61 a 2.82,2.82 0 0 1 3,2.8 v 0 a 2.83,2.83 0 0 1 -3,2.82 h -1.61 a 0.49,0.49 0 0 1 -0.5,-0.5 z m 2.11,4.24 a 1.85,1.85 0 0 0 2,-1.9 v 0 a 1.86,1.86 0 0 0 -2,-1.92 h -1.11 v 3.84 z"
       id="path869" />
    <path
       style="fill:#b3b3b3"
       inkscape:connector-curvature="0"
       class="cls-4"
       d="m 82.17,343.43 h -1.61 a 0.5,0.5 0 0 0 -0.5,0.5 v 4.64 a 0.49,0.49 0 0 0 0.5,0.5 h 1.61 a 2.83,2.83 0 0 0 3,-2.82 v 0 a 2.82,2.82 0 0 0 -3,-2.8 z m -1.11,4.74 v -3.84 h 1.11 a 1.86,1.86 0 0 1 2,1.92 v 0 a 1.85,1.85 0 0 1 -2,1.9 z"
       id="path871" />
    <path
       style="fill:#808080"
       inkscape:connector-curvature="0"
       class="cls-3"
       d="m 65.28,350.51 a 0.5,0.5 0 0 1 0.51,-0.5 h 0.1 a 0.51,0.51 0 0 1 0.46,0.26 l 1.72,2.73 1.72,-2.68 a 0.51,0.51 0 0 1 0.46,-0.26 h 0.1 a 0.5,0.5 0 0 1 0.5,0.5 v 4.72 a 0.5,0.5 0 1 1 -1,0 v -3.38 l -1.39,2.07 a 0.46,0.46 0 0 1 -0.83,0 l -1.38,-2.06 v 3.38 a 0.48,0.48 0 0 1 -0.49,0.49 0.48,0.48 0 0 1 -0.49,-0.49 z"
       id="path873" />
    <path
       style="fill:#b3b3b3"
       inkscape:connector-curvature="0"
       class="cls-4"
       d="m 70.35,350 h -0.1 a 0.51,0.51 0 0 0 -0.46,0.26 l -1.72,2.74 -1.72,-2.68 a 0.51,0.51 0 0 0 -0.46,-0.26 h -0.1 a 0.5,0.5 0 0 0 -0.51,0.5 v 4.73 a 0.48,0.48 0 0 0 0.49,0.49 0.48,0.48 0 0 0 0.49,-0.49 v -3.38 l 1.38,2.06 a 0.46,0.46 0 0 0 0.83,0 l 1.39,-2.07 v 3.38 a 0.5,0.5 0 1 0 1,0 v -4.72 a 0.5,0.5 0 0 0 -0.5,-0.5 z"
       id="path875" />
    <path
       style="fill:#808080"
       inkscape:connector-curvature="0"
       class="cls-3"
       d="m 71.91,355.19 v -4.65 a 0.5,0.5 0 0 1 0.5,-0.5 h 3.29 a 0.45,0.45 0 1 1 0,0.89 h -2.8 v 1.46 h 2.44 a 0.45,0.45 0 0 1 0.44,0.46 0.44,0.44 0 0 1 -0.44,0.43 H 72.9 v 1.52 h 2.84 a 0.45,0.45 0 1 1 0,0.89 h -3.33 a 0.5,0.5 0 0 1 -0.5,-0.5 z"
       id="path877" />
    <path
       style="fill:#b3b3b3"
       inkscape:connector-curvature="0"
       class="cls-4"
       d="m 75.7,350 h -3.29 a 0.5,0.5 0 0 0 -0.5,0.5 v 4.65 a 0.5,0.5 0 0 0 0.5,0.5 h 3.33 a 0.45,0.45 0 1 0 0,-0.89 H 72.9 v -1.52 h 2.44 a 0.44,0.44 0 0 0 0.44,-0.43 0.45,0.45 0 0 0 -0.44,-0.46 H 72.9 v -1.46 h 2.8 a 0.45,0.45 0 1 0 0,-0.89 z"
       id="path879" />
    <path
       style="fill:#808080"
       inkscape:connector-curvature="0"
       class="cls-3"
       d="m 76.93,350.49 a 0.5,0.5 0 0 1 1,0 v 4.29 h 2.57 a 0.45,0.45 0 0 1 0.45,0.45 0.46,0.46 0 0 1 -0.45,0.46 h -3.07 a 0.5,0.5 0 0 1 -0.5,-0.5 z"
       id="path881" />
    <path
       style="fill:#b3b3b3"
       inkscape:connector-curvature="0"
       class="cls-4"
       d="m 77.43,350 a 0.49,0.49 0 0 0 -0.5,0.49 v 4.7 a 0.5,0.5 0 0 0 0.5,0.5 h 3.06 a 0.46,0.46 0 0 0 0.45,-0.46 0.45,0.45 0 0 0 -0.45,-0.45 h -2.57 v -4.29 A 0.49,0.49 0 0 0 77.43,350 Z"
       id="path883" />
    <path
       style="fill:#808080"
       inkscape:connector-curvature="0"
       class="cls-3"
       d="M 81.53,350.54 A 0.5,0.5 0 0 1 82,350 h 1.61 a 2.82,2.82 0 0 1 3,2.81 v 0 a 2.84,2.84 0 0 1 -3,2.83 H 82 a 0.5,0.5 0 0 1 -0.51,-0.5 z m 2.12,4.24 a 1.84,1.84 0 0 0 2,-1.9 v 0 a 1.85,1.85 0 0 0 -2,-1.92 h -1.12 v 3.84 z"
       id="path885" />
    <path
       style="fill:#b3b3b3"
       inkscape:connector-curvature="0"
       class="cls-4"
       d="M 83.65,350 H 82 a 0.5,0.5 0 0 0 -0.51,0.5 v 4.65 a 0.5,0.5 0 0 0 0.51,0.5 h 1.61 a 2.84,2.84 0 0 0 3,-2.83 v 0 a 2.82,2.82 0 0 0 -3,-2.81 z m -1.12,4.74 v -3.84 h 1.12 a 1.85,1.85 0 0 1 2,1.92 v 0 a 1.84,1.84 0 0 1 -2,1.9 z"
       id="path887" />
    <path
       style="fill:#b3b3b3"
       inkscape:connector-curvature="0"
       class="cls-4"
       d="m 33.47,15.85 a 2.29,2.29 0 0 1 -0.76,1.77 2.71,2.71 0 0 1 -1.88,0.69 h -3.6 V 9.83 h 3.35 a 2.68,2.68 0 0 1 1.83,0.67 2.23,2.23 0 0 1 0.75,1.71 2.06,2.06 0 0 1 -0.8,1.7 2.1,2.1 0 0 1 1.11,1.94 z M 28.9,11.39 v 1.86 h 1.68 a 0.93,0.93 0 0 0 0,-1.86 z m 1.93,5.35 a 1,1 0 0 0 0,-2 H 28.9 v 2 z"
       id="path889" />
    <path
       style="fill:#b3b3b3"
       inkscape:connector-curvature="0"
       class="cls-4"
       d="m 40.25,18.31 -0.51,-1.53 h -3.38 l -0.51,1.53 h -1.8 l 3,-8.48 h 2.07 l 3,8.48 z M 36.9,15.22 h 2.32 l -1.16,-3.47 z"
       id="path891" />
    <path
       style="fill:#b3b3b3"
       inkscape:connector-curvature="0"
       class="cls-4"
       d="m 42.5,16.38 1.43,-0.84 a 1.91,1.91 0 0 0 2,1.3 c 0.93,0 1.36,-0.37 1.36,-0.9 a 0.77,0.77 0 0 0 -0.4,-0.69 5.8,5.8 0 0 0 -1.43,-0.54 5.4,5.4 0 0 1 -1.76,-0.79 2.05,2.05 0 0 1 -0.8,-1.74 2.26,2.26 0 0 1 0.81,-1.83 3,3 0 0 1 2,-0.69 3.24,3.24 0 0 1 3,1.9 l -1.41,0.81 a 1.69,1.69 0 0 0 -1.62,-1.09 c -0.69,0 -1.12,0.35 -1.12,0.85 a 0.79,0.79 0 0 0 0.33,0.65 5.33,5.33 0 0 0 1.29,0.54 l 0.58,0.19 a 5.57,5.57 0 0 1 0.54,0.21 2.29,2.29 0 0 1 0.54,0.25 2.45,2.45 0 0 1 0.79,0.75 2.24,2.24 0 0 1 0.32,1.2 2.28,2.28 0 0 1 -0.86,1.87 3.42,3.42 0 0 1 -2.22,0.69 3.28,3.28 0 0 1 -3.37,-2.1 z"
       id="path893" />
    <path
       style="fill:#b3b3b3"
       inkscape:connector-curvature="0"
       class="cls-4"
       d="M 49.55,16.38 51,15.54 a 1.9,1.9 0 0 0 2,1.3 c 0.93,0 1.36,-0.37 1.36,-0.9 a 0.77,0.77 0 0 0 -0.4,-0.69 5.8,5.8 0 0 0 -1.43,-0.54 5.3,5.3 0 0 1 -1.76,-0.79 2.05,2.05 0 0 1 -0.8,-1.74 2.26,2.26 0 0 1 0.81,-1.83 3,3 0 0 1 2,-0.69 3.25,3.25 0 0 1 3,1.9 l -1.41,0.81 a 1.69,1.69 0 0 0 -1.62,-1.09 c -0.69,0 -1.12,0.35 -1.12,0.85 a 0.79,0.79 0 0 0 0.33,0.65 5.21,5.21 0 0 0 1.28,0.54 l 0.58,0.19 a 4.74,4.74 0 0 1 0.55,0.21 2,2 0 0 1 0.53,0.25 2.39,2.39 0 0 1 0.8,0.75 2.33,2.33 0 0 1 0.32,1.2 2.28,2.28 0 0 1 -0.86,1.87 3.42,3.42 0 0 1 -2.22,0.69 3.28,3.28 0 0 1 -3.39,-2.1 z"
       id="path895" />
    <path
       style="fill:#808080"
       inkscape:connector-curvature="0"
       class="cls-3"
       d="m 65.52,9.83 v 8.48 h -1.66 v -5.5 l -2.38,3.93 h -0.2 L 58.9,12.82 v 5.49 H 57.23 V 9.83 H 59 l 2.43,4 2.42,-4 z"
       id="path897" />
    <path
       style="fill:#808080"
       inkscape:connector-curvature="0"
       class="cls-3"
       d="M 72.79,18.31 72.28,16.78 H 68.9 l -0.51,1.53 h -1.81 l 3,-8.48 h 2.07 l 3,8.48 z m -3.36,-3.09 h 2.33 l -1.17,-3.47 z"
       id="path899" />
    <path
       style="fill:#808080"
       inkscape:connector-curvature="0"
       class="cls-3"
       d="m 75,16.38 1.43,-0.84 a 1.9,1.9 0 0 0 2,1.3 c 0.93,0 1.35,-0.37 1.35,-0.9 a 0.75,0.75 0 0 0 -0.4,-0.69 5.64,5.64 0 0 0 -1.43,-0.54 5.34,5.34 0 0 1 -1.75,-0.79 2.05,2.05 0 0 1 -0.8,-1.74 2.23,2.23 0 0 1 0.81,-1.83 3,3 0 0 1 2,-0.69 3.24,3.24 0 0 1 3,1.9 l -1.4,0.81 a 1.7,1.7 0 0 0 -1.63,-1.09 c -0.69,0 -1.11,0.35 -1.11,0.85 a 0.79,0.79 0 0 0 0.33,0.65 5.21,5.21 0 0 0 1.28,0.54 l 0.58,0.19 a 5.55,5.55 0 0 1 0.55,0.21 2,2 0 0 1 0.53,0.25 2.59,2.59 0 0 1 0.8,0.75 2.33,2.33 0 0 1 0.32,1.2 2.28,2.28 0 0 1 -0.87,1.87 3.4,3.4 0 0 1 -2.21,0.69 3.27,3.27 0 0 1 -3.38,-2.1 z"
       id="path901" />
    <path
       style="fill:#808080"
       inkscape:connector-curvature="0"
       class="cls-3"
       d="m 88.08,9.83 v 1.6 h -2.29 v 6.88 h -1.67 v -6.88 h -2.28 v -1.6 z"
       id="path903" />
    <path
       style="fill:#808080"
       inkscape:connector-curvature="0"
       class="cls-3"
       d="m 90.92,16.71 h 3.58 v 1.6 H 89.25 V 9.83 h 5.19 v 1.6 h -3.52 v 1.8 h 3.21 v 1.58 h -3.21 z"
       id="path905" />
    <path
       style="fill:#808080"
       inkscape:connector-curvature="0"
       class="cls-3"
       d="m 100.56,18.31 -1.71,-2.95 h -1.27 v 2.95 H 95.91 V 9.83 h 3.39 a 2.8,2.8 0 0 1 2.82,2.81 2.76,2.76 0 0 1 -1.63,2.47 l 1.88,3.2 z m -3,-6.92 v 2.51 h 1.74 a 1.26,1.26 0 0 0 0,-2.51 z"
       id="path907" />
  </g>
  <g
     id="Section_BGs"
     data-name="Section BGs"
     transform="scale(1.3333333)">
    <rect
       style="fill:#424242"
       class="cls-5"
       x="4.25"
       y="187.45"
       width="77.900002"
       height="73.870003"
       rx="2.72"
       id="rect910" />
    <rect
       style="fill:#424242"
       class="cls-5"
       x="4.25"
       y="108.89"
       width="77.900002"
       height="73.870003"
       rx="2.72"
       id="rect912" />
    <rect
       style="fill:#424242"
       class="cls-5"
       x="4.25"
       y="25.51"
       width="77.900002"
       height="78.730003"
       rx="2.8099999"
       id="rect914" />
    <rect
       style="fill:#121212"
       class="cls-6"
       x="51.27"
       y="267.01999"
       width="30.610001"
       height="69.169998"
       rx="1.41"
       id="rect916" />
    <rect
       style="fill:#424242"
       class="cls-5"
       x="4.25"
       y="267.01999"
       width="30.610001"
       height="69.169998"
       rx="1.41"
       id="rect918" />
    <rect
       style="fill:#424242"
       class="cls-5"
       x="4.25"
       y="108.89"
       width="77.900002"
       height="73.870003"
       rx="2.72"
       id="rect920" />
    <rect
       style="fill:#424242"
       class="cls-5"
       x="4.25"
       y="187.45"
       width="77.900002"
       height="73.870003"
       rx="2.72"
       id="rect922" />
    <rect
       style="fill:#121212"
       class="cls-6"
       x="51.27"
       y="267.01999"
       width="30.610001"
       height="69.169998"
       rx="1.41"
       id="rect924" />
  </g>
  <g
     id="labels"
     transform="scale(1.3333333)">
    <path
       style="fill:#ffffff"
       inkscape:connector-curvature="0"
       class="cls-7"
       d="m 16.27,270.77 h 1 v 4.9 h -1 z"
       id="path927" />
    <path
       style="fill:#ffffff"
       inkscape:connector-curvature="0"
       class="cls-7"
       d="m 21.16,270.77 h 1 v 4.9 h -0.74 l -2.1,-3 v 3 h -1 v -4.9 h 0.73 l 2.1,3 z"
       id="path929" />
    <path
       style="fill:#ffffff"
       inkscape:connector-curvature="0"
       class="cls-7"
       d="m 42.71,293.7 h 2 v 1 h -3.05 v -5.31 h 1.05 z"
       id="path931" />
    <path
       style="fill:#ffffff"
       inkscape:connector-curvature="0"
       class="cls-7"
       d="M 44.09,321.65 43,319.8 h -0.8 v 1.85 h -1 v -5.32 h 2.1 a 1.76,1.76 0 0 1 1.77,1.76 1.73,1.73 0 0 1 -1,1.55 l 1.17,2 z m -1.87,-4.34 v 1.57 h 1.08 a 0.76,0.76 0 0 0 0.72,-0.79 0.75,0.75 0 0 0 -0.72,-0.78 z"
       id="path933" />
    <path
       style="fill:#ffffff"
       inkscape:connector-curvature="0"
       class="cls-7"
       d="m 61.65,275.91 a 2.36,2.36 0 0 1 -1.75,-0.74 2.55,2.55 0 0 1 -0.71,-1.81 2.51,2.51 0 0 1 0.71,-1.81 2.43,2.43 0 0 1 3.49,0 2.48,2.48 0 0 1 0.72,1.81 2.51,2.51 0 0 1 -0.72,1.81 2.35,2.35 0 0 1 -1.74,0.74 z m 0,-1 a 1.41,1.41 0 0 0 1.08,-0.45 1.58,1.58 0 0 0 0.44,-1.15 1.61,1.61 0 0 0 -0.44,-1.16 1.53,1.53 0 0 0 -2.17,0 1.61,1.61 0 0 0 -0.44,1.16 1.58,1.58 0 0 0 0.44,1.15 1.41,1.41 0 0 0 1.09,0.54 z"
       id="path935" />
    <path
       style="fill:#ffffff"
       inkscape:connector-curvature="0"
       class="cls-7"
       d="m 65.73,275.44 a 1.57,1.57 0 0 1 -0.51,-1.23 v -3.3 h 0.93 v 3.22 a 0.88,0.88 0 0 0 1.76,0 v -3.22 h 0.93 v 3.3 a 1.57,1.57 0 0 1 -0.51,1.23 2,2 0 0 1 -2.6,0 z"
       id="path937" />
    <path
       style="fill:#ffffff"
       inkscape:connector-curvature="0"
       class="cls-7"
       d="m 73.34,270.91 v 0.92 h -1.27 v 4 h -0.94 v -4 h -1.27 v -0.92 z"
       id="path939" />
    <path
       style="fill:#ffffff"
       inkscape:connector-curvature="0"
       class="cls-7"
       d="m 36.25,197.19 h 2 V 198 h -2.8 v -4.9 h 0.8 z"
       id="path941" />
    <path
       style="fill:#ffffff"
       inkscape:connector-curvature="0"
       class="cls-7"
       d="m 41.18,198.05 a 2.51,2.51 0 0 1 -2.55,-2.54 2.55,2.55 0 1 1 5.09,0 2.51,2.51 0 0 1 -2.54,2.54 z m 0,-0.78 a 1.67,1.67 0 0 0 1.23,-0.5 1.74,1.74 0 0 0 0.5,-1.26 1.69,1.69 0 0 0 -0.5,-1.25 1.64,1.64 0 0 0 -1.23,-0.51 1.67,1.67 0 0 0 -1.24,0.51 1.69,1.69 0 0 0 -0.5,1.25 1.74,1.74 0 0 0 0.5,1.26 1.7,1.7 0 0 0 1.24,0.5 z"
       id="path943" />
    <path
       style="fill:#ffffff"
       inkscape:connector-curvature="0"
       class="cls-7"
       d="m 45.63,198 -1.39,-4.9 h 0.85 l 1,3.83 1.11,-3.83 H 48 l 1.11,3.83 1,-3.83 H 51 l -1.43,4.9 h -0.93 l -1,-3.58 -1,3.58 z"
       id="path945" />
    <path
       style="fill:#ffffff"
       inkscape:connector-curvature="0"
       class="cls-7"
       d="m 21.42,35.64 a 2.51,2.51 0 0 1 -0.73,-1.82 2.51,2.51 0 0 1 2.56,-2.54 2.42,2.42 0 0 1 2.11,1.17 l -0.7,0.41 a 1.56,1.56 0 0 0 -1.41,-0.8 1.72,1.72 0 0 0 -1.27,0.5 1.89,1.89 0 0 0 0,2.52 1.72,1.72 0 0 0 1.27,0.5 1.56,1.56 0 0 0 1.41,-0.79 l 0.7,0.4 a 2.25,2.25 0 0 1 -0.87,0.86 2.62,2.62 0 0 1 -3.07,-0.41 z"
       id="path947" />
    <path
       style="fill:#ffffff"
       inkscape:connector-curvature="0"
       class="cls-7"
       d="m 29.38,36.27 -1,-1.78 h -0.95 v 1.78 h -0.8 v -4.9 h 2 a 1.57,1.57 0 0 1 1.49,1.63 1.54,1.54 0 0 1 -1,1.42 l 1.11,1.9 z m -2,-4.14 v 1.64 h 1.16 a 0.82,0.82 0 0 0 0,-1.64 z"
       id="path949" />
    <path
       style="fill:#ffffff"
       inkscape:connector-curvature="0"
       class="cls-7"
       d="m 33.7,36.37 a 2.51,2.51 0 0 1 -2.54,-2.55 2.46,2.46 0 0 1 0.73,-1.8 2.49,2.49 0 0 1 1.81,-0.74 2.55,2.55 0 1 1 0,5.09 z m 0,-0.79 a 1.77,1.77 0 0 0 1.23,-3 1.64,1.64 0 0 0 -1.23,-0.51 1.68,1.68 0 0 0 -1.24,0.51 1.76,1.76 0 0 0 1.24,3 z"
       id="path951" />
    <path
       style="fill:#ffffff"
       inkscape:connector-curvature="0"
       class="cls-7"
       d="m 37.09,35.16 0.7,-0.41 A 1.16,1.16 0 0 0 39,35.58 c 0.61,0 0.92,-0.26 0.92,-0.64 a 0.52,0.52 0 0 0 -0.25,-0.46 4.32,4.32 0 0 0 -0.87,-0.35 3.27,3.27 0 0 1 -1,-0.45 1.12,1.12 0 0 1 -0.47,-1 1.24,1.24 0 0 1 0.46,-1 1.67,1.67 0 0 1 1.11,-0.39 1.81,1.81 0 0 1 1.71,1.08 l -0.68,0.39 a 1.07,1.07 0 0 0 -1,-0.69 c -0.47,0 -0.77,0.24 -0.77,0.61 0,0.37 0.24,0.54 1,0.77 a 3.3,3.3 0 0 1 0.4,0.14 2.61,2.61 0 0 1 0.37,0.14 1.46,1.46 0 0 1 0.36,0.19 1.17,1.17 0 0 1 0.5,1 1.3,1.3 0 0 1 -0.55,1.08 1.94,1.94 0 0 1 -1.26,0.39 1.86,1.86 0 0 1 -1.89,-1.23 z"
       id="path953" />
    <path
       style="fill:#ffffff"
       inkscape:connector-curvature="0"
       class="cls-7"
       d="m 41.56,35.16 0.69,-0.41 a 1.17,1.17 0 0 0 1.22,0.83 c 0.61,0 0.91,-0.26 0.91,-0.64 a 0.51,0.51 0 0 0 -0.24,-0.46 4.32,4.32 0 0 0 -0.87,-0.35 3.27,3.27 0 0 1 -1,-0.45 1.1,1.1 0 0 1 -0.48,-1 1.27,1.27 0 0 1 0.46,-1 1.68,1.68 0 0 1 1.12,-0.39 1.83,1.83 0 0 1 1.71,1.08 l -0.68,0.39 a 1.08,1.08 0 0 0 -1,-0.69 c -0.47,0 -0.77,0.24 -0.77,0.61 0,0.37 0.24,0.54 1,0.77 a 3.63,3.63 0 0 1 0.41,0.14 l 0.37,0.14 a 1.3,1.3 0 0 1 0.86,1.2 1.28,1.28 0 0 1 -0.57,1.07 1.89,1.89 0 0 1 -1.25,0.39 1.86,1.86 0 0 1 -1.89,-1.23 z"
       id="path955" />
    <path
       style="fill:#ffffff"
       inkscape:connector-curvature="0"
       class="cls-7"
       d="m 48.7,36.37 a 2.51,2.51 0 0 1 -2.54,-2.55 2.46,2.46 0 0 1 0.73,-1.8 2.49,2.49 0 0 1 1.81,-0.74 2.55,2.55 0 1 1 0,5.09 z m 0,-0.79 a 1.77,1.77 0 0 0 1.23,-3 1.64,1.64 0 0 0 -1.23,-0.51 1.68,1.68 0 0 0 -1.24,0.51 1.76,1.76 0 0 0 1.24,3 z"
       id="path957" />
    <path
       style="fill:#ffffff"
       inkscape:connector-curvature="0"
       class="cls-7"
       d="m 53.57,36.27 -1.7,-4.9 h 0.88 l 1.3,3.93 1.31,-3.93 h 0.88 l -1.7,4.9 z"
       id="path959" />
    <path
       style="fill:#ffffff"
       inkscape:connector-curvature="0"
       class="cls-7"
       d="m 58.13,35.5 h 2.17 v 0.77 h -3 v -4.9 h 2.94 v 0.77 h -2.11 v 1.28 h 2 v 0.76 h -2 z"
       id="path961" />
    <path
       style="fill:#ffffff"
       inkscape:connector-curvature="0"
       class="cls-7"
       d="m 64.39,36.27 -1,-1.78 h -1 v 1.78 h -0.81 v -4.9 h 2 a 1.57,1.57 0 0 1 1.55,1.63 1.54,1.54 0 0 1 -1,1.42 l 1.11,1.9 z m -2,-4.14 v 1.64 h 1.15 a 0.82,0.82 0 0 0 0,-1.64 z"
       id="path963" />
    <path
       style="fill:#ffffff"
       inkscape:connector-curvature="0"
       class="cls-7"
       d="m 37.56,114.5 h 0.81 v 4.9 h -0.81 v -2.12 h -2.1 v 2.12 h -0.8 v -4.9 h 0.8 v 2 h 2.1 z"
       id="path965" />
    <path
       style="fill:#ffffff"
       inkscape:connector-curvature="0"
       class="cls-7"
       d="m 39.7,114.5 h 0.8 v 4.9 h -0.8 z"
       id="path967" />
    <path
       style="fill:#ffffff"
       inkscape:connector-curvature="0"
       class="cls-7"
       d="m 46.6,116.87 v 0.33 a 2.21,2.21 0 0 1 -0.66,1.66 2.43,2.43 0 0 1 -1.74,0.63 2.56,2.56 0 0 1 -1.88,-0.73 2.6,2.6 0 0 1 0,-3.61 2.53,2.53 0 0 1 1.84,-0.74 2.45,2.45 0 0 1 2.13,1.16 l -0.69,0.4 a 1.62,1.62 0 0 0 -1.44,-0.78 1.7,1.7 0 0 0 -1.27,0.51 1.74,1.74 0 0 0 -0.5,1.26 1.7,1.7 0 0 0 0.5,1.25 1.82,1.82 0 0 0 1.32,0.5 1.46,1.46 0 0 0 1.58,-1.12 h -1.64 v -0.72 z"
       id="path969" />
    <path
       style="fill:#ffffff"
       inkscape:connector-curvature="0"
       class="cls-7"
       d="m 50.59,114.5 h 0.81 v 4.9 h -0.81 v -2.12 h -2.1 v 2.12 h -0.81 v -4.9 h 0.81 v 2 h 2.1 z"
       id="path971" />
    <path
       style="fill:#cccccc"
       inkscape:connector-curvature="0"
       class="cls-8"
       d="m 11.33,82.9 a 1.39,1.39 0 0 1 0.92,0.32 1.12,1.12 0 0 1 0.38,0.89 1.08,1.08 0 0 1 -0.39,0.88 1.37,1.37 0 0 1 -0.93,0.33 A 1.27,1.27 0 0 1 10,84.49 l 0.43,-0.25 a 0.79,0.79 0 0 0 0.84,0.58 0.72,0.72 0 1 0 0,-1.43 h -1.04 l 0.14,-2 h 2.11 v 0.48 h -1.65 l -0.06,1 z"
       id="path973" />
    <path
       style="fill:#cccccc"
       inkscape:connector-curvature="0"
       class="cls-8"
       d="m 14.6,85.32 a 1.28,1.28 0 0 1 -1.09,-0.55 2.89,2.89 0 0 1 0,-2.9 1.38,1.38 0 0 1 2.19,0 2.89,2.89 0 0 1 0,2.9 1.29,1.29 0 0 1 -1.1,0.55 z m 0,-0.5 c 0.62,0 1,-0.55 1,-1.5 0,-0.95 -0.36,-1.5 -1,-1.5 -0.64,0 -1,0.54 -1,1.5 0,0.96 0.4,1.5 1,1.5 z"
       id="path975" />
    <path
       style="fill:#cccccc"
       inkscape:connector-curvature="0"
       class="cls-8"
       d="m 19.26,81.4 h 0.51 v 3.84 H 19.26 V 83.51 H 17.4 v 1.73 H 16.89 V 81.4 H 17.4 V 83 h 1.86 z"
       id="path977" />
    <path
       style="fill:#cccccc"
       inkscape:connector-curvature="0"
       class="cls-8"
       d="m 21.24,84.79 h 1.46 v 0.45 H 20.59 V 84.93 L 22,83 h -1.36 v -0.5 h 2 v 0.32 z"
       id="path979" />
    <path
       style="fill:#cccccc"
       inkscape:connector-curvature="0"
       class="cls-8"
       d="m 63.17,82.9 a 1.35,1.35 0 0 1 0.91,0.32 1.09,1.09 0 0 1 0.38,0.89 1.07,1.07 0 0 1 -0.38,0.88 1.39,1.39 0 0 1 -0.93,0.33 1.27,1.27 0 0 1 -1.27,-0.83 l 0.43,-0.25 a 0.79,0.79 0 0 0 0.84,0.58 0.72,0.72 0 1 0 0,-1.43 h -1.08 l 0.14,-2 h 2.11 v 0.48 h -1.65 l -0.06,1 z"
       id="path981" />
    <path
       style="fill:#cccccc"
       inkscape:connector-curvature="0"
       class="cls-8"
       d="m 66.44,85.32 a 1.27,1.27 0 0 1 -1.09,-0.55 2.89,2.89 0 0 1 0,-2.9 1.37,1.37 0 0 1 2.18,0 2.89,2.89 0 0 1 0,2.9 1.26,1.26 0 0 1 -1.09,0.55 z m 0,-0.5 c 0.62,0 1,-0.55 1,-1.5 0,-0.95 -0.36,-1.5 -1,-1.5 -0.64,0 -1,0.54 -1,1.5 0,0.96 0.38,1.5 1,1.5 z"
       id="path983" />
    <path
       style="fill:#cccccc"
       inkscape:connector-curvature="0"
       class="cls-8"
       d="m 70,85.32 a 1.28,1.28 0 0 1 -1,-0.55 2.89,2.89 0 0 1 0,-2.9 1.38,1.38 0 0 1 2.19,0 2.89,2.89 0 0 1 0,2.9 1.29,1.29 0 0 1 -1.19,0.55 z m 0,-0.5 c 0.62,0 1,-0.55 1,-1.5 0,-0.95 -0.36,-1.5 -1,-1.5 -0.64,0 -1,0.54 -1,1.5 0,0.96 0.42,1.5 1,1.5 z"
       id="path985" />
    <path
       style="fill:#cccccc"
       inkscape:connector-curvature="0"
       class="cls-8"
       d="m 74.7,81.4 h 0.51 v 3.84 H 74.7 v -1.73 h -1.86 v 1.73 H 72.33 V 81.4 h 0.51 V 83 h 1.86 z"
       id="path987" />
    <path
       style="fill:#cccccc"
       inkscape:connector-curvature="0"
       class="cls-8"
       d="m 76.68,84.79 h 1.46 v 0.45 H 76 v -0.31 l 1.4,-2 H 76.08 V 82.5 h 2 v 0.32 z"
       id="path989" />
    <path
       style="fill:#cccccc"
       inkscape:connector-curvature="0"
       class="cls-8"
       d="m 58.19,129.17 v 0.34 a 2.2,2.2 0 0 1 -2.32,2.29 2.43,2.43 0 0 1 -1.81,-0.74 2.65,2.65 0 0 1 0,-3.61 2.39,2.39 0 0 1 1.77,-0.74 2.36,2.36 0 0 1 2.06,1.16 l -0.67,0.4 a 1.55,1.55 0 0 0 -1.39,-0.77 1.58,1.58 0 0 0 -1.22,0.5 1.77,1.77 0 0 0 -0.48,1.26 1.68,1.68 0 0 0 1.75,1.74 1.42,1.42 0 0 0 1.52,-1.12 h -1.58 v -0.72 z"
       id="path991" />
    <path
       style="fill:#cccccc"
       inkscape:connector-curvature="0"
       class="cls-8"
       d="m 61.52,128.2 h 0.73 v 3.51 h -0.73 v -0.51 a 1.34,1.34 0 0 1 -1.18,0.6 1.55,1.55 0 0 1 -1.19,-0.54 1.84,1.84 0 0 1 -0.49,-1.31 1.87,1.87 0 0 1 0.49,-1.31 1.57,1.57 0 0 1 1.19,-0.53 1.36,1.36 0 0 1 1.18,0.59 z m -1.07,2.87 a 1,1 0 0 0 0.77,-0.31 1.23,1.23 0 0 0 0,-1.61 1.07,1.07 0 0 0 -1.53,0 1.23,1.23 0 0 0 0,1.61 1,1 0 0 0 0.76,0.31 z"
       id="path993" />
    <path
       style="fill:#cccccc"
       inkscape:connector-curvature="0"
       class="cls-8"
       d="m 63.13,127.54 a 0.5,0.5 0 0 1 0,-0.68 0.45,0.45 0 0 1 0.67,0 0.49,0.49 0 0 1 0,0.68 0.45,0.45 0 0 1 -0.67,0 z m 0,4.17 v -3.51 h 0.73 v 3.51 z"
       id="path995" />
    <path
       style="fill:#cccccc"
       inkscape:connector-curvature="0"
       class="cls-8"
       d="m 67.75,129.56 v 2.15 H 67 v -2.08 a 0.72,0.72 0 0 0 -0.76,-0.81 c -0.51,0 -0.85,0.33 -0.85,1 v 1.88 h -0.74 v -3.5 h 0.74 v 0.45 a 1.12,1.12 0 0 1 1,-0.54 1.29,1.29 0 0 1 1.36,1.45 z"
       id="path997" />
    <path
       style="fill:#cccccc"
       inkscape:connector-curvature="0"
       class="cls-8"
       d="m 72.3,126.8 h 0.76 v 4.91 H 72.3 v -0.51 a 1.4,1.4 0 0 1 -1.22,0.6 1.65,1.65 0 0 1 -1.24,-0.54 1.81,1.81 0 0 1 -0.51,-1.31 1.84,1.84 0 0 1 0.51,-1.31 1.68,1.68 0 0 1 1.24,-0.53 1.42,1.42 0 0 1 1.22,0.59 z m -1.1,4.28 a 1.09,1.09 0 0 0 0.79,-0.32 1.11,1.11 0 0 0 0.31,-0.81 1.11,1.11 0 1 0 -2.21,0 1.11,1.11 0 0 0 0.31,0.81 1.09,1.09 0 0 0 0.8,0.32 z"
       id="path999" />
    <path
       style="fill:#cccccc"
       inkscape:connector-curvature="0"
       class="cls-8"
       d="m 77.56,130.31 a 1.32,1.32 0 0 1 -0.43,1 1.48,1.48 0 0 1 -1,0.4 H 74 v -4.91 h 2 a 1.46,1.46 0 0 1 1,0.39 1.28,1.28 0 0 1 0.42,1 1.17,1.17 0 0 1 -0.5,1 1.25,1.25 0 0 1 0.64,1.12 z m -2.77,-2.75 v 1.29 h 1.15 a 0.65,0.65 0 0 0 0,-1.29 z m 1.3,3.39 a 0.69,0.69 0 0 0 0,-1.37 h -1.3 V 131 Z"
       id="path1001" />
    <path
       style="fill:#cccccc"
       inkscape:connector-curvature="0"
       class="cls-8"
       d="m 58.19,207.73 v 0.33 a 2.18,2.18 0 0 1 -2.32,2.29 2.42,2.42 0 0 1 -1.81,-0.73 2.65,2.65 0 0 1 0,-3.61 2.44,2.44 0 0 1 3.83,0.42 l -0.67,0.4 a 1.55,1.55 0 0 0 -1.39,-0.78 1.59,1.59 0 0 0 -1.22,0.51 1.88,1.88 0 0 0 0,2.51 1.7,1.7 0 0 0 1.27,0.5 1.42,1.42 0 0 0 1.52,-1.12 h -1.58 v -0.72 z"
       id="path1003" />
    <path
       style="fill:#cccccc"
       inkscape:connector-curvature="0"
       class="cls-8"
       d="m 61.52,206.76 h 0.73 v 3.5 h -0.73 v -0.5 a 1.33,1.33 0 0 1 -1.18,0.59 1.54,1.54 0 0 1 -1.19,-0.53 2,2 0 0 1 0,-2.62 1.54,1.54 0 0 1 1.19,-0.53 1.36,1.36 0 0 1 1.18,0.59 z m -1.07,2.87 a 1,1 0 0 0 0.77,-0.31 1.16,1.16 0 0 0 0.3,-0.81 1.12,1.12 0 0 0 -0.3,-0.8 1.07,1.07 0 0 0 -1.53,0 1.12,1.12 0 0 0 -0.3,0.8 1.16,1.16 0 0 0 0.3,0.81 1,1 0 0 0 0.76,0.31 z"
       id="path1005" />
    <path
       style="fill:#cccccc"
       inkscape:connector-curvature="0"
       class="cls-8"
       d="m 63.13,206.09 a 0.5,0.5 0 0 1 0,-0.68 0.46,0.46 0 0 1 0.67,0 0.49,0.49 0 0 1 0,0.68 0.45,0.45 0 0 1 -0.67,0 z m 0,4.17 v -3.5 h 0.73 v 3.5 z"
       id="path1007" />
    <path
       style="fill:#cccccc"
       inkscape:connector-curvature="0"
       class="cls-8"
       d="m 67.75,208.11 v 2.15 H 67 v -2.07 a 0.71,0.71 0 0 0 -0.76,-0.81 c -0.51,0 -0.85,0.33 -0.85,1 v 1.87 h -0.74 v -3.5 h 0.74 v 0.45 a 1.12,1.12 0 0 1 1,-0.54 1.29,1.29 0 0 1 1.36,1.45 z"
       id="path1009" />
    <path
       style="fill:#cccccc"
       inkscape:connector-curvature="0"
       class="cls-8"
       d="m 72.3,205.36 h 0.76 v 4.9 H 72.3 v -0.5 a 1.39,1.39 0 0 1 -1.22,0.59 1.64,1.64 0 0 1 -1.24,-0.53 1.94,1.94 0 0 1 0,-2.62 1.64,1.64 0 0 1 1.24,-0.53 1.42,1.42 0 0 1 1.22,0.59 z m -1.1,4.27 a 1.08,1.08 0 0 0 0.79,-0.31 1.12,1.12 0 0 0 0.31,-0.81 1.11,1.11 0 1 0 -2.21,0 1.12,1.12 0 0 0 0.31,0.81 1.09,1.09 0 0 0 0.8,0.31 z"
       id="path1011" />
    <path
       style="fill:#cccccc"
       inkscape:connector-curvature="0"
       class="cls-8"
       d="m 77.56,208.86 a 1.29,1.29 0 0 1 -0.43,1 1.44,1.44 0 0 1 -1,0.4 H 74 v -4.9 h 2 a 1.42,1.42 0 0 1 1,0.39 1.26,1.26 0 0 1 0.42,1 1.18,1.18 0 0 1 -0.5,1 1.24,1.24 0 0 1 0.64,1.11 z m -2.77,-2.74 v 1.28 h 1.15 a 0.64,0.64 0 0 0 0,-1.28 z m 1.3,3.39 a 0.69,0.69 0 0 0 0,-1.38 h -1.3 v 1.38 z"
       id="path1013" />
    <path
       style="fill:#cccccc"
       inkscape:connector-curvature="0"
       class="cls-8"
       d="M 10.24,131.51 8.85,126.6 H 9.7 l 1,3.83 1.12,-3.83 h 0.74 l 1.1,3.83 1,-3.83 h 0.85 l -1.39,4.91 h -0.93 l -1,-3.58 -1.05,3.58 z"
       id="path1015" />
    <path
       style="fill:#cccccc"
       inkscape:connector-curvature="0"
       class="cls-8"
       d="m 15.94,127.34 a 0.48,0.48 0 0 1 0,-0.68 0.46,0.46 0 0 1 0.68,0 0.48083261,0.48083261 0 1 1 -0.68,0.68 z m 0,4.17 V 128 h 0.76 v 3.51 z"
       id="path1017" />
    <path
       style="fill:#cccccc"
       inkscape:connector-curvature="0"
       class="cls-8"
       d="M 20.2,126.6 H 21 v 4.91 H 20.2 V 131 a 1.4,1.4 0 0 1 -1.22,0.6 1.65,1.65 0 0 1 -1.24,-0.54 1.92,1.92 0 0 1 0,-2.61 1.65,1.65 0 0 1 1.24,-0.54 1.42,1.42 0 0 1 1.22,0.59 z m -1.1,4.28 a 1.09,1.09 0 0 0 0.79,-0.32 1.11,1.11 0 0 0 0.31,-0.81 1.09,1.09 0 0 0 -1.1,-1.12 1.11,1.11 0 0 0 -1.1,1.12 1.08,1.08 0 0 0 0.32,0.81 1.05,1.05 0 0 0 0.78,0.32 z"
       id="path1019" />
    <path
       style="fill:#cccccc"
       inkscape:connector-curvature="0"
       class="cls-8"
       d="m 23.69,128.73 h -0.87 v 1.68 c 0,0.45 0.29,0.44 0.87,0.42 v 0.68 c -1.16,0.14 -1.63,-0.18 -1.63,-1.1 v -1.68 H 21.42 V 128 h 0.64 v -0.75 l 0.76,-0.23 v 1 h 0.87 z"
       id="path1021" />
    <path
       style="fill:#cccccc"
       inkscape:connector-curvature="0"
       class="cls-8"
       d="m 27.45,129.36 v 2.15 H 26.7 v -2.08 a 0.73,0.73 0 0 0 -0.79,-0.81 c -0.53,0 -0.89,0.33 -0.89,1 v 1.88 h -0.75 v -4.9 H 25 v 1.85 a 1.21,1.21 0 0 1 1.09,-0.54 1.3,1.3 0 0 1 1.36,1.45 z"
       id="path1023" />
    <path
       style="fill:#cccccc"
       inkscape:connector-curvature="0"
       class="cls-8"
       d="m 30.88,128.43 a 1.21,1.21 0 0 1 -1.64,0 1.13,1.13 0 0 1 0.82,-1.92 1.14,1.14 0 0 1 0.82,0.32 1.13,1.13 0 0 1 0.32,0.8 1.11,1.11 0 0 1 -0.32,0.8 z m -1.55,2.35 3.23,-3.59 0.37,0.22 -3.22,3.59 z m 1.23,-3.15 a 0.49,0.49 0 0 0 -0.5,-0.51 0.51,0.51 0 0 0 0,1 0.49,0.49 0 0 0 0.5,-0.49 z m 0.92,3.64 a 1.13,1.13 0 0 1 -0.32,-0.8 1.07,1.07 0 0 1 0.32,-0.79 1.18,1.18 0 0 1 1.64,0 1.08,1.08 0 0 1 0.33,0.79 1.17,1.17 0 0 1 -2,0.8 z m 1.32,-0.8 a 0.49,0.49 0 0 0 -0.5,-0.51 0.51,0.51 0 0 0 0,1 0.48,0.48 0 0 0 0.5,-0.49 z"
       id="path1025" />
    <path
       style="fill:#cccccc"
       inkscape:connector-curvature="0"
       class="cls-8"
       d="m 10.24,210.06 -1.39,-4.9 H 9.7 l 1,3.83 1.12,-3.83 h 0.74 l 1.1,3.83 1,-3.83 h 0.85 l -1.39,4.9 h -0.93 l -1,-3.58 -1.05,3.58 z"
       id="path1027" />
    <path
       style="fill:#cccccc"
       inkscape:connector-curvature="0"
       class="cls-8"
       d="m 15.94,205.89 a 0.46,0.46 0 0 1 0,-0.67 0.46,0.46 0 0 1 0.68,0 0.46,0.46 0 0 1 0,0.67 0.48,0.48 0 0 1 -0.68,0 z m 0,4.17 v -3.5 h 0.76 v 3.5 z"
       id="path1029" />
    <path
       style="fill:#cccccc"
       inkscape:connector-curvature="0"
       class="cls-8"
       d="M 20.2,205.16 H 21 v 4.9 h -0.8 v -0.5 a 1.39,1.39 0 0 1 -1.22,0.59 1.64,1.64 0 0 1 -1.24,-0.53 1.94,1.94 0 0 1 0,-2.62 1.64,1.64 0 0 1 1.24,-0.53 1.39,1.39 0 0 1 1.22,0.59 z m -1.1,4.27 a 1.08,1.08 0 0 0 0.79,-0.31 1.12,1.12 0 0 0 0.31,-0.81 1.08,1.08 0 0 0 -1.1,-1.12 1.09,1.09 0 0 0 -1.1,1.12 1.09,1.09 0 0 0 0.32,0.81 1,1 0 0 0 0.78,0.31 z"
       id="path1031" />
    <path
       style="fill:#cccccc"
       inkscape:connector-curvature="0"
       class="cls-8"
       d="M 23.69,207.29 H 22.82 V 209 c 0,0.45 0.29,0.44 0.87,0.41 v 0.68 c -1.16,0.14 -1.63,-0.17 -1.63,-1.09 v -1.68 h -0.64 v -0.73 h 0.64 v -0.76 l 0.76,-0.22 v 1 h 0.87 z"
       id="path1033" />
    <path
       style="fill:#cccccc"
       inkscape:connector-curvature="0"
       class="cls-8"
       d="m 27.45,207.91 v 2.15 H 26.7 V 208 a 0.73,0.73 0 0 0 -0.79,-0.81 c -0.53,0 -0.89,0.33 -0.89,1 v 1.88 h -0.75 v -4.9 H 25 V 207 a 1.21,1.21 0 0 1 1.09,-0.54 1.29,1.29 0 0 1 1.36,1.45 z"
       id="path1035" />
    <path
       style="fill:#cccccc"
       inkscape:connector-curvature="0"
       class="cls-8"
       d="m 30.88,207 a 1.15,1.15 0 0 1 -2,-0.8 1.08,1.08 0 0 1 0.33,-0.79 1.14,1.14 0 0 1 2,0.79 1.13,1.13 0 0 1 -0.33,0.8 z m -1.55,2.35 3.23,-3.59 0.37,0.21 -3.22,3.6 z m 1.23,-3.15 a 0.49,0.49 0 0 0 -0.5,-0.51 0.51,0.51 0 0 0 0,1 0.48,0.48 0 0 0 0.5,-0.5 z m 0.92,3.63 a 1.09,1.09 0 0 1 -0.32,-0.79 1.11,1.11 0 0 1 0.32,-0.8 1.18,1.18 0 0 1 1.64,0 1.12,1.12 0 0 1 0.33,0.8 1.1,1.1 0 0 1 -0.33,0.79 1.18,1.18 0 0 1 -1.64,0 z M 32.8,209 a 0.49,0.49 0 0 0 -0.5,-0.52 0.5,0.5 0 0 0 -0.5,0.52 0.49,0.49 0 0 0 0.5,0.5 0.48,0.48 0 0 0 0.5,-0.5 z"
       id="path1037" />
    <path
       style="fill:#cccccc"
       inkscape:connector-curvature="0"
       class="cls-8"
       d="m 101.69,207.85 v 0.38 a 2.23,2.23 0 0 1 -2.32,2.35 2.44,2.44 0 0 1 -1.82,-0.73 2.65,2.65 0 0 1 0,-3.62 2.45,2.45 0 0 1 3.83,0.39 l -0.79,0.48 a 1.45,1.45 0 0 0 -1.27,-0.68 1.49,1.49 0 0 0 -1.12,0.46 1.62,1.62 0 0 0 -0.43,1.16 1.6,1.6 0 0 0 0.44,1.15 1.57,1.57 0 0 0 1.17,0.45 1.3,1.3 0 0 0 1.38,-0.94 h -1.44 v -0.85 z"
       id="path1039" />
    <path
       style="fill:#cccccc"
       inkscape:connector-curvature="0"
       class="cls-8"
       d="m 105.56,210.48 -0.28,-0.88 h -1.89 l -0.28,0.88 h -1 l 1.66,-4.9 h 1.15 l 1.66,4.9 z m -1.87,-1.78 H 105 l -0.65,-2 z"
       id="path1041" />
    <path
       style="fill:#cccccc"
       inkscape:connector-curvature="0"
       class="cls-8"
       d="m 107.37,205.58 h 0.93 v 4.9 h -0.93 z"
       id="path1043" />
    <path
       style="fill:#cccccc"
       inkscape:connector-curvature="0"
       class="cls-8"
       d="m 112.25,205.58 h 0.94 v 4.9 h -0.71 l -2,-3 v 3 h -0.93 v -4.9 h 0.71 l 2,3 z"
       id="path1045" />
    <path
       style="fill:#cccccc"
       inkscape:connector-curvature="0"
       class="cls-8"
       d="m 104.16,251.29 v 4.9 h -1 V 253 l -1.38,2.28 h -0.11 L 100.33,253 v 3.17 h -1 v -4.9 h 1 l 1.4,2.32 1.41,-2.32 z"
       id="path1047" />
    <path
       style="fill:#cccccc"
       inkscape:connector-curvature="0"
       class="cls-8"
       d="m 105.24,251.29 h 1 v 4.9 h -1 z"
       id="path1049" />
    <path
       style="fill:#cccccc"
       inkscape:connector-curvature="0"
       class="cls-8"
       d="m 111,256.19 h -1.1 l -1,-1.59 -1,1.59 h -1.09 l 1.5,-2.51 -1.31,-2.39 h 1.09 l 0.87,1.47 0.88,-1.47 h 1.09 l -1.42,2.38 z"
       id="path1051" />
    <path
       style="fill:#cccccc"
       inkscape:connector-curvature="0"
       class="cls-8"
       d="m 89.66,275.71 -1.37,-4.9 h 1 l 0.94,3.63 1,-3.63 h 0.82 l 1,3.63 0.94,-3.63 h 1 l -1.37,4.9 h -1.1 l -0.93,-3.24 -0.92,3.24 z"
       id="path1053" />
    <path
       style="fill:#cccccc"
       inkscape:connector-curvature="0"
       class="cls-8"
       d="m 95.81,270.81 h 1 v 4.9 h -1 z"
       id="path1055" />
    <path
       style="fill:#cccccc"
       inkscape:connector-curvature="0"
       class="cls-8"
       d="m 99.81,270.81 a 2.23,2.23 0 0 1 1.68,0.7 2.58,2.58 0 0 1 0,3.49 2.24,2.24 0 0 1 -1.68,0.71 h -2 v -4.9 z m 0,4 a 1.35,1.35 0 0 0 1,-0.42 1.52,1.52 0 0 0 0.4,-1.1 1.5,1.5 0 0 0 -0.4,-1.1 1.32,1.32 0 0 0 -1,-0.43 h -1 v 3 z"
       id="path1057" />
    <path
       style="fill:#cccccc"
       inkscape:connector-curvature="0"
       class="cls-8"
       d="m 106,270.81 v 0.92 h -1.32 v 4 h -1 v -4 h -1.32 v -0.92 z"
       id="path1059" />
    <path
       style="fill:#cccccc"
       inkscape:connector-curvature="0"
       class="cls-8"
       d="m 109.49,270.81 h 1 v 4.9 h -1 v -2 h -1.82 v 2 h -1 v -4.9 h 1 v 1.94 h 1.82 z"
       id="path1061" />
    <path
       style="fill:#cccccc"
       inkscape:connector-curvature="0"
       class="cls-8"
       d="m 114,275.07 a 2.55,2.55 0 0 1 1.83,-4.36 2.45,2.45 0 0 1 2.11,1.15 l -0.83,0.49 a 1.43,1.43 0 0 0 -1.28,-0.7 1.53,1.53 0 0 0 -1.15,0.44 1.63,1.63 0 0 0 -0.44,1.17 1.58,1.58 0 0 0 0.44,1.15 1.54,1.54 0 0 0 1.15,0.45 1.42,1.42 0 0 0 1.28,-0.69 l 0.83,0.48 a 2.42,2.42 0 0 1 -2.11,1.16 2.49,2.49 0 0 1 -1.83,-0.74 z"
       id="path1063" />
    <path
       style="fill:#cccccc"
       inkscape:connector-curvature="0"
       class="cls-8"
       d="m 119.85,275.71 -1.65,-4.9 h 1 l 1.2,3.76 1.19,-3.76 h 1.06 l -1.65,4.9 z"
       id="path1065" />
    <rect
       style="fill:#1a1a1a"
       class="cls-9"
       x="91.980003"
       y="26.5"
       width="26.940001"
       height="11.31"
       rx="5.6500001"
       id="rect1067" />
    <path
       style="fill:#cccccc"
       inkscape:connector-curvature="0"
       class="cls-8"
       d="m 100.62,35.08 a 2.35,2.35 0 0 1 -1.74,-0.74 2.66,2.66 0 0 1 0,-3.62 2.43,2.43 0 0 1 3.49,0 2.64,2.64 0 0 1 0,3.62 2.36,2.36 0 0 1 -1.75,0.74 z m 0,-0.95 a 1.41,1.41 0 0 0 1.09,-0.45 1.58,1.58 0 0 0 0.44,-1.15 1.61,1.61 0 0 0 -0.44,-1.16 1.53,1.53 0 0 0 -2.17,0 1.61,1.61 0 0 0 -0.44,1.16 1.58,1.58 0 0 0 0.44,1.15 1.41,1.41 0 0 0 1.08,0.45 z"
       id="path1069" />
    <path
       style="fill:#cccccc"
       inkscape:connector-curvature="0"
       class="cls-8"
       d="m 104.71,34.62 a 1.61,1.61 0 0 1 -0.51,-1.24 v -3.3 h 0.93 v 3.22 a 0.88,0.88 0 0 0 1.76,0 v -3.22 h 0.93 v 3.3 a 1.61,1.61 0 0 1 -0.51,1.24 2.07,2.07 0 0 1 -2.6,0 z"
       id="path1071" />
    <path
       style="fill:#cccccc"
       inkscape:connector-curvature="0"
       class="cls-8"
       d="M 112.32,30.08 V 31 h -1.27 v 4 h -0.94 v -4 h -1.27 v -0.92 z"
       id="path1073" />
    <path
       style="fill:#cccccc"
       inkscape:connector-curvature="0"
       class="cls-8"
       d="m 120.54,289 h 0.81 v 4.9 h -0.81 v -2.12 h -2.1 v 2.12 h -0.81 V 289 h 0.81 v 2 h 2.1 z"
       id="path1075" />
    <path
       style="fill:#cccccc"
       inkscape:connector-curvature="0"
       class="cls-8"
       d="m 118.89,320.28 h 2 v 0.77 h -2.8 v -4.91 h 0.81 z"
       id="path1077" />
  </g>
  <g
     id="Value_BGs"
     data-name="Value BGs"
     transform="scale(1.3333333)">
    <path
       style="fill:#1a1a1a"
       inkscape:connector-curvature="0"
       class="cls-9"
       d="M 52.63,245.19 H 77.2 a 1,1 0 0 1 1,1 v 9 a 1,1 0 0 1 -1,1 H 52.63 a 1,1 0 0 1 -1,-1 v -9 a 1,1 0 0 1 1,-1 z"
       id="path1080" />
    <path
       inkscape:connector-curvature="0"
       d="m 77.2,245.4 a 0.75,0.75 0 0 1 0.75,0.75 v 9 a 0.75,0.75 0 0 1 -0.75,0.76 H 52.63 a 0.76,0.76 0 0 1 -0.76,-0.76 v -9 a 0.76,0.76 0 0 1 0.76,-0.75 H 77.2 m 0,-0.43 H 52.63 a 1.18,1.18 0 0 0 -1.18,1.18 v 9 a 1.18,1.18 0 0 0 1.18,1.18 H 77.2 a 1.18,1.18 0 0 0 1.18,-1.18 v -9 A 1.18,1.18 0 0 0 77.2,245 Z"
       id="path1082" />
    <path
       style="fill:#1a1a1a"
       inkscape:connector-curvature="0"
       class="cls-9"
       d="m 9,245.19 h 24.55 a 1,1 0 0 1 1,1 v 9 a 1,1 0 0 1 -1,1 H 9 a 1,1 0 0 1 -1,-1 v -9 a 1,1 0 0 1 1,-1 z"
       id="path1084" />
    <path
       inkscape:connector-curvature="0"
       d="m 33.55,245.4 a 0.76,0.76 0 0 1 0.75,0.75 v 9 a 0.76,0.76 0 0 1 -0.75,0.76 H 9 a 0.76,0.76 0 0 1 -0.75,-0.76 v -9 A 0.76,0.76 0 0 1 9,245.4 h 24.55 m 0,-0.43 H 9 a 1.18,1.18 0 0 0 -1.17,1.18 v 9 A 1.18,1.18 0 0 0 9,256.31 h 24.55 a 1.18,1.18 0 0 0 1.17,-1.18 v -9 A 1.18,1.18 0 0 0 33.55,245 Z"
       id="path1086" />
    <rect
       style="fill:#1a1a1a"
       class="cls-9"
       x="28.540001"
       y="88.940002"
       width="29.32"
       height="10.89"
       rx="1.02"
       id="rect1088" />
    <path
       inkscape:connector-curvature="0"
       d="m 56.84,89.16 a 0.79,0.79 0 0 1 0.8,0.79 v 8.86 a 0.8,0.8 0 0 1 -0.8,0.8 H 29.56 a 0.8,0.8 0 0 1 -0.8,-0.8 V 90 a 0.79,0.79 0 0 1 0.8,-0.79 h 27.28 m 0,-0.45 H 29.56 A 1.25,1.25 0 0 0 28.32,90 v 8.86 a 1.25,1.25 0 0 0 1.24,1.24 h 27.28 a 1.25,1.25 0 0 0 1.24,-1.24 V 90 a 1.25,1.25 0 0 0 -1.24,-1.24 z"
       id="path1090" />
    <rect
       style="fill:#1a1a1a"
       class="cls-9"
       x="51.66"
       y="166.63"
       width="26.51"
       height="10.91"
       rx="0.97000003"
       id="rect1092" />
    <path
       inkscape:connector-curvature="0"
       d="m 77.2,166.84 a 0.75,0.75 0 0 1 0.75,0.75 v 9 a 0.75,0.75 0 0 1 -0.75,0.75 H 52.63 a 0.76,0.76 0 0 1 -0.76,-0.75 v -9 a 0.76,0.76 0 0 1 0.76,-0.75 H 77.2 m 0,-0.42 H 52.63 a 1.18,1.18 0 0 0 -1.18,1.17 v 9 a 1.18,1.18 0 0 0 1.18,1.18 H 77.2 a 1.18,1.18 0 0 0 1.18,-1.18 v -9 a 1.18,1.18 0 0 0 -1.18,-1.17 z"
       id="path1094" />
    <rect
       style="fill:#1a1a1a"
       class="cls-9"
       x="8.0100002"
       y="166.63"
       width="26.51"
       height="10.91"
       rx="0.97000003"
       id="rect1096" />
    <path
       inkscape:connector-curvature="0"
       d="m 33.55,166.84 a 0.76,0.76 0 0 1 0.75,0.75 v 9 a 0.76,0.76 0 0 1 -0.75,0.75 H 9 a 0.76,0.76 0 0 1 -0.75,-0.75 v -9 A 0.76,0.76 0 0 1 9,166.84 h 24.55 m 0,-0.42 H 9 a 1.18,1.18 0 0 0 -1.17,1.17 v 9 A 1.18,1.18 0 0 0 9,177.76 h 24.55 a 1.18,1.18 0 0 0 1.17,-1.18 v -9 a 1.18,1.18 0 0 0 -1.17,-1.17 z"
       id="path1098" />
  </g>
  <g
     id="Arc_dots"
     data-name="Arc dots"
     transform="scale(1.3333333)">
    <path
       style="fill:#b3b3b3"
       inkscape:connector-curvature="0"
       class="cls-4"
       d="m 57.7,240.42 a 0.71,0.71 0 0 1 -0.26,-1 v 0 a 0.73,0.73 0 0 1 1,-0.27 v 0 a 0.72,0.72 0 0 1 0.25,1 v 0 a 0.7,0.7 0 0 1 -0.62,0.36 v 0 a 0.69,0.69 0 0 1 -0.37,-0.09 z"
       id="path1101" />
    <path
       style="fill:#b3b3b3"
       inkscape:connector-curvature="0"
       class="cls-4"
       d="m 71.17,240.14 a 0.71,0.71 0 0 1 0.26,-1 v 0 a 0.72,0.72 0 0 1 1,0.26 v 0 a 0.72,0.72 0 0 1 -0.26,1 v 0 a 0.65,0.65 0 0 1 -0.36,0.1 v 0 a 0.73,0.73 0 0 1 -0.64,-0.36 z"
       id="path1103" />
    <path
       style="fill:#707070"
       inkscape:connector-curvature="0"
       class="cls-10"
       d="m 54.71,238.13 v 0 a 0.72,0.72 0 0 1 0,-1 v 0 a 0.73,0.73 0 0 1 1,0 v 0 a 0.71,0.71 0 0 1 0,1 v 0 a 0.69,0.69 0 0 1 -0.51,0.21 v 0 a 0.69,0.69 0 0 1 -0.49,-0.21 z"
       id="path1105" />
    <path
       style="fill:#707070"
       inkscape:connector-curvature="0"
       class="cls-10"
       d="m 74.13,238.1 a 0.71,0.71 0 0 1 0,-1 v 0 a 0.73,0.73 0 0 1 1,0 v 0 a 0.73,0.73 0 0 1 0,1 v 0 a 0.7,0.7 0 0 1 -0.51,0.21 v 0 a 0.67,0.67 0 0 1 -0.49,-0.21 z"
       id="path1107" />
    <path
       style="fill:#707070"
       inkscape:connector-curvature="0"
       class="cls-10"
       d="m 52.4,235.14 a 0.71,0.71 0 0 1 0.27,-1 v 0 a 0.71,0.71 0 0 1 1,0.25 v 0 a 0.71,0.71 0 0 1 -0.26,1 v 0 a 0.78,0.78 0 0 1 -0.36,0.1 v 0 a 0.73,0.73 0 0 1 -0.65,-0.35 z"
       id="path1109" />
    <path
       style="fill:#707070"
       inkscape:connector-curvature="0"
       class="cls-10"
       d="m 76.45,235.38 a 0.72,0.72 0 0 1 -0.25,-1 v 0 a 0.71,0.71 0 0 1 1,-0.27 v 0 a 0.72,0.72 0 0 1 0.25,1 v 0 a 0.7,0.7 0 0 1 -0.61,0.35 v 0 a 0.81,0.81 0 0 1 -0.39,-0.08 z"
       id="path1111" />
    <path
       style="fill:#707070"
       inkscape:connector-curvature="0"
       class="cls-10"
       d="m 51,231.66 a 0.73,0.73 0 0 1 0.51,-0.88 v 0 a 0.71,0.71 0 0 1 0.87,0.51 v 0 a 0.72,0.72 0 0 1 -0.5,0.88 H 51.69 A 0.71,0.71 0 0 1 51,231.66 Z"
       id="path1113" />
    <path
       style="fill:#707070"
       inkscape:connector-curvature="0"
       class="cls-10"
       d="m 78,232.14 a 0.73,0.73 0 0 1 -0.51,-0.88 v 0 a 0.71,0.71 0 0 1 0.87,-0.51 v 0 a 0.73,0.73 0 0 1 0.51,0.88 v 0 a 0.71,0.71 0 0 1 -0.69,0.54 v 0 A 0.52,0.52 0 0 1 78,232.14 Z"
       id="path1115" />
    <path
       style="fill:#707070"
       inkscape:connector-curvature="0"
       class="cls-10"
       d="m 50.46,227.92 a 0.71,0.71 0 0 1 0.71,-0.71 v 0 a 0.71,0.71 0 0 1 0.72,0.71 v 0 a 0.72,0.72 0 0 1 -0.72,0.72 v 0 a 0.72,0.72 0 0 1 -0.71,-0.72 z"
       id="path1117" />
    <path
       style="fill:#707070"
       inkscape:connector-curvature="0"
       class="cls-10"
       d="m 77.94,227.89 v 0 0 0 a 0.71,0.71 0 0 1 0.71,-0.72 v 0 a 0.72,0.72 0 0 1 0.72,0.72 v 0 0 0 0 0 a 0.71,0.71 0 0 1 -0.71,0.72 v 0 a 0.71,0.71 0 0 1 -0.72,-0.72 z"
       id="path1119" />
    <path
       style="fill:#707070"
       inkscape:connector-curvature="0"
       class="cls-10"
       d="m 51.45,225.05 a 0.7,0.7 0 0 1 -0.51,-0.86 v 0 a 0.72,0.72 0 0 1 0.87,-0.52 v 0 a 0.74,0.74 0 0 1 0.52,0.88 v 0 a 0.74,0.74 0 0 1 -0.7,0.53 v 0 z"
       id="path1121" />
    <path
       style="fill:#707070"
       inkscape:connector-curvature="0"
       class="cls-10"
       d="m 77.48,224.47 a 0.71,0.71 0 0 1 0.51,-0.87 v 0 a 0.7,0.7 0 0 1 0.87,0.5 v 0 a 0.72,0.72 0 0 1 -0.5,0.88 v 0 h -0.19 v 0 a 0.71,0.71 0 0 1 -0.69,-0.51 z"
       id="path1123" />
    <path
       style="fill:#707070"
       inkscape:connector-curvature="0"
       class="cls-10"
       d="m 52.64,221.67 a 0.72,0.72 0 0 1 -0.27,-1 v 0 a 0.71,0.71 0 0 1 1,-0.27 v 0 a 0.7,0.7 0 0 1 0.26,1 v 0 a 0.7,0.7 0 0 1 -0.62,0.36 v 0 a 0.65,0.65 0 0 1 -0.37,-0.09 z"
       id="path1125" />
    <path
       style="fill:#707070"
       inkscape:connector-curvature="0"
       class="cls-10"
       d="m 76.17,221.34 a 0.73,0.73 0 0 1 0.25,-1 v 0 a 0.73,0.73 0 0 1 1,0.26 v 0 a 0.71,0.71 0 0 1 -0.26,1 v 0 a 0.7,0.7 0 0 1 -0.36,0.1 v 0 a 0.72,0.72 0 0 1 -0.63,-0.36 z"
       id="path1127" />
    <path
       style="fill:#707070"
       inkscape:connector-curvature="0"
       class="cls-10"
       d="m 54.67,218.7 a 0.69,0.69 0 0 1 0,-1 v 0 a 0.73,0.73 0 0 1 1,0 v 0 a 0.71,0.71 0 0 1 0,1 v 0 a 0.67,0.67 0 0 1 -0.5,0.21 v 0 a 0.66,0.66 0 0 1 -0.5,-0.21 z"
       id="path1129" />
    <path
       style="fill:#707070"
       inkscape:connector-curvature="0"
       class="cls-10"
       d="m 74.09,218.65 a 0.71,0.71 0 0 1 0,-1 v 0 a 0.71,0.71 0 0 1 1,0 v 0 a 0.71,0.71 0 0 1 0,1 v 0 a 0.71,0.71 0 0 1 -0.51,0.21 v 0 a 0.7,0.7 0 0 1 -0.49,-0.21 z"
       id="path1131" />
    <path
       style="fill:#707070"
       inkscape:connector-curvature="0"
       class="cls-10"
       d="m 57.4,216.37 a 0.7,0.7 0 0 1 0.25,-1 v 0 a 0.72,0.72 0 0 1 1,0.25 v 0 a 0.72,0.72 0 0 1 -0.26,1 v 0 a 0.8,0.8 0 0 1 -0.36,0.09 v 0 a 0.68,0.68 0 0 1 -0.63,-0.34 z"
       id="path1133" />
    <path
       style="fill:#707070"
       inkscape:connector-curvature="0"
       class="cls-10"
       d="m 71.39,216.59 a 0.71,0.71 0 0 1 -0.27,-1 v 0 a 0.71,0.71 0 0 1 1,-0.27 v 0 a 0.7,0.7 0 0 1 0.26,1 v 0 a 0.71,0.71 0 0 1 -0.62,0.36 v 0 a 0.63,0.63 0 0 1 -0.37,-0.09 z"
       id="path1135" />
    <path
       style="fill:#707070"
       inkscape:connector-curvature="0"
       class="cls-10"
       d="m 60.63,214.82 a 0.71,0.71 0 0 1 0.5,-0.88 v 0 a 0.71,0.71 0 0 1 0.88,0.5 v 0 a 0.71,0.71 0 0 1 -0.5,0.88 v 0 h -0.2 v 0 a 0.71,0.71 0 0 1 -0.68,-0.5 z"
       id="path1137" />
    <path
       style="fill:#707070"
       inkscape:connector-curvature="0"
       class="cls-10"
       d="m 68.25,215.3 a 0.71,0.71 0 0 1 -0.51,-0.88 v 0 a 0.71,0.71 0 0 1 0.87,-0.51 v 0 a 0.71,0.71 0 0 1 0.51,0.87 v 0 a 0.71,0.71 0 0 1 -0.69,0.53 v 0 z"
       id="path1139" />
    <path
       style="fill:#b3b3b3"
       inkscape:connector-curvature="0"
       class="cls-4"
       d="m 64.16,214.16 a 0.71,0.71 0 0 1 0.71,-0.72 v 0 a 0.71,0.71 0 0 1 0.72,0.71 v 0 a 0.72,0.72 0 0 1 -0.72,0.72 v 0 a 0.71,0.71 0 0 1 -0.71,-0.71 z"
       id="path1141" />
    <path
       style="fill:#b3b3b3"
       inkscape:connector-curvature="0"
       class="cls-4"
       d="m 14.05,240.42 a 0.71,0.71 0 0 1 -0.26,-1 v 0 a 0.72,0.72 0 0 1 1,-0.27 v 0 a 0.71,0.71 0 0 1 0.26,1 v 0 a 0.7,0.7 0 0 1 -0.62,0.36 v 0 a 0.67,0.67 0 0 1 -0.38,-0.09 z"
       id="path1143" />
    <path
       style="fill:#b3b3b3"
       inkscape:connector-curvature="0"
       class="cls-4"
       d="m 27.52,240.14 a 0.7,0.7 0 0 1 0.26,-1 v 0 a 0.72,0.72 0 0 1 1,0.26 v 0 a 0.73,0.73 0 0 1 -0.26,1 v 0 a 0.68,0.68 0 0 1 -0.36,0.1 v 0 a 0.72,0.72 0 0 1 -0.64,-0.36 z"
       id="path1145" />
    <path
       style="fill:#707070"
       inkscape:connector-curvature="0"
       class="cls-10"
       d="m 11.05,238.13 v 0 a 0.73,0.73 0 0 1 0,-1 v 0 a 0.74,0.74 0 0 1 1,0 v 0 a 0.73,0.73 0 0 1 0,1 v 0 a 0.7,0.7 0 0 1 -0.51,0.21 v 0 a 0.73,0.73 0 0 1 -0.49,-0.21 z"
       id="path1147" />
    <path
       style="fill:#707070"
       inkscape:connector-curvature="0"
       class="cls-10"
       d="m 30.47,238.1 a 0.73,0.73 0 0 1 0,-1 v 0 a 0.73,0.73 0 0 1 1,0 v 0 a 0.71,0.71 0 0 1 0,1 v 0 a 0.67,0.67 0 0 1 -0.5,0.21 v 0 a 0.7,0.7 0 0 1 -0.5,-0.21 z"
       id="path1149" />
    <path
       style="fill:#707070"
       inkscape:connector-curvature="0"
       class="cls-10"
       d="m 8.75,235.14 a 0.7,0.7 0 0 1 0.26,-1 H 9 a 0.72,0.72 0 0 1 1,0.25 v 0 a 0.71,0.71 0 0 1 -0.26,1 v 0 a 0.78,0.78 0 0 1 -0.36,0.1 v 0 a 0.72,0.72 0 0 1 -0.63,-0.35 z"
       id="path1151" />
    <path
       style="fill:#707070"
       inkscape:connector-curvature="0"
       class="cls-10"
       d="m 32.8,235.38 a 0.72,0.72 0 0 1 -0.26,-1 v 0 a 0.71,0.71 0 0 1 1,-0.27 v 0 a 0.72,0.72 0 0 1 0.26,1 v 0 a 0.7,0.7 0 0 1 -0.62,0.35 v 0 a 0.77,0.77 0 0 1 -0.38,-0.08 z"
       id="path1153" />
    <path
       style="fill:#707070"
       inkscape:connector-curvature="0"
       class="cls-10"
       d="m 7.3,231.66 a 0.72,0.72 0 0 1 0.5,-0.88 v 0 a 0.72,0.72 0 0 1 0.88,0.51 v 0 a 0.72,0.72 0 0 1 -0.5,0.88 H 8 a 0.7,0.7 0 0 1 -0.7,-0.51 z"
       id="path1155" />
    <path
       style="fill:#707070"
       inkscape:connector-curvature="0"
       class="cls-10"
       d="m 34.35,232.14 a 0.72,0.72 0 0 1 -0.5,-0.88 v 0 a 0.71,0.71 0 0 1 0.87,-0.51 v 0 a 0.73,0.73 0 0 1 0.51,0.88 v 0 a 0.72,0.72 0 0 1 -0.7,0.54 v 0 a 0.62,0.62 0 0 1 -0.18,-0.03 z"
       id="path1157" />
    <path
       style="fill:#707070"
       inkscape:connector-curvature="0"
       class="cls-10"
       d="m 6.8,227.92 a 0.71,0.71 0 0 1 0.72,-0.71 v 0 a 0.7,0.7 0 0 1 0.71,0.71 v 0 a 0.71,0.71 0 0 1 -0.71,0.72 v 0 A 0.73,0.73 0 0 1 6.8,227.92 Z"
       id="path1159" />
    <path
       style="fill:#707070"
       inkscape:connector-curvature="0"
       class="cls-10"
       d="m 34.29,227.89 v 0 0 0 a 0.71,0.71 0 0 1 0.7,-0.72 v 0 a 0.73,0.73 0 0 1 0.73,0.72 v 0 0 0 0 0 A 0.72,0.72 0 0 1 35,228.61 v 0 a 0.71,0.71 0 0 1 -0.71,-0.72 z"
       id="path1161" />
    <path
       style="fill:#707070"
       inkscape:connector-curvature="0"
       class="cls-10"
       d="m 7.79,225.05 a 0.69,0.69 0 0 1 -0.5,-0.86 v 0 a 0.72,0.72 0 0 1 0.87,-0.52 v 0 a 0.73,0.73 0 0 1 0.51,0.88 v 0 a 0.71,0.71 0 0 1 -0.69,0.53 H 8 a 0.63,0.63 0 0 1 -0.21,-0.03 z"
       id="path1163" />
    <path
       style="fill:#707070"
       inkscape:connector-curvature="0"
       class="cls-10"
       d="m 33.83,224.47 a 0.7,0.7 0 0 1 0.5,-0.87 v 0 a 0.71,0.71 0 0 1 0.88,0.5 v 0 a 0.72,0.72 0 0 1 -0.5,0.88 v 0 h -0.19 v 0 a 0.71,0.71 0 0 1 -0.69,-0.51 z"
       id="path1165" />
    <path
       style="fill:#707070"
       inkscape:connector-curvature="0"
       class="cls-10"
       d="m 9,221.67 a 0.71,0.71 0 0 1 -0.27,-1 v 0 a 0.71,0.71 0 0 1 1,-0.27 v 0 a 0.71,0.71 0 0 1 0.26,1 v 0 a 0.71,0.71 0 0 1 -0.62,0.36 v 0 A 0.63,0.63 0 0 1 9,221.67 Z"
       id="path1167" />
    <path
       style="fill:#707070"
       inkscape:connector-curvature="0"
       class="cls-10"
       d="m 32.51,221.34 a 0.73,0.73 0 0 1 0.26,-1 v 0 a 0.72,0.72 0 0 1 1,0.26 v 0 a 0.71,0.71 0 0 1 -0.25,1 v 0 a 0.71,0.71 0 0 1 -0.37,0.1 v 0 a 0.75,0.75 0 0 1 -0.64,-0.36 z"
       id="path1169" />
    <path
       style="fill:#707070"
       inkscape:connector-curvature="0"
       class="cls-10"
       d="m 11,218.7 a 0.69,0.69 0 0 1 0,-1 v 0 a 0.73,0.73 0 0 1 1,0 v 0 a 0.73,0.73 0 0 1 0,1 v 0 a 0.7,0.7 0 0 1 -0.51,0.21 v 0 A 0.65,0.65 0 0 1 11,218.7 Z"
       id="path1171" />
    <path
       style="fill:#707070"
       inkscape:connector-curvature="0"
       class="cls-10"
       d="m 30.44,218.65 a 0.71,0.71 0 0 1 0,-1 v 0 a 0.71,0.71 0 0 1 1,0 v 0 a 0.73,0.73 0 0 1 0,1 v 0 a 0.73,0.73 0 0 1 -0.51,0.21 v 0 a 0.7,0.7 0 0 1 -0.49,-0.21 z"
       id="path1173" />
    <path
       style="fill:#707070"
       inkscape:connector-curvature="0"
       class="cls-10"
       d="m 13.74,216.37 a 0.7,0.7 0 0 1 0.26,-1 v 0 a 0.71,0.71 0 0 1 1,0.25 v 0 a 0.72,0.72 0 0 1 -0.25,1 v 0 a 0.81,0.81 0 0 1 -0.37,0.09 v 0 a 0.7,0.7 0 0 1 -0.64,-0.34 z"
       id="path1175" />
    <path
       style="fill:#707070"
       inkscape:connector-curvature="0"
       class="cls-10"
       d="m 27.74,216.59 a 0.7,0.7 0 0 1 -0.27,-1 v 0 a 0.7,0.7 0 0 1 1,-0.27 v 0 a 0.7,0.7 0 0 1 0.27,1 v 0 a 0.71,0.71 0 0 1 -0.62,0.36 v 0 a 0.61,0.61 0 0 1 -0.38,-0.09 z"
       id="path1177" />
    <path
       style="fill:#707070"
       inkscape:connector-curvature="0"
       class="cls-10"
       d="m 17,214.82 a 0.72,0.72 0 0 1 0.51,-0.88 v 0 a 0.72,0.72 0 0 1 0.88,0.5 v 0 a 0.73,0.73 0 0 1 -0.51,0.88 v 0 h -0.19 v 0 A 0.73,0.73 0 0 1 17,214.82 Z"
       id="path1179" />
    <path
       style="fill:#707070"
       inkscape:connector-curvature="0"
       class="cls-10"
       d="m 24.59,215.3 a 0.71,0.71 0 0 1 -0.5,-0.88 v 0 a 0.7,0.7 0 0 1 0.86,-0.51 v 0 a 0.72,0.72 0 0 1 0.52,0.87 v 0 a 0.73,0.73 0 0 1 -0.7,0.53 v 0 z"
       id="path1181" />
    <path
       style="fill:#b3b3b3"
       inkscape:connector-curvature="0"
       class="cls-4"
       d="m 20.5,214.16 a 0.72,0.72 0 0 1 0.72,-0.72 v 0 a 0.71,0.71 0 0 1 0.71,0.71 v 0 a 0.71,0.71 0 0 1 -0.71,0.72 v 0 a 0.72,0.72 0 0 1 -0.72,-0.71 z"
       id="path1183" />
    <path
       style="fill:#b3b3b3"
       inkscape:connector-curvature="0"
       class="cls-4"
       d="m 57.7,161.86 a 0.7,0.7 0 0 1 -0.26,-1 v 0 a 0.72,0.72 0 0 1 1,-0.26 v 0 a 0.71,0.71 0 0 1 0.25,1 v 0 a 0.69,0.69 0 0 1 -0.62,0.35 v 0 a 0.69,0.69 0 0 1 -0.37,-0.09 z"
       id="path1185" />
    <path
       style="fill:#b3b3b3"
       inkscape:connector-curvature="0"
       class="cls-4"
       d="m 71.17,161.59 a 0.71,0.71 0 0 1 0.26,-1 v 0 a 0.72,0.72 0 0 1 1,0.25 v 0 a 0.72,0.72 0 0 1 -0.26,1 v 0 a 0.65,0.65 0 0 1 -0.36,0.1 v 0 a 0.72,0.72 0 0 1 -0.64,-0.35 z"
       id="path1187" />
    <path
       style="fill:#707070"
       inkscape:connector-curvature="0"
       class="cls-10"
       d="m 54.71,159.58 v 0 a 0.72,0.72 0 0 1 0,-1 v 0 a 0.71,0.71 0 0 1 1,0 v 0 a 0.71,0.71 0 0 1 0,1 v 0 a 0.73,0.73 0 0 1 -0.51,0.21 v 0 a 0.74,0.74 0 0 1 -0.49,-0.21 z"
       id="path1189" />
    <path
       style="fill:#707070"
       inkscape:connector-curvature="0"
       class="cls-10"
       d="m 74.13,159.55 a 0.71,0.71 0 0 1 0,-1 v 0 a 0.71,0.71 0 0 1 1,0 v 0 a 0.73,0.73 0 0 1 0,1 v 0 a 0.75,0.75 0 0 1 -0.51,0.21 v 0 a 0.7,0.7 0 0 1 -0.49,-0.21 z"
       id="path1191" />
    <path
       style="fill:#707070"
       inkscape:connector-curvature="0"
       class="cls-10"
       d="m 52.4,156.58 a 0.71,0.71 0 0 1 0.27,-1 v 0 a 0.71,0.71 0 0 1 1,0.26 v 0 a 0.7,0.7 0 0 1 -0.26,1 v 0 A 0.69,0.69 0 0 1 53,157 v 0 a 0.74,0.74 0 0 1 -0.6,-0.42 z"
       id="path1193" />
    <path
       style="fill:#707070"
       inkscape:connector-curvature="0"
       class="cls-10"
       d="m 76.45,156.82 a 0.72,0.72 0 0 1 -0.25,-1 v 0 a 0.72,0.72 0 0 1 1,-0.27 v 0 a 0.72,0.72 0 0 1 0.25,1 v 0 a 0.71,0.71 0 0 1 -0.61,0.36 v 0 a 0.71,0.71 0 0 1 -0.39,-0.09 z"
       id="path1195" />
    <path
       style="fill:#707070"
       inkscape:connector-curvature="0"
       class="cls-10"
       d="m 51,153.1 a 0.71,0.71 0 0 1 0.51,-0.87 v 0 a 0.7,0.7 0 0 1 0.87,0.5 v 0 a 0.72,0.72 0 0 1 -0.5,0.88 v 0 a 0.58,0.58 0 0 1 -0.19,0 v 0 A 0.71,0.71 0 0 1 51,153.1 Z"
       id="path1197" />
    <path
       style="fill:#707070"
       inkscape:connector-curvature="0"
       class="cls-10"
       d="m 78,153.58 a 0.72,0.72 0 0 1 -0.51,-0.88 v 0 a 0.7,0.7 0 0 1 0.87,-0.5 v 0 a 0.72,0.72 0 0 1 0.51,0.88 v 0 a 0.71,0.71 0 0 1 -0.69,0.53 v 0 A 0.52,0.52 0 0 1 78,153.58 Z"
       id="path1199" />
    <path
       style="fill:#707070"
       inkscape:connector-curvature="0"
       class="cls-10"
       d="m 50.46,149.37 a 0.71,0.71 0 0 1 0.71,-0.72 v 0 a 0.72,0.72 0 0 1 0.72,0.72 v 0 a 0.71,0.71 0 0 1 -0.72,0.71 v 0 a 0.71,0.71 0 0 1 -0.71,-0.71 z"
       id="path1201" />
    <path
       style="fill:#707070"
       inkscape:connector-curvature="0"
       class="cls-10"
       d="m 77.94,149.34 v 0 -0.05 0 a 0.71,0.71 0 0 1 0.71,-0.71 v 0 a 0.71,0.71 0 0 1 0.72,0.71 v 0 0 0 0 0 A 0.71,0.71 0 0 1 78.66,150 v 0 a 0.71,0.71 0 0 1 -0.72,-0.66 z"
       id="path1203" />
    <path
       style="fill:#707070"
       inkscape:connector-curvature="0"
       class="cls-10"
       d="m 51.45,146.5 a 0.71,0.71 0 0 1 -0.51,-0.87 v 0 a 0.71,0.71 0 0 1 0.87,-0.51 v 0 a 0.73,0.73 0 0 1 0.52,0.87 v 0 a 0.73,0.73 0 0 1 -0.7,0.54 v 0 a 0.57,0.57 0 0 1 -0.18,-0.03 z"
       id="path1205" />
    <path
       style="fill:#707070"
       inkscape:connector-curvature="0"
       class="cls-10"
       d="M 77.48,145.92 A 0.72,0.72 0 0 1 78,145 v 0 a 0.7,0.7 0 0 1 0.87,0.5 v 0 a 0.71,0.71 0 0 1 -0.5,0.88 v 0 h -0.19 v 0 a 0.72,0.72 0 0 1 -0.7,-0.46 z"
       id="path1207" />
    <path
       style="fill:#707070"
       inkscape:connector-curvature="0"
       class="cls-10"
       d="m 52.64,143.11 a 0.72,0.72 0 0 1 -0.27,-1 v 0 a 0.72,0.72 0 0 1 1,-0.27 v 0 a 0.71,0.71 0 0 1 0.26,1 v 0 a 0.7,0.7 0 0 1 -0.62,0.36 v 0 a 0.67,0.67 0 0 1 -0.37,-0.09 z"
       id="path1209" />
    <path
       style="fill:#707070"
       inkscape:connector-curvature="0"
       class="cls-10"
       d="m 76.17,142.78 a 0.72,0.72 0 0 1 0.25,-1 v 0 a 0.73,0.73 0 0 1 1,0.25 v 0 a 0.72,0.72 0 0 1 -0.26,1 v 0 a 0.8,0.8 0 0 1 -0.36,0.09 v 0 a 0.7,0.7 0 0 1 -0.63,-0.34 z"
       id="path1211" />
    <path
       style="fill:#707070"
       inkscape:connector-curvature="0"
       class="cls-10"
       d="m 54.67,140.15 a 0.7,0.7 0 0 1 0,-1 v 0 a 0.71,0.71 0 0 1 1,0 v 0 a 0.71,0.71 0 0 1 0,1 v 0 a 0.7,0.7 0 0 1 -0.5,0.21 v 0 a 0.69,0.69 0 0 1 -0.5,-0.21 z"
       id="path1213" />
    <path
       style="fill:#707070"
       inkscape:connector-curvature="0"
       class="cls-10"
       d="m 74.09,140.09 a 0.71,0.71 0 0 1 0,-1 v 0 a 0.71,0.71 0 0 1 1,0 v 0 a 0.71,0.71 0 0 1 0,1 v 0 a 0.71,0.71 0 0 1 -0.51,0.21 v 0 a 0.7,0.7 0 0 1 -0.49,-0.21 z"
       id="path1215" />
    <path
       style="fill:#707070"
       inkscape:connector-curvature="0"
       class="cls-10"
       d="m 57.4,137.81 a 0.7,0.7 0 0 1 0.25,-1 v 0 a 0.72,0.72 0 0 1 1,0.26 v 0 a 0.71,0.71 0 0 1 -0.26,1 v 0 a 0.7,0.7 0 0 1 -0.36,0.1 v 0 a 0.69,0.69 0 0 1 -0.63,-0.36 z"
       id="path1217" />
    <path
       style="fill:#707070"
       inkscape:connector-curvature="0"
       class="cls-10"
       d="m 71.39,138 a 0.71,0.71 0 0 1 -0.27,-1 v 0 a 0.72,0.72 0 0 1 1,-0.27 v 0 a 0.71,0.71 0 0 1 0.26,1 v 0 a 0.73,0.73 0 0 1 -0.62,0.36 v 0 A 0.64,0.64 0 0 1 71.39,138 Z"
       id="path1219" />
    <path
       style="fill:#707070"
       inkscape:connector-curvature="0"
       class="cls-10"
       d="m 60.63,136.26 a 0.72,0.72 0 0 1 0.5,-0.88 v 0 a 0.72,0.72 0 0 1 0.88,0.51 v 0 a 0.71,0.71 0 0 1 -0.5,0.87 v 0 h -0.2 v 0 a 0.71,0.71 0 0 1 -0.68,-0.5 z"
       id="path1221" />
    <path
       style="fill:#707070"
       inkscape:connector-curvature="0"
       class="cls-10"
       d="m 68.25,136.75 a 0.72,0.72 0 0 1 -0.51,-0.88 v 0 a 0.73,0.73 0 0 1 0.87,-0.52 v 0 a 0.71,0.71 0 0 1 0.51,0.87 v 0 a 0.71,0.71 0 0 1 -0.69,0.53 z"
       id="path1223" />
    <path
       style="fill:#b3b3b3"
       inkscape:connector-curvature="0"
       class="cls-4"
       d="m 64.16,135.6 a 0.7,0.7 0 0 1 0.71,-0.71 v 0 a 0.71,0.71 0 0 1 0.72,0.7 v 0 a 0.73,0.73 0 0 1 -0.72,0.73 v 0 a 0.72,0.72 0 0 1 -0.71,-0.72 z"
       id="path1225" />
    <path
       style="fill:#b3b3b3"
       inkscape:connector-curvature="0"
       class="cls-4"
       d="m 32.18,84.06 a 1.08,1.08 0 0 1 -0.39,-1.49 v 0 a 1.1,1.1 0 0 1 1.49,-0.41 v 0 a 1.1,1.1 0 0 1 0.39,1.5 v 0 a 1.07,1.07 0 0 1 -1,0.54 v 0 a 1.12,1.12 0 0 1 -0.49,-0.14 z"
       id="path1227" />
    <path
       style="fill:#b3b3b3"
       inkscape:connector-curvature="0"
       class="cls-4"
       d="m 52.76,83.63 a 1.09,1.09 0 0 1 0.39,-1.48 v 0 a 1.09,1.09 0 0 1 1.5,0.39 v 0 a 1.1,1.1 0 0 1 -0.39,1.5 v 0 a 1.11,1.11 0 0 1 -0.55,0.15 v 0 a 1.11,1.11 0 0 1 -0.95,-0.56 z"
       id="path1229" />
    <path
       style="fill:#707070"
       inkscape:connector-curvature="0"
       class="cls-10"
       d="m 27.61,80.56 v 0 a 1.1,1.1 0 0 1 0,-1.56 v 0 a 1.1,1.1 0 0 1 1.54,0 v 0 a 1.09,1.09 0 0 1 0,1.55 v 0 a 1.05,1.05 0 0 1 -0.77,0.32 v 0 a 1.12,1.12 0 0 1 -0.77,-0.31 z"
       id="path1231" />
    <path
       style="fill:#707070"
       inkscape:connector-curvature="0"
       class="cls-10"
       d="m 57.27,80.52 a 1.11,1.11 0 0 1 0,-1.55 v 0 a 1.11,1.11 0 0 1 1.55,0 v 0 a 1.11,1.11 0 0 1 0,1.55 v 0 a 1.08,1.08 0 0 1 -0.77,0.32 v 0 a 1.09,1.09 0 0 1 -0.78,-0.32 z"
       id="path1233" />
    <path
       style="fill:#707070"
       inkscape:connector-curvature="0"
       class="cls-10"
       d="m 24.09,76 a 1.08,1.08 0 0 1 0.4,-1.49 v 0 a 1.09,1.09 0 0 1 1.49,0.4 v 0 a 1.07,1.07 0 0 1 -0.39,1.48 v 0 a 1.16,1.16 0 0 1 -0.56,0.16 v 0 A 1.1,1.1 0 0 1 24.09,76 Z"
       id="path1235" />
    <path
       style="fill:#707070"
       inkscape:connector-curvature="0"
       class="cls-10"
       d="m 60.83,76.35 a 1.09,1.09 0 0 1 -0.4,-1.48 v 0 a 1.09,1.09 0 0 1 1.5,-0.41 v 0 a 1.12,1.12 0 0 1 0.4,1.5 v 0 a 1.1,1.1 0 0 1 -0.95,0.54 v 0 a 1,1 0 0 1 -0.55,-0.15 z"
       id="path1237" />
    <path
       style="fill:#707070"
       inkscape:connector-curvature="0"
       class="cls-10"
       d="m 21.87,70.67 a 1.09,1.09 0 0 1 0.78,-1.34 v 0 a 1.1,1.1 0 0 1 1.34,0.78 v 0 a 1.09,1.09 0 0 1 -0.78,1.34 v 0 a 0.89,0.89 0 0 1 -0.29,0 v 0 a 1.09,1.09 0 0 1 -1.05,-0.78 z"
       id="path1239" />
    <path
       style="fill:#707070"
       inkscape:connector-curvature="0"
       class="cls-10"
       d="m 63.2,71.4 a 1.09,1.09 0 0 1 -0.77,-1.34 v 0 a 1.07,1.07 0 0 1 1.33,-0.77 v 0 a 1.11,1.11 0 0 1 0.78,1.34 v 0 a 1.1,1.1 0 0 1 -1.06,0.82 v 0 A 0.92,0.92 0 0 1 63.2,71.4 Z"
       id="path1241" />
    <path
       style="fill:#707070"
       inkscape:connector-curvature="0"
       class="cls-10"
       d="m 21.12,65 a 1.09,1.09 0 0 1 1.09,-1.1 v 0 A 1.08,1.08 0 0 1 23.3,65 v 0 a 1.09,1.09 0 0 1 -1.09,1.09 v 0 A 1.1,1.1 0 0 1 21.12,65 Z"
       id="path1243" />
    <path
       style="fill:#707070"
       inkscape:connector-curvature="0"
       class="cls-10"
       d="m 63.1,64.92 v 0 -0.08 0 a 1.09,1.09 0 0 1 1.08,-1.09 v 0 a 1.09,1.09 0 0 1 1.1,1.09 v 0 0 0 0 0 A 1.09,1.09 0 0 1 64.19,66 v 0 A 1.09,1.09 0 0 1 63.1,64.92 Z"
       id="path1245" />
    <path
       style="fill:#707070"
       inkscape:connector-curvature="0"
       class="cls-10"
       d="m 22.63,60.58 a 1.07,1.07 0 0 1 -0.77,-1.32 v 0 a 1.08,1.08 0 0 1 1.32,-0.79 v 0 A 1.11,1.11 0 0 1 24,59.81 v 0 a 1.1,1.1 0 0 1 -1.06,0.82 v 0 a 0.92,0.92 0 0 1 -0.31,-0.05 z"
       id="path1247" />
    <path
       style="fill:#707070"
       inkscape:connector-curvature="0"
       class="cls-10"
       d="m 62.4,59.69 a 1.1,1.1 0 0 1 0.77,-1.34 v 0 a 1.09,1.09 0 0 1 1.34,0.78 v 0 a 1.1,1.1 0 0 1 -0.77,1.34 v 0 h -0.29 v 0 A 1.09,1.09 0 0 1 62.4,59.69 Z"
       id="path1249" />
    <path
       style="fill:#707070"
       inkscape:connector-curvature="0"
       class="cls-10"
       d="M 24.45,55.41 A 1.1,1.1 0 0 1 24,53.93 v 0 a 1.09,1.09 0 0 1 1.5,-0.41 v 0 A 1.08,1.08 0 0 1 25.9,55 v 0 a 1.09,1.09 0 0 1 -1,0.56 v 0 a 1.1,1.1 0 0 1 -0.45,-0.15 z"
       id="path1251" />
    <path
       style="fill:#707070"
       inkscape:connector-curvature="0"
       class="cls-10"
       d="m 60.39,54.9 a 1.1,1.1 0 0 1 0.39,-1.48 v 0 a 1.09,1.09 0 0 1 1.5,0.39 v 0 a 1.08,1.08 0 0 1 -0.39,1.49 v 0 a 1.07,1.07 0 0 1 -0.55,0.14 v 0 A 1.1,1.1 0 0 1 60.39,54.9 Z"
       id="path1253" />
    <path
       style="fill:#707070"
       inkscape:connector-curvature="0"
       class="cls-10"
       d="m 27.55,50.88 a 1.08,1.08 0 0 1 0,-1.54 v 0 a 1.11,1.11 0 0 1 1.55,0 v 0 a 1.1,1.1 0 0 1 0,1.54 v 0 a 1.09,1.09 0 0 1 -0.78,0.32 v 0 a 1.07,1.07 0 0 1 -0.77,-0.32 z"
       id="path1255" />
    <path
       style="fill:#707070"
       inkscape:connector-curvature="0"
       class="cls-10"
       d="m 57.22,50.8 a 1.09,1.09 0 0 1 0,-1.55 v 0 a 1.1,1.1 0 0 1 1.54,0 v 0 a 1.11,1.11 0 0 1 0,1.55 v 0 a 1.05,1.05 0 0 1 -0.77,0.32 v 0 A 1.07,1.07 0 0 1 57.22,50.8 Z"
       id="path1257" />
    <path
       style="fill:#707070"
       inkscape:connector-curvature="0"
       class="cls-10"
       d="m 31.72,47.32 a 1.08,1.08 0 0 1 0.39,-1.49 v 0 a 1.1,1.1 0 0 1 1.49,0.39 v 0 a 1.09,1.09 0 0 1 -0.4,1.49 v 0 a 1.08,1.08 0 0 1 -0.55,0.15 v 0 a 1.07,1.07 0 0 1 -0.93,-0.54 z"
       id="path1259" />
    <path
       style="fill:#707070"
       inkscape:connector-curvature="0"
       class="cls-10"
       d="m 53.1,47.65 a 1.07,1.07 0 0 1 -0.41,-1.48 v 0 a 1.07,1.07 0 0 1 1.48,-0.41 v 0 a 1.07,1.07 0 0 1 0.41,1.48 v 0 a 1.11,1.11 0 0 1 -0.95,0.56 v 0 A 1,1 0 0 1 53.1,47.65 Z"
       id="path1261" />
    <path
       style="fill:#707070"
       inkscape:connector-curvature="0"
       class="cls-10"
       d="m 36.65,44.94 a 1.09,1.09 0 0 1 0.78,-1.34 v 0 a 1.1,1.1 0 0 1 1.34,0.77 v 0 A 1.1,1.1 0 0 1 38,45.71 v 0 a 1.43,1.43 0 0 1 -0.29,0 v 0 a 1.1,1.1 0 0 1 -1.06,-0.77 z"
       id="path1263" />
    <path
       style="fill:#707070"
       inkscape:connector-curvature="0"
       class="cls-10"
       d="m 48.29,45.69 a 1.1,1.1 0 0 1 -0.77,-1.34 v 0 a 1.08,1.08 0 0 1 1.32,-0.79 v 0 a 1.1,1.1 0 0 1 0.79,1.33 v 0 a 1.1,1.1 0 0 1 -1.06,0.81 v 0 z"
       id="path1265" />
    <path
       style="fill:#707070"
       inkscape:connector-curvature="0"
       class="cls-10"
       d="m 42,43.94 a 1.08,1.08 0 0 1 1.09,-1.09 v 0 a 1.08,1.08 0 0 1 1.1,1.07 v 0 A 1.11,1.11 0 0 1 43.13,45 v 0 A 1.11,1.11 0 0 1 42,43.94 Z"
       id="path1267" />
    <path
       style="fill:#b3b3b3"
       inkscape:connector-curvature="0"
       class="cls-4"
       d="m 14.05,161.86 a 0.7,0.7 0 0 1 -0.26,-1 v 0 a 0.7,0.7 0 0 1 1,-0.26 v 0 a 0.71,0.71 0 0 1 0.26,1 v 0 a 0.69,0.69 0 0 1 -0.62,0.35 v 0 a 0.67,0.67 0 0 1 -0.38,-0.09 z"
       id="path1269" />
    <path
       style="fill:#b3b3b3"
       inkscape:connector-curvature="0"
       class="cls-4"
       d="m 27.52,161.59 a 0.7,0.7 0 0 1 0.26,-1 v 0 a 0.72,0.72 0 0 1 1,0.25 v 0 a 0.73,0.73 0 0 1 -0.26,1 v 0 a 0.68,0.68 0 0 1 -0.36,0.1 v 0 a 0.71,0.71 0 0 1 -0.64,-0.35 z"
       id="path1271" />
    <path
       style="fill:#707070"
       inkscape:connector-curvature="0"
       class="cls-10"
       d="m 11.05,159.58 v 0 a 0.73,0.73 0 0 1 0,-1 v 0 a 0.72,0.72 0 0 1 1,0 v 0 a 0.73,0.73 0 0 1 0,1 v 0 a 0.75,0.75 0 0 1 -0.51,0.21 v 0 a 0.78,0.78 0 0 1 -0.49,-0.21 z"
       id="path1273" />
    <path
       style="fill:#707070"
       inkscape:connector-curvature="0"
       class="cls-10"
       d="m 30.47,159.55 a 0.73,0.73 0 0 1 0,-1 v 0 a 0.71,0.71 0 0 1 1,0 v 0 a 0.71,0.71 0 0 1 0,1 v 0 a 0.7,0.7 0 0 1 -0.5,0.21 v 0 a 0.75,0.75 0 0 1 -0.5,-0.21 z"
       id="path1275" />
    <path
       style="fill:#707070"
       inkscape:connector-curvature="0"
       class="cls-10"
       d="m 8.75,156.58 a 0.7,0.7 0 0 1 0.26,-1 H 9 a 0.72,0.72 0 0 1 1,0.26 v 0 a 0.7,0.7 0 0 1 -0.26,1 v 0 a 0.69,0.69 0 0 1 -0.36,0.11 v 0 a 0.73,0.73 0 0 1 -0.63,-0.37 z"
       id="path1277" />
    <path
       style="fill:#707070"
       inkscape:connector-curvature="0"
       class="cls-10"
       d="m 32.8,156.82 a 0.72,0.72 0 0 1 -0.26,-1 v 0 a 0.72,0.72 0 0 1 1,-0.27 v 0 a 0.72,0.72 0 0 1 0.26,1 v 0 a 0.71,0.71 0 0 1 -0.62,0.36 v 0 a 0.68,0.68 0 0 1 -0.38,-0.09 z"
       id="path1279" />
    <path
       style="fill:#707070"
       inkscape:connector-curvature="0"
       class="cls-10"
       d="m 7.3,153.1 a 0.7,0.7 0 0 1 0.5,-0.87 v 0 a 0.71,0.71 0 0 1 0.88,0.5 v 0 a 0.72,0.72 0 0 1 -0.5,0.88 v 0 a 0.62,0.62 0 0 1 -0.19,0 H 8 A 0.71,0.71 0 0 1 7.3,153.1 Z"
       id="path1281" />
    <path
       style="fill:#707070"
       inkscape:connector-curvature="0"
       class="cls-10"
       d="m 34.35,153.58 a 0.71,0.71 0 0 1 -0.5,-0.88 v 0 a 0.69,0.69 0 0 1 0.87,-0.5 v 0 a 0.72,0.72 0 0 1 0.51,0.88 v 0 a 0.73,0.73 0 0 1 -0.7,0.53 v 0 z"
       id="path1283" />
    <path
       style="fill:#707070"
       inkscape:connector-curvature="0"
       class="cls-10"
       d="m 6.8,149.37 a 0.72,0.72 0 0 1 0.72,-0.72 v 0 a 0.71,0.71 0 0 1 0.71,0.72 v 0 a 0.71,0.71 0 0 1 -0.71,0.71 v 0 A 0.72,0.72 0 0 1 6.8,149.37 Z"
       id="path1285" />
    <path
       style="fill:#707070"
       inkscape:connector-curvature="0"
       class="cls-10"
       d="m 34.29,149.34 v 0 -0.05 0 a 0.7,0.7 0 0 1 0.7,-0.71 v 0 a 0.72,0.72 0 0 1 0.73,0.71 v 0 0 0 0 0 A 0.72,0.72 0 0 1 35,150 v 0 a 0.71,0.71 0 0 1 -0.71,-0.66 z"
       id="path1287" />
    <path
       style="fill:#707070"
       inkscape:connector-curvature="0"
       class="cls-10"
       d="m 7.79,146.5 a 0.7,0.7 0 0 1 -0.5,-0.87 v 0 a 0.7,0.7 0 0 1 0.87,-0.51 v 0 a 0.71,0.71 0 0 1 0.51,0.87 v 0 a 0.71,0.71 0 0 1 -0.69,0.54 H 8 A 0.63,0.63 0 0 1 7.79,146.5 Z"
       id="path1289" />
    <path
       style="fill:#707070"
       inkscape:connector-curvature="0"
       class="cls-10"
       d="m 33.83,145.92 a 0.71,0.71 0 0 1 0.5,-0.88 v 0 a 0.71,0.71 0 0 1 0.88,0.5 v 0 a 0.71,0.71 0 0 1 -0.5,0.88 v 0 h -0.19 v 0 a 0.72,0.72 0 0 1 -0.69,-0.5 z"
       id="path1291" />
    <path
       style="fill:#707070"
       inkscape:connector-curvature="0"
       class="cls-10"
       d="m 9,143.11 a 0.71,0.71 0 0 1 -0.27,-1 v 0 a 0.72,0.72 0 0 1 1,-0.27 v 0 a 0.72,0.72 0 0 1 0.26,1 v 0 a 0.71,0.71 0 0 1 -0.62,0.36 v 0 A 0.64,0.64 0 0 1 9,143.11 Z"
       id="path1293" />
    <path
       style="fill:#707070"
       inkscape:connector-curvature="0"
       class="cls-10"
       d="m 32.51,142.78 a 0.73,0.73 0 0 1 0.26,-1 v 0 a 0.72,0.72 0 0 1 1,0.25 v 0 a 0.72,0.72 0 0 1 -0.25,1 v 0 a 0.81,0.81 0 0 1 -0.37,0.09 v 0 a 0.72,0.72 0 0 1 -0.64,-0.34 z"
       id="path1295" />
    <path
       style="fill:#707070"
       inkscape:connector-curvature="0"
       class="cls-10"
       d="m 11,140.15 a 0.7,0.7 0 0 1 0,-1 v 0 a 0.71,0.71 0 0 1 1,0 v 0 a 0.73,0.73 0 0 1 0,1 v 0 a 0.75,0.75 0 0 1 -0.51,0.21 v 0 A 0.69,0.69 0 0 1 11,140.15 Z"
       id="path1297" />
    <path
       style="fill:#707070"
       inkscape:connector-curvature="0"
       class="cls-10"
       d="m 30.44,140.09 a 0.71,0.71 0 0 1 0,-1 v 0 a 0.71,0.71 0 0 1 1,0 v 0 a 0.73,0.73 0 0 1 0,1 v 0 a 0.73,0.73 0 0 1 -0.51,0.21 v 0 a 0.7,0.7 0 0 1 -0.49,-0.21 z"
       id="path1299" />
    <path
       style="fill:#707070"
       inkscape:connector-curvature="0"
       class="cls-10"
       d="m 13.74,137.81 a 0.7,0.7 0 0 1 0.26,-1 v 0 a 0.71,0.71 0 0 1 1,0.26 v 0 a 0.71,0.71 0 0 1 -0.25,1 v 0 a 0.71,0.71 0 0 1 -0.37,0.1 v 0 a 0.71,0.71 0 0 1 -0.64,-0.36 z"
       id="path1301" />
    <path
       style="fill:#707070"
       inkscape:connector-curvature="0"
       class="cls-10"
       d="m 27.74,138 a 0.7,0.7 0 0 1 -0.27,-1 v 0 a 0.71,0.71 0 0 1 1,-0.27 v 0 a 0.71,0.71 0 0 1 0.27,1 v 0 a 0.73,0.73 0 0 1 -0.62,0.36 v 0 A 0.62,0.62 0 0 1 27.74,138 Z"
       id="path1303" />
    <path
       style="fill:#707070"
       inkscape:connector-curvature="0"
       class="cls-10"
       d="m 17,136.26 a 0.73,0.73 0 0 1 0.51,-0.88 v 0 a 0.73,0.73 0 0 1 0.88,0.51 v 0 a 0.72,0.72 0 0 1 -0.51,0.87 v 0 h -0.19 v 0 A 0.73,0.73 0 0 1 17,136.26 Z"
       id="path1305" />
    <path
       style="fill:#707070"
       inkscape:connector-curvature="0"
       class="cls-10"
       d="m 24.59,136.75 a 0.72,0.72 0 0 1 -0.5,-0.88 v 0 a 0.71,0.71 0 0 1 0.86,-0.52 v 0 a 0.72,0.72 0 0 1 0.52,0.87 v 0 a 0.73,0.73 0 0 1 -0.7,0.53 z"
       id="path1307" />
    <path
       style="fill:#b3b3b3"
       inkscape:connector-curvature="0"
       class="cls-4"
       d="m 20.5,135.6 a 0.71,0.71 0 0 1 0.72,-0.71 v 0 a 0.7,0.7 0 0 1 0.71,0.7 v 0 a 0.72,0.72 0 0 1 -0.71,0.73 v 0 A 0.73,0.73 0 0 1 20.5,135.6 Z"
       id="path1309" />
    <path
       style="fill:#b3b3b3"
       inkscape:connector-curvature="0"
       class="cls-4"
       d="m 98.24,199.86 a 0.72,0.72 0 0 1 -0.26,-1 v 0 a 0.72,0.72 0 0 1 1,-0.26 v 0 a 0.72,0.72 0 0 1 0.25,1 v 0 a 0.69,0.69 0 0 1 -0.62,0.35 v 0 a 0.76,0.76 0 0 1 -0.37,-0.09 z"
       id="path1311" />
    <path
       style="fill:#b3b3b3"
       inkscape:connector-curvature="0"
       class="cls-4"
       d="m 111.71,199.58 a 0.7,0.7 0 0 1 0.26,-1 v 0 a 0.71,0.71 0 0 1 1,0.26 v 0 a 0.72,0.72 0 0 1 -0.26,1 v 0 a 0.77,0.77 0 0 1 -0.36,0.09 v 0 a 0.71,0.71 0 0 1 -0.64,-0.35 z"
       id="path1313" />
    <path
       style="fill:#707070"
       inkscape:connector-curvature="0"
       class="cls-10"
       d="m 95.25,197.57 v 0 a 0.72,0.72 0 0 1 0,-1 v 0 a 0.71,0.71 0 0 1 1,0 v 0 a 0.73,0.73 0 0 1 0,1 v 0 a 0.75,0.75 0 0 1 -0.51,0.21 v 0 a 0.74,0.74 0 0 1 -0.49,-0.21 z"
       id="path1315" />
    <path
       style="fill:#707070"
       inkscape:connector-curvature="0"
       class="cls-10"
       d="m 114.67,197.54 a 0.71,0.71 0 0 1 0,-1 v 0 a 0.71,0.71 0 0 1 1,0 v 0 a 0.73,0.73 0 0 1 0,1 v 0 a 0.75,0.75 0 0 1 -0.51,0.21 v 0 a 0.7,0.7 0 0 1 -0.49,-0.21 z"
       id="path1317" />
    <path
       style="fill:#707070"
       inkscape:connector-curvature="0"
       class="cls-10"
       d="m 92.94,194.58 a 0.71,0.71 0 0 1 0.27,-1 v 0 a 0.71,0.71 0 0 1 1,0.26 v 0 a 0.7,0.7 0 0 1 -0.26,1 v 0 a 0.69,0.69 0 0 1 -0.36,0.11 v 0 a 0.74,0.74 0 0 1 -0.65,-0.37 z"
       id="path1319" />
    <path
       style="fill:#707070"
       inkscape:connector-curvature="0"
       class="cls-10"
       d="m 117,194.81 a 0.72,0.72 0 0 1 -0.26,-1 v 0 a 0.73,0.73 0 0 1 1,-0.27 v 0 a 0.74,0.74 0 0 1 0.25,1 v 0 a 0.7,0.7 0 0 1 -0.62,0.35 v 0 A 0.7,0.7 0 0 1 117,194.81 Z"
       id="path1321" />
    <path
       style="fill:#707070"
       inkscape:connector-curvature="0"
       class="cls-10"
       d="M 91.49,191.1 A 0.72,0.72 0 0 1 92,190.22 v 0 a 0.7,0.7 0 0 1 0.87,0.5 v 0 a 0.71,0.71 0 0 1 -0.5,0.88 v 0 a 0.62,0.62 0 0 1 -0.19,0 v 0 a 0.72,0.72 0 0 1 -0.69,-0.5 z"
       id="path1323" />
    <path
       style="fill:#707070"
       inkscape:connector-curvature="0"
       class="cls-10"
       d="m 118.55,191.57 a 0.71,0.71 0 0 1 -0.51,-0.87 v 0 a 0.71,0.71 0 0 1 0.87,-0.51 v 0 a 0.73,0.73 0 0 1 0.51,0.88 v 0 a 0.71,0.71 0 0 1 -0.69,0.53 v 0 a 0.52,0.52 0 0 1 -0.18,-0.03 z"
       id="path1325" />
    <path
       style="fill:#707070"
       inkscape:connector-curvature="0"
       class="cls-10"
       d="m 91,187.36 a 0.71,0.71 0 0 1 0.71,-0.72 v 0 a 0.72,0.72 0 0 1 0.72,0.72 v 0 a 0.71,0.71 0 0 1 -0.72,0.71 v 0 A 0.71,0.71 0 0 1 91,187.36 Z"
       id="path1327" />
    <path
       style="fill:#707070"
       inkscape:connector-curvature="0"
       class="cls-10"
       d="m 118.48,187.33 v 0 0 0 a 0.7,0.7 0 0 1 0.7,-0.71 v 0 a 0.72,0.72 0 0 1 0.73,0.71 v 0 0 0 0 0 a 0.73,0.73 0 0 1 -0.72,0.72 v 0 a 0.71,0.71 0 0 1 -0.71,-0.72 z"
       id="path1329" />
    <path
       style="fill:#707070"
       inkscape:connector-curvature="0"
       class="cls-10"
       d="m 92,184.49 a 0.71,0.71 0 0 1 -0.51,-0.87 v 0 a 0.71,0.71 0 0 1 0.87,-0.51 v 0 a 0.71,0.71 0 0 1 0.51,0.87 v 0 a 0.71,0.71 0 0 1 -0.69,0.54 v 0 A 0.52,0.52 0 0 1 92,184.49 Z"
       id="path1331" />
    <path
       style="fill:#707070"
       inkscape:connector-curvature="0"
       class="cls-10"
       d="m 118,183.91 a 0.73,0.73 0 0 1 0.51,-0.88 v 0 a 0.71,0.71 0 0 1 0.87,0.51 v 0 a 0.7,0.7 0 0 1 -0.5,0.87 v 0 h -0.19 v 0 a 0.72,0.72 0 0 1 -0.69,-0.5 z"
       id="path1333" />
    <path
       style="fill:#707070"
       inkscape:connector-curvature="0"
       class="cls-10"
       d="m 93.18,181.11 a 0.73,0.73 0 0 1 -0.27,-1 v 0 a 0.72,0.72 0 0 1 1,-0.26 v 0 a 0.7,0.7 0 0 1 0.26,1 v 0 a 0.7,0.7 0 0 1 -0.62,0.36 v 0 a 0.76,0.76 0 0 1 -0.37,-0.1 z"
       id="path1335" />
    <path
       style="fill:#707070"
       inkscape:connector-curvature="0"
       class="cls-10"
       d="m 116.71,180.77 a 0.72,0.72 0 0 1 0.25,-1 v 0 a 0.72,0.72 0 0 1 1,0.26 v 0 a 0.71,0.71 0 0 1 -0.26,1 v 0 a 0.69,0.69 0 0 1 -0.36,0.09 v 0 a 0.7,0.7 0 0 1 -0.63,-0.35 z"
       id="path1337" />
    <path
       style="fill:#707070"
       inkscape:connector-curvature="0"
       class="cls-10"
       d="m 95.21,178.14 a 0.69,0.69 0 0 1 0,-1 v 0 a 0.71,0.71 0 0 1 1,0 v 0 a 0.71,0.71 0 0 1 0,1 v 0 a 0.71,0.71 0 0 1 -0.51,0.21 v 0 a 0.69,0.69 0 0 1 -0.49,-0.21 z"
       id="path1339" />
    <path
       style="fill:#707070"
       inkscape:connector-curvature="0"
       class="cls-10"
       d="m 114.63,178.08 a 0.71,0.71 0 0 1 0,-1 v 0 a 0.73,0.73 0 0 1 1,0 v 0 a 0.73,0.73 0 0 1 0,1 v 0 a 0.69,0.69 0 0 1 -0.51,0.21 v 0 a 0.67,0.67 0 0 1 -0.49,-0.21 z"
       id="path1341" />
    <path
       style="fill:#707070"
       inkscape:connector-curvature="0"
       class="cls-10"
       d="m 97.94,175.81 a 0.7,0.7 0 0 1 0.25,-1 v 0 a 0.71,0.71 0 0 1 1,0.26 v 0 a 0.7,0.7 0 0 1 -0.25,1 v 0 a 0.7,0.7 0 0 1 -0.36,0.1 v 0 a 0.71,0.71 0 0 1 -0.64,-0.36 z"
       id="path1343" />
    <path
       style="fill:#707070"
       inkscape:connector-curvature="0"
       class="cls-10"
       d="m 111.93,176 a 0.71,0.71 0 0 1 -0.27,-1 v 0 a 0.71,0.71 0 0 1 1,-0.26 v 0 a 0.7,0.7 0 0 1 0.26,1 v 0 a 0.71,0.71 0 0 1 -0.62,0.36 v 0 a 0.62,0.62 0 0 1 -0.37,-0.1 z"
       id="path1345" />
    <path
       style="fill:#707070"
       inkscape:connector-curvature="0"
       class="cls-10"
       d="m 101.17,174.25 a 0.72,0.72 0 0 1 0.5,-0.88 v 0 a 0.73,0.73 0 0 1 0.88,0.51 v 0 a 0.73,0.73 0 0 1 -0.51,0.88 v 0 h -0.19 v 0 a 0.7,0.7 0 0 1 -0.68,-0.51 z"
       id="path1347" />
    <path
       style="fill:#707070"
       inkscape:connector-curvature="0"
       class="cls-10"
       d="m 108.78,174.74 a 0.72,0.72 0 0 1 -0.5,-0.88 v 0 a 0.71,0.71 0 0 1 0.87,-0.51 v 0 a 0.7,0.7 0 0 1 0.51,0.86 v 0 a 0.72,0.72 0 0 1 -0.7,0.54 v 0 z"
       id="path1349" />
    <path
       style="fill:#b3b3b3"
       inkscape:connector-curvature="0"
       class="cls-4"
       d="m 104.69,173.59 a 0.71,0.71 0 0 1 0.72,-0.71 v 0 a 0.7,0.7 0 0 1 0.71,0.7 v 0 a 0.72,0.72 0 0 1 -0.71,0.73 v 0 a 0.73,0.73 0 0 1 -0.72,-0.72 z"
       id="path1351" />
    <path
       style="fill:#b3b3b3"
       inkscape:connector-curvature="0"
       class="cls-4"
       d="m 98.24,246 a 0.72,0.72 0 0 1 -0.26,-1 v 0 a 0.72,0.72 0 0 1 1,-0.26 v 0 a 0.72,0.72 0 0 1 0.25,1 v 0 a 0.69,0.69 0 0 1 -0.62,0.35 v 0 A 0.76,0.76 0 0 1 98.24,246 Z"
       id="path1353" />
    <path
       style="fill:#b3b3b3"
       inkscape:connector-curvature="0"
       class="cls-4"
       d="m 111.71,245.67 a 0.7,0.7 0 0 1 0.26,-1 v 0 a 0.71,0.71 0 0 1 1,0.26 v 0 a 0.72,0.72 0 0 1 -0.26,1 v 0 a 0.77,0.77 0 0 1 -0.36,0.09 v 0 a 0.71,0.71 0 0 1 -0.64,-0.35 z"
       id="path1355" />
    <path
       style="fill:#707070"
       inkscape:connector-curvature="0"
       class="cls-10"
       d="m 95.25,243.66 v 0 a 0.72,0.72 0 0 1 0,-1 v 0 a 0.71,0.71 0 0 1 1,0 v 0 a 0.73,0.73 0 0 1 0,1 v 0 a 0.75,0.75 0 0 1 -0.51,0.21 v 0 a 0.74,0.74 0 0 1 -0.49,-0.21 z"
       id="path1357" />
    <path
       style="fill:#707070"
       inkscape:connector-curvature="0"
       class="cls-10"
       d="m 114.67,243.63 a 0.71,0.71 0 0 1 0,-1 v 0 a 0.71,0.71 0 0 1 1,0 v 0 a 0.73,0.73 0 0 1 0,1 v 0 a 0.75,0.75 0 0 1 -0.51,0.21 v 0 a 0.7,0.7 0 0 1 -0.49,-0.21 z"
       id="path1359" />
    <path
       style="fill:#707070"
       inkscape:connector-curvature="0"
       class="cls-10"
       d="m 92.94,240.67 a 0.71,0.71 0 0 1 0.27,-1 v 0 a 0.71,0.71 0 0 1 1,0.26 v 0 a 0.7,0.7 0 0 1 -0.26,1 v 0 a 0.69,0.69 0 0 1 -0.36,0.11 v 0 a 0.74,0.74 0 0 1 -0.65,-0.37 z"
       id="path1361" />
    <path
       style="fill:#707070"
       inkscape:connector-curvature="0"
       class="cls-10"
       d="m 117,240.9 a 0.72,0.72 0 0 1 -0.26,-1 v 0 a 0.73,0.73 0 0 1 1,-0.27 v 0 a 0.73,0.73 0 0 1 0.25,1 v 0 a 0.7,0.7 0 0 1 -0.62,0.35 v 0 A 0.7,0.7 0 0 1 117,240.9 Z"
       id="path1363" />
    <path
       style="fill:#707070"
       inkscape:connector-curvature="0"
       class="cls-10"
       d="M 91.49,237.19 A 0.71,0.71 0 0 1 92,236.31 v 0 a 0.7,0.7 0 0 1 0.87,0.5 v 0 a 0.71,0.71 0 0 1 -0.5,0.88 v 0 a 0.62,0.62 0 0 1 -0.19,0 v 0 a 0.72,0.72 0 0 1 -0.69,-0.5 z"
       id="path1365" />
    <path
       style="fill:#707070"
       inkscape:connector-curvature="0"
       class="cls-10"
       d="m 118.55,237.66 a 0.71,0.71 0 0 1 -0.51,-0.87 v 0 a 0.71,0.71 0 0 1 0.87,-0.51 v 0 a 0.73,0.73 0 0 1 0.51,0.88 v 0 a 0.71,0.71 0 0 1 -0.69,0.53 v 0 a 0.52,0.52 0 0 1 -0.18,-0.03 z"
       id="path1367" />
    <path
       style="fill:#707070"
       inkscape:connector-curvature="0"
       class="cls-10"
       d="m 91,233.45 a 0.71,0.71 0 0 1 0.71,-0.72 v 0 a 0.72,0.72 0 0 1 0.72,0.72 v 0 a 0.71,0.71 0 0 1 -0.72,0.71 v 0 A 0.71,0.71 0 0 1 91,233.45 Z"
       id="path1369" />
    <path
       style="fill:#707070"
       inkscape:connector-curvature="0"
       class="cls-10"
       d="m 118.48,233.42 v 0 0 0 a 0.7,0.7 0 0 1 0.7,-0.71 v 0 a 0.72,0.72 0 0 1 0.73,0.71 v 0 0 0 0 0 a 0.73,0.73 0 0 1 -0.72,0.72 v 0 a 0.71,0.71 0 0 1 -0.71,-0.72 z"
       id="path1371" />
    <path
       style="fill:#707070"
       inkscape:connector-curvature="0"
       class="cls-10"
       d="m 92,230.58 a 0.71,0.71 0 0 1 -0.51,-0.87 v 0 a 0.71,0.71 0 0 1 0.87,-0.51 v 0 a 0.71,0.71 0 0 1 0.51,0.87 v 0 a 0.71,0.71 0 0 1 -0.69,0.54 v 0 A 0.52,0.52 0 0 1 92,230.58 Z"
       id="path1373" />
    <path
       style="fill:#707070"
       inkscape:connector-curvature="0"
       class="cls-10"
       d="m 118,230 a 0.73,0.73 0 0 1 0.51,-0.88 v 0 a 0.71,0.71 0 0 1 0.87,0.51 v 0 a 0.7,0.7 0 0 1 -0.5,0.87 v 0 h -0.19 v 0 A 0.72,0.72 0 0 1 118,230 Z"
       id="path1375" />
    <path
       style="fill:#707070"
       inkscape:connector-curvature="0"
       class="cls-10"
       d="m 93.18,227.2 a 0.73,0.73 0 0 1 -0.27,-1 v 0 a 0.72,0.72 0 0 1 1,-0.26 v 0 a 0.7,0.7 0 0 1 0.26,1 v 0 a 0.7,0.7 0 0 1 -0.62,0.36 v 0 a 0.76,0.76 0 0 1 -0.37,-0.1 z"
       id="path1377" />
    <path
       style="fill:#707070"
       inkscape:connector-curvature="0"
       class="cls-10"
       d="m 116.71,226.86 a 0.72,0.72 0 0 1 0.25,-1 v 0 a 0.72,0.72 0 0 1 1,0.26 v 0 a 0.71,0.71 0 0 1 -0.26,1 v 0 a 0.69,0.69 0 0 1 -0.36,0.09 v 0 a 0.7,0.7 0 0 1 -0.63,-0.35 z"
       id="path1379" />
    <path
       style="fill:#707070"
       inkscape:connector-curvature="0"
       class="cls-10"
       d="m 95.21,224.23 a 0.69,0.69 0 0 1 0,-1 v 0 a 0.71,0.71 0 0 1 1,0 v 0 a 0.71,0.71 0 0 1 0,1 v 0 a 0.71,0.71 0 0 1 -0.51,0.21 v 0 a 0.69,0.69 0 0 1 -0.49,-0.21 z"
       id="path1381" />
    <path
       style="fill:#707070"
       inkscape:connector-curvature="0"
       class="cls-10"
       d="m 114.63,224.17 a 0.71,0.71 0 0 1 0,-1 v 0 a 0.73,0.73 0 0 1 1,0 v 0 a 0.73,0.73 0 0 1 0,1 v 0 a 0.69,0.69 0 0 1 -0.51,0.21 v 0 a 0.67,0.67 0 0 1 -0.49,-0.21 z"
       id="path1383" />
    <path
       style="fill:#707070"
       inkscape:connector-curvature="0"
       class="cls-10"
       d="m 97.94,221.9 a 0.7,0.7 0 0 1 0.25,-1 v 0 a 0.71,0.71 0 0 1 1,0.26 v 0 a 0.7,0.7 0 0 1 -0.25,1 v 0 a 0.7,0.7 0 0 1 -0.36,0.1 v 0 a 0.71,0.71 0 0 1 -0.64,-0.36 z"
       id="path1385" />
    <path
       style="fill:#707070"
       inkscape:connector-curvature="0"
       class="cls-10"
       d="m 111.93,222.11 a 0.71,0.71 0 0 1 -0.27,-1 v 0 a 0.72,0.72 0 0 1 1,-0.27 v 0 a 0.72,0.72 0 0 1 0.26,1 v 0 a 0.71,0.71 0 0 1 -0.62,0.36 v 0 a 0.62,0.62 0 0 1 -0.37,-0.09 z"
       id="path1387" />
    <path
       style="fill:#707070"
       inkscape:connector-curvature="0"
       class="cls-10"
       d="m 101.17,220.34 a 0.72,0.72 0 0 1 0.5,-0.88 v 0 a 0.73,0.73 0 0 1 0.88,0.51 v 0 a 0.73,0.73 0 0 1 -0.51,0.88 v 0 h -0.19 v 0 a 0.7,0.7 0 0 1 -0.68,-0.51 z"
       id="path1389" />
    <path
       style="fill:#707070"
       inkscape:connector-curvature="0"
       class="cls-10"
       d="m 108.78,220.83 a 0.72,0.72 0 0 1 -0.5,-0.88 v 0 a 0.71,0.71 0 0 1 0.87,-0.51 v 0 a 0.7,0.7 0 0 1 0.51,0.86 v 0 a 0.72,0.72 0 0 1 -0.7,0.54 v 0 z"
       id="path1391" />
    <path
       style="fill:#b3b3b3"
       inkscape:connector-curvature="0"
       class="cls-4"
       d="m 104.69,219.68 a 0.71,0.71 0 0 1 0.72,-0.71 v 0 a 0.7,0.7 0 0 1 0.71,0.7 v 0 a 0.72,0.72 0 0 1 -0.71,0.73 v 0 a 0.73,0.73 0 0 1 -0.72,-0.72 z"
       id="path1393" />
  </g>
  <g
     id="Freq_Knob"
     data-name="Freq Knob"
     transform="scale(1.3333333)">
    <circle
       id="path5084"
       class="cls-11"
       cx="43.200001"
       cy="65.139999"
       r="17.719999"
       style="fill:url(#linear-gradient-2)" />
    <circle
       id="path5086"
       class="cls-12"
       cx="43.200001"
       cy="65.139999"
       r="15.63"
       style="fill:url(#linear-gradient-3)" />
    <circle
       style="fill:none"
       id="path5084-2"
       data-name="path5084"
       class="cls-13"
       cx="43.200001"
       cy="63.75"
       r="16.33" />
  </g>
  <g
     id="VUs"
     transform="scale(1.3333333)">
    <g
       id="g2224">
      <rect
         style="fill:#121212"
         id="rect2220"
         class="cls-6"
         x="101.48"
         y="46.349998"
         width="3.4000001"
         height="119.91" />
      <rect
         style="fill:#121212"
         id="rect2222"
         class="cls-6"
         x="106.02"
         y="46.349998"
         width="3.4000001"
         height="119.91" />
    </g>
    <path
       style="fill:none;stroke:#353535;stroke-width:0.85000002px"
       inkscape:connector-curvature="0"
       id="path4304"
       class="cls-14"
       d="m 101.48,71.31 h 7.93" />
    <path
       style="fill:none;stroke:#ffffff;stroke-width:0.28px"
       inkscape:connector-curvature="0"
       id="path4288"
       class="cls-15"
       d="m 109.88,166.05 h 2.7" />
    <path
       style="fill:none;stroke:#ffffff;stroke-width:0.28px"
       inkscape:connector-curvature="0"
       id="path4298"
       class="cls-15"
       d="m 109.88,128.63 h 2.72" />
    <path
       style="fill:none;stroke:#ffffff;stroke-width:0.28px"
       inkscape:connector-curvature="0"
       id="path4300"
       class="cls-15"
       d="m 109.88,106.63 h 2.72" />
    <path
       style="fill:none;stroke:#ffffff;stroke-width:0.28px"
       inkscape:connector-curvature="0"
       id="path4302"
       class="cls-15"
       d="m 109.88,91.18 h 2.72" />
    <path
       style="fill:none;stroke:#ffffff;stroke-width:0.28px"
       inkscape:connector-curvature="0"
       id="path4304-2"
       data-name="path4304"
       class="cls-16"
       d="m 109.88,71.74 h 2.72" />
    <path
       style="fill:none;stroke:#ffffff;stroke-width:0.28px"
       inkscape:connector-curvature="0"
       id="path4306"
       class="cls-15"
       d="m 109.88,46.54 h 2.72" />
    <path
       style="fill:none;stroke:#ffffff;stroke-width:0.28px"
       inkscape:connector-curvature="0"
       id="path4288-2"
       data-name="path4288"
       class="cls-15"
       d="M 98.29,166.05 H 101" />
    <path
       style="fill:none;stroke:#ffffff;stroke-width:0.28px"
       inkscape:connector-curvature="0"
       id="path4298-2"
       data-name="path4298"
       class="cls-15"
       d="M 98.29,128.63 H 101" />
    <path
       style="fill:none;stroke:#ffffff;stroke-width:0.28px"
       inkscape:connector-curvature="0"
       id="path4300-2"
       data-name="path4300"
       class="cls-15"
       d="M 98.29,106.63 H 101" />
    <path
       style="fill:none;stroke:#ffffff;stroke-width:0.28px"
       inkscape:connector-curvature="0"
       id="path4302-2"
       data-name="path4302"
       class="cls-15"
       d="M 98.29,91.18 H 101" />
    <path
       style="fill:none;stroke:#ffffff;stroke-width:0.28px"
       inkscape:connector-curvature="0"
       id="path4304-3"
       data-name="path4304"
       class="cls-16"
       d="M 98.29,71.74 H 101" />
    <path
       style="fill:none;stroke:#ffffff;stroke-width:0.28px"
       inkscape:connector-curvature="0"
       id="path4306-2"
       data-name="path4306"
       class="cls-15"
       d="M 98.29,46.54 H 101" />
    <path
       style="fill:none;stroke:#ffffff;stroke-width:0.28px"
       inkscape:connector-curvature="0"
       id="path4306-3"
       data-name="path4306"
       class="cls-15"
       d="m 109.88,59.32 h 2.72" />
    <path
       style="fill:none;stroke:#ffffff;stroke-width:0.28px"
       inkscape:connector-curvature="0"
       id="path4306-4"
       data-name="path4306"
       class="cls-15"
       d="M 98.29,59.32 H 101" />
    <path
       style="fill:none;stroke:#ffffff;stroke-width:0.28px"
       inkscape:connector-curvature="0"
       id="path4306-5"
       data-name="path4306"
       class="cls-15"
       d="m 109.88,82 h 2.72" />
    <path
       style="fill:none;stroke:#ffffff;stroke-width:0.28px"
       inkscape:connector-curvature="0"
       id="path4306-6"
       data-name="path4306"
       class="cls-15"
       d="M 98.29,82 H 101" />
    <g
       id="g961">
      <path
         style="fill:#ffffff"
         inkscape:connector-curvature="0"
         id="path1420"
         class="cls-7"
         d="m 96.18,46.28 a 1,1 0 0 1 0.33,0.81 1.07,1.07 0 0 1 -0.33,0.81 1.24,1.24 0 0 1 -1.66,0 1.06,1.06 0 0 1 -0.32,-0.81 1.12,1.12 0 0 1 0.2,-0.68 L 95.48,44.8 H 96 L 95.19,46 h 0.16 a 1.09,1.09 0 0 1 0.83,0.32 z m -1.54,0.81 a 0.67,0.67 0 0 0 0.71,0.7 0.7,0.7 0 1 0 0,-1.4 0.66,0.66 0 0 0 -0.71,0.7 z" />
    </g>
    <g
       id="g965">
      <path
         style="fill:#ffffff"
         inkscape:connector-curvature="0"
         id="path1423"
         class="cls-7"
         d="m 95.3,73.45 a 1.13,1.13 0 0 1 -1,-0.47 2.2,2.2 0 0 1 -0.3,-1.27 2.16,2.16 0 0 1 0.34,-1.26 1.19,1.19 0 0 1 1.91,0 2.16,2.16 0 0 1 0.34,1.26 2.2,2.2 0 0 1 -0.34,1.29 1.13,1.13 0 0 1 -0.95,0.45 z m 0,-0.43 c 0.54,0 0.85,-0.48 0.85,-1.31 0,-0.83 -0.31,-1.31 -0.85,-1.31 -0.54,0 -0.85,0.47 -0.85,1.31 0,0.84 0.3,1.29 0.85,1.29 z" />
    </g>
    <g
       id="g969">
      <path
         style="fill:#ffffff"
         inkscape:connector-curvature="0"
         id="path1426"
         class="cls-7"
         d="m 96.26,90.9 a 1.16,1.16 0 0 1 0,1.62 1.24,1.24 0 0 1 -1.66,0 A 1.2,1.2 0 0 1 94.48,91 l 1.08,-1.62 h 0.5 l -0.79,1.17 h 0.16 a 1.13,1.13 0 0 1 0.83,0.32 z m -1.54,0.81 a 0.67,0.67 0 0 0 0.71,0.7 0.7,0.7 0 1 0 0,-1.4 0.67,0.67 0 0 0 -0.71,0.7 z" />
    </g>
    <g
       id="g975">
      <path
         style="fill:#ffffff"
         inkscape:connector-curvature="0"
         id="path1429"
         class="cls-7"
         d="m 93.44,104.93 h 0.38 v 3.35 h -0.44 v -2.87 l -0.71,0.21 -0.11,-0.38 z" />
      <path
         style="fill:#ffffff"
         inkscape:connector-curvature="0"
         id="path1431"
         class="cls-7"
         d="m 94.37,108.28 v -0.36 l 1.18,-1.21 a 1.29,1.29 0 0 0 0.48,-0.81 0.57,0.57 0 0 0 -0.6,-0.6 0.73,0.73 0 0 0 -0.69,0.45 l -0.37,-0.22 a 1.12,1.12 0 0 1 1.06,-0.66 1,1 0 0 1 0.73,0.28 0.92,0.92 0 0 1 0.31,0.74 1.67,1.67 0 0 1 -0.6,1.11 l -0.85,0.85 h 1.51 v 0.43 z" />
    </g>
    <g
       id="g981">
      <path
         style="fill:#ffffff"
         inkscape:connector-curvature="0"
         id="path1434"
         class="cls-7"
         d="m 91.67,130.23 v -0.36 l 1.19,-1.21 a 1.33,1.33 0 0 0 0.47,-0.81 0.56,0.56 0 0 0 -0.59,-0.6 0.7,0.7 0 0 0 -0.69,0.45 l -0.38,-0.22 a 1.14,1.14 0 0 1 1.06,-0.66 1.09,1.09 0 0 1 0.74,0.27 1,1 0 0 1 0.31,0.75 1.67,1.67 0 0 1 -0.6,1.11 l -0.86,0.85 h 1.52 v 0.43 z" />
      <path
         style="fill:#ffffff"
         inkscape:connector-curvature="0"
         id="path1436"
         class="cls-7"
         d="m 96.62,129.18 v 0.41 h -0.41 v 0.64 h -0.44 v -0.64 h -1.71 v -0.41 l 1.2,-2.3 h 0.48 l -1.2,2.3 h 1.23 v -1 h 0.44 v 1 z" />
    </g>
    <path
       style="fill:none;stroke:#ffffff;stroke-width:0.28px"
       inkscape:connector-curvature="0"
       id="path4294"
       class="cls-15"
       d="m 109.88,151.28 h 2.72" />
    <path
       style="fill:none;stroke:#ffffff;stroke-width:0.28px"
       inkscape:connector-curvature="0"
       id="path4294-2"
       data-name="path4294"
       class="cls-15"
       d="M 98.29,151.28 H 101" />
    <g
       id="g987">
      <path
         style="fill:#ffffff"
         inkscape:connector-curvature="0"
         id="path1441"
         class="cls-7"
         d="m 94,151.77 v 0.42 h -0.41 v 0.64 h -0.45 v -0.64 h -1.76 v -0.42 l 1.21,-2.3 h 0.47 l -1.2,2.3 h 1.23 v -0.94 h 0.45 v 0.94 z" />
      <path
         style="fill:#ffffff"
         inkscape:connector-curvature="0"
         id="path1443"
         class="cls-7"
         d="m 96.54,151.91 a 0.89,0.89 0 0 1 -0.32,0.72 1.45,1.45 0 0 1 -1.66,0 0.89,0.89 0 0 1 -0.32,-0.72 0.91,0.91 0 0 1 0.53,-0.82 0.8,0.8 0 0 1 -0.42,-0.73 0.86,0.86 0 0 1 0.31,-0.7 1.1,1.1 0 0 1 0.73,-0.25 1.08,1.08 0 0 1 0.73,0.25 0.83,0.83 0 0 1 0.31,0.7 0.81,0.81 0 0 1 -0.41,0.73 0.91,0.91 0 0 1 0.52,0.82 z m -0.44,0 c 0,-0.37 -0.28,-0.58 -0.71,-0.58 -0.43,0 -0.7,0.21 -0.7,0.58 0,0.37 0.28,0.58 0.7,0.58 0.42,0 0.71,-0.23 0.71,-0.61 z m -1.31,-1.51 a 0.55,0.55 0 0 0 0.6,0.54 0.54,0.54 0 0 0 0.59,-0.54 0.52,0.52 0 0 0 -0.59,-0.53 0.53,0.53 0 0 0 -0.6,0.5 z" />
    </g>
    <path
       style="fill:#ffffff"
       inkscape:connector-curvature="0"
       class="cls-7"
       d="m 95.66,59 a 1,1 0 0 1 0.87,1 0.94,0.94 0 0 1 -0.33,0.77 1.24,1.24 0 0 1 -0.82,0.29 1.11,1.11 0 0 1 -1.1,-0.68 l 0.37,-0.23 a 0.67,0.67 0 0 0 0.73,0.47 0.63,0.63 0 1 0 0,-1.24 h -0.11 l -0.18,-0.27 0.78,-1.05 h -1.49 v -0.42 h 2 V 58 Z"
       id="path1446" />
    <path
       style="fill:#ffffff"
       inkscape:connector-curvature="0"
       class="cls-7"
       d="m 95.66,81.78 a 1,1 0 0 1 0.87,1 1,1 0 0 1 -0.33,0.77 1.24,1.24 0 0 1 -0.82,0.28 1.11,1.11 0 0 1 -1.1,-0.68 l 0.37,-0.22 a 0.68,0.68 0 0 0 0.73,0.47 0.63,0.63 0 0 0 0.71,-0.62 0.63,0.63 0 0 0 -0.71,-0.63 h -0.11 l -0.18,-0.27 0.78,-1.05 h -1.49 v -0.41 h 2 v 0.39 z"
       id="path1448" />
  </g>
</svg>
