<?xml version="1.0" encoding="UTF-8" standalone="no"?>
<svg
   xmlns:dc="http://purl.org/dc/elements/1.1/"
   xmlns:cc="http://creativecommons.org/ns#"
   xmlns:rdf="http://www.w3.org/1999/02/22-rdf-syntax-ns#"
   xmlns:svg="http://www.w3.org/2000/svg"
   xmlns="http://www.w3.org/2000/svg"
   xmlns:sodipodi="http://sodipodi.sourceforge.net/DTD/sodipodi-0.dtd"
   xmlns:inkscape="http://www.inkscape.org/namespaces/inkscape"
   inkscape:version="0.92.2 (5c3e80d, 2017-08-06)"
   height="128.5mm"
   width="30.48mm"
   sodipodi:docname="BassMaster.svg"
   id="svg2560"
   version="1.1"
   viewBox="0 0 115.2 485.66928">
  <metadata
     id="metadata2564">
    <rdf:RDF>
      <cc:Work
         rdf:about="">
        <dc:format>image/svg+xml</dc:format>
        <dc:type
           rdf:resource="http://purl.org/dc/dcmitype/StillImage" />
        <dc:title />
      </cc:Work>
    </rdf:RDF>
  </metadata>
  <sodipodi:namedview
     inkscape:current-layer="svg2560"
     inkscape:window-maximized="0"
     inkscape:window-y="23"
     inkscape:window-x="0"
     inkscape:cy="283.30556"
     inkscape:cx="-22.74804"
     inkscape:zoom="2.7673301"
     units="mm"
     inkscape:document-units="mm"
     showgrid="false"
     id="namedview2562"
     inkscape:window-height="768"
     inkscape:window-width="1366"
     inkscape:pageshadow="2"
     inkscape:pageopacity="0"
     guidetolerance="10"
     gridtolerance="10"
     objecttolerance="10"
     borderopacity="1"
     bordercolor="#666666"
     pagecolor="#ffffff" />
  <defs
     id="defs2135">
    <style
       id="style2118">.cls-1{fill:#353535;}.cls-2{fill:url(#linear-gradient);}.cls-3{fill:gray;}.cls-4{fill:#b3b3b3;}.cls-5{fill:#424242;}.cls-6{fill:#121212;}.cls-7{fill:#fff;}.cls-8{fill:#ccc;}.cls-9{fill:#1a1a1a;}.cls-10{fill:#707070;}.cls-11{fill:url(#linear-gradient-2);}.cls-12{fill:url(#linear-gradient-3);}.cls-13{fill:none;}</style>
    <linearGradient
       gradientUnits="userSpaceOnUse"
       y2="349.56"
       x2="41.189999"
       y1="349.56"
       x1="21.34"
       id="linear-gradient">
      <stop
         id="stop2120"
         stop-color="#3fa9f5"
         offset="0" />
      <stop
         id="stop2122"
         stop-color="#ed1e79"
         offset="1" />
    </linearGradient>
    <linearGradient
       gradientUnits="userSpaceOnUse"
       y2="82.860001"
       x2="43.200001"
       y1="47.419998"
       x1="43.200001"
       id="linear-gradient-2">
      <stop
         id="stop2125"
         stop-color="#b3b3b3"
         offset="0" />
      <stop
         id="stop2127"
         offset="1" />
    </linearGradient>
    <linearGradient
       gradientUnits="userSpaceOnUse"
       y2="80.769997"
       x2="43.200001"
       y1="49.509998"
       x1="43.200001"
       id="linear-gradient-3">
      <stop
         id="stop2130"
         stop-color="#e6e6e6"
         offset="0" />
      <stop
         id="stop2132"
         stop-color="#999"
         offset="1" />
    </linearGradient>
  </defs>
  <g
     id="Background"
     transform="scale(1.3333333)">
    <g
       id="background-2"
       data-name="background">
      <path
         style="fill:#353535"
         inkscape:connector-curvature="0"
         id="rect4155"
         class="cls-1"
         d="M 0,0 H 86.4 V 364.25 H 0 Z" />
    </g>
  </g>
  <g
     id="branding"
     transform="scale(1.3333333)">
    <path
       inkscape:connector-curvature="0"
       class="cls-2"
       d="m 21.86,355.74 a 0.45,0.45 0 0 1 -0.25,-0.07 0.51,0.51 0 0 1 -0.2,-0.7 l 6.27,-11.32 a 0.51,0.51 0 0 1 0.58,-0.25 0.51,0.51 0 0 1 0.39,0.5 v 9.33 l 5.3,-9.58 a 0.52,0.52 0 0 1 1,0.25 v 9.33 l 5.31,-9.58 a 0.51,0.51 0 0 1 0.58,-0.25 0.52,0.52 0 0 1 0.38,0.5 v 11.32 a 0.52,0.52 0 1 1 -1,0 v -9.33 l -5.31,9.58 a 0.5,0.5 0 0 1 -0.57,0.25 0.51,0.51 0 0 1 -0.39,-0.5 v -9.33 l -5.31,9.58 a 0.5153882,0.5153882 0 0 1 -1,-0.25 v -9.33 l -5.31,9.58 a 0.53,0.53 0 0 1 -0.47,0.27 z"
       id="path2140"
       style="fill:url(#linear-gradient)" />
    <path
       style="fill:#808080"
       inkscape:connector-curvature="0"
       class="cls-3"
       d="m 43.68,343.9 a 0.5,0.5 0 0 1 0.51,-0.5 h 0.1 a 0.51,0.51 0 0 1 0.46,0.26 l 1.72,2.68 1.72,-2.69 a 0.5,0.5 0 0 1 0.46,-0.25 h 0.1 a 0.5,0.5 0 0 1 0.5,0.5 v 4.72 a 0.5,0.5 0 0 1 -1,0 v -3.39 l -1.39,2.08 a 0.46,0.46 0 0 1 -0.83,0 l -1.38,-2.06 v 3.38 a 0.48,0.48 0 0 1 -0.49,0.48 0.48,0.48 0 0 1 -0.49,-0.48 z"
       id="path2142" />
    <path
       style="fill:#b3b3b3"
       inkscape:connector-curvature="0"
       class="cls-4"
       d="m 48.75,343.4 h -0.1 a 0.5,0.5 0 0 0 -0.46,0.25 l -1.72,2.69 -1.72,-2.68 a 0.51,0.51 0 0 0 -0.46,-0.26 h -0.1 a 0.5,0.5 0 0 0 -0.51,0.5 v 4.73 a 0.48,0.48 0 0 0 0.49,0.48 0.48,0.48 0 0 0 0.49,-0.48 v -3.38 l 1.34,2.06 a 0.46,0.46 0 0 0 0.83,0 l 1.39,-2.08 v 3.39 a 0.5,0.5 0 0 0 1,0 v -4.72 a 0.5,0.5 0 0 0 -0.5,-0.5 z"
       id="path2144" />
    <path
       style="fill:#808080"
       inkscape:connector-curvature="0"
       class="cls-3"
       d="m 50.36,343.88 a 0.5,0.5 0 0 1 1,0 v 4.74 a 0.48,0.48 0 0 1 -0.49,0.49 0.49,0.49 0 0 1 -0.51,-0.49 z"
       id="path2146" />
    <path
       style="fill:#b3b3b3"
       inkscape:connector-curvature="0"
       class="cls-4"
       d="m 50.87,343.39 a 0.5,0.5 0 0 0 -0.51,0.49 v 4.74 a 0.49,0.49 0 0 0 0.51,0.49 0.48,0.48 0 0 0 0.49,-0.49 v -4.74 a 0.49,0.49 0 0 0 -0.49,-0.49 z"
       id="path2148" />
    <path
       style="fill:#808080"
       inkscape:connector-curvature="0"
       class="cls-3"
       d="m 52.47,343.9 a 0.5,0.5 0 0 1 0.5,-0.5 h 0.11 a 0.61,0.61 0 0 1 0.51,0.29 l 2.84,3.65 v -3.47 a 0.5,0.5 0 0 1 1,0 v 4.74 a 0.49,0.49 0 0 1 -0.49,0.5 v 0 a 0.66,0.66 0 0 1 -0.52,-0.3 l -2.91,-3.76 v 3.58 a 0.5,0.5 0 0 1 -1,0 z"
       id="path2150" />
    <path
       style="fill:#b3b3b3"
       inkscape:connector-curvature="0"
       class="cls-4"
       d="m 56.91,343.39 a 0.49,0.49 0 0 0 -0.48,0.48 v 3.47 l -2.84,-3.65 A 0.61,0.61 0 0 0 53.08,343.4 H 53 a 0.5,0.5 0 0 0 -0.5,0.5 v 4.73 a 0.5,0.5 0 0 0 1,0 v -3.58 l 2.91,3.76 a 0.66,0.66 0 0 0 0.52,0.3 v 0 a 0.49,0.49 0 0 0 0.49,-0.5 v -4.74 a 0.49,0.49 0 0 0 -0.5,-0.48 z"
       id="path2152" />
    <path
       style="fill:#808080"
       inkscape:connector-curvature="0"
       class="cls-3"
       d="m 58.46,343.93 a 0.5,0.5 0 0 1 0.5,-0.5 h 1.61 a 2.82,2.82 0 0 1 3,2.8 v 0 a 2.83,2.83 0 0 1 -3,2.82 H 59 a 0.49,0.49 0 0 1 -0.5,-0.5 z m 2.11,4.24 a 1.85,1.85 0 0 0 2,-1.9 v 0 a 1.86,1.86 0 0 0 -2,-1.92 h -1.11 v 3.84 z"
       id="path2154" />
    <path
       style="fill:#b3b3b3"
       inkscape:connector-curvature="0"
       class="cls-4"
       d="M 60.57,343.43 H 59 a 0.5,0.5 0 0 0 -0.5,0.5 v 4.64 a 0.49,0.49 0 0 0 0.5,0.5 h 1.61 a 2.83,2.83 0 0 0 3,-2.82 v 0 a 2.82,2.82 0 0 0 -3,-2.8 z m -1.11,4.74 v -3.84 h 1.11 a 1.86,1.86 0 0 1 2,1.92 v 0 a 1.85,1.85 0 0 1 -2,1.9 z"
       id="path2156" />
    <path
       style="fill:#808080"
       inkscape:connector-curvature="0"
       class="cls-3"
       d="m 43.68,350.51 a 0.5,0.5 0 0 1 0.51,-0.5 h 0.1 a 0.51,0.51 0 0 1 0.46,0.26 l 1.72,2.73 1.72,-2.68 a 0.51,0.51 0 0 1 0.46,-0.26 h 0.1 a 0.5,0.5 0 0 1 0.5,0.5 v 4.72 a 0.5,0.5 0 1 1 -1,0 v -3.38 l -1.39,2.07 a 0.46,0.46 0 0 1 -0.83,0 l -1.38,-2.06 v 3.38 a 0.48,0.48 0 0 1 -0.49,0.49 0.48,0.48 0 0 1 -0.49,-0.49 z"
       id="path2158" />
    <path
       style="fill:#b3b3b3"
       inkscape:connector-curvature="0"
       class="cls-4"
       d="m 48.75,350 h -0.1 a 0.51,0.51 0 0 0 -0.46,0.26 l -1.72,2.74 -1.72,-2.68 a 0.51,0.51 0 0 0 -0.46,-0.26 h -0.1 a 0.5,0.5 0 0 0 -0.51,0.5 v 4.73 a 0.48,0.48 0 0 0 0.49,0.49 0.48,0.48 0 0 0 0.49,-0.49 v -3.38 l 1.34,2.01 a 0.46,0.46 0 0 0 0.83,0 l 1.39,-2.07 v 3.38 a 0.5,0.5 0 1 0 1,0 v -4.72 a 0.5,0.5 0 0 0 -0.5,-0.5 z"
       id="path2160" />
    <path
       style="fill:#808080"
       inkscape:connector-curvature="0"
       class="cls-3"
       d="m 50.31,355.19 v -4.65 a 0.5,0.5 0 0 1 0.5,-0.5 h 3.29 a 0.45,0.45 0 1 1 0,0.89 h -2.8 v 1.46 h 2.44 a 0.45,0.45 0 0 1 0.44,0.46 0.44,0.44 0 0 1 -0.44,0.43 H 51.3 v 1.52 h 2.84 a 0.45,0.45 0 1 1 0,0.89 h -3.33 a 0.5,0.5 0 0 1 -0.5,-0.5 z"
       id="path2162" />
    <path
       style="fill:#b3b3b3"
       inkscape:connector-curvature="0"
       class="cls-4"
       d="m 54.1,350 h -3.29 a 0.5,0.5 0 0 0 -0.5,0.5 v 4.65 a 0.5,0.5 0 0 0 0.5,0.5 h 3.33 a 0.45,0.45 0 1 0 0,-0.89 H 51.3 v -1.52 h 2.44 a 0.44,0.44 0 0 0 0.44,-0.43 0.45,0.45 0 0 0 -0.44,-0.46 H 51.3 v -1.46 h 2.8 a 0.45,0.45 0 1 0 0,-0.89 z"
       id="path2164" />
    <path
       style="fill:#808080"
       inkscape:connector-curvature="0"
       class="cls-3"
       d="m 55.33,350.49 a 0.5,0.5 0 0 1 1,0 v 4.29 h 2.57 a 0.45,0.45 0 0 1 0.45,0.45 0.46,0.46 0 0 1 -0.45,0.46 h -3.07 a 0.5,0.5 0 0 1 -0.5,-0.5 z"
       id="path2166" />
    <path
       style="fill:#b3b3b3"
       inkscape:connector-curvature="0"
       class="cls-4"
       d="m 55.83,350 a 0.49,0.49 0 0 0 -0.5,0.49 v 4.7 a 0.5,0.5 0 0 0 0.5,0.5 h 3.06 a 0.46,0.46 0 0 0 0.45,-0.46 0.45,0.45 0 0 0 -0.45,-0.45 h -2.57 v -4.29 A 0.49,0.49 0 0 0 55.83,350 Z"
       id="path2168" />
    <path
       style="fill:#808080"
       inkscape:connector-curvature="0"
       class="cls-3"
       d="m 59.93,350.54 a 0.5,0.5 0 0 1 0.51,-0.5 h 1.61 a 2.82,2.82 0 0 1 3,2.81 v 0 a 2.84,2.84 0 0 1 -3,2.83 h -1.61 a 0.5,0.5 0 0 1 -0.51,-0.5 z m 2.12,4.24 a 1.84,1.84 0 0 0 2,-1.9 v 0 a 1.85,1.85 0 0 0 -2,-1.92 h -1.12 v 3.84 z"
       id="path2170" />
    <path
       style="fill:#b3b3b3"
       inkscape:connector-curvature="0"
       class="cls-4"
       d="m 62.05,350 h -1.61 a 0.5,0.5 0 0 0 -0.51,0.5 v 4.65 a 0.5,0.5 0 0 0 0.51,0.5 h 1.61 a 2.84,2.84 0 0 0 3,-2.83 v 0 a 2.82,2.82 0 0 0 -3,-2.81 z m -1.12,4.74 v -3.84 h 1.12 a 1.85,1.85 0 0 1 2,1.92 v 0 a 1.84,1.84 0 0 1 -2,1.9 z"
       id="path2172" />
    <path
       style="fill:#b3b3b3"
       inkscape:connector-curvature="0"
       class="cls-4"
       d="M 10.75,15.93 A 2.24,2.24 0 0 1 10,17.65 2.56,2.56 0 0 1 8.22,18.32 H 4.82 V 10.09 H 8 a 2.46,2.46 0 0 1 1.73,0.65 2.15,2.15 0 0 1 0.72,1.66 2,2 0 0 1 -0.76,1.65 2.06,2.06 0 0 1 1.06,1.88 z M 6.41,11.6 v 1.81 H 8 A 0.91,0.91 0 0 0 8,11.6 Z m 1.83,5.2 a 1,1 0 0 0 0,-1.94 H 6.41 v 1.94 z"
       id="path2174" />
    <path
       style="fill:#b3b3b3"
       inkscape:connector-curvature="0"
       class="cls-4"
       d="M 17.19,18.32 16.71,16.84 H 13.5 L 13,18.32 h -1.7 l 2.82,-8.23 h 2 l 2.83,8.23 z m -3.19,-3 h 2.22 L 15.11,12 Z"
       id="path2176" />
    <path
       style="fill:#b3b3b3"
       inkscape:connector-curvature="0"
       class="cls-4"
       d="m 19.33,16.45 1.36,-0.81 a 1.81,1.81 0 0 0 1.86,1.25 c 0.88,0 1.29,-0.36 1.29,-0.87 a 0.76,0.76 0 0 0 -0.38,-0.67 5.67,5.67 0 0 0 -1.36,-0.52 5.07,5.07 0 0 1 -1.67,-0.77 2,2 0 0 1 -0.76,-1.69 2.21,2.21 0 0 1 0.77,-1.78 2.78,2.78 0 0 1 1.88,-0.67 3.08,3.08 0 0 1 2.88,1.85 l -1.34,0.79 A 1.6,1.6 0 0 0 22.32,11.5 c -0.66,0 -1.06,0.34 -1.06,0.82 a 0.75,0.75 0 0 0 0.31,0.63 4.65,4.65 0 0 0 1.22,0.52 l 0.55,0.19 0.52,0.2 a 2.42,2.42 0 0 1 0.51,0.25 2.06,2.06 0 0 1 1.06,1.89 2.23,2.23 0 0 1 -0.82,1.81 3.2,3.2 0 0 1 -2.11,0.67 3.12,3.12 0 0 1 -3.17,-2.03 z"
       id="path2178" />
    <path
       style="fill:#b3b3b3"
       inkscape:connector-curvature="0"
       class="cls-4"
       d="m 26,16.45 1.36,-0.81 a 1.81,1.81 0 0 0 1.86,1.25 c 0.88,0 1.29,-0.36 1.29,-0.87 A 0.76,0.76 0 0 0 30.13,15.35 5.67,5.67 0 0 0 28.77,14.83 5.07,5.07 0 0 1 27.1,14.06 2,2 0 0 1 26.34,12.37 2.21,2.21 0 0 1 27.11,10.59 2.78,2.78 0 0 1 29,9.92 a 3.08,3.08 0 0 1 2.88,1.85 l -1.34,0.79 A 1.6,1.6 0 0 0 29,11.5 c -0.66,0 -1.06,0.34 -1.06,0.82 a 0.75,0.75 0 0 0 0.31,0.63 4.65,4.65 0 0 0 1.22,0.52 l 0.55,0.19 c 0.13,0 0.3,0.11 0.52,0.2 a 2.42,2.42 0 0 1 0.51,0.25 2.06,2.06 0 0 1 1.08,1.89 2.23,2.23 0 0 1 -0.82,1.81 3.2,3.2 0 0 1 -2.11,0.67 3.12,3.12 0 0 1 -3.2,-2.03 z"
       id="path2180" />
    <path
       style="fill:#808080"
       inkscape:connector-curvature="0"
       class="cls-3"
       d="m 41.22,10.09 v 8.23 H 39.64 V 13 l -2.27,3.8 H 37.19 L 34.92,13 v 5.33 H 33.33 V 10.09 H 35 l 2.28,3.91 2.31,-3.89 z"
       id="path2182" />
    <path
       style="fill:#808080"
       inkscape:connector-curvature="0"
       class="cls-3"
       d="M 48.13,18.32 47.64,16.84 H 44.43 L 44,18.32 h -1.77 l 2.82,-8.23 h 2 l 2.83,8.23 z m -3.19,-3 h 2.21 L 46,12 Z"
       id="path2184" />
    <path
       style="fill:#808080"
       inkscape:connector-curvature="0"
       class="cls-3"
       d="m 50.26,16.45 1.36,-0.81 a 1.82,1.82 0 0 0 1.86,1.25 c 0.88,0 1.29,-0.36 1.29,-0.87 A 0.76,0.76 0 0 0 54.39,15.35 5.67,5.67 0 0 0 53,14.83 a 5.07,5.07 0 0 1 -1.67,-0.77 2,2 0 0 1 -0.76,-1.69 2.21,2.21 0 0 1 0.77,-1.78 2.78,2.78 0 0 1 1.88,-0.67 3.08,3.08 0 0 1 2.88,1.85 l -1.34,0.79 A 1.6,1.6 0 0 0 53.22,11.5 c -0.66,0 -1.06,0.34 -1.06,0.82 a 0.75,0.75 0 0 0 0.31,0.63 4.65,4.65 0 0 0 1.22,0.52 l 0.55,0.19 0.52,0.2 a 2.42,2.42 0 0 1 0.51,0.25 2.06,2.06 0 0 1 1.09,1.89 2.23,2.23 0 0 1 -0.82,1.81 3.18,3.18 0 0 1 -2.11,0.67 3.12,3.12 0 0 1 -3.17,-2.03 z"
       id="path2186" />
    <path
       style="fill:#808080"
       inkscape:connector-curvature="0"
       class="cls-3"
       d="m 62.67,10.09 v 1.55 h -2.18 v 6.68 H 58.9 v -6.68 h -2.17 v -1.55 z"
       id="path2188" />
    <path
       style="fill:#808080"
       inkscape:connector-curvature="0"
       class="cls-3"
       d="m 65.37,16.77 h 3.4 v 1.55 h -5 v -8.23 h 4.93 v 1.55 h -3.33 v 1.75 h 3 v 1.53 h -3 z"
       id="path2190" />
    <path
       style="fill:#808080"
       inkscape:connector-curvature="0"
       class="cls-3"
       d="M 74.53,18.32 72.91,15.46 H 71.7 v 2.86 h -1.59 v -8.23 h 3.23 a 2.58,2.58 0 0 1 1.9,0.8 2.68,2.68 0 0 1 -0.78,4.32 l 1.79,3.11 z M 71.7,11.6 V 14 h 1.64 a 1.18,1.18 0 0 0 1.09,-1.23 1.16,1.16 0 0 0 -1.09,-1.21 z"
       id="path2192" />
    <path
       style="fill:#b3b3b3"
       inkscape:connector-curvature="0"
       class="cls-4"
       d="m 77.34,14.12 1,-0.53 A 0.67,0.67 0 0 0 79,14 c 0.41,0 0.62,-0.18 0.62,-0.55 v -3.13 h 1.09 v 3.12 A 1.45,1.45 0 0 1 80.23,14.6 1.8,1.8 0 0 1 79,15 1.68,1.68 0 0 1 77.34,14.12 Z"
       id="path2194" />
    <path
       style="fill:#b3b3b3"
       inkscape:connector-curvature="0"
       class="cls-4"
       d="m 82.46,12.22 a 1,1 0 0 1 1,-0.65 v 1.12 a 1.06,1.06 0 0 0 -0.7,0.12 0.67,0.67 0 0 0 -0.32,0.63 v 1.48 h -1 v -3.28 h 1 z"
       id="path2196" />
  </g>
  <g
     id="Section_BGs"
     data-name="Section BGs"
     transform="scale(1.3333333)">
    <rect
       style="fill:#424242"
       class="cls-5"
       x="4.25"
       y="187.45"
       width="77.900002"
       height="73.870003"
       rx="2.72"
       id="rect2199" />
    <rect
       style="fill:#424242"
       class="cls-5"
       x="4.25"
       y="108.89"
       width="77.900002"
       height="73.870003"
       rx="2.72"
       id="rect2201" />
    <rect
       style="fill:#424242"
       class="cls-5"
       x="4.25"
       y="25.51"
       width="77.900002"
       height="78.730003"
       rx="2.8099999"
       id="rect2203" />
    <rect
       style="fill:#121212"
       class="cls-6"
       x="51.27"
       y="267.01999"
       width="30.610001"
       height="69.169998"
       rx="1.41"
       id="rect2205" />
    <rect
       style="fill:#424242"
       class="cls-5"
       x="4.25"
       y="267.01999"
       width="30.610001"
       height="69.169998"
       rx="1.41"
       id="rect2207" />
  </g>
  <g
     id="labels"
     transform="scale(1.3333333)">
    <path
       style="fill:#ffffff"
       inkscape:connector-curvature="0"
       class="cls-7"
       d="m 16.27,270.77 h 1 v 4.9 h -1 z"
       id="path2210" />
    <path
       style="fill:#ffffff"
       inkscape:connector-curvature="0"
       class="cls-7"
       d="m 21.16,270.77 h 1 v 4.9 h -0.74 l -2.1,-3 v 3 h -1 v -4.9 h 0.73 l 2.1,3 z"
       id="path2212" />
    <path
       style="fill:#ffffff"
       inkscape:connector-curvature="0"
       class="cls-7"
       d="m 42.71,293.7 h 2 v 1 h -3.05 v -5.31 h 1.05 z"
       id="path2214" />
    <path
       style="fill:#ffffff"
       inkscape:connector-curvature="0"
       class="cls-7"
       d="M 44.09,321.65 43,319.8 h -0.8 v 1.85 h -1 v -5.32 h 2.1 a 1.76,1.76 0 0 1 1.77,1.76 1.73,1.73 0 0 1 -1,1.55 l 1.17,2 z m -1.87,-4.34 v 1.57 h 1.08 a 0.76,0.76 0 0 0 0.72,-0.79 0.75,0.75 0 0 0 -0.72,-0.78 z"
       id="path2216" />
    <path
       style="fill:#ffffff"
       inkscape:connector-curvature="0"
       class="cls-7"
       d="m 61.65,275.91 a 2.36,2.36 0 0 1 -1.75,-0.74 2.55,2.55 0 0 1 -0.71,-1.81 2.51,2.51 0 0 1 0.71,-1.81 2.43,2.43 0 0 1 3.49,0 2.48,2.48 0 0 1 0.72,1.81 2.51,2.51 0 0 1 -0.72,1.81 2.35,2.35 0 0 1 -1.74,0.74 z m 0,-1 a 1.41,1.41 0 0 0 1.08,-0.45 1.58,1.58 0 0 0 0.44,-1.15 1.61,1.61 0 0 0 -0.44,-1.16 1.53,1.53 0 0 0 -2.17,0 1.61,1.61 0 0 0 -0.44,1.16 1.58,1.58 0 0 0 0.44,1.15 1.41,1.41 0 0 0 1.09,0.54 z"
       id="path2218" />
    <path
       style="fill:#ffffff"
       inkscape:connector-curvature="0"
       class="cls-7"
       d="m 65.73,275.44 a 1.57,1.57 0 0 1 -0.51,-1.23 v -3.3 h 0.93 v 3.22 a 0.88,0.88 0 0 0 1.76,0 v -3.22 h 0.93 v 3.3 a 1.57,1.57 0 0 1 -0.51,1.23 2,2 0 0 1 -2.6,0 z"
       id="path2220" />
    <path
       style="fill:#ffffff"
       inkscape:connector-curvature="0"
       class="cls-7"
       d="m 73.34,270.91 v 0.92 h -1.27 v 4 h -0.94 v -4 h -1.27 v -0.92 z"
       id="path2222" />
    <path
       style="fill:#ffffff"
       inkscape:connector-curvature="0"
       class="cls-7"
       d="m 36.25,197.19 h 2 V 198 h -2.8 v -4.9 h 0.8 z"
       id="path2224" />
    <path
       style="fill:#ffffff"
       inkscape:connector-curvature="0"
       class="cls-7"
       d="m 41.18,198.05 a 2.51,2.51 0 0 1 -2.55,-2.54 2.55,2.55 0 1 1 5.09,0 2.51,2.51 0 0 1 -2.54,2.54 z m 0,-0.78 a 1.67,1.67 0 0 0 1.23,-0.5 1.74,1.74 0 0 0 0.5,-1.26 1.69,1.69 0 0 0 -0.5,-1.25 1.64,1.64 0 0 0 -1.23,-0.51 1.67,1.67 0 0 0 -1.24,0.51 1.69,1.69 0 0 0 -0.5,1.25 1.74,1.74 0 0 0 0.5,1.26 1.7,1.7 0 0 0 1.24,0.5 z"
       id="path2226" />
    <path
       style="fill:#ffffff"
       inkscape:connector-curvature="0"
       class="cls-7"
       d="m 45.63,198 -1.39,-4.9 h 0.85 l 1,3.83 1.11,-3.83 H 48 l 1.11,3.83 1,-3.83 H 51 l -1.43,4.9 h -0.93 l -1,-3.58 -1,3.58 z"
       id="path2228" />
    <path
       style="fill:#ffffff"
       inkscape:connector-curvature="0"
       class="cls-7"
       d="m 21.42,35.64 a 2.51,2.51 0 0 1 -0.73,-1.82 2.51,2.51 0 0 1 2.56,-2.54 2.42,2.42 0 0 1 2.11,1.17 l -0.7,0.41 a 1.56,1.56 0 0 0 -1.41,-0.8 1.72,1.72 0 0 0 -1.27,0.5 1.89,1.89 0 0 0 0,2.52 1.72,1.72 0 0 0 1.27,0.5 1.56,1.56 0 0 0 1.41,-0.79 l 0.7,0.4 a 2.25,2.25 0 0 1 -0.87,0.86 2.62,2.62 0 0 1 -3.07,-0.41 z"
       id="path2230" />
    <path
       style="fill:#ffffff"
       inkscape:connector-curvature="0"
       class="cls-7"
       d="m 29.38,36.27 -1,-1.78 h -0.95 v 1.78 h -0.8 v -4.9 h 2 a 1.57,1.57 0 0 1 1.49,1.63 1.54,1.54 0 0 1 -1,1.42 l 1.11,1.9 z m -2,-4.14 v 1.64 h 1.16 a 0.82,0.82 0 0 0 0,-1.64 z"
       id="path2232" />
    <path
       style="fill:#ffffff"
       inkscape:connector-curvature="0"
       class="cls-7"
       d="m 33.7,36.37 a 2.51,2.51 0 0 1 -2.54,-2.55 2.46,2.46 0 0 1 0.73,-1.8 2.49,2.49 0 0 1 1.81,-0.74 2.55,2.55 0 1 1 0,5.09 z m 0,-0.79 a 1.77,1.77 0 0 0 1.23,-3 1.64,1.64 0 0 0 -1.23,-0.51 1.68,1.68 0 0 0 -1.24,0.51 1.76,1.76 0 0 0 1.24,3 z"
       id="path2234" />
    <path
       style="fill:#ffffff"
       inkscape:connector-curvature="0"
       class="cls-7"
       d="m 37.09,35.16 0.7,-0.41 A 1.16,1.16 0 0 0 39,35.58 c 0.61,0 0.92,-0.26 0.92,-0.64 a 0.52,0.52 0 0 0 -0.25,-0.46 4.32,4.32 0 0 0 -0.87,-0.35 3.27,3.27 0 0 1 -1,-0.45 1.12,1.12 0 0 1 -0.47,-1 1.24,1.24 0 0 1 0.46,-1 1.67,1.67 0 0 1 1.11,-0.39 1.81,1.81 0 0 1 1.71,1.08 l -0.68,0.39 a 1.07,1.07 0 0 0 -1,-0.69 c -0.47,0 -0.77,0.24 -0.77,0.61 0,0.37 0.24,0.54 1,0.77 a 3.3,3.3 0 0 1 0.4,0.14 2.61,2.61 0 0 1 0.37,0.14 1.46,1.46 0 0 1 0.36,0.19 1.17,1.17 0 0 1 0.5,1 1.3,1.3 0 0 1 -0.55,1.08 1.94,1.94 0 0 1 -1.26,0.39 1.86,1.86 0 0 1 -1.89,-1.23 z"
       id="path2236" />
    <path
       style="fill:#ffffff"
       inkscape:connector-curvature="0"
       class="cls-7"
       d="m 41.56,35.16 0.69,-0.41 a 1.17,1.17 0 0 0 1.22,0.83 c 0.61,0 0.91,-0.26 0.91,-0.64 a 0.51,0.51 0 0 0 -0.24,-0.46 4.32,4.32 0 0 0 -0.87,-0.35 3.27,3.27 0 0 1 -1,-0.45 1.1,1.1 0 0 1 -0.48,-1 1.27,1.27 0 0 1 0.46,-1 1.68,1.68 0 0 1 1.12,-0.39 1.83,1.83 0 0 1 1.71,1.08 l -0.68,0.39 a 1.08,1.08 0 0 0 -1,-0.69 c -0.47,0 -0.77,0.24 -0.77,0.61 0,0.37 0.24,0.54 1,0.77 a 3.63,3.63 0 0 1 0.41,0.14 l 0.37,0.14 a 1.3,1.3 0 0 1 0.86,1.2 1.28,1.28 0 0 1 -0.57,1.07 1.89,1.89 0 0 1 -1.25,0.39 1.86,1.86 0 0 1 -1.89,-1.23 z"
       id="path2238" />
    <path
       style="fill:#ffffff"
       inkscape:connector-curvature="0"
       class="cls-7"
       d="m 48.7,36.37 a 2.51,2.51 0 0 1 -2.54,-2.55 2.46,2.46 0 0 1 0.73,-1.8 2.49,2.49 0 0 1 1.81,-0.74 2.55,2.55 0 1 1 0,5.09 z m 0,-0.79 a 1.77,1.77 0 0 0 1.23,-3 1.64,1.64 0 0 0 -1.23,-0.51 1.68,1.68 0 0 0 -1.24,0.51 1.76,1.76 0 0 0 1.24,3 z"
       id="path2240" />
    <path
       style="fill:#ffffff"
       inkscape:connector-curvature="0"
       class="cls-7"
       d="m 53.57,36.27 -1.7,-4.9 h 0.88 l 1.3,3.93 1.31,-3.93 h 0.88 l -1.7,4.9 z"
       id="path2242" />
    <path
       style="fill:#ffffff"
       inkscape:connector-curvature="0"
       class="cls-7"
       d="m 58.13,35.5 h 2.17 v 0.77 h -3 v -4.9 h 2.94 v 0.77 h -2.11 v 1.28 h 2 v 0.76 h -2 z"
       id="path2244" />
    <path
       style="fill:#ffffff"
       inkscape:connector-curvature="0"
       class="cls-7"
       d="m 64.39,36.27 -1,-1.78 h -1 v 1.78 h -0.81 v -4.9 h 2 a 1.57,1.57 0 0 1 1.55,1.63 1.54,1.54 0 0 1 -1,1.42 l 1.11,1.9 z m -2,-4.14 v 1.64 h 1.15 a 0.82,0.82 0 0 0 0,-1.64 z"
       id="path2246" />
    <path
       style="fill:#ffffff"
       inkscape:connector-curvature="0"
       class="cls-7"
       d="m 37.56,114.5 h 0.81 v 4.9 h -0.81 v -2.12 h -2.1 v 2.12 h -0.8 v -4.9 h 0.8 v 2 h 2.1 z"
       id="path2248" />
    <path
       style="fill:#ffffff"
       inkscape:connector-curvature="0"
       class="cls-7"
       d="m 39.7,114.5 h 0.8 v 4.9 h -0.8 z"
       id="path2250" />
    <path
       style="fill:#ffffff"
       inkscape:connector-curvature="0"
       class="cls-7"
       d="m 46.6,116.87 v 0.33 a 2.21,2.21 0 0 1 -0.66,1.66 2.43,2.43 0 0 1 -1.74,0.63 2.56,2.56 0 0 1 -1.88,-0.73 2.6,2.6 0 0 1 0,-3.61 2.53,2.53 0 0 1 1.84,-0.74 2.45,2.45 0 0 1 2.13,1.16 l -0.69,0.4 a 1.62,1.62 0 0 0 -1.44,-0.78 1.7,1.7 0 0 0 -1.27,0.51 1.74,1.74 0 0 0 -0.5,1.26 1.7,1.7 0 0 0 0.5,1.25 1.82,1.82 0 0 0 1.32,0.5 1.46,1.46 0 0 0 1.58,-1.12 h -1.64 v -0.72 z"
       id="path2252" />
    <path
       style="fill:#ffffff"
       inkscape:connector-curvature="0"
       class="cls-7"
       d="m 50.59,114.5 h 0.81 v 4.9 h -0.81 v -2.12 h -2.1 v 2.12 h -0.81 v -4.9 h 0.81 v 2 h 2.1 z"
       id="path2254" />
    <path
       style="fill:#cccccc"
       inkscape:connector-curvature="0"
       class="cls-8"
       d="m 11.33,82.9 a 1.39,1.39 0 0 1 0.92,0.32 1.12,1.12 0 0 1 0.38,0.89 1.08,1.08 0 0 1 -0.39,0.88 1.37,1.37 0 0 1 -0.93,0.33 A 1.27,1.27 0 0 1 10,84.49 l 0.43,-0.25 a 0.79,0.79 0 0 0 0.84,0.58 0.72,0.72 0 1 0 0,-1.43 h -1.04 l 0.14,-2 h 2.11 v 0.48 h -1.65 l -0.06,1 z"
       id="path2256" />
    <path
       style="fill:#cccccc"
       inkscape:connector-curvature="0"
       class="cls-8"
       d="m 14.6,85.32 a 1.28,1.28 0 0 1 -1.09,-0.55 2.89,2.89 0 0 1 0,-2.9 1.38,1.38 0 0 1 2.19,0 2.89,2.89 0 0 1 0,2.9 1.29,1.29 0 0 1 -1.1,0.55 z m 0,-0.5 c 0.62,0 1,-0.55 1,-1.5 0,-0.95 -0.36,-1.5 -1,-1.5 -0.64,0 -1,0.54 -1,1.5 0,0.96 0.4,1.5 1,1.5 z"
       id="path2258" />
    <path
       style="fill:#cccccc"
       inkscape:connector-curvature="0"
       class="cls-8"
       d="m 19.26,81.4 h 0.51 v 3.84 H 19.26 V 83.51 H 17.4 v 1.73 H 16.89 V 81.4 H 17.4 V 83 h 1.86 z"
       id="path2260" />
    <path
       style="fill:#cccccc"
       inkscape:connector-curvature="0"
       class="cls-8"
       d="m 21.24,84.79 h 1.46 v 0.45 H 20.59 V 84.93 L 22,83 h -1.36 v -0.5 h 2 v 0.32 z"
       id="path2262" />
    <path
       style="fill:#cccccc"
       inkscape:connector-curvature="0"
       class="cls-8"
       d="m 63.17,82.9 a 1.35,1.35 0 0 1 0.91,0.32 1.09,1.09 0 0 1 0.38,0.89 1.07,1.07 0 0 1 -0.38,0.88 1.39,1.39 0 0 1 -0.93,0.33 1.27,1.27 0 0 1 -1.27,-0.83 l 0.43,-0.25 a 0.79,0.79 0 0 0 0.84,0.58 0.72,0.72 0 1 0 0,-1.43 h -1.08 l 0.14,-2 h 2.11 v 0.48 h -1.65 l -0.06,1 z"
       id="path2264" />
    <path
       style="fill:#cccccc"
       inkscape:connector-curvature="0"
       class="cls-8"
       d="m 66.44,85.32 a 1.27,1.27 0 0 1 -1.09,-0.55 2.89,2.89 0 0 1 0,-2.9 1.37,1.37 0 0 1 2.18,0 2.89,2.89 0 0 1 0,2.9 1.26,1.26 0 0 1 -1.09,0.55 z m 0,-0.5 c 0.62,0 1,-0.55 1,-1.5 0,-0.95 -0.36,-1.5 -1,-1.5 -0.64,0 -1,0.54 -1,1.5 0,0.96 0.38,1.5 1,1.5 z"
       id="path2266" />
    <path
       style="fill:#cccccc"
       inkscape:connector-curvature="0"
       class="cls-8"
       d="m 70,85.32 a 1.28,1.28 0 0 1 -1,-0.55 2.89,2.89 0 0 1 0,-2.9 1.38,1.38 0 0 1 2.19,0 2.89,2.89 0 0 1 0,2.9 1.29,1.29 0 0 1 -1.19,0.55 z m 0,-0.5 c 0.62,0 1,-0.55 1,-1.5 0,-0.95 -0.36,-1.5 -1,-1.5 -0.64,0 -1,0.54 -1,1.5 0,0.96 0.42,1.5 1,1.5 z"
       id="path2268" />
    <path
       style="fill:#cccccc"
       inkscape:connector-curvature="0"
       class="cls-8"
       d="m 74.7,81.4 h 0.51 v 3.84 H 74.7 v -1.73 h -1.86 v 1.73 H 72.33 V 81.4 h 0.51 V 83 h 1.86 z"
       id="path2270" />
    <path
       style="fill:#cccccc"
       inkscape:connector-curvature="0"
       class="cls-8"
       d="m 76.68,84.79 h 1.46 v 0.45 H 76 v -0.31 l 1.4,-2 H 76.08 V 82.5 h 2 v 0.32 z"
       id="path2272" />
    <path
       style="fill:#cccccc"
       inkscape:connector-curvature="0"
       class="cls-8"
       d="m 58.19,129.17 v 0.34 a 2.2,2.2 0 0 1 -2.32,2.29 2.43,2.43 0 0 1 -1.81,-0.74 2.65,2.65 0 0 1 0,-3.61 2.39,2.39 0 0 1 1.77,-0.74 2.36,2.36 0 0 1 2.06,1.16 l -0.67,0.4 a 1.55,1.55 0 0 0 -1.39,-0.77 1.58,1.58 0 0 0 -1.22,0.5 1.77,1.77 0 0 0 -0.48,1.26 1.68,1.68 0 0 0 1.75,1.74 1.42,1.42 0 0 0 1.52,-1.12 h -1.58 v -0.72 z"
       id="path2274" />
    <path
       style="fill:#cccccc"
       inkscape:connector-curvature="0"
       class="cls-8"
       d="m 61.52,128.2 h 0.73 v 3.51 h -0.73 v -0.51 a 1.34,1.34 0 0 1 -1.18,0.6 1.55,1.55 0 0 1 -1.19,-0.54 1.84,1.84 0 0 1 -0.49,-1.31 1.87,1.87 0 0 1 0.49,-1.31 1.57,1.57 0 0 1 1.19,-0.53 1.36,1.36 0 0 1 1.18,0.59 z m -1.07,2.87 a 1,1 0 0 0 0.77,-0.31 1.23,1.23 0 0 0 0,-1.61 1.07,1.07 0 0 0 -1.53,0 1.23,1.23 0 0 0 0,1.61 1,1 0 0 0 0.76,0.31 z"
       id="path2276" />
    <path
       style="fill:#cccccc"
       inkscape:connector-curvature="0"
       class="cls-8"
       d="m 63.13,127.54 a 0.5,0.5 0 0 1 0,-0.68 0.45,0.45 0 0 1 0.67,0 0.49,0.49 0 0 1 0,0.68 0.45,0.45 0 0 1 -0.67,0 z m 0,4.17 v -3.51 h 0.73 v 3.51 z"
       id="path2278" />
    <path
       style="fill:#cccccc"
       inkscape:connector-curvature="0"
       class="cls-8"
       d="m 67.75,129.56 v 2.15 H 67 v -2.08 a 0.72,0.72 0 0 0 -0.76,-0.81 c -0.51,0 -0.85,0.33 -0.85,1 v 1.88 h -0.74 v -3.5 h 0.74 v 0.45 a 1.12,1.12 0 0 1 1,-0.54 1.29,1.29 0 0 1 1.36,1.45 z"
       id="path2280" />
    <path
       style="fill:#cccccc"
       inkscape:connector-curvature="0"
       class="cls-8"
       d="m 72.3,126.8 h 0.76 v 4.91 H 72.3 v -0.51 a 1.4,1.4 0 0 1 -1.22,0.6 1.65,1.65 0 0 1 -1.24,-0.54 1.81,1.81 0 0 1 -0.51,-1.31 1.84,1.84 0 0 1 0.51,-1.31 1.68,1.68 0 0 1 1.24,-0.53 1.42,1.42 0 0 1 1.22,0.59 z m -1.1,4.28 a 1.09,1.09 0 0 0 0.79,-0.32 1.11,1.11 0 0 0 0.31,-0.81 1.11,1.11 0 1 0 -2.21,0 1.11,1.11 0 0 0 0.31,0.81 1.09,1.09 0 0 0 0.8,0.32 z"
       id="path2282" />
    <path
       style="fill:#cccccc"
       inkscape:connector-curvature="0"
       class="cls-8"
       d="m 77.56,130.31 a 1.32,1.32 0 0 1 -0.43,1 1.48,1.48 0 0 1 -1,0.4 H 74 v -4.91 h 2 a 1.46,1.46 0 0 1 1,0.39 1.28,1.28 0 0 1 0.42,1 1.17,1.17 0 0 1 -0.5,1 1.25,1.25 0 0 1 0.64,1.12 z m -2.77,-2.75 v 1.29 h 1.15 a 0.65,0.65 0 0 0 0,-1.29 z m 1.3,3.39 a 0.69,0.69 0 0 0 0,-1.37 h -1.3 V 131 Z"
       id="path2284" />
    <path
       style="fill:#cccccc"
       inkscape:connector-curvature="0"
       class="cls-8"
       d="m 58.19,207.73 v 0.33 a 2.18,2.18 0 0 1 -2.32,2.29 2.42,2.42 0 0 1 -1.81,-0.73 2.65,2.65 0 0 1 0,-3.61 2.44,2.44 0 0 1 3.83,0.42 l -0.67,0.4 a 1.55,1.55 0 0 0 -1.39,-0.78 1.59,1.59 0 0 0 -1.22,0.51 1.88,1.88 0 0 0 0,2.51 1.7,1.7 0 0 0 1.27,0.5 1.42,1.42 0 0 0 1.52,-1.12 h -1.58 v -0.72 z"
       id="path2286" />
    <path
       style="fill:#cccccc"
       inkscape:connector-curvature="0"
       class="cls-8"
       d="m 61.52,206.76 h 0.73 v 3.5 h -0.73 v -0.5 a 1.33,1.33 0 0 1 -1.18,0.59 1.54,1.54 0 0 1 -1.19,-0.53 2,2 0 0 1 0,-2.62 1.54,1.54 0 0 1 1.19,-0.53 1.36,1.36 0 0 1 1.18,0.59 z m -1.07,2.87 a 1,1 0 0 0 0.77,-0.31 1.16,1.16 0 0 0 0.3,-0.81 1.12,1.12 0 0 0 -0.3,-0.8 1.07,1.07 0 0 0 -1.53,0 1.12,1.12 0 0 0 -0.3,0.8 1.16,1.16 0 0 0 0.3,0.81 1,1 0 0 0 0.76,0.31 z"
       id="path2288" />
    <path
       style="fill:#cccccc"
       inkscape:connector-curvature="0"
       class="cls-8"
       d="m 63.13,206.09 a 0.5,0.5 0 0 1 0,-0.68 0.46,0.46 0 0 1 0.67,0 0.49,0.49 0 0 1 0,0.68 0.45,0.45 0 0 1 -0.67,0 z m 0,4.17 v -3.5 h 0.73 v 3.5 z"
       id="path2290" />
    <path
       style="fill:#cccccc"
       inkscape:connector-curvature="0"
       class="cls-8"
       d="m 67.75,208.11 v 2.15 H 67 v -2.07 a 0.71,0.71 0 0 0 -0.76,-0.81 c -0.51,0 -0.85,0.33 -0.85,1 v 1.87 h -0.74 v -3.5 h 0.74 v 0.45 a 1.12,1.12 0 0 1 1,-0.54 1.29,1.29 0 0 1 1.36,1.45 z"
       id="path2292" />
    <path
       style="fill:#cccccc"
       inkscape:connector-curvature="0"
       class="cls-8"
       d="m 72.3,205.36 h 0.76 v 4.9 H 72.3 v -0.5 a 1.39,1.39 0 0 1 -1.22,0.59 1.64,1.64 0 0 1 -1.24,-0.53 1.94,1.94 0 0 1 0,-2.62 1.64,1.64 0 0 1 1.24,-0.53 1.42,1.42 0 0 1 1.22,0.59 z m -1.1,4.27 a 1.08,1.08 0 0 0 0.79,-0.31 1.12,1.12 0 0 0 0.31,-0.81 1.11,1.11 0 1 0 -2.21,0 1.12,1.12 0 0 0 0.31,0.81 1.09,1.09 0 0 0 0.8,0.31 z"
       id="path2294" />
    <path
       style="fill:#cccccc"
       inkscape:connector-curvature="0"
       class="cls-8"
       d="m 77.56,208.86 a 1.29,1.29 0 0 1 -0.43,1 1.44,1.44 0 0 1 -1,0.4 H 74 v -4.9 h 2 a 1.42,1.42 0 0 1 1,0.39 1.26,1.26 0 0 1 0.42,1 1.18,1.18 0 0 1 -0.5,1 1.24,1.24 0 0 1 0.64,1.11 z m -2.77,-2.74 v 1.28 h 1.15 a 0.64,0.64 0 0 0 0,-1.28 z m 1.3,3.39 a 0.69,0.69 0 0 0 0,-1.38 h -1.3 v 1.38 z"
       id="path2296" />
    <path
       style="fill:#cccccc"
       inkscape:connector-curvature="0"
       class="cls-8"
       d="M 10.24,131.51 8.85,126.6 H 9.7 l 1,3.83 1.12,-3.83 h 0.74 l 1.1,3.83 1,-3.83 h 0.85 l -1.39,4.91 h -0.93 l -1,-3.58 -1.05,3.58 z"
       id="path2298" />
    <path
       style="fill:#cccccc"
       inkscape:connector-curvature="0"
       class="cls-8"
       d="m 15.94,127.34 a 0.48,0.48 0 0 1 0,-0.68 0.46,0.46 0 0 1 0.68,0 0.48083261,0.48083261 0 1 1 -0.68,0.68 z m 0,4.17 V 128 h 0.76 v 3.51 z"
       id="path2300" />
    <path
       style="fill:#cccccc"
       inkscape:connector-curvature="0"
       class="cls-8"
       d="M 20.2,126.6 H 21 v 4.91 H 20.2 V 131 a 1.4,1.4 0 0 1 -1.22,0.6 1.65,1.65 0 0 1 -1.24,-0.54 1.92,1.92 0 0 1 0,-2.61 1.65,1.65 0 0 1 1.24,-0.54 1.42,1.42 0 0 1 1.22,0.59 z m -1.1,4.28 a 1.09,1.09 0 0 0 0.79,-0.32 1.11,1.11 0 0 0 0.31,-0.81 1.09,1.09 0 0 0 -1.1,-1.12 1.11,1.11 0 0 0 -1.1,1.12 1.08,1.08 0 0 0 0.32,0.81 1.05,1.05 0 0 0 0.78,0.32 z"
       id="path2302" />
    <path
       style="fill:#cccccc"
       inkscape:connector-curvature="0"
       class="cls-8"
       d="m 23.69,128.73 h -0.87 v 1.68 c 0,0.45 0.29,0.44 0.87,0.42 v 0.68 c -1.16,0.14 -1.63,-0.18 -1.63,-1.1 v -1.68 H 21.42 V 128 h 0.64 v -0.75 l 0.76,-0.23 v 1 h 0.87 z"
       id="path2304" />
    <path
       style="fill:#cccccc"
       inkscape:connector-curvature="0"
       class="cls-8"
       d="m 27.45,129.36 v 2.15 H 26.7 v -2.08 a 0.73,0.73 0 0 0 -0.79,-0.81 c -0.53,0 -0.89,0.33 -0.89,1 v 1.88 h -0.75 v -4.9 H 25 v 1.85 a 1.21,1.21 0 0 1 1.09,-0.54 1.3,1.3 0 0 1 1.36,1.45 z"
       id="path2306" />
    <path
       style="fill:#cccccc"
       inkscape:connector-curvature="0"
       class="cls-8"
       d="m 30.88,128.43 a 1.21,1.21 0 0 1 -1.64,0 1.13,1.13 0 0 1 0.82,-1.92 1.14,1.14 0 0 1 0.82,0.32 1.13,1.13 0 0 1 0.32,0.8 1.11,1.11 0 0 1 -0.32,0.8 z m -1.55,2.35 3.23,-3.59 0.37,0.22 -3.22,3.59 z m 1.23,-3.15 a 0.49,0.49 0 0 0 -0.5,-0.51 0.51,0.51 0 0 0 0,1 0.49,0.49 0 0 0 0.5,-0.49 z m 0.92,3.64 a 1.13,1.13 0 0 1 -0.32,-0.8 1.07,1.07 0 0 1 0.32,-0.79 1.18,1.18 0 0 1 1.64,0 1.08,1.08 0 0 1 0.33,0.79 1.17,1.17 0 0 1 -2,0.8 z m 1.32,-0.8 a 0.49,0.49 0 0 0 -0.5,-0.51 0.51,0.51 0 0 0 0,1 0.48,0.48 0 0 0 0.5,-0.49 z"
       id="path2308" />
    <path
       style="fill:#cccccc"
       inkscape:connector-curvature="0"
       class="cls-8"
       d="m 10.24,210.06 -1.39,-4.9 H 9.7 l 1,3.83 1.12,-3.83 h 0.74 l 1.1,3.83 1,-3.83 h 0.85 l -1.39,4.9 h -0.93 l -1,-3.58 -1.05,3.58 z"
       id="path2310" />
    <path
       style="fill:#cccccc"
       inkscape:connector-curvature="0"
       class="cls-8"
       d="m 15.94,205.89 a 0.46,0.46 0 0 1 0,-0.67 0.46,0.46 0 0 1 0.68,0 0.46,0.46 0 0 1 0,0.67 0.48,0.48 0 0 1 -0.68,0 z m 0,4.17 v -3.5 h 0.76 v 3.5 z"
       id="path2312" />
    <path
       style="fill:#cccccc"
       inkscape:connector-curvature="0"
       class="cls-8"
       d="M 20.2,205.16 H 21 v 4.9 h -0.8 v -0.5 a 1.39,1.39 0 0 1 -1.22,0.59 1.64,1.64 0 0 1 -1.24,-0.53 1.94,1.94 0 0 1 0,-2.62 1.64,1.64 0 0 1 1.24,-0.53 1.39,1.39 0 0 1 1.22,0.59 z m -1.1,4.27 a 1.08,1.08 0 0 0 0.79,-0.31 1.12,1.12 0 0 0 0.31,-0.81 1.08,1.08 0 0 0 -1.1,-1.12 1.09,1.09 0 0 0 -1.1,1.12 1.09,1.09 0 0 0 0.32,0.81 1,1 0 0 0 0.78,0.31 z"
       id="path2314" />
    <path
       style="fill:#cccccc"
       inkscape:connector-curvature="0"
       class="cls-8"
       d="M 23.69,207.29 H 22.82 V 209 c 0,0.45 0.29,0.44 0.87,0.41 v 0.68 c -1.16,0.14 -1.63,-0.17 -1.63,-1.09 v -1.68 h -0.64 v -0.73 h 0.64 v -0.76 l 0.76,-0.22 v 1 h 0.87 z"
       id="path2316" />
    <path
       style="fill:#cccccc"
       inkscape:connector-curvature="0"
       class="cls-8"
       d="m 27.45,207.91 v 2.15 H 26.7 V 208 a 0.73,0.73 0 0 0 -0.79,-0.81 c -0.53,0 -0.89,0.33 -0.89,1 v 1.88 h -0.75 v -4.9 H 25 V 207 a 1.21,1.21 0 0 1 1.09,-0.54 1.29,1.29 0 0 1 1.36,1.45 z"
       id="path2318" />
    <path
       style="fill:#cccccc"
       inkscape:connector-curvature="0"
       class="cls-8"
       d="m 30.88,207 a 1.15,1.15 0 0 1 -2,-0.8 1.08,1.08 0 0 1 0.33,-0.79 1.14,1.14 0 0 1 2,0.79 1.13,1.13 0 0 1 -0.33,0.8 z m -1.55,2.35 3.23,-3.59 0.37,0.21 -3.22,3.6 z m 1.23,-3.15 a 0.49,0.49 0 0 0 -0.5,-0.51 0.51,0.51 0 0 0 0,1 0.48,0.48 0 0 0 0.5,-0.5 z m 0.92,3.63 a 1.09,1.09 0 0 1 -0.32,-0.79 1.11,1.11 0 0 1 0.32,-0.8 1.18,1.18 0 0 1 1.64,0 1.12,1.12 0 0 1 0.33,0.8 1.1,1.1 0 0 1 -0.33,0.79 1.18,1.18 0 0 1 -1.64,0 z M 32.8,209 a 0.49,0.49 0 0 0 -0.5,-0.52 0.5,0.5 0 0 0 -0.5,0.52 0.49,0.49 0 0 0 0.5,0.5 0.48,0.48 0 0 0 0.5,-0.5 z"
       id="path2320" />
  </g>
  <g
     id="Value_BGs"
     data-name="Value BGs"
     transform="scale(1.3333333)">
    <path
       style="fill:#1a1a1a"
       inkscape:connector-curvature="0"
       class="cls-9"
       d="M 52.63,245.19 H 77.2 a 1,1 0 0 1 1,1 v 9 a 1,1 0 0 1 -1,1 H 52.63 a 1,1 0 0 1 -1,-1 v -9 a 1,1 0 0 1 1,-1 z"
       id="path2323" />
    <path
       inkscape:connector-curvature="0"
       d="m 77.2,245.4 a 0.75,0.75 0 0 1 0.75,0.75 v 9 a 0.75,0.75 0 0 1 -0.75,0.76 H 52.63 a 0.76,0.76 0 0 1 -0.76,-0.76 v -9 a 0.76,0.76 0 0 1 0.76,-0.75 H 77.2 m 0,-0.43 H 52.63 a 1.18,1.18 0 0 0 -1.18,1.18 v 9 a 1.18,1.18 0 0 0 1.18,1.18 H 77.2 a 1.18,1.18 0 0 0 1.18,-1.18 v -9 A 1.18,1.18 0 0 0 77.2,245 Z"
       id="path2325" />
    <path
       style="fill:#1a1a1a"
       inkscape:connector-curvature="0"
       class="cls-9"
       d="m 9,245.19 h 24.55 a 1,1 0 0 1 1,1 v 9 a 1,1 0 0 1 -1,1 H 9 a 1,1 0 0 1 -1,-1 v -9 a 1,1 0 0 1 1,-1 z"
       id="path2327" />
    <path
       inkscape:connector-curvature="0"
       d="m 33.55,245.4 a 0.76,0.76 0 0 1 0.75,0.75 v 9 a 0.76,0.76 0 0 1 -0.75,0.76 H 9 a 0.76,0.76 0 0 1 -0.75,-0.76 v -9 A 0.76,0.76 0 0 1 9,245.4 h 24.55 m 0,-0.43 H 9 a 1.18,1.18 0 0 0 -1.17,1.18 v 9 A 1.18,1.18 0 0 0 9,256.31 h 24.55 a 1.18,1.18 0 0 0 1.17,-1.18 v -9 A 1.18,1.18 0 0 0 33.55,245 Z"
       id="path2329" />
    <rect
       style="fill:#1a1a1a"
       class="cls-9"
       x="28.540001"
       y="88.940002"
       width="29.32"
       height="10.89"
       rx="1.02"
       id="rect2331" />
    <path
       inkscape:connector-curvature="0"
       d="m 56.84,89.16 a 0.79,0.79 0 0 1 0.8,0.79 v 8.86 a 0.8,0.8 0 0 1 -0.8,0.8 H 29.56 a 0.8,0.8 0 0 1 -0.8,-0.8 V 90 a 0.79,0.79 0 0 1 0.8,-0.79 h 27.28 m 0,-0.45 H 29.56 A 1.25,1.25 0 0 0 28.32,90 v 8.86 a 1.25,1.25 0 0 0 1.24,1.24 h 27.28 a 1.25,1.25 0 0 0 1.24,-1.24 V 90 a 1.25,1.25 0 0 0 -1.24,-1.24 z"
       id="path2333" />
    <rect
       style="fill:#1a1a1a"
       class="cls-9"
       x="51.66"
       y="166.63"
       width="26.51"
       height="10.91"
       rx="0.97000003"
       id="rect2335" />
    <path
       inkscape:connector-curvature="0"
       d="m 77.2,166.84 a 0.75,0.75 0 0 1 0.75,0.75 v 9 a 0.75,0.75 0 0 1 -0.75,0.75 H 52.63 a 0.76,0.76 0 0 1 -0.76,-0.75 v -9 a 0.76,0.76 0 0 1 0.76,-0.75 H 77.2 m 0,-0.42 H 52.63 a 1.18,1.18 0 0 0 -1.18,1.17 v 9 a 1.18,1.18 0 0 0 1.18,1.18 H 77.2 a 1.18,1.18 0 0 0 1.18,-1.18 v -9 a 1.18,1.18 0 0 0 -1.18,-1.17 z"
       id="path2337" />
    <rect
       style="fill:#1a1a1a"
       class="cls-9"
       x="8.0100002"
       y="166.63"
       width="26.51"
       height="10.91"
       rx="0.97000003"
       id="rect2339" />
    <path
       inkscape:connector-curvature="0"
       d="m 33.55,166.84 a 0.76,0.76 0 0 1 0.75,0.75 v 9 a 0.76,0.76 0 0 1 -0.75,0.75 H 9 a 0.76,0.76 0 0 1 -0.75,-0.75 v -9 A 0.76,0.76 0 0 1 9,166.84 h 24.55 m 0,-0.42 H 9 a 1.18,1.18 0 0 0 -1.17,1.17 v 9 A 1.18,1.18 0 0 0 9,177.76 h 24.55 a 1.18,1.18 0 0 0 1.17,-1.18 v -9 a 1.18,1.18 0 0 0 -1.17,-1.17 z"
       id="path2341" />
  </g>
  <g
     id="Arc_dots"
     data-name="Arc dots"
     transform="scale(1.3333333)">
    <path
       style="fill:#b3b3b3"
       inkscape:connector-curvature="0"
       class="cls-4"
       d="m 57.7,240.42 a 0.71,0.71 0 0 1 -0.26,-1 v 0 a 0.73,0.73 0 0 1 1,-0.27 v 0 a 0.72,0.72 0 0 1 0.25,1 v 0 a 0.7,0.7 0 0 1 -0.62,0.36 v 0 a 0.69,0.69 0 0 1 -0.37,-0.09 z"
       id="path2344" />
    <path
       style="fill:#b3b3b3"
       inkscape:connector-curvature="0"
       class="cls-4"
       d="m 71.17,240.14 a 0.71,0.71 0 0 1 0.26,-1 v 0 a 0.72,0.72 0 0 1 1,0.26 v 0 a 0.72,0.72 0 0 1 -0.26,1 v 0 a 0.65,0.65 0 0 1 -0.36,0.1 v 0 a 0.73,0.73 0 0 1 -0.64,-0.36 z"
       id="path2346" />
    <path
       style="fill:#707070"
       inkscape:connector-curvature="0"
       class="cls-10"
       d="m 54.71,238.13 v 0 a 0.72,0.72 0 0 1 0,-1 v 0 a 0.73,0.73 0 0 1 1,0 v 0 a 0.71,0.71 0 0 1 0,1 v 0 a 0.69,0.69 0 0 1 -0.51,0.21 v 0 a 0.69,0.69 0 0 1 -0.49,-0.21 z"
       id="path2348" />
    <path
       style="fill:#707070"
       inkscape:connector-curvature="0"
       class="cls-10"
       d="m 74.13,238.1 a 0.71,0.71 0 0 1 0,-1 v 0 a 0.73,0.73 0 0 1 1,0 v 0 a 0.73,0.73 0 0 1 0,1 v 0 a 0.7,0.7 0 0 1 -0.51,0.21 v 0 a 0.67,0.67 0 0 1 -0.49,-0.21 z"
       id="path2350" />
    <path
       style="fill:#707070"
       inkscape:connector-curvature="0"
       class="cls-10"
       d="m 52.4,235.14 a 0.71,0.71 0 0 1 0.27,-1 v 0 a 0.71,0.71 0 0 1 1,0.25 v 0 a 0.71,0.71 0 0 1 -0.26,1 v 0 a 0.78,0.78 0 0 1 -0.36,0.1 v 0 a 0.73,0.73 0 0 1 -0.65,-0.35 z"
       id="path2352" />
    <path
       style="fill:#707070"
       inkscape:connector-curvature="0"
       class="cls-10"
       d="m 76.45,235.38 a 0.72,0.72 0 0 1 -0.25,-1 v 0 a 0.71,0.71 0 0 1 1,-0.27 v 0 a 0.72,0.72 0 0 1 0.25,1 v 0 a 0.7,0.7 0 0 1 -0.61,0.35 v 0 a 0.81,0.81 0 0 1 -0.39,-0.08 z"
       id="path2354" />
    <path
       style="fill:#707070"
       inkscape:connector-curvature="0"
       class="cls-10"
       d="m 51,231.66 a 0.73,0.73 0 0 1 0.51,-0.88 v 0 a 0.71,0.71 0 0 1 0.87,0.51 v 0 a 0.72,0.72 0 0 1 -0.5,0.88 H 51.69 A 0.71,0.71 0 0 1 51,231.66 Z"
       id="path2356" />
    <path
       style="fill:#707070"
       inkscape:connector-curvature="0"
       class="cls-10"
       d="m 78,232.14 a 0.73,0.73 0 0 1 -0.51,-0.88 v 0 a 0.71,0.71 0 0 1 0.87,-0.51 v 0 a 0.73,0.73 0 0 1 0.51,0.88 v 0 a 0.71,0.71 0 0 1 -0.69,0.54 v 0 A 0.52,0.52 0 0 1 78,232.14 Z"
       id="path2358" />
    <path
       style="fill:#707070"
       inkscape:connector-curvature="0"
       class="cls-10"
       d="m 50.46,227.92 a 0.71,0.71 0 0 1 0.71,-0.71 v 0 a 0.71,0.71 0 0 1 0.72,0.71 v 0 a 0.72,0.72 0 0 1 -0.72,0.72 v 0 a 0.72,0.72 0 0 1 -0.71,-0.72 z"
       id="path2360" />
    <path
       style="fill:#707070"
       inkscape:connector-curvature="0"
       class="cls-10"
       d="m 77.94,227.89 v 0 0 0 a 0.71,0.71 0 0 1 0.71,-0.72 v 0 a 0.72,0.72 0 0 1 0.72,0.72 v 0 0 0 0 0 a 0.71,0.71 0 0 1 -0.71,0.72 v 0 a 0.71,0.71 0 0 1 -0.72,-0.72 z"
       id="path2362" />
    <path
       style="fill:#707070"
       inkscape:connector-curvature="0"
       class="cls-10"
       d="m 51.45,225.05 a 0.7,0.7 0 0 1 -0.51,-0.86 v 0 a 0.72,0.72 0 0 1 0.87,-0.52 v 0 a 0.74,0.74 0 0 1 0.52,0.88 v 0 a 0.74,0.74 0 0 1 -0.7,0.53 v 0 z"
       id="path2364" />
    <path
       style="fill:#707070"
       inkscape:connector-curvature="0"
       class="cls-10"
       d="m 77.48,224.47 a 0.71,0.71 0 0 1 0.51,-0.87 v 0 a 0.7,0.7 0 0 1 0.87,0.5 v 0 a 0.72,0.72 0 0 1 -0.5,0.88 v 0 h -0.19 v 0 a 0.71,0.71 0 0 1 -0.69,-0.51 z"
       id="path2366" />
    <path
       style="fill:#707070"
       inkscape:connector-curvature="0"
       class="cls-10"
       d="m 52.64,221.67 a 0.72,0.72 0 0 1 -0.27,-1 v 0 a 0.71,0.71 0 0 1 1,-0.27 v 0 a 0.7,0.7 0 0 1 0.26,1 v 0 a 0.7,0.7 0 0 1 -0.62,0.36 v 0 a 0.65,0.65 0 0 1 -0.37,-0.09 z"
       id="path2368" />
    <path
       style="fill:#707070"
       inkscape:connector-curvature="0"
       class="cls-10"
       d="m 76.17,221.34 a 0.73,0.73 0 0 1 0.25,-1 v 0 a 0.73,0.73 0 0 1 1,0.26 v 0 a 0.71,0.71 0 0 1 -0.26,1 v 0 a 0.7,0.7 0 0 1 -0.36,0.1 v 0 a 0.72,0.72 0 0 1 -0.63,-0.36 z"
       id="path2370" />
    <path
       style="fill:#707070"
       inkscape:connector-curvature="0"
       class="cls-10"
       d="m 54.67,218.7 a 0.69,0.69 0 0 1 0,-1 v 0 a 0.73,0.73 0 0 1 1,0 v 0 a 0.71,0.71 0 0 1 0,1 v 0 a 0.67,0.67 0 0 1 -0.5,0.21 v 0 a 0.66,0.66 0 0 1 -0.5,-0.21 z"
       id="path2372" />
    <path
       style="fill:#707070"
       inkscape:connector-curvature="0"
       class="cls-10"
       d="m 74.09,218.65 a 0.71,0.71 0 0 1 0,-1 v 0 a 0.71,0.71 0 0 1 1,0 v 0 a 0.71,0.71 0 0 1 0,1 v 0 a 0.71,0.71 0 0 1 -0.51,0.21 v 0 a 0.7,0.7 0 0 1 -0.49,-0.21 z"
       id="path2374" />
    <path
       style="fill:#707070"
       inkscape:connector-curvature="0"
       class="cls-10"
       d="m 57.4,216.37 a 0.7,0.7 0 0 1 0.25,-1 v 0 a 0.72,0.72 0 0 1 1,0.25 v 0 a 0.72,0.72 0 0 1 -0.26,1 v 0 a 0.8,0.8 0 0 1 -0.36,0.09 v 0 a 0.68,0.68 0 0 1 -0.63,-0.34 z"
       id="path2376" />
    <path
       style="fill:#707070"
       inkscape:connector-curvature="0"
       class="cls-10"
       d="m 71.39,216.59 a 0.71,0.71 0 0 1 -0.27,-1 v 0 a 0.71,0.71 0 0 1 1,-0.27 v 0 a 0.7,0.7 0 0 1 0.26,1 v 0 a 0.71,0.71 0 0 1 -0.62,0.36 v 0 a 0.63,0.63 0 0 1 -0.37,-0.09 z"
       id="path2378" />
    <path
       style="fill:#707070"
       inkscape:connector-curvature="0"
       class="cls-10"
       d="m 60.63,214.82 a 0.71,0.71 0 0 1 0.5,-0.88 v 0 a 0.71,0.71 0 0 1 0.88,0.5 v 0 a 0.71,0.71 0 0 1 -0.5,0.88 v 0 h -0.2 v 0 a 0.71,0.71 0 0 1 -0.68,-0.5 z"
       id="path2380" />
    <path
       style="fill:#707070"
       inkscape:connector-curvature="0"
       class="cls-10"
       d="m 68.25,215.3 a 0.71,0.71 0 0 1 -0.51,-0.88 v 0 a 0.71,0.71 0 0 1 0.87,-0.51 v 0 a 0.71,0.71 0 0 1 0.51,0.87 v 0 a 0.71,0.71 0 0 1 -0.69,0.53 v 0 z"
       id="path2382" />
    <path
       style="fill:#b3b3b3"
       inkscape:connector-curvature="0"
       class="cls-4"
       d="m 64.16,214.16 a 0.71,0.71 0 0 1 0.71,-0.72 v 0 a 0.71,0.71 0 0 1 0.72,0.71 v 0 a 0.72,0.72 0 0 1 -0.72,0.72 v 0 a 0.71,0.71 0 0 1 -0.71,-0.71 z"
       id="path2384" />
    <path
       style="fill:#b3b3b3"
       inkscape:connector-curvature="0"
       class="cls-4"
       d="m 14.05,240.42 a 0.71,0.71 0 0 1 -0.26,-1 v 0 a 0.72,0.72 0 0 1 1,-0.27 v 0 a 0.71,0.71 0 0 1 0.26,1 v 0 a 0.7,0.7 0 0 1 -0.62,0.36 v 0 a 0.67,0.67 0 0 1 -0.38,-0.09 z"
       id="path2386" />
    <path
       style="fill:#b3b3b3"
       inkscape:connector-curvature="0"
       class="cls-4"
       d="m 27.52,240.14 a 0.7,0.7 0 0 1 0.26,-1 v 0 a 0.72,0.72 0 0 1 1,0.26 v 0 a 0.73,0.73 0 0 1 -0.26,1 v 0 a 0.68,0.68 0 0 1 -0.36,0.1 v 0 a 0.72,0.72 0 0 1 -0.64,-0.36 z"
       id="path2388" />
    <path
       style="fill:#707070"
       inkscape:connector-curvature="0"
       class="cls-10"
       d="m 11.05,238.13 v 0 a 0.73,0.73 0 0 1 0,-1 v 0 a 0.74,0.74 0 0 1 1,0 v 0 a 0.73,0.73 0 0 1 0,1 v 0 a 0.7,0.7 0 0 1 -0.51,0.21 v 0 a 0.73,0.73 0 0 1 -0.49,-0.21 z"
       id="path2390" />
    <path
       style="fill:#707070"
       inkscape:connector-curvature="0"
       class="cls-10"
       d="m 30.47,238.1 a 0.73,0.73 0 0 1 0,-1 v 0 a 0.73,0.73 0 0 1 1,0 v 0 a 0.71,0.71 0 0 1 0,1 v 0 a 0.67,0.67 0 0 1 -0.5,0.21 v 0 a 0.7,0.7 0 0 1 -0.5,-0.21 z"
       id="path2392" />
    <path
       style="fill:#707070"
       inkscape:connector-curvature="0"
       class="cls-10"
       d="m 8.75,235.14 a 0.7,0.7 0 0 1 0.26,-1 H 9 a 0.72,0.72 0 0 1 1,0.25 v 0 a 0.71,0.71 0 0 1 -0.26,1 v 0 a 0.78,0.78 0 0 1 -0.36,0.1 v 0 a 0.72,0.72 0 0 1 -0.63,-0.35 z"
       id="path2394" />
    <path
       style="fill:#707070"
       inkscape:connector-curvature="0"
       class="cls-10"
       d="m 32.8,235.38 a 0.72,0.72 0 0 1 -0.26,-1 v 0 a 0.71,0.71 0 0 1 1,-0.27 v 0 a 0.72,0.72 0 0 1 0.26,1 v 0 a 0.7,0.7 0 0 1 -0.62,0.35 v 0 a 0.77,0.77 0 0 1 -0.38,-0.08 z"
       id="path2396" />
    <path
       style="fill:#707070"
       inkscape:connector-curvature="0"
       class="cls-10"
       d="m 7.3,231.66 a 0.72,0.72 0 0 1 0.5,-0.88 v 0 a 0.72,0.72 0 0 1 0.88,0.51 v 0 a 0.72,0.72 0 0 1 -0.5,0.88 H 8 a 0.7,0.7 0 0 1 -0.7,-0.51 z"
       id="path2398" />
    <path
       style="fill:#707070"
       inkscape:connector-curvature="0"
       class="cls-10"
       d="m 34.35,232.14 a 0.72,0.72 0 0 1 -0.5,-0.88 v 0 a 0.71,0.71 0 0 1 0.87,-0.51 v 0 a 0.73,0.73 0 0 1 0.51,0.88 v 0 a 0.72,0.72 0 0 1 -0.7,0.54 v 0 a 0.62,0.62 0 0 1 -0.18,-0.03 z"
       id="path2400" />
    <path
       style="fill:#707070"
       inkscape:connector-curvature="0"
       class="cls-10"
       d="m 6.8,227.92 a 0.71,0.71 0 0 1 0.72,-0.71 v 0 a 0.7,0.7 0 0 1 0.71,0.71 v 0 a 0.71,0.71 0 0 1 -0.71,0.72 v 0 A 0.73,0.73 0 0 1 6.8,227.92 Z"
       id="path2402" />
    <path
       style="fill:#707070"
       inkscape:connector-curvature="0"
       class="cls-10"
       d="m 34.29,227.89 v 0 0 0 a 0.71,0.71 0 0 1 0.7,-0.72 v 0 a 0.73,0.73 0 0 1 0.73,0.72 v 0 0 0 0 0 A 0.72,0.72 0 0 1 35,228.61 v 0 a 0.71,0.71 0 0 1 -0.71,-0.72 z"
       id="path2404" />
    <path
       style="fill:#707070"
       inkscape:connector-curvature="0"
       class="cls-10"
       d="m 7.79,225.05 a 0.69,0.69 0 0 1 -0.5,-0.86 v 0 a 0.72,0.72 0 0 1 0.87,-0.52 v 0 a 0.73,0.73 0 0 1 0.51,0.88 v 0 a 0.71,0.71 0 0 1 -0.69,0.53 H 8 a 0.63,0.63 0 0 1 -0.21,-0.03 z"
       id="path2406" />
    <path
       style="fill:#707070"
       inkscape:connector-curvature="0"
       class="cls-10"
       d="m 33.83,224.47 a 0.7,0.7 0 0 1 0.5,-0.87 v 0 a 0.71,0.71 0 0 1 0.88,0.5 v 0 a 0.72,0.72 0 0 1 -0.5,0.88 v 0 h -0.19 v 0 a 0.71,0.71 0 0 1 -0.69,-0.51 z"
       id="path2408" />
    <path
       style="fill:#707070"
       inkscape:connector-curvature="0"
       class="cls-10"
       d="m 9,221.67 a 0.71,0.71 0 0 1 -0.27,-1 v 0 a 0.71,0.71 0 0 1 1,-0.27 v 0 a 0.71,0.71 0 0 1 0.26,1 v 0 a 0.71,0.71 0 0 1 -0.62,0.36 v 0 A 0.63,0.63 0 0 1 9,221.67 Z"
       id="path2410" />
    <path
       style="fill:#707070"
       inkscape:connector-curvature="0"
       class="cls-10"
       d="m 32.51,221.34 a 0.73,0.73 0 0 1 0.26,-1 v 0 a 0.72,0.72 0 0 1 1,0.26 v 0 a 0.71,0.71 0 0 1 -0.25,1 v 0 a 0.71,0.71 0 0 1 -0.37,0.1 v 0 a 0.75,0.75 0 0 1 -0.64,-0.36 z"
       id="path2412" />
    <path
       style="fill:#707070"
       inkscape:connector-curvature="0"
       class="cls-10"
       d="m 11,218.7 a 0.69,0.69 0 0 1 0,-1 v 0 a 0.73,0.73 0 0 1 1,0 v 0 a 0.73,0.73 0 0 1 0,1 v 0 a 0.7,0.7 0 0 1 -0.51,0.21 v 0 A 0.65,0.65 0 0 1 11,218.7 Z"
       id="path2414" />
    <path
       style="fill:#707070"
       inkscape:connector-curvature="0"
       class="cls-10"
       d="m 30.44,218.65 a 0.71,0.71 0 0 1 0,-1 v 0 a 0.71,0.71 0 0 1 1,0 v 0 a 0.73,0.73 0 0 1 0,1 v 0 a 0.73,0.73 0 0 1 -0.51,0.21 v 0 a 0.7,0.7 0 0 1 -0.49,-0.21 z"
       id="path2416" />
    <path
       style="fill:#707070"
       inkscape:connector-curvature="0"
       class="cls-10"
       d="m 13.74,216.37 a 0.7,0.7 0 0 1 0.26,-1 v 0 a 0.71,0.71 0 0 1 1,0.25 v 0 a 0.72,0.72 0 0 1 -0.25,1 v 0 a 0.81,0.81 0 0 1 -0.37,0.09 v 0 a 0.7,0.7 0 0 1 -0.64,-0.34 z"
       id="path2418" />
    <path
       style="fill:#707070"
       inkscape:connector-curvature="0"
       class="cls-10"
       d="m 27.74,216.59 a 0.7,0.7 0 0 1 -0.27,-1 v 0 a 0.7,0.7 0 0 1 1,-0.27 v 0 a 0.7,0.7 0 0 1 0.27,1 v 0 a 0.71,0.71 0 0 1 -0.62,0.36 v 0 a 0.61,0.61 0 0 1 -0.38,-0.09 z"
       id="path2420" />
    <path
       style="fill:#707070"
       inkscape:connector-curvature="0"
       class="cls-10"
       d="m 17,214.82 a 0.72,0.72 0 0 1 0.51,-0.88 v 0 a 0.72,0.72 0 0 1 0.88,0.5 v 0 a 0.73,0.73 0 0 1 -0.51,0.88 v 0 h -0.19 v 0 A 0.73,0.73 0 0 1 17,214.82 Z"
       id="path2422" />
    <path
       style="fill:#707070"
       inkscape:connector-curvature="0"
       class="cls-10"
       d="m 24.59,215.3 a 0.71,0.71 0 0 1 -0.5,-0.88 v 0 a 0.7,0.7 0 0 1 0.86,-0.51 v 0 a 0.72,0.72 0 0 1 0.52,0.87 v 0 a 0.73,0.73 0 0 1 -0.7,0.53 v 0 z"
       id="path2424" />
    <path
       style="fill:#b3b3b3"
       inkscape:connector-curvature="0"
       class="cls-4"
       d="m 20.5,214.16 a 0.72,0.72 0 0 1 0.72,-0.72 v 0 a 0.71,0.71 0 0 1 0.71,0.71 v 0 a 0.71,0.71 0 0 1 -0.71,0.72 v 0 a 0.72,0.72 0 0 1 -0.72,-0.71 z"
       id="path2426" />
    <path
       style="fill:#b3b3b3"
       inkscape:connector-curvature="0"
       class="cls-4"
       d="m 57.7,161.86 a 0.7,0.7 0 0 1 -0.26,-1 v 0 a 0.72,0.72 0 0 1 1,-0.26 v 0 a 0.71,0.71 0 0 1 0.25,1 v 0 a 0.69,0.69 0 0 1 -0.62,0.35 v 0 a 0.69,0.69 0 0 1 -0.37,-0.09 z"
       id="path2428" />
    <path
       style="fill:#b3b3b3"
       inkscape:connector-curvature="0"
       class="cls-4"
       d="m 71.17,161.59 a 0.71,0.71 0 0 1 0.26,-1 v 0 a 0.72,0.72 0 0 1 1,0.25 v 0 a 0.72,0.72 0 0 1 -0.26,1 v 0 a 0.65,0.65 0 0 1 -0.36,0.1 v 0 a 0.72,0.72 0 0 1 -0.64,-0.35 z"
       id="path2430" />
    <path
       style="fill:#707070"
       inkscape:connector-curvature="0"
       class="cls-10"
       d="m 54.71,159.58 v 0 a 0.72,0.72 0 0 1 0,-1 v 0 a 0.71,0.71 0 0 1 1,0 v 0 a 0.71,0.71 0 0 1 0,1 v 0 a 0.73,0.73 0 0 1 -0.51,0.21 v 0 a 0.74,0.74 0 0 1 -0.49,-0.21 z"
       id="path2432" />
    <path
       style="fill:#707070"
       inkscape:connector-curvature="0"
       class="cls-10"
       d="m 74.13,159.55 a 0.71,0.71 0 0 1 0,-1 v 0 a 0.71,0.71 0 0 1 1,0 v 0 a 0.73,0.73 0 0 1 0,1 v 0 a 0.75,0.75 0 0 1 -0.51,0.21 v 0 a 0.7,0.7 0 0 1 -0.49,-0.21 z"
       id="path2434" />
    <path
       style="fill:#707070"
       inkscape:connector-curvature="0"
       class="cls-10"
       d="m 52.4,156.58 a 0.71,0.71 0 0 1 0.27,-1 v 0 a 0.71,0.71 0 0 1 1,0.26 v 0 a 0.7,0.7 0 0 1 -0.26,1 v 0 A 0.69,0.69 0 0 1 53,157 v 0 a 0.74,0.74 0 0 1 -0.6,-0.42 z"
       id="path2436" />
    <path
       style="fill:#707070"
       inkscape:connector-curvature="0"
       class="cls-10"
       d="m 76.45,156.82 a 0.72,0.72 0 0 1 -0.25,-1 v 0 a 0.72,0.72 0 0 1 1,-0.27 v 0 a 0.72,0.72 0 0 1 0.25,1 v 0 a 0.71,0.71 0 0 1 -0.61,0.36 v 0 a 0.71,0.71 0 0 1 -0.39,-0.09 z"
       id="path2438" />
    <path
       style="fill:#707070"
       inkscape:connector-curvature="0"
       class="cls-10"
       d="m 51,153.1 a 0.71,0.71 0 0 1 0.51,-0.87 v 0 a 0.7,0.7 0 0 1 0.87,0.5 v 0 a 0.72,0.72 0 0 1 -0.5,0.88 v 0 a 0.58,0.58 0 0 1 -0.19,0 v 0 A 0.71,0.71 0 0 1 51,153.1 Z"
       id="path2440" />
    <path
       style="fill:#707070"
       inkscape:connector-curvature="0"
       class="cls-10"
       d="m 78,153.58 a 0.72,0.72 0 0 1 -0.51,-0.88 v 0 a 0.7,0.7 0 0 1 0.87,-0.5 v 0 a 0.72,0.72 0 0 1 0.51,0.88 v 0 a 0.71,0.71 0 0 1 -0.69,0.53 v 0 A 0.52,0.52 0 0 1 78,153.58 Z"
       id="path2442" />
    <path
       style="fill:#707070"
       inkscape:connector-curvature="0"
       class="cls-10"
       d="m 50.46,149.37 a 0.71,0.71 0 0 1 0.71,-0.72 v 0 a 0.72,0.72 0 0 1 0.72,0.72 v 0 a 0.71,0.71 0 0 1 -0.72,0.71 v 0 a 0.71,0.71 0 0 1 -0.71,-0.71 z"
       id="path2444" />
    <path
       style="fill:#707070"
       inkscape:connector-curvature="0"
       class="cls-10"
       d="m 77.94,149.34 v 0 -0.05 0 a 0.71,0.71 0 0 1 0.71,-0.71 v 0 a 0.71,0.71 0 0 1 0.72,0.71 v 0 0 0 0 0 A 0.71,0.71 0 0 1 78.66,150 v 0 a 0.71,0.71 0 0 1 -0.72,-0.66 z"
       id="path2446" />
    <path
       style="fill:#707070"
       inkscape:connector-curvature="0"
       class="cls-10"
       d="m 51.45,146.5 a 0.71,0.71 0 0 1 -0.51,-0.87 v 0 a 0.71,0.71 0 0 1 0.87,-0.51 v 0 a 0.73,0.73 0 0 1 0.52,0.87 v 0 a 0.73,0.73 0 0 1 -0.7,0.54 v 0 a 0.57,0.57 0 0 1 -0.18,-0.03 z"
       id="path2448" />
    <path
       style="fill:#707070"
       inkscape:connector-curvature="0"
       class="cls-10"
       d="M 77.48,145.92 A 0.72,0.72 0 0 1 78,145 v 0 a 0.7,0.7 0 0 1 0.87,0.5 v 0 a 0.71,0.71 0 0 1 -0.5,0.88 v 0 h -0.19 v 0 a 0.72,0.72 0 0 1 -0.7,-0.46 z"
       id="path2450" />
    <path
       style="fill:#707070"
       inkscape:connector-curvature="0"
       class="cls-10"
       d="m 52.64,143.11 a 0.72,0.72 0 0 1 -0.27,-1 v 0 a 0.72,0.72 0 0 1 1,-0.27 v 0 a 0.71,0.71 0 0 1 0.26,1 v 0 a 0.7,0.7 0 0 1 -0.62,0.36 v 0 a 0.67,0.67 0 0 1 -0.37,-0.09 z"
       id="path2452" />
    <path
       style="fill:#707070"
       inkscape:connector-curvature="0"
       class="cls-10"
       d="m 76.17,142.78 a 0.72,0.72 0 0 1 0.25,-1 v 0 a 0.73,0.73 0 0 1 1,0.25 v 0 a 0.72,0.72 0 0 1 -0.26,1 v 0 a 0.8,0.8 0 0 1 -0.36,0.09 v 0 a 0.7,0.7 0 0 1 -0.63,-0.34 z"
       id="path2454" />
    <path
       style="fill:#707070"
       inkscape:connector-curvature="0"
       class="cls-10"
       d="m 54.67,140.15 a 0.7,0.7 0 0 1 0,-1 v 0 a 0.71,0.71 0 0 1 1,0 v 0 a 0.71,0.71 0 0 1 0,1 v 0 a 0.7,0.7 0 0 1 -0.5,0.21 v 0 a 0.69,0.69 0 0 1 -0.5,-0.21 z"
       id="path2456" />
    <path
       style="fill:#707070"
       inkscape:connector-curvature="0"
       class="cls-10"
       d="m 74.09,140.09 a 0.71,0.71 0 0 1 0,-1 v 0 a 0.71,0.71 0 0 1 1,0 v 0 a 0.71,0.71 0 0 1 0,1 v 0 a 0.71,0.71 0 0 1 -0.51,0.21 v 0 a 0.7,0.7 0 0 1 -0.49,-0.21 z"
       id="path2458" />
    <path
       style="fill:#707070"
       inkscape:connector-curvature="0"
       class="cls-10"
       d="m 57.4,137.81 a 0.7,0.7 0 0 1 0.25,-1 v 0 a 0.72,0.72 0 0 1 1,0.26 v 0 a 0.71,0.71 0 0 1 -0.26,1 v 0 a 0.7,0.7 0 0 1 -0.36,0.1 v 0 a 0.69,0.69 0 0 1 -0.63,-0.36 z"
       id="path2460" />
    <path
       style="fill:#707070"
       inkscape:connector-curvature="0"
       class="cls-10"
       d="m 71.39,138 a 0.71,0.71 0 0 1 -0.27,-1 v 0 a 0.72,0.72 0 0 1 1,-0.27 v 0 a 0.71,0.71 0 0 1 0.26,1 v 0 a 0.73,0.73 0 0 1 -0.62,0.36 v 0 A 0.64,0.64 0 0 1 71.39,138 Z"
       id="path2462" />
    <path
       style="fill:#707070"
       inkscape:connector-curvature="0"
       class="cls-10"
       d="m 60.63,136.26 a 0.72,0.72 0 0 1 0.5,-0.88 v 0 a 0.72,0.72 0 0 1 0.88,0.51 v 0 a 0.71,0.71 0 0 1 -0.5,0.87 v 0 h -0.2 v 0 a 0.71,0.71 0 0 1 -0.68,-0.5 z"
       id="path2464" />
    <path
       style="fill:#707070"
       inkscape:connector-curvature="0"
       class="cls-10"
       d="m 68.25,136.75 a 0.72,0.72 0 0 1 -0.51,-0.88 v 0 a 0.73,0.73 0 0 1 0.87,-0.52 v 0 a 0.71,0.71 0 0 1 0.51,0.87 v 0 a 0.71,0.71 0 0 1 -0.69,0.53 z"
       id="path2466" />
    <path
       style="fill:#b3b3b3"
       inkscape:connector-curvature="0"
       class="cls-4"
       d="m 64.16,135.6 a 0.7,0.7 0 0 1 0.71,-0.71 v 0 a 0.71,0.71 0 0 1 0.72,0.7 v 0 a 0.73,0.73 0 0 1 -0.72,0.73 v 0 a 0.72,0.72 0 0 1 -0.71,-0.72 z"
       id="path2468" />
    <path
       style="fill:#b3b3b3"
       inkscape:connector-curvature="0"
       class="cls-4"
       d="m 32.18,84.06 a 1.08,1.08 0 0 1 -0.39,-1.49 v 0 a 1.1,1.1 0 0 1 1.49,-0.41 v 0 a 1.1,1.1 0 0 1 0.39,1.5 v 0 a 1.07,1.07 0 0 1 -1,0.54 v 0 a 1.12,1.12 0 0 1 -0.49,-0.14 z"
       id="path2470" />
    <path
       style="fill:#b3b3b3"
       inkscape:connector-curvature="0"
       class="cls-4"
       d="m 52.76,83.63 a 1.09,1.09 0 0 1 0.39,-1.48 v 0 a 1.09,1.09 0 0 1 1.5,0.39 v 0 a 1.1,1.1 0 0 1 -0.39,1.5 v 0 a 1.11,1.11 0 0 1 -0.55,0.15 v 0 a 1.11,1.11 0 0 1 -0.95,-0.56 z"
       id="path2472" />
    <path
       style="fill:#707070"
       inkscape:connector-curvature="0"
       class="cls-10"
       d="m 27.61,80.56 v 0 a 1.1,1.1 0 0 1 0,-1.56 v 0 a 1.1,1.1 0 0 1 1.54,0 v 0 a 1.09,1.09 0 0 1 0,1.55 v 0 a 1.05,1.05 0 0 1 -0.77,0.32 v 0 a 1.12,1.12 0 0 1 -0.77,-0.31 z"
       id="path2474" />
    <path
       style="fill:#707070"
       inkscape:connector-curvature="0"
       class="cls-10"
       d="m 57.27,80.52 a 1.11,1.11 0 0 1 0,-1.55 v 0 a 1.11,1.11 0 0 1 1.55,0 v 0 a 1.11,1.11 0 0 1 0,1.55 v 0 a 1.08,1.08 0 0 1 -0.77,0.32 v 0 a 1.09,1.09 0 0 1 -0.78,-0.32 z"
       id="path2476" />
    <path
       style="fill:#707070"
       inkscape:connector-curvature="0"
       class="cls-10"
       d="m 24.09,76 a 1.08,1.08 0 0 1 0.4,-1.49 v 0 a 1.09,1.09 0 0 1 1.49,0.4 v 0 a 1.07,1.07 0 0 1 -0.39,1.48 v 0 a 1.16,1.16 0 0 1 -0.56,0.16 v 0 A 1.1,1.1 0 0 1 24.09,76 Z"
       id="path2478" />
    <path
       style="fill:#707070"
       inkscape:connector-curvature="0"
       class="cls-10"
       d="m 60.83,76.35 a 1.09,1.09 0 0 1 -0.4,-1.48 v 0 a 1.09,1.09 0 0 1 1.5,-0.41 v 0 a 1.12,1.12 0 0 1 0.4,1.5 v 0 a 1.1,1.1 0 0 1 -0.95,0.54 v 0 a 1,1 0 0 1 -0.55,-0.15 z"
       id="path2480" />
    <path
       style="fill:#707070"
       inkscape:connector-curvature="0"
       class="cls-10"
       d="m 21.87,70.67 a 1.09,1.09 0 0 1 0.78,-1.34 v 0 a 1.1,1.1 0 0 1 1.34,0.78 v 0 a 1.09,1.09 0 0 1 -0.78,1.34 v 0 a 0.89,0.89 0 0 1 -0.29,0 v 0 a 1.09,1.09 0 0 1 -1.05,-0.78 z"
       id="path2482" />
    <path
       style="fill:#707070"
       inkscape:connector-curvature="0"
       class="cls-10"
       d="m 63.2,71.4 a 1.09,1.09 0 0 1 -0.77,-1.34 v 0 a 1.07,1.07 0 0 1 1.33,-0.77 v 0 a 1.11,1.11 0 0 1 0.78,1.34 v 0 a 1.1,1.1 0 0 1 -1.06,0.82 v 0 A 0.92,0.92 0 0 1 63.2,71.4 Z"
       id="path2484" />
    <path
       style="fill:#707070"
       inkscape:connector-curvature="0"
       class="cls-10"
       d="m 21.12,65 a 1.09,1.09 0 0 1 1.09,-1.1 v 0 A 1.08,1.08 0 0 1 23.3,65 v 0 a 1.09,1.09 0 0 1 -1.09,1.09 v 0 A 1.1,1.1 0 0 1 21.12,65 Z"
       id="path2486" />
    <path
       style="fill:#707070"
       inkscape:connector-curvature="0"
       class="cls-10"
       d="m 63.1,64.92 v 0 -0.08 0 a 1.09,1.09 0 0 1 1.08,-1.09 v 0 a 1.09,1.09 0 0 1 1.1,1.09 v 0 0 0 0 0 A 1.09,1.09 0 0 1 64.19,66 v 0 A 1.09,1.09 0 0 1 63.1,64.92 Z"
       id="path2488" />
    <path
       style="fill:#707070"
       inkscape:connector-curvature="0"
       class="cls-10"
       d="m 22.63,60.58 a 1.07,1.07 0 0 1 -0.77,-1.32 v 0 a 1.08,1.08 0 0 1 1.32,-0.79 v 0 A 1.11,1.11 0 0 1 24,59.81 v 0 a 1.1,1.1 0 0 1 -1.06,0.82 v 0 a 0.92,0.92 0 0 1 -0.31,-0.05 z"
       id="path2490" />
    <path
       style="fill:#707070"
       inkscape:connector-curvature="0"
       class="cls-10"
       d="m 62.4,59.69 a 1.1,1.1 0 0 1 0.77,-1.34 v 0 a 1.09,1.09 0 0 1 1.34,0.78 v 0 a 1.1,1.1 0 0 1 -0.77,1.34 v 0 h -0.29 v 0 A 1.09,1.09 0 0 1 62.4,59.69 Z"
       id="path2492" />
    <path
       style="fill:#707070"
       inkscape:connector-curvature="0"
       class="cls-10"
       d="M 24.45,55.41 A 1.1,1.1 0 0 1 24,53.93 v 0 a 1.09,1.09 0 0 1 1.5,-0.41 v 0 A 1.08,1.08 0 0 1 25.9,55 v 0 a 1.09,1.09 0 0 1 -1,0.56 v 0 a 1.1,1.1 0 0 1 -0.45,-0.15 z"
       id="path2494" />
    <path
       style="fill:#707070"
       inkscape:connector-curvature="0"
       class="cls-10"
       d="m 60.39,54.9 a 1.1,1.1 0 0 1 0.39,-1.48 v 0 a 1.09,1.09 0 0 1 1.5,0.39 v 0 a 1.08,1.08 0 0 1 -0.39,1.49 v 0 a 1.07,1.07 0 0 1 -0.55,0.14 v 0 A 1.1,1.1 0 0 1 60.39,54.9 Z"
       id="path2496" />
    <path
       style="fill:#707070"
       inkscape:connector-curvature="0"
       class="cls-10"
       d="m 27.55,50.88 a 1.08,1.08 0 0 1 0,-1.54 v 0 a 1.11,1.11 0 0 1 1.55,0 v 0 a 1.1,1.1 0 0 1 0,1.54 v 0 a 1.09,1.09 0 0 1 -0.78,0.32 v 0 a 1.07,1.07 0 0 1 -0.77,-0.32 z"
       id="path2498" />
    <path
       style="fill:#707070"
       inkscape:connector-curvature="0"
       class="cls-10"
       d="m 57.22,50.8 a 1.09,1.09 0 0 1 0,-1.55 v 0 a 1.1,1.1 0 0 1 1.54,0 v 0 a 1.11,1.11 0 0 1 0,1.55 v 0 a 1.05,1.05 0 0 1 -0.77,0.32 v 0 A 1.07,1.07 0 0 1 57.22,50.8 Z"
       id="path2500" />
    <path
       style="fill:#707070"
       inkscape:connector-curvature="0"
       class="cls-10"
       d="m 31.72,47.32 a 1.08,1.08 0 0 1 0.39,-1.49 v 0 a 1.1,1.1 0 0 1 1.49,0.39 v 0 a 1.09,1.09 0 0 1 -0.4,1.49 v 0 a 1.08,1.08 0 0 1 -0.55,0.15 v 0 a 1.07,1.07 0 0 1 -0.93,-0.54 z"
       id="path2502" />
    <path
       style="fill:#707070"
       inkscape:connector-curvature="0"
       class="cls-10"
       d="m 53.1,47.65 a 1.07,1.07 0 0 1 -0.41,-1.48 v 0 a 1.07,1.07 0 0 1 1.48,-0.41 v 0 a 1.07,1.07 0 0 1 0.41,1.48 v 0 a 1.11,1.11 0 0 1 -0.95,0.56 v 0 A 1,1 0 0 1 53.1,47.65 Z"
       id="path2504" />
    <path
       style="fill:#707070"
       inkscape:connector-curvature="0"
       class="cls-10"
       d="m 36.65,44.94 a 1.09,1.09 0 0 1 0.78,-1.34 v 0 a 1.1,1.1 0 0 1 1.34,0.77 v 0 A 1.1,1.1 0 0 1 38,45.71 v 0 a 1.43,1.43 0 0 1 -0.29,0 v 0 a 1.1,1.1 0 0 1 -1.06,-0.77 z"
       id="path2506" />
    <path
       style="fill:#707070"
       inkscape:connector-curvature="0"
       class="cls-10"
       d="m 48.29,45.69 a 1.1,1.1 0 0 1 -0.77,-1.34 v 0 a 1.08,1.08 0 0 1 1.32,-0.79 v 0 a 1.1,1.1 0 0 1 0.79,1.33 v 0 a 1.1,1.1 0 0 1 -1.06,0.81 v 0 z"
       id="path2508" />
    <path
       style="fill:#707070"
       inkscape:connector-curvature="0"
       class="cls-10"
       d="m 42,43.94 a 1.08,1.08 0 0 1 1.09,-1.09 v 0 a 1.08,1.08 0 0 1 1.1,1.07 v 0 A 1.11,1.11 0 0 1 43.13,45 v 0 A 1.11,1.11 0 0 1 42,43.94 Z"
       id="path2510" />
    <path
       style="fill:#b3b3b3"
       inkscape:connector-curvature="0"
       class="cls-4"
       d="m 14.05,161.86 a 0.7,0.7 0 0 1 -0.26,-1 v 0 a 0.7,0.7 0 0 1 1,-0.26 v 0 a 0.71,0.71 0 0 1 0.26,1 v 0 a 0.69,0.69 0 0 1 -0.62,0.35 v 0 a 0.67,0.67 0 0 1 -0.38,-0.09 z"
       id="path2512" />
    <path
       style="fill:#b3b3b3"
       inkscape:connector-curvature="0"
       class="cls-4"
       d="m 27.52,161.59 a 0.7,0.7 0 0 1 0.26,-1 v 0 a 0.72,0.72 0 0 1 1,0.25 v 0 a 0.73,0.73 0 0 1 -0.26,1 v 0 a 0.68,0.68 0 0 1 -0.36,0.1 v 0 a 0.71,0.71 0 0 1 -0.64,-0.35 z"
       id="path2514" />
    <path
       style="fill:#707070"
       inkscape:connector-curvature="0"
       class="cls-10"
       d="m 11.05,159.58 v 0 a 0.73,0.73 0 0 1 0,-1 v 0 a 0.72,0.72 0 0 1 1,0 v 0 a 0.73,0.73 0 0 1 0,1 v 0 a 0.75,0.75 0 0 1 -0.51,0.21 v 0 a 0.78,0.78 0 0 1 -0.49,-0.21 z"
       id="path2516" />
    <path
       style="fill:#707070"
       inkscape:connector-curvature="0"
       class="cls-10"
       d="m 30.47,159.55 a 0.73,0.73 0 0 1 0,-1 v 0 a 0.71,0.71 0 0 1 1,0 v 0 a 0.71,0.71 0 0 1 0,1 v 0 a 0.7,0.7 0 0 1 -0.5,0.21 v 0 a 0.75,0.75 0 0 1 -0.5,-0.21 z"
       id="path2518" />
    <path
       style="fill:#707070"
       inkscape:connector-curvature="0"
       class="cls-10"
       d="m 8.75,156.58 a 0.7,0.7 0 0 1 0.26,-1 H 9 a 0.72,0.72 0 0 1 1,0.26 v 0 a 0.7,0.7 0 0 1 -0.26,1 v 0 a 0.69,0.69 0 0 1 -0.36,0.11 v 0 a 0.73,0.73 0 0 1 -0.63,-0.37 z"
       id="path2520" />
    <path
       style="fill:#707070"
       inkscape:connector-curvature="0"
       class="cls-10"
       d="m 32.8,156.82 a 0.72,0.72 0 0 1 -0.26,-1 v 0 a 0.72,0.72 0 0 1 1,-0.27 v 0 a 0.72,0.72 0 0 1 0.26,1 v 0 a 0.71,0.71 0 0 1 -0.62,0.36 v 0 a 0.68,0.68 0 0 1 -0.38,-0.09 z"
       id="path2522" />
    <path
       style="fill:#707070"
       inkscape:connector-curvature="0"
       class="cls-10"
       d="m 7.3,153.1 a 0.7,0.7 0 0 1 0.5,-0.87 v 0 a 0.71,0.71 0 0 1 0.88,0.5 v 0 a 0.72,0.72 0 0 1 -0.5,0.88 v 0 a 0.62,0.62 0 0 1 -0.19,0 H 8 A 0.71,0.71 0 0 1 7.3,153.1 Z"
       id="path2524" />
    <path
       style="fill:#707070"
       inkscape:connector-curvature="0"
       class="cls-10"
       d="m 34.35,153.58 a 0.71,0.71 0 0 1 -0.5,-0.88 v 0 a 0.69,0.69 0 0 1 0.87,-0.5 v 0 a 0.72,0.72 0 0 1 0.51,0.88 v 0 a 0.73,0.73 0 0 1 -0.7,0.53 v 0 z"
       id="path2526" />
    <path
       style="fill:#707070"
       inkscape:connector-curvature="0"
       class="cls-10"
       d="m 6.8,149.37 a 0.72,0.72 0 0 1 0.72,-0.72 v 0 a 0.71,0.71 0 0 1 0.71,0.72 v 0 a 0.71,0.71 0 0 1 -0.71,0.71 v 0 A 0.72,0.72 0 0 1 6.8,149.37 Z"
       id="path2528" />
    <path
       style="fill:#707070"
       inkscape:connector-curvature="0"
       class="cls-10"
       d="m 34.29,149.34 v 0 -0.05 0 a 0.7,0.7 0 0 1 0.7,-0.71 v 0 a 0.72,0.72 0 0 1 0.73,0.71 v 0 0 0 0 0 A 0.72,0.72 0 0 1 35,150 v 0 a 0.71,0.71 0 0 1 -0.71,-0.66 z"
       id="path2530" />
    <path
       style="fill:#707070"
       inkscape:connector-curvature="0"
       class="cls-10"
       d="m 7.79,146.5 a 0.7,0.7 0 0 1 -0.5,-0.87 v 0 a 0.7,0.7 0 0 1 0.87,-0.51 v 0 a 0.71,0.71 0 0 1 0.51,0.87 v 0 a 0.71,0.71 0 0 1 -0.69,0.54 H 8 A 0.63,0.63 0 0 1 7.79,146.5 Z"
       id="path2532" />
    <path
       style="fill:#707070"
       inkscape:connector-curvature="0"
       class="cls-10"
       d="m 33.83,145.92 a 0.71,0.71 0 0 1 0.5,-0.88 v 0 a 0.71,0.71 0 0 1 0.88,0.5 v 0 a 0.71,0.71 0 0 1 -0.5,0.88 v 0 h -0.19 v 0 a 0.72,0.72 0 0 1 -0.69,-0.5 z"
       id="path2534" />
    <path
       style="fill:#707070"
       inkscape:connector-curvature="0"
       class="cls-10"
       d="m 9,143.11 a 0.71,0.71 0 0 1 -0.27,-1 v 0 a 0.72,0.72 0 0 1 1,-0.27 v 0 a 0.72,0.72 0 0 1 0.26,1 v 0 a 0.71,0.71 0 0 1 -0.62,0.36 v 0 A 0.64,0.64 0 0 1 9,143.11 Z"
       id="path2536" />
    <path
       style="fill:#707070"
       inkscape:connector-curvature="0"
       class="cls-10"
       d="m 32.51,142.78 a 0.73,0.73 0 0 1 0.26,-1 v 0 a 0.72,0.72 0 0 1 1,0.25 v 0 a 0.72,0.72 0 0 1 -0.25,1 v 0 a 0.81,0.81 0 0 1 -0.37,0.09 v 0 a 0.72,0.72 0 0 1 -0.64,-0.34 z"
       id="path2538" />
    <path
       style="fill:#707070"
       inkscape:connector-curvature="0"
       class="cls-10"
       d="m 11,140.15 a 0.7,0.7 0 0 1 0,-1 v 0 a 0.71,0.71 0 0 1 1,0 v 0 a 0.73,0.73 0 0 1 0,1 v 0 a 0.75,0.75 0 0 1 -0.51,0.21 v 0 A 0.69,0.69 0 0 1 11,140.15 Z"
       id="path2540" />
    <path
       style="fill:#707070"
       inkscape:connector-curvature="0"
       class="cls-10"
       d="m 30.44,140.09 a 0.71,0.71 0 0 1 0,-1 v 0 a 0.71,0.71 0 0 1 1,0 v 0 a 0.73,0.73 0 0 1 0,1 v 0 a 0.73,0.73 0 0 1 -0.51,0.21 v 0 a 0.7,0.7 0 0 1 -0.49,-0.21 z"
       id="path2542" />
    <path
       style="fill:#707070"
       inkscape:connector-curvature="0"
       class="cls-10"
       d="m 13.74,137.81 a 0.7,0.7 0 0 1 0.26,-1 v 0 a 0.71,0.71 0 0 1 1,0.26 v 0 a 0.71,0.71 0 0 1 -0.25,1 v 0 a 0.71,0.71 0 0 1 -0.37,0.1 v 0 a 0.71,0.71 0 0 1 -0.64,-0.36 z"
       id="path2544" />
    <path
       style="fill:#707070"
       inkscape:connector-curvature="0"
       class="cls-10"
       d="m 27.74,138 a 0.7,0.7 0 0 1 -0.27,-1 v 0 a 0.71,0.71 0 0 1 1,-0.27 v 0 a 0.71,0.71 0 0 1 0.27,1 v 0 a 0.73,0.73 0 0 1 -0.62,0.36 v 0 A 0.62,0.62 0 0 1 27.74,138 Z"
       id="path2546" />
    <path
       style="fill:#707070"
       inkscape:connector-curvature="0"
       class="cls-10"
       d="m 17,136.26 a 0.73,0.73 0 0 1 0.51,-0.88 v 0 a 0.73,0.73 0 0 1 0.88,0.51 v 0 a 0.72,0.72 0 0 1 -0.51,0.87 v 0 h -0.19 v 0 A 0.73,0.73 0 0 1 17,136.26 Z"
       id="path2548" />
    <path
       style="fill:#707070"
       inkscape:connector-curvature="0"
       class="cls-10"
       d="m 24.59,136.75 a 0.72,0.72 0 0 1 -0.5,-0.88 v 0 a 0.71,0.71 0 0 1 0.86,-0.52 v 0 a 0.72,0.72 0 0 1 0.52,0.87 v 0 a 0.73,0.73 0 0 1 -0.7,0.53 z"
       id="path2550" />
    <path
       style="fill:#b3b3b3"
       inkscape:connector-curvature="0"
       class="cls-4"
       d="m 20.5,135.6 a 0.71,0.71 0 0 1 0.72,-0.71 v 0 a 0.7,0.7 0 0 1 0.71,0.7 v 0 a 0.72,0.72 0 0 1 -0.71,0.73 v 0 A 0.73,0.73 0 0 1 20.5,135.6 Z"
       id="path2552" />
  </g>
  <g
     id="Freq_Knob"
     data-name="Freq Knob"
     transform="scale(1.3333333)">
    <circle
       id="path5084"
       class="cls-11"
       cx="43.200001"
       cy="65.139999"
       r="17.719999"
       style="fill:url(#linear-gradient-2)" />
    <circle
       id="path5086"
       class="cls-12"
       cx="43.200001"
       cy="65.139999"
       r="15.63"
       style="fill:url(#linear-gradient-3)" />
    <circle
       style="fill:none"
       id="path5084-2"
       data-name="path5084"
       class="cls-13"
       cx="43.200001"
       cy="63.75"
       r="16.33" />
  </g>
</svg>
