<?xml version="1.0" encoding="UTF-8" standalone="no"?>
<svg
   xmlns:dc="http://purl.org/dc/elements/1.1/"
   xmlns:cc="http://creativecommons.org/ns#"
   xmlns:rdf="http://www.w3.org/1999/02/22-rdf-syntax-ns#"
   xmlns:svg="http://www.w3.org/2000/svg"
   xmlns="http://www.w3.org/2000/svg"
   xmlns:sodipodi="http://sodipodi.sourceforge.net/DTD/sodipodi-0.dtd"
   xmlns:inkscape="http://www.inkscape.org/namespaces/inkscape"
   viewBox="0 0 172.8 485.66928"
   version="1.1"
   id="svg584"
   sodipodi:docname="BassMasterSnr.svg"
   width="45.720001mm"
   height="128.5mm"
   inkscape:version="0.92.2 5c3e80d, 2017-08-06">
  <metadata
     id="metadata588">
    <rdf:RDF>
      <cc:Work
         rdf:about="">
        <dc:format>image/svg+xml</dc:format>
        <dc:type
           rdf:resource="http://purl.org/dc/dcmitype/StillImage" />
        <dc:title></dc:title>
      </cc:Work>
    </rdf:RDF>
  </metadata>
  <sodipodi:namedview
     pagecolor="#ffffff"
     bordercolor="#666666"
     borderopacity="1"
     objecttolerance="10"
     gridtolerance="10"
     guidetolerance="10"
     inkscape:pageopacity="0"
     inkscape:pageshadow="2"
     inkscape:window-width="1497"
     inkscape:window-height="1108"
     id="namedview586"
     showgrid="false"
     units="mm"
     inkscape:document-units="mm"
     inkscape:zoom="0.64790666"
     inkscape:cx="64.800003"
     inkscape:cy="182.125"
     inkscape:window-x="0"
     inkscape:window-y="0"
     inkscape:window-maximized="0"
     inkscape:current-layer="svg584" />
  <defs
     id="defs19">
    <style
       id="style2">.cls-1{fill:#353535;}.cls-2{fill:url(#linear-gradient);}.cls-3{fill:gray;}.cls-4{fill:#b3b3b3;}.cls-5{fill:#424242;}.cls-6{fill:#121212;}.cls-7{fill:#fff;}.cls-8,.cls-9{fill:#ccc;}.cls-9{font-size:7px;font-family:Gilroy-Bold, Gilroy;font-weight:700;letter-spacing:0.02em;}.cls-10{fill:#1a1a1a;}.cls-11{fill:#707070;}.cls-12{fill:url(#linear-gradient-2);}.cls-13{fill:url(#linear-gradient-3);}.cls-14,.cls-15,.cls-16,.cls-17{fill:none;}.cls-15{stroke:#353535;stroke-width:0.85px;}.cls-16,.cls-17{stroke:#fff;}.cls-16{stroke-width:0.28px;}.cls-17{stroke-width:0.28px;}</style>
    <linearGradient
       id="linear-gradient"
       x1="42.939999"
       y1="349.56"
       x2="62.790001"
       y2="349.56"
       gradientUnits="userSpaceOnUse">
      <stop
         offset="0"
         stop-color="#3fa9f5"
         id="stop4" />
      <stop
         offset="1"
         stop-color="#ed1e79"
         id="stop6" />
    </linearGradient>
    <linearGradient
       id="linear-gradient-2"
       x1="43.200001"
       y1="47.419998"
       x2="43.200001"
       y2="82.860001"
       gradientUnits="userSpaceOnUse">
      <stop
         offset="0"
         stop-color="#b3b3b3"
         id="stop9" />
      <stop
         offset="1"
         id="stop11" />
    </linearGradient>
    <linearGradient
       id="linear-gradient-3"
       x1="43.200001"
       y1="49.509998"
       x2="43.200001"
       y2="80.769997"
       gradientUnits="userSpaceOnUse">
      <stop
         offset="0"
         stop-color="#e6e6e6"
         id="stop14" />
      <stop
         offset="1"
         stop-color="#999"
         id="stop16" />
    </linearGradient>
  </defs>
  <g
     id="Layer_2"
     data-name="Layer 2"
     transform="matrix(1.3333333,0,0,1.3333405,0,-1.0451983e-5)">
    <g
       id="Background">
      <g
         id="background-2"
         data-name="background">
        <path
           id="rect4155"
           class="cls-1"
           d="M 0,0 H 129.6 V 364.25 H 0 Z"
           inkscape:connector-curvature="0"
           style="fill:#353535" />
      </g>
    </g>
    <g
       id="branding">
      <path
         class="cls-2"
         d="m 43.46,355.74 a 0.45,0.45 0 0 1 -0.25,-0.07 0.51,0.51 0 0 1 -0.2,-0.7 l 6.27,-11.32 a 0.51,0.51 0 0 1 0.58,-0.25 0.51,0.51 0 0 1 0.39,0.5 v 9.33 l 5.3,-9.58 a 0.52,0.52 0 0 1 1,0.25 v 9.33 l 5.31,-9.58 a 0.51,0.51 0 0 1 0.58,-0.25 0.52,0.52 0 0 1 0.38,0.5 v 11.32 a 0.52,0.52 0 1 1 -1,0 v -9.33 l -5.31,9.58 a 0.5,0.5 0 0 1 -0.57,0.25 0.51,0.51 0 0 1 -0.39,-0.5 v -9.33 l -5.31,9.58 a 0.5153882,0.5153882 0 0 1 -1,-0.25 v -9.33 l -5.31,9.58 a 0.53,0.53 0 0 1 -0.47,0.27 z"
         id="path24"
         inkscape:connector-curvature="0"
         style="fill:url(#linear-gradient)" />
      <path
         class="cls-3"
         d="m 65.28,343.9 a 0.5,0.5 0 0 1 0.51,-0.5 h 0.1 a 0.51,0.51 0 0 1 0.46,0.26 l 1.72,2.68 1.72,-2.69 a 0.5,0.5 0 0 1 0.46,-0.25 h 0.1 a 0.5,0.5 0 0 1 0.5,0.5 v 4.72 a 0.5,0.5 0 0 1 -1,0 v -3.39 l -1.39,2.08 a 0.46,0.46 0 0 1 -0.83,0 l -1.38,-2.06 v 3.38 a 0.48,0.48 0 0 1 -0.49,0.48 0.48,0.48 0 0 1 -0.49,-0.48 z"
         id="path26"
         inkscape:connector-curvature="0"
         style="fill:#808080" />
      <path
         class="cls-4"
         d="m 70.35,343.4 h -0.1 a 0.5,0.5 0 0 0 -0.46,0.25 l -1.72,2.69 -1.72,-2.68 a 0.51,0.51 0 0 0 -0.46,-0.26 h -0.1 a 0.5,0.5 0 0 0 -0.51,0.5 v 4.73 a 0.48,0.48 0 0 0 0.49,0.48 0.48,0.48 0 0 0 0.49,-0.48 v -3.38 l 1.38,2.06 a 0.46,0.46 0 0 0 0.83,0 l 1.39,-2.08 v 3.39 a 0.5,0.5 0 0 0 1,0 v -4.72 a 0.5,0.5 0 0 0 -0.5,-0.5 z"
         id="path28"
         inkscape:connector-curvature="0"
         style="fill:#b3b3b3" />
      <path
         class="cls-3"
         d="m 72,343.88 a 0.5,0.5 0 0 1 1,0 v 4.74 a 0.48,0.48 0 0 1 -0.49,0.49 0.49,0.49 0 0 1 -0.51,-0.49 z"
         id="path30"
         inkscape:connector-curvature="0"
         style="fill:#808080" />
      <path
         class="cls-4"
         d="m 72.47,343.39 a 0.5,0.5 0 0 0 -0.51,0.49 v 4.74 a 0.49,0.49 0 0 0 0.51,0.49 0.48,0.48 0 0 0 0.49,-0.49 v -4.74 a 0.49,0.49 0 0 0 -0.49,-0.49 z"
         id="path32"
         inkscape:connector-curvature="0"
         style="fill:#b3b3b3" />
      <path
         class="cls-3"
         d="m 74.07,343.9 a 0.5,0.5 0 0 1 0.5,-0.5 h 0.11 a 0.61,0.61 0 0 1 0.51,0.29 l 2.81,3.65 v -3.47 a 0.5,0.5 0 0 1 1,0 v 4.74 a 0.49,0.49 0 0 1 -0.49,0.5 v 0 a 0.66,0.66 0 0 1 -0.52,-0.3 l -2.91,-3.76 v 3.58 a 0.5,0.5 0 0 1 -1,0 z"
         id="path34"
         inkscape:connector-curvature="0"
         style="fill:#808080" />
      <path
         class="cls-4"
         d="m 78.51,343.39 a 0.49,0.49 0 0 0 -0.48,0.48 v 3.47 l -2.84,-3.65 a 0.61,0.61 0 0 0 -0.51,-0.29 h -0.11 a 0.5,0.5 0 0 0 -0.5,0.5 v 4.73 a 0.5,0.5 0 0 0 1,0 v -3.58 l 2.93,3.76 a 0.66,0.66 0 0 0 0.52,0.3 v 0 a 0.49,0.49 0 0 0 0.49,-0.5 v -4.74 a 0.49,0.49 0 0 0 -0.5,-0.48 z"
         id="path36"
         inkscape:connector-curvature="0"
         style="fill:#b3b3b3" />
      <path
         class="cls-3"
         d="m 80.06,343.93 a 0.5,0.5 0 0 1 0.5,-0.5 h 1.61 a 2.82,2.82 0 0 1 3,2.8 v 0 a 2.83,2.83 0 0 1 -3,2.82 h -1.61 a 0.49,0.49 0 0 1 -0.5,-0.5 z m 2.11,4.24 a 1.85,1.85 0 0 0 2,-1.9 v 0 a 1.86,1.86 0 0 0 -2,-1.92 h -1.11 v 3.84 z"
         id="path38"
         inkscape:connector-curvature="0"
         style="fill:#808080" />
      <path
         class="cls-4"
         d="m 82.17,343.43 h -1.61 a 0.5,0.5 0 0 0 -0.5,0.5 v 4.64 a 0.49,0.49 0 0 0 0.5,0.5 h 1.61 a 2.83,2.83 0 0 0 3,-2.82 v 0 a 2.82,2.82 0 0 0 -3,-2.8 z m -1.11,4.74 v -3.84 h 1.11 a 1.86,1.86 0 0 1 2,1.92 v 0 a 1.85,1.85 0 0 1 -2,1.9 z"
         id="path40"
         inkscape:connector-curvature="0"
         style="fill:#b3b3b3" />
      <path
         class="cls-3"
         d="m 65.28,350.51 a 0.5,0.5 0 0 1 0.51,-0.5 h 0.1 a 0.51,0.51 0 0 1 0.46,0.26 l 1.72,2.73 1.72,-2.68 a 0.51,0.51 0 0 1 0.46,-0.26 h 0.1 a 0.5,0.5 0 0 1 0.5,0.5 v 4.72 a 0.5,0.5 0 1 1 -1,0 v -3.38 l -1.39,2.07 a 0.46,0.46 0 0 1 -0.83,0 l -1.38,-2.06 v 3.38 a 0.48,0.48 0 0 1 -0.49,0.49 0.48,0.48 0 0 1 -0.49,-0.49 z"
         id="path42"
         inkscape:connector-curvature="0"
         style="fill:#808080" />
      <path
         class="cls-4"
         d="m 70.35,350 h -0.1 a 0.51,0.51 0 0 0 -0.46,0.26 l -1.72,2.74 -1.72,-2.68 a 0.51,0.51 0 0 0 -0.46,-0.26 h -0.1 a 0.5,0.5 0 0 0 -0.51,0.5 v 4.73 a 0.48,0.48 0 0 0 0.49,0.49 0.48,0.48 0 0 0 0.49,-0.49 v -3.38 l 1.38,2.06 a 0.46,0.46 0 0 0 0.83,0 l 1.39,-2.07 v 3.38 a 0.5,0.5 0 1 0 1,0 v -4.72 a 0.5,0.5 0 0 0 -0.5,-0.5 z"
         id="path44"
         inkscape:connector-curvature="0"
         style="fill:#b3b3b3" />
      <path
         class="cls-3"
         d="m 71.91,355.19 v -4.65 a 0.5,0.5 0 0 1 0.5,-0.5 h 3.29 a 0.45,0.45 0 1 1 0,0.89 h -2.8 v 1.46 h 2.44 a 0.45,0.45 0 0 1 0.44,0.46 0.44,0.44 0 0 1 -0.44,0.43 H 72.9 v 1.52 h 2.84 a 0.45,0.45 0 1 1 0,0.89 h -3.33 a 0.5,0.5 0 0 1 -0.5,-0.5 z"
         id="path46"
         inkscape:connector-curvature="0"
         style="fill:#808080" />
      <path
         class="cls-4"
         d="m 75.7,350 h -3.29 a 0.5,0.5 0 0 0 -0.5,0.5 v 4.65 a 0.5,0.5 0 0 0 0.5,0.5 h 3.33 a 0.45,0.45 0 1 0 0,-0.89 H 72.9 v -1.52 h 2.44 a 0.44,0.44 0 0 0 0.44,-0.43 0.45,0.45 0 0 0 -0.44,-0.46 H 72.9 v -1.46 h 2.8 a 0.45,0.45 0 1 0 0,-0.89 z"
         id="path48"
         inkscape:connector-curvature="0"
         style="fill:#b3b3b3" />
      <path
         class="cls-3"
         d="m 76.93,350.49 a 0.5,0.5 0 0 1 1,0 v 4.29 h 2.57 a 0.45,0.45 0 0 1 0.45,0.45 0.46,0.46 0 0 1 -0.45,0.46 h -3.07 a 0.5,0.5 0 0 1 -0.5,-0.5 z"
         id="path50"
         inkscape:connector-curvature="0"
         style="fill:#808080" />
      <path
         class="cls-4"
         d="m 77.43,350 a 0.49,0.49 0 0 0 -0.5,0.49 v 4.7 a 0.5,0.5 0 0 0 0.5,0.5 h 3.06 a 0.46,0.46 0 0 0 0.45,-0.46 0.45,0.45 0 0 0 -0.45,-0.45 h -2.57 v -4.29 A 0.49,0.49 0 0 0 77.43,350 Z"
         id="path52"
         inkscape:connector-curvature="0"
         style="fill:#b3b3b3" />
      <path
         class="cls-3"
         d="M 81.53,350.54 A 0.5,0.5 0 0 1 82,350 h 1.61 a 2.82,2.82 0 0 1 3,2.81 v 0 a 2.84,2.84 0 0 1 -3,2.83 H 82 a 0.5,0.5 0 0 1 -0.51,-0.5 z m 2.12,4.24 a 1.84,1.84 0 0 0 2,-1.9 v 0 a 1.85,1.85 0 0 0 -2,-1.92 h -1.12 v 3.84 z"
         id="path54"
         inkscape:connector-curvature="0"
         style="fill:#808080" />
      <path
         class="cls-4"
         d="M 83.65,350 H 82 a 0.5,0.5 0 0 0 -0.51,0.5 v 4.65 a 0.5,0.5 0 0 0 0.51,0.5 h 1.61 a 2.84,2.84 0 0 0 3,-2.83 v 0 a 2.82,2.82 0 0 0 -3,-2.81 z m -1.12,4.74 v -3.84 h 1.12 a 1.85,1.85 0 0 1 2,1.92 v 0 a 1.84,1.84 0 0 1 -2,1.9 z"
         id="path56"
         inkscape:connector-curvature="0"
         style="fill:#b3b3b3" />
      <path
         class="cls-4"
         d="m 33.47,15.85 a 2.29,2.29 0 0 1 -0.76,1.77 2.71,2.71 0 0 1 -1.88,0.69 h -3.6 V 9.83 h 3.35 a 2.68,2.68 0 0 1 1.83,0.67 2.23,2.23 0 0 1 0.75,1.71 2.06,2.06 0 0 1 -0.8,1.7 2.1,2.1 0 0 1 1.11,1.94 z M 28.9,11.39 v 1.86 h 1.68 a 0.93,0.93 0 0 0 0,-1.86 z m 1.93,5.35 a 1,1 0 0 0 0,-2 H 28.9 v 2 z"
         id="path58"
         inkscape:connector-curvature="0"
         style="fill:#b3b3b3" />
      <path
         class="cls-4"
         d="m 40.25,18.31 -0.51,-1.53 h -3.38 l -0.51,1.53 h -1.8 l 3,-8.48 h 2.07 l 3,8.48 z M 36.9,15.22 h 2.32 l -1.16,-3.47 z"
         id="path60"
         inkscape:connector-curvature="0"
         style="fill:#b3b3b3" />
      <path
         class="cls-4"
         d="m 42.5,16.38 1.43,-0.84 a 1.91,1.91 0 0 0 2,1.3 c 0.93,0 1.36,-0.37 1.36,-0.9 a 0.77,0.77 0 0 0 -0.4,-0.69 5.8,5.8 0 0 0 -1.43,-0.54 5.4,5.4 0 0 1 -1.76,-0.79 2.05,2.05 0 0 1 -0.8,-1.74 2.26,2.26 0 0 1 0.81,-1.83 3,3 0 0 1 2,-0.69 3.24,3.24 0 0 1 3,1.9 l -1.41,0.81 a 1.69,1.69 0 0 0 -1.62,-1.09 c -0.69,0 -1.12,0.35 -1.12,0.85 a 0.79,0.79 0 0 0 0.33,0.65 5.33,5.33 0 0 0 1.29,0.54 l 0.58,0.19 a 5.57,5.57 0 0 1 0.54,0.21 2.29,2.29 0 0 1 0.54,0.25 2.45,2.45 0 0 1 0.79,0.75 2.24,2.24 0 0 1 0.32,1.2 2.28,2.28 0 0 1 -0.86,1.87 3.42,3.42 0 0 1 -2.22,0.69 3.28,3.28 0 0 1 -3.37,-2.1 z"
         id="path62"
         inkscape:connector-curvature="0"
         style="fill:#b3b3b3" />
      <path
         class="cls-4"
         d="M 49.55,16.38 51,15.54 a 1.9,1.9 0 0 0 2,1.3 c 0.93,0 1.36,-0.37 1.36,-0.9 a 0.77,0.77 0 0 0 -0.4,-0.69 5.8,5.8 0 0 0 -1.43,-0.54 5.3,5.3 0 0 1 -1.76,-0.79 2.05,2.05 0 0 1 -0.8,-1.74 2.26,2.26 0 0 1 0.81,-1.83 3,3 0 0 1 2,-0.69 3.25,3.25 0 0 1 3,1.9 l -1.41,0.81 a 1.69,1.69 0 0 0 -1.62,-1.09 c -0.69,0 -1.12,0.35 -1.12,0.85 a 0.79,0.79 0 0 0 0.33,0.65 5.21,5.21 0 0 0 1.28,0.54 l 0.58,0.19 a 4.74,4.74 0 0 1 0.55,0.21 2,2 0 0 1 0.53,0.25 2.39,2.39 0 0 1 0.8,0.75 2.33,2.33 0 0 1 0.32,1.2 2.28,2.28 0 0 1 -0.86,1.87 3.42,3.42 0 0 1 -2.22,0.69 3.28,3.28 0 0 1 -3.39,-2.1 z"
         id="path64"
         inkscape:connector-curvature="0"
         style="fill:#b3b3b3" />
      <path
         class="cls-3"
         d="m 65.52,9.83 v 8.48 h -1.66 v -5.5 l -2.38,3.93 h -0.2 L 58.9,12.82 v 5.49 H 57.23 V 9.83 H 59 l 2.43,4 2.42,-4 z"
         id="path66"
         inkscape:connector-curvature="0"
         style="fill:#808080" />
      <path
         class="cls-3"
         d="M 72.79,18.31 72.28,16.78 H 68.9 l -0.51,1.53 h -1.81 l 3,-8.48 h 2.07 l 3,8.48 z m -3.36,-3.09 h 2.33 l -1.17,-3.47 z"
         id="path68"
         inkscape:connector-curvature="0"
         style="fill:#808080" />
      <path
         class="cls-3"
         d="m 75,16.38 1.43,-0.84 a 1.9,1.9 0 0 0 2,1.3 c 0.93,0 1.35,-0.37 1.35,-0.9 a 0.75,0.75 0 0 0 -0.4,-0.69 5.64,5.64 0 0 0 -1.43,-0.54 5.34,5.34 0 0 1 -1.75,-0.79 2.05,2.05 0 0 1 -0.8,-1.74 2.23,2.23 0 0 1 0.81,-1.83 3,3 0 0 1 2,-0.69 3.24,3.24 0 0 1 3,1.9 l -1.4,0.81 a 1.7,1.7 0 0 0 -1.63,-1.09 c -0.69,0 -1.11,0.35 -1.11,0.85 a 0.79,0.79 0 0 0 0.33,0.65 5.21,5.21 0 0 0 1.28,0.54 l 0.58,0.19 a 5.55,5.55 0 0 1 0.55,0.21 2,2 0 0 1 0.53,0.25 2.59,2.59 0 0 1 0.8,0.75 2.33,2.33 0 0 1 0.32,1.2 2.28,2.28 0 0 1 -0.87,1.87 3.4,3.4 0 0 1 -2.21,0.69 3.27,3.27 0 0 1 -3.38,-2.1 z"
         id="path70"
         inkscape:connector-curvature="0"
         style="fill:#808080" />
      <path
         class="cls-3"
         d="m 88.08,9.83 v 1.6 h -2.29 v 6.88 h -1.67 v -6.88 h -2.28 v -1.6 z"
         id="path72"
         inkscape:connector-curvature="0"
         style="fill:#808080" />
      <path
         class="cls-3"
         d="m 90.92,16.71 h 3.58 v 1.6 H 89.25 V 9.83 h 5.19 v 1.6 h -3.52 v 1.8 h 3.21 v 1.58 h -3.21 z"
         id="path74"
         inkscape:connector-curvature="0"
         style="fill:#808080" />
      <path
         class="cls-3"
         d="m 100.56,18.31 -1.71,-2.95 h -1.27 v 2.95 H 95.91 V 9.83 h 3.39 a 2.8,2.8 0 0 1 2.82,2.81 2.76,2.76 0 0 1 -1.63,2.47 l 1.88,3.2 z m -3,-6.92 v 2.51 h 1.74 a 1.26,1.26 0 0 0 0,-2.51 z"
         id="path76"
         inkscape:connector-curvature="0"
         style="fill:#808080" />
    </g>
    <g
       id="Section_BGs"
       data-name="Section BGs">
      <rect
         class="cls-5"
         x="4.25"
         y="187.45"
         width="77.900002"
         height="73.870003"
         rx="2.72"
         id="rect79"
         style="fill:#424242" />
      <rect
         class="cls-5"
         x="4.25"
         y="108.89"
         width="77.900002"
         height="73.870003"
         rx="2.72"
         id="rect81"
         style="fill:#424242" />
      <rect
         class="cls-5"
         x="4.25"
         y="25.51"
         width="77.900002"
         height="78.730003"
         rx="2.8099999"
         id="rect83"
         style="fill:#424242" />
      <rect
         class="cls-6"
         x="51.27"
         y="267.01999"
         width="30.610001"
         height="69.169998"
         rx="1.41"
         id="rect85"
         style="fill:#121212" />
      <rect
         class="cls-5"
         x="4.25"
         y="267.01999"
         width="30.610001"
         height="69.169998"
         rx="1.41"
         id="rect87"
         style="fill:#424242" />
    </g>
    <g
       id="labels">
      <path
         class="cls-7"
         d="m 16.27,270.77 h 1 v 4.9 h -1 z"
         id="path90"
         inkscape:connector-curvature="0"
         style="fill:#ffffff" />
      <path
         class="cls-7"
         d="m 21.16,270.77 h 1 v 4.9 h -0.74 l -2.1,-3 v 3 h -1 v -4.9 h 0.73 l 2.1,3 z"
         id="path92"
         inkscape:connector-curvature="0"
         style="fill:#ffffff" />
      <path
         class="cls-7"
         d="m 42.71,293.7 h 2 v 1 h -3.05 v -5.31 h 1.05 z"
         id="path94"
         inkscape:connector-curvature="0"
         style="fill:#ffffff" />
      <path
         class="cls-7"
         d="M 44.09,321.65 43,319.8 h -0.8 v 1.85 h -1 v -5.32 h 2.1 a 1.76,1.76 0 0 1 1.77,1.76 1.73,1.73 0 0 1 -1,1.55 l 1.17,2 z m -1.87,-4.34 v 1.57 h 1.08 a 0.76,0.76 0 0 0 0.72,-0.79 0.75,0.75 0 0 0 -0.72,-0.78 z"
         id="path96"
         inkscape:connector-curvature="0"
         style="fill:#ffffff" />
      <path
         class="cls-7"
         d="m 61.65,275.91 a 2.36,2.36 0 0 1 -1.75,-0.74 2.55,2.55 0 0 1 -0.71,-1.81 2.51,2.51 0 0 1 0.71,-1.81 2.43,2.43 0 0 1 3.49,0 2.48,2.48 0 0 1 0.72,1.81 2.51,2.51 0 0 1 -0.72,1.81 2.35,2.35 0 0 1 -1.74,0.74 z m 0,-1 a 1.41,1.41 0 0 0 1.08,-0.45 1.58,1.58 0 0 0 0.44,-1.15 1.61,1.61 0 0 0 -0.44,-1.16 1.53,1.53 0 0 0 -2.17,0 1.61,1.61 0 0 0 -0.44,1.16 1.58,1.58 0 0 0 0.44,1.15 1.41,1.41 0 0 0 1.09,0.54 z"
         id="path98"
         inkscape:connector-curvature="0"
         style="fill:#ffffff" />
      <path
         class="cls-7"
         d="m 65.73,275.44 a 1.57,1.57 0 0 1 -0.51,-1.23 v -3.3 h 0.93 v 3.22 a 0.88,0.88 0 0 0 1.76,0 v -3.22 h 0.93 v 3.3 a 1.57,1.57 0 0 1 -0.51,1.23 2,2 0 0 1 -2.6,0 z"
         id="path100"
         inkscape:connector-curvature="0"
         style="fill:#ffffff" />
      <path
         class="cls-7"
         d="m 73.34,270.91 v 0.92 h -1.27 v 4 h -0.94 v -4 h -1.27 v -0.92 z"
         id="path102"
         inkscape:connector-curvature="0"
         style="fill:#ffffff" />
      <path
         class="cls-7"
         d="m 36.25,197.19 h 2 V 198 h -2.8 v -4.9 h 0.8 z"
         id="path104"
         inkscape:connector-curvature="0"
         style="fill:#ffffff" />
      <path
         class="cls-7"
         d="m 41.18,198.05 a 2.51,2.51 0 0 1 -2.55,-2.54 2.55,2.55 0 1 1 5.09,0 2.51,2.51 0 0 1 -2.54,2.54 z m 0,-0.78 a 1.67,1.67 0 0 0 1.23,-0.5 1.74,1.74 0 0 0 0.5,-1.26 1.69,1.69 0 0 0 -0.5,-1.25 1.64,1.64 0 0 0 -1.23,-0.51 1.67,1.67 0 0 0 -1.24,0.51 1.69,1.69 0 0 0 -0.5,1.25 1.74,1.74 0 0 0 0.5,1.26 1.7,1.7 0 0 0 1.24,0.5 z"
         id="path106"
         inkscape:connector-curvature="0"
         style="fill:#ffffff" />
      <path
         class="cls-7"
         d="m 45.63,198 -1.39,-4.9 h 0.85 l 1,3.83 1.11,-3.83 H 48 l 1.11,3.83 1,-3.83 H 51 l -1.43,4.9 h -0.93 l -1,-3.58 -1,3.58 z"
         id="path108"
         inkscape:connector-curvature="0"
         style="fill:#ffffff" />
      <path
         class="cls-7"
         d="m 21.42,35.64 a 2.51,2.51 0 0 1 -0.73,-1.82 2.51,2.51 0 0 1 2.56,-2.54 2.42,2.42 0 0 1 2.11,1.17 l -0.7,0.41 a 1.56,1.56 0 0 0 -1.41,-0.8 1.72,1.72 0 0 0 -1.27,0.5 1.89,1.89 0 0 0 0,2.52 1.72,1.72 0 0 0 1.27,0.5 1.56,1.56 0 0 0 1.41,-0.79 l 0.7,0.4 a 2.25,2.25 0 0 1 -0.87,0.86 2.62,2.62 0 0 1 -3.07,-0.41 z"
         id="path110"
         inkscape:connector-curvature="0"
         style="fill:#ffffff" />
      <path
         class="cls-7"
         d="m 29.38,36.27 -1,-1.78 h -0.95 v 1.78 h -0.8 v -4.9 h 2 a 1.57,1.57 0 0 1 1.49,1.63 1.54,1.54 0 0 1 -1,1.42 l 1.11,1.9 z m -2,-4.14 v 1.64 h 1.16 a 0.82,0.82 0 0 0 0,-1.64 z"
         id="path112"
         inkscape:connector-curvature="0"
         style="fill:#ffffff" />
      <path
         class="cls-7"
         d="m 33.7,36.37 a 2.51,2.51 0 0 1 -2.54,-2.55 2.46,2.46 0 0 1 0.73,-1.8 2.49,2.49 0 0 1 1.81,-0.74 2.55,2.55 0 1 1 0,5.09 z m 0,-0.79 a 1.77,1.77 0 0 0 1.23,-3 1.64,1.64 0 0 0 -1.23,-0.51 1.68,1.68 0 0 0 -1.24,0.51 1.76,1.76 0 0 0 1.24,3 z"
         id="path114"
         inkscape:connector-curvature="0"
         style="fill:#ffffff" />
      <path
         class="cls-7"
         d="m 37.09,35.16 0.7,-0.41 A 1.16,1.16 0 0 0 39,35.58 c 0.61,0 0.92,-0.26 0.92,-0.64 a 0.52,0.52 0 0 0 -0.25,-0.46 4.32,4.32 0 0 0 -0.87,-0.35 3.27,3.27 0 0 1 -1,-0.45 1.12,1.12 0 0 1 -0.47,-1 1.24,1.24 0 0 1 0.46,-1 1.67,1.67 0 0 1 1.11,-0.39 1.81,1.81 0 0 1 1.71,1.08 l -0.68,0.39 a 1.07,1.07 0 0 0 -1,-0.69 c -0.47,0 -0.77,0.24 -0.77,0.61 0,0.37 0.24,0.54 1,0.77 a 3.3,3.3 0 0 1 0.4,0.14 2.61,2.61 0 0 1 0.37,0.14 1.46,1.46 0 0 1 0.36,0.19 1.17,1.17 0 0 1 0.5,1 1.3,1.3 0 0 1 -0.55,1.08 1.94,1.94 0 0 1 -1.26,0.39 1.86,1.86 0 0 1 -1.89,-1.23 z"
         id="path116"
         inkscape:connector-curvature="0"
         style="fill:#ffffff" />
      <path
         class="cls-7"
         d="m 41.56,35.16 0.69,-0.41 a 1.17,1.17 0 0 0 1.22,0.83 c 0.61,0 0.91,-0.26 0.91,-0.64 a 0.51,0.51 0 0 0 -0.24,-0.46 4.32,4.32 0 0 0 -0.87,-0.35 3.27,3.27 0 0 1 -1,-0.45 1.1,1.1 0 0 1 -0.48,-1 1.27,1.27 0 0 1 0.46,-1 1.68,1.68 0 0 1 1.12,-0.39 1.83,1.83 0 0 1 1.71,1.08 l -0.68,0.39 a 1.08,1.08 0 0 0 -1,-0.69 c -0.47,0 -0.77,0.24 -0.77,0.61 0,0.37 0.24,0.54 1,0.77 a 3.63,3.63 0 0 1 0.41,0.14 l 0.37,0.14 a 1.3,1.3 0 0 1 0.86,1.2 1.28,1.28 0 0 1 -0.57,1.07 1.89,1.89 0 0 1 -1.25,0.39 1.86,1.86 0 0 1 -1.89,-1.23 z"
         id="path118"
         inkscape:connector-curvature="0"
         style="fill:#ffffff" />
      <path
         class="cls-7"
         d="m 48.7,36.37 a 2.51,2.51 0 0 1 -2.54,-2.55 2.46,2.46 0 0 1 0.73,-1.8 2.49,2.49 0 0 1 1.81,-0.74 2.55,2.55 0 1 1 0,5.09 z m 0,-0.79 a 1.77,1.77 0 0 0 1.23,-3 1.64,1.64 0 0 0 -1.23,-0.51 1.68,1.68 0 0 0 -1.24,0.51 1.76,1.76 0 0 0 1.24,3 z"
         id="path120"
         inkscape:connector-curvature="0"
         style="fill:#ffffff" />
      <path
         class="cls-7"
         d="m 53.57,36.27 -1.7,-4.9 h 0.88 l 1.3,3.93 1.31,-3.93 h 0.88 l -1.7,4.9 z"
         id="path122"
         inkscape:connector-curvature="0"
         style="fill:#ffffff" />
      <path
         class="cls-7"
         d="m 58.13,35.5 h 2.17 v 0.77 h -3 v -4.9 h 2.94 v 0.77 h -2.11 v 1.28 h 2 v 0.76 h -2 z"
         id="path124"
         inkscape:connector-curvature="0"
         style="fill:#ffffff" />
      <path
         class="cls-7"
         d="m 64.39,36.27 -1,-1.78 h -1 v 1.78 h -0.81 v -4.9 h 2 a 1.57,1.57 0 0 1 1.55,1.63 1.54,1.54 0 0 1 -1,1.42 l 1.11,1.9 z m -2,-4.14 v 1.64 h 1.15 a 0.82,0.82 0 0 0 0,-1.64 z"
         id="path126"
         inkscape:connector-curvature="0"
         style="fill:#ffffff" />
      <path
         class="cls-7"
         d="m 37.56,114.5 h 0.81 v 4.9 h -0.81 v -2.12 h -2.1 v 2.12 h -0.8 v -4.9 h 0.8 v 2 h 2.1 z"
         id="path128"
         inkscape:connector-curvature="0"
         style="fill:#ffffff" />
      <path
         class="cls-7"
         d="m 39.7,114.5 h 0.8 v 4.9 h -0.8 z"
         id="path130"
         inkscape:connector-curvature="0"
         style="fill:#ffffff" />
      <path
         class="cls-7"
         d="m 46.6,116.87 v 0.33 a 2.21,2.21 0 0 1 -0.66,1.66 2.43,2.43 0 0 1 -1.74,0.63 2.56,2.56 0 0 1 -1.88,-0.73 2.6,2.6 0 0 1 0,-3.61 2.53,2.53 0 0 1 1.84,-0.74 2.45,2.45 0 0 1 2.13,1.16 l -0.69,0.4 a 1.62,1.62 0 0 0 -1.44,-0.78 1.7,1.7 0 0 0 -1.27,0.51 1.74,1.74 0 0 0 -0.5,1.26 1.7,1.7 0 0 0 0.5,1.25 1.82,1.82 0 0 0 1.32,0.5 1.46,1.46 0 0 0 1.58,-1.12 h -1.64 v -0.72 z"
         id="path132"
         inkscape:connector-curvature="0"
         style="fill:#ffffff" />
      <path
         class="cls-7"
         d="m 50.59,114.5 h 0.81 v 4.9 h -0.81 v -2.12 h -2.1 v 2.12 h -0.81 v -4.9 h 0.81 v 2 h 2.1 z"
         id="path134"
         inkscape:connector-curvature="0"
         style="fill:#ffffff" />
      <path
         class="cls-8"
         d="m 11.33,82.9 a 1.39,1.39 0 0 1 0.92,0.32 1.12,1.12 0 0 1 0.38,0.89 1.08,1.08 0 0 1 -0.39,0.88 1.37,1.37 0 0 1 -0.93,0.33 A 1.27,1.27 0 0 1 10,84.49 l 0.43,-0.25 a 0.79,0.79 0 0 0 0.84,0.58 0.72,0.72 0 1 0 0,-1.43 h -1.04 l 0.14,-2 h 2.11 v 0.48 h -1.65 l -0.06,1 z"
         id="path136"
         inkscape:connector-curvature="0"
         style="fill:#cccccc" />
      <path
         class="cls-8"
         d="m 14.6,85.32 a 1.28,1.28 0 0 1 -1.09,-0.55 2.89,2.89 0 0 1 0,-2.9 1.38,1.38 0 0 1 2.19,0 2.89,2.89 0 0 1 0,2.9 1.29,1.29 0 0 1 -1.1,0.55 z m 0,-0.5 c 0.62,0 1,-0.55 1,-1.5 0,-0.95 -0.36,-1.5 -1,-1.5 -0.64,0 -1,0.54 -1,1.5 0,0.96 0.4,1.5 1,1.5 z"
         id="path138"
         inkscape:connector-curvature="0"
         style="fill:#cccccc" />
      <path
         class="cls-8"
         d="m 19.26,81.4 h 0.51 v 3.84 H 19.26 V 83.51 H 17.4 v 1.73 H 16.89 V 81.4 H 17.4 V 83 h 1.86 z"
         id="path140"
         inkscape:connector-curvature="0"
         style="fill:#cccccc" />
      <path
         class="cls-8"
         d="m 21.24,84.79 h 1.46 v 0.45 H 20.59 V 84.93 L 22,83 h -1.36 v -0.5 h 2 v 0.32 z"
         id="path142"
         inkscape:connector-curvature="0"
         style="fill:#cccccc" />
      <path
         class="cls-8"
         d="m 63.17,82.9 a 1.35,1.35 0 0 1 0.91,0.32 1.09,1.09 0 0 1 0.38,0.89 1.07,1.07 0 0 1 -0.38,0.88 1.39,1.39 0 0 1 -0.93,0.33 1.27,1.27 0 0 1 -1.27,-0.83 l 0.43,-0.25 a 0.79,0.79 0 0 0 0.84,0.58 0.72,0.72 0 1 0 0,-1.43 h -1.08 l 0.14,-2 h 2.11 v 0.48 h -1.65 l -0.06,1 z"
         id="path144"
         inkscape:connector-curvature="0"
         style="fill:#cccccc" />
      <path
         class="cls-8"
         d="m 66.44,85.32 a 1.27,1.27 0 0 1 -1.09,-0.55 2.89,2.89 0 0 1 0,-2.9 1.37,1.37 0 0 1 2.18,0 2.89,2.89 0 0 1 0,2.9 1.26,1.26 0 0 1 -1.09,0.55 z m 0,-0.5 c 0.62,0 1,-0.55 1,-1.5 0,-0.95 -0.36,-1.5 -1,-1.5 -0.64,0 -1,0.54 -1,1.5 0,0.96 0.38,1.5 1,1.5 z"
         id="path146"
         inkscape:connector-curvature="0"
         style="fill:#cccccc" />
      <path
         class="cls-8"
         d="m 70,85.32 a 1.28,1.28 0 0 1 -1,-0.55 2.89,2.89 0 0 1 0,-2.9 1.38,1.38 0 0 1 2.19,0 2.89,2.89 0 0 1 0,2.9 1.29,1.29 0 0 1 -1.19,0.55 z m 0,-0.5 c 0.62,0 1,-0.55 1,-1.5 0,-0.95 -0.36,-1.5 -1,-1.5 -0.64,0 -1,0.54 -1,1.5 0,0.96 0.42,1.5 1,1.5 z"
         id="path148"
         inkscape:connector-curvature="0"
         style="fill:#cccccc" />
      <path
         class="cls-8"
         d="m 74.7,81.4 h 0.51 v 3.84 H 74.7 v -1.73 h -1.86 v 1.73 H 72.33 V 81.4 h 0.51 V 83 h 1.86 z"
         id="path150"
         inkscape:connector-curvature="0"
         style="fill:#cccccc" />
      <path
         class="cls-8"
         d="m 76.68,84.79 h 1.46 v 0.45 H 76 v -0.31 l 1.4,-2 H 76.08 V 82.5 h 2 v 0.32 z"
         id="path152"
         inkscape:connector-curvature="0"
         style="fill:#cccccc" />
      <path
         class="cls-8"
         d="m 58.19,129.17 v 0.34 a 2.2,2.2 0 0 1 -2.32,2.29 2.43,2.43 0 0 1 -1.81,-0.74 2.65,2.65 0 0 1 0,-3.61 2.39,2.39 0 0 1 1.77,-0.74 2.36,2.36 0 0 1 2.06,1.16 l -0.67,0.4 a 1.55,1.55 0 0 0 -1.39,-0.77 1.58,1.58 0 0 0 -1.22,0.5 1.77,1.77 0 0 0 -0.48,1.26 1.68,1.68 0 0 0 1.75,1.74 1.42,1.42 0 0 0 1.52,-1.12 h -1.58 v -0.72 z"
         id="path154"
         inkscape:connector-curvature="0"
         style="fill:#cccccc" />
      <path
         class="cls-8"
         d="m 61.52,128.2 h 0.73 v 3.51 h -0.73 v -0.51 a 1.34,1.34 0 0 1 -1.18,0.6 1.55,1.55 0 0 1 -1.19,-0.54 1.84,1.84 0 0 1 -0.49,-1.31 1.87,1.87 0 0 1 0.49,-1.31 1.57,1.57 0 0 1 1.19,-0.53 1.36,1.36 0 0 1 1.18,0.59 z m -1.07,2.87 a 1,1 0 0 0 0.77,-0.31 1.23,1.23 0 0 0 0,-1.61 1.07,1.07 0 0 0 -1.53,0 1.23,1.23 0 0 0 0,1.61 1,1 0 0 0 0.76,0.31 z"
         id="path156"
         inkscape:connector-curvature="0"
         style="fill:#cccccc" />
      <path
         class="cls-8"
         d="m 63.13,127.54 a 0.5,0.5 0 0 1 0,-0.68 0.45,0.45 0 0 1 0.67,0 0.49,0.49 0 0 1 0,0.68 0.45,0.45 0 0 1 -0.67,0 z m 0,4.17 v -3.51 h 0.73 v 3.51 z"
         id="path158"
         inkscape:connector-curvature="0"
         style="fill:#cccccc" />
      <path
         class="cls-8"
         d="m 67.75,129.56 v 2.15 H 67 v -2.08 a 0.72,0.72 0 0 0 -0.76,-0.81 c -0.51,0 -0.85,0.33 -0.85,1 v 1.88 h -0.74 v -3.5 h 0.74 v 0.45 a 1.12,1.12 0 0 1 1,-0.54 1.29,1.29 0 0 1 1.36,1.45 z"
         id="path160"
         inkscape:connector-curvature="0"
         style="fill:#cccccc" />
      <path
         class="cls-8"
         d="m 72.3,126.8 h 0.76 v 4.91 H 72.3 v -0.51 a 1.4,1.4 0 0 1 -1.22,0.6 1.65,1.65 0 0 1 -1.24,-0.54 1.81,1.81 0 0 1 -0.51,-1.31 1.84,1.84 0 0 1 0.51,-1.31 1.68,1.68 0 0 1 1.24,-0.53 1.42,1.42 0 0 1 1.22,0.59 z m -1.1,4.28 a 1.09,1.09 0 0 0 0.79,-0.32 1.11,1.11 0 0 0 0.31,-0.81 1.11,1.11 0 1 0 -2.21,0 1.11,1.11 0 0 0 0.31,0.81 1.09,1.09 0 0 0 0.8,0.32 z"
         id="path162"
         inkscape:connector-curvature="0"
         style="fill:#cccccc" />
      <path
         class="cls-8"
         d="m 77.56,130.31 a 1.32,1.32 0 0 1 -0.43,1 1.48,1.48 0 0 1 -1,0.4 H 74 v -4.91 h 2 a 1.46,1.46 0 0 1 1,0.39 1.28,1.28 0 0 1 0.42,1 1.17,1.17 0 0 1 -0.5,1 1.25,1.25 0 0 1 0.64,1.12 z m -2.77,-2.75 v 1.29 h 1.15 a 0.65,0.65 0 0 0 0,-1.29 z m 1.3,3.39 a 0.69,0.69 0 0 0 0,-1.37 h -1.3 V 131 Z"
         id="path164"
         inkscape:connector-curvature="0"
         style="fill:#cccccc" />
      <path
         class="cls-8"
         d="m 58.19,207.73 v 0.33 a 2.18,2.18 0 0 1 -2.32,2.29 2.42,2.42 0 0 1 -1.81,-0.73 2.65,2.65 0 0 1 0,-3.61 2.44,2.44 0 0 1 3.83,0.42 l -0.67,0.4 a 1.55,1.55 0 0 0 -1.39,-0.78 1.59,1.59 0 0 0 -1.22,0.51 1.88,1.88 0 0 0 0,2.51 1.7,1.7 0 0 0 1.27,0.5 1.42,1.42 0 0 0 1.52,-1.12 h -1.58 v -0.72 z"
         id="path166"
         inkscape:connector-curvature="0"
         style="fill:#cccccc" />
      <path
         class="cls-8"
         d="m 61.52,206.76 h 0.73 v 3.5 h -0.73 v -0.5 a 1.33,1.33 0 0 1 -1.18,0.59 1.54,1.54 0 0 1 -1.19,-0.53 2,2 0 0 1 0,-2.62 1.54,1.54 0 0 1 1.19,-0.53 1.36,1.36 0 0 1 1.18,0.59 z m -1.07,2.87 a 1,1 0 0 0 0.77,-0.31 1.16,1.16 0 0 0 0.3,-0.81 1.12,1.12 0 0 0 -0.3,-0.8 1.07,1.07 0 0 0 -1.53,0 1.12,1.12 0 0 0 -0.3,0.8 1.16,1.16 0 0 0 0.3,0.81 1,1 0 0 0 0.76,0.31 z"
         id="path168"
         inkscape:connector-curvature="0"
         style="fill:#cccccc" />
      <path
         class="cls-8"
         d="m 63.13,206.09 a 0.5,0.5 0 0 1 0,-0.68 0.46,0.46 0 0 1 0.67,0 0.49,0.49 0 0 1 0,0.68 0.45,0.45 0 0 1 -0.67,0 z m 0,4.17 v -3.5 h 0.73 v 3.5 z"
         id="path170"
         inkscape:connector-curvature="0"
         style="fill:#cccccc" />
      <path
         class="cls-8"
         d="m 67.75,208.11 v 2.15 H 67 v -2.07 a 0.71,0.71 0 0 0 -0.76,-0.81 c -0.51,0 -0.85,0.33 -0.85,1 v 1.87 h -0.74 v -3.5 h 0.74 v 0.45 a 1.12,1.12 0 0 1 1,-0.54 1.29,1.29 0 0 1 1.36,1.45 z"
         id="path172"
         inkscape:connector-curvature="0"
         style="fill:#cccccc" />
      <path
         class="cls-8"
         d="m 72.3,205.36 h 0.76 v 4.9 H 72.3 v -0.5 a 1.39,1.39 0 0 1 -1.22,0.59 1.64,1.64 0 0 1 -1.24,-0.53 1.94,1.94 0 0 1 0,-2.62 1.64,1.64 0 0 1 1.24,-0.53 1.42,1.42 0 0 1 1.22,0.59 z m -1.1,4.27 a 1.08,1.08 0 0 0 0.79,-0.31 1.12,1.12 0 0 0 0.31,-0.81 1.11,1.11 0 1 0 -2.21,0 1.12,1.12 0 0 0 0.31,0.81 1.09,1.09 0 0 0 0.8,0.31 z"
         id="path174"
         inkscape:connector-curvature="0"
         style="fill:#cccccc" />
      <path
         class="cls-8"
         d="m 77.56,208.86 a 1.29,1.29 0 0 1 -0.43,1 1.44,1.44 0 0 1 -1,0.4 H 74 v -4.9 h 2 a 1.42,1.42 0 0 1 1,0.39 1.26,1.26 0 0 1 0.42,1 1.18,1.18 0 0 1 -0.5,1 1.24,1.24 0 0 1 0.64,1.11 z m -2.77,-2.74 v 1.28 h 1.15 a 0.64,0.64 0 0 0 0,-1.28 z m 1.3,3.39 a 0.69,0.69 0 0 0 0,-1.38 h -1.3 v 1.38 z"
         id="path176"
         inkscape:connector-curvature="0"
         style="fill:#cccccc" />
      <path
         class="cls-8"
         d="M 10.24,131.51 8.85,126.6 H 9.7 l 1,3.83 1.12,-3.83 h 0.74 l 1.1,3.83 1,-3.83 h 0.85 l -1.39,4.91 h -0.93 l -1,-3.58 -1.05,3.58 z"
         id="path178"
         inkscape:connector-curvature="0"
         style="fill:#cccccc" />
      <path
         class="cls-8"
         d="m 15.94,127.34 a 0.48,0.48 0 0 1 0,-0.68 0.46,0.46 0 0 1 0.68,0 0.48083261,0.48083261 0 1 1 -0.68,0.68 z m 0,4.17 V 128 h 0.76 v 3.51 z"
         id="path180"
         inkscape:connector-curvature="0"
         style="fill:#cccccc" />
      <path
         class="cls-8"
         d="M 20.2,126.6 H 21 v 4.91 H 20.2 V 131 a 1.4,1.4 0 0 1 -1.22,0.6 1.65,1.65 0 0 1 -1.24,-0.54 1.92,1.92 0 0 1 0,-2.61 1.65,1.65 0 0 1 1.24,-0.54 1.42,1.42 0 0 1 1.22,0.59 z m -1.1,4.28 a 1.09,1.09 0 0 0 0.79,-0.32 1.11,1.11 0 0 0 0.31,-0.81 1.09,1.09 0 0 0 -1.1,-1.12 1.11,1.11 0 0 0 -1.1,1.12 1.08,1.08 0 0 0 0.32,0.81 1.05,1.05 0 0 0 0.78,0.32 z"
         id="path182"
         inkscape:connector-curvature="0"
         style="fill:#cccccc" />
      <path
         class="cls-8"
         d="m 23.69,128.73 h -0.87 v 1.68 c 0,0.45 0.29,0.44 0.87,0.42 v 0.68 c -1.16,0.14 -1.63,-0.18 -1.63,-1.1 v -1.68 H 21.42 V 128 h 0.64 v -0.75 l 0.76,-0.23 v 1 h 0.87 z"
         id="path184"
         inkscape:connector-curvature="0"
         style="fill:#cccccc" />
      <path
         class="cls-8"
         d="m 27.45,129.36 v 2.15 H 26.7 v -2.08 a 0.73,0.73 0 0 0 -0.79,-0.81 c -0.53,0 -0.89,0.33 -0.89,1 v 1.88 h -0.75 v -4.9 H 25 v 1.85 a 1.21,1.21 0 0 1 1.09,-0.54 1.3,1.3 0 0 1 1.36,1.45 z"
         id="path186"
         inkscape:connector-curvature="0"
         style="fill:#cccccc" />
      <path
         class="cls-8"
         d="m 30.88,128.43 a 1.21,1.21 0 0 1 -1.64,0 1.13,1.13 0 0 1 0.82,-1.92 1.14,1.14 0 0 1 0.82,0.32 1.13,1.13 0 0 1 0.32,0.8 1.11,1.11 0 0 1 -0.32,0.8 z m -1.55,2.35 3.23,-3.59 0.37,0.22 -3.22,3.59 z m 1.23,-3.15 a 0.49,0.49 0 0 0 -0.5,-0.51 0.51,0.51 0 0 0 0,1 0.49,0.49 0 0 0 0.5,-0.49 z m 0.92,3.64 a 1.13,1.13 0 0 1 -0.32,-0.8 1.07,1.07 0 0 1 0.32,-0.79 1.18,1.18 0 0 1 1.64,0 1.08,1.08 0 0 1 0.33,0.79 1.17,1.17 0 0 1 -2,0.8 z m 1.32,-0.8 a 0.49,0.49 0 0 0 -0.5,-0.51 0.51,0.51 0 0 0 0,1 0.48,0.48 0 0 0 0.5,-0.49 z"
         id="path188"
         inkscape:connector-curvature="0"
         style="fill:#cccccc" />
      <path
         class="cls-8"
         d="m 10.24,210.06 -1.39,-4.9 H 9.7 l 1,3.83 1.12,-3.83 h 0.74 l 1.1,3.83 1,-3.83 h 0.85 l -1.39,4.9 h -0.93 l -1,-3.58 -1.05,3.58 z"
         id="path190"
         inkscape:connector-curvature="0"
         style="fill:#cccccc" />
      <path
         class="cls-8"
         d="m 15.94,205.89 a 0.46,0.46 0 0 1 0,-0.67 0.46,0.46 0 0 1 0.68,0 0.46,0.46 0 0 1 0,0.67 0.48,0.48 0 0 1 -0.68,0 z m 0,4.17 v -3.5 h 0.76 v 3.5 z"
         id="path192"
         inkscape:connector-curvature="0"
         style="fill:#cccccc" />
      <path
         class="cls-8"
         d="M 20.2,205.16 H 21 v 4.9 h -0.8 v -0.5 a 1.39,1.39 0 0 1 -1.22,0.59 1.64,1.64 0 0 1 -1.24,-0.53 1.94,1.94 0 0 1 0,-2.62 1.64,1.64 0 0 1 1.24,-0.53 1.39,1.39 0 0 1 1.22,0.59 z m -1.1,4.27 a 1.08,1.08 0 0 0 0.79,-0.31 1.12,1.12 0 0 0 0.31,-0.81 1.08,1.08 0 0 0 -1.1,-1.12 1.09,1.09 0 0 0 -1.1,1.12 1.09,1.09 0 0 0 0.32,0.81 1,1 0 0 0 0.78,0.31 z"
         id="path194"
         inkscape:connector-curvature="0"
         style="fill:#cccccc" />
      <path
         class="cls-8"
         d="M 23.69,207.29 H 22.82 V 209 c 0,0.45 0.29,0.44 0.87,0.41 v 0.68 c -1.16,0.14 -1.63,-0.17 -1.63,-1.09 v -1.68 h -0.64 v -0.73 h 0.64 v -0.76 l 0.76,-0.22 v 1 h 0.87 z"
         id="path196"
         inkscape:connector-curvature="0"
         style="fill:#cccccc" />
      <path
         class="cls-8"
         d="m 27.45,207.91 v 2.15 H 26.7 V 208 a 0.73,0.73 0 0 0 -0.79,-0.81 c -0.53,0 -0.89,0.33 -0.89,1 v 1.88 h -0.75 v -4.9 H 25 V 207 a 1.21,1.21 0 0 1 1.09,-0.54 1.29,1.29 0 0 1 1.36,1.45 z"
         id="path198"
         inkscape:connector-curvature="0"
         style="fill:#cccccc" />
      <path
         class="cls-8"
         d="m 30.88,207 a 1.15,1.15 0 0 1 -2,-0.8 1.08,1.08 0 0 1 0.33,-0.79 1.14,1.14 0 0 1 2,0.79 1.13,1.13 0 0 1 -0.33,0.8 z m -1.55,2.35 3.23,-3.59 0.37,0.21 -3.22,3.6 z m 1.23,-3.15 a 0.49,0.49 0 0 0 -0.5,-0.51 0.51,0.51 0 0 0 0,1 0.48,0.48 0 0 0 0.5,-0.5 z m 0.92,3.63 a 1.09,1.09 0 0 1 -0.32,-0.79 1.11,1.11 0 0 1 0.32,-0.8 1.18,1.18 0 0 1 1.64,0 1.12,1.12 0 0 1 0.33,0.8 1.1,1.1 0 0 1 -0.33,0.79 1.18,1.18 0 0 1 -1.64,0 z M 32.8,209 a 0.49,0.49 0 0 0 -0.5,-0.52 0.5,0.5 0 0 0 -0.5,0.52 0.49,0.49 0 0 0 0.5,0.5 0.48,0.48 0 0 0 0.5,-0.5 z"
         id="path200"
         inkscape:connector-curvature="0"
         style="fill:#cccccc" />
      <path
         class="cls-8"
         d="m 101.69,207.85 v 0.38 a 2.23,2.23 0 0 1 -2.32,2.35 2.44,2.44 0 0 1 -1.82,-0.73 2.65,2.65 0 0 1 0,-3.62 2.45,2.45 0 0 1 3.83,0.39 l -0.79,0.48 a 1.45,1.45 0 0 0 -1.27,-0.68 1.49,1.49 0 0 0 -1.12,0.46 1.62,1.62 0 0 0 -0.43,1.16 1.6,1.6 0 0 0 0.44,1.15 1.57,1.57 0 0 0 1.17,0.45 1.3,1.3 0 0 0 1.38,-0.94 h -1.44 v -0.85 z"
         id="path202"
         inkscape:connector-curvature="0"
         style="fill:#cccccc" />
      <path
         class="cls-8"
         d="m 105.56,210.48 -0.28,-0.88 h -1.89 l -0.28,0.88 h -1 l 1.66,-4.9 h 1.15 l 1.66,4.9 z m -1.87,-1.78 H 105 l -0.65,-2 z"
         id="path204"
         inkscape:connector-curvature="0"
         style="fill:#cccccc" />
      <path
         class="cls-8"
         d="m 107.37,205.58 h 0.93 v 4.9 h -0.93 z"
         id="path206"
         inkscape:connector-curvature="0"
         style="fill:#cccccc" />
      <path
         class="cls-8"
         d="m 112.25,205.58 h 0.94 v 4.9 h -0.71 l -2,-3 v 3 h -0.93 v -4.9 h 0.71 l 2,3 z"
         id="path208"
         inkscape:connector-curvature="0"
         style="fill:#cccccc" />
      <text
         class="cls-9"
         transform="translate(98.91,256.39)"
         id="text210"
         style="font-weight:700;font-size:7px;font-family:Gilroy-Bold, Gilroy;letter-spacing:0.02em;fill:#cccccc">MIX</text>
      <rect
         class="cls-10"
         x="91.980003"
         y="26.5"
         width="26.940001"
         height="11.31"
         rx="5.6500001"
         id="rect212"
         style="fill:#1a1a1a" />
      <path
         class="cls-8"
         d="m 100.62,35.08 a 2.35,2.35 0 0 1 -1.74,-0.74 2.66,2.66 0 0 1 0,-3.62 2.43,2.43 0 0 1 3.49,0 2.64,2.64 0 0 1 0,3.62 2.36,2.36 0 0 1 -1.75,0.74 z m 0,-0.95 a 1.41,1.41 0 0 0 1.09,-0.45 1.58,1.58 0 0 0 0.44,-1.15 1.61,1.61 0 0 0 -0.44,-1.16 1.53,1.53 0 0 0 -2.17,0 1.61,1.61 0 0 0 -0.44,1.16 1.58,1.58 0 0 0 0.44,1.15 1.41,1.41 0 0 0 1.08,0.45 z"
         id="path214"
         inkscape:connector-curvature="0"
         style="fill:#cccccc" />
      <path
         class="cls-8"
         d="m 104.71,34.62 a 1.61,1.61 0 0 1 -0.51,-1.24 v -3.3 h 0.93 v 3.22 a 0.88,0.88 0 0 0 1.76,0 v -3.22 h 0.93 v 3.3 a 1.61,1.61 0 0 1 -0.51,1.24 2.07,2.07 0 0 1 -2.6,0 z"
         id="path216"
         inkscape:connector-curvature="0"
         style="fill:#cccccc" />
      <path
         class="cls-8"
         d="M 112.32,30.08 V 31 h -1.27 v 4 h -0.94 v -4 h -1.27 v -0.92 z"
         id="path218"
         inkscape:connector-curvature="0"
         style="fill:#cccccc" />
    </g>
    <g
       id="Value_BGs"
       data-name="Value BGs">
      <path
         class="cls-10"
         d="M 52.63,245.19 H 77.2 a 1,1 0 0 1 1,1 v 9 a 1,1 0 0 1 -1,1 H 52.63 a 1,1 0 0 1 -1,-1 v -9 a 1,1 0 0 1 1,-1 z"
         id="path221"
         inkscape:connector-curvature="0"
         style="fill:#1a1a1a" />
      <path
         d="m 77.2,245.4 a 0.75,0.75 0 0 1 0.75,0.75 v 9 a 0.75,0.75 0 0 1 -0.75,0.76 H 52.63 a 0.76,0.76 0 0 1 -0.76,-0.76 v -9 a 0.76,0.76 0 0 1 0.76,-0.75 H 77.2 m 0,-0.43 H 52.63 a 1.18,1.18 0 0 0 -1.18,1.18 v 9 a 1.18,1.18 0 0 0 1.18,1.18 H 77.2 a 1.18,1.18 0 0 0 1.18,-1.18 v -9 A 1.18,1.18 0 0 0 77.2,245 Z"
         id="path223"
         inkscape:connector-curvature="0" />
      <path
         class="cls-10"
         d="m 9,245.19 h 24.55 a 1,1 0 0 1 1,1 v 9 a 1,1 0 0 1 -1,1 H 9 a 1,1 0 0 1 -1,-1 v -9 a 1,1 0 0 1 1,-1 z"
         id="path225"
         inkscape:connector-curvature="0"
         style="fill:#1a1a1a" />
      <path
         d="m 33.55,245.4 a 0.76,0.76 0 0 1 0.75,0.75 v 9 a 0.76,0.76 0 0 1 -0.75,0.76 H 9 a 0.76,0.76 0 0 1 -0.75,-0.76 v -9 A 0.76,0.76 0 0 1 9,245.4 h 24.55 m 0,-0.43 H 9 a 1.18,1.18 0 0 0 -1.17,1.18 v 9 A 1.18,1.18 0 0 0 9,256.31 h 24.55 a 1.18,1.18 0 0 0 1.17,-1.18 v -9 A 1.18,1.18 0 0 0 33.55,245 Z"
         id="path227"
         inkscape:connector-curvature="0" />
      <rect
         class="cls-10"
         x="28.540001"
         y="88.940002"
         width="29.32"
         height="10.89"
         rx="1.02"
         id="rect229"
         style="fill:#1a1a1a" />
      <path
         d="m 56.84,89.16 a 0.79,0.79 0 0 1 0.8,0.79 v 8.86 a 0.8,0.8 0 0 1 -0.8,0.8 H 29.56 a 0.8,0.8 0 0 1 -0.8,-0.8 V 90 a 0.79,0.79 0 0 1 0.8,-0.79 h 27.28 m 0,-0.45 H 29.56 A 1.25,1.25 0 0 0 28.32,90 v 8.86 a 1.25,1.25 0 0 0 1.24,1.24 h 27.28 a 1.25,1.25 0 0 0 1.24,-1.24 V 90 a 1.25,1.25 0 0 0 -1.24,-1.24 z"
         id="path231"
         inkscape:connector-curvature="0" />
      <rect
         class="cls-10"
         x="51.66"
         y="166.63"
         width="26.51"
         height="10.91"
         rx="0.97000003"
         id="rect233"
         style="fill:#1a1a1a" />
      <path
         d="m 77.2,166.84 a 0.75,0.75 0 0 1 0.75,0.75 v 9 a 0.75,0.75 0 0 1 -0.75,0.75 H 52.63 a 0.76,0.76 0 0 1 -0.76,-0.75 v -9 a 0.76,0.76 0 0 1 0.76,-0.75 H 77.2 m 0,-0.42 H 52.63 a 1.18,1.18 0 0 0 -1.18,1.17 v 9 a 1.18,1.18 0 0 0 1.18,1.18 H 77.2 a 1.18,1.18 0 0 0 1.18,-1.18 v -9 a 1.18,1.18 0 0 0 -1.18,-1.17 z"
         id="path235"
         inkscape:connector-curvature="0" />
      <rect
         class="cls-10"
         x="8.0100002"
         y="166.63"
         width="26.51"
         height="10.91"
         rx="0.97000003"
         id="rect237"
         style="fill:#1a1a1a" />
      <path
         d="m 33.55,166.84 a 0.76,0.76 0 0 1 0.75,0.75 v 9 a 0.76,0.76 0 0 1 -0.75,0.75 H 9 a 0.76,0.76 0 0 1 -0.75,-0.75 v -9 A 0.76,0.76 0 0 1 9,166.84 h 24.55 m 0,-0.42 H 9 a 1.18,1.18 0 0 0 -1.17,1.17 v 9 A 1.18,1.18 0 0 0 9,177.76 h 24.55 a 1.18,1.18 0 0 0 1.17,-1.18 v -9 a 1.18,1.18 0 0 0 -1.17,-1.17 z"
         id="path239"
         inkscape:connector-curvature="0" />
    </g>
    <g
       id="Arc_dots"
       data-name="Arc dots">
      <path
         class="cls-4"
         d="m 57.7,240.42 a 0.71,0.71 0 0 1 -0.26,-1 v 0 a 0.73,0.73 0 0 1 1,-0.27 v 0 a 0.72,0.72 0 0 1 0.25,1 v 0 a 0.7,0.7 0 0 1 -0.62,0.36 v 0 a 0.69,0.69 0 0 1 -0.37,-0.09 z"
         id="path242"
         inkscape:connector-curvature="0"
         style="fill:#b3b3b3" />
      <path
         class="cls-4"
         d="m 71.17,240.14 a 0.71,0.71 0 0 1 0.26,-1 v 0 a 0.72,0.72 0 0 1 1,0.26 v 0 a 0.72,0.72 0 0 1 -0.26,1 v 0 a 0.65,0.65 0 0 1 -0.36,0.1 v 0 a 0.73,0.73 0 0 1 -0.64,-0.36 z"
         id="path244"
         inkscape:connector-curvature="0"
         style="fill:#b3b3b3" />
      <path
         class="cls-11"
         d="m 54.71,238.13 v 0 a 0.72,0.72 0 0 1 0,-1 v 0 a 0.73,0.73 0 0 1 1,0 v 0 a 0.71,0.71 0 0 1 0,1 v 0 a 0.69,0.69 0 0 1 -0.51,0.21 v 0 a 0.69,0.69 0 0 1 -0.49,-0.21 z"
         id="path246"
         inkscape:connector-curvature="0"
         style="fill:#707070" />
      <path
         class="cls-11"
         d="m 74.13,238.1 a 0.71,0.71 0 0 1 0,-1 v 0 a 0.73,0.73 0 0 1 1,0 v 0 a 0.73,0.73 0 0 1 0,1 v 0 a 0.7,0.7 0 0 1 -0.51,0.21 v 0 a 0.67,0.67 0 0 1 -0.49,-0.21 z"
         id="path248"
         inkscape:connector-curvature="0"
         style="fill:#707070" />
      <path
         class="cls-11"
         d="m 52.4,235.14 a 0.71,0.71 0 0 1 0.27,-1 v 0 a 0.71,0.71 0 0 1 1,0.25 v 0 a 0.71,0.71 0 0 1 -0.26,1 v 0 a 0.78,0.78 0 0 1 -0.36,0.1 v 0 a 0.73,0.73 0 0 1 -0.65,-0.35 z"
         id="path250"
         inkscape:connector-curvature="0"
         style="fill:#707070" />
      <path
         class="cls-11"
         d="m 76.45,235.38 a 0.72,0.72 0 0 1 -0.25,-1 v 0 a 0.71,0.71 0 0 1 1,-0.27 v 0 a 0.72,0.72 0 0 1 0.25,1 v 0 a 0.7,0.7 0 0 1 -0.61,0.35 v 0 a 0.81,0.81 0 0 1 -0.39,-0.08 z"
         id="path252"
         inkscape:connector-curvature="0"
         style="fill:#707070" />
      <path
         class="cls-11"
         d="m 51,231.66 a 0.73,0.73 0 0 1 0.51,-0.88 v 0 a 0.71,0.71 0 0 1 0.87,0.51 v 0 a 0.72,0.72 0 0 1 -0.5,0.88 H 51.69 A 0.71,0.71 0 0 1 51,231.66 Z"
         id="path254"
         inkscape:connector-curvature="0"
         style="fill:#707070" />
      <path
         class="cls-11"
         d="m 78,232.14 a 0.73,0.73 0 0 1 -0.51,-0.88 v 0 a 0.71,0.71 0 0 1 0.87,-0.51 v 0 a 0.73,0.73 0 0 1 0.51,0.88 v 0 a 0.71,0.71 0 0 1 -0.69,0.54 v 0 A 0.52,0.52 0 0 1 78,232.14 Z"
         id="path256"
         inkscape:connector-curvature="0"
         style="fill:#707070" />
      <path
         class="cls-11"
         d="m 50.46,227.92 a 0.71,0.71 0 0 1 0.71,-0.71 v 0 a 0.71,0.71 0 0 1 0.72,0.71 v 0 a 0.72,0.72 0 0 1 -0.72,0.72 v 0 a 0.72,0.72 0 0 1 -0.71,-0.72 z"
         id="path258"
         inkscape:connector-curvature="0"
         style="fill:#707070" />
      <path
         class="cls-11"
         d="m 77.94,227.89 v 0 0 0 a 0.71,0.71 0 0 1 0.71,-0.72 v 0 a 0.72,0.72 0 0 1 0.72,0.72 v 0 0 0 0 0 a 0.71,0.71 0 0 1 -0.71,0.72 v 0 a 0.71,0.71 0 0 1 -0.72,-0.72 z"
         id="path260"
         inkscape:connector-curvature="0"
         style="fill:#707070" />
      <path
         class="cls-11"
         d="m 51.45,225.05 a 0.7,0.7 0 0 1 -0.51,-0.86 v 0 a 0.72,0.72 0 0 1 0.87,-0.52 v 0 a 0.74,0.74 0 0 1 0.52,0.88 v 0 a 0.74,0.74 0 0 1 -0.7,0.53 v 0 z"
         id="path262"
         inkscape:connector-curvature="0"
         style="fill:#707070" />
      <path
         class="cls-11"
         d="m 77.48,224.47 a 0.71,0.71 0 0 1 0.51,-0.87 v 0 a 0.7,0.7 0 0 1 0.87,0.5 v 0 a 0.72,0.72 0 0 1 -0.5,0.88 v 0 h -0.19 v 0 a 0.71,0.71 0 0 1 -0.69,-0.51 z"
         id="path264"
         inkscape:connector-curvature="0"
         style="fill:#707070" />
      <path
         class="cls-11"
         d="m 52.64,221.67 a 0.72,0.72 0 0 1 -0.27,-1 v 0 a 0.71,0.71 0 0 1 1,-0.27 v 0 a 0.7,0.7 0 0 1 0.26,1 v 0 a 0.7,0.7 0 0 1 -0.62,0.36 v 0 a 0.65,0.65 0 0 1 -0.37,-0.09 z"
         id="path266"
         inkscape:connector-curvature="0"
         style="fill:#707070" />
      <path
         class="cls-11"
         d="m 76.17,221.34 a 0.73,0.73 0 0 1 0.25,-1 v 0 a 0.73,0.73 0 0 1 1,0.26 v 0 a 0.71,0.71 0 0 1 -0.26,1 v 0 a 0.7,0.7 0 0 1 -0.36,0.1 v 0 a 0.72,0.72 0 0 1 -0.63,-0.36 z"
         id="path268"
         inkscape:connector-curvature="0"
         style="fill:#707070" />
      <path
         class="cls-11"
         d="m 54.67,218.7 a 0.69,0.69 0 0 1 0,-1 v 0 a 0.73,0.73 0 0 1 1,0 v 0 a 0.71,0.71 0 0 1 0,1 v 0 a 0.67,0.67 0 0 1 -0.5,0.21 v 0 a 0.66,0.66 0 0 1 -0.5,-0.21 z"
         id="path270"
         inkscape:connector-curvature="0"
         style="fill:#707070" />
      <path
         class="cls-11"
         d="m 74.09,218.65 a 0.71,0.71 0 0 1 0,-1 v 0 a 0.71,0.71 0 0 1 1,0 v 0 a 0.71,0.71 0 0 1 0,1 v 0 a 0.71,0.71 0 0 1 -0.51,0.21 v 0 a 0.7,0.7 0 0 1 -0.49,-0.21 z"
         id="path272"
         inkscape:connector-curvature="0"
         style="fill:#707070" />
      <path
         class="cls-11"
         d="m 57.4,216.37 a 0.7,0.7 0 0 1 0.25,-1 v 0 a 0.72,0.72 0 0 1 1,0.25 v 0 a 0.72,0.72 0 0 1 -0.26,1 v 0 a 0.8,0.8 0 0 1 -0.36,0.09 v 0 a 0.68,0.68 0 0 1 -0.63,-0.34 z"
         id="path274"
         inkscape:connector-curvature="0"
         style="fill:#707070" />
      <path
         class="cls-11"
         d="m 71.39,216.59 a 0.71,0.71 0 0 1 -0.27,-1 v 0 a 0.71,0.71 0 0 1 1,-0.27 v 0 a 0.7,0.7 0 0 1 0.26,1 v 0 a 0.71,0.71 0 0 1 -0.62,0.36 v 0 a 0.63,0.63 0 0 1 -0.37,-0.09 z"
         id="path276"
         inkscape:connector-curvature="0"
         style="fill:#707070" />
      <path
         class="cls-11"
         d="m 60.63,214.82 a 0.71,0.71 0 0 1 0.5,-0.88 v 0 a 0.71,0.71 0 0 1 0.88,0.5 v 0 a 0.71,0.71 0 0 1 -0.5,0.88 v 0 h -0.2 v 0 a 0.71,0.71 0 0 1 -0.68,-0.5 z"
         id="path278"
         inkscape:connector-curvature="0"
         style="fill:#707070" />
      <path
         class="cls-11"
         d="m 68.25,215.3 a 0.71,0.71 0 0 1 -0.51,-0.88 v 0 a 0.71,0.71 0 0 1 0.87,-0.51 v 0 a 0.71,0.71 0 0 1 0.51,0.87 v 0 a 0.71,0.71 0 0 1 -0.69,0.53 v 0 z"
         id="path280"
         inkscape:connector-curvature="0"
         style="fill:#707070" />
      <path
         class="cls-4"
         d="m 64.16,214.16 a 0.71,0.71 0 0 1 0.71,-0.72 v 0 a 0.71,0.71 0 0 1 0.72,0.71 v 0 a 0.72,0.72 0 0 1 -0.72,0.72 v 0 a 0.71,0.71 0 0 1 -0.71,-0.71 z"
         id="path282"
         inkscape:connector-curvature="0"
         style="fill:#b3b3b3" />
      <path
         class="cls-4"
         d="m 14.05,240.42 a 0.71,0.71 0 0 1 -0.26,-1 v 0 a 0.72,0.72 0 0 1 1,-0.27 v 0 a 0.71,0.71 0 0 1 0.26,1 v 0 a 0.7,0.7 0 0 1 -0.62,0.36 v 0 a 0.67,0.67 0 0 1 -0.38,-0.09 z"
         id="path284"
         inkscape:connector-curvature="0"
         style="fill:#b3b3b3" />
      <path
         class="cls-4"
         d="m 27.52,240.14 a 0.7,0.7 0 0 1 0.26,-1 v 0 a 0.72,0.72 0 0 1 1,0.26 v 0 a 0.73,0.73 0 0 1 -0.26,1 v 0 a 0.68,0.68 0 0 1 -0.36,0.1 v 0 a 0.72,0.72 0 0 1 -0.64,-0.36 z"
         id="path286"
         inkscape:connector-curvature="0"
         style="fill:#b3b3b3" />
      <path
         class="cls-11"
         d="m 11.05,238.13 v 0 a 0.73,0.73 0 0 1 0,-1 v 0 a 0.74,0.74 0 0 1 1,0 v 0 a 0.73,0.73 0 0 1 0,1 v 0 a 0.7,0.7 0 0 1 -0.51,0.21 v 0 a 0.73,0.73 0 0 1 -0.49,-0.21 z"
         id="path288"
         inkscape:connector-curvature="0"
         style="fill:#707070" />
      <path
         class="cls-11"
         d="m 30.47,238.1 a 0.73,0.73 0 0 1 0,-1 v 0 a 0.73,0.73 0 0 1 1,0 v 0 a 0.71,0.71 0 0 1 0,1 v 0 a 0.67,0.67 0 0 1 -0.5,0.21 v 0 a 0.7,0.7 0 0 1 -0.5,-0.21 z"
         id="path290"
         inkscape:connector-curvature="0"
         style="fill:#707070" />
      <path
         class="cls-11"
         d="m 8.75,235.14 a 0.7,0.7 0 0 1 0.26,-1 H 9 a 0.72,0.72 0 0 1 1,0.25 v 0 a 0.71,0.71 0 0 1 -0.26,1 v 0 a 0.78,0.78 0 0 1 -0.36,0.1 v 0 a 0.72,0.72 0 0 1 -0.63,-0.35 z"
         id="path292"
         inkscape:connector-curvature="0"
         style="fill:#707070" />
      <path
         class="cls-11"
         d="m 32.8,235.38 a 0.72,0.72 0 0 1 -0.26,-1 v 0 a 0.71,0.71 0 0 1 1,-0.27 v 0 a 0.72,0.72 0 0 1 0.26,1 v 0 a 0.7,0.7 0 0 1 -0.62,0.35 v 0 a 0.77,0.77 0 0 1 -0.38,-0.08 z"
         id="path294"
         inkscape:connector-curvature="0"
         style="fill:#707070" />
      <path
         class="cls-11"
         d="m 7.3,231.66 a 0.72,0.72 0 0 1 0.5,-0.88 v 0 a 0.72,0.72 0 0 1 0.88,0.51 v 0 a 0.72,0.72 0 0 1 -0.5,0.88 H 8 a 0.7,0.7 0 0 1 -0.7,-0.51 z"
         id="path296"
         inkscape:connector-curvature="0"
         style="fill:#707070" />
      <path
         class="cls-11"
         d="m 34.35,232.14 a 0.72,0.72 0 0 1 -0.5,-0.88 v 0 a 0.71,0.71 0 0 1 0.87,-0.51 v 0 a 0.73,0.73 0 0 1 0.51,0.88 v 0 a 0.72,0.72 0 0 1 -0.7,0.54 v 0 a 0.62,0.62 0 0 1 -0.18,-0.03 z"
         id="path298"
         inkscape:connector-curvature="0"
         style="fill:#707070" />
      <path
         class="cls-11"
         d="m 6.8,227.92 a 0.71,0.71 0 0 1 0.72,-0.71 v 0 a 0.7,0.7 0 0 1 0.71,0.71 v 0 a 0.71,0.71 0 0 1 -0.71,0.72 v 0 A 0.73,0.73 0 0 1 6.8,227.92 Z"
         id="path300"
         inkscape:connector-curvature="0"
         style="fill:#707070" />
      <path
         class="cls-11"
         d="m 34.29,227.89 v 0 0 0 a 0.71,0.71 0 0 1 0.7,-0.72 v 0 a 0.73,0.73 0 0 1 0.73,0.72 v 0 0 0 0 0 A 0.72,0.72 0 0 1 35,228.61 v 0 a 0.71,0.71 0 0 1 -0.71,-0.72 z"
         id="path302"
         inkscape:connector-curvature="0"
         style="fill:#707070" />
      <path
         class="cls-11"
         d="m 7.79,225.05 a 0.69,0.69 0 0 1 -0.5,-0.86 v 0 a 0.72,0.72 0 0 1 0.87,-0.52 v 0 a 0.73,0.73 0 0 1 0.51,0.88 v 0 a 0.71,0.71 0 0 1 -0.69,0.53 H 8 a 0.63,0.63 0 0 1 -0.21,-0.03 z"
         id="path304"
         inkscape:connector-curvature="0"
         style="fill:#707070" />
      <path
         class="cls-11"
         d="m 33.83,224.47 a 0.7,0.7 0 0 1 0.5,-0.87 v 0 a 0.71,0.71 0 0 1 0.88,0.5 v 0 a 0.72,0.72 0 0 1 -0.5,0.88 v 0 h -0.19 v 0 a 0.71,0.71 0 0 1 -0.69,-0.51 z"
         id="path306"
         inkscape:connector-curvature="0"
         style="fill:#707070" />
      <path
         class="cls-11"
         d="m 9,221.67 a 0.71,0.71 0 0 1 -0.27,-1 v 0 a 0.71,0.71 0 0 1 1,-0.27 v 0 a 0.71,0.71 0 0 1 0.26,1 v 0 a 0.71,0.71 0 0 1 -0.62,0.36 v 0 A 0.63,0.63 0 0 1 9,221.67 Z"
         id="path308"
         inkscape:connector-curvature="0"
         style="fill:#707070" />
      <path
         class="cls-11"
         d="m 32.51,221.34 a 0.73,0.73 0 0 1 0.26,-1 v 0 a 0.72,0.72 0 0 1 1,0.26 v 0 a 0.71,0.71 0 0 1 -0.25,1 v 0 a 0.71,0.71 0 0 1 -0.37,0.1 v 0 a 0.75,0.75 0 0 1 -0.64,-0.36 z"
         id="path310"
         inkscape:connector-curvature="0"
         style="fill:#707070" />
      <path
         class="cls-11"
         d="m 11,218.7 a 0.69,0.69 0 0 1 0,-1 v 0 a 0.73,0.73 0 0 1 1,0 v 0 a 0.73,0.73 0 0 1 0,1 v 0 a 0.7,0.7 0 0 1 -0.51,0.21 v 0 A 0.65,0.65 0 0 1 11,218.7 Z"
         id="path312"
         inkscape:connector-curvature="0"
         style="fill:#707070" />
      <path
         class="cls-11"
         d="m 30.44,218.65 a 0.71,0.71 0 0 1 0,-1 v 0 a 0.71,0.71 0 0 1 1,0 v 0 a 0.73,0.73 0 0 1 0,1 v 0 a 0.73,0.73 0 0 1 -0.51,0.21 v 0 a 0.7,0.7 0 0 1 -0.49,-0.21 z"
         id="path314"
         inkscape:connector-curvature="0"
         style="fill:#707070" />
      <path
         class="cls-11"
         d="m 13.74,216.37 a 0.7,0.7 0 0 1 0.26,-1 v 0 a 0.71,0.71 0 0 1 1,0.25 v 0 a 0.72,0.72 0 0 1 -0.25,1 v 0 a 0.81,0.81 0 0 1 -0.37,0.09 v 0 a 0.7,0.7 0 0 1 -0.64,-0.34 z"
         id="path316"
         inkscape:connector-curvature="0"
         style="fill:#707070" />
      <path
         class="cls-11"
         d="m 27.74,216.59 a 0.7,0.7 0 0 1 -0.27,-1 v 0 a 0.7,0.7 0 0 1 1,-0.27 v 0 a 0.7,0.7 0 0 1 0.27,1 v 0 a 0.71,0.71 0 0 1 -0.62,0.36 v 0 a 0.61,0.61 0 0 1 -0.38,-0.09 z"
         id="path318"
         inkscape:connector-curvature="0"
         style="fill:#707070" />
      <path
         class="cls-11"
         d="m 17,214.82 a 0.72,0.72 0 0 1 0.51,-0.88 v 0 a 0.72,0.72 0 0 1 0.88,0.5 v 0 a 0.73,0.73 0 0 1 -0.51,0.88 v 0 h -0.19 v 0 A 0.73,0.73 0 0 1 17,214.82 Z"
         id="path320"
         inkscape:connector-curvature="0"
         style="fill:#707070" />
      <path
         class="cls-11"
         d="m 24.59,215.3 a 0.71,0.71 0 0 1 -0.5,-0.88 v 0 a 0.7,0.7 0 0 1 0.86,-0.51 v 0 a 0.72,0.72 0 0 1 0.52,0.87 v 0 a 0.73,0.73 0 0 1 -0.7,0.53 v 0 z"
         id="path322"
         inkscape:connector-curvature="0"
         style="fill:#707070" />
      <path
         class="cls-11"
         d="m 20.5,214.16 a 0.72,0.72 0 0 1 0.72,-0.72 v 0 a 0.71,0.71 0 0 1 0.71,0.71 v 0 a 0.71,0.71 0 0 1 -0.71,0.72 v 0 a 0.72,0.72 0 0 1 -0.72,-0.71 z"
         id="path324"
         inkscape:connector-curvature="0"
         style="fill:#707070" />
      <path
         class="cls-4"
         d="m 57.7,161.86 a 0.7,0.7 0 0 1 -0.26,-1 v 0 a 0.72,0.72 0 0 1 1,-0.26 v 0 a 0.71,0.71 0 0 1 0.25,1 v 0 a 0.69,0.69 0 0 1 -0.62,0.35 v 0 a 0.69,0.69 0 0 1 -0.37,-0.09 z"
         id="path326"
         inkscape:connector-curvature="0"
         style="fill:#b3b3b3" />
      <path
         class="cls-4"
         d="m 71.17,161.59 a 0.71,0.71 0 0 1 0.26,-1 v 0 a 0.72,0.72 0 0 1 1,0.25 v 0 a 0.72,0.72 0 0 1 -0.26,1 v 0 a 0.65,0.65 0 0 1 -0.36,0.1 v 0 a 0.72,0.72 0 0 1 -0.64,-0.35 z"
         id="path328"
         inkscape:connector-curvature="0"
         style="fill:#b3b3b3" />
      <path
         class="cls-11"
         d="m 54.71,159.58 v 0 a 0.72,0.72 0 0 1 0,-1 v 0 a 0.71,0.71 0 0 1 1,0 v 0 a 0.71,0.71 0 0 1 0,1 v 0 a 0.73,0.73 0 0 1 -0.51,0.21 v 0 a 0.74,0.74 0 0 1 -0.49,-0.21 z"
         id="path330"
         inkscape:connector-curvature="0"
         style="fill:#707070" />
      <path
         class="cls-11"
         d="m 74.13,159.55 a 0.71,0.71 0 0 1 0,-1 v 0 a 0.71,0.71 0 0 1 1,0 v 0 a 0.73,0.73 0 0 1 0,1 v 0 a 0.75,0.75 0 0 1 -0.51,0.21 v 0 a 0.7,0.7 0 0 1 -0.49,-0.21 z"
         id="path332"
         inkscape:connector-curvature="0"
         style="fill:#707070" />
      <path
         class="cls-11"
         d="m 52.4,156.58 a 0.71,0.71 0 0 1 0.27,-1 v 0 a 0.71,0.71 0 0 1 1,0.26 v 0 a 0.7,0.7 0 0 1 -0.26,1 v 0 A 0.69,0.69 0 0 1 53,157 v 0 a 0.74,0.74 0 0 1 -0.6,-0.42 z"
         id="path334"
         inkscape:connector-curvature="0"
         style="fill:#707070" />
      <path
         class="cls-11"
         d="m 76.45,156.82 a 0.72,0.72 0 0 1 -0.25,-1 v 0 a 0.72,0.72 0 0 1 1,-0.27 v 0 a 0.72,0.72 0 0 1 0.25,1 v 0 a 0.71,0.71 0 0 1 -0.61,0.36 v 0 a 0.71,0.71 0 0 1 -0.39,-0.09 z"
         id="path336"
         inkscape:connector-curvature="0"
         style="fill:#707070" />
      <path
         class="cls-11"
         d="m 51,153.1 a 0.71,0.71 0 0 1 0.51,-0.87 v 0 a 0.7,0.7 0 0 1 0.87,0.5 v 0 a 0.72,0.72 0 0 1 -0.5,0.88 v 0 a 0.58,0.58 0 0 1 -0.19,0 v 0 A 0.71,0.71 0 0 1 51,153.1 Z"
         id="path338"
         inkscape:connector-curvature="0"
         style="fill:#707070" />
      <path
         class="cls-11"
         d="m 78,153.58 a 0.72,0.72 0 0 1 -0.51,-0.88 v 0 a 0.7,0.7 0 0 1 0.87,-0.5 v 0 a 0.72,0.72 0 0 1 0.51,0.88 v 0 a 0.71,0.71 0 0 1 -0.69,0.53 v 0 A 0.52,0.52 0 0 1 78,153.58 Z"
         id="path340"
         inkscape:connector-curvature="0"
         style="fill:#707070" />
      <path
         class="cls-11"
         d="m 50.46,149.37 a 0.71,0.71 0 0 1 0.71,-0.72 v 0 a 0.72,0.72 0 0 1 0.72,0.72 v 0 a 0.71,0.71 0 0 1 -0.72,0.71 v 0 a 0.71,0.71 0 0 1 -0.71,-0.71 z"
         id="path342"
         inkscape:connector-curvature="0"
         style="fill:#707070" />
      <path
         class="cls-11"
         d="m 77.94,149.34 v 0 -0.05 0 a 0.71,0.71 0 0 1 0.71,-0.71 v 0 a 0.71,0.71 0 0 1 0.72,0.71 v 0 0 0 0 0 A 0.71,0.71 0 0 1 78.66,150 v 0 a 0.71,0.71 0 0 1 -0.72,-0.66 z"
         id="path344"
         inkscape:connector-curvature="0"
         style="fill:#707070" />
      <path
         class="cls-11"
         d="m 51.45,146.5 a 0.71,0.71 0 0 1 -0.51,-0.87 v 0 a 0.71,0.71 0 0 1 0.87,-0.51 v 0 a 0.73,0.73 0 0 1 0.52,0.87 v 0 a 0.73,0.73 0 0 1 -0.7,0.54 v 0 a 0.57,0.57 0 0 1 -0.18,-0.03 z"
         id="path346"
         inkscape:connector-curvature="0"
         style="fill:#707070" />
      <path
         class="cls-11"
         d="M 77.48,145.92 A 0.72,0.72 0 0 1 78,145 v 0 a 0.7,0.7 0 0 1 0.87,0.5 v 0 a 0.71,0.71 0 0 1 -0.5,0.88 v 0 h -0.19 v 0 a 0.72,0.72 0 0 1 -0.7,-0.46 z"
         id="path348"
         inkscape:connector-curvature="0"
         style="fill:#707070" />
      <path
         class="cls-11"
         d="m 52.64,143.11 a 0.72,0.72 0 0 1 -0.27,-1 v 0 a 0.72,0.72 0 0 1 1,-0.27 v 0 a 0.71,0.71 0 0 1 0.26,1 v 0 a 0.7,0.7 0 0 1 -0.62,0.36 v 0 a 0.67,0.67 0 0 1 -0.37,-0.09 z"
         id="path350"
         inkscape:connector-curvature="0"
         style="fill:#707070" />
      <path
         class="cls-11"
         d="m 76.17,142.78 a 0.72,0.72 0 0 1 0.25,-1 v 0 a 0.73,0.73 0 0 1 1,0.25 v 0 a 0.72,0.72 0 0 1 -0.26,1 v 0 a 0.8,0.8 0 0 1 -0.36,0.09 v 0 a 0.7,0.7 0 0 1 -0.63,-0.34 z"
         id="path352"
         inkscape:connector-curvature="0"
         style="fill:#707070" />
      <path
         class="cls-11"
         d="m 54.67,140.15 a 0.7,0.7 0 0 1 0,-1 v 0 a 0.71,0.71 0 0 1 1,0 v 0 a 0.71,0.71 0 0 1 0,1 v 0 a 0.7,0.7 0 0 1 -0.5,0.21 v 0 a 0.69,0.69 0 0 1 -0.5,-0.21 z"
         id="path354"
         inkscape:connector-curvature="0"
         style="fill:#707070" />
      <path
         class="cls-11"
         d="m 74.09,140.09 a 0.71,0.71 0 0 1 0,-1 v 0 a 0.71,0.71 0 0 1 1,0 v 0 a 0.71,0.71 0 0 1 0,1 v 0 a 0.71,0.71 0 0 1 -0.51,0.21 v 0 a 0.7,0.7 0 0 1 -0.49,-0.21 z"
         id="path356"
         inkscape:connector-curvature="0"
         style="fill:#707070" />
      <path
         class="cls-11"
         d="m 57.4,137.81 a 0.7,0.7 0 0 1 0.25,-1 v 0 a 0.72,0.72 0 0 1 1,0.26 v 0 a 0.71,0.71 0 0 1 -0.26,1 v 0 a 0.7,0.7 0 0 1 -0.36,0.1 v 0 a 0.69,0.69 0 0 1 -0.63,-0.36 z"
         id="path358"
         inkscape:connector-curvature="0"
         style="fill:#707070" />
      <path
         class="cls-11"
         d="m 71.39,138 a 0.71,0.71 0 0 1 -0.27,-1 v 0 a 0.72,0.72 0 0 1 1,-0.27 v 0 a 0.71,0.71 0 0 1 0.26,1 v 0 a 0.73,0.73 0 0 1 -0.62,0.36 v 0 A 0.64,0.64 0 0 1 71.39,138 Z"
         id="path360"
         inkscape:connector-curvature="0"
         style="fill:#707070" />
      <path
         class="cls-11"
         d="m 60.63,136.26 a 0.72,0.72 0 0 1 0.5,-0.88 v 0 a 0.72,0.72 0 0 1 0.88,0.51 v 0 a 0.71,0.71 0 0 1 -0.5,0.87 v 0 h -0.2 v 0 a 0.71,0.71 0 0 1 -0.68,-0.5 z"
         id="path362"
         inkscape:connector-curvature="0"
         style="fill:#707070" />
      <path
         class="cls-11"
         d="m 68.25,136.75 a 0.72,0.72 0 0 1 -0.51,-0.88 v 0 a 0.73,0.73 0 0 1 0.87,-0.52 v 0 a 0.71,0.71 0 0 1 0.51,0.87 v 0 a 0.71,0.71 0 0 1 -0.69,0.53 z"
         id="path364"
         inkscape:connector-curvature="0"
         style="fill:#707070" />
      <path
         class="cls-4"
         d="m 64.16,135.6 a 0.7,0.7 0 0 1 0.71,-0.71 v 0 a 0.71,0.71 0 0 1 0.72,0.7 v 0 a 0.73,0.73 0 0 1 -0.72,0.73 v 0 a 0.72,0.72 0 0 1 -0.71,-0.72 z"
         id="path366"
         inkscape:connector-curvature="0"
         style="fill:#b3b3b3" />
      <path
         class="cls-4"
         d="m 32.18,84.06 a 1.08,1.08 0 0 1 -0.39,-1.49 v 0 a 1.1,1.1 0 0 1 1.49,-0.41 v 0 a 1.1,1.1 0 0 1 0.39,1.5 v 0 a 1.07,1.07 0 0 1 -1,0.54 v 0 a 1.12,1.12 0 0 1 -0.49,-0.14 z"
         id="path368"
         inkscape:connector-curvature="0"
         style="fill:#b3b3b3" />
      <path
         class="cls-4"
         d="m 52.76,83.63 a 1.09,1.09 0 0 1 0.39,-1.48 v 0 a 1.09,1.09 0 0 1 1.5,0.39 v 0 a 1.1,1.1 0 0 1 -0.39,1.5 v 0 a 1.11,1.11 0 0 1 -0.55,0.15 v 0 a 1.11,1.11 0 0 1 -0.95,-0.56 z"
         id="path370"
         inkscape:connector-curvature="0"
         style="fill:#b3b3b3" />
      <path
         class="cls-11"
         d="m 27.61,80.56 v 0 a 1.1,1.1 0 0 1 0,-1.56 v 0 a 1.1,1.1 0 0 1 1.54,0 v 0 a 1.09,1.09 0 0 1 0,1.55 v 0 a 1.05,1.05 0 0 1 -0.77,0.32 v 0 a 1.12,1.12 0 0 1 -0.77,-0.31 z"
         id="path372"
         inkscape:connector-curvature="0"
         style="fill:#707070" />
      <path
         class="cls-11"
         d="m 57.27,80.52 a 1.11,1.11 0 0 1 0,-1.55 v 0 a 1.11,1.11 0 0 1 1.55,0 v 0 a 1.11,1.11 0 0 1 0,1.55 v 0 a 1.08,1.08 0 0 1 -0.77,0.32 v 0 a 1.09,1.09 0 0 1 -0.78,-0.32 z"
         id="path374"
         inkscape:connector-curvature="0"
         style="fill:#707070" />
      <path
         class="cls-11"
         d="m 24.09,76 a 1.08,1.08 0 0 1 0.4,-1.49 v 0 a 1.09,1.09 0 0 1 1.49,0.4 v 0 a 1.07,1.07 0 0 1 -0.39,1.48 v 0 a 1.16,1.16 0 0 1 -0.56,0.16 v 0 A 1.1,1.1 0 0 1 24.09,76 Z"
         id="path376"
         inkscape:connector-curvature="0"
         style="fill:#707070" />
      <path
         class="cls-11"
         d="m 60.83,76.35 a 1.09,1.09 0 0 1 -0.4,-1.48 v 0 a 1.09,1.09 0 0 1 1.5,-0.41 v 0 a 1.12,1.12 0 0 1 0.4,1.5 v 0 a 1.1,1.1 0 0 1 -0.95,0.54 v 0 a 1,1 0 0 1 -0.55,-0.15 z"
         id="path378"
         inkscape:connector-curvature="0"
         style="fill:#707070" />
      <path
         class="cls-11"
         d="m 21.87,70.67 a 1.09,1.09 0 0 1 0.78,-1.34 v 0 a 1.1,1.1 0 0 1 1.34,0.78 v 0 a 1.09,1.09 0 0 1 -0.78,1.34 v 0 a 0.89,0.89 0 0 1 -0.29,0 v 0 a 1.09,1.09 0 0 1 -1.05,-0.78 z"
         id="path380"
         inkscape:connector-curvature="0"
         style="fill:#707070" />
      <path
         class="cls-11"
         d="m 63.2,71.4 a 1.09,1.09 0 0 1 -0.77,-1.34 v 0 a 1.07,1.07 0 0 1 1.33,-0.77 v 0 a 1.11,1.11 0 0 1 0.78,1.34 v 0 a 1.1,1.1 0 0 1 -1.06,0.82 v 0 A 0.92,0.92 0 0 1 63.2,71.4 Z"
         id="path382"
         inkscape:connector-curvature="0"
         style="fill:#707070" />
      <path
         class="cls-11"
         d="m 21.12,65 a 1.09,1.09 0 0 1 1.09,-1.1 v 0 A 1.08,1.08 0 0 1 23.3,65 v 0 a 1.09,1.09 0 0 1 -1.09,1.09 v 0 A 1.1,1.1 0 0 1 21.12,65 Z"
         id="path384"
         inkscape:connector-curvature="0"
         style="fill:#707070" />
      <path
         class="cls-11"
         d="m 63.1,64.92 v 0 -0.08 0 a 1.09,1.09 0 0 1 1.08,-1.09 v 0 a 1.09,1.09 0 0 1 1.1,1.09 v 0 0 0 0 0 A 1.09,1.09 0 0 1 64.19,66 v 0 A 1.09,1.09 0 0 1 63.1,64.92 Z"
         id="path386"
         inkscape:connector-curvature="0"
         style="fill:#707070" />
      <path
         class="cls-11"
         d="m 22.63,60.58 a 1.07,1.07 0 0 1 -0.77,-1.32 v 0 a 1.08,1.08 0 0 1 1.32,-0.79 v 0 A 1.11,1.11 0 0 1 24,59.81 v 0 a 1.1,1.1 0 0 1 -1.06,0.82 v 0 a 0.92,0.92 0 0 1 -0.31,-0.05 z"
         id="path388"
         inkscape:connector-curvature="0"
         style="fill:#707070" />
      <path
         class="cls-11"
         d="m 62.4,59.69 a 1.1,1.1 0 0 1 0.77,-1.34 v 0 a 1.09,1.09 0 0 1 1.34,0.78 v 0 a 1.1,1.1 0 0 1 -0.77,1.34 v 0 h -0.29 v 0 A 1.09,1.09 0 0 1 62.4,59.69 Z"
         id="path390"
         inkscape:connector-curvature="0"
         style="fill:#707070" />
      <path
         class="cls-11"
         d="M 24.45,55.41 A 1.1,1.1 0 0 1 24,53.93 v 0 a 1.09,1.09 0 0 1 1.5,-0.41 v 0 A 1.08,1.08 0 0 1 25.9,55 v 0 a 1.09,1.09 0 0 1 -1,0.56 v 0 a 1.1,1.1 0 0 1 -0.45,-0.15 z"
         id="path392"
         inkscape:connector-curvature="0"
         style="fill:#707070" />
      <path
         class="cls-11"
         d="m 60.39,54.9 a 1.1,1.1 0 0 1 0.39,-1.48 v 0 a 1.09,1.09 0 0 1 1.5,0.39 v 0 a 1.08,1.08 0 0 1 -0.39,1.49 v 0 a 1.07,1.07 0 0 1 -0.55,0.14 v 0 A 1.1,1.1 0 0 1 60.39,54.9 Z"
         id="path394"
         inkscape:connector-curvature="0"
         style="fill:#707070" />
      <path
         class="cls-11"
         d="m 27.55,50.88 a 1.08,1.08 0 0 1 0,-1.54 v 0 a 1.11,1.11 0 0 1 1.55,0 v 0 a 1.1,1.1 0 0 1 0,1.54 v 0 a 1.09,1.09 0 0 1 -0.78,0.32 v 0 a 1.07,1.07 0 0 1 -0.77,-0.32 z"
         id="path396"
         inkscape:connector-curvature="0"
         style="fill:#707070" />
      <path
         class="cls-11"
         d="m 57.22,50.8 a 1.09,1.09 0 0 1 0,-1.55 v 0 a 1.1,1.1 0 0 1 1.54,0 v 0 a 1.11,1.11 0 0 1 0,1.55 v 0 a 1.05,1.05 0 0 1 -0.77,0.32 v 0 A 1.07,1.07 0 0 1 57.22,50.8 Z"
         id="path398"
         inkscape:connector-curvature="0"
         style="fill:#707070" />
      <path
         class="cls-11"
         d="m 31.72,47.32 a 1.08,1.08 0 0 1 0.39,-1.49 v 0 a 1.1,1.1 0 0 1 1.49,0.39 v 0 a 1.09,1.09 0 0 1 -0.4,1.49 v 0 a 1.08,1.08 0 0 1 -0.55,0.15 v 0 a 1.07,1.07 0 0 1 -0.93,-0.54 z"
         id="path400"
         inkscape:connector-curvature="0"
         style="fill:#707070" />
      <path
         class="cls-11"
         d="m 53.1,47.65 a 1.07,1.07 0 0 1 -0.41,-1.48 v 0 a 1.07,1.07 0 0 1 1.48,-0.41 v 0 a 1.07,1.07 0 0 1 0.41,1.48 v 0 a 1.11,1.11 0 0 1 -0.95,0.56 v 0 A 1,1 0 0 1 53.1,47.65 Z"
         id="path402"
         inkscape:connector-curvature="0"
         style="fill:#707070" />
      <path
         class="cls-11"
         d="m 36.65,44.94 a 1.09,1.09 0 0 1 0.78,-1.34 v 0 a 1.1,1.1 0 0 1 1.34,0.77 v 0 A 1.1,1.1 0 0 1 38,45.71 v 0 a 1.43,1.43 0 0 1 -0.29,0 v 0 a 1.1,1.1 0 0 1 -1.06,-0.77 z"
         id="path404"
         inkscape:connector-curvature="0"
         style="fill:#707070" />
      <path
         class="cls-11"
         d="m 48.29,45.69 a 1.1,1.1 0 0 1 -0.77,-1.34 v 0 a 1.08,1.08 0 0 1 1.32,-0.79 v 0 a 1.1,1.1 0 0 1 0.79,1.33 v 0 a 1.1,1.1 0 0 1 -1.06,0.81 v 0 z"
         id="path406"
         inkscape:connector-curvature="0"
         style="fill:#707070" />
      <path
         class="cls-11"
         d="m 42,43.94 a 1.08,1.08 0 0 1 1.09,-1.09 v 0 a 1.08,1.08 0 0 1 1.1,1.07 v 0 A 1.11,1.11 0 0 1 43.13,45 v 0 A 1.11,1.11 0 0 1 42,43.94 Z"
         id="path408"
         inkscape:connector-curvature="0"
         style="fill:#707070" />
      <path
         class="cls-4"
         d="m 14.05,161.86 a 0.7,0.7 0 0 1 -0.26,-1 v 0 a 0.7,0.7 0 0 1 1,-0.26 v 0 a 0.71,0.71 0 0 1 0.26,1 v 0 a 0.69,0.69 0 0 1 -0.62,0.35 v 0 a 0.67,0.67 0 0 1 -0.38,-0.09 z"
         id="path410"
         inkscape:connector-curvature="0"
         style="fill:#b3b3b3" />
      <path
         class="cls-4"
         d="m 27.52,161.59 a 0.7,0.7 0 0 1 0.26,-1 v 0 a 0.72,0.72 0 0 1 1,0.25 v 0 a 0.73,0.73 0 0 1 -0.26,1 v 0 a 0.68,0.68 0 0 1 -0.36,0.1 v 0 a 0.71,0.71 0 0 1 -0.64,-0.35 z"
         id="path412"
         inkscape:connector-curvature="0"
         style="fill:#b3b3b3" />
      <path
         class="cls-11"
         d="m 11.05,159.58 v 0 a 0.73,0.73 0 0 1 0,-1 v 0 a 0.72,0.72 0 0 1 1,0 v 0 a 0.73,0.73 0 0 1 0,1 v 0 a 0.75,0.75 0 0 1 -0.51,0.21 v 0 a 0.78,0.78 0 0 1 -0.49,-0.21 z"
         id="path414"
         inkscape:connector-curvature="0"
         style="fill:#707070" />
      <path
         class="cls-11"
         d="m 30.47,159.55 a 0.73,0.73 0 0 1 0,-1 v 0 a 0.71,0.71 0 0 1 1,0 v 0 a 0.71,0.71 0 0 1 0,1 v 0 a 0.7,0.7 0 0 1 -0.5,0.21 v 0 a 0.75,0.75 0 0 1 -0.5,-0.21 z"
         id="path416"
         inkscape:connector-curvature="0"
         style="fill:#707070" />
      <path
         class="cls-11"
         d="m 8.75,156.58 a 0.7,0.7 0 0 1 0.26,-1 H 9 a 0.72,0.72 0 0 1 1,0.26 v 0 a 0.7,0.7 0 0 1 -0.26,1 v 0 a 0.69,0.69 0 0 1 -0.36,0.11 v 0 a 0.73,0.73 0 0 1 -0.63,-0.37 z"
         id="path418"
         inkscape:connector-curvature="0"
         style="fill:#707070" />
      <path
         class="cls-11"
         d="m 32.8,156.82 a 0.72,0.72 0 0 1 -0.26,-1 v 0 a 0.72,0.72 0 0 1 1,-0.27 v 0 a 0.72,0.72 0 0 1 0.26,1 v 0 a 0.71,0.71 0 0 1 -0.62,0.36 v 0 a 0.68,0.68 0 0 1 -0.38,-0.09 z"
         id="path420"
         inkscape:connector-curvature="0"
         style="fill:#707070" />
      <path
         class="cls-11"
         d="m 7.3,153.1 a 0.7,0.7 0 0 1 0.5,-0.87 v 0 a 0.71,0.71 0 0 1 0.88,0.5 v 0 a 0.72,0.72 0 0 1 -0.5,0.88 v 0 a 0.62,0.62 0 0 1 -0.19,0 H 8 A 0.71,0.71 0 0 1 7.3,153.1 Z"
         id="path422"
         inkscape:connector-curvature="0"
         style="fill:#707070" />
      <path
         class="cls-11"
         d="m 34.35,153.58 a 0.71,0.71 0 0 1 -0.5,-0.88 v 0 a 0.69,0.69 0 0 1 0.87,-0.5 v 0 a 0.72,0.72 0 0 1 0.51,0.88 v 0 a 0.73,0.73 0 0 1 -0.7,0.53 v 0 z"
         id="path424"
         inkscape:connector-curvature="0"
         style="fill:#707070" />
      <path
         class="cls-11"
         d="m 6.8,149.37 a 0.72,0.72 0 0 1 0.72,-0.72 v 0 a 0.71,0.71 0 0 1 0.71,0.72 v 0 a 0.71,0.71 0 0 1 -0.71,0.71 v 0 A 0.72,0.72 0 0 1 6.8,149.37 Z"
         id="path426"
         inkscape:connector-curvature="0"
         style="fill:#707070" />
      <path
         class="cls-11"
         d="m 34.29,149.34 v 0 -0.05 0 a 0.7,0.7 0 0 1 0.7,-0.71 v 0 a 0.72,0.72 0 0 1 0.73,0.71 v 0 0 0 0 0 A 0.72,0.72 0 0 1 35,150 v 0 a 0.71,0.71 0 0 1 -0.71,-0.66 z"
         id="path428"
         inkscape:connector-curvature="0"
         style="fill:#707070" />
      <path
         class="cls-11"
         d="m 7.79,146.5 a 0.7,0.7 0 0 1 -0.5,-0.87 v 0 a 0.7,0.7 0 0 1 0.87,-0.51 v 0 a 0.71,0.71 0 0 1 0.51,0.87 v 0 a 0.71,0.71 0 0 1 -0.69,0.54 H 8 A 0.63,0.63 0 0 1 7.79,146.5 Z"
         id="path430"
         inkscape:connector-curvature="0"
         style="fill:#707070" />
      <path
         class="cls-11"
         d="m 33.83,145.92 a 0.71,0.71 0 0 1 0.5,-0.88 v 0 a 0.71,0.71 0 0 1 0.88,0.5 v 0 a 0.71,0.71 0 0 1 -0.5,0.88 v 0 h -0.19 v 0 a 0.72,0.72 0 0 1 -0.69,-0.5 z"
         id="path432"
         inkscape:connector-curvature="0"
         style="fill:#707070" />
      <path
         class="cls-11"
         d="m 9,143.11 a 0.71,0.71 0 0 1 -0.27,-1 v 0 a 0.72,0.72 0 0 1 1,-0.27 v 0 a 0.72,0.72 0 0 1 0.26,1 v 0 a 0.71,0.71 0 0 1 -0.62,0.36 v 0 A 0.64,0.64 0 0 1 9,143.11 Z"
         id="path434"
         inkscape:connector-curvature="0"
         style="fill:#707070" />
      <path
         class="cls-11"
         d="m 32.51,142.78 a 0.73,0.73 0 0 1 0.26,-1 v 0 a 0.72,0.72 0 0 1 1,0.25 v 0 a 0.72,0.72 0 0 1 -0.25,1 v 0 a 0.81,0.81 0 0 1 -0.37,0.09 v 0 a 0.72,0.72 0 0 1 -0.64,-0.34 z"
         id="path436"
         inkscape:connector-curvature="0"
         style="fill:#707070" />
      <path
         class="cls-11"
         d="m 11,140.15 a 0.7,0.7 0 0 1 0,-1 v 0 a 0.71,0.71 0 0 1 1,0 v 0 a 0.73,0.73 0 0 1 0,1 v 0 a 0.75,0.75 0 0 1 -0.51,0.21 v 0 A 0.69,0.69 0 0 1 11,140.15 Z"
         id="path438"
         inkscape:connector-curvature="0"
         style="fill:#707070" />
      <path
         class="cls-11"
         d="m 30.44,140.09 a 0.71,0.71 0 0 1 0,-1 v 0 a 0.71,0.71 0 0 1 1,0 v 0 a 0.73,0.73 0 0 1 0,1 v 0 a 0.73,0.73 0 0 1 -0.51,0.21 v 0 a 0.7,0.7 0 0 1 -0.49,-0.21 z"
         id="path440"
         inkscape:connector-curvature="0"
         style="fill:#707070" />
      <path
         class="cls-11"
         d="m 13.74,137.81 a 0.7,0.7 0 0 1 0.26,-1 v 0 a 0.71,0.71 0 0 1 1,0.26 v 0 a 0.71,0.71 0 0 1 -0.25,1 v 0 a 0.71,0.71 0 0 1 -0.37,0.1 v 0 a 0.71,0.71 0 0 1 -0.64,-0.36 z"
         id="path442"
         inkscape:connector-curvature="0"
         style="fill:#707070" />
      <path
         class="cls-11"
         d="m 27.74,138 a 0.7,0.7 0 0 1 -0.27,-1 v 0 a 0.71,0.71 0 0 1 1,-0.27 v 0 a 0.71,0.71 0 0 1 0.27,1 v 0 a 0.73,0.73 0 0 1 -0.62,0.36 v 0 A 0.62,0.62 0 0 1 27.74,138 Z"
         id="path444"
         inkscape:connector-curvature="0"
         style="fill:#707070" />
      <path
         class="cls-11"
         d="m 17,136.26 a 0.73,0.73 0 0 1 0.51,-0.88 v 0 a 0.73,0.73 0 0 1 0.88,0.51 v 0 a 0.72,0.72 0 0 1 -0.51,0.87 v 0 h -0.19 v 0 A 0.73,0.73 0 0 1 17,136.26 Z"
         id="path446"
         inkscape:connector-curvature="0"
         style="fill:#707070" />
      <path
         class="cls-11"
         d="m 24.59,136.75 a 0.72,0.72 0 0 1 -0.5,-0.88 v 0 a 0.71,0.71 0 0 1 0.86,-0.52 v 0 a 0.72,0.72 0 0 1 0.52,0.87 v 0 a 0.73,0.73 0 0 1 -0.7,0.53 z"
         id="path448"
         inkscape:connector-curvature="0"
         style="fill:#707070" />
      <path
         class="cls-4"
         d="m 20.5,135.6 a 0.71,0.71 0 0 1 0.72,-0.71 v 0 a 0.7,0.7 0 0 1 0.71,0.7 v 0 a 0.72,0.72 0 0 1 -0.71,0.73 v 0 A 0.73,0.73 0 0 1 20.5,135.6 Z"
         id="path450"
         inkscape:connector-curvature="0"
         style="fill:#b3b3b3" />
      <path
         class="cls-11"
         d="m 98.24,199.86 a 0.72,0.72 0 0 1 -0.26,-1 v 0 a 0.72,0.72 0 0 1 1,-0.26 v 0 a 0.72,0.72 0 0 1 0.25,1 v 0 a 0.69,0.69 0 0 1 -0.62,0.35 v 0 a 0.76,0.76 0 0 1 -0.37,-0.09 z"
         id="path452"
         inkscape:connector-curvature="0"
         style="fill:#707070" />
      <path
         class="cls-11"
         d="m 111.71,199.58 a 0.7,0.7 0 0 1 0.26,-1 v 0 a 0.71,0.71 0 0 1 1,0.26 v 0 a 0.72,0.72 0 0 1 -0.26,1 v 0 a 0.77,0.77 0 0 1 -0.36,0.09 v 0 a 0.71,0.71 0 0 1 -0.64,-0.35 z"
         id="path454"
         inkscape:connector-curvature="0"
         style="fill:#707070" />
      <path
         class="cls-11"
         d="m 95.25,197.57 v 0 a 0.72,0.72 0 0 1 0,-1 v 0 a 0.71,0.71 0 0 1 1,0 v 0 a 0.73,0.73 0 0 1 0,1 v 0 a 0.75,0.75 0 0 1 -0.51,0.21 v 0 a 0.74,0.74 0 0 1 -0.49,-0.21 z"
         id="path456"
         inkscape:connector-curvature="0"
         style="fill:#707070" />
      <path
         class="cls-11"
         d="m 114.67,197.54 a 0.71,0.71 0 0 1 0,-1 v 0 a 0.71,0.71 0 0 1 1,0 v 0 a 0.73,0.73 0 0 1 0,1 v 0 a 0.75,0.75 0 0 1 -0.51,0.21 v 0 a 0.7,0.7 0 0 1 -0.49,-0.21 z"
         id="path458"
         inkscape:connector-curvature="0"
         style="fill:#707070" />
      <path
         class="cls-11"
         d="m 92.94,194.58 a 0.71,0.71 0 0 1 0.27,-1 v 0 a 0.71,0.71 0 0 1 1,0.26 v 0 a 0.7,0.7 0 0 1 -0.26,1 v 0 a 0.69,0.69 0 0 1 -0.36,0.11 v 0 a 0.74,0.74 0 0 1 -0.65,-0.37 z"
         id="path460"
         inkscape:connector-curvature="0"
         style="fill:#707070" />
      <path
         class="cls-11"
         d="m 117,194.81 a 0.72,0.72 0 0 1 -0.26,-1 v 0 a 0.73,0.73 0 0 1 1,-0.27 v 0 a 0.74,0.74 0 0 1 0.25,1 v 0 a 0.7,0.7 0 0 1 -0.62,0.35 v 0 A 0.7,0.7 0 0 1 117,194.81 Z"
         id="path462"
         inkscape:connector-curvature="0"
         style="fill:#707070" />
      <path
         class="cls-11"
         d="M 91.49,191.1 A 0.72,0.72 0 0 1 92,190.22 v 0 a 0.7,0.7 0 0 1 0.87,0.5 v 0 a 0.71,0.71 0 0 1 -0.5,0.88 v 0 a 0.62,0.62 0 0 1 -0.19,0 v 0 a 0.72,0.72 0 0 1 -0.69,-0.5 z"
         id="path464"
         inkscape:connector-curvature="0"
         style="fill:#707070" />
      <path
         class="cls-11"
         d="m 118.55,191.57 a 0.71,0.71 0 0 1 -0.51,-0.87 v 0 a 0.71,0.71 0 0 1 0.87,-0.51 v 0 a 0.73,0.73 0 0 1 0.51,0.88 v 0 a 0.71,0.71 0 0 1 -0.69,0.53 v 0 a 0.52,0.52 0 0 1 -0.18,-0.03 z"
         id="path466"
         inkscape:connector-curvature="0"
         style="fill:#707070" />
      <path
         class="cls-11"
         d="m 91,187.36 a 0.71,0.71 0 0 1 0.71,-0.72 v 0 a 0.72,0.72 0 0 1 0.72,0.72 v 0 a 0.71,0.71 0 0 1 -0.72,0.71 v 0 A 0.71,0.71 0 0 1 91,187.36 Z"
         id="path468"
         inkscape:connector-curvature="0"
         style="fill:#707070" />
      <path
         class="cls-11"
         d="m 118.48,187.33 v 0 0 0 a 0.7,0.7 0 0 1 0.7,-0.71 v 0 a 0.72,0.72 0 0 1 0.73,0.71 v 0 0 0 0 0 a 0.73,0.73 0 0 1 -0.72,0.72 v 0 a 0.71,0.71 0 0 1 -0.71,-0.72 z"
         id="path470"
         inkscape:connector-curvature="0"
         style="fill:#707070" />
      <path
         class="cls-11"
         d="m 92,184.49 a 0.71,0.71 0 0 1 -0.51,-0.87 v 0 a 0.71,0.71 0 0 1 0.87,-0.51 v 0 a 0.71,0.71 0 0 1 0.51,0.87 v 0 a 0.71,0.71 0 0 1 -0.69,0.54 v 0 A 0.52,0.52 0 0 1 92,184.49 Z"
         id="path472"
         inkscape:connector-curvature="0"
         style="fill:#707070" />
      <path
         class="cls-11"
         d="m 118,183.91 a 0.73,0.73 0 0 1 0.51,-0.88 v 0 a 0.71,0.71 0 0 1 0.87,0.51 v 0 a 0.7,0.7 0 0 1 -0.5,0.87 v 0 h -0.19 v 0 a 0.72,0.72 0 0 1 -0.69,-0.5 z"
         id="path474"
         inkscape:connector-curvature="0"
         style="fill:#707070" />
      <path
         class="cls-11"
         d="m 93.18,181.11 a 0.73,0.73 0 0 1 -0.27,-1 v 0 a 0.72,0.72 0 0 1 1,-0.26 v 0 a 0.7,0.7 0 0 1 0.26,1 v 0 a 0.7,0.7 0 0 1 -0.62,0.36 v 0 a 0.76,0.76 0 0 1 -0.37,-0.1 z"
         id="path476"
         inkscape:connector-curvature="0"
         style="fill:#707070" />
      <path
         class="cls-11"
         d="m 116.71,180.77 a 0.72,0.72 0 0 1 0.25,-1 v 0 a 0.72,0.72 0 0 1 1,0.26 v 0 a 0.71,0.71 0 0 1 -0.26,1 v 0 a 0.69,0.69 0 0 1 -0.36,0.09 v 0 a 0.7,0.7 0 0 1 -0.63,-0.35 z"
         id="path478"
         inkscape:connector-curvature="0"
         style="fill:#707070" />
      <path
         class="cls-11"
         d="m 95.21,178.14 a 0.69,0.69 0 0 1 0,-1 v 0 a 0.71,0.71 0 0 1 1,0 v 0 a 0.71,0.71 0 0 1 0,1 v 0 a 0.71,0.71 0 0 1 -0.51,0.21 v 0 a 0.69,0.69 0 0 1 -0.49,-0.21 z"
         id="path480"
         inkscape:connector-curvature="0"
         style="fill:#707070" />
      <path
         class="cls-11"
         d="m 114.63,178.08 a 0.71,0.71 0 0 1 0,-1 v 0 a 0.73,0.73 0 0 1 1,0 v 0 a 0.73,0.73 0 0 1 0,1 v 0 a 0.69,0.69 0 0 1 -0.51,0.21 v 0 a 0.67,0.67 0 0 1 -0.49,-0.21 z"
         id="path482"
         inkscape:connector-curvature="0"
         style="fill:#707070" />
      <path
         class="cls-11"
         d="m 97.94,175.81 a 0.7,0.7 0 0 1 0.25,-1 v 0 a 0.71,0.71 0 0 1 1,0.26 v 0 a 0.7,0.7 0 0 1 -0.25,1 v 0 a 0.7,0.7 0 0 1 -0.36,0.1 v 0 a 0.71,0.71 0 0 1 -0.64,-0.36 z"
         id="path484"
         inkscape:connector-curvature="0"
         style="fill:#707070" />
      <path
         class="cls-11"
         d="m 111.93,176 a 0.71,0.71 0 0 1 -0.27,-1 v 0 a 0.71,0.71 0 0 1 1,-0.26 v 0 a 0.7,0.7 0 0 1 0.26,1 v 0 a 0.71,0.71 0 0 1 -0.62,0.36 v 0 a 0.62,0.62 0 0 1 -0.37,-0.1 z"
         id="path486"
         inkscape:connector-curvature="0"
         style="fill:#707070" />
      <path
         class="cls-11"
         d="m 101.17,174.25 a 0.72,0.72 0 0 1 0.5,-0.88 v 0 a 0.73,0.73 0 0 1 0.88,0.51 v 0 a 0.73,0.73 0 0 1 -0.51,0.88 v 0 h -0.19 v 0 a 0.7,0.7 0 0 1 -0.68,-0.51 z"
         id="path488"
         inkscape:connector-curvature="0"
         style="fill:#707070" />
      <path
         class="cls-11"
         d="m 108.78,174.74 a 0.72,0.72 0 0 1 -0.5,-0.88 v 0 a 0.71,0.71 0 0 1 0.87,-0.51 v 0 a 0.7,0.7 0 0 1 0.51,0.86 v 0 a 0.72,0.72 0 0 1 -0.7,0.54 v 0 z"
         id="path490"
         inkscape:connector-curvature="0"
         style="fill:#707070" />
      <path
         class="cls-4"
         d="m 104.69,173.59 a 0.71,0.71 0 0 1 0.72,-0.71 v 0 a 0.7,0.7 0 0 1 0.71,0.7 v 0 a 0.72,0.72 0 0 1 -0.71,0.73 v 0 a 0.73,0.73 0 0 1 -0.72,-0.72 z"
         id="path492"
         inkscape:connector-curvature="0"
         style="fill:#b3b3b3" />
      <path
         class="cls-4"
         d="m 98.24,246 a 0.72,0.72 0 0 1 -0.26,-1 v 0 a 0.72,0.72 0 0 1 1,-0.26 v 0 a 0.72,0.72 0 0 1 0.25,1 v 0 a 0.69,0.69 0 0 1 -0.62,0.35 v 0 A 0.76,0.76 0 0 1 98.24,246 Z"
         id="path494"
         inkscape:connector-curvature="0"
         style="fill:#b3b3b3" />
      <path
         class="cls-4"
         d="m 111.71,245.67 a 0.7,0.7 0 0 1 0.26,-1 v 0 a 0.71,0.71 0 0 1 1,0.26 v 0 a 0.72,0.72 0 0 1 -0.26,1 v 0 a 0.77,0.77 0 0 1 -0.36,0.09 v 0 a 0.71,0.71 0 0 1 -0.64,-0.35 z"
         id="path496"
         inkscape:connector-curvature="0"
         style="fill:#b3b3b3" />
      <path
         class="cls-11"
         d="m 95.25,243.66 v 0 a 0.72,0.72 0 0 1 0,-1 v 0 a 0.71,0.71 0 0 1 1,0 v 0 a 0.73,0.73 0 0 1 0,1 v 0 a 0.75,0.75 0 0 1 -0.51,0.21 v 0 a 0.74,0.74 0 0 1 -0.49,-0.21 z"
         id="path498"
         inkscape:connector-curvature="0"
         style="fill:#707070" />
      <path
         class="cls-11"
         d="m 114.67,243.63 a 0.71,0.71 0 0 1 0,-1 v 0 a 0.71,0.71 0 0 1 1,0 v 0 a 0.73,0.73 0 0 1 0,1 v 0 a 0.75,0.75 0 0 1 -0.51,0.21 v 0 a 0.7,0.7 0 0 1 -0.49,-0.21 z"
         id="path500"
         inkscape:connector-curvature="0"
         style="fill:#707070" />
      <path
         class="cls-11"
         d="m 92.94,240.67 a 0.71,0.71 0 0 1 0.27,-1 v 0 a 0.71,0.71 0 0 1 1,0.26 v 0 a 0.7,0.7 0 0 1 -0.26,1 v 0 a 0.69,0.69 0 0 1 -0.36,0.11 v 0 a 0.74,0.74 0 0 1 -0.65,-0.37 z"
         id="path502"
         inkscape:connector-curvature="0"
         style="fill:#707070" />
      <path
         class="cls-11"
         d="m 117,240.9 a 0.72,0.72 0 0 1 -0.26,-1 v 0 a 0.73,0.73 0 0 1 1,-0.27 v 0 a 0.73,0.73 0 0 1 0.25,1 v 0 a 0.7,0.7 0 0 1 -0.62,0.35 v 0 A 0.7,0.7 0 0 1 117,240.9 Z"
         id="path504"
         inkscape:connector-curvature="0"
         style="fill:#707070" />
      <path
         class="cls-11"
         d="M 91.49,237.19 A 0.71,0.71 0 0 1 92,236.31 v 0 a 0.7,0.7 0 0 1 0.87,0.5 v 0 a 0.71,0.71 0 0 1 -0.5,0.88 v 0 a 0.62,0.62 0 0 1 -0.19,0 v 0 a 0.72,0.72 0 0 1 -0.69,-0.5 z"
         id="path506"
         inkscape:connector-curvature="0"
         style="fill:#707070" />
      <path
         class="cls-11"
         d="m 118.55,237.66 a 0.71,0.71 0 0 1 -0.51,-0.87 v 0 a 0.71,0.71 0 0 1 0.87,-0.51 v 0 a 0.73,0.73 0 0 1 0.51,0.88 v 0 a 0.71,0.71 0 0 1 -0.69,0.53 v 0 a 0.52,0.52 0 0 1 -0.18,-0.03 z"
         id="path508"
         inkscape:connector-curvature="0"
         style="fill:#707070" />
      <path
         class="cls-11"
         d="m 91,233.45 a 0.71,0.71 0 0 1 0.71,-0.72 v 0 a 0.72,0.72 0 0 1 0.72,0.72 v 0 a 0.71,0.71 0 0 1 -0.72,0.71 v 0 A 0.71,0.71 0 0 1 91,233.45 Z"
         id="path510"
         inkscape:connector-curvature="0"
         style="fill:#707070" />
      <path
         class="cls-11"
         d="m 118.48,233.42 v 0 0 0 a 0.7,0.7 0 0 1 0.7,-0.71 v 0 a 0.72,0.72 0 0 1 0.73,0.71 v 0 0 0 0 0 a 0.73,0.73 0 0 1 -0.72,0.72 v 0 a 0.71,0.71 0 0 1 -0.71,-0.72 z"
         id="path512"
         inkscape:connector-curvature="0"
         style="fill:#707070" />
      <path
         class="cls-11"
         d="m 92,230.58 a 0.71,0.71 0 0 1 -0.51,-0.87 v 0 a 0.71,0.71 0 0 1 0.87,-0.51 v 0 a 0.71,0.71 0 0 1 0.51,0.87 v 0 a 0.71,0.71 0 0 1 -0.69,0.54 v 0 A 0.52,0.52 0 0 1 92,230.58 Z"
         id="path514"
         inkscape:connector-curvature="0"
         style="fill:#707070" />
      <path
         class="cls-11"
         d="m 118,230 a 0.73,0.73 0 0 1 0.51,-0.88 v 0 a 0.71,0.71 0 0 1 0.87,0.51 v 0 a 0.7,0.7 0 0 1 -0.5,0.87 v 0 h -0.19 v 0 A 0.72,0.72 0 0 1 118,230 Z"
         id="path516"
         inkscape:connector-curvature="0"
         style="fill:#707070" />
      <path
         class="cls-11"
         d="m 93.18,227.2 a 0.73,0.73 0 0 1 -0.27,-1 v 0 a 0.72,0.72 0 0 1 1,-0.26 v 0 a 0.7,0.7 0 0 1 0.26,1 v 0 a 0.7,0.7 0 0 1 -0.62,0.36 v 0 a 0.76,0.76 0 0 1 -0.37,-0.1 z"
         id="path518"
         inkscape:connector-curvature="0"
         style="fill:#707070" />
      <path
         class="cls-11"
         d="m 116.71,226.86 a 0.72,0.72 0 0 1 0.25,-1 v 0 a 0.72,0.72 0 0 1 1,0.26 v 0 a 0.71,0.71 0 0 1 -0.26,1 v 0 a 0.69,0.69 0 0 1 -0.36,0.09 v 0 a 0.7,0.7 0 0 1 -0.63,-0.35 z"
         id="path520"
         inkscape:connector-curvature="0"
         style="fill:#707070" />
      <path
         class="cls-11"
         d="m 95.21,224.23 a 0.69,0.69 0 0 1 0,-1 v 0 a 0.71,0.71 0 0 1 1,0 v 0 a 0.71,0.71 0 0 1 0,1 v 0 a 0.71,0.71 0 0 1 -0.51,0.21 v 0 a 0.69,0.69 0 0 1 -0.49,-0.21 z"
         id="path522"
         inkscape:connector-curvature="0"
         style="fill:#707070" />
      <path
         class="cls-11"
         d="m 114.63,224.17 a 0.71,0.71 0 0 1 0,-1 v 0 a 0.73,0.73 0 0 1 1,0 v 0 a 0.73,0.73 0 0 1 0,1 v 0 a 0.69,0.69 0 0 1 -0.51,0.21 v 0 a 0.67,0.67 0 0 1 -0.49,-0.21 z"
         id="path524"
         inkscape:connector-curvature="0"
         style="fill:#707070" />
      <path
         class="cls-11"
         d="m 97.94,221.9 a 0.7,0.7 0 0 1 0.25,-1 v 0 a 0.71,0.71 0 0 1 1,0.26 v 0 a 0.7,0.7 0 0 1 -0.25,1 v 0 a 0.7,0.7 0 0 1 -0.36,0.1 v 0 a 0.71,0.71 0 0 1 -0.64,-0.36 z"
         id="path526"
         inkscape:connector-curvature="0"
         style="fill:#707070" />
      <path
         class="cls-11"
         d="m 111.93,222.11 a 0.71,0.71 0 0 1 -0.27,-1 v 0 a 0.72,0.72 0 0 1 1,-0.27 v 0 a 0.72,0.72 0 0 1 0.26,1 v 0 a 0.71,0.71 0 0 1 -0.62,0.36 v 0 a 0.62,0.62 0 0 1 -0.37,-0.09 z"
         id="path528"
         inkscape:connector-curvature="0"
         style="fill:#707070" />
      <path
         class="cls-11"
         d="m 101.17,220.34 a 0.72,0.72 0 0 1 0.5,-0.88 v 0 a 0.73,0.73 0 0 1 0.88,0.51 v 0 a 0.73,0.73 0 0 1 -0.51,0.88 v 0 h -0.19 v 0 a 0.7,0.7 0 0 1 -0.68,-0.51 z"
         id="path530"
         inkscape:connector-curvature="0"
         style="fill:#707070" />
      <path
         class="cls-11"
         d="m 108.78,220.83 a 0.72,0.72 0 0 1 -0.5,-0.88 v 0 a 0.71,0.71 0 0 1 0.87,-0.51 v 0 a 0.7,0.7 0 0 1 0.51,0.86 v 0 a 0.72,0.72 0 0 1 -0.7,0.54 v 0 z"
         id="path532"
         inkscape:connector-curvature="0"
         style="fill:#707070" />
      <path
         class="cls-11"
         d="m 104.69,219.68 a 0.71,0.71 0 0 1 0.72,-0.71 v 0 a 0.7,0.7 0 0 1 0.71,0.7 v 0 a 0.72,0.72 0 0 1 -0.71,0.73 v 0 a 0.73,0.73 0 0 1 -0.72,-0.72 z"
         id="path534"
         inkscape:connector-curvature="0"
         style="fill:#707070" />
    </g>
    <g
       id="Freq_Knob"
       data-name="Freq Knob">
      <circle
         id="path5084"
         class="cls-12"
         cx="43.200001"
         cy="65.139999"
         r="17.719999"
         style="fill:url(#linear-gradient-2)" />
      <circle
         id="path5086"
         class="cls-13"
         cx="43.200001"
         cy="65.139999"
         r="15.63"
         style="fill:url(#linear-gradient-3)" />
      <circle
         id="path5084-2"
         data-name="path5084"
         class="cls-14"
         cx="43.200001"
         cy="63.75"
         r="16.33"
         style="fill:none" />
    </g>
    <g
       id="VUs">
      <g
         id="g2224">
        <rect
           id="rect2220"
           class="cls-6"
           x="101.48"
           y="46.349998"
           width="3.4000001"
           height="119.91"
           style="fill:#121212" />
        <rect
           id="rect2222"
           class="cls-6"
           x="106.01"
           y="46.349998"
           width="3.4000001"
           height="119.91"
           style="fill:#121212" />
      </g>
      <path
         id="path4304"
         class="cls-15"
         d="m 101.48,71.31 h 7.93"
         inkscape:connector-curvature="0"
         style="fill:none;stroke:#353535;stroke-width:0.85000002px" />
      <path
         id="path4288"
         class="cls-16"
         d="m 109.88,166.05 h 2.7"
         inkscape:connector-curvature="0"
         style="fill:none;stroke:#ffffff;stroke-width:0.28px" />
      <path
         id="path4298"
         class="cls-16"
         d="m 109.88,128.63 h 2.72"
         inkscape:connector-curvature="0"
         style="fill:none;stroke:#ffffff;stroke-width:0.28px" />
      <path
         id="path4300"
         class="cls-16"
         d="m 109.88,106.63 h 2.72"
         inkscape:connector-curvature="0"
         style="fill:none;stroke:#ffffff;stroke-width:0.28px" />
      <path
         id="path4302"
         class="cls-16"
         d="m 109.88,91.18 h 2.72"
         inkscape:connector-curvature="0"
         style="fill:none;stroke:#ffffff;stroke-width:0.28px" />
      <path
         id="path4304-2"
         data-name="path4304"
         class="cls-17"
         d="m 109.88,71.74 h 2.72"
         inkscape:connector-curvature="0"
         style="fill:none;stroke:#ffffff;stroke-width:0.28px" />
      <path
         id="path4306"
         class="cls-16"
         d="m 109.88,46.54 h 2.72"
         inkscape:connector-curvature="0"
         style="fill:none;stroke:#ffffff;stroke-width:0.28px" />
      <path
         id="path4288-2"
         data-name="path4288"
         class="cls-16"
         d="M 98.29,166.05 H 101"
         inkscape:connector-curvature="0"
         style="fill:none;stroke:#ffffff;stroke-width:0.28px" />
      <path
         id="path4298-2"
         data-name="path4298"
         class="cls-16"
         d="M 98.29,128.63 H 101"
         inkscape:connector-curvature="0"
         style="fill:none;stroke:#ffffff;stroke-width:0.28px" />
      <path
         id="path4300-2"
         data-name="path4300"
         class="cls-16"
         d="M 98.29,106.63 H 101"
         inkscape:connector-curvature="0"
         style="fill:none;stroke:#ffffff;stroke-width:0.28px" />
      <path
         id="path4302-2"
         data-name="path4302"
         class="cls-16"
         d="M 98.29,91.18 H 101"
         inkscape:connector-curvature="0"
         style="fill:none;stroke:#ffffff;stroke-width:0.28px" />
      <path
         id="path4304-3"
         data-name="path4304"
         class="cls-17"
         d="M 98.29,71.74 H 101"
         inkscape:connector-curvature="0"
         style="fill:none;stroke:#ffffff;stroke-width:0.28px" />
      <path
         id="path4306-2"
         data-name="path4306"
         class="cls-16"
         d="M 98.29,46.54 H 101"
         inkscape:connector-curvature="0"
         style="fill:none;stroke:#ffffff;stroke-width:0.28px" />
      <path
         id="path4306-3"
         data-name="path4306"
         class="cls-16"
         d="m 109.88,59.32 h 2.72"
         inkscape:connector-curvature="0"
         style="fill:none;stroke:#ffffff;stroke-width:0.28px" />
      <path
         id="path4306-4"
         data-name="path4306"
         class="cls-16"
         d="M 98.29,59.32 H 101"
         inkscape:connector-curvature="0"
         style="fill:none;stroke:#ffffff;stroke-width:0.28px" />
      <path
         id="path4306-5"
         data-name="path4306"
         class="cls-16"
         d="m 109.88,82 h 2.72"
         inkscape:connector-curvature="0"
         style="fill:none;stroke:#ffffff;stroke-width:0.28px" />
      <path
         id="path4306-6"
         data-name="path4306"
         class="cls-16"
         d="M 98.29,82 H 101"
         inkscape:connector-curvature="0"
         style="fill:none;stroke:#ffffff;stroke-width:0.28px" />
      <g
         id="g961">
        <path
           id="path959"
           class="cls-7"
           d="m 96.18,46.28 a 1,1 0 0 1 0.33,0.81 1.07,1.07 0 0 1 -0.33,0.81 1.24,1.24 0 0 1 -1.66,0 1.06,1.06 0 0 1 -0.32,-0.81 1.12,1.12 0 0 1 0.2,-0.68 L 95.48,44.8 H 96 L 95.19,46 h 0.16 a 1.09,1.09 0 0 1 0.83,0.32 z m -1.54,0.81 a 0.67,0.67 0 0 0 0.71,0.7 0.7,0.7 0 1 0 0,-1.4 0.66,0.66 0 0 0 -0.71,0.7 z"
           inkscape:connector-curvature="0"
           style="fill:#ffffff" />
      </g>
      <g
         id="g965">
        <path
           id="path963"
           class="cls-7"
           d="m 95.3,73.45 a 1.13,1.13 0 0 1 -1,-0.47 2.2,2.2 0 0 1 -0.3,-1.27 2.16,2.16 0 0 1 0.34,-1.26 1.19,1.19 0 0 1 1.91,0 2.16,2.16 0 0 1 0.34,1.26 2.2,2.2 0 0 1 -0.34,1.29 1.13,1.13 0 0 1 -0.95,0.45 z m 0,-0.43 c 0.54,0 0.85,-0.48 0.85,-1.31 0,-0.83 -0.31,-1.31 -0.85,-1.31 -0.54,0 -0.85,0.47 -0.85,1.31 0,0.84 0.3,1.29 0.85,1.29 z"
           inkscape:connector-curvature="0"
           style="fill:#ffffff" />
      </g>
      <g
         id="g969">
        <path
           id="path967"
           class="cls-7"
           d="m 96.26,90.9 a 1.16,1.16 0 0 1 0,1.62 1.24,1.24 0 0 1 -1.66,0 A 1.2,1.2 0 0 1 94.48,91 l 1.08,-1.62 h 0.5 l -0.79,1.17 h 0.16 a 1.13,1.13 0 0 1 0.83,0.32 z m -1.54,0.81 a 0.67,0.67 0 0 0 0.71,0.7 0.7,0.7 0 1 0 0,-1.4 0.67,0.67 0 0 0 -0.71,0.7 z"
           inkscape:connector-curvature="0"
           style="fill:#ffffff" />
      </g>
      <g
         id="g975">
        <path
           id="path971"
           class="cls-7"
           d="m 93.44,104.93 h 0.38 v 3.35 h -0.44 v -2.87 l -0.71,0.21 -0.11,-0.38 z"
           inkscape:connector-curvature="0"
           style="fill:#ffffff" />
        <path
           id="path973"
           class="cls-7"
           d="m 94.37,108.28 v -0.36 l 1.18,-1.21 a 1.29,1.29 0 0 0 0.48,-0.81 0.57,0.57 0 0 0 -0.6,-0.6 0.73,0.73 0 0 0 -0.69,0.45 l -0.37,-0.22 a 1.12,1.12 0 0 1 1.06,-0.66 1,1 0 0 1 0.73,0.28 0.92,0.92 0 0 1 0.31,0.74 1.67,1.67 0 0 1 -0.6,1.11 l -0.85,0.85 h 1.51 v 0.43 z"
           inkscape:connector-curvature="0"
           style="fill:#ffffff" />
      </g>
      <g
         id="g981">
        <path
           id="path977"
           class="cls-7"
           d="m 91.67,130.23 v -0.36 l 1.19,-1.21 a 1.33,1.33 0 0 0 0.47,-0.81 0.56,0.56 0 0 0 -0.59,-0.6 0.7,0.7 0 0 0 -0.69,0.45 l -0.38,-0.22 a 1.14,1.14 0 0 1 1.06,-0.66 1.09,1.09 0 0 1 0.74,0.27 1,1 0 0 1 0.31,0.75 1.67,1.67 0 0 1 -0.6,1.11 l -0.86,0.85 h 1.52 v 0.43 z"
           inkscape:connector-curvature="0"
           style="fill:#ffffff" />
        <path
           id="path979"
           class="cls-7"
           d="m 96.62,129.18 v 0.41 h -0.41 v 0.64 h -0.44 v -0.64 h -1.71 v -0.41 l 1.2,-2.3 h 0.48 l -1.2,2.3 h 1.23 v -1 h 0.44 v 1 z"
           inkscape:connector-curvature="0"
           style="fill:#ffffff" />
      </g>
      <path
         id="path4294"
         class="cls-16"
         d="m 109.88,151.28 h 2.72"
         inkscape:connector-curvature="0"
         style="fill:none;stroke:#ffffff;stroke-width:0.28px" />
      <path
         id="path4294-2"
         data-name="path4294"
         class="cls-16"
         d="M 98.29,151.28 H 101"
         inkscape:connector-curvature="0"
         style="fill:none;stroke:#ffffff;stroke-width:0.28px" />
      <g
         id="g987">
        <path
           id="path983"
           class="cls-7"
           d="m 94,151.77 v 0.42 h -0.41 v 0.64 h -0.45 v -0.64 h -1.76 v -0.42 l 1.21,-2.3 h 0.47 l -1.2,2.3 h 1.23 v -0.94 h 0.45 v 0.94 z"
           inkscape:connector-curvature="0"
           style="fill:#ffffff" />
        <path
           id="path985"
           class="cls-7"
           d="m 96.54,151.91 a 0.89,0.89 0 0 1 -0.32,0.72 1.45,1.45 0 0 1 -1.66,0 0.89,0.89 0 0 1 -0.32,-0.72 0.91,0.91 0 0 1 0.53,-0.82 0.8,0.8 0 0 1 -0.42,-0.73 0.86,0.86 0 0 1 0.31,-0.7 1.1,1.1 0 0 1 0.73,-0.25 1.08,1.08 0 0 1 0.73,0.25 0.83,0.83 0 0 1 0.31,0.7 0.81,0.81 0 0 1 -0.41,0.73 0.91,0.91 0 0 1 0.52,0.82 z m -0.44,0 c 0,-0.37 -0.28,-0.58 -0.71,-0.58 -0.43,0 -0.7,0.21 -0.7,0.58 0,0.37 0.28,0.58 0.7,0.58 0.42,0 0.71,-0.23 0.71,-0.61 z m -1.31,-1.51 a 0.55,0.55 0 0 0 0.6,0.54 0.54,0.54 0 0 0 0.59,-0.54 0.52,0.52 0 0 0 -0.59,-0.53 0.53,0.53 0 0 0 -0.6,0.5 z"
           inkscape:connector-curvature="0"
           style="fill:#ffffff" />
      </g>
      <path
         class="cls-7"
         d="m 95.66,59 a 1,1 0 0 1 0.87,1 0.94,0.94 0 0 1 -0.33,0.77 1.24,1.24 0 0 1 -0.82,0.29 1.11,1.11 0 0 1 -1.1,-0.68 l 0.37,-0.23 a 0.67,0.67 0 0 0 0.73,0.47 0.63,0.63 0 1 0 0,-1.24 h -0.11 l -0.18,-0.27 0.78,-1.05 h -1.49 v -0.42 h 2 V 58 Z"
         id="path578"
         inkscape:connector-curvature="0"
         style="fill:#ffffff" />
      <path
         class="cls-7"
         d="m 95.66,81.78 a 1,1 0 0 1 0.87,1 1,1 0 0 1 -0.33,0.77 1.24,1.24 0 0 1 -0.82,0.28 1.11,1.11 0 0 1 -1.1,-0.68 l 0.37,-0.22 a 0.68,0.68 0 0 0 0.73,0.47 0.63,0.63 0 0 0 0.71,-0.62 0.63,0.63 0 0 0 -0.71,-0.63 h -0.11 l -0.18,-0.27 0.78,-1.05 h -1.49 v -0.41 h 2 v 0.39 z"
         id="path580"
         inkscape:connector-curvature="0"
         style="fill:#ffffff" />
    </g>
  </g>
</svg>
