<?xml version="1.0" encoding="UTF-8" standalone="no"?>
<svg
   xmlns:dc="http://purl.org/dc/elements/1.1/"
   xmlns:cc="http://creativecommons.org/ns#"
   xmlns:rdf="http://www.w3.org/1999/02/22-rdf-syntax-ns#"
   xmlns:svg="http://www.w3.org/2000/svg"
   xmlns="http://www.w3.org/2000/svg"
   xmlns:sodipodi="http://sodipodi.sourceforge.net/DTD/sodipodi-0.dtd"
   xmlns:inkscape="http://www.inkscape.org/namespaces/inkscape"
   inkscape:version="0.92.2 (5c3e80d, 2017-08-06)"
   height="128.5mm"
   width="30.48mm"
   sodipodi:docname="BassMaster.svg"
   id="svg436"
   version="1.1"
   viewBox="0 0 115.2 485.66928">
  <metadata
     id="metadata440">
    <rdf:RDF>
      <cc:Work
         rdf:about="">
        <dc:format>image/svg+xml</dc:format>
        <dc:type
           rdf:resource="http://purl.org/dc/dcmitype/StillImage" />
        <dc:title />
      </cc:Work>
    </rdf:RDF>
  </metadata>
  <sodipodi:namedview
     inkscape:current-layer="svg436"
     inkscape:window-maximized="0"
     inkscape:window-y="73"
     inkscape:window-x="296"
     inkscape:cy="416.8058"
     inkscape:cx="-22.748041"
     inkscape:zoom="2.7673301"
     inkscape:document-units="mm"
     units="mm"
     showgrid="false"
     id="namedview438"
     inkscape:window-height="768"
     inkscape:window-width="1366"
     inkscape:pageshadow="2"
     inkscape:pageopacity="0"
     guidetolerance="10"
     gridtolerance="10"
     objecttolerance="10"
     borderopacity="1"
     bordercolor="#666666"
     pagecolor="#ffffff" />
  <defs
     id="defs27">
    <style
       id="style10">.cls-1{fill:#353535;}.cls-2{fill:url(#linear-gradient);}.cls-3{fill:gray;}.cls-4{fill:#b3b3b3;}.cls-5{fill:#424242;}.cls-6{fill:#121212;}.cls-7{fill:#fff;}.cls-8{fill:#ccc;}.cls-9{fill:#1a1a1a;}.cls-10{fill:#707070;}.cls-11{fill:url(#linear-gradient-2);}.cls-12{fill:url(#linear-gradient-3);}.cls-13{fill:none;}</style>
    <linearGradient
       gradientUnits="userSpaceOnUse"
       y2="349.56"
       x2="41.189999"
       y1="349.56"
       x1="21.34"
       id="linear-gradient">
      <stop
         id="stop12"
         stop-color="#3fa9f5"
         offset="0" />
      <stop
         id="stop14"
         stop-color="#ed1e79"
         offset="1" />
    </linearGradient>
    <linearGradient
       gradientUnits="userSpaceOnUse"
       y2="80.07"
       x2="43.200001"
       y1="47.419998"
       x1="43.200001"
       id="linear-gradient-2">
      <stop
         id="stop17"
         stop-color="#b3b3b3"
         offset="0" />
      <stop
         id="stop19"
         offset="1" />
    </linearGradient>
    <linearGradient
       gradientUnits="userSpaceOnUse"
       y2="78.150002"
       x2="43.200001"
       y1="49.34"
       x1="43.200001"
       id="linear-gradient-3">
      <stop
         id="stop22"
         stop-color="#e6e6e6"
         offset="0" />
      <stop
         id="stop24"
         stop-color="#999"
         offset="1" />
    </linearGradient>
  </defs>
  <g
     id="Background"
     transform="scale(1.3333333)">
    <g
       id="background-2"
       data-name="background">
      <path
         style="fill:#353535"
         inkscape:connector-curvature="0"
         id="rect4155"
         class="cls-1"
         d="M 0,0 H 86.4 V 364.25 H 0 Z" />
    </g>
  </g>
  <g
     id="branding"
     transform="scale(1.3333333)">
    <path
       inkscape:connector-curvature="0"
       class="cls-2"
       d="m 21.86,355.74 a 0.45,0.45 0 0 1 -0.25,-0.07 0.51,0.51 0 0 1 -0.2,-0.7 l 6.27,-11.32 a 0.51,0.51 0 0 1 0.58,-0.25 0.51,0.51 0 0 1 0.39,0.5 v 9.33 l 5.3,-9.58 a 0.52,0.52 0 0 1 1,0.25 v 9.33 l 5.31,-9.58 a 0.51,0.51 0 0 1 0.58,-0.25 0.52,0.52 0 0 1 0.38,0.5 v 11.32 a 0.52,0.52 0 1 1 -1,0 v -9.33 l -5.31,9.58 a 0.5,0.5 0 0 1 -0.57,0.25 0.51,0.51 0 0 1 -0.39,-0.5 v -9.33 l -5.31,9.58 a 0.5153882,0.5153882 0 0 1 -1,-0.25 v -9.33 l -5.31,9.58 a 0.53,0.53 0 0 1 -0.47,0.27 z"
       id="path32"
       style="fill:url(#linear-gradient)" />
    <path
       style="fill:#808080"
       inkscape:connector-curvature="0"
       class="cls-3"
       d="m 43.68,343.9 a 0.5,0.5 0 0 1 0.51,-0.5 h 0.1 a 0.51,0.51 0 0 1 0.46,0.26 l 1.72,2.68 1.72,-2.69 a 0.5,0.5 0 0 1 0.46,-0.25 h 0.1 a 0.5,0.5 0 0 1 0.5,0.5 v 4.72 a 0.5,0.5 0 0 1 -1,0 v -3.39 l -1.39,2.08 a 0.46,0.46 0 0 1 -0.83,0 l -1.38,-2.06 v 3.38 a 0.48,0.48 0 0 1 -0.49,0.48 0.48,0.48 0 0 1 -0.49,-0.48 z"
       id="path34" />
    <path
       style="fill:#b3b3b3"
       inkscape:connector-curvature="0"
       class="cls-4"
       d="m 48.75,343.4 h -0.1 a 0.5,0.5 0 0 0 -0.46,0.25 l -1.72,2.69 -1.72,-2.68 a 0.51,0.51 0 0 0 -0.46,-0.26 h -0.1 a 0.5,0.5 0 0 0 -0.51,0.5 v 4.73 a 0.48,0.48 0 0 0 0.49,0.48 0.48,0.48 0 0 0 0.49,-0.48 v -3.38 l 1.34,2.06 a 0.46,0.46 0 0 0 0.83,0 l 1.39,-2.08 v 3.39 a 0.5,0.5 0 0 0 1,0 v -4.72 a 0.5,0.5 0 0 0 -0.5,-0.5 z"
       id="path36" />
    <path
       style="fill:#808080"
       inkscape:connector-curvature="0"
       class="cls-3"
       d="m 50.36,343.88 a 0.5,0.5 0 0 1 1,0 v 4.74 a 0.48,0.48 0 0 1 -0.49,0.49 0.49,0.49 0 0 1 -0.51,-0.49 z"
       id="path38" />
    <path
       style="fill:#b3b3b3"
       inkscape:connector-curvature="0"
       class="cls-4"
       d="m 50.87,343.39 a 0.5,0.5 0 0 0 -0.51,0.49 v 4.74 a 0.49,0.49 0 0 0 0.51,0.49 0.48,0.48 0 0 0 0.49,-0.49 v -4.74 a 0.49,0.49 0 0 0 -0.49,-0.49 z"
       id="path40" />
    <path
       style="fill:#808080"
       inkscape:connector-curvature="0"
       class="cls-3"
       d="m 52.47,343.9 a 0.5,0.5 0 0 1 0.5,-0.5 h 0.11 a 0.61,0.61 0 0 1 0.51,0.29 l 2.84,3.65 v -3.47 a 0.5,0.5 0 0 1 1,0 v 4.74 a 0.49,0.49 0 0 1 -0.49,0.5 v 0 a 0.66,0.66 0 0 1 -0.52,-0.3 l -2.91,-3.76 v 3.58 a 0.5,0.5 0 0 1 -1,0 z"
       id="path42" />
    <path
       style="fill:#b3b3b3"
       inkscape:connector-curvature="0"
       class="cls-4"
       d="m 56.91,343.39 a 0.49,0.49 0 0 0 -0.48,0.48 v 3.47 l -2.84,-3.65 A 0.61,0.61 0 0 0 53.08,343.4 H 53 a 0.5,0.5 0 0 0 -0.5,0.5 v 4.73 a 0.5,0.5 0 0 0 1,0 v -3.58 l 2.91,3.76 a 0.66,0.66 0 0 0 0.52,0.3 v 0 a 0.49,0.49 0 0 0 0.49,-0.5 v -4.74 a 0.49,0.49 0 0 0 -0.5,-0.48 z"
       id="path44" />
    <path
       style="fill:#808080"
       inkscape:connector-curvature="0"
       class="cls-3"
       d="m 58.46,343.93 a 0.5,0.5 0 0 1 0.5,-0.5 h 1.61 a 2.82,2.82 0 0 1 3,2.8 v 0 a 2.83,2.83 0 0 1 -3,2.82 H 59 a 0.49,0.49 0 0 1 -0.5,-0.5 z m 2.11,4.24 a 1.85,1.85 0 0 0 2,-1.9 v 0 a 1.86,1.86 0 0 0 -2,-1.92 h -1.11 v 3.84 z"
       id="path46" />
    <path
       style="fill:#b3b3b3"
       inkscape:connector-curvature="0"
       class="cls-4"
       d="M 60.57,343.43 H 59 a 0.5,0.5 0 0 0 -0.5,0.5 v 4.64 a 0.49,0.49 0 0 0 0.5,0.5 h 1.61 a 2.83,2.83 0 0 0 3,-2.82 v 0 a 2.82,2.82 0 0 0 -3,-2.8 z m -1.11,4.74 v -3.84 h 1.11 a 1.86,1.86 0 0 1 2,1.92 v 0 a 1.85,1.85 0 0 1 -2,1.9 z"
       id="path48" />
    <path
       style="fill:#808080"
       inkscape:connector-curvature="0"
       class="cls-3"
       d="m 43.68,350.51 a 0.5,0.5 0 0 1 0.51,-0.5 h 0.1 a 0.51,0.51 0 0 1 0.46,0.26 l 1.72,2.73 1.72,-2.68 a 0.51,0.51 0 0 1 0.46,-0.26 h 0.1 a 0.5,0.5 0 0 1 0.5,0.5 v 4.72 a 0.5,0.5 0 1 1 -1,0 v -3.38 l -1.39,2.07 a 0.46,0.46 0 0 1 -0.83,0 l -1.38,-2.06 v 3.38 a 0.48,0.48 0 0 1 -0.49,0.49 0.48,0.48 0 0 1 -0.49,-0.49 z"
       id="path50" />
    <path
       style="fill:#b3b3b3"
       inkscape:connector-curvature="0"
       class="cls-4"
       d="m 48.75,350 h -0.1 a 0.51,0.51 0 0 0 -0.46,0.26 l -1.72,2.74 -1.72,-2.68 a 0.51,0.51 0 0 0 -0.46,-0.26 h -0.1 a 0.5,0.5 0 0 0 -0.51,0.5 v 4.73 a 0.48,0.48 0 0 0 0.49,0.49 0.48,0.48 0 0 0 0.49,-0.49 v -3.38 l 1.34,2.01 a 0.46,0.46 0 0 0 0.83,0 l 1.39,-2.07 v 3.38 a 0.5,0.5 0 1 0 1,0 v -4.72 a 0.5,0.5 0 0 0 -0.5,-0.5 z"
       id="path52" />
    <path
       style="fill:#808080"
       inkscape:connector-curvature="0"
       class="cls-3"
       d="m 50.31,355.19 v -4.65 a 0.5,0.5 0 0 1 0.5,-0.5 h 3.29 a 0.45,0.45 0 1 1 0,0.89 h -2.8 v 1.46 h 2.44 a 0.45,0.45 0 0 1 0.44,0.46 0.44,0.44 0 0 1 -0.44,0.43 H 51.3 v 1.52 h 2.84 a 0.45,0.45 0 1 1 0,0.89 h -3.33 a 0.5,0.5 0 0 1 -0.5,-0.5 z"
       id="path54" />
    <path
       style="fill:#b3b3b3"
       inkscape:connector-curvature="0"
       class="cls-4"
       d="m 54.1,350 h -3.29 a 0.5,0.5 0 0 0 -0.5,0.5 v 4.65 a 0.5,0.5 0 0 0 0.5,0.5 h 3.33 a 0.45,0.45 0 1 0 0,-0.89 H 51.3 v -1.52 h 2.44 a 0.44,0.44 0 0 0 0.44,-0.43 0.45,0.45 0 0 0 -0.44,-0.46 H 51.3 v -1.46 h 2.8 a 0.45,0.45 0 1 0 0,-0.89 z"
       id="path56" />
    <path
       style="fill:#808080"
       inkscape:connector-curvature="0"
       class="cls-3"
       d="m 55.33,350.49 a 0.5,0.5 0 0 1 1,0 v 4.29 h 2.57 a 0.45,0.45 0 0 1 0.45,0.45 0.46,0.46 0 0 1 -0.45,0.46 h -3.07 a 0.5,0.5 0 0 1 -0.5,-0.5 z"
       id="path58" />
    <path
       style="fill:#b3b3b3"
       inkscape:connector-curvature="0"
       class="cls-4"
       d="m 55.83,350 a 0.49,0.49 0 0 0 -0.5,0.49 v 4.7 a 0.5,0.5 0 0 0 0.5,0.5 h 3.06 a 0.46,0.46 0 0 0 0.45,-0.46 0.45,0.45 0 0 0 -0.45,-0.45 h -2.57 v -4.29 A 0.49,0.49 0 0 0 55.83,350 Z"
       id="path60" />
    <path
       style="fill:#808080"
       inkscape:connector-curvature="0"
       class="cls-3"
       d="m 59.93,350.54 a 0.5,0.5 0 0 1 0.51,-0.5 h 1.61 a 2.82,2.82 0 0 1 3,2.81 v 0 a 2.84,2.84 0 0 1 -3,2.83 h -1.61 a 0.5,0.5 0 0 1 -0.51,-0.5 z m 2.12,4.24 a 1.84,1.84 0 0 0 2,-1.9 v 0 a 1.85,1.85 0 0 0 -2,-1.92 h -1.12 v 3.84 z"
       id="path62" />
    <path
       style="fill:#b3b3b3"
       inkscape:connector-curvature="0"
       class="cls-4"
       d="m 62.05,350 h -1.61 a 0.5,0.5 0 0 0 -0.51,0.5 v 4.65 a 0.5,0.5 0 0 0 0.51,0.5 h 1.61 a 2.84,2.84 0 0 0 3,-2.83 v 0 a 2.82,2.82 0 0 0 -3,-2.81 z m -1.12,4.74 v -3.84 h 1.12 a 1.85,1.85 0 0 1 2,1.92 v 0 a 1.84,1.84 0 0 1 -2,1.9 z"
       id="path64" />
    <path
       style="fill:#b3b3b3"
       inkscape:connector-curvature="0"
       class="cls-4"
       d="M 11.87,15.85 A 2.3,2.3 0 0 1 11.1,17.62 2.67,2.67 0 0 1 9.23,18.31 H 5.63 V 9.83 H 9 a 2.64,2.64 0 0 1 1.83,0.67 2.2,2.2 0 0 1 0.75,1.71 2,2 0 0 1 -0.8,1.7 2.1,2.1 0 0 1 1.09,1.94 z M 7.3,11.39 v 1.86 H 9 A 0.9,0.9 0 0 0 9.91,12.32 0.89,0.89 0 0 0 9,11.39 Z m 1.93,5.35 a 1,1 0 0 0 0,-2 H 7.3 v 2 z"
       id="path66" />
    <path
       style="fill:#b3b3b3"
       inkscape:connector-curvature="0"
       class="cls-4"
       d="m 18.65,18.31 -0.51,-1.53 h -3.38 l -0.51,1.53 h -1.81 l 3,-8.48 h 2.07 l 3,8.48 z m -3.36,-3.09 h 2.33 l -1.16,-3.47 z"
       id="path68" />
    <path
       style="fill:#b3b3b3"
       inkscape:connector-curvature="0"
       class="cls-4"
       d="m 20.9,16.38 1.43,-0.84 a 1.9,1.9 0 0 0 2,1.3 c 0.93,0 1.35,-0.37 1.35,-0.9 a 0.75,0.75 0 0 0 -0.4,-0.69 5.48,5.48 0 0 0 -1.43,-0.54 5.34,5.34 0 0 1 -1.75,-0.79 2.05,2.05 0 0 1 -0.8,-1.74 2.23,2.23 0 0 1 0.81,-1.83 3,3 0 0 1 2,-0.69 3.24,3.24 0 0 1 3,1.9 l -1.4,0.81 A 1.7,1.7 0 0 0 24,11.28 c -0.69,0 -1.11,0.35 -1.11,0.85 a 0.79,0.79 0 0 0 0.33,0.65 5.21,5.21 0 0 0 1.28,0.54 l 0.58,0.19 a 4.74,4.74 0 0 1 0.55,0.21 2,2 0 0 1 0.53,0.25 2.49,2.49 0 0 1 0.8,0.75 2.33,2.33 0 0 1 0.32,1.2 2.28,2.28 0 0 1 -0.86,1.87 3.42,3.42 0 0 1 -2.22,0.69 3.27,3.27 0 0 1 -3.3,-2.1 z"
       id="path70" />
    <path
       style="fill:#b3b3b3"
       inkscape:connector-curvature="0"
       class="cls-4"
       d="m 27.94,16.38 1.43,-0.84 a 1.91,1.91 0 0 0 1.95,1.3 c 0.94,0 1.36,-0.37 1.36,-0.9 a 0.75,0.75 0 0 0 -0.4,-0.69 5.64,5.64 0 0 0 -1.43,-0.54 5.34,5.34 0 0 1 -1.75,-0.79 2,2 0 0 1 -0.8,-1.74 2.23,2.23 0 0 1 0.81,-1.83 3,3 0 0 1 2,-0.69 3.24,3.24 0 0 1 3,1.9 l -1.4,0.81 a 1.7,1.7 0 0 0 -1.63,-1.09 c -0.69,0 -1.11,0.35 -1.11,0.85 a 0.81,0.81 0 0 0 0.32,0.65 5.33,5.33 0 0 0 1.29,0.54 l 0.58,0.19 a 5.55,5.55 0 0 1 0.55,0.21 2,2 0 0 1 0.53,0.25 2.59,2.59 0 0 1 0.8,0.75 2.33,2.33 0 0 1 0.31,1.2 2.28,2.28 0 0 1 -0.86,1.87 3.41,3.41 0 0 1 -2.21,0.69 3.29,3.29 0 0 1 -3.34,-2.1 z"
       id="path72" />
    <path
       style="fill:#808080"
       inkscape:connector-curvature="0"
       class="cls-3"
       d="m 43.92,9.83 v 8.48 h -1.66 v -5.5 l -2.39,3.93 h -0.19 l -2.39,-3.92 v 5.49 H 35.62 V 9.83 h 1.72 l 2.44,4 2.42,-4 z"
       id="path74" />
    <path
       style="fill:#808080"
       inkscape:connector-curvature="0"
       class="cls-3"
       d="m 51.18,18.31 -0.51,-1.53 h -3.38 l -0.5,1.53 H 45 l 3,-8.48 h 2 l 3,8.48 z m -3.35,-3.09 h 2.32 L 49,11.75 Z"
       id="path76" />
    <path
       style="fill:#808080"
       inkscape:connector-curvature="0"
       class="cls-3"
       d="m 53.43,16.38 1.43,-0.84 a 1.91,1.91 0 0 0 2,1.3 c 0.93,0 1.36,-0.37 1.36,-0.9 a 0.77,0.77 0 0 0 -0.4,-0.69 5.8,5.8 0 0 0 -1.43,-0.54 5.4,5.4 0 0 1 -1.76,-0.79 2.05,2.05 0 0 1 -0.8,-1.74 2.26,2.26 0 0 1 0.81,-1.83 3,3 0 0 1 2,-0.69 3.24,3.24 0 0 1 3,1.9 l -1.41,0.81 a 1.69,1.69 0 0 0 -1.62,-1.09 c -0.69,0 -1.12,0.35 -1.12,0.85 a 0.79,0.79 0 0 0 0.33,0.65 5.33,5.33 0 0 0 1.29,0.54 l 0.58,0.19 a 5.57,5.57 0 0 1 0.54,0.21 2.29,2.29 0 0 1 0.54,0.25 2.59,2.59 0 0 1 0.8,0.75 2.33,2.33 0 0 1 0.31,1.2 2.28,2.28 0 0 1 -0.88,1.87 3.42,3.42 0 0 1 -2.22,0.69 3.28,3.28 0 0 1 -3.35,-2.1 z"
       id="path78" />
    <path
       style="fill:#808080"
       inkscape:connector-curvature="0"
       class="cls-3"
       d="m 66.48,9.83 v 1.6 h -2.29 v 6.88 h -1.68 v -6.88 h -2.27 v -1.6 z"
       id="path80" />
    <path
       style="fill:#808080"
       inkscape:connector-curvature="0"
       class="cls-3"
       d="m 69.32,16.71 h 3.57 v 1.6 H 67.65 V 9.83 h 5.18 v 1.6 h -3.51 v 1.8 h 3.21 v 1.58 h -3.21 z"
       id="path82" />
    <path
       style="fill:#808080"
       inkscape:connector-curvature="0"
       class="cls-3"
       d="M 79,18.31 77.29,15.36 H 76 v 2.95 H 74.3 V 9.83 h 3.4 a 2.71,2.71 0 0 1 2,0.82 2.74,2.74 0 0 1 -0.82,4.46 l 1.88,3.2 z m -3,-6.92 v 2.51 h 1.7 a 1.26,1.26 0 0 0 0,-2.51 z"
       id="path84" />
  </g>
  <g
     id="Section_BGs"
     data-name="Section BGs"
     transform="scale(1.3333333)">
    <rect
       style="fill:#424242"
       class="cls-5"
       x="4.25"
       y="184.61"
       width="77.900002"
       height="73.870003"
       rx="2.72"
       id="rect87" />
    <rect
       style="fill:#424242"
       class="cls-5"
       x="4.25"
       y="106.06"
       width="77.900002"
       height="73.870003"
       rx="2.72"
       id="rect89" />
    <rect
       style="fill:#424242"
       class="cls-5"
       x="4.25"
       y="25.51"
       width="77.900002"
       height="75.889999"
       rx="2.76"
       id="rect91" />
    <rect
       style="fill:#121212"
       class="cls-6"
       x="51.27"
       y="264.19"
       width="30.610001"
       height="69.169998"
       rx="1.41"
       id="rect93" />
    <rect
       style="fill:#424242"
       class="cls-5"
       x="4.25"
       y="264.19"
       width="30.610001"
       height="69.169998"
       rx="1.41"
       id="rect95" />
  </g>
  <g
     id="labels"
     transform="scale(1.3333333)">
    <path
       style="fill:#ffffff"
       inkscape:connector-curvature="0"
       class="cls-7"
       d="m 16.27,267.94 h 1 v 4.9 h -1 z"
       id="path98" />
    <path
       style="fill:#ffffff"
       inkscape:connector-curvature="0"
       class="cls-7"
       d="m 21.16,267.94 h 1 v 4.9 h -0.74 l -2.1,-3 v 3 h -1 v -4.9 h 0.73 l 2.1,3 z"
       id="path100" />
    <path
       style="fill:#cccccc"
       inkscape:connector-curvature="0"
       class="cls-8"
       d="M 13.31,207.23 12,202.32 h 0.82 l 1,3.84 1.08,-3.84 h 0.72 l 1.06,3.84 1,-3.84 h 0.82 l -1.34,4.91 h -0.9 l -1,-3.58 -1,3.58 z"
       id="path102" />
    <path
       style="fill:#cccccc"
       inkscape:connector-curvature="0"
       class="cls-8"
       d="m 18.91,203.06 a 0.5,0.5 0 0 1 0,-0.68 0.44,0.44 0 0 1 0.66,0 0.48,0.48 0 0 1 0,0.68 0.45,0.45 0 0 1 -0.66,0 z m 0,4.17 v -3.51 h 0.73 v 3.51 z"
       id="path104" />
    <path
       style="fill:#cccccc"
       inkscape:connector-curvature="0"
       class="cls-8"
       d="m 23.13,202.32 h 0.73 v 4.91 h -0.73 v -0.51 a 1.36,1.36 0 0 1 -1.19,0.6 1.59,1.59 0 0 1 -1.19,-0.53 1.87,1.87 0 0 1 -0.49,-1.31 1.84,1.84 0 0 1 0.49,-1.31 1.56,1.56 0 0 1 1.19,-0.54 1.37,1.37 0 0 1 1.19,0.59 z m -1.07,4.28 a 1,1 0 0 0 0.76,-0.32 1.1,1.1 0 0 0 0.31,-0.8 1.07,1.07 0 0 0 -0.31,-0.8 1,1 0 0 0 -0.76,-0.32 1,1 0 0 0 -0.77,0.32 1.1,1.1 0 0 0 -0.3,0.8 1.14,1.14 0 0 0 0.3,0.8 1,1 0 0 0 0.77,0.32 z"
       id="path106" />
    <path
       style="fill:#cccccc"
       inkscape:connector-curvature="0"
       class="cls-8"
       d="m 26.59,204.45 h -0.84 v 1.68 c 0,0.45 0.29,0.45 0.84,0.42 v 0.68 c -1.11,0.14 -1.57,-0.18 -1.57,-1.1 v -1.68 H 24.4 v -0.73 H 25 V 203 l 0.73,-0.23 v 1 h 0.84 z"
       id="path108" />
    <path
       style="fill:#cccccc"
       inkscape:connector-curvature="0"
       class="cls-8"
       d="m 30.33,205.08 v 2.15 H 29.6 v -2.08 a 0.72,0.72 0 0 0 -0.76,-0.81 c -0.51,0 -0.86,0.33 -0.86,1 v 1.88 h -0.73 v -4.91 H 28 v 1.85 a 1.16,1.16 0 0 1 1.05,-0.54 1.29,1.29 0 0 1 1.28,1.46 z"
       id="path110" />
    <path
       style="fill:#cccccc"
       inkscape:connector-curvature="0"
       class="cls-8"
       d="m 62.49,204.89 v 0.34 a 2.23,2.23 0 0 1 -0.64,1.65 2.27,2.27 0 0 1 -1.68,0.64 2.43,2.43 0 0 1 -1.81,-0.74 2.64,2.64 0 0 1 0,-3.6 2.44,2.44 0 0 1 3.84,0.42 l -0.67,0.4 a 1.56,1.56 0 0 0 -1.4,-0.78 1.64,1.64 0 0 0 -1.22,0.5 1.77,1.77 0 0 0 -0.48,1.26 1.74,1.74 0 0 0 0.48,1.26 1.7,1.7 0 0 0 1.27,0.49 1.42,1.42 0 0 0 1.53,-1.12 h -1.58 v -0.72 z"
       id="path112" />
    <path
       style="fill:#cccccc"
       inkscape:connector-curvature="0"
       class="cls-8"
       d="m 65.83,203.93 h 0.73 v 3.5 h -0.73 v -0.51 a 1.36,1.36 0 0 1 -1.19,0.6 1.57,1.57 0 0 1 -1.18,-0.53 1.84,1.84 0 0 1 -0.5,-1.31 1.8,1.8 0 0 1 0.5,-1.31 1.54,1.54 0 0 1 1.18,-0.54 1.37,1.37 0 0 1 1.19,0.59 z m -1.07,2.87 a 1,1 0 0 0 0.76,-0.32 1.1,1.1 0 0 0 0.31,-0.8 1.07,1.07 0 0 0 -0.31,-0.8 1.06,1.06 0 0 0 -1.52,0 1.07,1.07 0 0 0 -0.31,0.8 1.1,1.1 0 0 0 0.31,0.8 1,1 0 0 0 0.76,0.32 z"
       id="path114" />
    <path
       style="fill:#cccccc"
       inkscape:connector-curvature="0"
       class="cls-8"
       d="m 67.44,203.26 a 0.5,0.5 0 0 1 0,-0.68 0.44,0.44 0 0 1 0.66,0 0.49,0.49 0 0 1 0,0.68 0.44,0.44 0 0 1 -0.66,0 z m 0,4.17 v -3.5 h 0.73 v 3.5 z"
       id="path116" />
    <path
       style="fill:#cccccc"
       inkscape:connector-curvature="0"
       class="cls-8"
       d="m 72.05,205.28 v 2.15 h -0.72 v -2.08 a 0.72,0.72 0 0 0 -0.76,-0.81 c -0.52,0 -0.86,0.33 -0.86,1 v 1.88 H 69 v -3.5 h 0.73 v 0.44 a 1.16,1.16 0 0 1 1.05,-0.54 1.29,1.29 0 0 1 1.27,1.46 z"
       id="path118" />
    <path
       style="fill:#cccccc"
       inkscape:connector-curvature="0"
       class="cls-8"
       d="M 13.31,128.67 12,123.77 h 0.82 l 1,3.83 1.08,-3.83 h 0.72 l 1.06,3.83 1,-3.83 h 0.82 l -1.34,4.9 h -0.9 l -1,-3.58 -1,3.58 z"
       id="path120" />
    <path
       style="fill:#cccccc"
       inkscape:connector-curvature="0"
       class="cls-8"
       d="m 18.91,124.5 a 0.5,0.5 0 0 1 0,-0.68 0.45,0.45 0 0 1 0.66,0 0.48,0.48 0 0 1 0,0.68 0.45,0.45 0 0 1 -0.66,0 z m 0,4.17 v -3.5 h 0.73 v 3.5 z"
       id="path122" />
    <path
       style="fill:#cccccc"
       inkscape:connector-curvature="0"
       class="cls-8"
       d="m 23.13,123.77 h 0.73 v 4.9 h -0.73 v -0.5 a 1.35,1.35 0 0 1 -1.19,0.59 1.55,1.55 0 0 1 -1.19,-0.53 2,2 0 0 1 0,-2.62 1.55,1.55 0 0 1 1.19,-0.53 1.35,1.35 0 0 1 1.19,0.59 z M 22.06,128 a 1,1 0 0 0 0.76,-0.31 1.12,1.12 0 0 0 0.31,-0.81 1.09,1.09 0 0 0 -0.31,-0.8 1,1 0 0 0 -0.76,-0.32 1,1 0 0 0 -0.77,0.32 1.12,1.12 0 0 0 -0.3,0.8 1.16,1.16 0 0 0 0.3,0.81 1,1 0 0 0 0.77,0.31 z"
       id="path124" />
    <path
       style="fill:#cccccc"
       inkscape:connector-curvature="0"
       class="cls-8"
       d="m 26.59,125.9 h -0.84 v 1.68 c 0,0.45 0.29,0.44 0.84,0.41 v 0.68 c -1.11,0.14 -1.57,-0.17 -1.57,-1.09 V 125.9 H 24.4 v -0.73 H 25 v -0.76 l 0.73,-0.22 v 1 h 0.84 z"
       id="path126" />
    <path
       style="fill:#cccccc"
       inkscape:connector-curvature="0"
       class="cls-8"
       d="m 30.33,126.52 v 2.15 H 29.6 v -2.07 a 0.71,0.71 0 0 0 -0.76,-0.81 c -0.51,0 -0.86,0.32 -0.86,1 v 1.88 h -0.73 v -4.9 H 28 v 1.85 a 1.14,1.14 0 0 1 1.05,-0.54 1.28,1.28 0 0 1 1.28,1.44 z"
       id="path128" />
    <path
       style="fill:#cccccc"
       inkscape:connector-curvature="0"
       class="cls-8"
       d="m 62.49,126.34 v 0.33 a 2.22,2.22 0 0 1 -0.64,1.65 2.27,2.27 0 0 1 -1.68,0.64 2.42,2.42 0 0 1 -1.81,-0.73 2.65,2.65 0 0 1 0,-3.61 2.45,2.45 0 0 1 3.84,0.42 l -0.67,0.4 a 1.56,1.56 0 0 0 -1.4,-0.78 1.61,1.61 0 0 0 -1.22,0.51 1.88,1.88 0 0 0 0,2.51 1.7,1.7 0 0 0 1.27,0.5 1.42,1.42 0 0 0 1.53,-1.12 h -1.58 v -0.72 z"
       id="path130" />
    <path
       style="fill:#cccccc"
       inkscape:connector-curvature="0"
       class="cls-8"
       d="m 65.83,125.37 h 0.73 v 3.5 h -0.73 v -0.5 a 1.35,1.35 0 0 1 -1.19,0.59 1.53,1.53 0 0 1 -1.18,-0.53 2,2 0 0 1 0,-2.62 1.53,1.53 0 0 1 1.18,-0.53 1.35,1.35 0 0 1 1.19,0.59 z m -1.07,2.87 a 1,1 0 0 0 0.76,-0.31 1.12,1.12 0 0 0 0.31,-0.81 1.09,1.09 0 0 0 -0.31,-0.8 1.06,1.06 0 0 0 -1.52,0 1.09,1.09 0 0 0 -0.31,0.8 1.12,1.12 0 0 0 0.31,0.81 1,1 0 0 0 0.76,0.31 z"
       id="path132" />
    <path
       style="fill:#cccccc"
       inkscape:connector-curvature="0"
       class="cls-8"
       d="m 67.44,124.7 a 0.5,0.5 0 0 1 0,-0.68 0.45,0.45 0 0 1 0.66,0 0.49,0.49 0 0 1 0,0.68 0.44,0.44 0 0 1 -0.66,0 z m 0,4.17 v -3.5 h 0.73 v 3.5 z"
       id="path134" />
    <path
       style="fill:#cccccc"
       inkscape:connector-curvature="0"
       class="cls-8"
       d="m 72.05,126.72 v 2.15 h -0.72 v -2.07 a 0.73,0.73 0 0 0 -0.76,-0.82 c -0.52,0 -0.86,0.33 -0.86,1 v 1.88 H 69 v -3.5 h 0.73 v 0.45 a 1.14,1.14 0 0 1 1.05,-0.54 1.28,1.28 0 0 1 1.27,1.45 z"
       id="path136" />
    <path
       style="fill:#ffffff"
       inkscape:connector-curvature="0"
       class="cls-7"
       d="m 42.71,290.87 h 2 v 1 h -3.05 v -5.32 h 1.05 z"
       id="path138" />
    <path
       style="fill:#ffffff"
       inkscape:connector-curvature="0"
       class="cls-7"
       d="M 44.09,318.81 43,317 h -0.8 v 1.84 h -1 v -5.32 h 2.1 a 1.74,1.74 0 0 1 1.26,0.52 1.71,1.71 0 0 1 0.51,1.25 1.74,1.74 0 0 1 -1,1.55 l 1.17,2 z m -1.87,-4.34 v 1.58 h 1.08 a 0.79,0.79 0 0 0 0,-1.58 z"
       id="path140" />
    <path
       style="fill:#ffffff"
       inkscape:connector-curvature="0"
       class="cls-7"
       d="m 61.65,273.07 a 2.35,2.35 0 0 1 -1.75,-0.73 2.55,2.55 0 0 1 -0.71,-1.82 2.51,2.51 0 0 1 0.71,-1.8 2.41,2.41 0 0 1 3.49,0 2.47,2.47 0 0 1 0.72,1.8 2.52,2.52 0 0 1 -0.72,1.82 2.34,2.34 0 0 1 -1.74,0.73 z m 0,-0.94 a 1.44,1.44 0 0 0 1.08,-0.45 1.61,1.61 0 0 0 0.44,-1.16 1.58,1.58 0 0 0 -0.44,-1.15 1.51,1.51 0 0 0 -2.17,0 1.58,1.58 0 0 0 -0.44,1.15 1.61,1.61 0 0 0 0.44,1.16 1.45,1.45 0 0 0 1.09,0.45 z"
       id="path142" />
    <path
       style="fill:#ffffff"
       inkscape:connector-curvature="0"
       class="cls-7"
       d="m 65.73,272.61 a 1.59,1.59 0 0 1 -0.51,-1.24 v -3.3 h 0.93 v 3.22 a 0.88,0.88 0 0 0 1.76,0 v -3.22 h 0.93 v 3.3 a 1.59,1.59 0 0 1 -0.51,1.24 2.07,2.07 0 0 1 -2.6,0 z"
       id="path144" />
    <path
       style="fill:#ffffff"
       inkscape:connector-curvature="0"
       class="cls-7"
       d="M 73.34,268.07 V 269 h -1.27 v 4 h -0.94 v -4 h -1.27 v -0.93 z"
       id="path146" />
    <path
       style="fill:#ffffff"
       inkscape:connector-curvature="0"
       class="cls-7"
       d="m 36.25,195.35 h 2 v 0.78 h -2.8 v -4.91 h 0.8 z"
       id="path148" />
    <path
       style="fill:#ffffff"
       inkscape:connector-curvature="0"
       class="cls-7"
       d="m 41.18,196.22 a 2.53,2.53 0 1 1 1.8,-0.74 2.49,2.49 0 0 1 -1.8,0.74 z m 0,-0.79 a 1.67,1.67 0 0 0 1.23,-0.5 1.83,1.83 0 0 0 0,-2.51 1.64,1.64 0 0 0 -1.23,-0.5 1.66,1.66 0 0 0 -1.24,0.5 1.76,1.76 0 0 0 1.24,3 z"
       id="path150" />
    <path
       style="fill:#ffffff"
       inkscape:connector-curvature="0"
       class="cls-7"
       d="m 45.63,196.13 -1.39,-4.91 h 0.85 l 1,3.83 1.11,-3.83 H 48 l 1.11,3.83 1,-3.83 H 51 l -1.39,4.91 h -0.93 l -1,-3.58 -1,3.58 z"
       id="path152" />
    <path
       style="fill:#ffffff"
       inkscape:connector-curvature="0"
       class="cls-7"
       d="m 21.42,36 a 2.51,2.51 0 0 1 -0.73,-1.82 2.51,2.51 0 0 1 2.56,-2.54 2.42,2.42 0 0 1 2.11,1.17 l -0.7,0.41 A 1.56,1.56 0 0 0 23.25,32.42 1.72,1.72 0 0 0 22,33 a 1.89,1.89 0 0 0 0,2.52 1.72,1.72 0 0 0 1.27,0.5 1.56,1.56 0 0 0 1.41,-0.79 l 0.7,0.4 A 2.25,2.25 0 0 1 24.51,36.49 2.62,2.62 0 0 1 21.42,36 Z"
       id="path154" />
    <path
       style="fill:#ffffff"
       inkscape:connector-curvature="0"
       class="cls-7"
       d="m 29.38,36.67 -1,-1.78 h -0.95 v 1.78 h -0.8 v -4.9 h 2 a 1.57,1.57 0 0 1 1.57,1.58 1.54,1.54 0 0 1 -1,1.42 l 1.11,1.9 z m -2,-4.14 v 1.64 h 1.16 a 0.82,0.82 0 0 0 0,-1.64 z"
       id="path156" />
    <path
       style="fill:#ffffff"
       inkscape:connector-curvature="0"
       class="cls-7"
       d="m 33.7,36.77 a 2.51,2.51 0 0 1 -2.54,-2.55 2.46,2.46 0 0 1 0.73,-1.8 2.49,2.49 0 0 1 1.81,-0.74 2.55,2.55 0 1 1 0,5.09 z m 0,-0.79 a 1.77,1.77 0 0 0 1.23,-3 1.64,1.64 0 0 0 -1.23,-0.51 1.68,1.68 0 0 0 -1.24,0.51 1.76,1.76 0 0 0 1.24,3 z"
       id="path158" />
    <path
       style="fill:#ffffff"
       inkscape:connector-curvature="0"
       class="cls-7"
       d="m 37.09,35.56 0.7,-0.41 A 1.16,1.16 0 0 0 39,36 c 0.61,0 0.92,-0.26 0.92,-0.64 a 0.52,0.52 0 0 0 -0.25,-0.46 4.32,4.32 0 0 0 -0.87,-0.35 3.27,3.27 0 0 1 -1,-0.45 1.12,1.12 0 0 1 -0.47,-1 1.24,1.24 0 0 1 0.46,-1 1.67,1.67 0 0 1 1.11,-0.39 1.81,1.81 0 0 1 1.71,1.08 l -0.68,0.39 a 1.07,1.07 0 0 0 -1,-0.69 c -0.47,0 -0.77,0.24 -0.77,0.61 0,0.37 0.24,0.54 1,0.77 a 3.3,3.3 0 0 1 0.4,0.14 2.61,2.61 0 0 1 0.37,0.14 1.46,1.46 0 0 1 0.36,0.19 1.17,1.17 0 0 1 0.5,1 1.3,1.3 0 0 1 -0.48,1.06 1.94,1.94 0 0 1 -1.26,0.39 1.86,1.86 0 0 1 -1.96,-1.23 z"
       id="path160" />
    <path
       style="fill:#ffffff"
       inkscape:connector-curvature="0"
       class="cls-7"
       d="m 41.56,35.56 0.69,-0.41 a 1.17,1.17 0 0 0 1.22,0.83 c 0.61,0 0.91,-0.26 0.91,-0.64 a 0.51,0.51 0 0 0 -0.24,-0.46 4.32,4.32 0 0 0 -0.87,-0.35 3.27,3.27 0 0 1 -1,-0.45 1.1,1.1 0 0 1 -0.48,-1 1.27,1.27 0 0 1 0.46,-1 1.68,1.68 0 0 1 1.12,-0.39 1.83,1.83 0 0 1 1.71,1.08 l -0.68,0.39 a 1.08,1.08 0 0 0 -1,-0.69 c -0.47,0 -0.77,0.24 -0.77,0.61 0,0.37 0.24,0.54 1,0.77 A 3.63,3.63 0 0 1 44,34 l 0.37,0.14 a 1.3,1.3 0 0 1 0.86,1.2 1.28,1.28 0 0 1 -0.49,1.06 1.89,1.89 0 0 1 -1.25,0.39 1.86,1.86 0 0 1 -1.93,-1.23 z"
       id="path162" />
    <path
       style="fill:#ffffff"
       inkscape:connector-curvature="0"
       class="cls-7"
       d="m 48.7,36.77 a 2.51,2.51 0 0 1 -2.54,-2.55 2.46,2.46 0 0 1 0.73,-1.8 2.49,2.49 0 0 1 1.81,-0.74 2.55,2.55 0 1 1 0,5.09 z m 0,-0.79 a 1.77,1.77 0 0 0 1.23,-3 1.64,1.64 0 0 0 -1.23,-0.51 1.68,1.68 0 0 0 -1.24,0.51 1.76,1.76 0 0 0 1.24,3 z"
       id="path164" />
    <path
       style="fill:#ffffff"
       inkscape:connector-curvature="0"
       class="cls-7"
       d="m 53.57,36.67 -1.7,-4.9 h 0.88 l 1.3,3.93 1.31,-3.93 h 0.88 l -1.7,4.9 z"
       id="path166" />
    <path
       style="fill:#ffffff"
       inkscape:connector-curvature="0"
       class="cls-7"
       d="m 58.13,35.9 h 2.17 v 0.77 h -3 v -4.9 h 2.94 v 0.77 h -2.11 v 1.28 h 2 v 0.76 h -2 z"
       id="path168" />
    <path
       style="fill:#ffffff"
       inkscape:connector-curvature="0"
       class="cls-7"
       d="m 64.39,36.67 -1,-1.78 h -1 v 1.78 h -0.81 v -4.9 h 2 a 1.57,1.57 0 0 1 1.58,1.58 1.54,1.54 0 0 1 -1,1.42 l 1.11,1.9 z m -2,-4.14 v 1.64 h 1.15 a 0.82,0.82 0 0 0 0,-1.64 z"
       id="path170" />
    <path
       style="fill:#ffffff"
       inkscape:connector-curvature="0"
       class="cls-7"
       d="m 37.56,112.67 h 0.81 v 4.9 h -0.81 v -2.12 h -2.1 v 2.12 h -0.8 v -4.9 h 0.8 v 2 h 2.1 z"
       id="path172" />
    <path
       style="fill:#ffffff"
       inkscape:connector-curvature="0"
       class="cls-7"
       d="m 39.7,112.67 h 0.8 v 4.9 h -0.8 z"
       id="path174" />
    <path
       style="fill:#ffffff"
       inkscape:connector-curvature="0"
       class="cls-7"
       d="m 46.6,115 v 0.34 a 2.19,2.19 0 0 1 -0.66,1.65 2.4,2.4 0 0 1 -1.74,0.64 2.53,2.53 0 0 1 -1.88,-0.74 2.58,2.58 0 0 1 0,-3.6 2.49,2.49 0 0 1 1.84,-0.74 2.43,2.43 0 0 1 2.13,1.16 l -0.69,0.4 a 1.62,1.62 0 0 0 -1.44,-0.78 1.71,1.71 0 0 0 -1.77,1.76 1.71,1.71 0 0 0 0.5,1.26 1.82,1.82 0 0 0 1.32,0.5 1.47,1.47 0 0 0 1.58,-1.12 H 44.15 V 115 Z"
       id="path176" />
    <path
       style="fill:#ffffff"
       inkscape:connector-curvature="0"
       class="cls-7"
       d="m 50.59,112.67 h 0.81 v 4.9 h -0.81 v -2.12 h -2.1 v 2.12 h -0.81 v -4.9 h 0.81 v 2 h 2.1 z"
       id="path178" />
    <path
       style="fill:#cccccc"
       inkscape:connector-curvature="0"
       class="cls-8"
       d="m 11.33,80.06 a 1.35,1.35 0 0 1 0.92,0.33 1.09,1.09 0 0 1 0.38,0.88 1.1,1.1 0 0 1 -0.39,0.89 1.42,1.42 0 0 1 -0.93,0.32 A 1.27,1.27 0 0 1 10,81.66 l 0.43,-0.25 a 0.8,0.8 0 0 0 0.84,0.57 0.72,0.72 0 1 0 0,-1.42 h -1.04 l 0.14,-2 h 2.11 V 79 h -1.65 l -0.06,1 z"
       id="path180" />
    <path
       style="fill:#cccccc"
       inkscape:connector-curvature="0"
       class="cls-8"
       d="m 14.6,82.48 a 1.28,1.28 0 0 1 -1.09,-0.54 2.46,2.46 0 0 1 -0.39,-1.45 2.42,2.42 0 0 1 0.39,-1.49 1.37,1.37 0 0 1 2.19,0 2.49,2.49 0 0 1 0.39,1.45 2.54,2.54 0 0 1 -0.39,1.45 1.28,1.28 0 0 1 -1.1,0.58 z m 0,-0.5 c 0.62,0 1,-0.54 1,-1.49 0,-0.95 -0.36,-1.5 -1,-1.5 -0.64,0 -1,0.54 -1,1.5 0,0.96 0.4,1.51 1,1.51 z"
       id="path182" />
    <path
       style="fill:#cccccc"
       inkscape:connector-curvature="0"
       class="cls-8"
       d="m 19.26,78.56 h 0.51 v 3.85 H 19.26 V 80.68 H 17.4 v 1.73 h -0.51 v -3.85 h 0.51 v 1.64 h 1.86 z"
       id="path184" />
    <path
       style="fill:#cccccc"
       inkscape:connector-curvature="0"
       class="cls-8"
       d="m 21.24,82 h 1.46 v 0.46 h -2.11 v -0.32 l 1.4,-2 h -1.35 v -0.46 h 2 V 80 Z"
       id="path186" />
    <path
       style="fill:#cccccc"
       inkscape:connector-curvature="0"
       class="cls-8"
       d="m 63.17,80.06 a 1.31,1.31 0 0 1 0.91,0.33 1.06,1.06 0 0 1 0.38,0.88 1.09,1.09 0 0 1 -0.38,0.89 1.44,1.44 0 0 1 -0.93,0.32 1.27,1.27 0 0 1 -1.27,-0.82 l 0.43,-0.25 a 0.8,0.8 0 0 0 0.84,0.57 0.72,0.72 0 1 0 0,-1.42 h -1.08 l 0.14,-2 h 2.11 V 79 h -1.65 l -0.06,1 z"
       id="path188" />
    <path
       style="fill:#cccccc"
       inkscape:connector-curvature="0"
       class="cls-8"
       d="M 66.44,82.48 A 1.26,1.26 0 0 1 65.35,81.94 2.46,2.46 0 0 1 65,80.49 2.42,2.42 0 0 1 65.35,79 a 1.36,1.36 0 0 1 2.18,0 2.42,2.42 0 0 1 0.39,1.45 2.46,2.46 0 0 1 -0.39,1.45 1.25,1.25 0 0 1 -1.09,0.58 z m 0,-0.5 c 0.62,0 1,-0.54 1,-1.49 0,-0.95 -0.36,-1.5 -1,-1.5 -0.64,0 -1,0.54 -1,1.5 0,0.96 0.38,1.51 1,1.51 z"
       id="path190" />
    <path
       style="fill:#cccccc"
       inkscape:connector-curvature="0"
       class="cls-8"
       d="M 70,82.48 A 1.28,1.28 0 0 1 69,81.94 2.46,2.46 0 0 1 68.61,80.49 2.42,2.42 0 0 1 69,79 a 1.37,1.37 0 0 1 2.19,0 2.49,2.49 0 0 1 0.39,1.45 2.54,2.54 0 0 1 -0.39,1.45 1.28,1.28 0 0 1 -1.19,0.58 z m 0,-0.5 c 0.62,0 1,-0.54 1,-1.49 C 71,79.54 70.66,79 70,79 c -0.66,0 -1,0.54 -1,1.5 0,0.96 0.42,1.5 1,1.5 z"
       id="path192" />
    <path
       style="fill:#cccccc"
       inkscape:connector-curvature="0"
       class="cls-8"
       d="m 74.7,78.56 h 0.51 v 3.85 H 74.7 v -1.73 h -1.86 v 1.73 h -0.51 v -3.85 h 0.51 v 1.64 h 1.86 z"
       id="path194" />
    <path
       style="fill:#cccccc"
       inkscape:connector-curvature="0"
       class="cls-8"
       d="m 76.68,82 h 1.46 v 0.46 H 76 v -0.32 l 1.4,-2 h -1.32 v -0.46 h 2 V 80 Z"
       id="path196" />
  </g>
  <g
     id="Value_BGs"
     data-name="Value BGs"
     transform="scale(1.3333333)">
    <rect
       style="fill:#1a1a1a"
       class="cls-9"
       x="51.66"
       y="242.35001"
       width="26.51"
       height="10.92"
       rx="0.97000003"
       id="rect199" />
    <path
       inkscape:connector-curvature="0"
       d="m 77.2,242.56 a 0.75,0.75 0 0 1 0.75,0.76 v 9 a 0.74,0.74 0 0 1 -0.75,0.75 H 52.63 a 0.75,0.75 0 0 1 -0.76,-0.75 v -9 a 0.76,0.76 0 0 1 0.76,-0.76 H 77.2 m 0,-0.42 H 52.63 a 1.18,1.18 0 0 0 -1.18,1.18 v 9 a 1.18,1.18 0 0 0 1.18,1.18 H 77.2 a 1.18,1.18 0 0 0 1.18,-1.18 v -9 a 1.18,1.18 0 0 0 -1.18,-1.18 z"
       id="path201" />
    <rect
       style="fill:#1a1a1a"
       class="cls-9"
       x="8.0100002"
       y="242.35001"
       width="26.51"
       height="10.92"
       rx="0.97000003"
       id="rect203" />
    <path
       inkscape:connector-curvature="0"
       d="m 33.55,242.56 a 0.76,0.76 0 0 1 0.75,0.76 v 9 a 0.75,0.75 0 0 1 -0.75,0.75 H 9 a 0.75,0.75 0 0 1 -0.75,-0.75 v -9 A 0.76,0.76 0 0 1 9,242.56 h 24.55 m 0,-0.42 H 9 a 1.18,1.18 0 0 0 -1.17,1.18 v 9 A 1.18,1.18 0 0 0 9,253.48 h 24.55 a 1.18,1.18 0 0 0 1.17,-1.18 v -9 a 1.18,1.18 0 0 0 -1.17,-1.18 z"
       id="path205" />
    <rect
       style="fill:#1a1a1a"
       class="cls-9"
       x="28.540001"
       y="86.099998"
       width="29.32"
       height="10.89"
       rx="1.02"
       id="rect207" />
    <path
       inkscape:connector-curvature="0"
       d="m 56.84,86.32 a 0.8,0.8 0 0 1 0.8,0.8 V 96 a 0.79,0.79 0 0 1 -0.8,0.79 H 29.56 A 0.79,0.79 0 0 1 28.76,96 v -8.88 a 0.8,0.8 0 0 1 0.8,-0.8 h 27.28 m 0,-0.44 H 29.56 a 1.24,1.24 0 0 0 -1.24,1.24 V 96 a 1.25,1.25 0 0 0 1.24,1.24 H 56.84 A 1.25,1.25 0 0 0 58.08,96 v -8.88 a 1.24,1.24 0 0 0 -1.24,-1.24 z"
       id="path209" />
    <rect
       style="fill:#1a1a1a"
       class="cls-9"
       x="51.66"
       y="163.78999"
       width="26.51"
       height="10.92"
       rx="0.97000003"
       id="rect211" />
    <path
       inkscape:connector-curvature="0"
       d="m 77.2,164 a 0.74,0.74 0 0 1 0.75,0.75 v 9 a 0.75,0.75 0 0 1 -0.75,0.76 H 52.63 a 0.76,0.76 0 0 1 -0.76,-0.76 v -9 A 0.75,0.75 0 0 1 52.63,164 H 77.2 m 0,-0.43 H 52.63 a 1.18,1.18 0 0 0 -1.18,1.18 v 9 a 1.18,1.18 0 0 0 1.18,1.18 H 77.2 a 1.18,1.18 0 0 0 1.18,-1.18 v -9 a 1.18,1.18 0 0 0 -1.18,-1.18 z"
       id="path213" />
    <rect
       style="fill:#1a1a1a"
       class="cls-9"
       x="8.0100002"
       y="163.78999"
       width="26.51"
       height="10.92"
       rx="0.97000003"
       id="rect215" />
    <path
       inkscape:connector-curvature="0"
       d="m 33.55,164 a 0.75,0.75 0 0 1 0.75,0.75 v 9 a 0.76,0.76 0 0 1 -0.75,0.76 H 9 a 0.76,0.76 0 0 1 -0.75,-0.76 v -9 A 0.75,0.75 0 0 1 9,164 h 24.55 m 0,-0.43 H 9 a 1.18,1.18 0 0 0 -1.17,1.18 v 9 A 1.18,1.18 0 0 0 9,174.92 h 24.55 a 1.18,1.18 0 0 0 1.17,-1.18 v -9 a 1.18,1.18 0 0 0 -1.17,-1.18 z"
       id="path217" />
  </g>
  <g
     id="Arc_dots"
     data-name="Arc dots"
     transform="scale(1.3333333)">
    <path
       style="fill:#707070"
       inkscape:connector-curvature="0"
       class="cls-10"
       d="m 57.7,237.59 a 0.72,0.72 0 0 1 -0.26,-1 v 0 a 0.73,0.73 0 0 1 1,-0.26 v 0 a 0.72,0.72 0 0 1 0.25,1 v 0 a 0.69,0.69 0 0 1 -0.62,0.35 v 0 a 0.79,0.79 0 0 1 -0.37,-0.09 z"
       id="path220" />
    <path
       style="fill:#707070"
       inkscape:connector-curvature="0"
       class="cls-10"
       d="m 71.17,237.31 a 0.71,0.71 0 0 1 0.26,-1 v 0 a 0.72,0.72 0 0 1 1,0.25 v 0 a 0.73,0.73 0 0 1 -0.26,1 v 0 a 0.74,0.74 0 0 1 -0.36,0.09 v 0 a 0.72,0.72 0 0 1 -0.64,-0.34 z"
       id="path222" />
    <path
       style="fill:#707070"
       inkscape:connector-curvature="0"
       class="cls-10"
       d="m 54.71,235.3 v 0 a 0.72,0.72 0 0 1 0,-1 v 0 a 0.71,0.71 0 0 1 1,0 v 0 a 0.71,0.71 0 0 1 0,1 v 0 a 0.73,0.73 0 0 1 -0.51,0.21 v 0 a 0.74,0.74 0 0 1 -0.49,-0.21 z"
       id="path224" />
    <path
       style="fill:#707070"
       inkscape:connector-curvature="0"
       class="cls-10"
       d="m 74.13,235.27 a 0.71,0.71 0 0 1 0,-1 v 0 a 0.71,0.71 0 0 1 1,0 v 0 a 0.73,0.73 0 0 1 0,1 v 0 a 0.75,0.75 0 0 1 -0.51,0.21 v 0 a 0.7,0.7 0 0 1 -0.49,-0.21 z"
       id="path226" />
    <path
       style="fill:#707070"
       inkscape:connector-curvature="0"
       class="cls-10"
       d="m 52.4,232.31 a 0.72,0.72 0 0 1 0.27,-1 v 0 a 0.71,0.71 0 0 1 1,0.26 v 0 a 0.7,0.7 0 0 1 -0.26,1 v 0 a 0.69,0.69 0 0 1 -0.36,0.11 v 0 a 0.76,0.76 0 0 1 -0.65,-0.37 z"
       id="path228" />
    <path
       style="fill:#707070"
       inkscape:connector-curvature="0"
       class="cls-10"
       d="m 76.45,232.54 a 0.72,0.72 0 0 1 -0.25,-1 v 0 a 0.72,0.72 0 0 1 1,-0.27 v 0 a 0.73,0.73 0 0 1 0.25,1 v 0 a 0.72,0.72 0 0 1 -0.61,0.35 v 0 a 0.71,0.71 0 0 1 -0.39,-0.08 z"
       id="path230" />
    <path
       style="fill:#707070"
       inkscape:connector-curvature="0"
       class="cls-10"
       d="m 51,228.83 a 0.72,0.72 0 0 1 0.51,-0.88 v 0 a 0.7,0.7 0 0 1 0.87,0.5 v 0 a 0.71,0.71 0 0 1 -0.5,0.88 v 0 a 0.58,0.58 0 0 1 -0.19,0 v 0 A 0.72,0.72 0 0 1 51,228.83 Z"
       id="path232" />
    <path
       style="fill:#707070"
       inkscape:connector-curvature="0"
       class="cls-10"
       d="m 78,229.3 a 0.71,0.71 0 0 1 -0.51,-0.87 v 0 a 0.71,0.71 0 0 1 0.87,-0.51 v 0 a 0.72,0.72 0 0 1 0.51,0.88 v 0 a 0.71,0.71 0 0 1 -0.69,0.53 v 0 A 0.52,0.52 0 0 1 78,229.3 Z"
       id="path234" />
    <path
       style="fill:#707070"
       inkscape:connector-curvature="0"
       class="cls-10"
       d="m 50.46,225.09 a 0.71,0.71 0 0 1 0.71,-0.72 v 0 a 0.72,0.72 0 0 1 0.72,0.72 v 0 a 0.71,0.71 0 0 1 -0.72,0.71 v 0 a 0.71,0.71 0 0 1 -0.71,-0.71 z"
       id="path236" />
    <path
       style="fill:#707070"
       inkscape:connector-curvature="0"
       class="cls-10"
       d="m 77.94,225.06 v 0 -0.06 0 a 0.71,0.71 0 0 1 0.71,-0.71 v 0 a 0.71,0.71 0 0 1 0.72,0.71 v 0 0 0 0 0 a 0.71,0.71 0 0 1 -0.71,0.71 v 0 a 0.71,0.71 0 0 1 -0.72,-0.65 z"
       id="path238" />
    <path
       style="fill:#707070"
       inkscape:connector-curvature="0"
       class="cls-10"
       d="m 51.45,222.22 a 0.71,0.71 0 0 1 -0.51,-0.87 v 0 a 0.71,0.71 0 0 1 0.87,-0.51 v 0 a 0.73,0.73 0 0 1 0.52,0.87 v 0 a 0.73,0.73 0 0 1 -0.7,0.54 v 0 a 0.57,0.57 0 0 1 -0.18,-0.03 z"
       id="path240" />
    <path
       style="fill:#707070"
       inkscape:connector-curvature="0"
       class="cls-10"
       d="m 77.48,221.64 a 0.73,0.73 0 0 1 0.51,-0.88 v 0 a 0.71,0.71 0 0 1 0.87,0.51 v 0 a 0.7,0.7 0 0 1 -0.5,0.87 v 0 h -0.19 v 0 a 0.72,0.72 0 0 1 -0.69,-0.5 z"
       id="path242" />
    <path
       style="fill:#707070"
       inkscape:connector-curvature="0"
       class="cls-10"
       d="m 52.64,218.84 a 0.73,0.73 0 0 1 -0.27,-1 v 0 a 0.72,0.72 0 0 1 1,-0.26 v 0 a 0.7,0.7 0 0 1 0.26,1 v 0 a 0.7,0.7 0 0 1 -0.62,0.36 v 0 a 0.76,0.76 0 0 1 -0.37,-0.1 z"
       id="path244" />
    <path
       style="fill:#707070"
       inkscape:connector-curvature="0"
       class="cls-10"
       d="m 76.17,218.5 a 0.72,0.72 0 0 1 0.25,-1 v 0 a 0.72,0.72 0 0 1 1,0.26 v 0 a 0.71,0.71 0 0 1 -0.26,1 v 0 a 0.69,0.69 0 0 1 -0.36,0.09 v 0 a 0.7,0.7 0 0 1 -0.63,-0.35 z"
       id="path246" />
    <path
       style="fill:#707070"
       inkscape:connector-curvature="0"
       class="cls-10"
       d="m 54.67,215.87 a 0.69,0.69 0 0 1 0,-1 v 0 a 0.71,0.71 0 0 1 1,0 v 0 a 0.71,0.71 0 0 1 0,1 v 0 a 0.7,0.7 0 0 1 -0.5,0.21 v 0 a 0.69,0.69 0 0 1 -0.5,-0.21 z"
       id="path248" />
    <path
       style="fill:#707070"
       inkscape:connector-curvature="0"
       class="cls-10"
       d="m 74.09,215.81 a 0.71,0.71 0 0 1 0,-1 v 0 a 0.73,0.73 0 0 1 1,0 v 0 a 0.71,0.71 0 0 1 0,1 v 0 a 0.67,0.67 0 0 1 -0.51,0.21 v 0 a 0.67,0.67 0 0 1 -0.49,-0.21 z"
       id="path250" />
    <path
       style="fill:#707070"
       inkscape:connector-curvature="0"
       class="cls-10"
       d="m 57.4,213.53 a 0.7,0.7 0 0 1 0.25,-1 v 0 a 0.72,0.72 0 0 1 1,0.26 v 0 a 0.71,0.71 0 0 1 -0.26,1 v 0 a 0.7,0.7 0 0 1 -0.36,0.1 v 0 a 0.69,0.69 0 0 1 -0.63,-0.36 z"
       id="path252" />
    <path
       style="fill:#707070"
       inkscape:connector-curvature="0"
       class="cls-10"
       d="m 71.39,213.75 a 0.71,0.71 0 0 1 -0.27,-1 v 0 a 0.72,0.72 0 0 1 1,-0.27 v 0 a 0.72,0.72 0 0 1 0.26,1 v 0 a 0.71,0.71 0 0 1 -0.62,0.36 v 0 a 0.64,0.64 0 0 1 -0.37,-0.09 z"
       id="path254" />
    <path
       style="fill:#707070"
       inkscape:connector-curvature="0"
       class="cls-10"
       d="m 60.63,212 a 0.72,0.72 0 0 1 0.5,-0.88 v 0 a 0.72,0.72 0 0 1 0.88,0.51 v 0 a 0.72,0.72 0 0 1 -0.5,0.88 v 0 h -0.2 v 0 A 0.7,0.7 0 0 1 60.63,212 Z"
       id="path256" />
    <path
       style="fill:#707070"
       inkscape:connector-curvature="0"
       class="cls-10"
       d="m 68.25,212.47 a 0.72,0.72 0 0 1 -0.51,-0.88 v 0 a 0.71,0.71 0 0 1 0.87,-0.51 v 0 a 0.71,0.71 0 0 1 0.51,0.87 v 0 a 0.71,0.71 0 0 1 -0.69,0.54 v 0 z"
       id="path258" />
    <path
       style="fill:#b3b3b3"
       inkscape:connector-curvature="0"
       class="cls-4"
       d="m 64.16,211.32 a 0.7,0.7 0 0 1 0.71,-0.71 v 0 a 0.71,0.71 0 0 1 0.72,0.7 v 0 a 0.73,0.73 0 0 1 -0.72,0.73 v 0 a 0.72,0.72 0 0 1 -0.71,-0.72 z"
       id="path260" />
    <path
       style="fill:#707070"
       inkscape:connector-curvature="0"
       class="cls-10"
       d="m 14.05,237.59 a 0.72,0.72 0 0 1 -0.26,-1 v 0 a 0.71,0.71 0 0 1 1,-0.26 v 0 a 0.71,0.71 0 0 1 0.26,1 v 0 a 0.69,0.69 0 0 1 -0.62,0.35 v 0 a 0.76,0.76 0 0 1 -0.38,-0.09 z"
       id="path262" />
    <path
       style="fill:#707070"
       inkscape:connector-curvature="0"
       class="cls-10"
       d="m 27.52,237.31 a 0.7,0.7 0 0 1 0.26,-1 v 0 a 0.72,0.72 0 0 1 1,0.25 v 0 a 0.74,0.74 0 0 1 -0.26,1 v 0 a 0.77,0.77 0 0 1 -0.36,0.09 v 0 a 0.71,0.71 0 0 1 -0.64,-0.34 z"
       id="path264" />
    <path
       style="fill:#707070"
       inkscape:connector-curvature="0"
       class="cls-10"
       d="m 11.05,235.3 v 0 a 0.73,0.73 0 0 1 0,-1 v 0 a 0.72,0.72 0 0 1 1,0 v 0 a 0.73,0.73 0 0 1 0,1 v 0 a 0.75,0.75 0 0 1 -0.51,0.21 v 0 a 0.78,0.78 0 0 1 -0.49,-0.21 z"
       id="path266" />
    <path
       style="fill:#707070"
       inkscape:connector-curvature="0"
       class="cls-10"
       d="m 30.47,235.27 a 0.73,0.73 0 0 1 0,-1 v 0 a 0.71,0.71 0 0 1 1,0 v 0 a 0.71,0.71 0 0 1 0,1 v 0 a 0.7,0.7 0 0 1 -0.5,0.21 v 0 a 0.75,0.75 0 0 1 -0.5,-0.21 z"
       id="path268" />
    <path
       style="fill:#707070"
       inkscape:connector-curvature="0"
       class="cls-10"
       d="m 8.75,232.31 a 0.71,0.71 0 0 1 0.26,-1 H 9 a 0.72,0.72 0 0 1 1,0.26 v 0 a 0.7,0.7 0 0 1 -0.26,1 v 0 a 0.69,0.69 0 0 1 -0.36,0.11 v 0 a 0.74,0.74 0 0 1 -0.63,-0.37 z"
       id="path270" />
    <path
       style="fill:#707070"
       inkscape:connector-curvature="0"
       class="cls-10"
       d="m 32.8,232.54 a 0.72,0.72 0 0 1 -0.26,-1 v 0 a 0.72,0.72 0 0 1 1,-0.27 v 0 a 0.73,0.73 0 0 1 0.26,1 v 0 a 0.72,0.72 0 0 1 -0.62,0.35 v 0 a 0.68,0.68 0 0 1 -0.38,-0.08 z"
       id="path272" />
    <path
       style="fill:#707070"
       inkscape:connector-curvature="0"
       class="cls-10"
       d="m 7.3,228.83 a 0.71,0.71 0 0 1 0.5,-0.88 v 0 a 0.71,0.71 0 0 1 0.88,0.5 v 0 a 0.71,0.71 0 0 1 -0.5,0.88 v 0 a 0.62,0.62 0 0 1 -0.19,0 H 8 a 0.71,0.71 0 0 1 -0.7,-0.5 z"
       id="path274" />
    <path
       style="fill:#707070"
       inkscape:connector-curvature="0"
       class="cls-10"
       d="m 34.35,229.3 a 0.7,0.7 0 0 1 -0.5,-0.87 v 0 a 0.7,0.7 0 0 1 0.87,-0.51 v 0 a 0.72,0.72 0 0 1 0.51,0.88 v 0 a 0.73,0.73 0 0 1 -0.7,0.53 v 0 z"
       id="path276" />
    <path
       style="fill:#707070"
       inkscape:connector-curvature="0"
       class="cls-10"
       d="m 6.8,225.09 a 0.72,0.72 0 0 1 0.72,-0.72 v 0 a 0.71,0.71 0 0 1 0.71,0.72 v 0 a 0.71,0.71 0 0 1 -0.71,0.71 v 0 A 0.72,0.72 0 0 1 6.8,225.09 Z"
       id="path278" />
    <path
       style="fill:#707070"
       inkscape:connector-curvature="0"
       class="cls-10"
       d="m 34.29,225.06 v 0 -0.06 0 a 0.7,0.7 0 0 1 0.7,-0.71 v 0 a 0.72,0.72 0 0 1 0.73,0.71 v 0 0 0 0 0 A 0.72,0.72 0 0 1 35,225.71 v 0 a 0.71,0.71 0 0 1 -0.71,-0.65 z"
       id="path280" />
    <path
       style="fill:#707070"
       inkscape:connector-curvature="0"
       class="cls-10"
       d="m 7.79,222.22 a 0.7,0.7 0 0 1 -0.5,-0.87 v 0 a 0.7,0.7 0 0 1 0.87,-0.51 v 0 a 0.71,0.71 0 0 1 0.51,0.87 v 0 a 0.71,0.71 0 0 1 -0.69,0.54 H 8 a 0.63,0.63 0 0 1 -0.21,-0.03 z"
       id="path282" />
    <path
       style="fill:#707070"
       inkscape:connector-curvature="0"
       class="cls-10"
       d="m 33.83,221.64 a 0.72,0.72 0 0 1 0.5,-0.88 v 0 a 0.71,0.71 0 0 1 0.88,0.51 v 0 a 0.7,0.7 0 0 1 -0.5,0.87 v 0 h -0.19 v 0 a 0.72,0.72 0 0 1 -0.69,-0.5 z"
       id="path284" />
    <path
       style="fill:#707070"
       inkscape:connector-curvature="0"
       class="cls-10"
       d="m 9,218.84 a 0.72,0.72 0 0 1 -0.27,-1 v 0 a 0.72,0.72 0 0 1 1,-0.26 v 0 a 0.71,0.71 0 0 1 0.26,1 v 0 a 0.71,0.71 0 0 1 -0.62,0.36 v 0 A 0.73,0.73 0 0 1 9,218.84 Z"
       id="path286" />
    <path
       style="fill:#707070"
       inkscape:connector-curvature="0"
       class="cls-10"
       d="m 32.51,218.5 a 0.73,0.73 0 0 1 0.26,-1 v 0 a 0.71,0.71 0 0 1 1,0.26 v 0 a 0.71,0.71 0 0 1 -0.25,1 v 0 a 0.7,0.7 0 0 1 -0.37,0.09 v 0 a 0.72,0.72 0 0 1 -0.64,-0.35 z"
       id="path288" />
    <path
       style="fill:#707070"
       inkscape:connector-curvature="0"
       class="cls-10"
       d="m 11,215.87 a 0.69,0.69 0 0 1 0,-1 v 0 a 0.71,0.71 0 0 1 1,0 v 0 a 0.73,0.73 0 0 1 0,1 v 0 a 0.75,0.75 0 0 1 -0.51,0.21 v 0 A 0.69,0.69 0 0 1 11,215.87 Z"
       id="path290" />
    <path
       style="fill:#707070"
       inkscape:connector-curvature="0"
       class="cls-10"
       d="m 30.44,215.81 a 0.71,0.71 0 0 1 0,-1 v 0 a 0.73,0.73 0 0 1 1,0 v 0 a 0.73,0.73 0 0 1 0,1 v 0 a 0.69,0.69 0 0 1 -0.51,0.21 v 0 a 0.67,0.67 0 0 1 -0.49,-0.21 z"
       id="path292" />
    <path
       style="fill:#707070"
       inkscape:connector-curvature="0"
       class="cls-10"
       d="m 13.74,213.53 a 0.7,0.7 0 0 1 0.26,-1 v 0 a 0.71,0.71 0 0 1 1,0.26 v 0 a 0.71,0.71 0 0 1 -0.25,1 v 0 a 0.71,0.71 0 0 1 -0.37,0.1 v 0 a 0.71,0.71 0 0 1 -0.64,-0.36 z"
       id="path294" />
    <path
       style="fill:#707070"
       inkscape:connector-curvature="0"
       class="cls-10"
       d="m 27.74,213.75 a 0.7,0.7 0 0 1 -0.27,-1 v 0 a 0.71,0.71 0 0 1 1,-0.27 v 0 a 0.71,0.71 0 0 1 0.27,1 v 0 a 0.71,0.71 0 0 1 -0.62,0.36 v 0 a 0.62,0.62 0 0 1 -0.38,-0.09 z"
       id="path296" />
    <path
       style="fill:#707070"
       inkscape:connector-curvature="0"
       class="cls-10"
       d="m 17,212 a 0.73,0.73 0 0 1 0.51,-0.88 v 0 a 0.73,0.73 0 0 1 0.88,0.51 v 0 a 0.74,0.74 0 0 1 -0.51,0.88 v 0 h -0.19 v 0 A 0.72,0.72 0 0 1 17,212 Z"
       id="path298" />
    <path
       style="fill:#707070"
       inkscape:connector-curvature="0"
       class="cls-10"
       d="m 24.59,212.47 a 0.72,0.72 0 0 1 -0.5,-0.88 v 0 a 0.7,0.7 0 0 1 0.86,-0.51 v 0 a 0.72,0.72 0 0 1 0.52,0.87 v 0 a 0.72,0.72 0 0 1 -0.7,0.54 v 0 z"
       id="path300" />
    <path
       style="fill:#b3b3b3"
       inkscape:connector-curvature="0"
       class="cls-4"
       d="m 20.5,211.32 a 0.71,0.71 0 0 1 0.72,-0.71 v 0 a 0.7,0.7 0 0 1 0.71,0.7 v 0 a 0.72,0.72 0 0 1 -0.71,0.73 v 0 a 0.73,0.73 0 0 1 -0.72,-0.72 z"
       id="path302" />
    <path
       style="fill:#707070"
       inkscape:connector-curvature="0"
       class="cls-10"
       d="m 57.7,159 a 0.71,0.71 0 0 1 -0.26,-1 v 0 a 0.72,0.72 0 0 1 1,-0.27 v 0 a 0.72,0.72 0 0 1 0.25,1 v 0 a 0.7,0.7 0 0 1 -0.62,0.36 v 0 A 0.69,0.69 0 0 1 57.7,159 Z"
       id="path304" />
    <path
       style="fill:#707070"
       inkscape:connector-curvature="0"
       class="cls-10"
       d="m 71.17,158.75 a 0.71,0.71 0 0 1 0.26,-1 v 0 a 0.72,0.72 0 0 1 1,0.26 v 0 a 0.72,0.72 0 0 1 -0.26,1 v 0 a 0.65,0.65 0 0 1 -0.36,0.1 v 0 a 0.73,0.73 0 0 1 -0.64,-0.36 z"
       id="path306" />
    <path
       style="fill:#707070"
       inkscape:connector-curvature="0"
       class="cls-10"
       d="m 54.71,156.74 v 0 a 0.72,0.72 0 0 1 0,-1 v 0 a 0.73,0.73 0 0 1 1,0 v 0 a 0.71,0.71 0 0 1 0,1 v 0 a 0.69,0.69 0 0 1 -0.51,0.21 v 0 a 0.69,0.69 0 0 1 -0.49,-0.21 z"
       id="path308" />
    <path
       style="fill:#707070"
       inkscape:connector-curvature="0"
       class="cls-10"
       d="m 74.13,156.71 a 0.71,0.71 0 0 1 0,-1 v 0 a 0.73,0.73 0 0 1 1,0 v 0 a 0.73,0.73 0 0 1 0,1 v 0 a 0.7,0.7 0 0 1 -0.51,0.21 v 0 a 0.67,0.67 0 0 1 -0.49,-0.21 z"
       id="path310" />
    <path
       style="fill:#707070"
       inkscape:connector-curvature="0"
       class="cls-10"
       d="m 52.4,153.75 a 0.71,0.71 0 0 1 0.27,-1 v 0 a 0.71,0.71 0 0 1 1,0.25 v 0 a 0.71,0.71 0 0 1 -0.26,1 v 0 a 0.78,0.78 0 0 1 -0.36,0.1 v 0 a 0.73,0.73 0 0 1 -0.65,-0.35 z"
       id="path312" />
    <path
       style="fill:#707070"
       inkscape:connector-curvature="0"
       class="cls-10"
       d="m 76.45,154 a 0.72,0.72 0 0 1 -0.25,-1 v 0 a 0.72,0.72 0 0 1 1,-0.26 v 0 a 0.72,0.72 0 0 1 0.25,1 v 0 a 0.7,0.7 0 0 1 -0.61,0.35 v 0 A 0.81,0.81 0 0 1 76.45,154 Z"
       id="path314" />
    <path
       style="fill:#707070"
       inkscape:connector-curvature="0"
       class="cls-10"
       d="m 51,150.27 a 0.73,0.73 0 0 1 0.51,-0.88 v 0 a 0.71,0.71 0 0 1 0.87,0.51 v 0 a 0.7,0.7 0 0 1 -0.5,0.87 v 0 a 0.58,0.58 0 0 1 -0.19,0 v 0 A 0.72,0.72 0 0 1 51,150.27 Z"
       id="path316" />
    <path
       style="fill:#707070"
       inkscape:connector-curvature="0"
       class="cls-10"
       d="m 78,150.75 a 0.73,0.73 0 0 1 -0.51,-0.88 v 0 a 0.71,0.71 0 0 1 0.87,-0.51 v 0 a 0.73,0.73 0 0 1 0.51,0.88 v 0 a 0.71,0.71 0 0 1 -0.69,0.53 v 0 z"
       id="path318" />
    <path
       style="fill:#707070"
       inkscape:connector-curvature="0"
       class="cls-10"
       d="m 50.46,146.53 a 0.71,0.71 0 0 1 0.71,-0.71 v 0 a 0.71,0.71 0 0 1 0.72,0.71 v 0 a 0.72,0.72 0 0 1 -0.72,0.72 v 0 a 0.72,0.72 0 0 1 -0.71,-0.72 z"
       id="path320" />
    <path
       style="fill:#707070"
       inkscape:connector-curvature="0"
       class="cls-10"
       d="m 77.94,146.5 v 0 0 0 a 0.71,0.71 0 0 1 0.71,-0.72 v 0 a 0.72,0.72 0 0 1 0.72,0.72 v 0 0 0 0 0 a 0.72,0.72 0 0 1 -0.71,0.72 v 0 a 0.72,0.72 0 0 1 -0.72,-0.72 z"
       id="path322" />
    <path
       style="fill:#707070"
       inkscape:connector-curvature="0"
       class="cls-10"
       d="m 51.45,143.66 a 0.7,0.7 0 0 1 -0.51,-0.86 v 0 a 0.71,0.71 0 0 1 0.87,-0.52 v 0 a 0.74,0.74 0 0 1 0.52,0.88 v 0 a 0.74,0.74 0 0 1 -0.7,0.53 v 0 a 0.57,0.57 0 0 1 -0.18,-0.03 z"
       id="path324" />
    <path
       style="fill:#707070"
       inkscape:connector-curvature="0"
       class="cls-10"
       d="m 77.48,143.08 a 0.73,0.73 0 0 1 0.51,-0.88 v 0 a 0.71,0.71 0 0 1 0.87,0.51 v 0 a 0.72,0.72 0 0 1 -0.5,0.88 v 0 h -0.19 v 0 a 0.71,0.71 0 0 1 -0.69,-0.51 z"
       id="path326" />
    <path
       style="fill:#707070"
       inkscape:connector-curvature="0"
       class="cls-10"
       d="m 52.64,140.28 a 0.72,0.72 0 0 1 -0.27,-1 v 0 a 0.71,0.71 0 0 1 1,-0.27 v 0 a 0.7,0.7 0 0 1 0.26,1 v 0 a 0.7,0.7 0 0 1 -0.62,0.36 v 0 a 0.65,0.65 0 0 1 -0.37,-0.09 z"
       id="path328" />
    <path
       style="fill:#707070"
       inkscape:connector-curvature="0"
       class="cls-10"
       d="m 76.17,139.94 a 0.72,0.72 0 0 1 0.25,-1 v 0 a 0.73,0.73 0 0 1 1,0.26 v 0 a 0.71,0.71 0 0 1 -0.26,1 v 0 a 0.7,0.7 0 0 1 -0.36,0.1 v 0 a 0.71,0.71 0 0 1 -0.63,-0.36 z"
       id="path330" />
    <path
       style="fill:#707070"
       inkscape:connector-curvature="0"
       class="cls-10"
       d="m 54.67,137.31 a 0.69,0.69 0 0 1 0,-1 v 0 a 0.73,0.73 0 0 1 1,0 v 0 a 0.71,0.71 0 0 1 0,1 v 0 a 0.67,0.67 0 0 1 -0.5,0.21 v 0 a 0.66,0.66 0 0 1 -0.5,-0.21 z"
       id="path332" />
    <path
       style="fill:#707070"
       inkscape:connector-curvature="0"
       class="cls-10"
       d="m 74.09,137.26 a 0.71,0.71 0 0 1 0,-1 v 0 a 0.71,0.71 0 0 1 1,0 v 0 a 0.71,0.71 0 0 1 0,1 v 0 a 0.71,0.71 0 0 1 -0.51,0.21 v 0 a 0.7,0.7 0 0 1 -0.49,-0.21 z"
       id="path334" />
    <path
       style="fill:#707070"
       inkscape:connector-curvature="0"
       class="cls-10"
       d="m 57.4,135 a 0.7,0.7 0 0 1 0.25,-1 v 0 a 0.72,0.72 0 0 1 1,0.25 v 0 a 0.72,0.72 0 0 1 -0.26,1 v 0 a 0.8,0.8 0 0 1 -0.36,0.09 v 0 A 0.68,0.68 0 0 1 57.4,135 Z"
       id="path336" />
    <path
       style="fill:#707070"
       inkscape:connector-curvature="0"
       class="cls-10"
       d="m 71.39,135.2 a 0.71,0.71 0 0 1 -0.27,-1 v 0 a 0.71,0.71 0 0 1 1,-0.27 v 0 a 0.7,0.7 0 0 1 0.26,1 v 0 a 0.71,0.71 0 0 1 -0.62,0.36 v 0 a 0.73,0.73 0 0 1 -0.37,-0.09 z"
       id="path338" />
    <path
       style="fill:#707070"
       inkscape:connector-curvature="0"
       class="cls-10"
       d="m 60.63,133.42 a 0.7,0.7 0 0 1 0.5,-0.87 v 0 a 0.71,0.71 0 0 1 0.88,0.5 v 0 a 0.72,0.72 0 0 1 -0.5,0.88 v 0 h -0.2 v 0 a 0.7,0.7 0 0 1 -0.68,-0.51 z"
       id="path340" />
    <path
       style="fill:#707070"
       inkscape:connector-curvature="0"
       class="cls-10"
       d="m 68.25,133.91 a 0.72,0.72 0 0 1 -0.51,-0.88 v 0 a 0.71,0.71 0 0 1 0.87,-0.51 v 0 a 0.71,0.71 0 0 1 0.51,0.87 v 0 a 0.71,0.71 0 0 1 -0.69,0.53 v 0 z"
       id="path342" />
    <path
       style="fill:#b3b3b3"
       inkscape:connector-curvature="0"
       class="cls-4"
       d="m 64.16,132.77 a 0.71,0.71 0 0 1 0.71,-0.72 v 0 a 0.71,0.71 0 0 1 0.72,0.71 v 0 a 0.72,0.72 0 0 1 -0.72,0.72 v 0 a 0.71,0.71 0 0 1 -0.71,-0.71 z"
       id="path344" />
    <path
       style="fill:#b3b3b3"
       inkscape:connector-curvature="0"
       class="cls-4"
       d="M 32.89,81.41 A 1,1 0 0 1 32.52,80 v 0 a 1,1 0 0 1 1.39,-0.38 v 0 a 1,1 0 0 1 0.37,1.4 v 0 a 1,1 0 0 1 -0.88,0.51 v 0 a 1,1 0 0 1 -0.51,-0.12 z"
       id="path346" />
    <path
       style="fill:#b3b3b3"
       inkscape:connector-curvature="0"
       class="cls-4"
       d="m 52.15,81 a 1,1 0 0 1 0.36,-1.39 v 0 a 1,1 0 0 1 1.41,0.36 v 0 a 1,1 0 0 1 -0.37,1.41 v 0 a 1.06,1.06 0 0 1 -0.52,0.13 v 0 A 1,1 0 0 1 52.15,81 Z"
       id="path348" />
    <path
       style="fill:#707070"
       inkscape:connector-curvature="0"
       class="cls-10"
       d="m 28.61,78.14 v 0 a 1,1 0 0 1 0,-1.46 v 0 a 1,1 0 0 1 1.45,0 v 0 a 1,1 0 0 1 0,1.45 v 0 a 1.06,1.06 0 0 1 -0.73,0.3 v 0 a 1.09,1.09 0 0 1 -0.72,-0.29 z"
       id="path350" />
    <path
       style="fill:#707070"
       inkscape:connector-curvature="0"
       class="cls-10"
       d="m 56.37,78.1 a 1,1 0 0 1 0,-1.44 v 0 a 1,1 0 0 1 1.45,0 v 0 a 1,1 0 0 1 0,1.44 v 0 a 1.06,1.06 0 0 1 -0.73,0.3 v 0 a 1,1 0 0 1 -0.72,-0.3 z"
       id="path352" />
    <path
       style="fill:#707070"
       inkscape:connector-curvature="0"
       class="cls-10"
       d="m 25.31,73.86 a 1,1 0 0 1 0.38,-1.39 v 0 a 1,1 0 0 1 1.39,0.37 v 0 a 1,1 0 0 1 -0.36,1.39 v 0 a 1,1 0 0 1 -0.52,0.15 v 0 a 1,1 0 0 1 -0.89,-0.52 z"
       id="path354" />
    <path
       style="fill:#707070"
       inkscape:connector-curvature="0"
       class="cls-10"
       d="m 59.7,74.2 a 1,1 0 0 1 -0.37,-1.39 v 0 a 1,1 0 0 1 1.4,-0.38 v 0 a 1,1 0 0 1 0.37,1.41 v 0 a 1,1 0 0 1 -0.89,0.5 v 0 A 1,1 0 0 1 59.7,74.2 Z"
       id="path356" />
    <path
       style="fill:#707070"
       inkscape:connector-curvature="0"
       class="cls-10"
       d="M 23.24,68.89 A 1,1 0 0 1 24,67.63 v 0 a 1,1 0 0 1 1.26,0.73 v 0 a 1,1 0 0 1 -0.72,1.25 v 0 a 0.86,0.86 0 0 1 -0.28,0 v 0 a 1,1 0 0 1 -1.02,-0.72 z"
       id="path358" />
    <path
       style="fill:#707070"
       inkscape:connector-curvature="0"
       class="cls-10"
       d="M 61.92,69.57 A 1,1 0 0 1 61.2,68.32 v 0 a 1,1 0 0 1 1.24,-0.73 v 0 a 1,1 0 0 1 0.73,1.26 v 0 a 1,1 0 0 1 -1,0.76 v 0 a 0.78,0.78 0 0 1 -0.25,-0.04 z"
       id="path360" />
    <path
       style="fill:#707070"
       inkscape:connector-curvature="0"
       class="cls-10"
       d="m 22.53,63.55 a 1,1 0 0 1 1,-1 v 0 a 1,1 0 0 1 1,1 v 0 a 1,1 0 0 1 -1,1 v 0 a 1,1 0 0 1 -1,-1 z"
       id="path362" />
    <path
       style="fill:#707070"
       inkscape:connector-curvature="0"
       class="cls-10"
       d="m 61.82,63.51 v 0 0 0 -0.07 0 a 1,1 0 0 1 1,-1 v 0 a 1,1 0 0 1 1,1 v 0 0 0 0 0 a 1,1 0 0 1 -1,1 v 0 a 1,1 0 0 1 -1,-0.93 z"
       id="path364" />
    <path
       style="fill:#707070"
       inkscape:connector-curvature="0"
       class="cls-10"
       d="M 24,59.44 A 1,1 0 0 1 23.28,58.2 v 0 a 1,1 0 0 1 1.24,-0.73 v 0 a 1,1 0 0 1 0.73,1.25 v 0 a 1,1 0 0 1 -1,0.77 v 0 A 0.8,0.8 0 0 1 24,59.44 Z"
       id="path366" />
    <path
       style="fill:#707070"
       inkscape:connector-curvature="0"
       class="cls-10"
       d="m 61.17,58.61 a 1,1 0 0 1 0.72,-1.25 v 0 a 1,1 0 0 1 1.25,0.72 v 0 a 1,1 0 0 1 -0.72,1.25 v 0 a 1.18,1.18 0 0 1 -0.27,0 v 0 a 1,1 0 0 1 -0.98,-0.72 z"
       id="path368" />
    <path
       style="fill:#707070"
       inkscape:connector-curvature="0"
       class="cls-10"
       d="m 25.65,54.61 a 1,1 0 0 1 -0.38,-1.39 v 0 a 1,1 0 0 1 1.41,-0.39 v 0 A 1,1 0 0 1 27,54.22 v 0 a 1,1 0 0 1 -0.88,0.52 v 0 a 1.07,1.07 0 0 1 -0.47,-0.13 z"
       id="path370" />
    <path
       style="fill:#707070"
       inkscape:connector-curvature="0"
       class="cls-10"
       d="m 59.29,54.13 a 1,1 0 0 1 0.37,-1.39 v 0 a 1,1 0 0 1 1.4,0.37 v 0 a 1,1 0 0 1 -0.37,1.39 v 0 a 1.06,1.06 0 0 1 -0.52,0.13 v 0 a 1,1 0 0 1 -0.88,-0.5 z"
       id="path372" />
    <path
       style="fill:#707070"
       inkscape:connector-curvature="0"
       class="cls-10"
       d="m 28.56,50.37 a 1,1 0 0 1 0,-1.45 v 0 a 1,1 0 0 1 1.44,0 v 0 a 1,1 0 0 1 0,1.45 v 0 a 1,1 0 0 1 -0.72,0.3 v 0 a 1,1 0 0 1 -0.72,-0.3 z"
       id="path374" />
    <path
       style="fill:#707070"
       inkscape:connector-curvature="0"
       class="cls-10"
       d="m 56.32,50.29 a 1,1 0 0 1 0,-1.45 v 0 a 1,1 0 0 1 1.44,0 v 0 a 1,1 0 0 1 0,1.45 v 0 a 1,1 0 0 1 -0.72,0.3 v 0 a 1,1 0 0 1 -0.72,-0.3 z"
       id="path376" />
    <path
       style="fill:#707070"
       inkscape:connector-curvature="0"
       class="cls-10"
       d="m 32.45,47 a 1,1 0 0 1 0.37,-1.39 v 0 a 1,1 0 0 1 1.39,0.37 v 0 a 1,1 0 0 1 -0.37,1.39 v 0 a 1,1 0 0 1 -0.51,0.13 v 0 A 1,1 0 0 1 32.45,47 Z"
       id="path378" />
    <path
       style="fill:#707070"
       inkscape:connector-curvature="0"
       class="cls-10"
       d="M 52.46,47.34 A 1,1 0 0 1 52.08,46 v 0 a 1,1 0 0 1 1.39,-0.38 v 0 A 1,1 0 0 1 53.85,47 v 0 a 1,1 0 0 1 -0.89,0.52 v 0 a 0.9,0.9 0 0 1 -0.5,-0.18 z"
       id="path380" />
    <path
       style="fill:#707070"
       inkscape:connector-curvature="0"
       class="cls-10"
       d="m 37.07,44.81 a 1,1 0 0 1 0.73,-1.26 v 0 a 1,1 0 0 1 1.25,0.73 v 0 a 1,1 0 0 1 -0.72,1.25 v 0 h -0.27 v 0 a 1,1 0 0 1 -0.99,-0.72 z"
       id="path382" />
    <path
       style="fill:#707070"
       inkscape:connector-curvature="0"
       class="cls-10"
       d="m 48,45.5 a 1,1 0 0 1 -0.72,-1.25 v 0 a 1,1 0 0 1 1.24,-0.74 v 0 0 0 a 1,1 0 0 1 0.74,1.24 v 0 a 1,1 0 0 1 -1,0.76 v 0 A 1.15,1.15 0 0 1 48,45.5 Z"
       id="path384" />
    <path
       style="fill:#707070"
       inkscape:connector-curvature="0"
       class="cls-10"
       d="m 42.12,43.87 a 1,1 0 0 1 1,-1 v 0 a 1,1 0 0 1 1,1 v 0 a 1,1 0 0 1 -1,1 v 0 a 1,1 0 0 1 -1,-1 z"
       id="path386" />
    <path
       style="fill:#707070"
       inkscape:connector-curvature="0"
       class="cls-10"
       d="m 14.05,159 a 0.71,0.71 0 0 1 -0.26,-1 v 0 a 0.71,0.71 0 0 1 1,-0.27 v 0 a 0.71,0.71 0 0 1 0.26,1 v 0 a 0.7,0.7 0 0 1 -0.62,0.36 v 0 A 0.67,0.67 0 0 1 14.05,159 Z"
       id="path388" />
    <path
       style="fill:#707070"
       inkscape:connector-curvature="0"
       class="cls-10"
       d="m 27.52,158.75 a 0.7,0.7 0 0 1 0.26,-1 v 0 a 0.72,0.72 0 0 1 1,0.26 v 0 a 0.73,0.73 0 0 1 -0.26,1 v 0 a 0.68,0.68 0 0 1 -0.36,0.1 v 0 a 0.72,0.72 0 0 1 -0.64,-0.36 z"
       id="path390" />
    <path
       style="fill:#707070"
       inkscape:connector-curvature="0"
       class="cls-10"
       d="m 11.05,156.74 v 0 a 0.73,0.73 0 0 1 0,-1 v 0 a 0.74,0.74 0 0 1 1,0 v 0 a 0.73,0.73 0 0 1 0,1 v 0 a 0.7,0.7 0 0 1 -0.51,0.21 v 0 a 0.73,0.73 0 0 1 -0.49,-0.21 z"
       id="path392" />
    <path
       style="fill:#707070"
       inkscape:connector-curvature="0"
       class="cls-10"
       d="m 30.47,156.71 a 0.73,0.73 0 0 1 0,-1 v 0 a 0.73,0.73 0 0 1 1,0 v 0 a 0.71,0.71 0 0 1 0,1 v 0 a 0.67,0.67 0 0 1 -0.5,0.21 v 0 a 0.7,0.7 0 0 1 -0.5,-0.21 z"
       id="path394" />
    <path
       style="fill:#707070"
       inkscape:connector-curvature="0"
       class="cls-10"
       d="m 8.75,153.75 a 0.7,0.7 0 0 1 0.26,-1 H 9 a 0.72,0.72 0 0 1 1,0.25 v 0 a 0.71,0.71 0 0 1 -0.26,1 v 0 a 0.78,0.78 0 0 1 -0.36,0.1 v 0 a 0.72,0.72 0 0 1 -0.63,-0.35 z"
       id="path396" />
    <path
       style="fill:#707070"
       inkscape:connector-curvature="0"
       class="cls-10"
       d="m 32.8,154 a 0.73,0.73 0 0 1 -0.26,-1 v 0 a 0.72,0.72 0 0 1 1,-0.26 v 0 a 0.72,0.72 0 0 1 0.26,1 v 0 a 0.7,0.7 0 0 1 -0.62,0.35 v 0 A 0.77,0.77 0 0 1 32.8,154 Z"
       id="path398" />
    <path
       style="fill:#707070"
       inkscape:connector-curvature="0"
       class="cls-10"
       d="m 7.3,150.27 a 0.72,0.72 0 0 1 0.5,-0.88 v 0 a 0.72,0.72 0 0 1 0.88,0.51 v 0 a 0.7,0.7 0 0 1 -0.5,0.87 v 0 a 0.62,0.62 0 0 1 -0.19,0 H 8 a 0.71,0.71 0 0 1 -0.7,-0.5 z"
       id="path400" />
    <path
       style="fill:#707070"
       inkscape:connector-curvature="0"
       class="cls-10"
       d="m 34.35,150.75 a 0.72,0.72 0 0 1 -0.5,-0.88 v 0 a 0.71,0.71 0 0 1 0.87,-0.51 v 0 a 0.73,0.73 0 0 1 0.51,0.88 v 0 a 0.73,0.73 0 0 1 -0.7,0.53 v 0 z"
       id="path402" />
    <path
       style="fill:#707070"
       inkscape:connector-curvature="0"
       class="cls-10"
       d="m 6.8,146.53 a 0.71,0.71 0 0 1 0.72,-0.71 v 0 a 0.7,0.7 0 0 1 0.71,0.71 v 0 a 0.71,0.71 0 0 1 -0.71,0.72 v 0 A 0.73,0.73 0 0 1 6.8,146.53 Z"
       id="path404" />
    <path
       style="fill:#707070"
       inkscape:connector-curvature="0"
       class="cls-10"
       d="m 34.29,146.5 v 0 0 0 a 0.71,0.71 0 0 1 0.7,-0.72 v 0 a 0.73,0.73 0 0 1 0.73,0.72 v 0 0 0 0 0 A 0.73,0.73 0 0 1 35,147.22 v 0 a 0.71,0.71 0 0 1 -0.71,-0.72 z"
       id="path406" />
    <path
       style="fill:#707070"
       inkscape:connector-curvature="0"
       class="cls-10"
       d="m 7.79,143.66 a 0.69,0.69 0 0 1 -0.5,-0.86 v 0 a 0.71,0.71 0 0 1 0.87,-0.52 v 0 a 0.73,0.73 0 0 1 0.51,0.88 v 0 a 0.71,0.71 0 0 1 -0.69,0.53 H 8 a 0.63,0.63 0 0 1 -0.21,-0.03 z"
       id="path408" />
    <path
       style="fill:#707070"
       inkscape:connector-curvature="0"
       class="cls-10"
       d="m 33.83,143.08 a 0.72,0.72 0 0 1 0.5,-0.88 v 0 a 0.72,0.72 0 0 1 0.88,0.51 v 0 a 0.72,0.72 0 0 1 -0.5,0.88 v 0 h -0.19 v 0 a 0.71,0.71 0 0 1 -0.69,-0.51 z"
       id="path410" />
    <path
       style="fill:#707070"
       inkscape:connector-curvature="0"
       class="cls-10"
       d="m 9,140.28 a 0.71,0.71 0 0 1 -0.27,-1 v 0 a 0.71,0.71 0 0 1 1,-0.27 v 0 a 0.71,0.71 0 0 1 0.26,1 v 0 a 0.71,0.71 0 0 1 -0.62,0.36 v 0 A 0.63,0.63 0 0 1 9,140.28 Z"
       id="path412" />
    <path
       style="fill:#707070"
       inkscape:connector-curvature="0"
       class="cls-10"
       d="m 32.51,139.94 a 0.73,0.73 0 0 1 0.26,-1 v 0 a 0.72,0.72 0 0 1 1,0.26 v 0 a 0.71,0.71 0 0 1 -0.25,1 v 0 a 0.71,0.71 0 0 1 -0.37,0.1 v 0 a 0.73,0.73 0 0 1 -0.64,-0.36 z"
       id="path414" />
    <path
       style="fill:#707070"
       inkscape:connector-curvature="0"
       class="cls-10"
       d="m 11,137.31 a 0.69,0.69 0 0 1 0,-1 v 0 a 0.73,0.73 0 0 1 1,0 v 0 a 0.73,0.73 0 0 1 0,1 v 0 a 0.7,0.7 0 0 1 -0.51,0.21 v 0 A 0.65,0.65 0 0 1 11,137.31 Z"
       id="path416" />
    <path
       style="fill:#707070"
       inkscape:connector-curvature="0"
       class="cls-10"
       d="m 30.44,137.26 a 0.71,0.71 0 0 1 0,-1 v 0 a 0.71,0.71 0 0 1 1,0 v 0 a 0.73,0.73 0 0 1 0,1 v 0 a 0.73,0.73 0 0 1 -0.51,0.21 v 0 a 0.7,0.7 0 0 1 -0.49,-0.21 z"
       id="path418" />
    <path
       style="fill:#707070"
       inkscape:connector-curvature="0"
       class="cls-10"
       d="M 13.74,135 A 0.7,0.7 0 0 1 14,134 v 0 a 0.71,0.71 0 0 1 1,0.25 v 0 a 0.72,0.72 0 0 1 -0.25,1 v 0 a 0.81,0.81 0 0 1 -0.37,0.09 v 0 A 0.7,0.7 0 0 1 13.74,135 Z"
       id="path420" />
    <path
       style="fill:#707070"
       inkscape:connector-curvature="0"
       class="cls-10"
       d="m 27.74,135.2 a 0.7,0.7 0 0 1 -0.27,-1 v 0 a 0.7,0.7 0 0 1 1,-0.27 v 0 a 0.7,0.7 0 0 1 0.27,1 v 0 a 0.71,0.71 0 0 1 -0.62,0.36 v 0 a 0.7,0.7 0 0 1 -0.38,-0.09 z"
       id="path422" />
    <path
       style="fill:#707070"
       inkscape:connector-curvature="0"
       class="cls-10"
       d="m 17,133.42 a 0.71,0.71 0 0 1 0.51,-0.87 v 0 a 0.72,0.72 0 0 1 0.88,0.5 v 0 a 0.74,0.74 0 0 1 -0.51,0.88 v 0 h -0.19 v 0 A 0.72,0.72 0 0 1 17,133.42 Z"
       id="path424" />
    <path
       style="fill:#707070"
       inkscape:connector-curvature="0"
       class="cls-10"
       d="m 24.59,133.91 a 0.71,0.71 0 0 1 -0.5,-0.88 v 0 a 0.7,0.7 0 0 1 0.86,-0.51 v 0 a 0.71,0.71 0 0 1 0.52,0.87 v 0 a 0.73,0.73 0 0 1 -0.7,0.53 v 0 z"
       id="path426" />
    <path
       style="fill:#b3b3b3"
       inkscape:connector-curvature="0"
       class="cls-4"
       d="m 20.5,132.77 a 0.72,0.72 0 0 1 0.72,-0.72 v 0 a 0.71,0.71 0 0 1 0.71,0.71 v 0 a 0.71,0.71 0 0 1 -0.71,0.72 v 0 a 0.72,0.72 0 0 1 -0.72,-0.71 z"
       id="path428" />
  </g>
  <g
     id="Freq_Knob"
     data-name="Freq Knob"
     transform="scale(1.3333333)">
    <circle
       id="path5084"
       class="cls-11"
       cx="43.200001"
       cy="63.75"
       r="16.33"
       style="fill:url(#linear-gradient-2)" />
    <circle
       id="path5086"
       class="cls-12"
       cx="43.200001"
       cy="63.75"
       r="14.41"
       style="fill:url(#linear-gradient-3)" />
    <circle
       style="fill:none"
       id="path5084-2"
       data-name="path5084"
       class="cls-13"
       cx="43.200001"
       cy="63.75"
       r="16.33" />
  </g>
</svg>
