<?xml version="1.0" encoding="UTF-8" standalone="no"?>
<svg
   inkscape:version="1.2.1 (9c6d41e410, 2022-07-14)"
   height="128.5mm"
   width="142.24001mm"
   sodipodi:docname="eqmaster.svg"
   id="svg2248"
   version="1.1"
   viewBox="0 0 537.60002 485.66928"
   xmlns:inkscape="http://www.inkscape.org/namespaces/inkscape"
   xmlns:sodipodi="http://sodipodi.sourceforge.net/DTD/sodipodi-0.dtd"
   xmlns="http://www.w3.org/2000/svg"
   xmlns:svg="http://www.w3.org/2000/svg"
   xmlns:rdf="http://www.w3.org/1999/02/22-rdf-syntax-ns#"
   xmlns:cc="http://creativecommons.org/ns#"
   xmlns:dc="http://purl.org/dc/elements/1.1/">
  <metadata
     id="metadata2252">
    <rdf:RDF>
      <cc:Work
         rdf:about="">
        <dc:format>image/svg+xml</dc:format>
        <dc:type
           rdf:resource="http://purl.org/dc/dcmitype/StillImage" />
        <dc:title>Asset 38</dc:title>
      </cc:Work>
    </rdf:RDF>
  </metadata>
  <sodipodi:namedview
     inkscape:current-layer="svg2248"
     inkscape:window-maximized="1"
     inkscape:window-y="-8"
     inkscape:window-x="-8"
     inkscape:cy="339.24544"
     inkscape:cx="269.04634"
     inkscape:zoom="1.6595654"
     inkscape:document-units="mm"
     units="mm"
     showgrid="false"
     id="namedview2250"
     inkscape:window-height="1009"
     inkscape:window-width="1920"
     inkscape:pageshadow="2"
     inkscape:pageopacity="0"
     guidetolerance="10"
     gridtolerance="10"
     objecttolerance="10"
     borderopacity="1"
     inkscape:document-rotation="0"
     bordercolor="#666666"
     pagecolor="#ffffff"
     inkscape:showpageshadow="2"
     inkscape:pagecheckerboard="0"
     inkscape:deskcolor="#d1d1d1" />
  <defs
     id="defs1247">
    <style
       id="style1230">.cls-1{fill:#353535;}.cls-2{fill:url(#linear-gradient);}.cls-3{fill:gray;}.cls-4{fill:#b3b3b3;}.cls-5{fill:#424242;}.cls-6{fill:#212121;}.cls-7{fill:#1a1a1a;}.cls-8{fill:#ccc;}.cls-9{fill:#707070;}.cls-10{fill:#121212;}.cls-11,.cls-12,.cls-13,.cls-15,.cls-16{fill:none;}.cls-11{stroke:#353535;stroke-width:0.85px;}.cls-12,.cls-13{stroke:#fff;}.cls-12{stroke-width:0.28px;}.cls-13{stroke-width:0.28px;}.cls-14{fill:#fff;}.cls-15,.cls-16{stroke:#5a5a5a;}.cls-15{stroke-width:0.47px;}.cls-16{stroke-linecap:square;stroke-width:0.49px;}.cls-17{fill:#5a5a5a;}.cls-18{isolation:isolate;}.cls-19{fill:url(#linear-gradient-2);}.cls-20{fill:url(#linear-gradient-3);}</style>
    <linearGradient
       gradientUnits="userSpaceOnUse"
       y2="349.56"
       x2="199.34"
       y1="349.56"
       x1="179.56"
       id="linear-gradient">
      <stop
         id="stop1232"
         stop-color="#3fa9f5"
         offset="0" />
      <stop
         id="stop1234"
         stop-color="#ed1e79"
         offset="1" />
    </linearGradient>
    <linearGradient
       gradientUnits="userSpaceOnUse"
       y2="78.800003"
       x2="23.5"
       y1="49.889999"
       x1="23.5"
       id="linear-gradient-2">
      <stop
         id="stop1237"
         stop-color="#b3b3b3"
         offset="0" />
      <stop
         id="stop1239"
         offset="1" />
    </linearGradient>
    <linearGradient
       gradientUnits="userSpaceOnUse"
       y2="77.099998"
       x2="23.5"
       y1="51.59"
       x1="23.5"
       id="linear-gradient-3">
      <stop
         id="stop1242"
         stop-color="#e6e6e6"
         offset="0" />
      <stop
         id="stop1244"
         stop-color="#999"
         offset="1" />
    </linearGradient>
  </defs>
  <title
     id="title1249">Asset 38</title>
  <g
     id="Background"
     transform="scale(1.3333333,1.3333406)">
    <rect
       style="fill:#353535"
       class="cls-1"
       width="403.20001"
       height="364.25"
       id="rect1251"
       x="0"
       y="0" />
  </g>
  <g
     id="branding"
     transform="scale(1.3333333,1.3333406)">
    <path
       class="cls-2"
       d="m 180.07,355.74 a 0.47,0.47 0 0 1 -0.25,-0.07 0.51,0.51 0 0 1 -0.2,-0.7 l 6.25,-11.32 a 0.52,0.52 0 0 1 1,0.25 v 9.33 l 5.29,-9.58 a 0.51,0.51 0 0 1 0.58,-0.25 0.52,0.52 0 0 1 0.38,0.5 v 9.33 l 5.29,-9.58 a 0.51,0.51 0 0 1 0.58,-0.25 0.5,0.5 0 0 1 0.38,0.5 v 11.32 a 0.51,0.51 0 1 1 -1,0 v -9.33 l -5.37,9.58 a 0.52,0.52 0 0 1 -1,-0.25 v -9.33 l -5.29,9.58 a 0.5,0.5 0 0 1 -0.57,0.25 0.51,0.51 0 0 1 -0.39,-0.5 v -9.33 l -5.29,9.58 a 0.51,0.51 0 0 1 -0.39,0.27 z"
       id="path1254"
       inkscape:connector-curvature="0"
       style="fill:url(#linear-gradient)" />
    <path
       style="fill:#808080"
       class="cls-3"
       d="M 206.88,348.62 Z"
       id="path1256"
       inkscape:connector-curvature="0" />
    <path
       style="fill:#b3b3b3"
       class="cls-4"
       d="m 206.88,343.4 h -0.11 a 0.48,0.48 0 0 0 -0.45,0.25 l -1.72,2.69 -1.71,-2.68 a 0.53,0.53 0 0 0 -0.46,-0.26 h -0.1 a 0.49,0.49 0 0 0 -0.5,0.5 v 4.73 a 0.47,0.47 0 0 0 0.48,0.48 0.48,0.48 0 0 0 0.49,-0.48 v -3.38 l 1.37,2.06 a 0.5,0.5 0 0 0 0.42,0.26 0.47,0.47 0 0 0 0.41,-0.26 l 1.38,-2.08 v 3.39 a 0.5,0.5 0 0 0 0.5,0.49 0.49,0.49 0 0 0 0.5,-0.49 v -4.72 a 0.5,0.5 0 0 0 -0.5,-0.5 z"
       id="path1258"
       inkscape:connector-curvature="0" />
    <path
       style="fill:#808080"
       class="cls-3"
       d="m 208.48,343.88 a 0.5,0.5 0 0 1 1,0 v 4.74 a 0.5,0.5 0 0 1 -1,0 z"
       id="path1260"
       inkscape:connector-curvature="0" />
    <path
       style="fill:#b3b3b3"
       class="cls-4"
       d="m 209,343.39 a 0.49,0.49 0 0 0 -0.5,0.49 v 4.74 a 0.5,0.5 0 0 0 1,0 v -4.74 a 0.49,0.49 0 0 0 -0.5,-0.49 z"
       id="path1262"
       inkscape:connector-curvature="0" />
    <path
       style="fill:#808080"
       class="cls-3"
       d="m 210.58,343.9 a 0.5,0.5 0 0 1 0.5,-0.5 h 0.11 a 0.61,0.61 0 0 1 0.51,0.29 l 2.83,3.65 v -3.47 a 0.47,0.47 0 0 1 0.48,-0.48 0.48,0.48 0 0 1 0.49,0.48 v 4.74 a 0.48,0.48 0 0 1 -0.48,0.5 v 0 a 0.65,0.65 0 0 1 -0.52,-0.3 l -2.9,-3.76 v 3.58 a 0.5,0.5 0 0 1 -1,0 z"
       id="path1264"
       inkscape:connector-curvature="0" />
    <path
       style="fill:#b3b3b3"
       class="cls-4"
       d="m 215,343.39 a 0.47,0.47 0 0 0 -0.48,0.48 v 3.47 l -2.83,-3.65 a 0.61,0.61 0 0 0 -0.51,-0.29 h -0.11 a 0.5,0.5 0 0 0 -0.5,0.5 v 4.73 a 0.5,0.5 0 0 0 1,0 v -3.58 l 2.9,3.76 a 0.65,0.65 0 0 0 0.52,0.3 v 0 a 0.48,0.48 0 0 0 0.48,-0.5 v -4.74 a 0.48,0.48 0 0 0 -0.49,-0.48 z"
       id="path1266"
       inkscape:connector-curvature="0" />
    <path
       style="fill:#808080"
       class="cls-3"
       d="m 220.9,347.32 a 2.53,2.53 0 0 0 0.22,-1.05 2.48,2.48 0 0 0 -0.53,-1.57 2.24,2.24 0 0 1 0.57,1.53 2.28,2.28 0 0 1 -0.26,1.09 z"
       id="path1268"
       inkscape:connector-curvature="0" />
    <path
       style="fill:#b3b3b3"
       class="cls-4"
       d="m 218.66,343.43 h -1.61 a 0.5,0.5 0 0 0 -0.5,0.5 v 4.64 a 0.49,0.49 0 0 0 0.5,0.5 h 1.61 a 2.83,2.83 0 0 0 3,-2.82 v 0 a 2.81,2.81 0 0 0 -3,-2.8 z m -1.11,4.74 v -3.84 h 1.11 a 1.86,1.86 0 0 1 2,1.92 v 0 a 1.84,1.84 0 0 1 -2,1.9 z"
       id="path1270"
       inkscape:connector-curvature="0" />
    <path
       style="fill:#808080"
       class="cls-3"
       d="M 206.88,355.23 Z"
       id="path1272"
       inkscape:connector-curvature="0" />
    <path
       style="fill:#b3b3b3"
       class="cls-4"
       d="m 206.88,350 h -0.11 a 0.49,0.49 0 0 0 -0.45,0.26 l -1.72,2.74 -1.71,-2.68 a 0.53,0.53 0 0 0 -0.46,-0.26 h -0.1 a 0.49,0.49 0 0 0 -0.5,0.5 v 4.73 a 0.48,0.48 0 0 0 0.48,0.49 0.48,0.48 0 0 0 0.49,-0.49 v -3.38 l 1.37,2.06 a 0.5,0.5 0 0 0 0.42,0.26 0.47,0.47 0 0 0 0.41,-0.26 l 1.38,-2.07 v 3.38 a 0.51,0.51 0 0 0 0.5,0.5 0.5,0.5 0 0 0 0.5,-0.5 v -4.72 a 0.5,0.5 0 0 0 -0.5,-0.5 z"
       id="path1274"
       inkscape:connector-curvature="0" />
    <path
       style="fill:#808080"
       class="cls-3"
       d="m 208.43,355.19 v -4.65 a 0.5,0.5 0 0 1 0.5,-0.5 h 3.28 a 0.45,0.45 0 0 1 0,0.89 h -2.79 v 1.46 h 2.43 a 0.45,0.45 0 0 1 0.44,0.46 0.44,0.44 0 0 1 -0.44,0.43 h -2.43 v 1.52 h 2.83 a 0.45,0.45 0 0 1 0,0.89 h -3.32 a 0.5,0.5 0 0 1 -0.5,-0.5 z"
       id="path1276"
       inkscape:connector-curvature="0" />
    <path
       style="fill:#b3b3b3"
       class="cls-4"
       d="m 212.21,350 h -3.28 a 0.5,0.5 0 0 0 -0.5,0.5 v 4.65 a 0.5,0.5 0 0 0 0.5,0.5 h 3.32 a 0.45,0.45 0 0 0 0,-0.89 h -2.83 v -1.52 h 2.43 a 0.44,0.44 0 0 0 0.44,-0.43 0.45,0.45 0 0 0 -0.44,-0.46 h -2.43 v -1.46 h 2.79 a 0.45,0.45 0 0 0 0,-0.89 z"
       id="path1278"
       inkscape:connector-curvature="0" />
    <path
       style="fill:#808080"
       class="cls-3"
       d="m 213.43,350.49 a 0.49,0.49 0 0 1 0.5,-0.49 0.48,0.48 0 0 1 0.49,0.49 v 4.29 H 217 a 0.45,0.45 0 0 1 0.45,0.45 0.46,0.46 0 0 1 -0.45,0.46 h -3 a 0.5,0.5 0 0 1 -0.5,-0.5 z"
       id="path1280"
       inkscape:connector-curvature="0" />
    <path
       style="fill:#b3b3b3"
       class="cls-4"
       d="m 213.93,350 a 0.49,0.49 0 0 0 -0.5,0.49 v 4.7 a 0.5,0.5 0 0 0 0.5,0.5 h 3 a 0.46,0.46 0 0 0 0.45,-0.46 0.45,0.45 0 0 0 -0.45,-0.45 h -2.56 v -4.29 A 0.48,0.48 0 0 0 213.88,350 Z"
       id="path1282"
       inkscape:connector-curvature="0" />
    <path
       style="fill:#808080"
       class="cls-3"
       d="m 222.38,353.92 a 2.68,2.68 0 0 0 0.21,-1 2.41,2.41 0 0 0 -0.53,-1.56 2.22,2.22 0 0 1 0.57,1.53 2.34,2.34 0 0 1 -0.25,1.03 z"
       id="path1284"
       inkscape:connector-curvature="0" />
    <path
       style="fill:#b3b3b3"
       class="cls-4"
       d="m 220.13,350 h -1.61 a 0.5,0.5 0 0 0 -0.5,0.5 v 4.65 a 0.5,0.5 0 0 0 0.5,0.5 h 1.61 a 2.83,2.83 0 0 0 3,-2.83 v 0 a 2.82,2.82 0 0 0 -3,-2.81 z m -1.13,4.78 v -3.84 h 1.12 a 1.86,1.86 0 0 1 2,1.92 v 0 a 1.84,1.84 0 0 1 -2,1.9 z"
       id="path1286"
       inkscape:connector-curvature="0" />
    <path
       style="fill:#b3b3b3"
       class="cls-4"
       d="m 167,17 h 4 v 1.79 h -5.9 V 9.31 h 5.81 v 1.8 H 167 v 2 h 3.6 V 14.9 H 167 Z"
       id="path1288"
       inkscape:connector-curvature="0" />
    <path
       style="fill:#b3b3b3"
       class="cls-4"
       d="m 181.32,17.27 1,1 -1.32,1.2 -1,-1.07 a 4.83,4.83 0 0 1 -2.39,0.61 4.88,4.88 0 0 1 -4.93,-4.94 4.92,4.92 0 0 1 4.93,-5 4.93,4.93 0 0 1 4.94,5 4.75,4.75 0 0 1 -1.23,3.2 z m -2.71,-0.27 -1.56,-1.63 1.33,-1.18 1.67,1.74 a 3.2,3.2 0 0 0 0.57,-1.86 3,3 0 0 0 -0.88,-2.24 3.14,3.14 0 0 0 -4.38,0 3,3 0 0 0 -0.88,2.24 3.07,3.07 0 0 0 0.88,2.23 3,3 0 0 0 2.19,0.88 3.32,3.32 0 0 0 1.06,-0.18 z"
       id="path1290"
       inkscape:connector-curvature="0" />
    <path
       style="fill:#808080"
       class="cls-3"
       d="m 194,9.31 v 9.51 h -1.87 v -6.16 l -2.67,4.41 h -0.22 l -2.67,-4.4 v 6.15 H 184.7 V 9.31 h 1.93 l 2.73,4.5 2.72,-4.5 z"
       id="path1292"
       inkscape:connector-curvature="0" />
    <path
       style="fill:#808080"
       class="cls-3"
       d="m 202.71,18.82 -0.57,-1.71 h -3.79 l -0.57,1.71 h -2 l 3.33,-9.51 h 2.32 l 3.34,9.51 z m -3.77,-3.46 h 2.61 l -1.3,-3.89 z"
       id="path1294"
       inkscape:connector-curvature="0" />
    <path
       style="fill:#808080"
       class="cls-3"
       d="m 205.79,16.66 1.6,-0.94 a 2.14,2.14 0 0 0 2.19,1.46 c 1,0 1.52,-0.42 1.52,-1 a 0.84,0.84 0 0 0 -0.45,-0.77 6.77,6.77 0 0 0 -1.6,-0.61 5.88,5.88 0 0 1 -2,-0.89 2.26,2.26 0 0 1 -0.9,-2 2.51,2.51 0 0 1 0.91,-2 3.32,3.32 0 0 1 2.21,-0.78 3.63,3.63 0 0 1 3.4,2.14 l -1.57,0.91 a 1.92,1.92 0 0 0 -1.83,-1.23 c -0.77,0 -1.24,0.4 -1.24,1 a 0.9,0.9 0 0 0 0.36,0.73 6.34,6.34 0 0 0 1.44,0.6 l 0.65,0.21 c 0.15,0 0.36,0.13 0.62,0.23 a 2.69,2.69 0 0 1 0.59,0.29 2.88,2.88 0 0 1 0.9,0.84 2.63,2.63 0 0 1 0.35,1.35 2.55,2.55 0 0 1 -1,2.09 3.88,3.88 0 0 1 -2.49,0.77 3.67,3.67 0 0 1 -3.66,-2.4 z"
       id="path1296"
       inkscape:connector-curvature="0" />
    <path
       style="fill:#808080"
       class="cls-3"
       d="m 221,9.31 v 1.8 h -2.6 v 7.71 h -1.87 V 11.11 H 214 v -1.8 z"
       id="path1298"
       inkscape:connector-curvature="0" />
    <path
       style="fill:#808080"
       class="cls-3"
       d="m 224.71,17 h 4 v 1.79 h -5.88 V 9.31 h 5.81 v 1.8 h -3.94 v 2 h 3.6 v 1.79 h -3.6 z"
       id="path1300"
       inkscape:connector-curvature="0" />
    <path
       style="fill:#808080"
       class="cls-3"
       d="m 236.08,18.82 -1.92,-3.3 h -1.42 v 3.3 h -1.88 V 9.31 h 3.81 a 3.1,3.1 0 0 1 1.33,5.93 l 2.1,3.58 z m -3.34,-7.75 v 2.81 h 1.93 a 1.37,1.37 0 0 0 1.33,-1.41 1.35,1.35 0 0 0 -1.29,-1.4 z"
       id="path1302"
       inkscape:connector-curvature="0" />
  </g>
  <g
     id="EQ_bgs_copy"
     data-name="EQ bgs copy"
     transform="scale(1.3333333,1.3333406)">
    <rect
       style="fill:#424242"
       class="cls-5"
       x="282.70001"
       y="224.17999"
       width="73.699997"
       height="112"
       rx="3.26"
       id="rect1305" />
    <rect
       style="fill:#424242"
       class="cls-5"
       x="204.07001"
       y="224.17999"
       width="73.699997"
       height="112"
       rx="3.26"
       id="rect1307" />
    <rect
       style="fill:#424242"
       class="cls-5"
       x="125.43"
       y="224.17999"
       width="73.699997"
       height="112"
       rx="3.26"
       id="rect1309" />
    <rect
       style="fill:#424242"
       class="cls-5"
       x="46.799999"
       y="224.17999"
       width="73.699997"
       height="112"
       rx="3.26"
       id="rect1311" />
    <path
       style="fill:#212121"
       class="cls-6"
       d="m 46.8,239.57 v -13.41 a 3.45,3.45 0 0 1 3.26,-3.6 h 67.18 a 3.45,3.45 0 0 1 3.26,3.6 v 13.41 z"
       id="path1313"
       inkscape:connector-curvature="0" />
    <path
       style="fill:#212121"
       class="cls-6"
       d="m 125.43,239.57 v -13.41 a 3.45,3.45 0 0 1 3.26,-3.6 h 67.19 a 3.45,3.45 0 0 1 3.25,3.6 v 13.41 z"
       id="path1315"
       inkscape:connector-curvature="0" />
    <path
       style="fill:#212121"
       class="cls-6"
       d="m 204.07,239.57 v -13.41 a 3.45,3.45 0 0 1 3.25,-3.6 h 67.19 a 3.45,3.45 0 0 1 3.26,3.6 v 13.41 z"
       id="path1317"
       inkscape:connector-curvature="0" />
    <path
       style="fill:#212121"
       class="cls-6"
       d="m 282.7,239.57 v -13.41 a 3.45,3.45 0 0 1 3.26,-3.6 h 67.18 a 3.45,3.45 0 0 1 3.26,3.6 v 13.41 z"
       id="path1319"
       inkscape:connector-curvature="0" />
  </g>
  <g
     id="EQ_Value_BGs"
     data-name="EQ Value BGs"
     transform="scale(1.3333333,1.3333406)">
    <rect
       style="fill:#1a1a1a"
       class="cls-7"
       x="86.32"
       y="256.09"
       width="29.32"
       height="10.89"
       rx="1.02"
       id="rect1322" />
    <path
       d="m 114.62,256.32 a 0.79,0.79 0 0 1 0.79,0.79 V 266 a 0.79,0.79 0 0 1 -0.79,0.79 H 87.33 A 0.79,0.79 0 0 1 86.54,266 v -8.86 a 0.79,0.79 0 0 1 0.79,-0.79 h 27.29 m 0,-0.45 H 87.33 a 1.25,1.25 0 0 0 -1.24,1.24 V 266 a 1.25,1.25 0 0 0 1.24,1.24 h 27.29 a 1.25,1.25 0 0 0 1.24,-1.24 v -8.86 a 1.25,1.25 0 0 0 -1.24,-1.24 z"
       id="path1324"
       inkscape:connector-curvature="0" />
    <rect
       style="fill:#1a1a1a"
       class="cls-7"
       x="51.369999"
       y="286.09"
       width="29.32"
       height="10.89"
       rx="1.02"
       id="rect1326" />
    <path
       d="m 79.67,286.32 a 0.79,0.79 0 0 1 0.79,0.79 V 296 a 0.79,0.79 0 0 1 -0.79,0.79 H 52.38 A 0.79,0.79 0 0 1 51.59,296 v -8.86 a 0.79,0.79 0 0 1 0.79,-0.79 h 27.29 m 0,-0.45 H 52.38 a 1.25,1.25 0 0 0 -1.24,1.24 V 296 a 1.25,1.25 0 0 0 1.24,1.24 H 79.67 A 1.25,1.25 0 0 0 80.91,296 v -8.86 a 1.25,1.25 0 0 0 -1.24,-1.24 z"
       id="path1328"
       inkscape:connector-curvature="0" />
    <rect
       style="fill:#1a1a1a"
       class="cls-7"
       x="86.32"
       y="316.09"
       width="29.32"
       height="10.89"
       rx="1.02"
       id="rect1330" />
    <path
       d="m 114.62,316.32 a 0.79,0.79 0 0 1 0.79,0.79 V 326 a 0.79,0.79 0 0 1 -0.79,0.79 H 87.33 A 0.79,0.79 0 0 1 86.54,326 v -8.86 a 0.79,0.79 0 0 1 0.79,-0.79 h 27.29 m 0,-0.45 H 87.33 a 1.24,1.24 0 0 0 -1.23,1.24 V 326 a 1.24,1.24 0 0 0 1.23,1.24 h 27.29 a 1.25,1.25 0 0 0 1.24,-1.24 v -8.86 a 1.25,1.25 0 0 0 -1.24,-1.24 z"
       id="path1332"
       inkscape:connector-curvature="0" />
    <path
       style="fill:#1a1a1a"
       class="cls-7"
       d="m 166,256.09 h 27.29 a 1,1 0 0 1 1,1 V 266 a 1,1 0 0 1 -1,1 H 166 a 1,1 0 0 1 -1,-1 v -8.86 a 1,1 0 0 1 1,-1.05 z"
       id="path1334"
       inkscape:connector-curvature="0" />
    <path
       d="m 193.25,256.32 a 0.79,0.79 0 0 1 0.79,0.79 V 266 a 0.79,0.79 0 0 1 -0.79,0.79 H 166 A 0.79,0.79 0 0 1 165.21,266 v -8.86 a 0.79,0.79 0 0 1 0.79,-0.79 h 27.29 m 0,-0.45 H 166 a 1.24,1.24 0 0 0 -1.23,1.24 V 266 a 1.24,1.24 0 0 0 1.23,1.24 h 27.29 a 1.25,1.25 0 0 0 1.24,-1.24 v -8.86 a 1.25,1.25 0 0 0 -1.24,-1.24 z"
       id="path1336"
       inkscape:connector-curvature="0" />
    <rect
       style="fill:#1a1a1a"
       class="cls-7"
       x="130"
       y="286.09"
       width="29.32"
       height="10.89"
       rx="1.02"
       id="rect1338" />
    <path
       d="m 158.3,286.32 a 0.79,0.79 0 0 1 0.79,0.79 V 296 a 0.79,0.79 0 0 1 -0.79,0.79 H 131 A 0.79,0.79 0 0 1 130.21,296 v -8.86 a 0.79,0.79 0 0 1 0.79,-0.79 h 27.3 m 0,-0.45 H 131 a 1.24,1.24 0 0 0 -1.23,1.24 V 296 a 1.24,1.24 0 0 0 1.23,1.24 h 27.3 a 1.25,1.25 0 0 0 1.24,-1.24 v -8.86 a 1.25,1.25 0 0 0 -1.24,-1.24 z"
       id="path1340"
       inkscape:connector-curvature="0" />
    <rect
       style="fill:#1a1a1a"
       class="cls-7"
       x="164.95"
       y="316.09"
       width="29.32"
       height="10.89"
       rx="1.02"
       id="rect1342" />
    <path
       d="m 193.25,316.32 a 0.79,0.79 0 0 1 0.8,0.79 V 326 a 0.79,0.79 0 0 1 -0.8,0.79 H 166 A 0.79,0.79 0 0 1 165.2,326 v -8.86 a 0.79,0.79 0 0 1 0.8,-0.79 h 27.28 m 0,-0.45 H 166 a 1.25,1.25 0 0 0 -1.24,1.24 V 326 a 1.25,1.25 0 0 0 1.24,1.24 h 27.28 a 1.25,1.25 0 0 0 1.24,-1.24 v -8.86 a 1.25,1.25 0 0 0 -1.24,-1.24 z"
       id="path1344"
       inkscape:connector-curvature="0" />
    <path
       style="fill:#1a1a1a"
       class="cls-7"
       d="m 244.6,256.09 h 27.29 a 1,1 0 0 1 1,1 V 266 a 1,1 0 0 1 -1,1 H 244.6 a 1,1 0 0 1 -1,-1 v -8.86 a 1,1 0 0 1 1,-1.05 z"
       id="path1346"
       inkscape:connector-curvature="0" />
    <path
       d="m 271.88,256.32 a 0.79,0.79 0 0 1 0.8,0.79 V 266 a 0.79,0.79 0 0 1 -0.8,0.79 H 244.6 A 0.79,0.79 0 0 1 243.81,266 v -8.86 a 0.79,0.79 0 0 1 0.79,-0.79 h 27.28 m 0,-0.45 H 244.6 a 1.25,1.25 0 0 0 -1.24,1.24 V 266 a 1.25,1.25 0 0 0 1.24,1.24 h 27.28 a 1.24,1.24 0 0 0 1.24,-1.24 v -8.86 a 1.24,1.24 0 0 0 -1.24,-1.24 z"
       id="path1348"
       inkscape:connector-curvature="0" />
    <path
       style="fill:#1a1a1a"
       class="cls-7"
       d="m 209.65,286.09 h 27.29 a 1,1 0 0 1 1,1 V 296 a 1,1 0 0 1 -1,1 h -27.29 a 1,1 0 0 1 -1,-1 v -8.86 a 1,1 0 0 1 1,-1.05 z"
       id="path1350"
       inkscape:connector-curvature="0" />
    <path
       d="m 236.93,286.32 a 0.79,0.79 0 0 1 0.8,0.79 V 296 a 0.79,0.79 0 0 1 -0.8,0.79 h -27.28 a 0.79,0.79 0 0 1 -0.8,-0.79 v -8.86 a 0.79,0.79 0 0 1 0.8,-0.79 h 27.28 m 0,-0.45 h -27.28 a 1.25,1.25 0 0 0 -1.24,1.24 V 296 a 1.25,1.25 0 0 0 1.24,1.24 h 27.28 a 1.24,1.24 0 0 0 1.24,-1.24 v -8.86 a 1.24,1.24 0 0 0 -1.24,-1.24 z"
       id="path1352"
       inkscape:connector-curvature="0" />
    <rect
       style="fill:#1a1a1a"
       class="cls-7"
       x="243.58"
       y="316.09"
       width="29.32"
       height="10.89"
       rx="1.02"
       id="rect1354" />
    <path
       d="m 271.89,316.32 a 0.79,0.79 0 0 1 0.79,0.79 V 326 a 0.79,0.79 0 0 1 -0.79,0.79 H 244.6 A 0.79,0.79 0 0 1 243.81,326 v -8.86 a 0.79,0.79 0 0 1 0.79,-0.79 h 27.29 m 0,-0.45 H 244.6 a 1.25,1.25 0 0 0 -1.24,1.24 V 326 a 1.25,1.25 0 0 0 1.24,1.24 h 27.29 a 1.24,1.24 0 0 0 1.23,-1.24 v -8.86 a 1.24,1.24 0 0 0 -1.23,-1.24 z"
       id="path1356"
       inkscape:connector-curvature="0" />
    <rect
       style="fill:#1a1a1a"
       class="cls-7"
       x="322.22"
       y="256.09"
       width="29.32"
       height="10.89"
       rx="1.02"
       id="rect1358" />
    <path
       d="m 350.52,256.32 a 0.79,0.79 0 0 1 0.79,0.79 V 266 a 0.79,0.79 0 0 1 -0.79,0.79 H 323.23 A 0.79,0.79 0 0 1 322.44,266 v -8.86 a 0.79,0.79 0 0 1 0.79,-0.79 h 27.29 m 0,-0.45 h -27.29 a 1.25,1.25 0 0 0 -1.24,1.24 V 266 a 1.25,1.25 0 0 0 1.24,1.24 h 27.29 a 1.25,1.25 0 0 0 1.24,-1.24 v -8.86 a 1.25,1.25 0 0 0 -1.24,-1.24 z"
       id="path1360"
       inkscape:connector-curvature="0" />
    <path
       style="fill:#1a1a1a"
       class="cls-7"
       d="m 288.28,286.09 h 27.29 a 1,1 0 0 1 1,1 V 296 a 1,1 0 0 1 -1,1 h -27.29 a 1,1 0 0 1 -1,-1 v -8.86 a 1,1 0 0 1 1,-1.05 z"
       id="path1362"
       inkscape:connector-curvature="0" />
    <path
       d="m 315.57,286.32 a 0.79,0.79 0 0 1 0.79,0.79 V 296 a 0.79,0.79 0 0 1 -0.79,0.79 H 288.28 A 0.79,0.79 0 0 1 287.49,296 v -8.86 a 0.79,0.79 0 0 1 0.79,-0.79 h 27.29 m 0,-0.45 h -27.29 a 1.25,1.25 0 0 0 -1.24,1.24 V 296 a 1.25,1.25 0 0 0 1.24,1.24 h 27.29 a 1.25,1.25 0 0 0 1.24,-1.24 v -8.86 a 1.25,1.25 0 0 0 -1.24,-1.24 z"
       id="path1364"
       inkscape:connector-curvature="0" />
    <path
       style="fill:#1a1a1a"
       class="cls-7"
       d="m 323.23,316.09 h 27.29 a 1,1 0 0 1 1,1 V 326 a 1,1 0 0 1 -1,1 h -27.29 a 1,1 0 0 1 -1,-1 v -8.86 a 1,1 0 0 1 1,-1.05 z"
       id="path1366"
       inkscape:connector-curvature="0" />
    <path
       d="m 350.52,316.32 a 0.79,0.79 0 0 1 0.79,0.79 V 326 a 0.79,0.79 0 0 1 -0.79,0.79 H 323.23 A 0.79,0.79 0 0 1 322.44,326 v -8.86 a 0.79,0.79 0 0 1 0.79,-0.79 h 27.29 m 0,-0.45 h -27.29 a 1.25,1.25 0 0 0 -1.24,1.24 V 326 a 1.25,1.25 0 0 0 1.24,1.24 h 27.29 a 1.25,1.25 0 0 0 1.24,-1.24 v -8.86 a 1.25,1.25 0 0 0 -1.24,-1.24 z"
       id="path1368"
       inkscape:connector-curvature="0" />
  </g>
  <g
     id="EQ_Knob_Titles"
     data-name="EQ Knob Titles"
     transform="scale(1.3333333,1.3333406)">
    <path
       style="fill:#cccccc"
       class="cls-8"
       d="m 89.49,247.93 h -2 v 1.38 h 1.93 v 0.77 h -1.93 v 2 h -0.77 v -4.91 h 2.77 z"
       id="path1371"
       inkscape:connector-curvature="0" />
    <path
       style="fill:#cccccc"
       class="cls-8"
       d="m 90.9,249.15 a 1,1 0 0 1 1,-0.65 v 0.82 a 1,1 0 0 0 -0.73,0.21 0.88,0.88 0 0 0 -0.31,0.77 v 1.77 h -0.73 v -3.51 h 0.73 z"
       id="path1373"
       inkscape:connector-curvature="0" />
    <path
       style="fill:#cccccc"
       class="cls-8"
       d="m 92.9,250.64 a 1,1 0 0 0 1.08,0.82 1,1 0 0 0 0.87,-0.43 l 0.6,0.36 a 1.65,1.65 0 0 1 -1.48,0.77 1.8,1.8 0 0 1 -1.33,-0.52 1.83,1.83 0 0 1 -0.51,-1.33 1.84,1.84 0 0 1 0.5,-1.31 1.71,1.71 0 0 1 1.29,-0.53 1.53,1.53 0 0 1 1.21,0.54 1.91,1.91 0 0 1 0.48,1.31 2.07,2.07 0 0 1 0,0.32 z m 2,-0.62 a 1,1 0 0 0 -1,-0.86 1,1 0 0 0 -1,0.86 z"
       id="path1375"
       inkscape:connector-curvature="0" />
    <path
       style="fill:#cccccc"
       class="cls-8"
       d="m 98.91,248.56 h 0.73 v 4.91 h -0.73 v -1.9 a 1.37,1.37 0 0 1 -1.18,0.59 1.55,1.55 0 0 1 -1.19,-0.54 2,2 0 0 1 0,-2.61 1.55,1.55 0 0 1 1.19,-0.54 1.35,1.35 0 0 1 1.18,0.6 z m -1.07,2.88 a 1,1 0 0 0 0.77,-0.32 1.14,1.14 0 0 0 0.3,-0.81 1.09,1.09 0 0 0 -0.3,-0.79 1,1 0 0 0 -0.77,-0.33 1,1 0 0 0 -0.76,0.33 1.1,1.1 0 0 0 -0.31,0.79 1.15,1.15 0 0 0 0.31,0.81 1,1 0 0 0 0.76,0.32 z"
       id="path1377"
       inkscape:connector-curvature="0" />
    <path
       style="fill:#cccccc"
       class="cls-8"
       d="m 56.67,279.53 v 0.34 a 2.2,2.2 0 0 1 -2.32,2.29 2.43,2.43 0 0 1 -1.81,-0.74 2.65,2.65 0 0 1 0,-3.61 2.44,2.44 0 0 1 3.83,0.42 l -0.67,0.4 a 1.55,1.55 0 0 0 -1.39,-0.77 1.64,1.64 0 0 0 -1.23,0.5 1.89,1.89 0 0 0 0,2.52 1.72,1.72 0 0 0 1.28,0.49 1.42,1.42 0 0 0 1.52,-1.12 H 54.3 v -0.72 z"
       id="path1379"
       inkscape:connector-curvature="0" />
    <path
       style="fill:#cccccc"
       class="cls-8"
       d="m 60,278.56 h 0.73 v 3.51 H 60 v -0.51 a 1.34,1.34 0 0 1 -1.18,0.6 1.55,1.55 0 0 1 -1.19,-0.54 2,2 0 0 1 0,-2.61 1.55,1.55 0 0 1 1.19,-0.54 1.36,1.36 0 0 1 1.18,0.59 z m -1.07,2.88 a 1,1 0 0 0 0.77,-0.32 1.14,1.14 0 0 0 0.3,-0.81 1.09,1.09 0 0 0 -0.3,-0.79 1.07,1.07 0 0 0 -1.53,0 1.09,1.09 0 0 0 -0.3,0.79 1.14,1.14 0 0 0 0.3,0.81 1,1 0 0 0 0.76,0.32 z"
       id="path1381"
       inkscape:connector-curvature="0" />
    <path
       style="fill:#cccccc"
       class="cls-8"
       d="m 61.61,277.9 a 0.5,0.5 0 0 1 0,-0.68 0.45,0.45 0 0 1 0.67,0 0.49,0.49 0 0 1 0,0.68 0.45,0.45 0 0 1 -0.67,0 z m 0,4.17 v -3.51 h 0.73 v 3.51 z"
       id="path1383"
       inkscape:connector-curvature="0" />
    <path
       style="fill:#cccccc"
       class="cls-8"
       d="m 66.23,279.92 v 2.15 H 65.5 V 280 a 0.72,0.72 0 0 0 -0.76,-0.81 c -0.51,0 -0.86,0.33 -0.86,1 v 1.88 h -0.73 v -3.51 h 0.73 V 279 a 1.15,1.15 0 0 1 1.05,-0.54 1.29,1.29 0 0 1 1.3,1.46 z"
       id="path1385"
       inkscape:connector-curvature="0" />
    <path
       style="fill:#cccccc"
       class="cls-8"
       d="m 90.77,311.31 0.5,0.53 -0.55,0.51 -0.52,-0.55 a 2.41,2.41 0 0 1 -1.26,0.36 2.34,2.34 0 0 1 -1.74,-0.74 2.62,2.62 0 0 1 0,-3.61 2.4,2.4 0 0 1 3.47,0 2.49,2.49 0 0 1 0.72,1.8 2.53,2.53 0 0 1 -0.62,1.7 z m -1.13,-0.1 -0.86,-0.92 0.55,-0.51 0.9,1 a 1.79,1.79 0 0 0 0.38,-1.13 1.73,1.73 0 0 0 -0.49,-1.25 1.65,1.65 0 0 0 -2.37,0 1.85,1.85 0 0 0 0,2.51 1.6,1.6 0 0 0 1.19,0.5 1.53,1.53 0 0 0 0.7,-0.2 z"
       id="path1387"
       inkscape:connector-curvature="0" />
    <path
       style="fill:#cccccc"
       class="cls-8"
       d="m 168.12,247.93 h -2 v 1.38 h 1.92 v 0.77 h -1.92 v 2 h -0.78 v -4.91 h 2.77 z"
       id="path1389"
       inkscape:connector-curvature="0" />
    <path
       style="fill:#cccccc"
       class="cls-8"
       d="m 169.53,249.15 a 1,1 0 0 1 1,-0.65 v 0.82 a 1,1 0 0 0 -0.73,0.21 0.88,0.88 0 0 0 -0.31,0.77 v 1.77 h -0.73 v -3.51 h 0.73 z"
       id="path1391"
       inkscape:connector-curvature="0" />
    <path
       style="fill:#cccccc"
       class="cls-8"
       d="m 171.53,250.64 a 1,1 0 0 0 1.08,0.82 1,1 0 0 0 0.87,-0.43 l 0.6,0.36 a 1.65,1.65 0 0 1 -1.48,0.77 1.82,1.82 0 0 1 -1.33,-0.52 2,2 0 0 1 0,-2.64 1.69,1.69 0 0 1 1.28,-0.53 1.57,1.57 0 0 1 1.22,0.54 2,2 0 0 1 0.48,1.31 2.36,2.36 0 0 1 0,0.32 z m 2,-0.62 a 1,1 0 0 0 -1,-0.86 1,1 0 0 0 -1,0.86 z"
       id="path1393"
       inkscape:connector-curvature="0" />
    <path
       style="fill:#cccccc"
       class="cls-8"
       d="m 177.54,248.56 h 0.73 v 4.91 h -0.73 v -1.9 a 1.36,1.36 0 0 1 -1.18,0.59 1.55,1.55 0 0 1 -1.19,-0.54 2,2 0 0 1 0,-2.61 1.55,1.55 0 0 1 1.19,-0.54 1.34,1.34 0 0 1 1.18,0.6 z m -1.07,2.88 a 1,1 0 0 0 0.77,-0.32 1.14,1.14 0 0 0 0.3,-0.81 1.09,1.09 0 0 0 -0.3,-0.79 1.05,1.05 0 0 0 -1.53,0 1.09,1.09 0 0 0 -0.3,0.79 1.14,1.14 0 0 0 0.3,0.81 1,1 0 0 0 0.76,0.32 z"
       id="path1395"
       inkscape:connector-curvature="0" />
    <path
       style="fill:#cccccc"
       class="cls-8"
       d="m 135.3,279.53 v 0.34 a 2.2,2.2 0 0 1 -2.32,2.29 2.43,2.43 0 0 1 -1.81,-0.74 2.65,2.65 0 0 1 0,-3.61 2.39,2.39 0 0 1 1.77,-0.74 2.35,2.35 0 0 1 2.06,1.16 l -0.67,0.4 a 1.53,1.53 0 0 0 -1.39,-0.77 1.64,1.64 0 0 0 -1.22,0.5 1.89,1.89 0 0 0 0,2.52 1.7,1.7 0 0 0 1.27,0.49 1.43,1.43 0 0 0 1.53,-1.12 h -1.59 v -0.72 z"
       id="path1397"
       inkscape:connector-curvature="0" />
    <path
       style="fill:#cccccc"
       class="cls-8"
       d="m 138.63,278.56 h 0.73 v 3.51 h -0.73 v -0.51 a 1.33,1.33 0 0 1 -1.18,0.6 1.56,1.56 0 0 1 -1.19,-0.54 2,2 0 0 1 0,-2.61 1.56,1.56 0 0 1 1.19,-0.54 1.35,1.35 0 0 1 1.18,0.59 z m -1.06,2.88 a 1,1 0 0 0 0.76,-0.32 1.14,1.14 0 0 0 0.3,-0.81 1.09,1.09 0 0 0 -0.3,-0.79 1,1 0 0 0 -0.76,-0.32 1,1 0 0 0 -0.77,0.32 1.09,1.09 0 0 0 -0.3,0.79 1.14,1.14 0 0 0 0.3,0.81 1,1 0 0 0 0.77,0.32 z"
       id="path1399"
       inkscape:connector-curvature="0" />
    <path
       style="fill:#cccccc"
       class="cls-8"
       d="m 140.25,277.9 a 0.48,0.48 0 0 1 0,-0.68 0.44,0.44 0 0 1 0.66,0 0.49,0.49 0 0 1 0,0.68 0.44,0.44 0 0 1 -0.66,0 z m 0,4.17 v -3.51 h 0.73 v 3.51 z"
       id="path1401"
       inkscape:connector-curvature="0" />
    <path
       style="fill:#cccccc"
       class="cls-8"
       d="m 144.86,279.92 v 2.15 h -0.73 V 280 a 0.72,0.72 0 0 0 -0.75,-0.81 c -0.52,0 -0.86,0.33 -0.86,1 v 1.88 h -0.73 v -3.51 h 0.73 V 279 a 1.12,1.12 0 0 1 1,-0.54 1.29,1.29 0 0 1 1.34,1.46 z"
       id="path1403"
       inkscape:connector-curvature="0" />
    <path
       style="fill:#cccccc"
       class="cls-8"
       d="m 169.4,311.31 0.5,0.53 -0.55,0.51 -0.52,-0.55 a 2.41,2.41 0 0 1 -1.26,0.36 2.35,2.35 0 0 1 -1.74,-0.74 2.62,2.62 0 0 1 0,-3.61 2.42,2.42 0 0 1 3.48,0 2.48,2.48 0 0 1 0.71,1.8 2.53,2.53 0 0 1 -0.62,1.7 z m -1.12,-0.1 -0.87,-0.92 0.55,-0.51 0.91,1 a 1.78,1.78 0 0 0 0.37,-1.13 1.76,1.76 0 0 0 -0.48,-1.25 1.59,1.59 0 0 0 -1.19,-0.5 1.56,1.56 0 0 0 -1.19,0.5 1.85,1.85 0 0 0 0,2.51 1.66,1.66 0 0 0 1.9,0.34 z"
       id="path1405"
       inkscape:connector-curvature="0" />
    <path
       style="fill:#cccccc"
       class="cls-8"
       d="m 246.75,247.93 h -2 v 1.38 h 1.93 v 0.77 h -1.93 v 2 H 244 v -4.91 h 2.77 z"
       id="path1407"
       inkscape:connector-curvature="0" />
    <path
       style="fill:#cccccc"
       class="cls-8"
       d="m 248.16,249.15 a 1.05,1.05 0 0 1 1.05,-0.65 v 0.82 a 1.06,1.06 0 0 0 -0.74,0.21 0.91,0.91 0 0 0 -0.31,0.77 v 1.77 h -0.73 v -3.51 h 0.73 z"
       id="path1409"
       inkscape:connector-curvature="0" />
    <path
       style="fill:#cccccc"
       class="cls-8"
       d="m 250.16,250.64 a 1,1 0 0 0 1.09,0.82 1,1 0 0 0 0.87,-0.43 l 0.6,0.36 a 1.66,1.66 0 0 1 -1.48,0.77 1.78,1.78 0 0 1 -1.33,-0.52 1.83,1.83 0 0 1 -0.51,-1.33 1.84,1.84 0 0 1 0.5,-1.31 1.69,1.69 0 0 1 1.28,-0.53 1.55,1.55 0 0 1 1.22,0.54 1.91,1.91 0 0 1 0.48,1.31 2.36,2.36 0 0 1 0,0.32 z m 2,-0.62 a 0.94,0.94 0 0 0 -1,-0.86 1,1 0 0 0 -1,0.86 z"
       id="path1411"
       inkscape:connector-curvature="0" />
    <path
       style="fill:#cccccc"
       class="cls-8"
       d="m 256.18,248.56 h 0.73 v 4.91 h -0.73 v -1.9 a 1.37,1.37 0 0 1 -1.19,0.59 1.56,1.56 0 0 1 -1.19,-0.54 2,2 0 0 1 0,-2.61 1.56,1.56 0 0 1 1.19,-0.54 1.36,1.36 0 0 1 1.19,0.6 z m -1.07,2.88 a 1,1 0 0 0 0.76,-0.32 1.11,1.11 0 0 0 0.31,-0.81 1.06,1.06 0 0 0 -0.31,-0.79 1,1 0 0 0 -0.76,-0.33 1,1 0 0 0 -0.77,0.33 1.09,1.09 0 0 0 -0.3,0.79 1.14,1.14 0 0 0 0.3,0.81 1,1 0 0 0 0.77,0.32 z"
       id="path1413"
       inkscape:connector-curvature="0" />
    <path
       style="fill:#cccccc"
       class="cls-8"
       d="m 213.93,279.53 v 0.34 a 2.23,2.23 0 0 1 -0.64,1.65 2.25,2.25 0 0 1 -1.68,0.64 2.43,2.43 0 0 1 -1.81,-0.74 2.65,2.65 0 0 1 0,-3.61 2.45,2.45 0 0 1 3.84,0.42 l -0.67,0.4 a 1.55,1.55 0 0 0 -1.4,-0.77 1.64,1.64 0 0 0 -1.22,0.5 1.89,1.89 0 0 0 0,2.52 1.7,1.7 0 0 0 1.27,0.49 1.42,1.42 0 0 0 1.53,-1.12 h -1.58 v -0.72 z"
       id="path1415"
       inkscape:connector-curvature="0" />
    <path
       style="fill:#cccccc"
       class="cls-8"
       d="M 217.27,278.56 H 218 v 3.51 h -0.73 v -0.51 a 1.36,1.36 0 0 1 -1.19,0.6 1.54,1.54 0 0 1 -1.18,-0.54 2,2 0 0 1 0,-2.61 1.54,1.54 0 0 1 1.18,-0.54 1.37,1.37 0 0 1 1.19,0.59 z m -1.07,2.88 a 1,1 0 0 0 0.76,-0.32 1.11,1.11 0 0 0 0.31,-0.81 1.06,1.06 0 0 0 -0.31,-0.79 1.06,1.06 0 0 0 -1.52,0 1.06,1.06 0 0 0 -0.31,0.79 1.11,1.11 0 0 0 0.31,0.81 1,1 0 0 0 0.76,0.32 z"
       id="path1417"
       inkscape:connector-curvature="0" />
    <path
       style="fill:#cccccc"
       class="cls-8"
       d="m 218.88,277.9 a 0.5,0.5 0 0 1 0,-0.68 0.44,0.44 0 0 1 0.66,0 0.5,0.5 0 0 1 0,0.68 0.45,0.45 0 0 1 -0.66,0 z m 0,4.17 v -3.51 h 0.73 v 3.51 z"
       id="path1419"
       inkscape:connector-curvature="0" />
    <path
       style="fill:#cccccc"
       class="cls-8"
       d="m 223.5,279.92 v 2.15 h -0.73 V 280 a 0.72,0.72 0 0 0 -0.76,-0.81 c -0.52,0 -0.86,0.33 -0.86,1 v 1.88 h -0.73 v -3.51 h 0.73 V 279 a 1.14,1.14 0 0 1 1,-0.54 1.29,1.29 0 0 1 1.35,1.46 z"
       id="path1421"
       inkscape:connector-curvature="0" />
    <path
       style="fill:#cccccc"
       class="cls-8"
       d="m 248,311.31 0.5,0.53 -0.54,0.51 -0.53,-0.55 a 2.4,2.4 0 0 1 -3,-0.38 2.65,2.65 0 0 1 0,-3.61 2.42,2.42 0 0 1 3.48,0 2.64,2.64 0 0 1 0.09,3.5 z m -1.12,-0.1 -0.87,-0.92 0.55,-0.51 0.91,1 a 1.79,1.79 0 0 0 0.38,-1.13 1.77,1.77 0 0 0 -0.49,-1.25 1.67,1.67 0 0 0 -2.38,0 1.85,1.85 0 0 0 0,2.51 1.62,1.62 0 0 0 1.19,0.5 1.57,1.57 0 0 0 0.74,-0.2 z"
       id="path1423"
       inkscape:connector-curvature="0" />
    <path
       style="fill:#cccccc"
       class="cls-8"
       d="m 325.39,247.93 h -2 v 1.38 h 1.93 v 0.77 h -1.93 v 2 h -0.77 v -4.91 h 2.77 z"
       id="path1425"
       inkscape:connector-curvature="0" />
    <path
       style="fill:#cccccc"
       class="cls-8"
       d="m 326.8,249.15 a 1,1 0 0 1 1,-0.65 v 0.82 a 1,1 0 0 0 -0.73,0.21 0.88,0.88 0 0 0 -0.31,0.77 v 1.77 h -0.73 v -3.51 h 0.73 z"
       id="path1427"
       inkscape:connector-curvature="0" />
    <path
       style="fill:#cccccc"
       class="cls-8"
       d="m 328.8,250.64 a 1,1 0 0 0 1.08,0.82 1,1 0 0 0 0.87,-0.43 l 0.6,0.36 a 1.65,1.65 0 0 1 -1.48,0.77 1.8,1.8 0 0 1 -1.33,-0.52 1.83,1.83 0 0 1 -0.51,-1.33 1.84,1.84 0 0 1 0.5,-1.31 1.71,1.71 0 0 1 1.29,-0.53 1.53,1.53 0 0 1 1.18,0.53 1.91,1.91 0 0 1 0.48,1.31 2.07,2.07 0 0 1 0,0.32 z m 2,-0.62 a 1,1 0 0 0 -1,-0.86 1,1 0 0 0 -1,0.86 z"
       id="path1429"
       inkscape:connector-curvature="0" />
    <path
       style="fill:#cccccc"
       class="cls-8"
       d="m 334.81,248.56 h 0.73 v 4.91 h -0.73 v -1.9 a 1.37,1.37 0 0 1 -1.18,0.59 1.55,1.55 0 0 1 -1.19,-0.54 2,2 0 0 1 0,-2.61 1.55,1.55 0 0 1 1.19,-0.54 1.35,1.35 0 0 1 1.18,0.6 z m -1.07,2.88 a 1,1 0 0 0 0.76,-0.32 1.11,1.11 0 0 0 0.31,-0.81 1.06,1.06 0 0 0 -0.31,-0.79 1,1 0 0 0 -1.52,0 1.06,1.06 0 0 0 -0.31,0.79 1.11,1.11 0 0 0 0.31,0.81 1,1 0 0 0 0.76,0.32 z"
       id="path1431"
       inkscape:connector-curvature="0" />
    <path
       style="fill:#cccccc"
       class="cls-8"
       d="m 292.57,279.53 v 0.34 a 2.21,2.21 0 0 1 -2.32,2.29 2.43,2.43 0 0 1 -1.81,-0.74 2.65,2.65 0 0 1 0,-3.61 2.44,2.44 0 0 1 3.83,0.42 l -0.67,0.4 a 1.55,1.55 0 0 0 -1.39,-0.77 1.64,1.64 0 0 0 -1.23,0.5 1.89,1.89 0 0 0 0,2.52 1.71,1.71 0 0 0 1.27,0.49 1.42,1.42 0 0 0 1.53,-1.12 h -1.58 v -0.72 z"
       id="path1433"
       inkscape:connector-curvature="0" />
    <path
       style="fill:#cccccc"
       class="cls-8"
       d="m 295.9,278.56 h 0.73 v 3.51 h -0.73 v -0.51 a 1.35,1.35 0 0 1 -1.18,0.6 1.55,1.55 0 0 1 -1.19,-0.54 2,2 0 0 1 0,-2.61 1.55,1.55 0 0 1 1.19,-0.54 1.37,1.37 0 0 1 1.18,0.59 z m -1.07,2.88 a 1,1 0 0 0 0.77,-0.32 1.14,1.14 0 0 0 0.3,-0.81 1.09,1.09 0 0 0 -0.3,-0.79 1,1 0 0 0 -0.77,-0.32 1,1 0 0 0 -0.76,0.32 1.09,1.09 0 0 0 -0.3,0.79 1.14,1.14 0 0 0 0.3,0.81 1,1 0 0 0 0.76,0.32 z"
       id="path1435"
       inkscape:connector-curvature="0" />
    <path
       style="fill:#cccccc"
       class="cls-8"
       d="m 297.51,277.9 a 0.5,0.5 0 0 1 0,-0.68 0.45,0.45 0 0 1 0.67,0 0.49,0.49 0 0 1 0,0.68 0.45,0.45 0 0 1 -0.67,0 z m 0,4.17 v -3.51 h 0.73 v 3.51 z"
       id="path1437"
       inkscape:connector-curvature="0" />
    <path
       style="fill:#cccccc"
       class="cls-8"
       d="m 302.13,279.92 v 2.15 H 301.4 V 280 a 0.72,0.72 0 0 0 -0.76,-0.81 c -0.51,0 -0.86,0.33 -0.86,1 v 1.88 h -0.73 v -3.51 h 0.73 V 279 a 1.15,1.15 0 0 1 1.05,-0.54 1.29,1.29 0 0 1 1.3,1.46 z"
       id="path1439"
       inkscape:connector-curvature="0" />
    <path
       style="fill:#cccccc"
       class="cls-8"
       d="m 326.67,311.31 0.5,0.53 -0.55,0.51 -0.52,-0.55 a 2.42,2.42 0 0 1 -1.27,0.36 2.33,2.33 0 0 1 -1.73,-0.74 2.62,2.62 0 0 1 0,-3.61 2.4,2.4 0 0 1 3.47,0 2.49,2.49 0 0 1 0.72,1.8 2.53,2.53 0 0 1 -0.62,1.7 z m -1.13,-0.1 -0.86,-0.92 0.55,-0.51 0.9,1 a 1.79,1.79 0 0 0 0.38,-1.13 1.73,1.73 0 0 0 -0.49,-1.25 1.56,1.56 0 0 0 -1.19,-0.5 1.59,1.59 0 0 0 -1.19,0.5 1.88,1.88 0 0 0 0,2.51 1.63,1.63 0 0 0 1.19,0.5 1.57,1.57 0 0 0 0.71,-0.2 z"
       id="path1441"
       inkscape:connector-curvature="0" />
  </g>
  <g
     id="Layer_45_copy"
     data-name="Layer 45 copy"
     transform="scale(1.3333333,1.3333406)">
    <path
       style="fill:#cccccc"
       class="cls-8"
       d="m 105.08,247.15 h 0.81 v 4.9 h -0.81 v -2.12 H 103 v 2.12 h -0.8 v -4.9 h 0.8 v 2 h 2.1 z"
       id="path1444"
       inkscape:connector-curvature="0" />
    <path
       style="fill:#cccccc"
       class="cls-8"
       d="m 107.72,251.34 h 1.7 v 0.71 h -2.73 v -0.5 l 1.64,-2.28 h -1.57 v -0.72 h 2.59 v 0.51 z"
       id="path1446"
       inkscape:connector-curvature="0" />
    <path
       style="fill:#cccccc"
       class="cls-8"
       d="m 71.18,277.16 h 0.76 v 4.91 h -0.76 v -0.51 a 1.41,1.41 0 0 1 -1.22,0.6 1.65,1.65 0 0 1 -1.24,-0.54 1.92,1.92 0 0 1 0,-2.61 1.65,1.65 0 0 1 1.24,-0.54 1.43,1.43 0 0 1 1.22,0.59 z m -1.11,4.28 a 1.08,1.08 0 0 0 1.11,-1.12 1.07,1.07 0 0 0 -0.31,-0.8 1.15,1.15 0 0 0 -1.59,0 1.07,1.07 0 0 0 -0.31,0.8 1.1,1.1 0 0 0 0.31,0.8 1.09,1.09 0 0 0 0.79,0.32 z"
       id="path1448"
       inkscape:connector-curvature="0" />
    <path
       style="fill:#cccccc"
       class="cls-8"
       d="m 76.44,280.67 a 1.32,1.32 0 0 1 -0.43,1 1.5,1.5 0 0 1 -1,0.4 h -2.1 v -4.91 h 1.94 a 1.44,1.44 0 0 1 1,0.4 1.26,1.26 0 0 1 0.42,1 1.17,1.17 0 0 1 -0.5,1 1.25,1.25 0 0 1 0.67,1.11 z m -2.77,-2.75 v 1.29 h 1.14 a 0.65,0.65 0 0 0 0,-1.29 z m 1.3,3.39 a 0.69,0.69 0 0 0 0,-1.37 h -1.3 v 1.37 z"
       id="path1450"
       inkscape:connector-curvature="0" />
    <path
       style="fill:#cccccc"
       class="cls-8"
       d="m 183.72,247.15 h 0.8 v 4.9 h -0.8 v -2.12 h -2.1 v 2.12 h -0.81 v -4.9 h 0.81 v 2 h 2.1 z"
       id="path1452"
       inkscape:connector-curvature="0" />
    <path
       style="fill:#cccccc"
       class="cls-8"
       d="m 186.36,251.34 h 1.7 v 0.71 h -2.73 v -0.5 l 1.63,-2.28 h -1.56 v -0.72 h 2.6 v 0.51 z"
       id="path1454"
       inkscape:connector-curvature="0" />
    <path
       style="fill:#cccccc"
       class="cls-8"
       d="m 149.81,277.16 h 0.76 v 4.91 h -0.76 v -0.51 a 1.4,1.4 0 0 1 -1.22,0.6 1.63,1.63 0 0 1 -1.23,-0.54 1.9,1.9 0 0 1 0,-2.61 1.63,1.63 0 0 1 1.23,-0.54 1.42,1.42 0 0 1 1.22,0.59 z m -1.1,4.28 a 1.09,1.09 0 0 0 0.79,-0.32 1.1,1.1 0 0 0 0.31,-0.8 1.07,1.07 0 0 0 -0.31,-0.8 1,1 0 0 0 -0.79,-0.32 1,1 0 0 0 -0.79,0.32 1.08,1.08 0 0 0 -0.32,0.8 1.11,1.11 0 0 0 0.32,0.8 1.07,1.07 0 0 0 0.79,0.32 z"
       id="path1456"
       inkscape:connector-curvature="0" />
    <path
       style="fill:#cccccc"
       class="cls-8"
       d="m 155.07,280.67 a 1.32,1.32 0 0 1 -0.43,1 1.48,1.48 0 0 1 -1,0.4 h -2.1 v -4.91 h 1.95 a 1.41,1.41 0 0 1 1,0.4 1.26,1.26 0 0 1 0.42,1 1.18,1.18 0 0 1 -0.49,1 1.26,1.26 0 0 1 0.65,1.11 z m -2.76,-2.75 v 1.29 h 1.14 a 0.65,0.65 0 0 0 0,-1.29 z m 1.29,3.39 a 0.69,0.69 0 0 0 0,-1.37 h -1.29 v 1.37 z"
       id="path1458"
       inkscape:connector-curvature="0" />
    <path
       style="fill:#cccccc"
       class="cls-8"
       d="m 262.35,247.15 h 0.81 v 4.9 h -0.81 v -2.12 h -2.1 v 2.12 h -0.81 v -4.9 h 0.81 v 2 h 2.1 z"
       id="path1460"
       inkscape:connector-curvature="0" />
    <path
       style="fill:#cccccc"
       class="cls-8"
       d="m 265,251.34 h 1.7 v 0.71 H 264 v -0.5 l 1.64,-2.28 H 264 v -0.72 h 2.59 v 0.51 z"
       id="path1462"
       inkscape:connector-curvature="0" />
    <path
       style="fill:#cccccc"
       class="cls-8"
       d="m 228.45,277.16 h 0.75 v 4.91 h -0.75 v -0.51 a 1.43,1.43 0 0 1 -1.23,0.6 1.63,1.63 0 0 1 -1.23,-0.54 1.92,1.92 0 0 1 0,-2.61 1.63,1.63 0 0 1 1.23,-0.54 1.45,1.45 0 0 1 1.23,0.59 z m -1.11,4.28 a 1.07,1.07 0 0 0 0.79,-0.32 1.11,1.11 0 0 0 0.32,-0.8 1.08,1.08 0 0 0 -0.32,-0.8 1,1 0 0 0 -0.79,-0.32 1,1 0 0 0 -0.79,0.32 1.08,1.08 0 0 0 -0.32,0.8 1.11,1.11 0 0 0 0.32,0.8 1.09,1.09 0 0 0 0.79,0.32 z"
       id="path1464"
       inkscape:connector-curvature="0" />
    <path
       style="fill:#cccccc"
       class="cls-8"
       d="m 233.71,280.67 a 1.32,1.32 0 0 1 -0.43,1 1.51,1.51 0 0 1 -1.05,0.4 h -2.1 v -4.91 h 2 a 1.45,1.45 0 0 1 1,0.4 1.26,1.26 0 0 1 0.42,1 1.17,1.17 0 0 1 -0.5,1 1.25,1.25 0 0 1 0.66,1.11 z m -2.77,-2.75 v 1.29 h 1.14 a 0.65,0.65 0 0 0 0,-1.29 z m 1.29,3.39 a 0.69,0.69 0 0 0 0,-1.37 h -1.29 v 1.37 z"
       id="path1466"
       inkscape:connector-curvature="0" />
    <path
       style="fill:#cccccc"
       class="cls-8"
       d="m 341,247.15 h 0.81 v 4.9 H 341 v -2.12 h -2.1 v 2.12 h -0.8 v -4.9 h 0.8 v 2 h 2.1 z"
       id="path1468"
       inkscape:connector-curvature="0" />
    <path
       style="fill:#cccccc"
       class="cls-8"
       d="m 343.62,251.34 h 1.7 v 0.71 h -2.73 v -0.5 l 1.64,-2.28 h -1.57 v -0.72 h 2.59 v 0.51 z"
       id="path1470"
       inkscape:connector-curvature="0" />
    <path
       style="fill:#cccccc"
       class="cls-8"
       d="m 307.08,277.16 h 0.76 v 4.91 h -0.76 v -0.51 a 1.41,1.41 0 0 1 -1.22,0.6 1.65,1.65 0 0 1 -1.24,-0.54 1.92,1.92 0 0 1 0,-2.61 1.65,1.65 0 0 1 1.24,-0.54 1.43,1.43 0 0 1 1.22,0.59 z m -1.08,4.28 a 1.08,1.08 0 0 0 1.11,-1.12 1.07,1.07 0 0 0 -0.31,-0.8 1.15,1.15 0 0 0 -1.59,0 1.07,1.07 0 0 0 -0.31,0.8 1.1,1.1 0 0 0 0.31,0.8 1.09,1.09 0 0 0 0.79,0.32 z"
       id="path1472"
       inkscape:connector-curvature="0" />
    <path
       style="fill:#cccccc"
       class="cls-8"
       d="m 312.34,280.67 a 1.32,1.32 0 0 1 -0.43,1 1.5,1.5 0 0 1 -1,0.4 h -2.1 v -4.91 h 1.94 a 1.44,1.44 0 0 1 1,0.4 1.26,1.26 0 0 1 0.42,1 1.17,1.17 0 0 1 -0.5,1 1.25,1.25 0 0 1 0.67,1.11 z m -2.77,-2.75 v 1.29 h 1.14 a 0.65,0.65 0 0 0 0,-1.29 z m 1.3,3.39 a 0.69,0.69 0 0 0 0,-1.37 h -1.3 v 1.37 z"
       id="path1474"
       inkscape:connector-curvature="0" />
  </g>
  <g
     id="EQ_Band_Titles"
     data-name="EQ Band Titles"
     transform="scale(1.3333333,1.3333406)">
    <path
       style="fill:#cccccc"
       class="cls-8"
       d="m 88.23,232.88 h 1.93 v 1 h -2.93 v -5.25 h 1 z"
       id="path1477"
       inkscape:connector-curvature="0" />
    <path
       style="fill:#cccccc"
       class="cls-8"
       d="m 94.11,229.61 h -2 v 1.25 h 2 v 1 h -2 v 2 h -1 v -5.25 h 3 z"
       id="path1479"
       inkscape:connector-curvature="0" />
    <path
       style="fill:#cccccc"
       class="cls-8"
       d="m 325.18,228.62 h 1 v 5.25 h -1 v -2.17 h -1.88 v 2.17 h -1 v -5.25 h 1 v 2.09 h 1.88 z"
       id="path1481"
       inkscape:connector-curvature="0" />
    <path
       style="fill:#cccccc"
       class="cls-8"
       d="m 330.5,229.61 h -2 v 1.25 h 2 v 1 h -2 v 2 h -1 v -5.25 h 3 z"
       id="path1483"
       inkscape:connector-curvature="0" />
    <path
       style="fill:#cccccc"
       class="cls-8"
       d="m 163.91,232.88 h 1.93 v 1 h -2.93 v -5.25 h 1 z"
       id="path1485"
       inkscape:connector-curvature="0" />
    <path
       style="fill:#cccccc"
       class="cls-8"
       d="m 171.72,228.62 v 5.25 h -1 v -3.41 l -1.42,2.44 h -0.12 l -1.42,-2.43 v 3.4 h -1 v -5.25 h 1 l 1.45,2.48 1.45,-2.48 z"
       id="path1487"
       inkscape:connector-curvature="0" />
    <path
       style="fill:#cccccc"
       class="cls-8"
       d="m 176.05,229.61 h -2 v 1.25 h 2 v 1 h -2 v 2 h -1 v -5.25 h 3 z"
       id="path1489"
       inkscape:connector-curvature="0" />
    <path
       style="fill:#cccccc"
       class="cls-8"
       d="m 243.58,228.62 h 1 v 5.25 h -1 v -2.17 h -1.88 v 2.17 h -1 v -5.25 h 1 v 2.09 h 1.88 z"
       id="path1491"
       inkscape:connector-curvature="0" />
    <path
       style="fill:#cccccc"
       class="cls-8"
       d="m 250.83,228.62 v 5.25 h -1 v -3.41 l -1.42,2.44 h -0.12 l -1.42,-2.43 v 3.4 h -1 v -5.25 h 1 l 1.45,2.48 1.45,-2.48 z"
       id="path1493"
       inkscape:connector-curvature="0" />
    <path
       style="fill:#cccccc"
       class="cls-8"
       d="m 255.16,229.61 h -2 v 1.25 h 2 v 1 h -2 v 2 h -1 v -5.25 h 3 z"
       id="path1495"
       inkscape:connector-curvature="0" />
  </g>
  <g
     id="Gain_Title"
     data-name="Gain Title"
     transform="scale(1.3333333,1.3333406)">
    <path
       style="fill:#cccccc"
       class="cls-8"
       d="m 376,210.45 v 0.38 a 2.23,2.23 0 0 1 -2.33,2.35 2.44,2.44 0 0 1 -1.82,-0.73 2.5,2.5 0 0 1 -0.71,-1.81 2.47,2.47 0 0 1 0.71,-1.81 2.34,2.34 0 0 1 1.77,-0.75 2.38,2.38 0 0 1 2.06,1.14 l -0.8,0.48 a 1.44,1.44 0 0 0 -1.27,-0.68 1.52,1.52 0 0 0 -1.12,0.46 1.62,1.62 0 0 0 -0.43,1.16 1.53,1.53 0 0 0 1.62,1.6 1.31,1.31 0 0 0 1.38,-0.94 h -1.44 v -0.85 z"
       id="path2003"
       inkscape:connector-curvature="0" />
    <path
       style="fill:#cccccc"
       class="cls-8"
       d="m 379.82,213.08 -0.29,-0.88 h -1.88 l -0.29,0.88 h -1 l 1.66,-4.9 h 1.16 l 1.66,4.9 z m -1.88,-1.78 h 1.3 l -0.65,-2 z"
       id="path2005"
       inkscape:connector-curvature="0" />
    <path
       style="fill:#cccccc"
       class="cls-8"
       d="m 381.62,208.18 h 0.94 v 4.9 h -0.94 z"
       id="path2007"
       inkscape:connector-curvature="0" />
    <path
       style="fill:#cccccc"
       class="cls-8"
       d="m 386.51,208.18 h 0.93 v 4.9 h -0.71 l -2,-3 v 3 h -0.93 v -4.9 h 0.71 l 2,3 z"
       id="path2009"
       inkscape:connector-curvature="0" />
  </g>
  <g
     id="VU_BG"
     data-name="VU BG"
     transform="scale(1.3333333,1.3333406)">
    <g
       id="g2224">
      <rect
         style="fill:#121212"
         id="rect2220"
         class="cls-10"
         x="375.73001"
         y="46.349998"
         width="3.4000001"
         height="119.91" />
      <rect
         style="fill:#121212"
         id="rect2222"
         class="cls-10"
         x="380.26999"
         y="46.349998"
         width="3.4000001"
         height="119.91" />
    </g>
  </g>
  <g
     id="VU_divider"
     data-name="VU divider"
     transform="scale(1.3333333,1.3333406)">
    <path
       style="fill:none;stroke:#353535;stroke-width:0.85000002px"
       id="path4304"
       class="cls-11"
       d="m 375.73,71.31 h 7.94"
       inkscape:connector-curvature="0" />
  </g>
  <g
     id="VU_Calibration"
     data-name="VU Calibration"
     transform="scale(1.3333333,1.3333406)">
    <path
       style="fill:none;stroke:#ffffff;stroke-width:0.28px"
       id="path4288"
       class="cls-12"
       d="m 384.13,166.05 h 2.7"
       inkscape:connector-curvature="0" />
    <path
       style="fill:none;stroke:#ffffff;stroke-width:0.28px"
       id="path4298"
       class="cls-12"
       d="m 384.13,128.63 h 2.73"
       inkscape:connector-curvature="0" />
    <path
       style="fill:none;stroke:#ffffff;stroke-width:0.28px"
       id="path4300"
       class="cls-12"
       d="m 384.13,106.63 h 2.73"
       inkscape:connector-curvature="0" />
    <path
       style="fill:none;stroke:#ffffff;stroke-width:0.28px"
       id="path4302"
       class="cls-12"
       d="m 384.13,91.18 h 2.73"
       inkscape:connector-curvature="0" />
    <path
       style="fill:none;stroke:#ffffff;stroke-width:0.28px"
       id="path4304-2"
       data-name="path4304"
       class="cls-13"
       d="m 384.13,71.74 h 2.73"
       inkscape:connector-curvature="0" />
    <path
       style="fill:none;stroke:#ffffff;stroke-width:0.28px"
       id="path4306"
       class="cls-12"
       d="m 384.13,46.54 h 2.73"
       inkscape:connector-curvature="0" />
    <path
       style="fill:none;stroke:#ffffff;stroke-width:0.28px"
       id="path4288-2"
       data-name="path4288"
       class="cls-12"
       d="m 372.55,166.05 h 2.69"
       inkscape:connector-curvature="0" />
    <path
       style="fill:none;stroke:#ffffff;stroke-width:0.28px"
       id="path4298-2"
       data-name="path4298"
       class="cls-12"
       d="m 372.55,128.63 h 2.72"
       inkscape:connector-curvature="0" />
    <path
       style="fill:none;stroke:#ffffff;stroke-width:0.28px"
       id="path4300-2"
       data-name="path4300"
       class="cls-12"
       d="m 372.55,106.63 h 2.72"
       inkscape:connector-curvature="0" />
    <path
       style="fill:none;stroke:#ffffff;stroke-width:0.28px"
       id="path4302-2"
       data-name="path4302"
       class="cls-12"
       d="m 372.55,91.18 h 2.72"
       inkscape:connector-curvature="0" />
    <path
       style="fill:none;stroke:#ffffff;stroke-width:0.28px"
       id="path4304-3"
       data-name="path4304"
       class="cls-13"
       d="m 372.55,71.74 h 2.72"
       inkscape:connector-curvature="0" />
    <path
       style="fill:none;stroke:#ffffff;stroke-width:0.28px"
       id="path4306-2"
       data-name="path4306"
       class="cls-12"
       d="m 372.55,46.54 h 2.72"
       inkscape:connector-curvature="0" />
    <path
       style="fill:none;stroke:#ffffff;stroke-width:0.28px"
       id="path4306-3"
       data-name="path4306"
       class="cls-12"
       d="m 384.13,59.32 h 2.73"
       inkscape:connector-curvature="0" />
    <path
       style="fill:none;stroke:#ffffff;stroke-width:0.28px"
       id="path4306-4"
       data-name="path4306"
       class="cls-12"
       d="m 372.55,59.32 h 2.72"
       inkscape:connector-curvature="0" />
    <path
       style="fill:none;stroke:#ffffff;stroke-width:0.28px"
       id="path4306-5"
       data-name="path4306"
       class="cls-12"
       d="m 384.13,82 h 2.73"
       inkscape:connector-curvature="0" />
    <path
       style="fill:none;stroke:#ffffff;stroke-width:0.28px"
       id="path4306-6"
       data-name="path4306"
       class="cls-12"
       d="m 372.55,82 h 2.72"
       inkscape:connector-curvature="0" />
    <g
       id="g961">
      <path
         style="fill:#ffffff"
         id="path959"
         class="cls-14"
         d="m 370.44,46.28 a 1.07,1.07 0 0 1 0.32,0.81 1.1,1.1 0 0 1 -0.32,0.81 1.25,1.25 0 0 1 -1.67,0 1.1,1.1 0 0 1 -0.32,-0.81 1.19,1.19 0 0 1 0.2,-0.68 l 1.08,-1.61 h 0.51 l -0.79,1.2 h 0.16 a 1.12,1.12 0 0 1 0.83,0.32 z m -1.55,0.81 a 0.68,0.68 0 0 0 0.72,0.7 0.7,0.7 0 1 0 -0.72,-0.7 z"
         inkscape:connector-curvature="0" />
    </g>
    <g
       id="g965">
      <path
         style="fill:#ffffff"
         id="path963"
         class="cls-14"
         d="m 369.55,73.45 a 1.1,1.1 0 0 1 -0.95,-0.47 2.12,2.12 0 0 1 -0.34,-1.27 2.09,2.09 0 0 1 0.34,-1.26 1.18,1.18 0 0 1 1.9,0 2.09,2.09 0 0 1 0.34,1.26 2.12,2.12 0 0 1 -0.34,1.29 1.1,1.1 0 0 1 -0.95,0.45 z m 0,-0.43 c 0.54,0 0.85,-0.48 0.85,-1.31 0,-0.83 -0.31,-1.31 -0.85,-1.31 -0.54,0 -0.85,0.47 -0.85,1.31 0,0.84 0.3,1.29 0.85,1.29 z"
         inkscape:connector-curvature="0" />
    </g>
    <g
       id="g969">
      <path
         style="fill:#ffffff"
         id="path967"
         class="cls-14"
         d="m 370.52,90.9 a 1.19,1.19 0 0 1 0,1.62 1.25,1.25 0 0 1 -1.67,0 1.1,1.1 0 0 1 -0.32,-0.81 1.13,1.13 0 0 1 0.2,-0.67 l 1.08,-1.62 h 0.51 l -0.79,1.17 h 0.16 a 1.16,1.16 0 0 1 0.83,0.32 z m -1.55,0.81 a 0.68,0.68 0 0 0 0.72,0.7 0.7,0.7 0 1 0 -0.72,-0.7 z"
         inkscape:connector-curvature="0" />
    </g>
    <g
       id="g975">
      <path
         style="fill:#ffffff"
         id="path971"
         class="cls-14"
         d="m 367.69,104.93 h 0.39 v 3.35 h -0.44 v -2.87 l -0.72,0.21 -0.11,-0.38 z"
         inkscape:connector-curvature="0" />
      <path
         style="fill:#ffffff"
         id="path973"
         class="cls-14"
         d="m 368.62,108.28 v -0.36 l 1.19,-1.21 a 1.31,1.31 0 0 0 0.47,-0.81 0.56,0.56 0 0 0 -0.59,-0.6 0.71,0.71 0 0 0 -0.69,0.45 l -0.38,-0.22 a 1.13,1.13 0 0 1 1.06,-0.66 1.05,1.05 0 0 1 0.74,0.28 1,1 0 0 1 0.31,0.74 1.67,1.67 0 0 1 -0.6,1.11 l -0.86,0.85 h 1.52 v 0.43 z"
         inkscape:connector-curvature="0" />
    </g>
    <g
       id="g981">
      <path
         style="fill:#ffffff"
         id="path977"
         class="cls-14"
         d="m 365.93,130.23 v -0.36 l 1.18,-1.21 a 1.31,1.31 0 0 0 0.48,-0.81 0.57,0.57 0 0 0 -0.6,-0.6 0.72,0.72 0 0 0 -0.69,0.45 l -0.37,-0.22 a 1.12,1.12 0 0 1 1.06,-0.66 1.06,1.06 0 0 1 0.73,0.27 1,1 0 0 1 0.31,0.75 1.67,1.67 0 0 1 -0.6,1.11 l -0.85,0.85 h 1.52 v 0.43 z"
         inkscape:connector-curvature="0" />
      <path
         style="fill:#ffffff"
         id="path979"
         class="cls-14"
         d="m 370.88,129.18 v 0.41 h -0.41 v 0.64 H 370 v -0.64 h -1.71 v -0.41 l 1.2,-2.3 H 370 l -1.2,2.3 h 1.2 v -1 h 0.45 v 1 z"
         inkscape:connector-curvature="0" />
    </g>
    <path
       style="fill:none;stroke:#ffffff;stroke-width:0.28px"
       id="path4294"
       class="cls-12"
       d="m 384.13,151.28 h 2.73"
       inkscape:connector-curvature="0" />
    <path
       style="fill:none;stroke:#ffffff;stroke-width:0.28px"
       id="path4294-2"
       data-name="path4294"
       class="cls-12"
       d="m 372.55,151.28 h 2.72"
       inkscape:connector-curvature="0" />
    <g
       id="g987">
      <path
         style="fill:#ffffff"
         id="path983"
         class="cls-14"
         d="m 368.2,151.77 v 0.42 h -0.41 v 0.64 h -0.44 v -0.64 h -1.71 v -0.42 l 1.2,-2.3 h 0.48 l -1.2,2.3 h 1.23 v -0.94 h 0.44 v 0.94 z"
         inkscape:connector-curvature="0" />
      <path
         style="fill:#ffffff"
         id="path985"
         class="cls-14"
         d="m 370.79,151.91 a 0.86,0.86 0 0 1 -0.32,0.72 1.44,1.44 0 0 1 -1.65,0 0.86,0.86 0 0 1 -0.32,-0.72 0.91,0.91 0 0 1 0.52,-0.82 0.81,0.81 0 0 1 -0.41,-0.73 0.85,0.85 0 0 1 0.3,-0.7 1.21,1.21 0 0 1 1.47,0 0.85,0.85 0 0 1 0.3,0.7 0.8,0.8 0 0 1 -0.41,0.73 0.9,0.9 0 0 1 0.52,0.82 z m -0.44,0 c 0,-0.37 -0.28,-0.58 -0.71,-0.58 -0.43,0 -0.7,0.21 -0.7,0.58 0,0.37 0.28,0.58 0.7,0.58 0.42,0 0.71,-0.23 0.71,-0.61 z m -1.3,-1.51 a 0.54,0.54 0 0 0 0.59,0.54 0.55,0.55 0 0 0 0.6,-0.54 c 0,-0.35 -0.25,-0.53 -0.6,-0.53 a 0.52,0.52 0 0 0 -0.59,0.5 z"
         inkscape:connector-curvature="0" />
    </g>
    <path
       style="fill:#ffffff"
       class="cls-14"
       d="m 369.91,59 a 1,1 0 0 1 0.88,1 0.92,0.92 0 0 1 -0.34,0.77 1.2,1.2 0 0 1 -0.81,0.29 1.12,1.12 0 0 1 -1.11,-0.68 l 0.38,-0.23 a 0.67,0.67 0 0 0 0.73,0.47 0.62,0.62 0 1 0 0,-1.24 h -0.12 l -0.18,-0.27 0.78,-1.05 h -1.49 v -0.42 h 2 V 58 Z"
       id="path2094"
       inkscape:connector-curvature="0" />
    <path
       style="fill:#ffffff"
       class="cls-14"
       d="m 369.91,81.78 a 1,1 0 0 1 0.88,1 1,1 0 0 1 -0.34,0.77 1.19,1.19 0 0 1 -0.81,0.28 1.12,1.12 0 0 1 -1.11,-0.68 l 0.38,-0.22 a 0.68,0.68 0 0 0 0.73,0.47 0.62,0.62 0 0 0 0.7,-0.62 0.63,0.63 0 0 0 -0.7,-0.63 h -0.12 l -0.18,-0.27 0.78,-1.05 h -1.49 v -0.41 h 2 v 0.39 z"
       id="path2096"
       inkscape:connector-curvature="0" />
  </g>
  <g
     id="VU_title_BG"
     data-name="VU title BG"
     transform="scale(1.3333333,1.3333406)">
    <rect
       style="fill:#1a1a1a"
       class="cls-7"
       x="366.23001"
       y="26.5"
       width="26.940001"
       height="11.31"
       rx="5.6500001"
       id="rect2099" />
  </g>
  <g
     id="VU_Title_Text"
     data-name="VU Title Text"
     transform="scale(1.3333333,1.3333406)">
    <path
       style="fill:#cccccc"
       class="cls-8"
       d="m 374.88,35.08 a 2.35,2.35 0 0 1 -1.74,-0.74 2.66,2.66 0 0 1 0,-3.62 2.42,2.42 0 0 1 3.48,0 2.64,2.64 0 0 1 0,3.62 2.35,2.35 0 0 1 -1.74,0.74 z m 0,-0.95 a 1.43,1.43 0 0 0 1.09,-0.45 1.58,1.58 0 0 0 0.44,-1.15 1.61,1.61 0 0 0 -0.44,-1.16 1.55,1.55 0 0 0 -2.18,0 1.61,1.61 0 0 0 -0.44,1.16 1.58,1.58 0 0 0 0.44,1.15 1.43,1.43 0 0 0 1.09,0.45 z"
       id="path2102"
       inkscape:connector-curvature="0" />
    <path
       style="fill:#cccccc"
       class="cls-8"
       d="m 379,34.62 a 1.63,1.63 0 0 1 -0.5,-1.24 v -3.3 h 0.92 v 3.22 a 0.88,0.88 0 0 0 1.76,0 v -3.22 h 0.93 v 3.3 a 1.6,1.6 0 0 1 -0.5,1.24 2.08,2.08 0 0 1 -2.61,0 z"
       id="path2104"
       inkscape:connector-curvature="0" />
    <path
       style="fill:#cccccc"
       class="cls-8"
       d="M 386.58,30.08 V 31 h -1.28 v 4 h -0.93 v -4 h -1.27 v -0.92 z"
       id="path2106"
       inkscape:connector-curvature="0" />
  </g>
  <g
     id="Jack_BG"
     data-name="Jack BG"
     transform="scale(1.3333333,1.3333406)">
    <path
       d="m 366.76,222.56 h 25.89 a 2.09,2.09 0 0 1 2.08,2.1 v 109.42 a 2.09,2.09 0 0 1 -2.08,2.1 h -25.89 a 2.09,2.09 0 0 1 -2.08,-2.1 V 224.66 a 2.09,2.09 0 0 1 2.08,-2.1 z"
       id="path2109"
       inkscape:connector-curvature="0" />
  </g>
  <g
     id="Switch_Labels"
     data-name="Switch Labels"
     transform="scale(1.3333333,1.3333406)">
    <path
       style="fill:#cccccc"
       class="cls-8"
       d="m 15.4,121.18 -0.28,-0.84 h -1.73 l -0.28,0.84 h -0.72 l 1.47,-4.2 h 0.8 l 1.46,4.2 z m -1.79,-1.49 h 1.29 l -0.64,-1.9 z"
       id="path2112"
       inkscape:connector-curvature="0" />
    <path
       style="fill:#cccccc"
       class="cls-8"
       d="m 17.27,120.64 a 2.17,2.17 0 0 1 -0.6,-1.56 2.13,2.13 0 0 1 0.6,-1.54 2,2 0 0 1 1.51,-0.63 2,2 0 0 1 1.74,1 l -0.57,0.35 a 1.29,1.29 0 0 0 -1.17,-0.68 1.39,1.39 0 0 0 -1.05,0.42 1.52,1.52 0 0 0 -0.4,1.08 1.49,1.49 0 0 0 0.4,1.08 1.4,1.4 0 0 0 1.05,0.43 1.3,1.3 0 0 0 1.17,-0.68 l 0.57,0.34 a 1.89,1.89 0 0 1 -0.72,0.74 2,2 0 0 1 -1,0.27 2,2 0 0 1 -1.53,-0.62 z"
       id="path2114"
       inkscape:connector-curvature="0" />
    <path
       style="fill:#cccccc"
       class="cls-8"
       d="m 24.14,117 v 0.66 H 23 v 3.54 h -0.66 v -3.54 H 21.19 V 117 Z"
       id="path2116"
       inkscape:connector-curvature="0" />
    <path
       style="fill:#cccccc"
       class="cls-8"
       d="m 25.1,117 h 0.67 v 4.2 H 25.1 Z"
       id="path2118"
       inkscape:connector-curvature="0" />
    <path
       style="fill:#cccccc"
       class="cls-8"
       d="M 28.07,121.18 26.66,117 h 0.73 l 1.08,3.37 1.08,-3.37 h 0.72 l -1.4,4.2 z"
       id="path2120"
       inkscape:connector-curvature="0" />
    <path
       style="fill:#cccccc"
       class="cls-8"
       d="m 31.84,120.52 h 1.79 v 0.66 H 31.17 V 117 h 2.43 v 0.66 h -1.76 v 1.1 h 1.62 v 0.65 h -1.62 z"
       id="path2122"
       inkscape:connector-curvature="0" />
    <path
       style="fill:#cccccc"
       class="cls-8"
       d="m 15.2,158.67 a 1.18,1.18 0 0 1 -0.35,0.86 1.25,1.25 0 0 1 -0.87,0.34 h -1.73 v -4.2 h 1.61 a 1.1,1.1 0 0 1 0.83,0.34 1.05,1.05 0 0 1 0.35,0.82 1,1 0 0 1 -0.41,0.86 1.08,1.08 0 0 1 0.57,0.98 z m -2.29,-2.35 v 1.1 h 0.95 a 0.55,0.55 0 0 0 0,-1.1 z m 1.07,2.9 A 0.61008196,0.61008196 0 0 0 14,158 h -1.09 v 1.18 z"
       id="path2124"
       inkscape:connector-curvature="0" />
    <path
       style="fill:#cccccc"
       class="cls-8"
       d="m 19.18,155.67 -1.42,2.53 v 1.67 H 17.1 v -1.67 l -1.41,-2.53 h 0.76 l 1,1.86 1,-1.86 z"
       id="path2126"
       inkscape:connector-curvature="0" />
    <path
       style="fill:#cccccc"
       class="cls-8"
       d="m 21.57,155.67 a 1.24,1.24 0 0 1 0.95,0.4 1.33,1.33 0 0 1 0.39,1 1.35,1.35 0 0 1 -0.39,1 1.24,1.24 0 0 1 -0.95,0.4 h -0.83 v 1.44 h -0.66 v -4.2 z m 0,2.11 a 0.73,0.73 0 0 0 0,-1.46 h -0.83 v 1.46 z"
       id="path2128"
       inkscape:connector-curvature="0" />
    <path
       style="fill:#cccccc"
       class="cls-8"
       d="M 26.19,159.87 25.9,159 h -1.72 l -0.28,0.85 h -0.73 l 1.47,-4.2 h 0.8 l 1.46,4.2 z m -1.79,-1.5 h 1.28 L 25,156.48 Z"
       id="path2130"
       inkscape:connector-curvature="0" />
    <path
       style="fill:#cccccc"
       class="cls-8"
       d="m 27.49,158.91 0.57,-0.34 a 1,1 0 0 0 1,0.7 c 0.51,0 0.76,-0.22 0.76,-0.55 a 0.44,0.44 0 0 0 -0.21,-0.39 3,3 0 0 0 -0.71,-0.3 2.79,2.79 0 0 1 -0.85,-0.38 1,1 0 0 1 -0.4,-0.85 1.09,1.09 0 0 1 0.39,-0.88 1.34,1.34 0 0 1 0.91,-0.33 1.51,1.51 0 0 1 1.42,0.93 l -0.57,0.33 a 0.87,0.87 0 0 0 -0.85,-0.59 c -0.38,0 -0.63,0.21 -0.63,0.53 0,0.32 0.2,0.45 0.81,0.65 l 0.34,0.12 0.3,0.12 a 0.85,0.85 0 0 1 0.29,0.17 1,1 0 0 1 0.42,0.86 1.13,1.13 0 0 1 -0.4,0.91 1.72,1.72 0 0 1 -2.59,-0.71 z"
       id="path2132"
       inkscape:connector-curvature="0" />
    <path
       style="fill:#cccccc"
       class="cls-8"
       d="m 31.18,158.91 0.57,-0.34 a 1,1 0 0 0 1,0.7 c 0.5,0 0.75,-0.22 0.75,-0.55 a 0.45,0.45 0 0 0 -0.2,-0.39 3.15,3.15 0 0 0 -0.72,-0.3 2.79,2.79 0 0 1 -0.85,-0.38 1,1 0 0 1 -0.39,-0.85 1.11,1.11 0 0 1 0.38,-0.88 1.35,1.35 0 0 1 0.92,-0.33 1.49,1.49 0 0 1 1.41,0.93 l -0.56,0.33 a 0.87,0.87 0 0 0 -0.85,-0.59 c -0.39,0 -0.64,0.21 -0.64,0.53 0,0.32 0.2,0.45 0.82,0.65 l 0.33,0.12 a 1.54,1.54 0 0 1 0.3,0.12 0.82,0.82 0 0 1 0.3,0.17 1,1 0 0 1 0.42,0.86 1.16,1.16 0 0 1 -0.4,0.91 1.56,1.56 0 0 1 -1,0.33 1.53,1.53 0 0 1 -1.59,-1.04 z"
       id="path2134"
       inkscape:connector-curvature="0" />
  </g>
  <g
     id="switch_border"
     data-name="switch border"
     transform="scale(1.3333333,1.3333406)">
    <line
       style="fill:none;stroke:#5a5a5a;stroke-width:0.47px"
       class="cls-15"
       x1="7.9099998"
       y1="109.59"
       x2="39.09"
       y2="109.59"
       id="line2137" />
    <line
       style="fill:none;stroke:#5a5a5a;stroke-width:0.49000001px;stroke-linecap:square"
       class="cls-16"
       x1="7.9099998"
       y1="109.6"
       x2="7.9099998"
       y2="113.44"
       id="line2139" />
    <line
       style="fill:none;stroke:#5a5a5a;stroke-width:0.49000001px;stroke-linecap:square"
       class="cls-16"
       x1="38.860001"
       y1="109.6"
       x2="38.860001"
       y2="113.44"
       id="line2141" />
    <line
       style="fill:none;stroke:#5a5a5a;stroke-width:0.47px"
       class="cls-15"
       x1="7.9099998"
       y1="168.12"
       x2="39.09"
       y2="168.12"
       id="line2143" />
    <line
       style="fill:none;stroke:#5a5a5a;stroke-width:0.49000001px;stroke-linecap:square"
       class="cls-16"
       x1="7.9099998"
       y1="168.10001"
       x2="7.9099998"
       y2="164.25999"
       id="line2145" />
    <line
       style="fill:none;stroke:#5a5a5a;stroke-width:0.49000001px;stroke-linecap:square"
       class="cls-16"
       x1="38.860001"
       y1="168.10001"
       x2="38.860001"
       y2="164.25999"
       id="line2147" />
    <line
       style="fill:none;stroke:#5a5a5a;stroke-width:0.49000001px;stroke-linecap:square"
       class="cls-16"
       x1="23.5"
       y1="97.480003"
       x2="23.5"
       y2="109.6"
       id="line2149" />
    <circle
       style="fill:#5a5a5a"
       class="cls-17"
       cx="23.5"
       cy="97.480003"
       r="1.0599999"
       id="circle2151" />
  </g>
  <g
     id="Track_knob_label"
     data-name="Track knob label"
     transform="scale(1.3333333,1.3333406)">
    <path
       style="fill:#cccccc"
       class="cls-8"
       d="m 15.15,87 v 0.92 h -1.28 v 4 h -0.93 v -4 H 11.66 V 87 Z"
       id="path2154"
       inkscape:connector-curvature="0" />
    <path
       style="fill:#cccccc"
       class="cls-8"
       d="m 18.8,91.9 -0.95,-1.7 h -0.71 v 1.7 H 16.2 V 87 h 1.9 a 1.49,1.49 0 0 1 1.11,0.47 1.61,1.61 0 0 1 -0.45,2.58 l 1,1.85 z m -1.66,-4 v 1.45 h 1 a 0.69,0.69 0 0 0 0.64,-0.73 0.68,0.68 0 0 0 -0.64,-0.72 z"
       id="path2156"
       inkscape:connector-curvature="0" />
    <path
       style="fill:#cccccc"
       class="cls-8"
       d="M 23.93,91.9 23.65,91 h -1.89 l -0.28,0.88 h -1 L 22.13,87 h 1.15 L 25,91.9 Z m -1.87,-1.79 h 1.3 l -0.65,-2 z"
       id="path2158"
       inkscape:connector-curvature="0" />
    <path
       style="fill:#cccccc"
       class="cls-8"
       d="m 26.25,91.26 a 2.73,2.73 0 0 1 0,-3.63 2.43,2.43 0 0 1 3.8,0.42 l -0.8,0.49 a 1.36,1.36 0 0 0 -1.23,-0.7 1.48,1.48 0 0 0 -1.12,0.44 1.71,1.71 0 0 0 -0.42,1.17 1.66,1.66 0 0 0 0.42,1.15 1.48,1.48 0 0 0 1.12,0.45 1.35,1.35 0 0 0 1.23,-0.69 l 0.8,0.48 A 2.32,2.32 0 0 1 28,92 2.35,2.35 0 0 1 26.25,91.26 Z"
       id="path2160"
       inkscape:connector-curvature="0" />
    <path
       style="fill:#cccccc"
       class="cls-8"
       d="M 34.86,91.9 H 33.79 L 32.1,89.6 v 2.3 H 31.16 V 87 h 0.94 v 2.16 L 33.72,87 h 1.07 L 33,89.38 Z"
       id="path2162"
       inkscape:connector-curvature="0" />
  </g>
  <g
     id="Track_Label_BG"
     data-name="Track Label BG"
     transform="scale(1.3333333,1.3333406)">
    <rect
       style="fill:#1a1a1a"
       class="cls-7"
       x="8.7200003"
       y="25.76"
       width="29.549999"
       height="13.67"
       rx="1.14"
       id="rect2165" />
    <path
       d="m 37.13,26 a 0.89,0.89 0 0 1 0.89,0.89 v 11.4 a 0.89,0.89 0 0 1 -0.89,0.9 H 9.87 a 0.9,0.9 0 0 1 -0.9,-0.9 V 26.9 a 0.89,0.89 0 0 1 0.9,-0.89 h 27.26 m 0,-0.5 H 9.87 a 1.4,1.4 0 0 0 -1.4,1.39 v 11.39 a 1.4,1.4 0 0 0 1.4,1.4 h 27.26 a 1.4,1.4 0 0 0 1.39,-1.4 V 26.9 a 1.39,1.39 0 0 0 -1.39,-1.39 z"
       id="path2167"
       inkscape:connector-curvature="0" />
  </g>
  <g
     id="Screen"
     transform="scale(1.3333333,1.3333406)">
    <rect
       style="fill:#1a1a1a"
       class="cls-7"
       x="47.27"
       y="25.99"
       width="308.64999"
       height="188.8"
       rx="1.11"
       id="rect2170" />
    <path
       d="m 354.82,26.46 a 0.64,0.64 0 0 1 0.63,0.64 v 186.58 a 0.64,0.64 0 0 1 -0.63,0.63 H 48.38 a 0.64,0.64 0 0 1 -0.63,-0.63 V 27.1 a 0.64,0.64 0 0 1 0.63,-0.64 h 306.44 m 0,-0.95 H 48.38 A 1.59,1.59 0 0 0 46.8,27.1 v 186.58 a 1.59,1.59 0 0 0 1.58,1.59 h 306.44 a 1.59,1.59 0 0 0 1.58,-1.59 V 27.1 a 1.59,1.59 0 0 0 -1.58,-1.59 z"
       id="path2172"
       inkscape:connector-curvature="0" />
  </g>
  <g
     id="jack_labels"
     data-name="jack labels"
     transform="scale(1.3333333,1.3333406)">
    <g
       style="isolation:isolate"
       class="cls-18"
       id="g2181">
      <path
         style="fill:#cccccc"
         class="cls-8"
         d="m 20,253.11 h 0.67 V 258 H 19.9 v -4 l -0.95,0.28 -0.18,-0.69 z"
         id="path2175"
         inkscape:connector-curvature="0" />
      <path
         style="fill:#cccccc"
         class="cls-8"
         d="m 21.62,256.25 v -0.73 h 2.48 v 0.73 z"
         id="path2177"
         inkscape:connector-curvature="0" />
      <path
         style="fill:#cccccc"
         class="cls-8"
         d="m 28.11,256.65 a 1.45,1.45 0 0 1 -1.65,1.45 1.78,1.78 0 0 1 -1.2,-0.38 1.35,1.35 0 0 1 -0.45,-1.07 1.36,1.36 0 0 1 0.69,-1.19 1.19,1.19 0 0 1 -0.53,-1 1.27,1.27 0 0 1 0.43,-1 1.7,1.7 0 0 1 2.12,0 1.27,1.27 0 0 1 0.43,1 1.19,1.19 0 0 1 -0.53,1 1.3,1.3 0 0 1 0.69,1.19 z m -0.77,-0.07 a 0.77,0.77 0 0 0 -0.88,-0.77 c -0.53,0 -0.88,0.28 -0.88,0.77 0,0.49 0.35,0.76 0.88,0.76 0.53,0 0.88,-0.28 0.88,-0.76 z m -1.59,-2.12 a 0.66,0.66 0 0 0 0.71,0.68 0.67,0.67 0 0 0 0.72,-0.68 0.66,0.66 0 0 0 -0.72,-0.68 0.64,0.64 0 0 0 -0.71,0.68 z"
         id="path2179"
         inkscape:connector-curvature="0" />
    </g>
    <g
       style="isolation:isolate"
       class="cls-18"
       id="g2191">
      <path
         style="fill:#cccccc"
         class="cls-8"
         d="m 20.59,292.21 -1.48,2.33 h -0.89 l 1.08,-1.64 h -0.09 a 1.58,1.58 0 0 1 -1.66,-1.68 1.59,1.59 0 0 1 1.66,-1.67 1.57,1.57 0 0 1 1.2,0.47 1.62,1.62 0 0 1 0.46,1.2 1.74,1.74 0 0 1 -0.28,0.99 z m -1.38,-0.08 a 0.91,0.91 0 0 0 0,-1.82 0.91,0.91 0 0 0 0,1.82 z"
         id="path2183"
         inkscape:connector-curvature="0" />
      <path
         style="fill:#cccccc"
         class="cls-8"
         d="m 21.51,292.78 v -0.73 H 24 v 0.73 z"
         id="path2185"
         inkscape:connector-curvature="0" />
      <path
         style="fill:#cccccc"
         class="cls-8"
         d="m 25.79,289.64 h 0.68 v 4.9 h -0.78 v -4 l -0.94,0.28 -0.19,-0.68 z"
         id="path2187"
         inkscape:connector-curvature="0" />
      <path
         style="fill:#cccccc"
         class="cls-8"
         d="m 28.8,291.29 a 1.59,1.59 0 0 1 1.66,1.71 1.66,1.66 0 1 1 -3.32,0 1.76,1.76 0 0 1 0.28,-1 l 1.49,-2.33 h 0.88 l -1.07,1.65 z m 0.89,1.67 a 0.89,0.89 0 1 0 -0.89,0.91 0.86,0.86 0 0 0 0.89,-0.87 z"
         id="path2189"
         inkscape:connector-curvature="0" />
    </g>
    <g
       style="isolation:isolate"
       class="cls-18"
       id="g2207">
      <path
         style="fill:#cccccc"
         class="cls-8"
         d="m 15.51,328.44 v 0.34 a 2.19,2.19 0 0 1 -2.3,2.29 2.39,2.39 0 0 1 -1.8,-0.74 2.65,2.65 0 0 1 0,-3.61 2.41,2.41 0 0 1 3.8,0.42 l -0.66,0.4 a 1.53,1.53 0 0 0 -1.38,-0.77 1.6,1.6 0 0 0 -1.22,0.5 1.8,1.8 0 0 0 -0.47,1.26 1.77,1.77 0 0 0 0.47,1.26 1.73,1.73 0 0 0 1.26,0.49 1.41,1.41 0 0 0 1.52,-1.12 h -1.57 v -0.72 z"
         id="path2193"
         inkscape:connector-curvature="0" />
      <path
         style="fill:#cccccc"
         class="cls-8"
         d="m 16.83,328.06 a 1,1 0 0 1 1,-0.65 v 0.82 a 1,1 0 0 0 -0.72,0.21 0.88,0.88 0 0 0 -0.31,0.77 V 331 h -0.72 v -3.51 h 0.72 z"
         id="path2195"
         inkscape:connector-curvature="0" />
      <path
         style="fill:#cccccc"
         class="cls-8"
         d="m 21.42,327.92 a 2,2 0 0 1 0,2.61 1.54,1.54 0 0 1 -1.18,0.54 1.37,1.37 0 0 1 -1.18,-0.59 v 1.9 h -0.72 v -4.91 h 0.72 V 328 a 1.35,1.35 0 0 1 1.18,-0.6 1.54,1.54 0 0 1 1.18,0.52 z m -1.3,2.43 a 1,1 0 0 0 0.76,-0.32 1.14,1.14 0 0 0 0.3,-0.81 1.09,1.09 0 0 0 -0.3,-0.79 1,1 0 0 0 -0.76,-0.33 1,1 0 0 0 -0.76,0.33 1.09,1.09 0 0 0 -0.3,0.79 1.14,1.14 0 0 0 0.3,0.81 1,1 0 0 0 0.76,0.32 z"
         id="path2197"
         inkscape:connector-curvature="0" />
      <path
         style="fill:#cccccc"
         class="cls-8"
         d="M 22.68,331.68 H 22.31 L 25,325.37 h 0.37 z"
         id="path2199"
         inkscape:connector-curvature="0" />
      <path
         style="fill:#cccccc"
         class="cls-8"
         d="m 28.57,331 -0.33,-1 h -2 l -0.33,1 h -0.84 l 1.71,-4.91 h 0.92 l 1.7,4.91 z m -2.08,-1.75 H 28 L 27.24,327 Z"
         id="path2201"
         inkscape:connector-curvature="0" />
      <path
         style="fill:#cccccc"
         class="cls-8"
         d="m 32,327.47 h 0.72 V 331 H 32 v -0.45 a 1.16,1.16 0 0 1 -1,0.54 1.28,1.28 0 0 1 -1.29,-1.45 v -2.15 h 0.72 v 2.08 a 0.72,0.72 0 0 0 0.75,0.81 c 0.51,0 0.86,-0.33 0.86,-1 z"
         id="path2203"
         inkscape:connector-curvature="0" />
      <path
         style="fill:#cccccc"
         class="cls-8"
         d="M 36.52,331 H 35.69 L 34.85,329.8 34,331 h -0.84 l 1.26,-1.8 -1.2,-1.71 h 0.84 l 0.78,1.11 0.77,-1.11 h 0.84 l -1.19,1.71 z"
         id="path2205"
         inkscape:connector-curvature="0" />
    </g>
    <g
       style="isolation:isolate"
       class="cls-18"
       id="g2215">
      <path
         style="fill:#cccccc"
         class="cls-8"
         d="m 376.18,253.11 h 0.67 V 258 h -0.77 v -4 l -0.95,0.28 -0.19,-0.68 z"
         id="path2209"
         inkscape:connector-curvature="0" />
      <path
         style="fill:#cccccc"
         class="cls-8"
         d="m 377.82,256.25 v -0.73 h 2.49 v 0.73 z"
         id="path2211"
         inkscape:connector-curvature="0" />
      <path
         style="fill:#cccccc"
         class="cls-8"
         d="m 384.31,256.66 a 1.45,1.45 0 0 1 -1.64,1.45 1.81,1.81 0 0 1 -1.21,-0.39 1.33,1.33 0 0 1 -0.44,-1.06 1.36,1.36 0 0 1 0.69,-1.2 1.15,1.15 0 0 1 -0.53,-1 1.29,1.29 0 0 1 0.43,-1 1.57,1.57 0 0 1 1.06,-0.37 1.6,1.6 0 0 1 1.05,0.37 1.29,1.29 0 0 1 0.44,1 1.16,1.16 0 0 1 -0.54,1 1.31,1.31 0 0 1 0.69,1.2 z m -0.77,-0.08 a 0.77,0.77 0 0 0 -0.87,-0.76 c -0.53,0 -0.88,0.28 -0.88,0.76 0,0.48 0.35,0.76 0.88,0.76 a 0.77,0.77 0 0 0 0.87,-0.76 z M 382,254.46 a 0.72,0.72 0 0 0 1.43,0 0.72,0.72 0 0 0 -1.43,0 z"
         id="path2213"
         inkscape:connector-curvature="0" />
    </g>
    <g
       style="isolation:isolate"
       class="cls-18"
       id="g2225">
      <path
         style="fill:#cccccc"
         class="cls-8"
         d="m 376.29,292.22 -1.49,2.33 h -0.88 L 375,292.9 h -0.08 a 1.62,1.62 0 0 1 -1.2,-0.46 1.79,1.79 0 0 1 0,-2.42 1.63,1.63 0 0 1 1.2,-0.47 1.6,1.6 0 0 1 1.19,0.47 1.64,1.64 0 0 1 0.47,1.21 1.85,1.85 0 0 1 -0.29,0.99 z m -1.38,-0.08 a 0.91,0.91 0 1 0 -0.89,-0.91 0.86,0.86 0 0 0 0.89,0.91 z"
         id="path2217"
         inkscape:connector-curvature="0" />
      <path
         style="fill:#cccccc"
         class="cls-8"
         d="m 377.21,292.78 v -0.73 h 2.48 v 0.73 z"
         id="path2219"
         inkscape:connector-curvature="0" />
      <path
         style="fill:#cccccc"
         class="cls-8"
         d="m 381.49,289.65 h 0.67 v 4.9 h -0.77 v -4 l -0.95,0.28 -0.19,-0.69 z"
         id="path2221"
         inkscape:connector-curvature="0" />
      <path
         style="fill:#cccccc"
         class="cls-8"
         d="m 384.5,291.29 a 1.6,1.6 0 0 1 1.19,0.47 1.63,1.63 0 0 1 0.47,1.2 1.67,1.67 0 0 1 -0.47,1.22 1.78,1.78 0 0 1 -2.39,0 1.67,1.67 0 0 1 -0.47,-1.22 1.71,1.71 0 0 1 0.29,-1 l 1.49,-2.33 h 0.88 l -1.08,1.64 z m 0.88,1.67 a 0.89,0.89 0 1 0 -0.88,0.92 0.85,0.85 0 0 0 0.88,-0.88 z"
         id="path2223"
         inkscape:connector-curvature="0" />
    </g>
    <g
       style="isolation:isolate"
       class="cls-18"
       id="g2241">
      <path
         style="fill:#cccccc"
         class="cls-8"
         d="m 371.71,328.44 v 0.34 a 2.18,2.18 0 0 1 -2.3,2.29 2.42,2.42 0 0 1 -1.8,-0.74 2.66,2.66 0 0 1 0,-3.6 2.41,2.41 0 0 1 3.81,0.42 l -0.67,0.4 a 1.53,1.53 0 0 0 -1.38,-0.78 1.6,1.6 0 0 0 -1.21,0.5 1.77,1.77 0 0 0 -0.48,1.26 1.74,1.74 0 0 0 0.48,1.26 1.68,1.68 0 0 0 1.26,0.5 1.43,1.43 0 0 0 1.52,-1.13 h -1.57 v -0.72 z"
         id="path2227"
         inkscape:connector-curvature="0" />
      <path
         style="fill:#cccccc"
         class="cls-8"
         d="m 373,328.06 a 1,1 0 0 1 1,-0.65 v 0.82 a 1,1 0 0 0 -0.73,0.21 0.93,0.93 0 0 0 -0.3,0.77 V 331 h -0.73 v -3.5 H 373 Z"
         id="path2229"
         inkscape:connector-curvature="0" />
      <path
         style="fill:#cccccc"
         class="cls-8"
         d="m 377.62,327.92 a 2,2 0 0 1 0,2.62 1.57,1.57 0 0 1 -1.18,0.53 1.34,1.34 0 0 1 -1.17,-0.59 v 1.9 h -0.73 v -4.9 h 0.73 v 0.5 a 1.32,1.32 0 0 1 1.17,-0.59 1.57,1.57 0 0 1 1.18,0.53 z m -1.29,2.43 a 1,1 0 0 0 0.76,-0.32 1.22,1.22 0 0 0 0,-1.6 1,1 0 0 0 -0.76,-0.32 1,1 0 0 0 -0.76,0.32 1.22,1.22 0 0 0 0,1.6 1,1 0 0 0 0.76,0.32 z"
         id="path2231"
         inkscape:connector-curvature="0" />
      <path
         style="fill:#cccccc"
         class="cls-8"
         d="m 378.89,331.68 h -0.37 l 2.69,-6.3 h 0.37 z"
         id="path2233"
         inkscape:connector-curvature="0" />
      <path
         style="fill:#cccccc"
         class="cls-8"
         d="m 384.77,331 -0.33,-1 h -2 l -0.32,1 h -0.84 l 1.7,-4.9 h 0.93 l 1.7,4.9 z m -2.07,-1.75 h 1.49 l -0.75,-2.21 z"
         id="path2235"
         inkscape:connector-curvature="0" />
      <path
         style="fill:#cccccc"
         class="cls-8"
         d="M 388.22,327.48 H 389 V 331 h -0.73 v -0.45 a 1.12,1.12 0 0 1 -1,0.54 1.28,1.28 0 0 1 -1.29,-1.44 v -2.15 h 0.73 v 2.07 a 0.71,0.71 0 0 0 0.75,0.81 c 0.51,0 0.85,-0.33 0.85,-1 z"
         id="path2237"
         inkscape:connector-curvature="0" />
      <path
         style="fill:#cccccc"
         class="cls-8"
         d="m 392.73,331 h -0.84 l -0.83,-1.2 -0.84,1.2 h -0.85 l 1.26,-1.8 -1.19,-1.7 h 0.84 l 0.77,1.1 0.77,-1.1 h 0.85 l -1.2,1.71 z"
         id="path2239"
         inkscape:connector-curvature="0" />
    </g>
  </g>
  <g
     id="Track_Knob"
     data-name="Track Knob"
     transform="scale(1.3333333,1.3333406)">
    <circle
       id="path5084"
       class="cls-19"
       cx="23.5"
       cy="64.339996"
       r="14.46"
       style="fill:url(#linear-gradient-2)" />
    <circle
       id="path5086"
       class="cls-20"
       cx="23.5"
       cy="64.339996"
       r="12.76"
       style="fill:url(#linear-gradient-3)" />
  </g>
</svg>
