<?xml version="1.0" encoding="UTF-8" standalone="no"?>
<svg
   xmlns:dc="http://purl.org/dc/elements/1.1/"
   xmlns:cc="http://creativecommons.org/ns#"
   xmlns:rdf="http://www.w3.org/1999/02/22-rdf-syntax-ns#"
   xmlns:svg="http://www.w3.org/2000/svg"
   xmlns="http://www.w3.org/2000/svg"
   xmlns:sodipodi="http://sodipodi.sourceforge.net/DTD/sodipodi-0.dtd"
   xmlns:inkscape="http://www.inkscape.org/namespaces/inkscape"
   inkscape:version="0.92.4 (5da689c313, 2019-01-14)"
   height="128.5mm"
   width="35.560001mm"
   sodipodi:docname="EqSpander.svg"
   id="svg145"
   version="1.1"
   viewBox="0 0 134.4 485.66928">
  <metadata
     id="metadata149">
    <rdf:RDF>
      <cc:Work
         rdf:about="">
        <dc:format>image/svg+xml</dc:format>
        <dc:type
           rdf:resource="http://purl.org/dc/dcmitype/StillImage" />
        <dc:title>Asset 1</dc:title>
      </cc:Work>
    </rdf:RDF>
  </metadata>
  <sodipodi:namedview
     inkscape:current-layer="svg145"
     inkscape:window-maximized="1"
     inkscape:window-y="-8"
     inkscape:window-x="-8"
     inkscape:cy="242.83463"
     inkscape:cx="67.200006"
     inkscape:zoom="1.750162"
     units="mm"
     inkscape:document-units="mm"
     showgrid="false"
     id="namedview147"
     inkscape:window-height="1017"
     inkscape:window-width="1920"
     inkscape:pageshadow="2"
     inkscape:pageopacity="0"
     guidetolerance="10"
     gridtolerance="10"
     objecttolerance="10"
     borderopacity="1"
     inkscape:document-rotation="0"
     bordercolor="#666666"
     pagecolor="#ffffff" />
  <defs
     id="defs17">
    <style
       id="style10">.cls-1{fill:#353535;}.cls-2{fill:#818282;}.cls-3{isolation:isolate;}.cls-4{fill:#cccbcb;}.cls-5{fill:gray;}.cls-6{fill:url(#linear-gradient);}.cls-7{fill:#b3b3b3;}</style>
    <linearGradient
       gradientUnits="userSpaceOnUse"
       y2="349.56"
       x2="48.139999"
       y1="349.56"
       x1="28.360001"
       id="linear-gradient">
      <stop
         id="stop12"
         stop-color="#3fa9f5"
         offset="0" />
      <stop
         id="stop14"
         stop-color="#ed1e79"
         offset="1" />
    </linearGradient>
  </defs>
  <title
     id="title19">Asset 1</title>
  <g
     id="Layer_1-2"
     data-name="Layer 1"
     transform="scale(1.3333334,1.3333406)">
    <g
       id="background">
      <path
         style="fill:#353535"
         id="rect4155"
         class="cls-1"
         d="M 0,0 H 100.8 V 364.25 H 0 Z"
         inkscape:connector-curvature="0" />
    </g>
    <rect
       style="fill:#818282"
       class="cls-2"
       x="22.07"
       y="97.800003"
       width="1"
       height="215.28999"
       id="rect23" />
    <rect
       style="fill:#818282"
       class="cls-2"
       x="49.900002"
       y="97.800003"
       width="1"
       height="215.28999"
       id="rect25" />
    <rect
       style="fill:#818282"
       class="cls-2"
       x="77.730003"
       y="97.800003"
       width="1"
       height="215.28999"
       id="rect27" />
    <g
       style="isolation:isolate"
       class="cls-3"
       id="g35">
      <path
         style="fill:#cccbcb"
         class="cls-4"
         d="m 18.54,75.27 h 0.68 v 4.91 h -0.78 v -4.05 l -0.94,0.28 -0.19,-0.68 z"
         id="path29"
         inkscape:connector-curvature="0" />
      <path
         style="fill:#cccbcb"
         class="cls-4"
         d="m 20.19,78.41 v -0.73 h 2.49 v 0.73 z"
         id="path31"
         inkscape:connector-curvature="0" />
      <path
         style="fill:#cccbcb"
         class="cls-4"
         d="m 26.68,78.82 a 1.46,1.46 0 0 1 -1.68,1.45 1.79,1.79 0 0 1 -1.2,-0.39 1.33,1.33 0 0 1 -0.45,-1.06 1.35,1.35 0 0 1 0.69,-1.19 1.2,1.2 0 0 1 -0.53,-1 1.32,1.32 0 0 1 0.43,-1 1.7,1.7 0 0 1 2.12,0 1.29,1.29 0 0 1 0.43,1 1.2,1.2 0 0 1 -0.53,1 1.28,1.28 0 0 1 0.72,1.19 z m -0.77,-0.08 c 0,-0.48 -0.36,-0.76 -0.88,-0.76 -0.52,0 -0.88,0.28 -0.88,0.76 0,0.48 0.35,0.76 0.88,0.76 0.53,0 0.88,-0.28 0.88,-0.76 z m -1.59,-2.12 a 0.66,0.66 0 0 0 0.71,0.68 0.67,0.67 0 0 0 0.72,-0.68 0.66,0.66 0 0 0 -0.72,-0.68 0.64,0.64 0 0 0 -0.71,0.68 z"
         id="path33"
         inkscape:connector-curvature="0" />
    </g>
    <g
       style="isolation:isolate"
       class="cls-3"
       id="g45">
      <path
         style="fill:#cccbcb"
         class="cls-4"
         d="m 11.19,47.49 h 0.67 v 4.9 h -0.77 v -4 L 10.14,48.67 10,47.94 Z"
         id="path37"
         inkscape:connector-curvature="0" />
      <path
         style="fill:#cccbcb"
         class="cls-4"
         d="M 12.84,50.63 V 49.9 h 2.48 v 0.73 z"
         id="path39"
         inkscape:connector-curvature="0" />
      <path
         style="fill:#cccbcb"
         class="cls-4"
         d="m 17.12,47.49 h 0.67 v 4.9 H 17 v -4 l -0.94,0.28 -0.19,-0.69 z"
         id="path41"
         inkscape:connector-curvature="0" />
      <path
         style="fill:#cccbcb"
         class="cls-4"
         d="m 20.13,49.14 a 1.6,1.6 0 0 1 1.19,0.46 1.82,1.82 0 0 1 0,2.42 1.6,1.6 0 0 1 -1.19,0.46 1.58,1.58 0 0 1 -1.67,-1.67 1.76,1.76 0 0 1 0.28,-1 l 1.49,-2.33 h 0.88 L 20,49.14 Z M 21,50.81 A 0.89,0.89 0 1 0 20.12,51.72 0.85,0.85 0 0 0 21,50.81 Z"
         id="path43"
         inkscape:connector-curvature="0" />
    </g>
    <g
       style="isolation:isolate"
       class="cls-3"
       id="g53">
      <path
         style="fill:#cccbcb"
         class="cls-4"
         d="m 83.4,49.86 v 0.33 a 2.18,2.18 0 0 1 -2.3,2.29 2.38,2.38 0 0 1 -1.8,-0.73 2.65,2.65 0 0 1 0,-3.61 2.41,2.41 0 0 1 3.8,0.42 l -0.66,0.4 a 1.54,1.54 0 0 0 -1.38,-0.78 1.61,1.61 0 0 0 -1.22,0.51 1.91,1.91 0 0 0 0,2.51 1.69,1.69 0 0 0 1.26,0.5 1.41,1.41 0 0 0 1.52,-1.12 h -1.57 v -0.72 z"
         id="path47"
         inkscape:connector-curvature="0" />
      <path
         style="fill:#cccbcb"
         class="cls-4"
         d="m 84.24,53.09 h -0.36 l 2.68,-6.3 h 0.37 z"
         id="path49"
         inkscape:connector-curvature="0" />
      <path
         style="fill:#cccbcb"
         class="cls-4"
         d="m 90.7,52.39 -0.33,-1 h -2 l -0.33,1 H 87.2 l 1.71,-4.9 h 0.92 l 1.7,4.9 z m -2.08,-1.74 h 1.5 l -0.75,-2.21 z"
         id="path51"
         inkscape:connector-curvature="0" />
    </g>
    <g
       style="isolation:isolate"
       class="cls-3"
       id="g63">
      <path
         style="fill:#cccbcb"
         class="cls-4"
         d="M 47.48,77.84 46,80.18 h -0.89 l 1.08,-1.65 h -0.08 a 1.62,1.62 0 0 1 -1.2,-0.46 1.67,1.67 0 0 1 -0.47,-1.21 1.61,1.61 0 0 1 1.67,-1.68 1.6,1.6 0 0 1 1.19,0.47 1.64,1.64 0 0 1 0.47,1.21 1.71,1.71 0 0 1 -0.29,0.98 z m -1.37,-0.07 a 0.92,0.92 0 0 0 0,-1.83 0.92,0.92 0 0 0 0,1.83 z"
         id="path55"
         inkscape:connector-curvature="0" />
      <path
         style="fill:#cccbcb"
         class="cls-4"
         d="m 48.41,78.41 v -0.73 h 2.48 v 0.73 z"
         id="path57"
         inkscape:connector-curvature="0" />
      <path
         style="fill:#cccbcb"
         class="cls-4"
         d="m 52.69,75.27 h 0.67 v 4.91 h -0.77 v -4.05 l -1,0.28 -0.19,-0.68 z"
         id="path59"
         inkscape:connector-curvature="0" />
      <path
         style="fill:#cccbcb"
         class="cls-4"
         d="m 55.7,76.92 a 1.57,1.57 0 0 1 1.19,0.47 1.7,1.7 0 1 1 -2.89,1.2 1.76,1.76 0 0 1 0.28,-1 l 1.49,-2.33 h 0.88 l -1.07,1.65 z m 0.88,1.67 a 0.89,0.89 0 1 0 -0.88,0.91 0.85,0.85 0 0 0 0.88,-0.91 z"
         id="path61"
         inkscape:connector-curvature="0" />
    </g>
    <g
       style="isolation:isolate"
       class="cls-3"
       id="g79">
      <path
         style="fill:#cccbcb"
         class="cls-4"
         d="M 70.24,77.64 V 78 a 2.18,2.18 0 0 1 -2.3,2.29 2.42,2.42 0 0 1 -1.8,-0.74 2.68,2.68 0 0 1 0,-3.61 2.42,2.42 0 0 1 3.81,0.42 l -0.67,0.4 A 1.52,1.52 0 0 0 67.9,76 a 1.56,1.56 0 0 0 -1.21,0.5 1.77,1.77 0 0 0 -0.48,1.26 1.71,1.71 0 0 0 0.48,1.24 1.68,1.68 0 0 0 1.26,0.5 1.41,1.41 0 0 0 1.51,-1.12 h -1.57 v -0.72 z"
         id="path65"
         inkscape:connector-curvature="0" />
      <path
         style="fill:#cccbcb"
         class="cls-4"
         d="m 71.56,77.26 a 1,1 0 0 1 1,-0.65 v 0.82 a 1,1 0 0 0 -0.73,0.21 0.91,0.91 0 0 0 -0.31,0.77 v 1.77 H 70.8 v -3.51 h 0.72 z"
         id="path67"
         inkscape:connector-curvature="0" />
      <path
         style="fill:#cccbcb"
         class="cls-4"
         d="m 76.15,77.12 a 2,2 0 0 1 0,2.61 1.54,1.54 0 0 1 -1.18,0.54 1.37,1.37 0 0 1 -1.18,-0.59 v 1.9 h -0.72 v -4.91 h 0.72 v 0.51 a 1.35,1.35 0 0 1 1.18,-0.6 1.54,1.54 0 0 1 1.18,0.54 z m -1.29,2.43 a 1,1 0 0 0 0.76,-0.32 1.14,1.14 0 0 0 0.3,-0.81 1.09,1.09 0 0 0 -0.3,-0.79 1,1 0 0 0 -0.76,-0.33 1,1 0 0 0 -0.76,0.33 1.1,1.1 0 0 0 -0.31,0.79 1.15,1.15 0 0 0 0.31,0.81 1,1 0 0 0 0.76,0.32 z"
         id="path69"
         inkscape:connector-curvature="0" />
      <path
         style="fill:#cccbcb"
         class="cls-4"
         d="m 77.42,80.88 h -0.37 l 2.68,-6.31 h 0.37 z"
         id="path71"
         inkscape:connector-curvature="0" />
      <path
         style="fill:#cccbcb"
         class="cls-4"
         d="m 83.3,80.18 -0.33,-1 H 81 l -0.33,1 H 79.8 l 1.71,-4.91 h 0.93 l 1.69,4.91 z m -2.07,-1.75 h 1.49 L 82,76.22 Z"
         id="path73"
         inkscape:connector-curvature="0" />
      <path
         style="fill:#cccbcb"
         class="cls-4"
         d="m 86.75,76.67 h 0.72 v 3.51 h -0.72 v -0.45 a 1.14,1.14 0 0 1 -1,0.54 1.29,1.29 0 0 1 -1.29,-1.45 v -2.15 h 0.73 v 2.08 a 0.71,0.71 0 0 0 0.75,0.81 c 0.51,0 0.85,-0.33 0.85,-1 z"
         id="path75"
         inkscape:connector-curvature="0" />
      <path
         style="fill:#cccbcb"
         class="cls-4"
         d="M 91.26,80.18 H 90.42 L 89.59,79 88.75,80.2 H 87.9 L 89.16,78.4 88,76.67 h 0.84 l 0.77,1.11 0.77,-1.11 h 0.85 L 90,78.38 Z"
         id="path77"
         inkscape:connector-curvature="0" />
    </g>
    <path
       style="fill:#cccbcb"
       class="cls-4"
       d="m 41.56,34 0.57,-0.35 a 1,1 0 0 0 1,0.71 c 0.5,0 0.75,-0.22 0.75,-0.55 a 0.44,0.44 0 0 0 -0.2,-0.39 2.91,2.91 0 0 0 -0.72,-0.3 2.58,2.58 0 0 1 -0.85,-0.39 1,1 0 0 1 -0.39,-0.84 1.07,1.07 0 0 1 0.38,-0.88 1.3,1.3 0 0 1 0.92,-0.33 1.48,1.48 0 0 1 1.41,0.92 l -0.56,0.34 a 0.87,0.87 0 0 0 -0.85,-0.59 c -0.39,0 -0.64,0.2 -0.64,0.52 0,0.32 0.2,0.46 0.82,0.65 l 0.33,0.12 0.3,0.12 a 1.26,1.26 0 0 1 0.3,0.17 1.06,1.06 0 0 1 0.42,0.86 1.14,1.14 0 0 1 -0.4,0.91 1.56,1.56 0 0 1 -1,0.33 A 1.53,1.53 0 0 1 41.56,34 Z"
       id="path81"
       inkscape:connector-curvature="0" />
    <path
       style="fill:#cccbcb"
       class="cls-4"
       d="m 48.08,30.79 v 0.66 H 46.94 V 35 h -0.66 v -3.55 h -1.15 v -0.66 z"
       id="path83"
       inkscape:connector-curvature="0" />
    <path
       style="fill:#cccbcb"
       class="cls-4"
       d="M 51.39,35 51.1,34.16 H 49.38 L 49.1,35 h -0.73 l 1.47,-4.2 h 0.8 L 52.1,35 Z M 49.6,33.5 h 1.28 l -0.64,-1.9 z"
       id="path85"
       inkscape:connector-curvature="0" />
    <path
       style="fill:#cccbcb"
       class="cls-4"
       d="m 55.35,30.79 v 0.66 H 54.21 V 35 H 53.54 V 31.45 H 52.4 v -0.66 z"
       id="path87"
       inkscape:connector-curvature="0" />
    <path
       style="fill:#cccbcb"
       class="cls-4"
       d="m 57,34.33 h 1.79 V 35 H 56.3 v -4.2 h 2.43 v 0.66 H 57 v 1.1 h 1.62 v 0.65 H 57 Z"
       id="path89"
       inkscape:connector-curvature="0" />
    <path
       style="fill:#cccbcb"
       class="cls-4"
       d="m 16.48,16.53 h 3.39 v 1.86 H 14.55 V 9.92 h 5.26 v 1.87 h -3.33 v 1.4 h 3 V 15 h -3 z"
       id="path91"
       inkscape:connector-curvature="0" />
    <path
       style="fill:#cccbcb"
       class="cls-4"
       d="m 29,16.93 0.85,0.89 -1.39,1.24 -0.91,-1 a 4.6,4.6 0 0 1 -2,0.46 4.27,4.27 0 0 1 -3.12,-1.27 4.22,4.22 0 0 1 -1.28,-3.13 4.22,4.22 0 0 1 1.27,-3.12 4.47,4.47 0 0 1 6.24,0 4.23,4.23 0 0 1 1.34,3.16 4.31,4.31 0 0 1 -1,2.77 z m -2.84,-0.32 -1.23,-1.29 1.4,-1.24 1.35,1.44 a 2.78,2.78 0 0 0 0.32,-1.36 2.47,2.47 0 0 0 -0.71,-1.82 2.56,2.56 0 0 0 -3.52,0 2.43,2.43 0 0 0 -0.71,1.82 2.41,2.41 0 0 0 2.47,2.51 3.38,3.38 0 0 0 0.61,-0.06 z"
       id="path93"
       inkscape:connector-curvature="0" />
    <path
       style="fill:#808080"
       class="cls-5"
       d="m 31,16.47 1.67,-1 a 1.78,1.78 0 0 0 1.78,1.17 c 0.76,0 1.15,-0.23 1.15,-0.69 a 0.63,0.63 0 0 0 -0.37,-0.58 6.67,6.67 0 0 0 -1.38,-0.49 4.71,4.71 0 0 1 -1.72,-0.8 2.18,2.18 0 0 1 -0.78,-1.78 2.33,2.33 0 0 1 0.84,-1.88 3,3 0 0 1 2,-0.7 3.3,3.3 0 0 1 3.1,1.91 l -1.64,1 a 1.47,1.47 0 0 0 -1.46,-1 c -0.58,0 -0.91,0.29 -0.91,0.64 a 0.71,0.71 0 0 0 0.29,0.55 4.59,4.59 0 0 0 1.23,0.5 l 0.79,0.26 a 4.12,4.12 0 0 1 0.7,0.33 2.07,2.07 0 0 1 0.66,0.47 2.48,2.48 0 0 1 -0.29,3.48 3.58,3.58 0 0 1 -2.28,0.69 A 3.34,3.34 0 0 1 31,16.47 Z"
       id="path95"
       inkscape:connector-curvature="0" />
    <path
       style="fill:#808080"
       class="cls-5"
       d="m 42.22,9.92 a 2.86,2.86 0 0 1 2.11,0.85 2.89,2.89 0 0 1 0,4.11 2.86,2.86 0 0 1 -2.11,0.85 H 41 v 2.66 H 39 V 9.92 Z m 0,4 a 1.09,1.09 0 0 0 0,-2.18 H 41 v 2.18 z"
       id="path97"
       inkscape:connector-curvature="0" />
    <path
       style="fill:#808080"
       class="cls-5"
       d="m 51.3,18.39 -0.43,-1.33 h -3.14 l -0.43,1.33 h -2.11 l 2.88,-8.47 h 2.46 l 2.88,8.47 z m -3,-3.14 h 2 l -1,-3.11 z"
       id="path99"
       inkscape:connector-curvature="0" />
    <path
       style="fill:#808080"
       class="cls-5"
       d="m 59.46,9.92 h 1.94 v 8.47 H 60 l -3.27,-4.6 v 4.6 H 54.74 V 9.92 h 1.46 l 3.26,4.6 z"
       id="path101"
       inkscape:connector-curvature="0" />
    <path
       style="fill:#808080"
       class="cls-5"
       d="m 66.84,9.92 a 3.92,3.92 0 0 1 2.93,1.22 4.16,4.16 0 0 1 1.19,3 4.18,4.18 0 0 1 -1.19,3 3.92,3.92 0 0 1 -2.93,1.21 H 63.45 V 9.92 Z m 0,6.61 a 2.17,2.17 0 0 0 1.62,-0.64 2.37,2.37 0 0 0 0.63,-1.73 2.3,2.3 0 0 0 -0.63,-1.72 2.1,2.1 0 0 0 -1.62,-0.65 h -1.45 v 4.74 z"
       id="path103"
       inkscape:connector-curvature="0" />
    <path
       style="fill:#808080"
       class="cls-5"
       d="M 74.58,16.53 H 78 v 1.86 H 72.65 V 9.92 h 5.26 v 1.87 h -3.33 v 1.4 h 3 V 15 h -3 z"
       id="path105"
       inkscape:connector-curvature="0" />
    <path
       style="fill:#808080"
       class="cls-5"
       d="m 84.12,18.39 -1.6,-2.78 H 81.6 v 2.78 H 79.66 V 9.92 h 3.39 a 2.83,2.83 0 0 1 1.34,5.36 l 1.81,3.11 z M 81.6,11.74 v 2.18 h 1.45 a 1.1,1.1 0 0 0 0,-2.18 z"
       id="path107"
       inkscape:connector-curvature="0" />
    <path
       class="cls-6"
       d="m 28.87,355.74 a 0.47,0.47 0 0 1 -0.25,-0.07 0.51,0.51 0 0 1 -0.2,-0.7 l 6.25,-11.32 a 0.52,0.52 0 0 1 1,0.25 v 9.33 l 5.29,-9.58 a 0.5,0.5 0 0 1 0.57,-0.25 0.51,0.51 0 0 1 0.39,0.5 v 9.33 l 5.29,-9.58 a 0.51,0.51 0 0 1 0.58,-0.25 0.52,0.52 0 0 1 0.38,0.5 v 11.32 a 0.51,0.51 0 1 1 -1,0 v -9.33 l -5.29,9.58 a 0.52,0.52 0 0 1 -1,-0.25 v -9.33 l -5.29,9.58 a 0.5,0.5 0 0 1 -0.57,0.25 0.51,0.51 0 0 1 -0.39,-0.5 v -9.33 l -5.29,9.58 a 0.51,0.51 0 0 1 -0.47,0.27 z"
       id="path109"
       inkscape:connector-curvature="0"
       style="fill:url(#linear-gradient)" />
    <path
       style="fill:#808080"
       class="cls-5"
       d="M 55.67,348.62 Z"
       id="path111"
       inkscape:connector-curvature="0" />
    <path
       style="fill:#b3b3b3"
       class="cls-7"
       d="m 55.68,343.4 h -0.11 a 0.48,0.48 0 0 0 -0.45,0.25 l -1.72,2.69 -1.71,-2.68 a 0.53,0.53 0 0 0 -0.46,-0.26 h -0.1 a 0.49,0.49 0 0 0 -0.5,0.5 v 4.73 a 0.47,0.47 0 0 0 0.48,0.48 0.48,0.48 0 0 0 0.49,-0.48 v -3.38 l 1.4,2.06 a 0.5,0.5 0 0 0 0.41,0.26 0.48,0.48 0 0 0 0.42,-0.26 l 1.38,-2.08 v 3.39 a 0.5,0.5 0 0 0 0.5,0.49 0.49,0.49 0 0 0 0.5,-0.49 v -4.72 a 0.5,0.5 0 0 0 -0.5,-0.5 z"
       id="path113"
       inkscape:connector-curvature="0" />
    <path
       style="fill:#808080"
       class="cls-5"
       d="m 57.28,343.88 a 0.5,0.5 0 0 1 1,0 v 4.74 a 0.5,0.5 0 0 1 -1,0 z"
       id="path115"
       inkscape:connector-curvature="0" />
    <path
       style="fill:#b3b3b3"
       class="cls-7"
       d="m 57.78,343.39 a 0.49,0.49 0 0 0 -0.5,0.49 v 4.74 a 0.5,0.5 0 0 0 1,0 v -4.74 a 0.49,0.49 0 0 0 -0.5,-0.49 z"
       id="path117"
       inkscape:connector-curvature="0" />
    <path
       style="fill:#808080"
       class="cls-5"
       d="m 59.38,343.9 a 0.5,0.5 0 0 1 0.5,-0.5 H 60 a 0.61,0.61 0 0 1 0.51,0.29 l 2.83,3.65 v -3.47 a 0.48,0.48 0 0 1 0.48,-0.48 0.49,0.49 0 0 1 0.49,0.48 v 4.74 a 0.48,0.48 0 0 1 -0.48,0.5 v 0 a 0.62,0.62 0 0 1 -0.52,-0.3 l -2.9,-3.76 v 3.58 a 0.5,0.5 0 0 1 -1,0 z"
       id="path119"
       inkscape:connector-curvature="0" />
    <path
       style="fill:#b3b3b3"
       class="cls-7"
       d="m 63.81,343.39 a 0.48,0.48 0 0 0 -0.48,0.48 v 3.47 l -2.83,-3.65 a 0.61,0.61 0 0 0 -0.51,-0.29 h -0.11 a 0.5,0.5 0 0 0 -0.5,0.5 v 4.73 a 0.5,0.5 0 0 0 1,0 v -3.58 l 2.9,3.76 a 0.62,0.62 0 0 0 0.52,0.3 v 0 a 0.48,0.48 0 0 0 0.48,-0.5 v -4.74 a 0.49,0.49 0 0 0 -0.49,-0.48 z"
       id="path121"
       inkscape:connector-curvature="0" />
    <path
       style="fill:#808080"
       class="cls-5"
       d="m 69.71,347.32 a 2.73,2.73 0 0 0 0.21,-1.05 2.41,2.41 0 0 0 -0.53,-1.56 2.21,2.21 0 0 1 0.57,1.52 2.43,2.43 0 0 1 -0.25,1.09 z"
       id="path123"
       inkscape:connector-curvature="0" />
    <path
       style="fill:#b3b3b3"
       class="cls-7"
       d="m 67.46,343.43 h -1.61 a 0.5,0.5 0 0 0 -0.5,0.5 v 4.64 a 0.49,0.49 0 0 0 0.5,0.5 h 1.61 a 2.83,2.83 0 0 0 3,-2.82 v 0 a 2.82,2.82 0 0 0 -3,-2.8 z m -1.11,4.74 v -3.84 h 1.11 a 1.86,1.86 0 0 1 2,1.92 v 0 a 1.84,1.84 0 0 1 -2,1.9 z"
       id="path125"
       inkscape:connector-curvature="0" />
    <path
       style="fill:#808080"
       class="cls-5"
       d="M 55.67,355.23 Z"
       id="path127"
       inkscape:connector-curvature="0" />
    <path
       style="fill:#b3b3b3"
       class="cls-7"
       d="m 55.68,350 h -0.11 a 0.49,0.49 0 0 0 -0.45,0.26 L 53.4,353 51.69,350.32 a 0.53,0.53 0 0 0 -0.46,-0.26 h -0.1 a 0.49,0.49 0 0 0 -0.5,0.5 v 4.73 a 0.48,0.48 0 0 0 0.48,0.49 0.48,0.48 0 0 0 0.49,-0.49 v -3.38 l 1.4,2.01 a 0.5,0.5 0 0 0 0.41,0.26 0.48,0.48 0 0 0 0.42,-0.26 l 1.38,-2.07 v 3.38 a 0.51,0.51 0 0 0 0.5,0.5 0.5,0.5 0 0 0 0.5,-0.5 v -4.72 a 0.5,0.5 0 0 0 -0.5,-0.5 z"
       id="path129"
       inkscape:connector-curvature="0" />
    <path
       style="fill:#808080"
       class="cls-5"
       d="m 57.23,355.19 v -4.65 a 0.5,0.5 0 0 1 0.5,-0.5 H 61 a 0.45,0.45 0 0 1 0,0.89 h -2.78 v 1.46 h 2.43 a 0.45,0.45 0 0 1 0.44,0.46 0.44,0.44 0 0 1 -0.44,0.43 h -2.43 v 1.52 h 2.83 a 0.45,0.45 0 0 1 0,0.89 h -3.32 a 0.5,0.5 0 0 1 -0.5,-0.5 z"
       id="path131"
       inkscape:connector-curvature="0" />
    <path
       style="fill:#b3b3b3"
       class="cls-7"
       d="m 61,350 h -3.27 a 0.5,0.5 0 0 0 -0.5,0.5 v 4.65 a 0.5,0.5 0 0 0 0.5,0.5 h 3.32 a 0.45,0.45 0 0 0 0,-0.89 h -2.83 v -1.52 h 2.43 a 0.44,0.44 0 0 0 0.44,-0.43 0.45,0.45 0 0 0 -0.44,-0.46 h -2.43 v -1.46 H 61 A 0.45,0.45 0 0 0 61,350 Z"
       id="path133"
       inkscape:connector-curvature="0" />
    <path
       style="fill:#808080"
       class="cls-5"
       d="m 62.23,350.49 a 0.5,0.5 0 0 1 1,0 v 4.29 h 2.56 a 0.45,0.45 0 0 1 0.45,0.45 0.46,0.46 0 0 1 -0.45,0.46 h -3.06 a 0.5,0.5 0 0 1 -0.5,-0.5 z"
       id="path135"
       inkscape:connector-curvature="0" />
    <path
       style="fill:#b3b3b3"
       class="cls-7"
       d="m 62.73,350 a 0.49,0.49 0 0 0 -0.5,0.49 v 4.7 a 0.5,0.5 0 0 0 0.5,0.5 h 3.05 a 0.46,0.46 0 0 0 0.45,-0.46 0.45,0.45 0 0 0 -0.45,-0.45 h -2.56 v -4.29 A 0.49,0.49 0 0 0 62.73,350 Z"
       id="path137"
       inkscape:connector-curvature="0" />
    <path
       style="fill:#808080"
       class="cls-5"
       d="m 71.17,353.94 a 2.61,2.61 0 0 0 0.22,-1.06 2.5,2.5 0 0 0 -0.53,-1.57 2.26,2.26 0 0 1 0.57,1.54 2.31,2.31 0 0 1 -0.26,1.09 z"
       id="path139"
       inkscape:connector-curvature="0" />
    <path
       style="fill:#b3b3b3"
       class="cls-7"
       d="m 68.93,350 h -1.61 a 0.5,0.5 0 0 0 -0.5,0.5 v 4.65 a 0.5,0.5 0 0 0 0.5,0.5 h 1.61 a 2.83,2.83 0 0 0 3,-2.83 v 0 a 2.82,2.82 0 0 0 -3,-2.81 z m -1.12,4.74 v -3.84 h 1.12 a 1.86,1.86 0 0 1 2,1.92 v 0 a 1.84,1.84 0 0 1 -2,1.9 z"
       id="path141"
       inkscape:connector-curvature="0" />
  </g>
</svg>
