<?xml version="1.0" encoding="UTF-8" standalone="no"?>
<svg
   xmlns:dc="http://purl.org/dc/elements/1.1/"
   xmlns:cc="http://creativecommons.org/ns#"
   xmlns:rdf="http://www.w3.org/1999/02/22-rdf-syntax-ns#"
   xmlns:svg="http://www.w3.org/2000/svg"
   xmlns="http://www.w3.org/2000/svg"
   xmlns:sodipodi="http://sodipodi.sourceforge.net/DTD/sodipodi-0.dtd"
   xmlns:inkscape="http://www.inkscape.org/namespaces/inkscape"
   inkscape:version="0.92.4 (5da689c313, 2019-01-14)"
   height="128.5mm"
   width="91.440002mm"
   sodipodi:docname="labeltester.svg"
   id="svg141"
   version="1.1"
   viewBox="0 0 345.60001 485.66928">
  <metadata
     id="metadata145">
    <rdf:RDF>
      <cc:Work
         rdf:about="">
        <dc:format>image/svg+xml</dc:format>
        <dc:type
           rdf:resource="http://purl.org/dc/dcmitype/StillImage" />
        <dc:title>Asset 8</dc:title>
      </cc:Work>
    </rdf:RDF>
  </metadata>
  <sodipodi:namedview
     inkscape:current-layer="svg141"
     inkscape:window-maximized="1"
     inkscape:window-y="-8"
     inkscape:window-x="-8"
     inkscape:cy="128.5595"
     inkscape:cx="172.8"
     inkscape:zoom="1.7501621"
     units="mm"
     inkscape:document-units="mm"
     showgrid="false"
     id="namedview143"
     inkscape:window-height="1017"
     inkscape:window-width="1920"
     inkscape:pageshadow="2"
     inkscape:pageopacity="0"
     guidetolerance="10"
     gridtolerance="10"
     objecttolerance="10"
     borderopacity="1"
     inkscape:document-rotation="0"
     bordercolor="#666666"
     pagecolor="#ffffff" />
  <defs
     id="defs17">
    <style
       id="style10">.cls-1{fill:#353535;}.cls-2{fill:url(#linear-gradient);}.cls-3{fill:gray;}.cls-4{fill:#b3b3b3;}.cls-5{fill:#ccc;}.cls-6{fill:#121212;}.cls-7{fill:#fff;}</style>
    <linearGradient
       gradientUnits="userSpaceOnUse"
       y2="349.56"
       x2="40.939999"
       y1="349.56"
       x1="21.09"
       id="linear-gradient"
       gradientTransform="matrix(1.3333333,0,0,1.3333406,116,0)">
      <stop
         id="stop12"
         stop-color="#3fa9f5"
         offset="0" />
      <stop
         id="stop14"
         stop-color="#ed1e79"
         offset="1" />
    </linearGradient>
  </defs>
  <title
     id="title19">Asset 8</title>
  <g
     id="Layer_2-2"
     data-name="Layer 2"
     transform="scale(4,1.3333406)"
     style="stroke-width:0.57735026">
    <g
       id="background"
       style="stroke-width:0.57735026">
      <path
         style="fill:#353535;stroke-width:0.57735026"
         id="rect4155"
         class="cls-1"
         d="M 0,0 H 86.4 V 364.25 H 0 Z"
         inkscape:connector-curvature="0" />
    </g>
  </g>
  <path
     style="fill:url(#linear-gradient);stroke-width:1.33333695"
     inkscape:connector-curvature="0"
     id="path24"
     d="m 144.8,474.32259 a 0.62666665,0.62667008 0 0 1 -0.33333,-0.0933 0.67999998,0.68000371 0 0 1 -0.26667,-0.93334 l 8.36,-15.09341 a 0.69333332,0.69333711 0 0 1 1.33333,0.33333 v 12.44007 l 7.08,-12.7734 a 0.67999998,0.68000371 0 0 1 0.77334,-0.33334 0.69333332,0.69333711 0 0 1 0.50666,0.66667 v 12.44007 l 7.08,-12.7734 a 0.67999998,0.68000371 0 0 1 0.77334,-0.33334 0.67999998,0.68000371 0 0 1 0.52,0.66667 v 15.09342 a 0.69333332,0.69333711 0 0 1 -0.69334,0.69334 0.67999998,0.68000371 0 0 1 -0.68,-0.69334 v -12.44007 l -7.08,12.7734 A 0.69333332,0.69333711 0 0 1 160.84,473.62929 v -12.44007 l -7.08,12.7734 a 0.67999998,0.68000371 0 0 1 -0.77333,0.33334 0.69333332,0.69333711 0 0 1 -0.50667,-0.66667 v -12.44007 l -7.08,12.7734 a 0.67999998,0.68000371 0 0 1 -0.6,0.36001 z"
     class="cls-2" />
  <path
     inkscape:connector-curvature="0"
     id="path26"
     d="m 173.90667,458.53583 a 0.66666665,0.6666703 0 0 1 0.66666,-0.66667 h 0.0933 a 0.71999998,0.72000392 0 0 1 0.62667,0.34667 l 2.28,3.57335 2.29333,-3.58668 a 0.67999998,0.68000371 0 0 1 0.61334,-0.33334 h 0.13333 a 0.66666665,0.6666703 0 0 1 0.68,0.66667 v 6.29337 a 0.65333332,0.65333689 0 0 1 -0.68,0.65334 0.66666665,0.6666703 0 0 1 -0.65333,-0.65334 v -4.52002 l -1.84,2.77334 a 0.62666665,0.62667008 0 0 1 -1.12,0 l -1.82667,-2.74668 v 4.50669 a 0.63999998,0.64000349 0 0 1 -0.66667,0.64001 0.62666665,0.62667008 0 0 1 -0.64,-0.64001 z"
     class="cls-3"
     style="fill:#808080;stroke-width:1.33333695" />
  <path
     inkscape:connector-curvature="0"
     id="path28"
     d="M 180.65333,457.86916 H 180.52 a 0.67999998,0.68000371 0 0 0 -0.61333,0.33334 l -2.29334,3.58668 -2.28,-3.57335 a 0.71999998,0.72000392 0 0 0 -0.62666,-0.34667 h -0.13334 a 0.66666665,0.6666703 0 0 0 -0.66666,0.66667 v 6.3067 a 0.62666665,0.62667008 0 0 0 0.64,0.64001 0.63999998,0.64000349 0 0 0 0.66666,-0.64001 v -4.50669 l 1.82667,2.74668 a 0.62666665,0.62667008 0 0 0 1.12,0 l 1.84,-2.77334 v 4.52002 a 0.66666665,0.6666703 0 0 0 0.65333,0.65334 0.65333332,0.65333689 0 0 0 0.68,-0.65334 v -6.29337 a 0.66666665,0.6666703 0 0 0 -0.68,-0.66667 z"
     class="cls-4"
     style="fill:#b3b3b3;stroke-width:1.33333695" />
  <path
     inkscape:connector-curvature="0"
     id="path30"
     d="m 182.81333,458.50917 a 0.66667,0.66667365 0 0 1 1.33334,0 v 6.32003 a 0.66667,0.66667365 0 0 1 -1.33334,0 z"
     class="cls-3"
     style="fill:#808080;stroke-width:1.33333695" />
  <path
     inkscape:connector-curvature="0"
     id="path32"
     d="m 183.48,457.85583 a 0.65333332,0.65333689 0 0 0 -0.66667,0.65334 v 6.32003 a 0.66667,0.66667365 0 0 0 1.33334,0 v -6.32003 a 0.65333332,0.65333689 0 0 0 -0.65334,-0.65334 z"
     class="cls-4"
     style="fill:#b3b3b3;stroke-width:1.33333695" />
  <path
     inkscape:connector-curvature="0"
     id="path34"
     d="m 185.61333,458.53583 a 0.66666665,0.6666703 0 0 1 0.66667,-0.66667 h 0.14667 a 0.85333331,0.85333798 0 0 1 0.69333,0.38667 l 3.77333,4.86669 v -4.62669 a 0.66667,0.66667365 0 0 1 1.33334,0 v 6.32004 a 0.65333332,0.65333689 0 0 1 -0.65334,0.66667 v 0 A 0.87999998,0.8800048 0 0 1 190.88,465.08253 L 187,460.06917 v 4.77336 a 0.6666675,0.66667115 0 0 1 -1.33333,0 z"
     class="cls-3"
     style="fill:#808080;stroke-width:1.33333695" />
  <path
     inkscape:connector-curvature="0"
     id="path36"
     d="m 191.53333,457.85583 a 0.65333332,0.65333689 0 0 0 -0.64,0.64 v 4.62669 L 187.12,458.25583 a 0.85333331,0.85333798 0 0 0 -0.69333,-0.38667 H 186.28 a 0.66666665,0.6666703 0 0 0 -0.66667,0.66667 v 6.3067 a 0.66667,0.66667365 0 0 0 1.33334,0 v -4.77336 l 3.88,5.01336 a 0.87999998,0.8800048 0 0 0 0.69333,0.40001 v 0 a 0.65333332,0.65333689 0 0 0 0.65333,-0.66667 v -6.32004 a 0.65333332,0.65333689 0 0 0 -0.66666,-0.64 z"
     class="cls-4"
     style="fill:#b3b3b3;stroke-width:1.33333695" />
  <path
     inkscape:connector-curvature="0"
     id="path38"
     d="m 193.6,458.57583 a 0.66666665,0.6666703 0 0 1 0.68,-0.66667 h 2.14667 a 3.7599999,3.7600205 0 0 1 4,3.73336 v 0 a 3.7733332,3.7733539 0 0 1 -4,3.76002 H 194.28 a 0.65333332,0.65333689 0 0 1 -0.68,-0.66667 z m 2.82667,5.65337 a 2.4533333,2.4533467 0 0 0 2.66666,-2.53335 v 0 a 2.4666666,2.4666801 0 0 0 -2.66666,-2.56001 h -1.49334 v 5.12002 z"
     class="cls-3"
     style="fill:#808080;stroke-width:1.33333695" />
  <path
     inkscape:connector-curvature="0"
     id="path40"
     d="M 196.42667,457.90916 H 194.28 a 0.66666665,0.6666703 0 0 0 -0.68,0.66667 v 6.1867 a 0.65333332,0.65333689 0 0 0 0.68,0.66667 h 2.14667 a 3.7733332,3.7733539 0 0 0 4,-3.76002 v 0 a 3.7599999,3.7600205 0 0 0 -4,-3.73335 z m -1.49334,6.32004 v -5.12003 h 1.49334 a 2.4666666,2.4666801 0 0 1 2.66666,2.56001 v 0 a 2.4533333,2.4533467 0 0 1 -2.66666,2.53335 z"
     class="cls-4"
     style="fill:#b3b3b3;stroke-width:1.33333695" />
  <path
     inkscape:connector-curvature="0"
     id="path42"
     d="m 173.90667,467.34921 a 0.66666665,0.6666703 0 0 1 0.66666,-0.66667 h 0.0933 a 0.71999998,0.72000392 0 0 1 0.62667,0.34667 l 2.32,3.64002 2.29333,-3.57335 a 0.69333332,0.69333711 0 0 1 0.61334,-0.34667 h 0.13333 a 0.66666665,0.6666703 0 0 1 0.68,0.66667 v 6.29337 a 0.66666665,0.6666703 0 0 1 -0.68,0.66667 A 0.67999998,0.68000371 0 0 1 180,473.70925 v -4.50669 l -1.84,2.76001 a 0.62666665,0.62667008 0 0 1 -1.12,0 l -1.82667,-2.74668 v 4.50669 a 0.65333332,0.65333689 0 0 1 -0.66667,0.65334 0.63999998,0.64000349 0 0 1 -0.64,-0.65334 z"
     class="cls-3"
     style="fill:#808080;stroke-width:1.33333695" />
  <path
     inkscape:connector-curvature="0"
     id="path44"
     d="M 180.65333,466.66921 H 180.52 a 0.69333332,0.69333711 0 0 0 -0.61333,0.34667 l -2.29334,3.65335 -2.28,-3.57335 a 0.71999998,0.72000392 0 0 0 -0.66666,-0.42667 h -0.13334 a 0.66666665,0.6666703 0 0 0 -0.66666,0.66667 v 6.3067 a 0.63999998,0.64000349 0 0 0 0.64,0.65334 0.65333332,0.65333689 0 0 0 0.66666,-0.65334 v -4.50669 L 177,471.88257 a 0.62666665,0.62667008 0 0 0 1.12,0 l 1.88,-2.74668 v 4.50669 a 0.67999998,0.68000371 0 0 0 0.65333,0.66667 0.66666665,0.6666703 0 0 0 0.68,-0.66667 v -6.29337 a 0.66666665,0.6666703 0 0 0 -0.68,-0.66667 z"
     class="cls-4"
     style="fill:#b3b3b3;stroke-width:1.33333695" />
  <path
     inkscape:connector-curvature="0"
     id="path46"
     d="m 182.73333,473.58925 v -6.20004 A 0.66666665,0.6666703 0 0 1 183.4,466.72254 h 4.4 a 0.59999999,0.60000327 0 0 1 0,1.18668 h -3.73333 v 1.94667 h 3.24 a 0.61333332,0.61333668 0 0 1 0.6,0.61334 0.58666665,0.58666986 0 0 1 -0.6,0.57334 h -3.24 v 2.02667 h 3.78666 a 0.59999999,0.60000327 0 0 1 0,1.18668 H 183.4 a 0.66666665,0.6666703 0 0 1 -0.66667,-0.66667 z"
     class="cls-3"
     style="fill:#808080;stroke-width:1.33333695" />
  <path
     inkscape:connector-curvature="0"
     id="path48"
     d="m 187.8,466.66921 h -4.4 a 0.66666665,0.6666703 0 0 0 -0.66667,0.66667 v 6.20003 a 0.66666665,0.6666703 0 0 0 0.66667,0.66667 h 4.45333 a 0.59999999,0.60000327 0 0 0 0,-1.18667 h -3.78666 v -2.02668 h 3.24 a 0.58666665,0.58666986 0 0 0 0.6,-0.57333 0.61333332,0.61333668 0 0 0 -0.6,-0.61334 h -3.24 v -1.94668 H 187.8 a 0.59999999,0.60000327 0 0 0 0,-1.18667 z"
     class="cls-4"
     style="fill:#b3b3b3;stroke-width:1.33333695" />
  <path
     inkscape:connector-curvature="0"
     id="path50"
     d="m 189.42667,467.32255 a 0.6666675,0.66667115 0 0 1 1.33333,0 v 5.72003 h 3.41333 a 0.59999999,0.60000327 0 0 1 0.6,0.6 0.61333332,0.61333668 0 0 1 -0.6,0.61334 h -4.08 a 0.66666665,0.6666703 0 0 1 -0.66666,-0.66667 z"
     class="cls-3"
     style="fill:#808080;stroke-width:1.33333695" />
  <path
     inkscape:connector-curvature="0"
     id="path52"
     d="m 190.09333,466.66921 a 0.65333332,0.65333689 0 0 0 -0.66666,0.65334 v 6.2667 a 0.66666665,0.6666703 0 0 0 0.66666,0.66667 h 4.08 a 0.61333332,0.61333668 0 0 0 0.6,-0.61334 0.59999999,0.60000327 0 0 0 -0.6,-0.6 H 190.76 v -5.72003 a 0.65333332,0.65333689 0 0 0 -0.66667,-0.65334 z"
     class="cls-4"
     style="fill:#b3b3b3;stroke-width:1.33333695" />
  <path
     inkscape:connector-curvature="0"
     id="path54"
     d="m 195.57333,467.38921 a 0.66666665,0.6666703 0 0 1 0.66667,-0.66667 h 2.14667 a 3.7599999,3.7600205 0 0 1 4,3.74669 v 0 a 3.7866666,3.7866873 0 0 1 -4,3.77335 H 196.24 a 0.66666665,0.6666703 0 0 1 -0.66667,-0.66667 z m 2.81334,5.65337 a 2.4666666,2.4666801 0 0 0 2.66666,-2.53335 v 0 a 2.4799999,2.4800135 0 0 0 -2.66666,-2.56001 h -1.49334 v 5.12002 z"
     class="cls-3"
     style="fill:#808080;stroke-width:1.33333695" />
  <path
     inkscape:connector-curvature="0"
     id="path56"
     d="M 198.38667,466.66921 H 196.24 a 0.66666665,0.6666703 0 0 0 -0.66667,0.66667 v 6.20003 a 0.66666665,0.6666703 0 0 0 0.66667,0.66667 h 2.14667 a 3.7866666,3.7866873 0 0 0 4,-3.77335 v 0 a 3.7599999,3.7600205 0 0 0 -4,-3.74669 z m -1.49334,6.32003 v -5.12002 h 1.49334 a 2.4799999,2.4800135 0 0 1 2.66666,2.56001 v 0 a 2.4666666,2.4666801 0 0 1 -2.66666,2.53335 z"
     class="cls-4"
     style="fill:#b3b3b3;stroke-width:1.33333695" />
</svg>
