<?xml version="1.0" encoding="UTF-8" standalone="no"?>
<svg
   xmlns:dc="http://purl.org/dc/elements/1.1/"
   xmlns:cc="http://creativecommons.org/ns#"
   xmlns:rdf="http://www.w3.org/1999/02/22-rdf-syntax-ns#"
   xmlns:svg="http://www.w3.org/2000/svg"
   xmlns="http://www.w3.org/2000/svg"
   xmlns:sodipodi="http://sodipodi.sourceforge.net/DTD/sodipodi-0.dtd"
   xmlns:inkscape="http://www.inkscape.org/namespaces/inkscape"
   inkscape:version="0.92.4 (5da689c313, 2019-01-14)"
   height="128.5mm"
   width="30.48mm"
   sodipodi:docname="meld-1-8.svg"
   id="svg168"
   version="1.1"
   viewBox="0 0 115.2 485.66928">
  <metadata
     id="metadata172">
    <rdf:RDF>
      <cc:Work
         rdf:about="">
        <dc:format>image/svg+xml</dc:format>
        <dc:type
           rdf:resource="http://purl.org/dc/dcmitype/StillImage" />
        <dc:title>Asset 3</dc:title>
      </cc:Work>
    </rdf:RDF>
  </metadata>
  <sodipodi:namedview
     inkscape:current-layer="svg168"
     inkscape:window-maximized="1"
     inkscape:window-y="-8"
     inkscape:window-x="-8"
     inkscape:cy="268.05958"
     inkscape:cx="32.39817"
     inkscape:zoom="1.4"
     inkscape:document-units="mm"
     units="mm"
     showgrid="false"
     id="namedview170"
     inkscape:window-height="1017"
     inkscape:window-width="1920"
     inkscape:pageshadow="2"
     inkscape:pageopacity="0"
     guidetolerance="10"
     gridtolerance="10"
     objecttolerance="10"
     borderopacity="1"
     inkscape:document-rotation="0"
     bordercolor="#666666"
     pagecolor="#ffffff" />
  <defs
     id="defs17">
    <style
       id="style10">.cls-1{fill:#353535;}.cls-2{fill:none;stroke-linecap:round;stroke-linejoin:round;stroke-width:1.03px;stroke:url(#linear-gradient);}.cls-3{fill:gray;}.cls-4{fill:#b3b3b3;}.cls-5{fill:#ccc;}.cls-6{fill:#121212;}.cls-7{fill:#fff;}.cls-8{fill:#828282;}</style>
    <linearGradient
       gradientUnits="userSpaceOnUse"
       y2="349.56"
       x2="40.939999"
       y1="349.56"
       x1="21.09"
       id="linear-gradient">
      <stop
         id="stop12"
         stop-color="#3fa9f5"
         offset="0" />
      <stop
         id="stop14"
         stop-color="#ed1e79"
         offset="1" />
    </linearGradient>
  </defs>
  <title
     id="title19">Asset 3</title>
  <g
     style="opacity:1"
     id="Layer_2-2"
     data-name="Layer 2"
     transform="scale(1.3333333,1.3333406)">
    <g
       id="background">
      <path
         style="fill:#353535"
         id="rect4155"
         class="cls-1"
         d="M 0,0 H 86.4 V 364.25 H 0 Z"
         inkscape:connector-curvature="0" />
    </g>
  </g>
  <g
     style="opacity:1"
     id="branding"
     transform="scale(1.3333333,1.3333406)">
    <polyline
       class="cls-2"
       points="21.6 355.22 27.87 343.9 27.87 355.22 34.15 343.9 34.15 355.22 40.42 343.9 40.42 355.22"
       id="polyline24"
       style="fill:none;stroke:url(#linear-gradient);stroke-width:1.02999997px;stroke-linecap:round;stroke-linejoin:round" />
    <path
       style="fill:#808080"
       class="cls-3"
       d="M 48.49,348.61 Z"
       id="path26"
       inkscape:connector-curvature="0" />
    <path
       style="fill:#b3b3b3"
       class="cls-4"
       d="m 48.49,343.4 h -0.1 a 0.51,0.51 0 0 0 -0.46,0.25 l -1.72,2.69 -1.71,-2.68 a 0.54,0.54 0 0 0 -0.47,-0.26 h -0.1 a 0.5,0.5 0 0 0 -0.5,0.5 v 4.73 a 0.47,0.47 0 0 0 0.48,0.48 0.48,0.48 0 0 0 0.5,-0.48 v -3.38 l 1.37,2.06 a 0.47,0.47 0 0 0 0.84,0 L 48,345.23 v 3.39 a 0.5,0.5 0 0 0 0.49,0.49 0.49,0.49 0 0 0 0.51,-0.49 v -4.72 a 0.5,0.5 0 0 0 -0.51,-0.5 z"
       id="path28"
       inkscape:connector-curvature="0" />
    <polygon
       style="fill:#808080"
       class="cls-3"
       points="50.61,343.88 50.6,348.61 "
       id="polygon30" />
    <path
       style="fill:#b3b3b3"
       class="cls-4"
       d="m 50.61,343.39 a 0.49,0.49 0 0 0 -0.5,0.49 v 4.74 a 0.5,0.5 0 0 0 1,0 v -4.74 a 0.49,0.49 0 0 0 -0.49,-0.49 z"
       id="path32"
       inkscape:connector-curvature="0" />
    <path
       style="fill:#808080"
       class="cls-3"
       d="m 52.21,343.9 a 0.5,0.5 0 0 1 0.5,-0.5 h 0.11 a 0.64,0.64 0 0 1 0.52,0.29 l 2.83,3.65 v -3.47 a 0.5,0.5 0 0 1 1,0 v 4.74 a 0.49,0.49 0 0 1 -0.49,0.5 v 0 a 0.66,0.66 0 0 1 -0.52,-0.3 l -2.91,-3.76 v 3.58 a 0.5,0.5 0 0 1 -1,0 z"
       id="path34"
       inkscape:connector-curvature="0" />
    <path
       style="fill:#b3b3b3"
       class="cls-4"
       d="m 56.65,343.39 a 0.49,0.49 0 0 0 -0.48,0.48 v 3.47 l -2.83,-3.65 a 0.64,0.64 0 0 0 -0.52,-0.29 h -0.11 a 0.5,0.5 0 0 0 -0.5,0.5 v 4.73 a 0.5,0.5 0 0 0 1,0 v -3.58 l 2.91,3.76 a 0.66,0.66 0 0 0 0.52,0.3 v 0 a 0.49,0.49 0 0 0 0.49,-0.5 v -4.74 a 0.49,0.49 0 0 0 -0.5,-0.48 z"
       id="path36"
       inkscape:connector-curvature="0" />
    <path
       style="fill:#808080"
       class="cls-3"
       d="m 62.56,347.33 a 2.62,2.62 0 0 0 -0.31,-2.63 2.18,2.18 0 0 1 0.58,1.53 2.33,2.33 0 0 1 -0.27,1.1 z"
       id="path38"
       inkscape:connector-curvature="0" />
    <path
       style="fill:#b3b3b3"
       class="cls-4"
       d="m 60.32,343.43 h -1.61 a 0.5,0.5 0 0 0 -0.51,0.5 v 4.64 a 0.49,0.49 0 0 0 0.51,0.5 h 1.61 a 2.83,2.83 0 0 0 3,-2.82 v 0 a 2.82,2.82 0 0 0 -3,-2.8 z m -1.12,4.74 v -3.84 h 1.12 a 1.85,1.85 0 0 1 2,1.92 v 0 a 1.84,1.84 0 0 1 -2,1.9 z"
       id="path40"
       inkscape:connector-curvature="0" />
    <path
       style="fill:#808080"
       class="cls-3"
       d="M 48.49,355.23 Z"
       id="path42"
       inkscape:connector-curvature="0" />
    <path
       style="fill:#b3b3b3"
       class="cls-4"
       d="m 48.49,350 h -0.1 a 0.52,0.52 0 0 0 -0.46,0.26 L 46.21,353 44.5,350.32 A 0.54,0.54 0 0 0 44,350 h -0.1 a 0.5,0.5 0 0 0 -0.5,0.5 v 4.73 a 0.48,0.48 0 0 0 0.48,0.49 0.49,0.49 0 0 0 0.5,-0.49 v -3.38 l 1.37,2.06 a 0.47,0.47 0 0 0 0.84,0 L 48,351.85 v 3.38 a 0.51,0.51 0 0 0 0.49,0.5 0.5,0.5 0 0 0 0.51,-0.5 v -4.72 a 0.5,0.5 0 0 0 -0.51,-0.5 z"
       id="path44"
       inkscape:connector-curvature="0" />
    <path
       style="fill:#808080"
       class="cls-3"
       d="m 50.05,355.19 v -4.65 a 0.5,0.5 0 0 1 0.5,-0.5 h 3.3 a 0.45,0.45 0 0 1 0,0.89 h -2.8 v 1.46 h 2.43 a 0.46,0.46 0 0 1 0.45,0.46 0.44,0.44 0 0 1 -0.45,0.43 h -2.43 v 1.52 h 2.84 a 0.45,0.45 0 0 1 0,0.89 h -3.34 a 0.5,0.5 0 0 1 -0.5,-0.5 z"
       id="path46"
       inkscape:connector-curvature="0" />
    <path
       style="fill:#b3b3b3"
       class="cls-4"
       d="m 53.85,350 h -3.3 a 0.5,0.5 0 0 0 -0.5,0.5 v 4.65 a 0.5,0.5 0 0 0 0.5,0.5 h 3.34 a 0.45,0.45 0 0 0 0,-0.89 h -2.84 v -1.52 h 2.43 a 0.44,0.44 0 0 0 0.45,-0.43 0.46,0.46 0 0 0 -0.45,-0.46 h -2.43 v -1.46 h 2.8 a 0.45,0.45 0 0 0 0,-0.89 z"
       id="path48"
       inkscape:connector-curvature="0" />
    <path
       style="fill:#808080"
       class="cls-3"
       d="m 55.07,350.49 a 0.5,0.5 0 0 1 1,0 v 4.29 h 2.56 a 0.45,0.45 0 0 1 0.45,0.45 0.46,0.46 0 0 1 -0.45,0.46 h -3.06 a 0.5,0.5 0 0 1 -0.5,-0.5 z"
       id="path50"
       inkscape:connector-curvature="0" />
    <path
       style="fill:#b3b3b3"
       class="cls-4"
       d="m 55.57,350 a 0.49,0.49 0 0 0 -0.5,0.49 v 4.7 a 0.5,0.5 0 0 0 0.5,0.5 h 3.06 a 0.46,0.46 0 0 0 0.45,-0.46 0.45,0.45 0 0 0 -0.45,-0.45 h -2.56 v -4.29 A 0.49,0.49 0 0 0 55.57,350 Z"
       id="path52"
       inkscape:connector-curvature="0" />
    <path
       style="fill:#808080"
       class="cls-3"
       d="m 64,354 a 2.66,2.66 0 0 0 0.22,-1.07 2.5,2.5 0 0 0 -0.53,-1.57 2.26,2.26 0 0 1 0.57,1.54 A 2.38,2.38 0 0 1 64,354 Z"
       id="path54"
       inkscape:connector-curvature="0" />
    <path
       style="fill:#b3b3b3"
       class="cls-4"
       d="m 61.79,350 h -1.61 a 0.5,0.5 0 0 0 -0.5,0.5 v 4.65 a 0.5,0.5 0 0 0 0.5,0.5 h 1.61 a 2.84,2.84 0 0 0 3,-2.83 v 0 a 2.82,2.82 0 0 0 -3,-2.81 z m -1.12,4.74 v -3.84 h 1.12 a 1.86,1.86 0 0 1 2,1.92 v 0 a 1.85,1.85 0 0 1 -2,1.9 z"
       id="path56"
       inkscape:connector-curvature="0" />
    <path
       style="fill:#cccccc"
       class="cls-5"
       d="m 35.58,10 v 8.39 h -1.64 v -5.46 l -2.36,3.89 h -0.2 L 29,12.94 v 5.43 H 27.37 V 10 h 1.7 l 2.41,4 2.4,-4 z"
       id="path58"
       inkscape:connector-curvature="0" />
    <path
       style="fill:#cccccc"
       class="cls-5"
       d="M 39.48,16.79 H 43 v 1.58 H 37.83 V 10 H 43 v 1.58 h -3.52 v 1.79 h 3.18 v 1.53 h -3.18 z"
       id="path60"
       inkscape:connector-curvature="0" />
    <path
       style="fill:#cccccc"
       class="cls-5"
       d="m 46.53,16.79 h 3.2 v 1.58 H 44.87 V 10 h 1.66 z"
       id="path62"
       inkscape:connector-curvature="0" />
    <path
       style="fill:#cccccc"
       class="cls-5"
       d="m 54.69,10 a 3.81,3.81 0 0 1 2.88,1.21 4.1,4.1 0 0 1 1.16,3 4.11,4.11 0 0 1 -1.16,3 3.84,3.84 0 0 1 -2.88,1.21 H 51.35 V 10 Z m 0,6.81 a 2.31,2.31 0 0 0 1.77,-0.72 2.66,2.66 0 0 0 0.69,-1.9 2.59,2.59 0 0 0 -0.69,-1.88 2.29,2.29 0 0 0 -1.77,-0.73 H 53 v 5.23 z"
       id="path64"
       inkscape:connector-curvature="0" />
  </g>
  <g
     style="opacity:1"
     id="EQ_bgs_copy"
     data-name="EQ bgs copy"
     transform="scale(1.3333333,1.3333406)">
    <rect
       style="fill:#121212"
       class="cls-6"
       x="53.049999"
       y="28.35"
       width="27.92"
       height="36.849998"
       rx="1.42"
       id="rect67" />
  </g>
  <path
     style="opacity:1;fill:#cccccc;stroke-width:1.33334005"
     inkscape:connector-curvature="0"
     id="path70"
     d="m 22.013333,42.026896 h 1.253333 v 6.533369 h -1.253333 z"
     class="cls-5" />
  <path
     style="opacity:1;fill:#cccccc;stroke-width:1.33334005"
     inkscape:connector-curvature="0"
     id="path72"
     d="m 28.439999,42.026896 h 1.24 v 6.533369 h -0.946666 l -2.666667,-4.000022 v 4.000022 h -1.253333 v -6.533369 h 0.946666 l 2.666667,4.000022 z"
     class="cls-5" />
  <path
     style="opacity:1;fill:#cccccc;stroke-width:1.33334005"
     inkscape:connector-curvature="0"
     id="path74"
     d="m 83.519998,48.693599 a 3.1333333,3.1333504 0 0 1 -2.32,-0.986672 3.3333333,3.3333515 0 0 1 -0.946667,-2.373347 3.2933333,3.2933513 0 0 1 0.946667,-2.413346 3.2399999,3.2400177 0 0 1 4.653333,0 3.2933333,3.2933513 0 0 1 0.946667,2.413346 3.3333333,3.3333515 0 0 1 -0.946667,2.413347 3.1599999,3.1600172 0 0 1 -2.333333,0.946672 z m 0,-1.333341 a 1.9066666,1.9066771 0 0 0 1.453333,-0.600003 2.1066666,2.1066781 0 0 0 0.586667,-1.426675 2.1466666,2.1466784 0 0 0 -0.586667,-1.546675 2.0666666,2.0666779 0 0 0 -2.906666,0 2.1466666,2.1466784 0 0 0 -0.586667,1.546675 2.1066666,2.1066781 0 0 0 0.586667,1.533342 1.9066666,1.9066771 0 0 0 1.453333,0.560003 z"
     class="cls-5" />
  <path
     style="opacity:1;fill:#cccccc;stroke-width:1.33334005"
     inkscape:connector-curvature="0"
     id="path76"
     d="M 88.653331,48.080262 A 2.1466666,2.1466784 0 0 1 87.999998,46.42692 v -4.400024 h 1.24 v 4.293356 a 1.1733333,1.1733397 0 0 0 2.346666,0 v -4.293356 h 1.24 v 4.400024 a 2.1466666,2.1466784 0 0 1 -0.68,1.653342 2.7599999,2.760015 0 0 1 -3.466666,0 z"
     class="cls-5" />
  <path
     style="opacity:1;fill:#cccccc;stroke-width:1.33334005"
     inkscape:connector-curvature="0"
     id="path78"
     d="m 98.439998,42.026896 v 1.226673 h -1.693334 v 5.333362 h -1.253333 v -5.333362 h -1.693333 v -1.226673 z"
     class="cls-5" />
  <path
     style="opacity:1;fill:#ffffff;stroke-width:1.33334005"
     inkscape:connector-curvature="0"
     id="path80"
     d="m 38.359999,105.14724 h 2.84 v 1.33334 h -4.32 v -7.466707 h 1.48 z"
     class="cls-7" />
  <path
     style="opacity:1;fill:#ffffff;stroke-width:1.33334005"
     inkscape:connector-curvature="0"
     id="path82"
     d="m 77.413331,106.54725 -1.506666,-2.54668 h -1.12 v 2.58668 h -1.453334 v -7.46671 h 2.986667 a 2.4799999,2.4800135 0 0 1 2.48,2.48001 2.4266666,2.4266799 0 0 1 -1.466667,2.13335 l 1.653334,2.81335 z m -2.666666,-6.08004 v 2.20002 h 1.52 a 1.08,1.0800059 0 0 0 1.013333,-1.10668 1.0533333,1.0533391 0 0 0 -1.013333,-1.09334 z"
     class="cls-7" />
  <g
     style="opacity:1"
     id="_1-8"
     data-name="1-8"
     transform="scale(1.3333333,1.3333406)">
    <path
       style="fill:#cccccc"
       class="cls-5"
       d="m 10.69,131.2 v -0.63 l 1.65,-1.74 a 1.72,1.72 0 0 0 0.6,-1.08 0.7,0.7 0 0 0 -0.73,-0.75 0.93,0.93 0 0 0 -0.88,0.6 l -0.66,-0.39 a 1.64,1.64 0 0 1 1.53,-1 1.51,1.51 0 0 1 1.07,0.41 1.4,1.4 0 0 1 0.45,1.1 2.43,2.43 0 0 1 -0.81,1.6 l -1.07,1.11 h 2 v 0.77 z"
       id="path117"
       inkscape:connector-curvature="0" />
    <path
       style="fill:#cccccc"
       class="cls-5"
       d="m 12.7,159.44 a 1.42,1.42 0 0 1 1.15,1.42 1.48,1.48 0 0 1 -0.48,1.16 1.68,1.68 0 0 1 -1.17,0.42 1.61,1.61 0 0 1 -1.59,-1 l 0.66,-0.4 a 0.88,0.88 0 0 0 0.93,0.63 0.79,0.79 0 1 0 0,-1.58 H 12 l -0.31,-0.48 1,-1.39 h -2 v -0.76 h 2.91 v 0.69 z"
       id="path119"
       inkscape:connector-curvature="0" />
    <path
       style="fill:#cccccc"
       class="cls-5"
       d="m 14.11,191.35 v 0.75 h -0.54 v 0.9 h -0.78 v -0.88 h -2.33 v -0.75 l 1.63,-3.27 h 0.85 l -1.63,3.27 h 1.48 v -1.27 h 0.78 v 1.27 z"
       id="path121"
       inkscape:connector-curvature="0" />
    <path
       style="fill:#cccccc"
       class="cls-5"
       d="m 12.28,220 a 1.66,1.66 0 0 1 1.15,0.42 1.45,1.45 0 0 1 0.46,1.15 1.47,1.47 0 0 1 -0.48,1.16 1.71,1.71 0 0 1 -1.17,0.42 1.62,1.62 0 0 1 -1.61,-1.15 l 0.67,-0.39 a 0.87,0.87 0 0 0 0.94,0.66 0.78,0.78 0 0 0 0.87,-0.79 0.77,0.77 0 0 0 -0.86,-0.78 h -1.38 l 0.18,-2.64 h 2.64 v 0.76 H 11.77 L 11.69,220 Z"
       id="path123"
       inkscape:connector-curvature="0" />
    <path
       style="fill:#cccccc"
       class="cls-5"
       d="m 12.27,250.5 a 1.61,1.61 0 0 1 1.67,1.68 1.67,1.67 0 0 1 -0.47,1.21 1.62,1.62 0 0 1 -1.2,0.46 1.64,1.64 0 0 1 -1.21,-0.46 1.67,1.67 0 0 1 -0.47,-1.21 1.77,1.77 0 0 1 0.29,-1 l 1.5,-2.33 h 0.88 l -1.08,1.64 z m 0.89,1.68 a 0.9,0.9 0 1 0 -0.89,0.91 0.85,0.85 0 0 0 0.89,-0.91 z"
       id="path125"
       inkscape:connector-curvature="0" />
    <path
       style="fill:#cccccc"
       class="cls-5"
       d="m 10.71,279.61 h 3 v 0.7 l -1.66,4.21 h -0.82 l 1.63,-4.14 h -2.15 z"
       id="path127"
       inkscape:connector-curvature="0" />
    <path
       style="fill:#cccccc"
       class="cls-5"
       d="m 13.93,313.91 a 1.46,1.46 0 0 1 -1.66,1.45 1.79,1.79 0 0 1 -1.21,-0.38 1.42,1.42 0 0 1 0.24,-2.26 1.16,1.16 0 0 1 -0.53,-1 1.29,1.29 0 0 1 0.43,-1 1.72,1.72 0 0 1 2.13,0 1.29,1.29 0 0 1 0.44,1 1.17,1.17 0 0 1 -0.54,1 1.29,1.29 0 0 1 0.7,1.19 z m -0.78,-0.07 a 0.77,0.77 0 0 0 -0.88,-0.77 c -0.53,0 -0.89,0.28 -0.89,0.77 0,0.49 0.36,0.76 0.89,0.76 0.53,0 0.88,-0.28 0.88,-0.76 z m -1.6,-2.12 a 0.72,0.72 0 0 0 1.44,0 0.66,0.66 0 0 0 -0.72,-0.68 0.65,0.65 0 0 0 -0.72,0.68 z"
       id="path129"
       inkscape:connector-curvature="0" />
    <path
       style="fill:#cccccc"
       class="cls-5"
       d="M 12.34,95.48 H 13 v 4.9 h -0.78 v -4 l -1,0.28 -0.19,-0.69 z"
       id="path131"
       inkscape:connector-curvature="0" />
    <path
       style="fill:#cccccc"
       class="cls-5"
       d="m 72.41,131.2 v -0.63 l 1.65,-1.74 a 1.72,1.72 0 0 0 0.6,-1.08 0.7,0.7 0 0 0 -0.73,-0.75 0.93,0.93 0 0 0 -0.88,0.6 l -0.66,-0.39 a 1.63,1.63 0 0 1 1.53,-1 1.51,1.51 0 0 1 1.07,0.41 1.39,1.39 0 0 1 0.44,1.1 2.46,2.46 0 0 1 -0.8,1.6 l -1.07,1.11 h 2 v 0.77 z"
       id="path133"
       inkscape:connector-curvature="0" />
    <path
       style="fill:#cccccc"
       class="cls-5"
       d="m 74.42,159.44 a 1.42,1.42 0 0 1 1.15,1.42 1.48,1.48 0 0 1 -0.48,1.16 1.7,1.7 0 0 1 -1.17,0.42 1.6,1.6 0 0 1 -1.59,-1 L 73,161 a 0.88,0.88 0 0 0 0.93,0.63 0.79,0.79 0 1 0 0,-1.58 h -0.18 l -0.31,-0.48 1,-1.39 h -2 v -0.76 h 2.91 v 0.69 z"
       id="path135"
       inkscape:connector-curvature="0" />
    <path
       style="fill:#cccccc"
       class="cls-5"
       d="m 75.83,191.35 v 0.75 h -0.54 v 0.9 h -0.78 v -0.88 h -2.33 v -0.75 l 1.63,-3.27 h 0.84 L 73,191.35 h 1.48 v -1.27 h 0.78 v 1.27 z"
       id="path137"
       inkscape:connector-curvature="0" />
    <path
       style="fill:#cccccc"
       class="cls-5"
       d="m 74,220 a 1.62,1.62 0 0 1 1.14,0.42 1.42,1.42 0 0 1 0.47,1.15 1.47,1.47 0 0 1 -0.48,1.16 1.71,1.71 0 0 1 -1.17,0.42 1.61,1.61 0 0 1 -1.61,-1.15 l 0.67,-0.39 a 0.87,0.87 0 0 0 0.94,0.66 0.78,0.78 0 0 0 0.87,-0.79 0.77,0.77 0 0 0 -0.86,-0.78 h -1.38 l 0.18,-2.64 h 2.64 v 0.76 H 73.49 L 73.41,220 Z"
       id="path139"
       inkscape:connector-curvature="0" />
    <path
       style="fill:#cccccc"
       class="cls-5"
       d="m 74,250.5 a 1.61,1.61 0 0 1 1.67,1.68 1.67,1.67 0 0 1 -0.47,1.21 1.62,1.62 0 0 1 -1.2,0.46 1.64,1.64 0 0 1 -1.21,-0.46 1.67,1.67 0 0 1 -0.47,-1.21 1.77,1.77 0 0 1 0.29,-1 l 1.5,-2.33 H 75 l -1.1,1.65 z m 0.89,1.68 a 0.9,0.9 0 1 0 -0.89,0.91 0.85,0.85 0 0 0 0.88,-0.91 z"
       id="path141"
       inkscape:connector-curvature="0" />
    <path
       style="fill:#cccccc"
       class="cls-5"
       d="m 72.43,279.61 h 3 v 0.7 l -1.66,4.21 H 73 l 1.63,-4.14 h -2.2 z"
       id="path143"
       inkscape:connector-curvature="0" />
    <path
       style="fill:#cccccc"
       class="cls-5"
       d="m 75.64,313.91 a 1.45,1.45 0 0 1 -1.64,1.45 1.79,1.79 0 0 1 -1.21,-0.38 1.32,1.32 0 0 1 -0.45,-1.07 1.35,1.35 0 0 1 0.69,-1.19 1.16,1.16 0 0 1 -0.53,-1 1.29,1.29 0 0 1 0.43,-1 1.72,1.72 0 0 1 2.13,0 1.29,1.29 0 0 1 0.44,1 1.17,1.17 0 0 1 -0.54,1 1.29,1.29 0 0 1 0.68,1.19 z m -0.77,-0.07 a 0.77,0.77 0 0 0 -0.88,-0.77 c -0.54,0 -0.89,0.28 -0.89,0.77 0,0.49 0.35,0.76 0.89,0.76 0.54,0 0.88,-0.28 0.88,-0.76 z m -1.6,-2.12 a 0.72,0.72 0 0 0 1.44,0 A 0.66,0.66 0 0 0 74,311 a 0.65,0.65 0 0 0 -0.73,0.72 z"
       id="path145"
       inkscape:connector-curvature="0" />
    <path
       style="fill:#cccccc"
       class="cls-5"
       d="m 74.06,95.48 h 0.68 v 4.9 H 74 v -4 l -1,0.28 -0.18,-0.69 z"
       id="path147"
       inkscape:connector-curvature="0" />
  </g>
  <g
     style="opacity:1"
     id="jack_join_lines"
     data-name="jack join lines"
     transform="scale(1.3333333,1.3333406)">
    <rect
       style="fill:#828282"
       class="cls-8"
       x="32.490002"
       y="97.300003"
       width="22.68"
       height="1"
       id="rect150" />
    <rect
       style="fill:#828282"
       class="cls-8"
       x="32.490002"
       y="128.05"
       width="22.68"
       height="1"
       id="rect152" />
    <rect
       style="fill:#828282"
       class="cls-8"
       x="32.490002"
       y="158.81"
       width="22.68"
       height="1"
       id="rect154" />
    <rect
       style="fill:#828282"
       class="cls-8"
       x="32.490002"
       y="189.56"
       width="22.68"
       height="1"
       id="rect156" />
    <rect
       style="fill:#828282"
       class="cls-8"
       x="32.490002"
       y="220.32001"
       width="22.68"
       height="1"
       id="rect158" />
    <rect
       style="fill:#828282"
       class="cls-8"
       x="32.490002"
       y="251.07001"
       width="22.68"
       height="1"
       id="rect160" />
    <rect
       style="fill:#828282"
       class="cls-8"
       x="32.490002"
       y="281.82999"
       width="22.68"
       height="1"
       id="rect162" />
    <rect
       style="fill:#828282"
       class="cls-8"
       x="32.490002"
       y="312.59"
       width="22.68"
       height="1"
       id="rect164" />
  </g>
</svg>
