<?xml version="1.0" encoding="UTF-8" standalone="no"?>
<svg
   xmlns:dc="http://purl.org/dc/elements/1.1/"
   xmlns:cc="http://creativecommons.org/ns#"
   xmlns:rdf="http://www.w3.org/1999/02/22-rdf-syntax-ns#"
   xmlns:svg="http://www.w3.org/2000/svg"
   xmlns="http://www.w3.org/2000/svg"
   xmlns:sodipodi="http://sodipodi.sourceforge.net/DTD/sodipodi-0.dtd"
   xmlns:inkscape="http://www.inkscape.org/namespaces/inkscape"
   viewBox="0 0 115.2 485.66928"
   version="1.1"
   id="svg200"
   sodipodi:docname="meld-grp-aux.svg"
   width="30.48mm"
   height="128.5mm"
   inkscape:version="0.92.4 (5da689c313, 2019-01-14)">
  <metadata
     id="metadata204">
    <rdf:RDF>
      <cc:Work
         rdf:about="">
        <dc:format>image/svg+xml</dc:format>
        <dc:type
           rdf:resource="http://purl.org/dc/dcmitype/StillImage" />
        <dc:title>Asset 5</dc:title>
      </cc:Work>
    </rdf:RDF>
  </metadata>
  <sodipodi:namedview
     pagecolor="#ffffff"
     bordercolor="#666666"
     inkscape:document-rotation="0"
     borderopacity="1"
     objecttolerance="10"
     gridtolerance="10"
     guidetolerance="10"
     inkscape:pageopacity="0"
     inkscape:pageshadow="2"
     inkscape:window-width="1600"
     inkscape:window-height="907"
     id="namedview202"
     showgrid="false"
     units="mm"
     inkscape:document-units="mm"
     inkscape:zoom="1.4"
     inkscape:cx="34.46923"
     inkscape:cy="95.452639"
     inkscape:window-x="0"
     inkscape:window-y="413"
     inkscape:window-maximized="0"
     inkscape:current-layer="svg200" />
  <defs
     id="defs17">
    <style
       id="style10">.cls-1{fill:#353535;}.cls-2{fill:none;stroke-linecap:round;stroke-linejoin:round;stroke-width:1.03px;stroke:url(#linear-gradient);}.cls-3{fill:gray;}.cls-4{fill:#b3b3b3;}.cls-5{fill:#ccc;}.cls-6{fill:#121212;}.cls-7{fill:#fff;}.cls-8{fill:#828282;}</style>
    <linearGradient
       id="linear-gradient"
       x1="21.09"
       y1="349.56"
       x2="40.939999"
       y2="349.56"
       gradientUnits="userSpaceOnUse">
      <stop
         offset="0"
         stop-color="#3fa9f5"
         id="stop12" />
      <stop
         offset="1"
         stop-color="#ed1e79"
         id="stop14" />
    </linearGradient>
  </defs>
  <title
     id="title19">Asset 5</title>
  <g
     transform="scale(1.3333333,1.3333406)"
     data-name="Layer 2"
     id="Layer_2-2"
     style="opacity:1">
    <g
       id="background">
      <path
         style="fill:#353535"
         inkscape:connector-curvature="0"
         d="M 0,0 H 86.4 V 364.25 H 0 Z"
         class="cls-1"
         id="rect4155" />
    </g>
  </g>
  <g
     transform="scale(1.3333333,1.3333406)"
     id="branding"
     style="opacity:1">
    <polyline
       style="fill:none;stroke:url(#linear-gradient);stroke-width:1.02999997px;stroke-linecap:round;stroke-linejoin:round"
       id="polyline24"
       points="21.6 355.22 27.87 343.9 27.87 355.22 34.15 343.9 34.15 355.22 40.42 343.9 40.42 355.22"
       class="cls-2" />
    <path
       style="fill:#808080"
       inkscape:connector-curvature="0"
       id="path26"
       d="M 48.49,348.61 Z"
       class="cls-3" />
    <path
       style="fill:#b3b3b3"
       inkscape:connector-curvature="0"
       id="path28"
       d="m 48.49,343.4 h -0.1 a 0.51,0.51 0 0 0 -0.46,0.25 l -1.72,2.69 -1.71,-2.68 a 0.54,0.54 0 0 0 -0.47,-0.26 h -0.1 a 0.5,0.5 0 0 0 -0.5,0.5 v 4.73 a 0.47,0.47 0 0 0 0.48,0.48 0.48,0.48 0 0 0 0.5,-0.48 v -3.38 l 1.37,2.06 a 0.47,0.47 0 0 0 0.84,0 L 48,345.23 v 3.39 a 0.5,0.5 0 0 0 0.49,0.49 0.49,0.49 0 0 0 0.51,-0.49 v -4.72 a 0.5,0.5 0 0 0 -0.51,-0.5 z"
       class="cls-4" />
    <polygon
       style="fill:#808080"
       id="polygon30"
       points="50.61,343.88 50.6,348.61 "
       class="cls-3" />
    <path
       style="fill:#b3b3b3"
       inkscape:connector-curvature="0"
       id="path32"
       d="m 50.61,343.39 a 0.49,0.49 0 0 0 -0.5,0.49 v 4.74 a 0.5,0.5 0 0 0 1,0 v -4.74 a 0.49,0.49 0 0 0 -0.49,-0.49 z"
       class="cls-4" />
    <path
       style="fill:#808080"
       inkscape:connector-curvature="0"
       id="path34"
       d="m 52.21,343.9 a 0.5,0.5 0 0 1 0.5,-0.5 h 0.11 a 0.64,0.64 0 0 1 0.52,0.29 l 2.83,3.65 v -3.47 a 0.5,0.5 0 0 1 1,0 v 4.74 a 0.49,0.49 0 0 1 -0.49,0.5 v 0 a 0.66,0.66 0 0 1 -0.52,-0.3 l -2.91,-3.76 v 3.58 a 0.5,0.5 0 0 1 -1,0 z"
       class="cls-3" />
    <path
       style="fill:#b3b3b3"
       inkscape:connector-curvature="0"
       id="path36"
       d="m 56.65,343.39 a 0.49,0.49 0 0 0 -0.48,0.48 v 3.47 l -2.83,-3.65 a 0.64,0.64 0 0 0 -0.52,-0.29 h -0.11 a 0.5,0.5 0 0 0 -0.5,0.5 v 4.73 a 0.5,0.5 0 0 0 1,0 v -3.58 l 2.91,3.76 a 0.66,0.66 0 0 0 0.52,0.3 v 0 a 0.49,0.49 0 0 0 0.49,-0.5 v -4.74 a 0.49,0.49 0 0 0 -0.5,-0.48 z"
       class="cls-4" />
    <path
       style="fill:#808080"
       inkscape:connector-curvature="0"
       id="path38"
       d="m 62.56,347.33 a 2.62,2.62 0 0 0 -0.31,-2.63 2.18,2.18 0 0 1 0.58,1.53 2.33,2.33 0 0 1 -0.27,1.1 z"
       class="cls-3" />
    <path
       style="fill:#b3b3b3"
       inkscape:connector-curvature="0"
       id="path40"
       d="m 60.32,343.43 h -1.61 a 0.5,0.5 0 0 0 -0.51,0.5 v 4.64 a 0.49,0.49 0 0 0 0.51,0.5 h 1.61 a 2.83,2.83 0 0 0 3,-2.82 v 0 a 2.82,2.82 0 0 0 -3,-2.8 z m -1.12,4.74 v -3.84 h 1.12 a 1.85,1.85 0 0 1 2,1.92 v 0 a 1.84,1.84 0 0 1 -2,1.9 z"
       class="cls-4" />
    <path
       style="fill:#808080"
       inkscape:connector-curvature="0"
       id="path42"
       d="M 48.49,355.23 Z"
       class="cls-3" />
    <path
       style="fill:#b3b3b3"
       inkscape:connector-curvature="0"
       id="path44"
       d="m 48.49,350 h -0.1 a 0.52,0.52 0 0 0 -0.46,0.26 L 46.21,353 44.5,350.32 A 0.54,0.54 0 0 0 44,350 h -0.1 a 0.5,0.5 0 0 0 -0.5,0.5 v 4.73 a 0.48,0.48 0 0 0 0.48,0.49 0.49,0.49 0 0 0 0.5,-0.49 v -3.38 l 1.37,2.06 a 0.47,0.47 0 0 0 0.84,0 L 48,351.85 v 3.38 a 0.51,0.51 0 0 0 0.49,0.5 0.5,0.5 0 0 0 0.51,-0.5 v -4.72 a 0.5,0.5 0 0 0 -0.51,-0.5 z"
       class="cls-4" />
    <path
       style="fill:#808080"
       inkscape:connector-curvature="0"
       id="path46"
       d="m 50.05,355.19 v -4.65 a 0.5,0.5 0 0 1 0.5,-0.5 h 3.3 a 0.45,0.45 0 0 1 0,0.89 h -2.8 v 1.46 h 2.43 a 0.46,0.46 0 0 1 0.45,0.46 0.44,0.44 0 0 1 -0.45,0.43 h -2.43 v 1.52 h 2.84 a 0.45,0.45 0 0 1 0,0.89 h -3.34 a 0.5,0.5 0 0 1 -0.5,-0.5 z"
       class="cls-3" />
    <path
       style="fill:#b3b3b3"
       inkscape:connector-curvature="0"
       id="path48"
       d="m 53.85,350 h -3.3 a 0.5,0.5 0 0 0 -0.5,0.5 v 4.65 a 0.5,0.5 0 0 0 0.5,0.5 h 3.34 a 0.45,0.45 0 0 0 0,-0.89 h -2.84 v -1.52 h 2.43 a 0.44,0.44 0 0 0 0.45,-0.43 0.46,0.46 0 0 0 -0.45,-0.46 h -2.43 v -1.46 h 2.8 a 0.45,0.45 0 0 0 0,-0.89 z"
       class="cls-4" />
    <path
       style="fill:#808080"
       inkscape:connector-curvature="0"
       id="path50"
       d="m 55.07,350.49 a 0.5,0.5 0 0 1 1,0 v 4.29 h 2.56 a 0.45,0.45 0 0 1 0.45,0.45 0.46,0.46 0 0 1 -0.45,0.46 h -3.06 a 0.5,0.5 0 0 1 -0.5,-0.5 z"
       class="cls-3" />
    <path
       style="fill:#b3b3b3"
       inkscape:connector-curvature="0"
       id="path52"
       d="m 55.57,350 a 0.49,0.49 0 0 0 -0.5,0.49 v 4.7 a 0.5,0.5 0 0 0 0.5,0.5 h 3.06 a 0.46,0.46 0 0 0 0.45,-0.46 0.45,0.45 0 0 0 -0.45,-0.45 h -2.56 v -4.29 A 0.49,0.49 0 0 0 55.57,350 Z"
       class="cls-4" />
    <path
       style="fill:#808080"
       inkscape:connector-curvature="0"
       id="path54"
       d="m 64,354 a 2.66,2.66 0 0 0 0.22,-1.07 2.5,2.5 0 0 0 -0.53,-1.57 2.26,2.26 0 0 1 0.57,1.54 A 2.38,2.38 0 0 1 64,354 Z"
       class="cls-3" />
    <path
       style="fill:#b3b3b3"
       inkscape:connector-curvature="0"
       id="path56"
       d="m 61.79,350 h -1.61 a 0.5,0.5 0 0 0 -0.5,0.5 v 4.65 a 0.5,0.5 0 0 0 0.5,0.5 h 1.61 a 2.84,2.84 0 0 0 3,-2.83 v 0 a 2.82,2.82 0 0 0 -3,-2.81 z m -1.12,4.74 v -3.84 h 1.12 a 1.86,1.86 0 0 1 2,1.92 v 0 a 1.85,1.85 0 0 1 -2,1.9 z"
       class="cls-4" />
    <path
       style="fill:#cccccc"
       inkscape:connector-curvature="0"
       id="path58"
       d="m 35.58,10 v 8.39 h -1.64 v -5.46 l -2.36,3.89 h -0.2 L 29,12.94 v 5.43 H 27.37 V 10 h 1.7 l 2.41,4 2.4,-4 z"
       class="cls-5" />
    <path
       style="fill:#cccccc"
       inkscape:connector-curvature="0"
       id="path60"
       d="M 39.48,16.79 H 43 v 1.58 H 37.83 V 10 H 43 v 1.58 h -3.52 v 1.79 h 3.18 v 1.53 h -3.18 z"
       class="cls-5" />
    <path
       style="fill:#cccccc"
       inkscape:connector-curvature="0"
       id="path62"
       d="m 46.53,16.79 h 3.2 v 1.58 H 44.87 V 10 h 1.66 z"
       class="cls-5" />
    <path
       style="fill:#cccccc"
       inkscape:connector-curvature="0"
       id="path64"
       d="m 54.69,10 a 3.81,3.81 0 0 1 2.88,1.21 4.1,4.1 0 0 1 1.16,3 4.11,4.11 0 0 1 -1.16,3 3.84,3.84 0 0 1 -2.88,1.21 H 51.35 V 10 Z m 0,6.81 a 2.31,2.31 0 0 0 1.77,-0.72 2.66,2.66 0 0 0 0.69,-1.9 2.59,2.59 0 0 0 -0.69,-1.88 2.29,2.29 0 0 0 -1.77,-0.73 H 53 v 5.23 z"
       class="cls-5" />
  </g>
  <g
     transform="scale(1.3333333,1.3333406)"
     data-name="EQ bgs copy"
     id="EQ_bgs_copy"
     style="opacity:1">
    <rect
       style="fill:#121212"
       id="rect67"
       rx="1.42"
       height="36.849998"
       width="27.92"
       y="28.35"
       x="53.049999"
       class="cls-6" />
  </g>
  <path
     class="cls-5"
     d="m 22.013333,42.026896 h 1.253333 v 6.533369 h -1.253333 z"
     id="path70"
     inkscape:connector-curvature="0"
     style="opacity:1;fill:#cccccc;stroke-width:1.33334005" />
  <path
     class="cls-5"
     d="m 28.439999,42.026896 h 1.24 v 6.533369 h -0.946666 l -2.666667,-4.000022 v 4.000022 h -1.253333 v -6.533369 h 0.946666 l 2.666667,4.000022 z"
     id="path72"
     inkscape:connector-curvature="0"
     style="opacity:1;fill:#cccccc;stroke-width:1.33334005" />
  <path
     class="cls-5"
     d="m 83.519998,48.693599 a 3.1333333,3.1333504 0 0 1 -2.32,-0.986672 3.3333333,3.3333515 0 0 1 -0.946667,-2.373347 3.2933333,3.2933513 0 0 1 0.946667,-2.413346 3.2399999,3.2400177 0 0 1 4.653333,0 3.2933333,3.2933513 0 0 1 0.946667,2.413346 3.3333333,3.3333515 0 0 1 -0.946667,2.413347 3.1599999,3.1600172 0 0 1 -2.333333,0.946672 z m 0,-1.333341 a 1.9066666,1.9066771 0 0 0 1.453333,-0.600003 2.1066666,2.1066781 0 0 0 0.586667,-1.426675 2.1466666,2.1466784 0 0 0 -0.586667,-1.546675 2.0666666,2.0666779 0 0 0 -2.906666,0 2.1466666,2.1466784 0 0 0 -0.586667,1.546675 2.1066666,2.1066781 0 0 0 0.586667,1.533342 1.9066666,1.9066771 0 0 0 1.453333,0.560003 z"
     id="path74"
     inkscape:connector-curvature="0"
     style="opacity:1;fill:#cccccc;stroke-width:1.33334005" />
  <path
     class="cls-5"
     d="M 88.653331,48.080262 A 2.1466666,2.1466784 0 0 1 87.999998,46.42692 v -4.400024 h 1.24 v 4.293356 a 1.1733333,1.1733397 0 0 0 2.346666,0 v -4.293356 h 1.24 v 4.400024 a 2.1466666,2.1466784 0 0 1 -0.68,1.653342 2.7599999,2.760015 0 0 1 -3.466666,0 z"
     id="path76"
     inkscape:connector-curvature="0"
     style="opacity:1;fill:#cccccc;stroke-width:1.33334005" />
  <path
     class="cls-5"
     d="m 98.439998,42.026896 v 1.226673 h -1.693334 v 5.333362 h -1.253333 v -5.333362 h -1.693333 v -1.226673 z"
     id="path78"
     inkscape:connector-curvature="0"
     style="opacity:1;fill:#cccccc;stroke-width:1.33334005" />
  <path
     class="cls-7"
     d="m 38.359999,105.14724 h 2.84 v 1.33334 h -4.32 v -7.466707 h 1.48 z"
     id="path80"
     inkscape:connector-curvature="0"
     style="opacity:1;fill:#ffffff;stroke-width:1.33334005" />
  <path
     class="cls-7"
     d="m 77.413331,106.54725 -1.506666,-2.54668 h -1.12 v 2.58668 h -1.453334 v -7.46671 h 2.986667 a 2.4799999,2.4800135 0 0 1 2.48,2.48001 2.4266666,2.4266799 0 0 1 -1.466667,2.13335 l 1.653334,2.81335 z m -2.666666,-6.08004 v 2.20002 h 1.52 a 1.08,1.0800059 0 0 0 1.013333,-1.10668 1.0533333,1.0533391 0 0 0 -1.013333,-1.09334 z"
     id="path82"
     inkscape:connector-curvature="0"
     style="opacity:1;fill:#ffffff;stroke-width:1.33334005" />
  <g
     transform="scale(1.3333333,1.3333406)"
     data-name="Grp/Aux"
     id="Grp_Aux"
     style="opacity:1">
    <path
       style="fill:#cccccc"
       inkscape:connector-curvature="0"
       id="path117"
       d="M 11.83,128.67 V 129 a 2.24,2.24 0 0 1 -0.64,1.66 2.3,2.3 0 0 1 -1.68,0.63 2.42,2.42 0 0 1 -1.81,-0.73 2.65,2.65 0 0 1 0,-3.61 2.45,2.45 0 0 1 3.84,0.42 l -0.67,0.4 a 1.55,1.55 0 0 0 -1.4,-0.77 1.6,1.6 0 0 0 -1.22,0.5 1.75,1.75 0 0 0 -0.48,1.26 1.73,1.73 0 0 0 0.48,1.24 1.7,1.7 0 0 0 1.27,0.5 1.42,1.42 0 0 0 1.53,-1.12 H 9.47 v -0.72 z"
       class="cls-5" />
    <path
       style="fill:#cccccc"
       inkscape:connector-curvature="0"
       id="path119"
       d="m 12.41,131.2 v -0.63 l 1.65,-1.74 a 1.72,1.72 0 0 0 0.6,-1.08 0.69,0.69 0 0 0 -0.73,-0.75 0.93,0.93 0 0 0 -0.88,0.6 l -0.65,-0.39 a 1.61,1.61 0 0 1 1.52,-1 1.49,1.49 0 0 1 1.07,0.41 1.4,1.4 0 0 1 0.45,1.1 2.43,2.43 0 0 1 -0.81,1.6 l -1.06,1.11 h 2 v 0.77 z"
       class="cls-5" />
    <path
       style="fill:#cccccc"
       inkscape:connector-curvature="0"
       id="path121"
       d="m 11.8,159.81 v 0.34 a 2.21,2.21 0 0 1 -2.32,2.29 2.43,2.43 0 0 1 -1.81,-0.74 2.65,2.65 0 0 1 0,-3.61 2.44,2.44 0 0 1 3.83,0.42 l -0.67,0.4 a 1.55,1.55 0 0 0 -1.39,-0.77 1.61,1.61 0 0 0 -1.23,0.5 1.81,1.81 0 0 0 -0.48,1.26 1.77,1.77 0 0 0 0.48,1.25 1.72,1.72 0 0 0 1.27,0.5 1.42,1.42 0 0 0 1.52,-1.12 H 9.43 v -0.72 z"
       class="cls-5" />
    <path
       style="fill:#cccccc"
       inkscape:connector-curvature="0"
       id="path123"
       d="m 14.42,159.44 a 1.43,1.43 0 0 1 1.16,1.42 1.51,1.51 0 0 1 -0.48,1.14 1.72,1.72 0 0 1 -1.18,0.42 1.61,1.61 0 0 1 -1.59,-1 L 13,161 a 0.89,0.89 0 0 0 0.93,0.63 0.79,0.79 0 1 0 0,-1.58 h -0.18 l -0.31,-0.48 1,-1.39 h -2 v -0.76 h 2.91 v 0.69 z"
       class="cls-5" />
    <path
       style="fill:#cccccc"
       inkscape:connector-curvature="0"
       id="path125"
       d="m 11.66,190.45 v 0.33 a 2.28,2.28 0 0 1 -0.64,1.66 2.3,2.3 0 0 1 -1.68,0.63 2.42,2.42 0 0 1 -1.81,-0.73 2.65,2.65 0 0 1 0,-3.61 2.35,2.35 0 0 1 1.77,-0.73 2.33,2.33 0 0 1 2.06,1.16 l -0.67,0.4 a 1.54,1.54 0 0 0 -1.39,-0.78 1.61,1.61 0 0 0 -1.22,0.51 1.88,1.88 0 0 0 0,2.51 1.7,1.7 0 0 0 1.27,0.5 1.43,1.43 0 0 0 1.53,-1.12 H 9.29 v -0.72 z"
       class="cls-5" />
    <path
       style="fill:#cccccc"
       inkscape:connector-curvature="0"
       id="path127"
       d="m 15.83,191.35 v 0.75 h -0.54 v 0.9 h -0.78 v -0.88 h -2.33 v -0.75 l 1.63,-3.27 h 0.85 L 13,191.35 h 1.48 v -1.27 h 0.78 v 1.27 z"
       class="cls-5" />
    <path
       style="fill:#cccccc"
       inkscape:connector-curvature="0"
       id="path129"
       d="M 11.35,223 11,222 H 9 l -0.33,1 H 7.83 l 1.72,-4.9 h 0.93 l 1.71,4.9 z m -2.09,-1.74 h 1.5 L 10,219.05 Z"
       class="cls-5" />
    <path
       style="fill:#cccccc"
       inkscape:connector-curvature="0"
       id="path131"
       d="m 13.55,218.1 h 0.68 v 4.9 h -0.78 v -4 l -0.95,0.28 -0.19,-0.68 z"
       class="cls-5" />
    <path
       style="fill:#cccccc"
       inkscape:connector-curvature="0"
       id="path133"
       d="m 10.82,253.76 -0.33,-1 h -2 l -0.33,1 H 7.3 l 1.7,-4.9 h 1 l 1.71,4.9 z M 8.73,252 h 1.5 l -0.75,-2.22 z"
       class="cls-5" />
    <path
       style="fill:#cccccc"
       inkscape:connector-curvature="0"
       id="path135"
       d="m 11.9,253.76 v -0.63 l 1.65,-1.74 a 1.75,1.75 0 0 0 0.6,-1.08 0.7,0.7 0 0 0 -0.73,-0.76 0.92,0.92 0 0 0 -0.88,0.61 l -0.65,-0.4 a 1.62,1.62 0 0 1 1.52,-1 1.53,1.53 0 0 1 1.07,0.4 1.43,1.43 0 0 1 0.45,1.11 2.43,2.43 0 0 1 -0.81,1.6 L 13.06,253 h 2 v 0.78 z"
       class="cls-5" />
    <path
       style="fill:#cccccc"
       inkscape:connector-curvature="0"
       id="path137"
       d="m 10.78,284.52 -0.33,-1 h -2 l -0.33,1 H 7.26 L 9,279.61 h 0.93 l 1.71,4.91 z M 8.7,282.77 h 1.5 l -0.75,-2.21 z"
       class="cls-5" />
    <path
       style="fill:#cccccc"
       inkscape:connector-curvature="0"
       id="path139"
       d="m 13.91,281.62 a 1.43,1.43 0 0 1 1.16,1.38 1.5,1.5 0 0 1 -0.48,1.16 1.72,1.72 0 0 1 -1.18,0.42 1.61,1.61 0 0 1 -1.59,-1 l 0.66,-0.4 a 0.89,0.89 0 0 0 0.93,0.63 0.79,0.79 0 1 0 0,-1.57 h -0.18 l -0.31,-0.49 1,-1.39 H 12 v -0.76 h 2.91 v 0.69 z"
       class="cls-5" />
    <path
       style="fill:#cccccc"
       inkscape:connector-curvature="0"
       id="path141"
       d="m 10.65,315.27 -0.33,-1 h -2 l -0.33,1 H 7.13 l 1.71,-4.9 h 0.94 l 1.71,4.9 z m -2.09,-1.74 h 1.5 l -0.75,-2.21 z"
       class="cls-5" />
    <path
       style="fill:#cccccc"
       inkscape:connector-curvature="0"
       id="path143"
       d="m 15.32,313.64 v 0.75 h -0.54 v 0.88 H 14 v -0.88 h -2.33 v -0.75 l 1.63,-3.27 h 0.85 l -1.63,3.27 H 14 v -1.27 h 0.78 v 1.27 z"
       class="cls-5" />
    <path
       style="fill:#cccccc"
       inkscape:connector-curvature="0"
       id="path145"
       d="m 12.36,97.85 v 0.33 a 2.25,2.25 0 0 1 -0.64,1.66 2.3,2.3 0 0 1 -1.68,0.63 2.42,2.42 0 0 1 -1.81,-0.73 2.65,2.65 0 0 1 0,-3.61 2.45,2.45 0 0 1 3.84,0.42 l -0.67,0.4 a 1.56,1.56 0 0 0 -1.4,-0.78 1.61,1.61 0 0 0 -1.22,0.51 1.88,1.88 0 0 0 0,2.51 1.7,1.7 0 0 0 1.27,0.5 1.42,1.42 0 0 0 1.53,-1.12 H 10 v -0.72 z"
       class="cls-5" />
    <path
       style="fill:#cccccc"
       inkscape:connector-curvature="0"
       id="path147"
       d="m 14.06,95.48 h 0.68 v 4.9 H 14 v -4 l -1,0.28 -0.19,-0.69 z"
       class="cls-5" />
    <path
       style="fill:#cccccc"
       inkscape:connector-curvature="0"
       id="path149"
       d="M 75.55,128.67 V 129 a 2.24,2.24 0 0 1 -0.64,1.66 2.3,2.3 0 0 1 -1.68,0.63 2.42,2.42 0 0 1 -1.81,-0.73 2.65,2.65 0 0 1 0,-3.61 2.39,2.39 0 0 1 1.77,-0.74 2.35,2.35 0 0 1 2.06,1.16 l -0.67,0.4 a 1.53,1.53 0 0 0 -1.39,-0.77 1.6,1.6 0 0 0 -1.22,0.5 1.75,1.75 0 0 0 -0.48,1.26 1.73,1.73 0 0 0 0.51,1.24 1.7,1.7 0 0 0 1.27,0.5 1.42,1.42 0 0 0 1.53,-1.12 h -1.61 v -0.72 z"
       class="cls-5" />
    <path
       style="fill:#cccccc"
       inkscape:connector-curvature="0"
       id="path151"
       d="m 76.13,131.2 v -0.63 l 1.65,-1.74 a 1.72,1.72 0 0 0 0.6,-1.08 0.69,0.69 0 0 0 -0.73,-0.75 0.93,0.93 0 0 0 -0.88,0.6 l -0.65,-0.39 a 1.61,1.61 0 0 1 1.52,-1 1.49,1.49 0 0 1 1.07,0.41 1.4,1.4 0 0 1 0.45,1.1 2.43,2.43 0 0 1 -0.81,1.6 l -1.07,1.11 h 2 v 0.77 z"
       class="cls-5" />
    <path
       style="fill:#cccccc"
       inkscape:connector-curvature="0"
       id="path153"
       d="m 75.51,159.81 v 0.34 a 2.19,2.19 0 0 1 -2.31,2.29 2.45,2.45 0 0 1 -1.82,-0.74 2.65,2.65 0 0 1 0,-3.61 2.45,2.45 0 0 1 3.84,0.42 l -0.67,0.4 a 1.55,1.55 0 0 0 -1.39,-0.77 1.61,1.61 0 0 0 -1.23,0.5 1.77,1.77 0 0 0 -0.48,1.26 1.68,1.68 0 0 0 1.75,1.75 1.42,1.42 0 0 0 1.53,-1.12 h -1.58 v -0.72 z"
       class="cls-5" />
    <path
       style="fill:#cccccc"
       inkscape:connector-curvature="0"
       id="path155"
       d="m 78.14,159.44 a 1.43,1.43 0 0 1 1.16,1.42 1.51,1.51 0 0 1 -0.48,1.16 1.72,1.72 0 0 1 -1.18,0.42 1.61,1.61 0 0 1 -1.59,-1 l 0.66,-0.4 a 0.89,0.89 0 0 0 0.93,0.63 0.79,0.79 0 1 0 0,-1.58 h -0.18 l -0.31,-0.48 1,-1.39 h -2 v -0.76 h 2.95 v 0.69 z"
       class="cls-5" />
    <path
       style="fill:#cccccc"
       inkscape:connector-curvature="0"
       id="path157"
       d="m 75.38,190.45 v 0.33 a 2.28,2.28 0 0 1 -0.64,1.66 2.3,2.3 0 0 1 -1.68,0.63 2.42,2.42 0 0 1 -1.81,-0.73 2.65,2.65 0 0 1 0,-3.61 2.44,2.44 0 0 1 3.83,0.42 l -0.67,0.4 a 1.54,1.54 0 0 0 -1.39,-0.78 1.59,1.59 0 0 0 -1.22,0.51 1.88,1.88 0 0 0 0,2.51 1.7,1.7 0 0 0 1.27,0.5 1.43,1.43 0 0 0 1.53,-1.12 H 73 v -0.72 z"
       class="cls-5" />
    <path
       style="fill:#cccccc"
       inkscape:connector-curvature="0"
       id="path159"
       d="m 79.55,191.35 v 0.75 H 79 v 0.9 h -0.78 v -0.88 H 75.9 v -0.75 l 1.63,-3.27 h 0.85 l -1.63,3.27 h 1.48 V 190.1 H 79 v 1.27 z"
       class="cls-5" />
    <path
       style="fill:#cccccc"
       inkscape:connector-curvature="0"
       id="path161"
       d="m 75.07,223 -0.33,-1 h -2 l -0.34,1 h -0.84 l 1.72,-4.9 h 0.93 l 1.71,4.9 z M 73,221.26 h 1.5 l -0.75,-2.21 z"
       class="cls-5" />
    <path
       style="fill:#cccccc"
       inkscape:connector-curvature="0"
       id="path163"
       d="M 77.27,218.1 H 78 v 4.9 h -0.78 v -4 l -1,0.28 -0.19,-0.68 z"
       class="cls-5" />
    <path
       style="fill:#cccccc"
       inkscape:connector-curvature="0"
       id="path165"
       d="m 74.54,253.76 -0.33,-1 h -2 l -0.34,1 H 71 l 1.72,-4.9 h 0.93 l 1.71,4.9 z M 72.45,252 H 74 l -0.75,-2.22 z"
       class="cls-5" />
    <path
       style="fill:#cccccc"
       inkscape:connector-curvature="0"
       id="path167"
       d="m 75.62,253.76 v -0.63 l 1.65,-1.74 a 1.75,1.75 0 0 0 0.6,-1.08 0.7,0.7 0 0 0 -0.73,-0.76 0.92,0.92 0 0 0 -0.88,0.61 l -0.66,-0.4 a 1.64,1.64 0 0 1 1.53,-1 1.55,1.55 0 0 1 1.07,0.4 1.43,1.43 0 0 1 0.45,1.11 2.43,2.43 0 0 1 -0.81,1.6 L 76.77,253 h 2 v 0.78 z"
       class="cls-5" />
    <path
       style="fill:#cccccc"
       inkscape:connector-curvature="0"
       id="path169"
       d="m 74.5,284.52 -0.33,-1 h -2 l -0.33,1 H 71 l 1.72,-4.91 h 0.93 l 1.71,4.91 z m -2.08,-1.75 h 1.5 l -0.75,-2.21 z"
       class="cls-5" />
    <path
       style="fill:#cccccc"
       inkscape:connector-curvature="0"
       id="path171"
       d="m 77.63,281.62 a 1.43,1.43 0 0 1 1.16,1.38 1.5,1.5 0 0 1 -0.48,1.16 1.72,1.72 0 0 1 -1.18,0.42 1.61,1.61 0 0 1 -1.59,-1 l 0.66,-0.4 a 0.88,0.88 0 0 0 0.93,0.63 0.79,0.79 0 1 0 0,-1.57 H 77 l -0.31,-0.49 1,-1.39 h -2 v -0.76 h 2.91 v 0.69 z"
       class="cls-5" />
    <path
       style="fill:#cccccc"
       inkscape:connector-curvature="0"
       id="path173"
       d="m 74.37,315.27 -0.33,-1 H 72 l -0.33,1 h -0.84 l 1.71,-4.9 h 0.94 l 1.71,4.9 z m -2.09,-1.74 h 1.5 L 73,311.32 Z"
       class="cls-5" />
    <path
       style="fill:#cccccc"
       inkscape:connector-curvature="0"
       id="path175"
       d="m 79,313.64 v 0.75 h -0.5 v 0.88 h -0.78 v -0.88 h -2.33 v -0.75 L 77,310.37 h 0.85 l -1.63,3.27 h 1.48 v -1.27 h 0.78 v 1.27 z"
       class="cls-5" />
    <path
       style="fill:#cccccc"
       inkscape:connector-curvature="0"
       id="path177"
       d="m 76.08,97.85 v 0.33 a 2.25,2.25 0 0 1 -0.64,1.66 2.3,2.3 0 0 1 -1.68,0.63 2.42,2.42 0 0 1 -1.76,-0.73 2.65,2.65 0 0 1 0,-3.61 2.45,2.45 0 0 1 3.84,0.42 l -0.67,0.4 a 1.56,1.56 0 0 0 -1.4,-0.78 1.61,1.61 0 0 0 -1.22,0.51 1.88,1.88 0 0 0 0,2.51 1.7,1.7 0 0 0 1.27,0.5 1.42,1.42 0 0 0 1.53,-1.12 h -1.63 v -0.72 z"
       class="cls-5" />
    <path
       style="fill:#cccccc"
       inkscape:connector-curvature="0"
       id="path179"
       d="m 77.78,95.48 h 0.68 v 4.9 h -0.78 v -4 l -1,0.28 -0.19,-0.69 z"
       class="cls-5" />
  </g>
  <g
     transform="scale(1.3333333,1.3333406)"
     data-name="jack join lines"
     id="jack_join_lines"
     style="opacity:1">
    <rect
       style="fill:#828282"
       id="rect182"
       height="1"
       width="22.68"
       y="97.300003"
       x="32.490002"
       class="cls-8" />
    <rect
       style="fill:#828282"
       id="rect184"
       height="1"
       width="22.68"
       y="128.05"
       x="32.490002"
       class="cls-8" />
    <rect
       style="fill:#828282"
       id="rect186"
       height="1"
       width="22.68"
       y="158.81"
       x="32.490002"
       class="cls-8" />
    <rect
       style="fill:#828282"
       id="rect188"
       height="1"
       width="22.68"
       y="189.56"
       x="32.490002"
       class="cls-8" />
    <rect
       style="fill:#828282"
       id="rect190"
       height="1"
       width="22.68"
       y="220.32001"
       x="32.490002"
       class="cls-8" />
    <rect
       style="fill:#828282"
       id="rect192"
       height="1"
       width="22.68"
       y="251.07001"
       x="32.490002"
       class="cls-8" />
    <rect
       style="fill:#828282"
       id="rect194"
       height="1"
       width="22.68"
       y="281.82999"
       x="32.490002"
       class="cls-8" />
    <rect
       style="fill:#828282"
       id="rect196"
       height="1"
       width="22.68"
       y="312.59"
       x="32.490002"
       class="cls-8" />
  </g>
</svg>
