<?xml version="1.0" encoding="UTF-8" standalone="no"?>
<svg
   xmlns:dc="http://purl.org/dc/elements/1.1/"
   xmlns:cc="http://creativecommons.org/ns#"
   xmlns:rdf="http://www.w3.org/1999/02/22-rdf-syntax-ns#"
   xmlns:svg="http://www.w3.org/2000/svg"
   xmlns="http://www.w3.org/2000/svg"
   xmlns:xlink="http://www.w3.org/1999/xlink"
   xmlns:sodipodi="http://sodipodi.sourceforge.net/DTD/sodipodi-0.dtd"
   xmlns:inkscape="http://www.inkscape.org/namespaces/inkscape"
   inkscape:version="0.92.2 (5c3e80d, 2017-08-06)"
   height="128.5mm"
   width="30.48mm"
   sodipodi:docname="meld-grp-aux.svg"
   id="svg590"
   version="1.1"
   viewBox="0 0 115.2 485.66928">
  <metadata
     id="metadata594">
    <rdf:RDF>
      <cc:Work
         rdf:about="">
        <dc:format>image/svg+xml</dc:format>
        <dc:type
           rdf:resource="http://purl.org/dc/dcmitype/StillImage" />
        <dc:title>Asset 8</dc:title>
      </cc:Work>
    </rdf:RDF>
  </metadata>
  <sodipodi:namedview
     inkscape:current-layer="svg590"
     inkscape:window-maximized="1"
     inkscape:window-y="-8"
     inkscape:window-x="-8"
     inkscape:cy="188.03805"
     inkscape:cx="42.204479"
     inkscape:zoom="1.6616245"
     units="mm"
     inkscape:document-units="mm"
     showgrid="false"
     id="namedview592"
     inkscape:window-height="1017"
     inkscape:window-width="1920"
     inkscape:pageshadow="2"
     inkscape:pageopacity="0"
     guidetolerance="10"
     gridtolerance="10"
     objecttolerance="10"
     borderopacity="1"
     inkscape:document-rotation="0"
     bordercolor="#666666"
     pagecolor="#ffffff" />
  <defs
     id="defs45">
    <style
       id="style10">.cls-1{fill:#353535;}.cls-2{fill:url(#linear-gradient);}.cls-3{fill:gray;}.cls-4{fill:#b3b3b3;}.cls-5{fill:#ccc;}.cls-6{fill:#121212;}.cls-7{fill:#fff;}.cls-8{fill:#828282;}.cls-9{fill:url(#linear-gradient-2);}.cls-10{fill:#1e1e1e;}.cls-11{fill:#878787;}.cls-12{fill:#646464;}.cls-13{fill:url(#linear-gradient-3);}.cls-14{fill:url(#linear-gradient-4);}.cls-15{fill:url(#linear-gradient-5);}.cls-16{fill:url(#linear-gradient-6);}.cls-17{fill:url(#linear-gradient-7);}.cls-18{fill:url(#linear-gradient-8);}.cls-19{fill:url(#linear-gradient-9);}.cls-20{fill:url(#linear-gradient-10);}.cls-21{fill:url(#linear-gradient-11);}.cls-22{fill:url(#linear-gradient-12);}.cls-23{fill:url(#linear-gradient-13);}.cls-24{fill:url(#linear-gradient-14);}.cls-25{fill:url(#linear-gradient-15);}.cls-26{fill:url(#linear-gradient-16);}.cls-27{fill:url(#linear-gradient-17);}.cls-28{fill:url(#linear-gradient-18);}.cls-29{fill:url(#linear-gradient-19);}.cls-30{fill:url(#linear-gradient-20);}.cls-31{fill:url(#linear-gradient-21);}</style>
    <linearGradient
       gradientUnits="userSpaceOnUse"
       y2="349.56"
       x2="40.939999"
       y1="349.56"
       x1="21.09"
       id="linear-gradient">
      <stop
         id="stop12"
         stop-color="#3fa9f5"
         offset="0" />
      <stop
         id="stop14"
         stop-color="#ed1e79"
         offset="1" />
    </linearGradient>
    <linearGradient
       gradientUnits="userSpaceOnUse"
       y2="324.28"
       x2="57.119999"
       y1="301.89001"
       x1="57.119999"
       id="linear-gradient-2">
      <stop
         id="stop17"
         stop-color="#c8c8c8"
         offset="0" />
      <stop
         id="stop19"
         stop-color="#969696"
         offset="1" />
    </linearGradient>
    <linearGradient
       xlink:href="#linear-gradient-2"
       y2="293.53"
       x2="57.119999"
       y1="271.13"
       x1="57.119999"
       id="linear-gradient-3"
       gradientTransform="scale(1.3333333,1.3333406)" />
    <linearGradient
       xlink:href="#linear-gradient-2"
       y2="262.76999"
       x2="57.119999"
       y1="240.38"
       x1="57.119999"
       id="linear-gradient-4"
       gradientTransform="scale(1.3333333,1.3333406)" />
    <linearGradient
       xlink:href="#linear-gradient-2"
       y2="232.02"
       x2="57.119999"
       y1="209.62"
       x1="57.119999"
       id="linear-gradient-5"
       gradientTransform="scale(1.3333333,1.3333406)" />
    <linearGradient
       xlink:href="#linear-gradient-2"
       y2="201.25999"
       x2="57.119999"
       y1="178.87"
       x1="57.119999"
       id="linear-gradient-6"
       gradientTransform="scale(1.3333333,1.3333406)" />
    <linearGradient
       xlink:href="#linear-gradient-2"
       y2="170.5"
       x2="57.119999"
       y1="148.11"
       x1="57.119999"
       id="linear-gradient-7"
       gradientTransform="scale(1.3333333,1.3333406)" />
    <linearGradient
       xlink:href="#linear-gradient-2"
       y2="139.75"
       x2="57.119999"
       y1="117.35"
       x1="57.119999"
       id="linear-gradient-8"
       gradientTransform="scale(1.3333333,1.3333406)" />
    <linearGradient
       xlink:href="#linear-gradient-2"
       y2="108.99"
       x2="57.119999"
       y1="86.599998"
       x1="57.119999"
       id="linear-gradient-9"
       gradientTransform="scale(1.3333333,1.3333406)" />
    <linearGradient
       xlink:href="#linear-gradient-2"
       y2="324.28"
       x2="29.280001"
       y1="301.89001"
       x1="29.280001"
       id="linear-gradient-10"
       gradientTransform="scale(1.3333333,1.3333406)" />
    <linearGradient
       xlink:href="#linear-gradient-2"
       y2="293.53"
       x2="29.280001"
       y1="271.13"
       x1="29.280001"
       id="linear-gradient-11"
       gradientTransform="scale(1.3333333,1.3333406)" />
    <linearGradient
       xlink:href="#linear-gradient-2"
       y2="262.76999"
       x2="29.280001"
       y1="240.38"
       x1="29.280001"
       id="linear-gradient-12"
       gradientTransform="scale(1.3333333,1.3333406)" />
    <linearGradient
       xlink:href="#linear-gradient-2"
       y2="232.02"
       x2="29.280001"
       y1="209.62"
       x1="29.280001"
       id="linear-gradient-13"
       gradientTransform="scale(1.3333333,1.3333406)" />
    <linearGradient
       xlink:href="#linear-gradient-2"
       y2="201.25999"
       x2="29.280001"
       y1="178.87"
       x1="29.280001"
       id="linear-gradient-14"
       gradientTransform="scale(1.3333333,1.3333406)" />
    <linearGradient
       xlink:href="#linear-gradient-2"
       y2="170.5"
       x2="29.280001"
       y1="148.11"
       x1="29.280001"
       id="linear-gradient-15"
       gradientTransform="scale(1.3333333,1.3333406)" />
    <linearGradient
       xlink:href="#linear-gradient-2"
       y2="139.75"
       x2="29.280001"
       y1="117.35"
       x1="29.280001"
       id="linear-gradient-16"
       gradientTransform="scale(1.3333333,1.3333406)" />
    <linearGradient
       xlink:href="#linear-gradient-2"
       y2="108.99"
       x2="29.280001"
       y1="86.599998"
       x1="29.280001"
       id="linear-gradient-17"
       gradientTransform="scale(1.3333333,1.3333406)" />
    <linearGradient
       xlink:href="#linear-gradient-2"
       gradientTransform="matrix(1,0,0,-1,0,365.75)"
       y2="302.53"
       x2="67.010002"
       y1="324.92999"
       x1="67.010002"
       id="linear-gradient-18" />
    <linearGradient
       gradientUnits="userSpaceOnUse"
       gradientTransform="matrix(1,0,0,-1,0,365.75)"
       y2="306.42999"
       x2="67.010002"
       y1="321.03"
       x1="67.010002"
       id="linear-gradient-19">
      <stop
         id="stop38"
         stop-color="#af9420"
         offset="0" />
      <stop
         id="stop40"
         stop-color="#99841c"
         offset="1" />
    </linearGradient>
    <linearGradient
       xlink:href="#linear-gradient-2"
       gradientTransform="matrix(1,0,0,-1,0,365.75)"
       y2="302.53"
       x2="19.389999"
       y1="324.92999"
       x1="19.389999"
       id="linear-gradient-20" />
    <linearGradient
       xlink:href="#linear-gradient-19"
       y2="306.42999"
       x2="19.389999"
       y1="321.03"
       x1="19.389999"
       id="linear-gradient-21" />
    <linearGradient
       y2="306.42999"
       x2="67.010002"
       y1="321.03"
       x1="67.010002"
       gradientTransform="matrix(1,0,0,-1,0,365.75)"
       gradientUnits="userSpaceOnUse"
       id="linearGradient598"
       xlink:href="#linear-gradient-19"
       inkscape:collect="always" />
  </defs>
  <title
     id="title47">Asset 8</title>
  <g
     id="Layer_2-2"
     data-name="Layer 2"
     transform="scale(1.3333333,1.3333406)">
    <g
       id="background">
      <path
         style="fill:#353535"
         id="rect4155"
         class="cls-1"
         d="M 0,0 H 86.4 V 364.25 H 0 Z"
         inkscape:connector-curvature="0" />
    </g>
  </g>
  <g
     id="branding"
     transform="scale(1.3333333,1.3333406)">
    <path
       class="cls-2"
       d="m 21.6,355.74 a 0.47,0.47 0 0 1 -0.25,-0.07 0.51,0.51 0 0 1 -0.2,-0.7 l 6.27,-11.32 a 0.52,0.52 0 0 1 1,0.25 v 9.33 l 5.31,-9.58 a 0.51,0.51 0 0 1 0.58,-0.25 0.52,0.52 0 0 1 0.38,0.5 v 9.33 L 40,343.65 a 0.51,0.51 0 0 1 0.58,-0.25 0.51,0.51 0 0 1 0.39,0.5 v 11.32 a 0.52,0.52 0 0 1 -0.52,0.52 0.51,0.51 0 0 1 -0.51,-0.52 v -9.33 l -5.31,9.58 a 0.52,0.52 0 0 1 -1,-0.25 v -9.33 l -5.31,9.58 a 0.51,0.51 0 0 1 -0.58,0.25 0.52,0.52 0 0 1 -0.38,-0.5 v -9.33 l -5.31,9.58 a 0.51,0.51 0 0 1 -0.45,0.27 z"
       id="path52"
       inkscape:connector-curvature="0"
       style="fill:url(#linear-gradient)" />
    <path
       style="fill:#808080"
       class="cls-3"
       d="m 43.43,343.9 a 0.5,0.5 0 0 1 0.5,-0.5 H 44 a 0.54,0.54 0 0 1 0.47,0.26 l 1.71,2.68 1.72,-2.69 a 0.51,0.51 0 0 1 0.46,-0.25 h 0.1 a 0.5,0.5 0 0 1 0.51,0.5 v 4.72 a 0.49,0.49 0 0 1 -0.51,0.49 0.5,0.5 0 0 1 -0.49,-0.49 v -3.39 l -1.38,2.08 a 0.47,0.47 0 0 1 -0.84,0 l -1.37,-2.06 v 3.38 a 0.48,0.48 0 0 1 -0.5,0.48 0.47,0.47 0 0 1 -0.48,-0.48 z"
       id="path54"
       inkscape:connector-curvature="0" />
    <path
       style="fill:#b3b3b3"
       class="cls-4"
       d="m 48.49,343.4 h -0.1 a 0.51,0.51 0 0 0 -0.46,0.25 l -1.72,2.69 -1.71,-2.68 a 0.54,0.54 0 0 0 -0.47,-0.26 h -0.1 a 0.5,0.5 0 0 0 -0.5,0.5 v 4.73 a 0.47,0.47 0 0 0 0.48,0.48 0.48,0.48 0 0 0 0.5,-0.48 v -3.38 l 1.37,2.06 a 0.47,0.47 0 0 0 0.84,0 L 48,345.23 v 3.39 a 0.5,0.5 0 0 0 0.49,0.49 0.49,0.49 0 0 0 0.51,-0.49 v -4.72 a 0.5,0.5 0 0 0 -0.51,-0.5 z"
       id="path56"
       inkscape:connector-curvature="0" />
    <path
       style="fill:#808080"
       class="cls-3"
       d="m 50.11,343.88 a 0.5,0.5 0 0 1 1,0 v 4.74 a 0.5,0.5 0 0 1 -1,0 z"
       id="path58"
       inkscape:connector-curvature="0" />
    <path
       style="fill:#b3b3b3"
       class="cls-4"
       d="m 50.61,343.39 a 0.49,0.49 0 0 0 -0.5,0.49 v 4.74 a 0.5,0.5 0 0 0 1,0 v -4.74 a 0.49,0.49 0 0 0 -0.49,-0.49 z"
       id="path60"
       inkscape:connector-curvature="0" />
    <path
       style="fill:#808080"
       class="cls-3"
       d="m 52.21,343.9 a 0.5,0.5 0 0 1 0.5,-0.5 h 0.11 a 0.64,0.64 0 0 1 0.52,0.29 l 2.83,3.65 v -3.47 a 0.5,0.5 0 0 1 1,0 v 4.74 a 0.49,0.49 0 0 1 -0.49,0.5 v 0 a 0.66,0.66 0 0 1 -0.52,-0.3 l -2.91,-3.76 v 3.58 a 0.5,0.5 0 0 1 -1,0 z"
       id="path62"
       inkscape:connector-curvature="0" />
    <path
       style="fill:#b3b3b3"
       class="cls-4"
       d="m 56.65,343.39 a 0.49,0.49 0 0 0 -0.48,0.48 v 3.47 l -2.83,-3.65 a 0.64,0.64 0 0 0 -0.52,-0.29 h -0.11 a 0.5,0.5 0 0 0 -0.5,0.5 v 4.73 a 0.5,0.5 0 0 0 1,0 v -3.58 l 2.91,3.76 a 0.66,0.66 0 0 0 0.52,0.3 v 0 a 0.49,0.49 0 0 0 0.49,-0.5 v -4.74 a 0.49,0.49 0 0 0 -0.5,-0.48 z"
       id="path64"
       inkscape:connector-curvature="0" />
    <path
       style="fill:#808080"
       class="cls-3"
       d="m 58.2,343.93 a 0.5,0.5 0 0 1 0.51,-0.5 h 1.61 a 2.82,2.82 0 0 1 3,2.8 v 0 a 2.83,2.83 0 0 1 -3,2.82 h -1.61 a 0.49,0.49 0 0 1 -0.51,-0.5 z m 2.12,4.24 a 1.84,1.84 0 0 0 2,-1.9 v 0 a 1.85,1.85 0 0 0 -2,-1.92 H 59.2 v 3.84 z"
       id="path66"
       inkscape:connector-curvature="0" />
    <path
       style="fill:#b3b3b3"
       class="cls-4"
       d="m 60.32,343.43 h -1.61 a 0.5,0.5 0 0 0 -0.51,0.5 v 4.64 a 0.49,0.49 0 0 0 0.51,0.5 h 1.61 a 2.83,2.83 0 0 0 3,-2.82 v 0 a 2.82,2.82 0 0 0 -3,-2.8 z m -1.12,4.74 v -3.84 h 1.12 a 1.85,1.85 0 0 1 2,1.92 v 0 a 1.84,1.84 0 0 1 -2,1.9 z"
       id="path68"
       inkscape:connector-curvature="0" />
    <path
       style="fill:#808080"
       class="cls-3"
       d="m 43.43,350.51 a 0.5,0.5 0 0 1 0.5,-0.5 H 44 a 0.54,0.54 0 0 1 0.47,0.26 l 1.74,2.73 1.72,-2.68 a 0.52,0.52 0 0 1 0.46,-0.26 h 0.1 a 0.5,0.5 0 0 1 0.51,0.5 v 4.72 a 0.5,0.5 0 0 1 -0.51,0.5 0.51,0.51 0 0 1 -0.49,-0.5 v -3.38 l -1.38,2.07 a 0.47,0.47 0 0 1 -0.84,0 l -1.37,-2.06 v 3.38 a 0.49,0.49 0 0 1 -0.5,0.49 0.48,0.48 0 0 1 -0.48,-0.49 z"
       id="path70"
       inkscape:connector-curvature="0" />
    <path
       style="fill:#b3b3b3"
       class="cls-4"
       d="m 48.49,350 h -0.1 a 0.52,0.52 0 0 0 -0.46,0.26 L 46.21,353 44.5,350.32 A 0.54,0.54 0 0 0 44,350 h -0.1 a 0.5,0.5 0 0 0 -0.5,0.5 v 4.73 a 0.48,0.48 0 0 0 0.48,0.49 0.49,0.49 0 0 0 0.5,-0.49 v -3.38 l 1.37,2.06 a 0.47,0.47 0 0 0 0.84,0 L 48,351.85 v 3.38 a 0.51,0.51 0 0 0 0.49,0.5 0.5,0.5 0 0 0 0.51,-0.5 v -4.72 a 0.5,0.5 0 0 0 -0.51,-0.5 z"
       id="path72"
       inkscape:connector-curvature="0" />
    <path
       style="fill:#808080"
       class="cls-3"
       d="m 50.05,355.19 v -4.65 a 0.5,0.5 0 0 1 0.5,-0.5 h 3.3 a 0.45,0.45 0 0 1 0,0.89 h -2.8 v 1.46 h 2.43 a 0.46,0.46 0 0 1 0.45,0.46 0.44,0.44 0 0 1 -0.45,0.43 h -2.43 v 1.52 h 2.84 a 0.45,0.45 0 0 1 0,0.89 h -3.34 a 0.5,0.5 0 0 1 -0.5,-0.5 z"
       id="path74"
       inkscape:connector-curvature="0" />
    <path
       style="fill:#b3b3b3"
       class="cls-4"
       d="m 53.85,350 h -3.3 a 0.5,0.5 0 0 0 -0.5,0.5 v 4.65 a 0.5,0.5 0 0 0 0.5,0.5 h 3.34 a 0.45,0.45 0 0 0 0,-0.89 h -2.84 v -1.52 h 2.43 a 0.44,0.44 0 0 0 0.45,-0.43 0.46,0.46 0 0 0 -0.45,-0.46 h -2.43 v -1.46 h 2.8 a 0.45,0.45 0 0 0 0,-0.89 z"
       id="path76"
       inkscape:connector-curvature="0" />
    <path
       style="fill:#808080"
       class="cls-3"
       d="m 55.07,350.49 a 0.5,0.5 0 0 1 1,0 v 4.29 h 2.56 a 0.45,0.45 0 0 1 0.45,0.45 0.46,0.46 0 0 1 -0.45,0.46 h -3.06 a 0.5,0.5 0 0 1 -0.5,-0.5 z"
       id="path78"
       inkscape:connector-curvature="0" />
    <path
       style="fill:#b3b3b3"
       class="cls-4"
       d="m 55.57,350 a 0.49,0.49 0 0 0 -0.5,0.49 v 4.7 a 0.5,0.5 0 0 0 0.5,0.5 h 3.06 a 0.46,0.46 0 0 0 0.45,-0.46 0.45,0.45 0 0 0 -0.45,-0.45 h -2.56 v -4.29 A 0.49,0.49 0 0 0 55.57,350 Z"
       id="path80"
       inkscape:connector-curvature="0" />
    <path
       style="fill:#808080"
       class="cls-3"
       d="m 59.68,350.54 a 0.5,0.5 0 0 1 0.5,-0.5 h 1.61 a 2.82,2.82 0 0 1 3,2.81 v 0 a 2.84,2.84 0 0 1 -3,2.83 h -1.61 a 0.5,0.5 0 0 1 -0.5,-0.5 z m 2.11,4.24 a 1.85,1.85 0 0 0 2,-1.9 v 0 a 1.86,1.86 0 0 0 -2,-1.92 h -1.12 v 3.84 z"
       id="path82"
       inkscape:connector-curvature="0" />
    <path
       style="fill:#b3b3b3"
       class="cls-4"
       d="m 61.79,350 h -1.61 a 0.5,0.5 0 0 0 -0.5,0.5 v 4.65 a 0.5,0.5 0 0 0 0.5,0.5 h 1.61 a 2.84,2.84 0 0 0 3,-2.83 v 0 a 2.82,2.82 0 0 0 -3,-2.81 z m -1.12,4.74 v -3.84 h 1.12 a 1.86,1.86 0 0 1 2,1.92 v 0 a 1.85,1.85 0 0 1 -2,1.9 z"
       id="path84"
       inkscape:connector-curvature="0" />
    <path
       style="fill:#cccccc"
       class="cls-5"
       d="m 35.58,10 v 8.39 h -1.64 v -5.46 l -2.36,3.89 h -0.2 L 29,12.94 v 5.43 H 27.37 V 10 h 1.7 l 2.41,4 2.4,-4 z"
       id="path86"
       inkscape:connector-curvature="0" />
    <path
       style="fill:#cccccc"
       class="cls-5"
       d="M 39.48,16.79 H 43 v 1.58 H 37.83 V 10 H 43 v 1.58 h -3.52 v 1.79 h 3.18 v 1.53 h -3.18 z"
       id="path88"
       inkscape:connector-curvature="0" />
    <path
       style="fill:#cccccc"
       class="cls-5"
       d="m 46.53,16.79 h 3.2 v 1.58 H 44.87 V 10 h 1.66 z"
       id="path90"
       inkscape:connector-curvature="0" />
    <path
       style="fill:#cccccc"
       class="cls-5"
       d="m 54.69,10 a 3.81,3.81 0 0 1 2.88,1.21 4.1,4.1 0 0 1 1.16,3 4.11,4.11 0 0 1 -1.16,3 3.84,3.84 0 0 1 -2.88,1.21 H 51.35 V 10 Z m 0,6.81 a 2.31,2.31 0 0 0 1.77,-0.72 2.66,2.66 0 0 0 0.69,-1.9 2.59,2.59 0 0 0 -0.69,-1.88 2.29,2.29 0 0 0 -1.77,-0.73 H 53 v 5.23 z"
       id="path92"
       inkscape:connector-curvature="0" />
  </g>
  <g
     id="EQ_bgs_copy"
     data-name="EQ bgs copy"
     transform="scale(1.3333333,1.3333406)">
    <rect
       style="fill:#121212"
       class="cls-6"
       x="53.049999"
       y="28.35"
       width="27.92"
       height="36.849998"
       rx="1.42"
       id="rect95" />
  </g>
  <g
     id="labels"
     transform="scale(1.3333333,1.3333406)">
    <path
       style="fill:#cccccc"
       class="cls-5"
       d="m 16.51,31.52 h 0.94 v 4.9 h -0.94 z"
       id="path98"
       inkscape:connector-curvature="0" />
    <path
       style="fill:#cccccc"
       class="cls-5"
       d="m 21.33,31.52 h 0.93 v 4.9 h -0.71 l -2,-3 v 3 h -0.94 v -4.9 h 0.71 l 2,3 z"
       id="path100"
       inkscape:connector-curvature="0" />
    <path
       style="fill:#cccccc"
       class="cls-5"
       d="M 62.64,36.52 A 2.35,2.35 0 0 1 60.9,35.78 2.5,2.5 0 0 1 60.19,34 a 2.47,2.47 0 0 1 0.71,-1.81 2.43,2.43 0 0 1 3.49,0 2.47,2.47 0 0 1 0.71,1.81 2.5,2.5 0 0 1 -0.71,1.81 2.37,2.37 0 0 1 -1.75,0.71 z m 0,-1 a 1.43,1.43 0 0 0 1.09,-0.45 1.58,1.58 0 0 0 0.44,-1.07 1.61,1.61 0 0 0 -0.44,-1.16 1.55,1.55 0 0 0 -2.18,0 1.61,1.61 0 0 0 -0.44,1.16 1.58,1.58 0 0 0 0.44,1.15 1.43,1.43 0 0 0 1.09,0.42 z"
       id="path102"
       inkscape:connector-curvature="0" />
    <path
       style="fill:#cccccc"
       class="cls-5"
       d="M 66.49,36.06 A 1.61,1.61 0 0 1 66,34.82 v -3.3 h 0.93 v 3.22 a 0.88,0.88 0 0 0 1.76,0 v -3.22 h 0.93 v 3.3 a 1.61,1.61 0 0 1 -0.51,1.24 2.07,2.07 0 0 1 -2.6,0 z"
       id="path104"
       inkscape:connector-curvature="0" />
    <path
       style="fill:#cccccc"
       class="cls-5"
       d="m 73.83,31.52 v 0.92 h -1.27 v 4 h -0.94 v -4 h -1.27 v -0.92 z"
       id="path106"
       inkscape:connector-curvature="0" />
    <path
       style="fill:#ffffff"
       class="cls-7"
       d="m 28.77,78.86 h 2.13 v 1 h -3.24 v -5.6 h 1.11 z"
       id="path108"
       inkscape:connector-curvature="0" />
    <path
       style="fill:#ffffff"
       class="cls-7"
       d="M 58.06,79.91 56.93,78 h -0.84 v 1.94 H 55 v -5.6 h 2.24 A 1.86,1.86 0 0 1 59.1,76.2 1.82,1.82 0 0 1 58,77.8 l 1.24,2.11 z m -2,-4.56 V 77 h 1.14 a 0.81,0.81 0 0 0 0.76,-0.83 0.79,0.79 0 0 0 -0.76,-0.82 z"
       id="path110"
       inkscape:connector-curvature="0" />
  </g>
  <path
     inkscape:connector-curvature="0"
     id="path113"
     d="m 15.773333,171.56094 v 0.44 a 2.9866666,2.9866829 0 0 1 -0.853333,2.21334 3.0666666,3.0666834 0 0 1 -2.24,0.84001 3.2266666,3.2266843 0 0 1 -2.413334,-0.97334 3.5333332,3.5333526 0 0 1 0,-4.81336 3.2666666,3.2666845 0 0 1 5.12,0.56 l -0.893333,0.53334 A 2.0666666,2.0666779 0 0 0 12.626666,169.33426 2.1333333,2.133345 0 0 0 11,170.00093 a 2.3333333,2.3333461 0 0 0 -0.64,1.68001 2.3066666,2.3066792 0 0 0 0.64,1.65334 2.2666666,2.266679 0 0 0 1.693333,0.66667 1.8933333,1.8933437 0 0 0 2.04,-1.49334 h -2.106667 v -0.96001 z"
     class="cls-5"
     style="fill:#cccccc;stroke-width:1.33333695" />
  <path
     inkscape:connector-curvature="0"
     id="path115"
     d="m 16.546666,174.93429 v -0.84001 l 2.2,-2.32001 a 2.2933333,2.2933458 0 0 0 0.8,-1.44001 0.91999998,0.92000501 0 0 0 -0.973333,-1 1.24,1.2400068 0 0 0 -1.173333,0.8 l -0.866667,-0.52 a 2.1466666,2.1466784 0 0 1 2.026667,-1.33334 1.9866666,1.9866775 0 0 1 1.426666,0.54667 1.8666666,1.8666768 0 0 1 0.6,1.46667 3.2399999,3.2400177 0 0 1 -1.08,2.13335 l -1.413333,1.48 h 2.666666 v 1.02668 z"
     class="cls-5"
     style="fill:#cccccc;stroke-width:1.33333695" />
  <path
     inkscape:connector-curvature="0"
     id="path117"
     d="m 15.733333,213.08116 v 0.45334 a 2.9466666,2.9466827 0 0 1 -3.093333,3.05335 3.2399999,3.2400177 0 0 1 -2.413334,-0.98667 3.5333332,3.5333526 0 0 1 0,-4.81336 3.2533333,3.2533511 0 0 1 5.106667,0.56 L 14.44,211.88115 a 2.0666666,2.0666779 0 0 0 -1.853334,-1.02667 2.1466666,2.1466784 0 0 0 -1.64,0.66667 2.4133333,2.4133465 0 0 0 -0.64,1.68001 2.3599999,2.3600129 0 0 0 0.64,1.66668 2.2933333,2.2933458 0 0 0 1.693334,0.66667 1.8933333,1.8933437 0 0 0 2.026666,-1.49334 h -2.093333 v -0.96001 z"
     class="cls-5"
     style="fill:#cccccc;stroke-width:1.33333695" />
  <path
     inkscape:connector-curvature="0"
     id="path119"
     d="m 19.226666,212.58783 a 1.9066666,1.9066771 0 0 1 1.546667,1.89334 2.0133333,2.0133443 0 0 1 -0.64,1.52001 2.2933333,2.2933458 0 0 1 -1.573333,0.56 2.1466666,2.1466784 0 0 1 -2.12,-1.33334 l 0.893333,-0.56 a 1.1866666,1.1866731 0 0 0 1.24,0.84 1.0533342,1.05334 0 1 0 0,-2.10668 h -0.24 l -0.413333,-0.64 1.333333,-1.85334 h -2.666667 v -1.01334 h 3.88 v 0.92 z"
     class="cls-5"
     style="fill:#cccccc;stroke-width:1.33333695" />
  <path
     inkscape:connector-curvature="0"
     id="path121"
     d="m 15.546666,253.93472 v 0.44 a 3.0399999,3.0400166 0 0 1 -0.853333,2.21335 3.0666666,3.0666834 0 0 1 -2.24,0.84 3.2266666,3.2266843 0 0 1 -2.413333,-0.97334 3.5333332,3.5333526 0 0 1 0,-4.81336 3.1333333,3.1333504 0 0 1 2.36,-0.97334 3.1066666,3.1066836 0 0 1 2.746666,1.54668 l -0.893333,0.53333 a 2.0533333,2.0533445 0 0 0 -1.853333,-1.04 2.1466666,2.1466784 0 0 0 -1.626667,0.68 2.5066666,2.5066803 0 0 0 0,3.34669 2.2666666,2.266679 0 0 0 1.693333,0.66667 1.9066666,1.9066771 0 0 0 2.04,-1.49334 h -2.12 v -0.96001 z"
     class="cls-5"
     style="fill:#cccccc;stroke-width:1.33333695" />
  <path
     inkscape:connector-curvature="0"
     id="path123"
     d="m 21.106666,255.13472 v 1.00001 h -0.72 v 1.20001 h -1.04 V 256.1614 H 16.24 v -1.00001 l 2.173333,-4.36002 h 1.133333 l -2.213333,4.33335 h 1.973333 v -1.69334 h 1.04 v 1.69334 z"
     class="cls-5"
     style="fill:#cccccc;stroke-width:1.33333695" />
  <path
     inkscape:connector-curvature="0"
     id="path125"
     d="m 15.133333,297.33495 -0.466667,-1.33334 H 12 l -0.44,1.33334 h -1.12 l 2.293333,-6.53337 h 1.24 l 2.28,6.53337 z m -2.786667,-2.32001 h 2 l -1.013333,-2.94668 z"
     class="cls-5"
     style="fill:#cccccc;stroke-width:1.33333695" />
  <path
     inkscape:connector-curvature="0"
     id="path127"
     d="m 18.066666,290.80158 h 0.906667 v 6.53337 h -1.04 v -5.33336 l -1.266667,0.37334 -0.253333,-0.90667 z"
     class="cls-5"
     style="fill:#cccccc;stroke-width:1.33333695" />
  <path
     inkscape:connector-curvature="0"
     id="path129"
     d="m 14.426666,338.34851 -0.44,-1.33334 H 11.32 l -0.44,1.33334 H 9.7333331 L 12,331.81514 h 1.333333 l 2.28,6.53337 z M 11.64,336.00183 h 2 l -1,-2.96001 z"
     class="cls-5"
     style="fill:#cccccc;stroke-width:1.33333695" />
  <path
     inkscape:connector-curvature="0"
     id="path131"
     d="m 15.866666,338.34851 v -0.84 l 2.2,-2.32002 a 2.3333333,2.3333461 0 0 0 0.8,-1.44 0.93333331,0.93333842 0 0 0 -0.973333,-1.01334 1.2266666,1.2266734 0 0 0 -1.173333,0.81333 l -0.866667,-0.53333 a 2.1599999,2.1600118 0 0 1 2.026667,-1.33334 2.0399999,2.0400111 0 0 1 1.426666,0.53333 1.9066666,1.9066771 0 0 1 0.6,1.48001 3.2399999,3.2400177 0 0 1 -1.08,2.13335 l -1.413333,1.50667 h 2.666666 v 1.04001 z"
     class="cls-5"
     style="fill:#cccccc;stroke-width:1.33333695" />
  <path
     inkscape:connector-curvature="0"
     id="path133"
     d="m 14.373333,379.36207 -0.44,-1.33334 h -2.666667 l -0.44,1.33334 H 9.6799998 L 12,372.81537 h 1.24 l 2.28,6.5467 z M 11.6,377.02872 h 2 l -1,-2.94668 z"
     class="cls-5"
     style="fill:#cccccc;stroke-width:1.33333695" />
  <path
     inkscape:connector-curvature="0"
     id="path135"
     d="m 18.546666,375.49538 a 1.9066666,1.9066771 0 0 1 1.546667,1.84001 2,2.0000109 0 0 1 -0.64,1.54667 2.2933333,2.2933458 0 0 1 -1.573333,0.56001 2.1466666,2.1466784 0 0 1 -2.12,-1.33334 l 0.88,-0.53334 a 1.1866666,1.1866731 0 0 0 1.24,0.84001 1.0533333,1.0533391 0 1 0 0,-2.09335 H 17.64 L 17.226666,375.66871 18.56,373.81537 H 16 v -1.01334 h 3.88 v 0.92001 z"
     class="cls-5"
     style="fill:#cccccc;stroke-width:1.33333695" />
  <path
     inkscape:connector-curvature="0"
     id="path137"
     d="m 14.2,420.36229 -0.44,-1.33334 h -2.666667 l -0.44,1.33334 H 9.5066664 l 2.2799996,-6.53337 H 13.04 l 2.28,6.53337 z m -2.786667,-2.32001 h 2 l -1,-2.94668 z"
     class="cls-5"
     style="fill:#cccccc;stroke-width:1.33333695" />
  <path
     inkscape:connector-curvature="0"
     id="path139"
     d="m 20.426666,418.18895 v 1 h -0.72 v 1.17334 h -1.04 v -1.17334 H 15.56 v -1 l 2.173333,-4.36003 h 1.133333 l -2.173333,4.36003 h 1.973333 v -1.69335 h 1.04 v 1.69335 z"
     class="cls-5"
     style="fill:#cccccc;stroke-width:1.33333695" />
  <path
     inkscape:connector-curvature="0"
     id="path141"
     d="m 16.48,130.46738 v 0.44 a 2.9999999,3.0000164 0 0 1 -0.853334,2.21335 3.0666666,3.0666834 0 0 1 -2.24,0.84 3.2266666,3.2266843 0 0 1 -2.413333,-0.97334 3.5333332,3.5333526 0 0 1 0,-4.81336 3.2666666,3.2666845 0 0 1 5.12,0.56 L 15.2,129.26737 a 2.0799999,2.0800113 0 0 0 -1.866667,-1.04 2.1466666,2.1466784 0 0 0 -1.626667,0.68 2.5066666,2.5066803 0 0 0 0,3.34668 2.2666666,2.266679 0 0 0 1.693334,0.66667 1.8933333,1.8933437 0 0 0 2.04,-1.49334 h -2.106667 v -0.96 z"
     class="cls-5"
     style="fill:#cccccc;stroke-width:1.33333695" />
  <path
     inkscape:connector-curvature="0"
     id="path143"
     d="m 18.746666,127.30736 h 0.906667 v 6.53337 h -0.986667 v -5.33336 l -1.333333,0.37333 -0.253333,-0.92 z"
     class="cls-5"
     style="fill:#cccccc;stroke-width:1.33333695" />
  <g
     id="jack_join_lines"
     data-name="jack join lines"
     transform="scale(1.3333333,1.3333406)">
    <rect
       style="fill:#828282"
       class="cls-8"
       x="32.490002"
       y="97.300003"
       width="22.68"
       height="1"
       id="rect178" />
    <rect
       style="fill:#828282"
       class="cls-8"
       x="32.490002"
       y="128.05"
       width="22.68"
       height="1"
       id="rect180" />
    <rect
       style="fill:#828282"
       class="cls-8"
       x="32.490002"
       y="158.81"
       width="22.68"
       height="1"
       id="rect182" />
    <rect
       style="fill:#828282"
       class="cls-8"
       x="32.490002"
       y="189.56"
       width="22.68"
       height="1"
       id="rect184" />
    <rect
       style="fill:#828282"
       class="cls-8"
       x="32.490002"
       y="220.32001"
       width="22.68"
       height="1"
       id="rect186" />
    <rect
       style="fill:#828282"
       class="cls-8"
       x="32.490002"
       y="251.07001"
       width="22.68"
       height="1"
       id="rect188" />
    <rect
       style="fill:#828282"
       class="cls-8"
       x="32.490002"
       y="281.82999"
       width="22.68"
       height="1"
       id="rect190" />
    <rect
       style="fill:#828282"
       class="cls-8"
       x="32.490002"
       y="312.59"
       width="22.68"
       height="1"
       id="rect192" />
  </g>
  <g
     id="Poly_Jacks"
     data-name="Poly Jacks"
     transform="scale(1.3333333,1.3333406)">
    <circle
       class="cls-28"
       cx="67.010002"
       cy="52.02"
       r="11.2"
       id="circle548"
       style="fill:url(#linear-gradient-18)" />
    <path
       style="fill:#828282"
       class="cls-8"
       d="M 67,41 A 11.06,11.06 0 1 1 56,52 v 0 A 11.06,11.06 0 0 1 67,41 m 0,-0.28 A 11.34,11.34 0 1 0 78.35,52 v 0 A 11.34,11.34 0 0 0 67,40.68 Z"
       id="path550"
       inkscape:connector-curvature="0" />
    <circle
       style="fill:#1e1e1e"
       class="cls-10"
       cx="67.010002"
       cy="52.02"
       r="8.3599997"
       id="circle552" />
    <path
       style="fill:#878787"
       class="cls-11"
       d="M 67,43.8 A 8.22,8.22 0 1 1 58.81,52 v 0 A 8.22,8.22 0 0 1 67,43.8 m 0,-0.29 A 8.51,8.51 0 1 0 75.53,52 v 0 A 8.5,8.5 0 0 0 67,43.51 Z"
       id="path554"
       inkscape:connector-curvature="0" />
    <circle
       class="cls-29"
       cx="67.010002"
       cy="52.02"
       r="7.3000002"
       id="circle556"
       style="fill:url(#linearGradient598)" />
    <circle
       cx="67.010002"
       cy="52.02"
       r="5.0999999"
       id="circle558" />
    <rect
       style="fill:#828282"
       class="cls-8"
       x="76.860001"
       y="51.470001"
       width="0.69999999"
       height="1.2"
       id="rect560" />
    <polygon
       style="fill:#828282"
       class="cls-8"
       points="78.09,53.2 78.09,50.93 76.33,50.93 76.33,53.2 "
       id="polygon562" />
    <rect
       style="fill:#828282"
       class="cls-8"
       x="56.48"
       y="51.470001"
       width="0.69999999"
       height="1.2"
       id="rect564" />
    <polygon
       style="fill:#828282"
       class="cls-8"
       points="57.71,53.2 57.71,50.93 55.95,50.93 55.95,53.2 "
       id="polygon566" />
    <circle
       class="cls-30"
       cx="19.389999"
       cy="52.02"
       r="11.2"
       id="circle568"
       style="fill:url(#linear-gradient-20)" />
    <path
       style="fill:#828282"
       class="cls-8"
       d="M 19.39,41 A 11.06,11.06 0 1 1 8.33,52 v 0 A 11.06,11.06 0 0 1 19.39,41 m 0,-0.28 A 11.34,11.34 0 1 0 30.73,52 v 0 A 11.34,11.34 0 0 0 19.39,40.68 Z"
       id="path570"
       inkscape:connector-curvature="0" />
    <circle
       style="fill:#1e1e1e"
       class="cls-10"
       cx="19.389999"
       cy="52.02"
       r="8.3599997"
       id="circle572" />
    <path
       style="fill:#878787"
       class="cls-11"
       d="m 19.39,43.8 a 8.22,8.22 0 1 1 -8.2,8.2 v 0 a 8.22,8.22 0 0 1 8.22,-8.22 m 0,-0.29 a 8.51,8.51 0 1 0 8.5,8.51 v 0 a 8.5,8.5 0 0 0 -8.49,-8.51 z"
       id="path574"
       inkscape:connector-curvature="0" />
    <circle
       class="cls-31"
       cx="19.389999"
       cy="52.02"
       r="7.3000002"
       id="circle576"
       style="fill:url(#linear-gradient-21)" />
    <circle
       cx="19.389999"
       cy="52.02"
       r="5.0999999"
       id="circle578" />
    <rect
       style="fill:#828282"
       class="cls-8"
       x="29.24"
       y="51.470001"
       width="0.69999999"
       height="1.2"
       id="rect580" />
    <polygon
       style="fill:#828282"
       class="cls-8"
       points="30.47,53.2 30.47,50.93 28.71,50.93 28.71,53.2 "
       id="polygon582" />
    <rect
       style="fill:#828282"
       class="cls-8"
       x="8.8599997"
       y="51.470001"
       width="0.69999999"
       height="1.2"
       id="rect584" />
    <polygon
       style="fill:#828282"
       class="cls-8"
       points="10.09,53.2 10.09,50.93 8.33,50.93 8.33,53.2 "
       id="polygon586" />
  </g>
</svg>
