<?xml version="1.0" encoding="UTF-8" standalone="no"?>
<svg
   xmlns:dc="http://purl.org/dc/elements/1.1/"
   xmlns:cc="http://creativecommons.org/ns#"
   xmlns:rdf="http://www.w3.org/1999/02/22-rdf-syntax-ns#"
   xmlns:svg="http://www.w3.org/2000/svg"
   xmlns="http://www.w3.org/2000/svg"
   xmlns:xlink="http://www.w3.org/1999/xlink"
   xmlns:sodipodi="http://sodipodi.sourceforge.net/DTD/sodipodi-0.dtd"
   xmlns:inkscape="http://www.inkscape.org/namespaces/inkscape"
   inkscape:version="0.92.4 (5da689c313, 2019-01-14)"
   height="128.5mm"
   width="30.48mm"
   sodipodi:docname="meld-9-16.svg"
   id="svg586"
   version="1.1"
   viewBox="0 0 115.2 485.66928">
  <metadata
     id="metadata590">
    <rdf:RDF>
      <cc:Work
         rdf:about="">
        <dc:format>image/svg+xml</dc:format>
        <dc:type
           rdf:resource="http://purl.org/dc/dcmitype/StillImage" />
        <dc:title>Asset 7</dc:title>
      </cc:Work>
    </rdf:RDF>
  </metadata>
  <sodipodi:namedview
     inkscape:current-layer="svg586"
     inkscape:window-maximized="1"
     inkscape:window-y="-8"
     inkscape:window-x="-8"
     inkscape:cy="205.00582"
     inkscape:cx="-311.85747"
     inkscape:zoom="1.6616245"
     units="mm"
     inkscape:document-units="mm"
     showgrid="false"
     id="namedview588"
     inkscape:window-height="1017"
     inkscape:window-width="1920"
     inkscape:pageshadow="2"
     inkscape:pageopacity="0"
     guidetolerance="10"
     gridtolerance="10"
     objecttolerance="10"
     borderopacity="1"
     inkscape:document-rotation="0"
     bordercolor="#666666"
     pagecolor="#ffffff" />
  <defs
     id="defs45">
    <style
       id="style10">.cls-1{fill:#353535;}.cls-2{fill:url(#linear-gradient);}.cls-3{fill:gray;}.cls-4{fill:#b3b3b3;}.cls-5{fill:#ccc;}.cls-6{fill:#121212;}.cls-7{fill:#fff;}.cls-8{fill:#828282;}.cls-9{fill:url(#linear-gradient-2);}.cls-10{fill:#1e1e1e;}.cls-11{fill:#878787;}.cls-12{fill:#646464;}.cls-13{fill:url(#linear-gradient-3);}.cls-14{fill:url(#linear-gradient-4);}.cls-15{fill:url(#linear-gradient-5);}.cls-16{fill:url(#linear-gradient-6);}.cls-17{fill:url(#linear-gradient-7);}.cls-18{fill:url(#linear-gradient-8);}.cls-19{fill:url(#linear-gradient-9);}.cls-20{fill:url(#linear-gradient-10);}.cls-21{fill:url(#linear-gradient-11);}.cls-22{fill:url(#linear-gradient-12);}.cls-23{fill:url(#linear-gradient-13);}.cls-24{fill:url(#linear-gradient-14);}.cls-25{fill:url(#linear-gradient-15);}.cls-26{fill:url(#linear-gradient-16);}.cls-27{fill:url(#linear-gradient-17);}.cls-28{fill:url(#linear-gradient-18);}.cls-29{fill:url(#linear-gradient-19);}.cls-30{fill:url(#linear-gradient-20);}.cls-31{fill:url(#linear-gradient-21);}</style>
    <linearGradient
       gradientUnits="userSpaceOnUse"
       y2="349.56"
       x2="40.939999"
       y1="349.56"
       x1="21.09"
       id="linear-gradient">
      <stop
         id="stop12"
         stop-color="#3fa9f5"
         offset="0" />
      <stop
         id="stop14"
         stop-color="#ed1e79"
         offset="1" />
    </linearGradient>
    <linearGradient
       gradientUnits="userSpaceOnUse"
       y2="324.28"
       x2="57.119999"
       y1="301.89001"
       x1="57.119999"
       id="linear-gradient-2">
      <stop
         id="stop17"
         stop-color="#c8c8c8"
         offset="0" />
      <stop
         id="stop19"
         stop-color="#969696"
         offset="1" />
    </linearGradient>
    <linearGradient
       xlink:href="#linear-gradient-2"
       y2="293.53"
       x2="57.119999"
       y1="271.13"
       x1="57.119999"
       id="linear-gradient-3"
       gradientTransform="scale(1.3333333,1.3333406)" />
    <linearGradient
       xlink:href="#linear-gradient-2"
       y2="262.76999"
       x2="57.119999"
       y1="240.38"
       x1="57.119999"
       id="linear-gradient-4"
       gradientTransform="scale(1.3333333,1.3333406)" />
    <linearGradient
       xlink:href="#linear-gradient-2"
       y2="232.02"
       x2="57.119999"
       y1="209.62"
       x1="57.119999"
       id="linear-gradient-5"
       gradientTransform="scale(1.3333333,1.3333406)" />
    <linearGradient
       xlink:href="#linear-gradient-2"
       y2="201.25999"
       x2="57.119999"
       y1="178.87"
       x1="57.119999"
       id="linear-gradient-6"
       gradientTransform="scale(1.3333333,1.3333406)" />
    <linearGradient
       xlink:href="#linear-gradient-2"
       y2="170.5"
       x2="57.119999"
       y1="148.11"
       x1="57.119999"
       id="linear-gradient-7"
       gradientTransform="scale(1.3333333,1.3333406)" />
    <linearGradient
       xlink:href="#linear-gradient-2"
       y2="139.75"
       x2="57.119999"
       y1="117.35"
       x1="57.119999"
       id="linear-gradient-8"
       gradientTransform="scale(1.3333333,1.3333406)" />
    <linearGradient
       xlink:href="#linear-gradient-2"
       y2="108.99"
       x2="57.119999"
       y1="86.599998"
       x1="57.119999"
       id="linear-gradient-9"
       gradientTransform="scale(1.3333333,1.3333406)" />
    <linearGradient
       xlink:href="#linear-gradient-2"
       y2="324.28"
       x2="29.280001"
       y1="301.89001"
       x1="29.280001"
       id="linear-gradient-10"
       gradientTransform="scale(1.3333333,1.3333406)" />
    <linearGradient
       xlink:href="#linear-gradient-2"
       y2="293.53"
       x2="29.280001"
       y1="271.13"
       x1="29.280001"
       id="linear-gradient-11"
       gradientTransform="scale(1.3333333,1.3333406)" />
    <linearGradient
       xlink:href="#linear-gradient-2"
       y2="262.76999"
       x2="29.280001"
       y1="240.38"
       x1="29.280001"
       id="linear-gradient-12"
       gradientTransform="scale(1.3333333,1.3333406)" />
    <linearGradient
       xlink:href="#linear-gradient-2"
       y2="232.02"
       x2="29.280001"
       y1="209.62"
       x1="29.280001"
       id="linear-gradient-13"
       gradientTransform="scale(1.3333333,1.3333406)" />
    <linearGradient
       xlink:href="#linear-gradient-2"
       y2="201.25999"
       x2="29.280001"
       y1="178.87"
       x1="29.280001"
       id="linear-gradient-14"
       gradientTransform="scale(1.3333333,1.3333406)" />
    <linearGradient
       xlink:href="#linear-gradient-2"
       y2="170.5"
       x2="29.280001"
       y1="148.11"
       x1="29.280001"
       id="linear-gradient-15"
       gradientTransform="scale(1.3333333,1.3333406)" />
    <linearGradient
       xlink:href="#linear-gradient-2"
       y2="139.75"
       x2="29.280001"
       y1="117.35"
       x1="29.280001"
       id="linear-gradient-16"
       gradientTransform="scale(1.3333333,1.3333406)" />
    <linearGradient
       xlink:href="#linear-gradient-2"
       y2="108.99"
       x2="29.280001"
       y1="86.599998"
       x1="29.280001"
       id="linear-gradient-17"
       gradientTransform="scale(1.3333333,1.3333406)" />
    <linearGradient
       xlink:href="#linear-gradient-2"
       gradientTransform="matrix(1,0,0,-1,0,365.75)"
       y2="302.53"
       x2="67.010002"
       y1="324.92999"
       x1="67.010002"
       id="linear-gradient-18" />
    <linearGradient
       gradientUnits="userSpaceOnUse"
       gradientTransform="matrix(1,0,0,-1,0,365.75)"
       y2="306.42999"
       x2="67.010002"
       y1="321.03"
       x1="67.010002"
       id="linear-gradient-19">
      <stop
         id="stop38"
         stop-color="#af9420"
         offset="0" />
      <stop
         id="stop40"
         stop-color="#99841c"
         offset="1" />
    </linearGradient>
    <linearGradient
       xlink:href="#linear-gradient-2"
       gradientTransform="matrix(1,0,0,-1,0,365.75)"
       y2="302.53"
       x2="19.389999"
       y1="324.92999"
       x1="19.389999"
       id="linear-gradient-20" />
    <linearGradient
       xlink:href="#linear-gradient-19"
       y2="306.42999"
       x2="19.389999"
       y1="321.03"
       x1="19.389999"
       id="linear-gradient-21" />
  </defs>
  <title
     id="title47">Asset 7</title>
  <g
     id="Layer_2-2"
     data-name="Layer 2"
     transform="scale(1.3333333,1.3333406)">
    <g
       id="background">
      <path
         style="fill:#353535"
         id="rect4155"
         class="cls-1"
         d="M 0,0 H 86.4 V 364.25 H 0 Z"
         inkscape:connector-curvature="0" />
    </g>
  </g>
  <g
     id="branding"
     transform="scale(1.3333333,1.3333406)">
    <path
       class="cls-2"
       d="m 21.6,355.74 a 0.47,0.47 0 0 1 -0.25,-0.07 0.51,0.51 0 0 1 -0.2,-0.7 l 6.27,-11.32 a 0.52,0.52 0 0 1 1,0.25 v 9.33 l 5.31,-9.58 a 0.51,0.51 0 0 1 0.58,-0.25 0.52,0.52 0 0 1 0.38,0.5 v 9.33 L 40,343.65 a 0.51,0.51 0 0 1 0.58,-0.25 0.51,0.51 0 0 1 0.39,0.5 v 11.32 a 0.52,0.52 0 0 1 -0.52,0.52 0.51,0.51 0 0 1 -0.51,-0.52 v -9.33 l -5.31,9.58 a 0.52,0.52 0 0 1 -1,-0.25 v -9.33 l -5.31,9.58 a 0.51,0.51 0 0 1 -0.58,0.25 0.52,0.52 0 0 1 -0.38,-0.5 v -9.33 l -5.31,9.58 a 0.51,0.51 0 0 1 -0.45,0.27 z"
       id="path52"
       inkscape:connector-curvature="0"
       style="fill:url(#linear-gradient)" />
    <path
       style="fill:#808080"
       class="cls-3"
       d="m 43.43,343.9 a 0.5,0.5 0 0 1 0.5,-0.5 H 44 a 0.54,0.54 0 0 1 0.47,0.26 l 1.71,2.68 1.72,-2.69 a 0.51,0.51 0 0 1 0.46,-0.25 h 0.1 a 0.5,0.5 0 0 1 0.51,0.5 v 4.72 a 0.49,0.49 0 0 1 -0.51,0.49 0.5,0.5 0 0 1 -0.49,-0.49 v -3.39 l -1.38,2.08 a 0.47,0.47 0 0 1 -0.84,0 l -1.37,-2.06 v 3.38 a 0.48,0.48 0 0 1 -0.5,0.48 0.47,0.47 0 0 1 -0.48,-0.48 z"
       id="path54"
       inkscape:connector-curvature="0" />
    <path
       style="fill:#b3b3b3"
       class="cls-4"
       d="m 48.49,343.4 h -0.1 a 0.51,0.51 0 0 0 -0.46,0.25 l -1.72,2.69 -1.71,-2.68 a 0.54,0.54 0 0 0 -0.47,-0.26 h -0.1 a 0.5,0.5 0 0 0 -0.5,0.5 v 4.73 a 0.47,0.47 0 0 0 0.48,0.48 0.48,0.48 0 0 0 0.5,-0.48 v -3.38 l 1.37,2.06 a 0.47,0.47 0 0 0 0.84,0 L 48,345.23 v 3.39 a 0.5,0.5 0 0 0 0.49,0.49 0.49,0.49 0 0 0 0.51,-0.49 v -4.72 a 0.5,0.5 0 0 0 -0.51,-0.5 z"
       id="path56"
       inkscape:connector-curvature="0" />
    <path
       style="fill:#808080"
       class="cls-3"
       d="m 50.11,343.88 a 0.5,0.5 0 0 1 1,0 v 4.74 a 0.5,0.5 0 0 1 -1,0 z"
       id="path58"
       inkscape:connector-curvature="0" />
    <path
       style="fill:#b3b3b3"
       class="cls-4"
       d="m 50.61,343.39 a 0.49,0.49 0 0 0 -0.5,0.49 v 4.74 a 0.5,0.5 0 0 0 1,0 v -4.74 a 0.49,0.49 0 0 0 -0.49,-0.49 z"
       id="path60"
       inkscape:connector-curvature="0" />
    <path
       style="fill:#808080"
       class="cls-3"
       d="m 52.21,343.9 a 0.5,0.5 0 0 1 0.5,-0.5 h 0.11 a 0.64,0.64 0 0 1 0.52,0.29 l 2.83,3.65 v -3.47 a 0.5,0.5 0 0 1 1,0 v 4.74 a 0.49,0.49 0 0 1 -0.49,0.5 v 0 a 0.66,0.66 0 0 1 -0.52,-0.3 l -2.91,-3.76 v 3.58 a 0.5,0.5 0 0 1 -1,0 z"
       id="path62"
       inkscape:connector-curvature="0" />
    <path
       style="fill:#b3b3b3"
       class="cls-4"
       d="m 56.65,343.39 a 0.49,0.49 0 0 0 -0.48,0.48 v 3.47 l -2.83,-3.65 a 0.64,0.64 0 0 0 -0.52,-0.29 h -0.11 a 0.5,0.5 0 0 0 -0.5,0.5 v 4.73 a 0.5,0.5 0 0 0 1,0 v -3.58 l 2.91,3.76 a 0.66,0.66 0 0 0 0.52,0.3 v 0 a 0.49,0.49 0 0 0 0.49,-0.5 v -4.74 a 0.49,0.49 0 0 0 -0.5,-0.48 z"
       id="path64"
       inkscape:connector-curvature="0" />
    <path
       style="fill:#808080"
       class="cls-3"
       d="m 58.2,343.93 a 0.5,0.5 0 0 1 0.51,-0.5 h 1.61 a 2.82,2.82 0 0 1 3,2.8 v 0 a 2.83,2.83 0 0 1 -3,2.82 h -1.61 a 0.49,0.49 0 0 1 -0.51,-0.5 z m 2.12,4.24 a 1.84,1.84 0 0 0 2,-1.9 v 0 a 1.85,1.85 0 0 0 -2,-1.92 H 59.2 v 3.84 z"
       id="path66"
       inkscape:connector-curvature="0" />
    <path
       style="fill:#b3b3b3"
       class="cls-4"
       d="m 60.32,343.43 h -1.61 a 0.5,0.5 0 0 0 -0.51,0.5 v 4.64 a 0.49,0.49 0 0 0 0.51,0.5 h 1.61 a 2.83,2.83 0 0 0 3,-2.82 v 0 a 2.82,2.82 0 0 0 -3,-2.8 z m -1.12,4.74 v -3.84 h 1.12 a 1.85,1.85 0 0 1 2,1.92 v 0 a 1.84,1.84 0 0 1 -2,1.9 z"
       id="path68"
       inkscape:connector-curvature="0" />
    <path
       style="fill:#808080"
       class="cls-3"
       d="m 43.43,350.51 a 0.5,0.5 0 0 1 0.5,-0.5 H 44 a 0.54,0.54 0 0 1 0.47,0.26 l 1.74,2.73 1.72,-2.68 a 0.52,0.52 0 0 1 0.46,-0.26 h 0.1 a 0.5,0.5 0 0 1 0.51,0.5 v 4.72 a 0.5,0.5 0 0 1 -0.51,0.5 0.51,0.51 0 0 1 -0.49,-0.5 v -3.38 l -1.38,2.07 a 0.47,0.47 0 0 1 -0.84,0 l -1.37,-2.06 v 3.38 a 0.49,0.49 0 0 1 -0.5,0.49 0.48,0.48 0 0 1 -0.48,-0.49 z"
       id="path70"
       inkscape:connector-curvature="0" />
    <path
       style="fill:#b3b3b3"
       class="cls-4"
       d="m 48.49,350 h -0.1 a 0.52,0.52 0 0 0 -0.46,0.26 L 46.21,353 44.5,350.32 A 0.54,0.54 0 0 0 44,350 h -0.1 a 0.5,0.5 0 0 0 -0.5,0.5 v 4.73 a 0.48,0.48 0 0 0 0.48,0.49 0.49,0.49 0 0 0 0.5,-0.49 v -3.38 l 1.37,2.06 a 0.47,0.47 0 0 0 0.84,0 L 48,351.85 v 3.38 a 0.51,0.51 0 0 0 0.49,0.5 0.5,0.5 0 0 0 0.51,-0.5 v -4.72 a 0.5,0.5 0 0 0 -0.51,-0.5 z"
       id="path72"
       inkscape:connector-curvature="0" />
    <path
       style="fill:#808080"
       class="cls-3"
       d="m 50.05,355.19 v -4.65 a 0.5,0.5 0 0 1 0.5,-0.5 h 3.3 a 0.45,0.45 0 0 1 0,0.89 h -2.8 v 1.46 h 2.43 a 0.46,0.46 0 0 1 0.45,0.46 0.44,0.44 0 0 1 -0.45,0.43 h -2.43 v 1.52 h 2.84 a 0.45,0.45 0 0 1 0,0.89 h -3.34 a 0.5,0.5 0 0 1 -0.5,-0.5 z"
       id="path74"
       inkscape:connector-curvature="0" />
    <path
       style="fill:#b3b3b3"
       class="cls-4"
       d="m 53.85,350 h -3.3 a 0.5,0.5 0 0 0 -0.5,0.5 v 4.65 a 0.5,0.5 0 0 0 0.5,0.5 h 3.34 a 0.45,0.45 0 0 0 0,-0.89 h -2.84 v -1.52 h 2.43 a 0.44,0.44 0 0 0 0.45,-0.43 0.46,0.46 0 0 0 -0.45,-0.46 h -2.43 v -1.46 h 2.8 a 0.45,0.45 0 0 0 0,-0.89 z"
       id="path76"
       inkscape:connector-curvature="0" />
    <path
       style="fill:#808080"
       class="cls-3"
       d="m 55.07,350.49 a 0.5,0.5 0 0 1 1,0 v 4.29 h 2.56 a 0.45,0.45 0 0 1 0.45,0.45 0.46,0.46 0 0 1 -0.45,0.46 h -3.06 a 0.5,0.5 0 0 1 -0.5,-0.5 z"
       id="path78"
       inkscape:connector-curvature="0" />
    <path
       style="fill:#b3b3b3"
       class="cls-4"
       d="m 55.57,350 a 0.49,0.49 0 0 0 -0.5,0.49 v 4.7 a 0.5,0.5 0 0 0 0.5,0.5 h 3.06 a 0.46,0.46 0 0 0 0.45,-0.46 0.45,0.45 0 0 0 -0.45,-0.45 h -2.56 v -4.29 A 0.49,0.49 0 0 0 55.57,350 Z"
       id="path80"
       inkscape:connector-curvature="0" />
    <path
       style="fill:#808080"
       class="cls-3"
       d="m 59.68,350.54 a 0.5,0.5 0 0 1 0.5,-0.5 h 1.61 a 2.82,2.82 0 0 1 3,2.81 v 0 a 2.84,2.84 0 0 1 -3,2.83 h -1.61 a 0.5,0.5 0 0 1 -0.5,-0.5 z m 2.11,4.24 a 1.85,1.85 0 0 0 2,-1.9 v 0 a 1.86,1.86 0 0 0 -2,-1.92 h -1.12 v 3.84 z"
       id="path82"
       inkscape:connector-curvature="0" />
    <path
       style="fill:#b3b3b3"
       class="cls-4"
       d="m 61.79,350 h -1.61 a 0.5,0.5 0 0 0 -0.5,0.5 v 4.65 a 0.5,0.5 0 0 0 0.5,0.5 h 1.61 a 2.84,2.84 0 0 0 3,-2.83 v 0 a 2.82,2.82 0 0 0 -3,-2.81 z m -1.12,4.74 v -3.84 h 1.12 a 1.86,1.86 0 0 1 2,1.92 v 0 a 1.85,1.85 0 0 1 -2,1.9 z"
       id="path84"
       inkscape:connector-curvature="0" />
    <path
       style="fill:#cccccc"
       class="cls-5"
       d="m 35.58,10 v 8.39 h -1.64 v -5.46 l -2.36,3.89 h -0.2 L 29,12.94 v 5.43 H 27.37 V 10 h 1.7 l 2.41,4 2.4,-4 z"
       id="path86"
       inkscape:connector-curvature="0" />
    <path
       style="fill:#cccccc"
       class="cls-5"
       d="M 39.48,16.79 H 43 v 1.58 H 37.83 V 10 H 43 v 1.58 h -3.52 v 1.79 h 3.18 v 1.53 h -3.18 z"
       id="path88"
       inkscape:connector-curvature="0" />
    <path
       style="fill:#cccccc"
       class="cls-5"
       d="m 46.53,16.79 h 3.2 v 1.58 H 44.87 V 10 h 1.66 z"
       id="path90"
       inkscape:connector-curvature="0" />
    <path
       style="fill:#cccccc"
       class="cls-5"
       d="m 54.69,10 a 3.81,3.81 0 0 1 2.88,1.21 4.1,4.1 0 0 1 1.16,3 4.11,4.11 0 0 1 -1.16,3 3.84,3.84 0 0 1 -2.88,1.21 H 51.35 V 10 Z m 0,6.81 a 2.31,2.31 0 0 0 1.77,-0.72 2.66,2.66 0 0 0 0.69,-1.9 2.59,2.59 0 0 0 -0.69,-1.88 2.29,2.29 0 0 0 -1.77,-0.73 H 53 v 5.23 z"
       id="path92"
       inkscape:connector-curvature="0" />
  </g>
  <g
     id="EQ_bgs_copy"
     data-name="EQ bgs copy"
     transform="scale(1.3333333,1.3333406)">
    <rect
       style="fill:#121212"
       class="cls-6"
       x="53.049999"
       y="28.35"
       width="27.92"
       height="36.849998"
       rx="1.42"
       id="rect95" />
  </g>
  <g
     id="labels"
     transform="scale(1.3333333,1.3333406)">
    <path
       style="fill:#cccccc"
       class="cls-5"
       d="m 16.51,31.52 h 0.94 v 4.9 h -0.94 z"
       id="path98"
       inkscape:connector-curvature="0" />
    <path
       style="fill:#cccccc"
       class="cls-5"
       d="m 21.33,31.52 h 0.93 v 4.9 h -0.71 l -2,-3 v 3 h -0.94 v -4.9 h 0.71 l 2,3 z"
       id="path100"
       inkscape:connector-curvature="0" />
    <path
       style="fill:#cccccc"
       class="cls-5"
       d="M 62.64,36.52 A 2.35,2.35 0 0 1 60.9,35.78 2.5,2.5 0 0 1 60.19,34 a 2.47,2.47 0 0 1 0.71,-1.81 2.43,2.43 0 0 1 3.49,0 2.47,2.47 0 0 1 0.71,1.81 2.5,2.5 0 0 1 -0.71,1.81 2.37,2.37 0 0 1 -1.75,0.71 z m 0,-1 a 1.43,1.43 0 0 0 1.09,-0.45 1.58,1.58 0 0 0 0.44,-1.07 1.61,1.61 0 0 0 -0.44,-1.16 1.55,1.55 0 0 0 -2.18,0 1.61,1.61 0 0 0 -0.44,1.16 1.58,1.58 0 0 0 0.44,1.15 1.43,1.43 0 0 0 1.09,0.42 z"
       id="path102"
       inkscape:connector-curvature="0" />
    <path
       style="fill:#cccccc"
       class="cls-5"
       d="M 66.49,36.06 A 1.61,1.61 0 0 1 66,34.82 v -3.3 h 0.93 v 3.22 a 0.88,0.88 0 0 0 1.76,0 v -3.22 h 0.93 v 3.3 a 1.61,1.61 0 0 1 -0.51,1.24 2.07,2.07 0 0 1 -2.6,0 z"
       id="path104"
       inkscape:connector-curvature="0" />
    <path
       style="fill:#cccccc"
       class="cls-5"
       d="m 73.83,31.52 v 0.92 h -1.27 v 4 h -0.94 v -4 h -1.27 v -0.92 z"
       id="path106"
       inkscape:connector-curvature="0" />
    <path
       style="fill:#ffffff"
       class="cls-7"
       d="m 28.77,78.86 h 2.13 v 1 h -3.24 v -5.6 h 1.11 z"
       id="path108"
       inkscape:connector-curvature="0" />
    <path
       style="fill:#ffffff"
       class="cls-7"
       d="M 58.06,79.91 56.93,78 h -0.84 v 1.94 H 55 v -5.6 h 2.24 A 1.86,1.86 0 0 1 59.1,76.2 1.82,1.82 0 0 1 58,77.8 l 1.24,2.11 z m -2,-4.56 V 77 h 1.14 a 0.81,0.81 0 0 0 0.76,-0.83 0.79,0.79 0 0 0 -0.76,-0.82 z"
       id="path110"
       inkscape:connector-curvature="0" />
  </g>
  <path
     inkscape:connector-curvature="0"
     id="path113"
     d="m 12.28,168.40092 h 0.906666 v 6.53337 h -1.04 v -5.33337 L 10.88,169.97426 10.666666,169.01425 Z"
     class="cls-5"
     style="fill:#cccccc;stroke-width:1.33333695" />
  <path
     inkscape:connector-curvature="0"
     id="path115"
     d="m 16.693333,175.05429 a 2.1333333,2.133345 0 0 1 -1.826667,-0.92001 4.9866665,4.9866938 0 0 1 0,-4.93336 2.2799999,2.2800124 0 0 1 3.653334,0 4.9866665,4.9866938 0 0 1 0,4.93336 2.1066666,2.1066781 0 0 1 -1.826667,0.92001 z m 1.44,-3.38669 c 0,-1.50667 -0.493333,-2.33334 -1.44,-2.33334 -0.946667,0 -1.44,0.82667 -1.44,2.33334 0,1.50668 0.52,2.34668 1.44,2.34668 0.92,0 1.44,-0.84 1.44,-2.34668 z"
     class="cls-5"
     style="fill:#cccccc;stroke-width:1.33333695" />
  <path
     inkscape:connector-curvature="0"
     id="path117"
     d="m 13.44,209.92114 h 0.906666 v 6.53337 h -1.013333 v -5.33336 L 12,211.49449 11.746666,210.58781 Z"
     class="cls-5"
     style="fill:#cccccc;stroke-width:1.33333695" />
  <path
     inkscape:connector-curvature="0"
     id="path119"
     d="m 16.8,209.92114 h 0.893333 v 6.53337 h -1.026667 v -5.33336 L 15.333333,211.49449 15.08,210.58781 Z"
     class="cls-5"
     style="fill:#cccccc;stroke-width:1.33333695" />
  <path
     inkscape:connector-curvature="0"
     id="path121"
     d="M 12.733333,250.7747 H 13.64 v 6.56004 H 12.6 v -5.33337 L 11.333333,252.37471 11.08,251.4547 Z"
     class="cls-5"
     style="fill:#cccccc;stroke-width:1.33333695" />
  <path
     inkscape:connector-curvature="0"
     id="path123"
     d="m 14.586666,257.33474 v -0.84001 l 2.2,-2.32001 A 2.3599999,2.3600129 0 0 0 17.6,252.73471 a 0.93333331,0.93333842 0 0 0 -0.973334,-1.01334 1.2533333,1.2533402 0 0 0 -1.173333,0.81334 l -0.88,-0.53334 a 2.1733333,2.1733452 0 0 1 2.04,-1.33334 2.0666666,2.0666779 0 0 1 1.426667,0.53334 1.9466666,1.9466773 0 0 1 0.626666,1.46667 A 3.2799999,3.2800179 0 0 1 17.6,254.80139 l -1.426667,1.46667 H 18.84 v 1.06668 z"
     class="cls-5"
     style="fill:#cccccc;stroke-width:1.33333695" />
  <path
     inkscape:connector-curvature="0"
     id="path125"
     d="m 12.693333,290.80158 h 0.893333 v 6.53337 H 12.56 v -5.33336 l -1.333334,0.37334 -0.253333,-0.90667 z"
     class="cls-5"
     style="fill:#cccccc;stroke-width:1.33333695" />
  <path
     inkscape:connector-curvature="0"
     id="path127"
     d="m 17.333333,293.4816 a 1.88,1.8800102 0 0 1 1.533333,1.88001 1.96,1.9600107 0 0 1 -0.64,1.54667 2.2799999,2.2800124 0 0 1 -1.56,0.56001 2.1333333,2.133345 0 0 1 -2.12,-1.33334 l 0.88,-0.53334 a 1.1733333,1.1733397 0 0 0 1.24,0.84001 1.0533333,1.0533391 0 1 0 0,-2.09335 h -0.24 l -0.413333,-0.65334 1.333333,-1.85334 h -2.68 v -1.01334 h 3.88 v 0.92001 z"
     class="cls-5"
     style="fill:#cccccc;stroke-width:1.33333695" />
  <path
     inkscape:connector-curvature="0"
     id="path129"
     d="m 12.506666,331.81514 h 0.906667 v 6.53337 h -1.04 v -5.33336 l -1.266667,0.37333 -0.253333,-0.92 z"
     class="cls-5"
     style="fill:#cccccc;stroke-width:1.33333695" />
  <path
     inkscape:connector-curvature="0"
     id="path131"
     d="m 19.16,336.17517 v 1 h -0.72 v 1.17334 h -1.106667 v -1.17334 h -3.04 v -1 l 2.173333,-4.36003 h 1.12 l -2.173333,4.36003 h 1.92 v -1.70668 h 1.053333 v 1.70668 z"
     class="cls-5"
     style="fill:#cccccc;stroke-width:1.33333695" />
  <path
     inkscape:connector-curvature="0"
     id="path133"
     d="m 12.666666,372.81537 h 0.906667 v 6.5467 h -1.04 v -5.33336 L 11.2,374.40204 l -0.253334,-0.92 z"
     class="cls-5"
     style="fill:#cccccc;stroke-width:1.33333695" />
  <path
     inkscape:connector-curvature="0"
     id="path135"
     d="m 16.72,375.28205 a 2.1866666,2.1866786 0 0 1 1.52,0.56 2.1866666,2.1866786 0 0 1 0,3.08002 2.2933333,2.2933458 0 0 1 -1.573334,0.56 A 2.1599999,2.1600118 0 0 1 14.52,378.08206 l 0.893333,-0.53334 a 1.16,1.1600063 0 0 0 1.253333,0.88001 1.04,1.0400057 0 0 0 1.173334,-1.05334 1.0266666,1.0266723 0 0 0 -1.146667,-1.04001 H 14.84 l 0.24,-3.52001 h 3.586666 v 1.01333 H 16 v 1.45335 z"
     class="cls-5"
     style="fill:#cccccc;stroke-width:1.33333695" />
  <path
     inkscape:connector-curvature="0"
     id="path137"
     d="m 12.666666,413.82892 h 0.906667 v 6.53337 h -1.04 v -5.33336 L 11.2,415.40226 10.946666,414.49559 Z"
     class="cls-5"
     style="fill:#cccccc;stroke-width:1.33333695" />
  <path
     inkscape:connector-curvature="0"
     id="path139"
     d="m 16.706666,416.00227 a 2.1466666,2.1466784 0 0 1 2.226667,2.22668 2.2399999,2.2400122 0 1 1 -4.466667,0 2.3466666,2.3466795 0 0 1 0.373334,-1.33334 l 2,-3.10669 h 1.186666 l -1.44,2.21335 z m 1.186667,2.22668 a 1.2,1.2000065 0 1 0 -1.186667,1.21334 1.1466666,1.1466729 0 0 0 1.186667,-1.18668 z"
     class="cls-5"
     style="fill:#cccccc;stroke-width:1.33333695" />
  <path
     inkscape:connector-curvature="0"
     id="path141"
     d="m 16.88,130.73405 -2,3.10668 h -1.186667 l 1.44,-2.18668 h -0.106667 a 2.2266666,2.2266788 0 0 1 -1.613333,-0.62667 2.1866666,2.1866786 0 0 1 -0.626667,-1.61334 2.1466666,2.1466784 0 0 1 2.24,-2.22668 2.1199999,2.1200116 0 0 1 1.6,0.62667 2.1466666,2.1466784 0 0 1 0.626667,1.60001 2.3466666,2.3466795 0 0 1 -0.373333,1.32001 z m -1.853334,-0.0667 a 1.2133333,1.2133399 0 1 0 -1.2,-1.21334 1.16,1.1600063 0 0 0 1.2,1.21334 z"
     class="cls-5"
     style="fill:#cccccc;stroke-width:1.33333695" />
  <g
     id="jack_join_lines"
     data-name="jack join lines"
     transform="scale(1.3333333,1.3333406)">
    <rect
       style="fill:#828282"
       class="cls-8"
       x="32.490002"
       y="97.300003"
       width="22.68"
       height="1"
       id="rect174" />
    <rect
       style="fill:#828282"
       class="cls-8"
       x="32.490002"
       y="128.05"
       width="22.68"
       height="1"
       id="rect176" />
    <rect
       style="fill:#828282"
       class="cls-8"
       x="32.490002"
       y="158.81"
       width="22.68"
       height="1"
       id="rect178" />
    <rect
       style="fill:#828282"
       class="cls-8"
       x="32.490002"
       y="189.56"
       width="22.68"
       height="1"
       id="rect180" />
    <rect
       style="fill:#828282"
       class="cls-8"
       x="32.490002"
       y="220.32001"
       width="22.68"
       height="1"
       id="rect182" />
    <rect
       style="fill:#828282"
       class="cls-8"
       x="32.490002"
       y="251.07001"
       width="22.68"
       height="1"
       id="rect184" />
    <rect
       style="fill:#828282"
       class="cls-8"
       x="32.490002"
       y="281.82999"
       width="22.68"
       height="1"
       id="rect186" />
    <rect
       style="fill:#828282"
       class="cls-8"
       x="32.490002"
       y="312.59"
       width="22.68"
       height="1"
       id="rect188" />
  </g>
</svg>
