<?xml version="1.0" encoding="UTF-8" standalone="no"?>
<svg xmlns:dc="http://purl.org/dc/elements/1.1/" xmlns:cc="http://creativecommons.org/ns#" xmlns:rdf="http://www.w3.org/1999/02/22-rdf-syntax-ns#" xmlns:svg="http://www.w3.org/2000/svg" xmlns="http://www.w3.org/2000/svg" xmlns:sodipodi="http://sodipodi.sourceforge.net/DTD/sodipodi-0.dtd" xmlns:inkscape="http://www.inkscape.org/namespaces/inkscape" inkscape:version="1.0 (4035a4f, 2020-05-01)" sodipodi:docname="ms-melder.svg" id="svg1018" version="1.1" viewBox="0 0 115.2 485.66927" height="128.5mm" width="30.48mm">
  <metadata id="metadata1022">
    <rdf:RDF>
      <cc:Work rdf:about="">
        <dc:format>image/svg+xml</dc:format>
        <dc:type rdf:resource="http://purl.org/dc/dcmitype/StillImage" />
        <dc:title></dc:title>
      </cc:Work>
    </rdf:RDF>
  </metadata>
  <sodipodi:namedview inkscape:current-layer="svg1018" inkscape:window-maximized="0" inkscape:window-y="23" inkscape:window-x="0" inkscape:cy="182.12599" inkscape:cx="43.200001" inkscape:zoom="2.8167314" inkscape:document-units="mm" units="mm" showgrid="false" id="namedview1020" inkscape:window-height="1238" inkscape:window-width="1761" inkscape:pageshadow="2" inkscape:pageopacity="0" guidetolerance="10" gridtolerance="10" objecttolerance="10" borderopacity="1" bordercolor="#666666" pagecolor="#ffffff" />
  <defs id="defs838">
    <linearGradient gradientUnits="userSpaceOnUse" y2="349.56036" x2="40.935059" y1="349.56036" x1="21.08536" id="linear-gradient">
      <stop id="stop833" stop-color="#3fa9f5" offset="0" />
      <stop id="stop835" stop-color="#ed1e79" offset="1" />
    </linearGradient>
  </defs>
  <g transform="scale(1.3333333)" data-name="Layer 2" id="Layer_2">
    <g id="Background">
      <g data-name="background" id="background-2">
        <path style="fill:#353535" d="M 0,0 H 86.4 V 364.252 H 0 Z" id="rect4155" />
      </g>
      <g id="g894">
        <path id="path842" style="fill:url(#linear-gradient)" d="m 21.59961,355.73828 a 0.51442,0.51442 0 0 1 -0.44971,-0.76367 l 6.27344,-11.32617 a 0.50806,0.50806 0 0 1 0.5791,-0.249 0.51454,0.51454 0 0 1 0.38574,0.49805 v 9.334 l 5.3086,-9.583 a 0.5078,0.5078 0 0 1 0.5791,-0.249 0.51454,0.51454 0 0 1 0.38574,0.49805 v 9.334 l 5.30859,-9.583 a 0.50807,0.50807 0 0 1 0.57911,-0.249 0.51454,0.51454 0 0 1 0.38574,0.49805 v 11.32617 a 0.51465,0.51465 0 0 1 -1.0293,0 v -9.334 l -5.30859,9.583 a 0.50876,0.50876 0 0 1 -0.5791,0.249 0.51453,0.51453 0 0 1 -0.38575,-0.498 v -9.334 l -5.30859,9.583 a 0.50876,0.50876 0 0 1 -0.5791,0.249 0.51452,0.51452 0 0 1 -0.38574,-0.498 v -9.334 l -5.3086,9.583 a 0.51386,0.51386 0 0 1 -0.45068,0.26552 z" />
        <g id="g892">
          <g id="g848">
            <path id="path844" style="fill:#808080" d="m 43.42765,343.89506 a 0.49794,0.49794 0 0 1 0.50165,-0.5 h 0.10532 a 0.52451,0.52451 0 0 1 0.461,0.26622 l 1.71561,2.678 1.72375,-2.68608 a 0.50112,0.50112 0 0 1 0.45332,-0.25811 h 0.10532 a 0.49794,0.49794 0 0 1 0.50165,0.5 v 4.72663 a 0.49161,0.49161 0 0 1 -0.50165,0.49239 0.50029,0.50029 0 0 1 -0.49352,-0.49239 v -3.38742 l -1.38388,2.073 a 0.46581,0.46581 0 0 1 -0.8339,0 L 44.40654,345.25 v 3.37978 a 0.483,0.483 0 0 1 -0.49352,0.48428 0.4761,0.4761 0 0 1 -0.48537,-0.48428 z" />
            <path id="path846" style="fill:#b3b3b3" d="m 48.49358,343.39508 h -0.10532 a 0.50111,0.50111 0 0 0 -0.45332,0.25809 l -1.72376,2.68609 -1.7156,-2.678 a 0.5245,0.5245 0 0 0 -0.461,-0.26621 H 43.9293 a 0.49793,0.49793 0 0 0 -0.50165,0.5 v 4.73474 a 0.47609,0.47609 0 0 0 0.48537,0.48428 0.483,0.483 0 0 0 0.49352,-0.48428 V 345.25 l 1.37574,2.05728 a 0.46583,0.46583 0 0 0 0.8339,0 l 1.38388,-2.073 v 3.38739 a 0.50028,0.50028 0 0 0 0.49352,0.4924 0.4916,0.4916 0 0 0 0.50165,-0.4924 v -4.72662 a 0.49793,0.49793 0 0 0 -0.50165,-0.5 z" />
          </g>
          <g id="g854">
            <path id="path850" style="fill:#808080" d="m 50.10743,343.87883 a 0.49762,0.49762 0 0 1 0.99517,0 v 4.74286 a 0.49761,0.49761 0 0 1 -0.99517,0 z" />
            <path id="path852" style="fill:#b3b3b3" d="m 50.60909,343.387 a 0.49151,0.49151 0 0 0 -0.50166,0.49189 v 4.74282 a 0.49762,0.49762 0 0 0 0.99518,0 v -4.74282 A 0.48963,0.48963 0 0 0 50.60909,343.387 Z" />
          </g>
          <g id="g860">
            <path id="path856" style="fill:#808080" d="m 52.21226,343.89506 a 0.49794,0.49794 0 0 1 0.50165,-0.5 h 0.10532 a 0.628,0.628 0 0 1 0.51794,0.29056 l 2.83238,3.65362 v -3.46853 a 0.48948,0.48948 0 0 1 0.9789,0 v 4.74285 a 0.4829,0.4829 0 0 1 -0.48538,0.49239 h -0.0407 a 0.62761,0.62761 0 0 1 -0.51794,-0.29868 l -2.91328,-3.75858 v 3.5811 a 0.48947,0.48947 0 0 1 -0.97889,0 z" />
            <path id="path858" style="fill:#b3b3b3" d="m 56.65493,343.387 a 0.48613,0.48613 0 0 0 -0.48538,0.48377 v 3.4685 l -2.83238,-3.65359 a 0.628,0.628 0 0 0 -0.51794,-0.29056 h -0.10532 a 0.49794,0.49794 0 0 0 -0.50166,0.5 v 4.73474 a 0.48948,0.48948 0 0 0 0.9789,0 v -3.58108 l 2.91328,3.75857 a 0.6276,0.6276 0 0 0 0.51794,0.29868 h 0.0407 a 0.48289,0.48289 0 0 0 0.48537,-0.49237 v -4.74286 a 0.48793,0.48793 0 0 0 -0.49351,-0.48377 z" />
          </g>
          <g id="g866">
            <path id="path862" style="fill:#808080" d="m 58.20417,343.92752 a 0.49294,0.49294 0 0 1 0.50165,-0.5 h 1.6103 a 2.81927,2.81927 0 0 1 3.01045,2.80677 v 0.0162 a 2.832,2.832 0 0 1 -3.01045,2.823 h -1.6103 a 0.493,0.493 0 0 1 -0.50165,-0.5 z m 2.112,4.24235 a 1.84312,1.84312 0 0 0 1.96643,-1.90313 v -0.0162 a 1.85607,1.85607 0 0 0 -1.96643,-1.91985 h -1.11683 v 3.83921 z" />
            <path id="path864" style="fill:#b3b3b3" d="m 60.31612,343.42752 h -1.61029 a 0.49294,0.49294 0 0 0 -0.50166,0.5 v 4.646 a 0.493,0.493 0 0 0 0.50166,0.5 h 1.61029 a 2.832,2.832 0 0 0 3.01045,-2.823 v -0.0162 a 2.81927,2.81927 0 0 0 -3.01045,-2.80676 z m -1.11678,4.74234 v -3.8392 h 1.11678 a 1.85608,1.85608 0 0 1 1.96644,1.91986 v 0.0162 a 1.84311,1.84311 0 0 1 -1.96644,1.90311 z" />
          </g>
          <g id="g872">
            <path id="path868" style="fill:#808080" d="m 43.42765,350.50706 a 0.49794,0.49794 0 0 1 0.50165,-0.5 h 0.10532 a 0.52451,0.52451 0 0 1 0.461,0.26622 l 1.71561,2.678 1.72375,-2.68608 a 0.50112,0.50112 0 0 1 0.45332,-0.25811 h 0.10532 a 0.49794,0.49794 0 0 1 0.50165,0.5 v 4.72663 a 0.4916,0.4916 0 0 1 -0.50165,0.49239 0.50029,0.50029 0 0 1 -0.49352,-0.49239 v -3.38742 l -1.38388,2.073 a 0.46581,0.46581 0 0 1 -0.8339,0 l -1.37578,-2.0573 v 3.37978 a 0.483,0.483 0 0 1 -0.49352,0.48428 0.4761,0.4761 0 0 1 -0.48537,-0.48428 z" />
            <path id="path870" style="fill:#b3b3b3" d="m 48.49358,350.00708 h -0.10532 a 0.50109,0.50109 0 0 0 -0.45332,0.25809 l -1.72376,2.68609 -1.7156,-2.678 a 0.52451,0.52451 0 0 0 -0.461,-0.2662 H 43.9293 a 0.49793,0.49793 0 0 0 -0.50165,0.5 v 4.73474 a 0.47609,0.47609 0 0 0 0.48537,0.48428 0.483,0.483 0 0 0 0.49352,-0.48428 v -3.3798 l 1.37574,2.05728 a 0.46583,0.46583 0 0 0 0.8339,0 l 1.38388,-2.073 v 3.38739 a 0.50028,0.50028 0 0 0 0.49352,0.49237 0.49159,0.49159 0 0 0 0.50165,-0.49237 v -4.72665 a 0.49793,0.49793 0 0 0 -0.50165,-0.5 z" />
          </g>
          <g id="g878">
            <path id="path874" style="fill:#808080" d="m 50.051,355.18551 v -4.646 a 0.493,0.493 0 0 1 0.50166,-0.5 h 3.29385 a 0.44769,0.44769 0 0 1 0.44467,0.4432 0.44255,0.44255 0 0 1 -0.44467,0.44371 h -2.80038 v 1.468 h 2.436 a 0.4503,0.4503 0 0 1 0.44519,0.45182 0.44166,0.44166 0 0 1 -0.44519,0.43559 h -2.436 v 1.51621 h 2.84052 a 0.44859,0.44859 0 0 1 0.44519,0.44371 0.44331,0.44331 0 0 1 -0.44519,0.44371 h -3.334 A 0.493,0.493 0 0 1 50.051,355.18551 Z" />
            <path id="path876" style="fill:#b3b3b3" d="m 53.84645,350.03952 h -3.29383 a 0.493,0.493 0 0 0 -0.50167,0.5 v 4.646 a 0.493,0.493 0 0 0 0.50167,0.5 h 3.334 a 0.44333,0.44333 0 0 0 0.44519,-0.44373 0.44857,0.44857 0 0 0 -0.44519,-0.44369 h -2.84049 v -1.51621 h 2.436 a 0.44166,0.44166 0 0 0 0.44518,-0.43561 0.45028,0.45028 0 0 0 -0.44518,-0.45181 h -2.436 v -1.46805 h 2.80032 a 0.44254,0.44254 0 0 0 0.44468,-0.44369 0.4477,0.4477 0 0 0 -0.44468,-0.44321 z" />
          </g>
          <g id="g884">
            <path id="path880" style="fill:#808080" d="m 55.07059,350.49084 a 0.49762,0.49762 0 0 1 0.99517,0 v 4.29153 H 58.631 a 0.45157,0.45157 0 1 1 0,0.90314 h -3.05876 a 0.49294,0.49294 0 0 1 -0.50165,-0.5 z" />
            <path id="path882" style="fill:#b3b3b3" d="m 55.57224,349.999 a 0.4915,0.4915 0 0 0 -0.50166,0.49188 v 4.69468 a 0.493,0.493 0 0 0 0.50166,0.5 H 58.631 a 0.45157,0.45157 0 1 0 0,-0.90314 h -2.56524 v -4.29154 A 0.48963,0.48963 0 0 0 55.57224,349.999 Z" />
          </g>
          <g id="g890">
            <path id="path886" style="fill:#808080" d="m 59.6776,350.53952 a 0.493,0.493 0 0 1 0.50165,-0.5 h 1.61029 A 2.81928,2.81928 0 0 1 64.8,352.84629 v 0.0162 a 2.832,2.832 0 0 1 -3.01046,2.823 h -1.61029 a 0.49294,0.49294 0 0 1 -0.50165,-0.5 z m 2.11194,4.24285 a 1.8435,1.8435 0 0 0 1.96644,-1.90363 v -0.0162 a 1.85608,1.85608 0 0 0 -1.96644,-1.91986 h -1.11677 v 3.83971 z" />
            <path id="path888" style="fill:#b3b3b3" d="m 61.78954,350.03952 h -1.61029 a 0.493,0.493 0 0 0 -0.50165,0.5 v 4.646 a 0.493,0.493 0 0 0 0.50165,0.5 h 1.61029 a 2.832,2.832 0 0 0 3.01046,-2.823 v -0.0162 a 2.81927,2.81927 0 0 0 -3.01046,-2.80676 z m -1.11677,4.74286 v -3.83972 h 1.11677 a 1.85608,1.85608 0 0 1 1.96644,1.91986 v 0.0162 a 1.84351,1.84351 0 0 1 -1.96644,1.90363 z" />
          </g>
        </g>
      </g>
      <g id="g914">
        <path id="path896" style="fill:#cccccc" d="m 17.42041,9.99023 v 8.39551 h -1.64355 v -5.44482 l -2.36231,3.89746 h -0.19141 l -2.36328,-3.88574 v 5.4331 H 9.20459 V 9.99023 h 1.70312 L 13.31885,13.96 15.71729,9.99027 Z" />
        <path id="path898" style="fill:#cccccc" d="m 18.84717,19.585 h -0.6836 L 22.96143,8.791 H 23.645 Z" />
        <path id="path900" style="fill:#cccccc" d="m 23.61865,16.479 1.415,-0.82763 a 1.88788,1.88788 0 0 0 1.93164,1.2832 c 0.92285,0 1.34278,-0.37207 1.34278,-0.88769 a 0.749,0.749 0 0 0 -0.39551,-0.6836 5.79642,5.79642 0 0 0 -1.415,-0.53955 5.408,5.408 0 0 1 -1.73926,-0.77973 2.02724,2.02724 0 0 1 -0.792,-1.72706 2.22865,2.22865 0 0 1 0.80371,-1.811 2.94548,2.94548 0 0 1 1.95508,-0.68359 3.2075,3.2075 0 0 1 2.998,1.8833 l -1.39062,0.80322 a 1.68047,1.68047 0 0 0 -1.60742,-1.0791 c -0.6836,0 -1.10352,0.34765 -1.10352,0.83935 a 0.78549,0.78549 0 0 0 0.32422,0.64795 5.12489,5.12489 0 0 0 1.27149,0.52735 l 0.57519,0.19189 a 4.9475,4.9475 0 0 1 0.54,0.2041 2.42927,2.42927 0 0 1 0.52734,0.252 2.45869,2.45869 0 0 1 0.792,0.74365 2.282,2.282 0 0 1 0.31152,1.187 2.25117,2.25117 0 0 1 -0.85156,1.84717 3.382,3.382 0 0 1 -2.19532,0.68359 3.24765,3.24765 0 0 1 -3.29776,-2.07482 z" />
        <path id="path902" style="fill:#cccccc" d="m 42.26221,9.99023 v 8.39551 h -1.64356 v -5.44482 l -2.3623,3.89746 h -0.19141 l -2.36328,-3.88574 v 5.4331 H 34.04639 V 9.99023 h 1.70312 L 38.16064,13.96 40.55908,9.99027 Z" />
        <path id="path904" style="fill:#cccccc" d="m 45.59814,16.80273 h 3.53809 v 1.583 h -5.19336 v -8.3955 h 5.13379 v 1.583 h -3.47852 v 1.78711 h 3.17872 v 1.55908 h -3.17872 z" />
        <path id="path906" style="fill:#cccccc" d="m 52.15869,16.80273 h 3.20215 v 1.583 h -4.85742 v -8.3955 h 1.65527 z" />
        <path id="path908" style="fill:#cccccc" d="m 59.54492,9.99023 a 3.82172,3.82172 0 0 1 2.87891,1.21143 4.11709,4.11709 0 0 1 1.16308,2.98634 4.11632,4.11632 0 0 1 -1.16308,2.98633 3.82171,3.82171 0 0 1 -2.87891,1.21142 H 56.21045 V 9.99023 Z m 0,6.8125 a 2.33256,2.33256 0 0 0 1.77539,-0.71972 2.6625,2.6625 0 0 0 0.6836,-1.895 2.61308,2.61308 0 0 0 -0.6836,-1.88281 2.299,2.299 0 0 0 -1.77539,-0.73194 h -1.6792 v 5.22949 z" />
        <path id="path910" style="fill:#cccccc" d="m 66.48438,16.80273 h 3.53808 v 1.583 H 64.8291 v -8.3955 h 5.13379 v 1.583 h -3.47851 v 1.78711 h 3.17871 v 1.55908 h -3.17871 z" />
        <path id="path912" style="fill:#cccccc" d="m 75.99512,18.38574 -1.69043,-2.91455 h -1.25977 v 2.91455 H 71.38965 V 9.99023 h 3.3584 A 2.78575,2.78575 0 0 1 77.543,12.773 2.72982,2.72982 0 0 1 75.92386,15.21978 l 1.8584,3.166 z M 73.04492,11.5376 V 14.02 h 1.70313 a 1.24573,1.24573 0 0 0 0,-2.48242 z" />
      </g>
      <rect id="rect916" style="fill:#424242" rx="2.83465" height="101.19685" width="79.222481" y="25.51181" x="3.5887599" />
      <rect id="rect918" style="fill:#121212" rx="1.41732" height="27.921261" width="27.921261" y="39.755909" x="43.157478" />
      <rect id="rect920" style="fill:#121212" rx="1.41732" height="27.921261" width="55.70079" y="70.228348" x="15.40067" />
      <path id="path922" style="fill:#cccccc" d="m 9.868,100.03685 h 2.1348 v 1.05566 H 8.76452 V 95.49583 H 9.868 Z" />
      <path id="path924" style="fill:#cccccc" d="m 77.1142,101.09251 -1.12744,-1.94287 h -0.83935 v 1.94287 h -1.10352 v -5.59668 h 2.23877 a 1.85633,1.85633 0 0 1 1.86328,1.8545 1.8187,1.8187 0 0 1 -1.07959,1.63134 l 1.23926,2.11084 z m -1.96679,-4.56543 v 1.65528 h 1.13525 a 0.83067,0.83067 0 0 0 0,-1.65528 z" />
      <g id="g932">
        <path id="path926" style="fill:#cccccc" d="m 38.21436,30.17822 h 0.959 v 5.59668 h -1.10354 v -4.42969 l -1.05566,0.2959 -0.27148,-0.94336 z" />
        <path id="path928" style="fill:#cccccc" d="M 40.40283,33.856 V 32.86479 H 44.521 V 33.856 Z" />
        <path id="path930" style="fill:#cccccc" d="m 49.481,34.21582 c 0,1.03125 -0.76758,1.6709 -2.00684,1.6709 -1.24707,0 -2.00683,-0.63965 -2.00683,-1.6709 a 1.489,1.489 0 0 1 0.76757,-1.35107 1.35048,1.35048 0 0 1 -0.583,-1.15967 1.48834,1.48834 0 0 1 0.51953,-1.20752 1.98529,1.98529 0 0 1 1.30273,-0.43164 1.95213,1.95213 0 0 1 1.2959,0.43164 1.48834,1.48834 0 0 1 0.51953,1.20752 1.34194,1.34194 0 0 1 -0.584,1.15967 1.4813,1.4813 0 0 1 0.77541,1.35107 z M 47.47416,33.3042 c -0.543,0 -0.91113,0.28809 -0.91113,0.76758 0,0.48779 0.36816,0.77539 0.91113,0.77539 0.544,0 0.91211,-0.2876 0.91211,-0.77539 -4e-5,-0.47949 -0.3682,-0.76758 -0.91215,-0.76758 z m 0,-2.19873 a 0.74574,0.74574 0 0 0 -0.51953,0.17578 0.60629,0.60629 0 0 0 -0.2002,0.48 0.62351,0.62351 0 0 0 0.2002,0.48779 0.85564,0.85564 0 0 0 1.03906,0 0.62026,0.62026 0 0 0 0.2002,-0.48779 0.60315,0.60315 0 0 0 -0.2002,-0.48 0.74574,0.74574 0 0 0 -0.51957,-0.17578 z" />
      </g>
      <path id="path934" style="fill:#cccccc" d="m 76.17285,56.42334 a 2.91042,2.91042 0 1 1 2.06348,-4.97314 2.78052,2.78052 0 0 1 0.84668,2.063 2.87883,2.87883 0 0 1 -2.91016,2.91016 z m 0,-1.0791 a 1.74749,1.74749 0 0 0 1.28715,-0.51172 1.93231,1.93231 0 0 0 0,-2.63867 1.85288,1.85288 0 0 0 -2.57422,0 1.935,1.935 0 0 0 0,2.63867 1.74749,1.74749 0 0 0 1.28707,0.51172 z" />
      <path id="path936" style="fill:#cccccc" d="m 10.68115,50.71484 h 1.10352 v 5.59668 h -1.10352 z" />
      <polyline id="polyline938" style="fill:none;stroke:#999999;stroke-width:0.5px;stroke-miterlimit:10" points="76.175 92.645 76.175 84.189 72.672 84.189" />
      <polyline id="polyline940" style="fill:none;stroke:#999999;stroke-width:0.5px;stroke-miterlimit:10" points="76.175 103.654 76.175 112.11 72.672 112.11" />
      <polyline id="polyline942" style="fill:none;stroke:#999999;stroke-width:0.5px;stroke-miterlimit:10" points="10.176 92.645 10.176 84.189 13.679 84.189" />
      <polyline id="polyline944" style="fill:none;stroke:#999999;stroke-width:0.5px;stroke-miterlimit:10" points="10.176 103.654 10.176 112.11 13.679 112.11" />
      <rect id="rect946" style="fill:#424242" rx="2.83465" height="101.19685" width="79.222481" y="234.99213" x="3.5887599" />
      <rect id="rect948" style="fill:#121212" rx="1.41732" height="27.921261" width="27.921261" y="249.23622" x="43.157478" />
      <rect id="rect950" style="fill:#121212" rx="1.41732" height="27.921261" width="55.70079" y="279.70865" x="15.40067" />
      <path id="path952" style="fill:#cccccc" d="m 9.868,309.51716 h 2.1348 v 1.05567 H 8.76452 v -5.59668 H 9.868 Z" />
      <path id="path954" style="fill:#cccccc" d="M 77.1142,310.57283 75.98676,308.63 h -0.83935 v 1.94287 h -1.10352 v -5.59668 h 2.23877 a 1.85633,1.85633 0 0 1 1.86328,1.85449 1.81871,1.81871 0 0 1 -1.07959,1.63135 l 1.23926,2.11084 z m -1.96679,-4.56543 v 1.65527 h 1.13525 a 0.83066,0.83066 0 0 0 0,-1.65527 z" />
      <g id="g970">
        <path id="path956" style="fill:#cccccc" d="m 33.20557,241.82422 v 0.43164 a 2.58087,2.58087 0 0 1 -0.76758,1.94238 2.735,2.735 0 0 1 -1.9834,0.74414 2.94138,2.94138 0 0 1 -2.15039,-0.83984 2.80574,2.80574 0 0 1 -0.84766,-2.0625 2.93382,2.93382 0 0 1 5.37305,-1.61524 l -0.94336,0.54395 a 1.72528,1.72528 0 0 0 -1.50293,-0.77637 1.779,1.779 0 0 0 -1.831,1.84766 1.78643,1.78643 0 0 0 0.51953,1.31152 1.90269,1.90269 0 0 0 1.3916,0.51172 1.54912,1.54912 0 0 0 1.63086,-1.06348 h -1.69536 v -0.97558 z" />
        <path id="path958" style="fill:#cccccc" d="m 35.14893,241.52051 a 1.227,1.227 0 0 1 1.21582,-0.76758 v 1.15137 a 1.2,1.2 0 0 0 -0.84766,0.1914 0.91608,0.91608 0 0 0 -0.36816,0.82325 v 1.91113 H 34.11768 V 240.832 h 1.03125 z" />
        <path id="path960" style="fill:#cccccc" d="m 40.75244,241.33594 a 2.24215,2.24215 0 0 1 0,2.999 1.806,1.806 0 0 1 -1.375,0.60742 1.542,1.542 0 0 1 -1.2959,-0.584 v 2.07129 H 37.05029 V 240.832 h 1.03125 v 0.47266 a 1.53942,1.53942 0 0 1 1.2959,-0.584 1.81364,1.81364 0 0 1 1.375,0.61528 z m -1.56738,2.623 a 1.07293,1.07293 0 0 0 0.792,-0.3125 1.1016,1.1016 0 0 0 0.31934,-0.81543 1.07337,1.07337 0 0 0 -0.31934,-0.80761 1.14057,1.14057 0 0 0 -1.583,0 1.0983,1.0983 0 0 0 -0.3125,0.80761 1.12764,1.12764 0 0 0 0.3125,0.81543 1.07069,1.07069 0 0 0 0.791,0.31256 z" />
        <path id="path962" style="fill:#cccccc" d="m 41.98877,245.62988 h -0.45606 l 3.19825,-7.19629 h 0.456 z" />
        <path id="path964" style="fill:#cccccc" d="m 48.94189,244.83008 -0.33593,-1.00684 h -2.23145 l -0.33594,1.00684 h -1.19043 l 1.958,-5.59668 h 1.36817 l 1.96679,5.59668 z M 46.72705,242.791 h 1.53516 l -0.76758,-2.28614 z" />
        <path id="path966" style="fill:#cccccc" d="m 53.37354,240.832 h 1.03125 v 3.99805 h -1.03125 v -0.44727 a 1.32238,1.32238 0 0 1 -1.19141,0.55957 1.44769,1.44769 0 0 1 -1.08692,-0.43945 1.68986,1.68986 0 0 1 -0.42382,-1.21582 V 240.832 h 1.03125 v 2.32715 a 0.73977,0.73977 0 0 0 0.791,0.82324 c 0.53614,0 0.87989,-0.32715 0.87989,-0.99121 z" />
        <path id="path968" style="fill:#cccccc" d="m 59.167,244.83008 h -1.19093 l -0.86425,-1.21485 -0.8711,1.21485 h -1.1914 l 1.46289,-2.03906 -1.39942,-1.959 h 1.19141 l 0.80762,1.12793 0.80761,-1.12793 h 1.18311 l -1.39893,1.95117 z" />
      </g>
      <path id="path972" style="fill:#cccccc" d="m 76.17285,265.90332 a 2.91017,2.91017 0 1 1 2.06348,-4.97266 2.7802,2.7802 0 0 1 0.84668,2.0625 2.878,2.878 0 0 1 -2.91016,2.91016 z m 0,-1.0791 a 1.74749,1.74749 0 0 0 1.28715,-0.51172 1.93231,1.93231 0 0 0 0,-2.63867 1.85414,1.85414 0 0 0 -2.57422,0 1.935,1.935 0 0 0 0,2.63867 1.74749,1.74749 0 0 0 1.28707,0.51172 z" />
      <path id="path974" style="fill:#cccccc" d="m 10.68115,260.19531 h 1.10352 v 5.59669 h -1.10352 z" />
      <polyline id="polyline976" style="fill:none;stroke:#999999;stroke-width:0.5px;stroke-miterlimit:10" points="76.175 302.125 76.175 293.669 72.672 293.669" />
      <polyline id="polyline978" style="fill:none;stroke:#999999;stroke-width:0.5px;stroke-miterlimit:10" points="76.175 313.134 76.175 321.591 72.672 321.591" />
      <polyline id="polyline980" style="fill:none;stroke:#999999;stroke-width:0.5px;stroke-miterlimit:10" points="10.176 302.125 10.176 293.669 13.679 293.669" />
      <polyline id="polyline982" style="fill:none;stroke:#999999;stroke-width:0.5px;stroke-miterlimit:10" points="10.176 313.134 10.176 321.591 13.679 321.591" />
      <rect id="rect984" style="fill:#424242" rx="2.83465" height="101.19685" width="79.222481" y="130.25197" x="3.5887599" />
      <rect id="rect986" style="fill:#121212" rx="1.41732" height="27.921261" width="27.921261" y="144.49606" x="43.157478" />
      <rect id="rect988" style="fill:#121212" rx="1.41732" height="27.921261" width="55.70079" y="174.96851" x="15.40067" />
      <path id="path990" style="fill:#cccccc" d="m 9.868,204.777 h 2.1348 v 1.05566 H 8.76452 V 200.236 H 9.868 Z" />
      <path id="path992" style="fill:#cccccc" d="m 77.1142,205.83267 -1.12744,-1.94287 h -0.83935 v 1.94287 H 74.04389 V 200.236 h 2.23877 a 1.85633,1.85633 0 0 1 1.86328,1.85449 1.81871,1.81871 0 0 1 -1.07959,1.63135 l 1.23926,2.11084 z m -1.96679,-4.56543 v 1.65527 h 1.13525 a 0.83066,0.83066 0 0 0 0,-1.65527 z" />
      <g id="g1002">
        <path id="path994" style="fill:#cccccc" d="m 38.59717,137.88477 h 0.0088 l -1.74317,2.63037 h -1.26371 l 1.24707,-1.82325 a 1.986,1.986 0 0 1 -1.42285,-0.55127 1.88831,1.88831 0 0 1 -0.544,-1.3916 1.858,1.858 0 0 1 0.55957,-1.39892 2.24043,2.24043 0 0 1 2.92676,0 1.8477,1.8477 0 0 1 0.56739,1.39892 1.95442,1.95442 0 0 1 -0.33589,1.13575 z m -1.69434,-0.22413 a 0.90769,0.90769 0 1 0 -0.92773,-0.91162 0.87936,0.87936 0 0 0 0.92773,0.91162 z" />
        <path id="path996" style="fill:#cccccc" d="M 39.70947,138.59619 V 137.605 h 4.11817 v 0.99121 z" />
        <path id="path998" style="fill:#cccccc" d="m 45.64209,134.91846 h 0.959 v 5.59668 h -1.10353 v -4.42969 l -1.05567,0.2959 -0.27148,-0.94336 z" />
        <path id="path1000" style="fill:#cccccc" d="m 49.55908,136.7334 a 1.99886,1.99886 0 0 1 1.416,0.56738 1.86356,1.86356 0 0 1 0.543,1.37549 1.89192,1.89192 0 0 1 -0.56739,1.40723 2.242,2.242 0 0 1 -2.92675,0 1.86405,1.86405 0 0 1 -0.55957,-1.40723 2.00631,2.00631 0 0 1 0.32812,-1.12744 l 1.74316,-2.63037 h 1.2627 z m -0.07129,1.03906 a 0.90769,0.90769 0 1 0 0,1.81494 0.90789,0.90789 0 1 0 0,-1.81494 z" />
      </g>
      <path id="path1004" style="fill:#cccccc" d="m 76.17285,161.16357 a 2.91042,2.91042 0 1 1 2.06348,-4.97314 2.78052,2.78052 0 0 1 0.84668,2.063 2.87881,2.87881 0 0 1 -2.91016,2.91015 z m 0,-1.0791 a 1.74749,1.74749 0 0 0 1.28711,-0.51172 1.93231,1.93231 0 0 0 0,-2.63867 1.85288,1.85288 0 0 0 -2.57422,0 1.935,1.935 0 0 0 0,2.63867 1.74749,1.74749 0 0 0 1.28711,0.51172 z" />
      <path id="path1006" style="fill:#cccccc" d="m 10.68115,155.45508 h 1.10352 v 5.59668 h -1.10352 z" />
      <polyline id="polyline1008" style="fill:none;stroke:#999999;stroke-width:0.5px;stroke-miterlimit:10" points="76.175 197.385 76.175 188.929 72.672 188.929" />
      <polyline id="polyline1010" style="fill:none;stroke:#999999;stroke-width:0.5px;stroke-miterlimit:10" points="76.175 208.394 76.175 216.85 72.672 216.85" />
      <polyline id="polyline1012" style="fill:none;stroke:#999999;stroke-width:0.5px;stroke-miterlimit:10" points="10.176 197.385 10.176 188.929 13.679 188.929" />
      <polyline id="polyline1014" style="fill:none;stroke:#999999;stroke-width:0.5px;stroke-miterlimit:10" points="10.176 208.394 10.176 216.85 13.679 216.85" />
    </g>
  </g>
</svg>
