<?xml version="1.0" encoding="UTF-8" standalone="no"?>
<svg
   xmlns:dc="http://purl.org/dc/elements/1.1/"
   xmlns:cc="http://creativecommons.org/ns#"
   xmlns:rdf="http://www.w3.org/1999/02/22-rdf-syntax-ns#"
   xmlns:svg="http://www.w3.org/2000/svg"
   xmlns="http://www.w3.org/2000/svg"
   xmlns:sodipodi="http://sodipodi.sourceforge.net/DTD/sodipodi-0.dtd"
   xmlns:inkscape="http://www.inkscape.org/namespaces/inkscape"
   inkscape:version="0.92.2 (5c3e80d, 2017-08-06)"
   height="128.5mm"
   width="30.48mm"
   sodipodi:docname="unmeld-grp-aux.svg"
   id="svg173"
   version="1.1"
   viewBox="0 0 115.2 485.66928">
  <metadata
     id="metadata177">
    <rdf:RDF>
      <cc:Work
         rdf:about="">
        <dc:format>image/svg+xml</dc:format>
        <dc:type
           rdf:resource="http://purl.org/dc/dcmitype/StillImage" />
        <dc:title>Asset 10</dc:title>
      </cc:Work>
    </rdf:RDF>
  </metadata>
  <sodipodi:namedview
     inkscape:current-layer="svg173"
     inkscape:window-maximized="0"
     inkscape:window-y="413"
     inkscape:window-x="0"
     inkscape:cy="102.85714"
     inkscape:cx="-121.42857"
     inkscape:zoom="0.35"
     units="mm"
     inkscape:document-units="mm"
     showgrid="false"
     id="namedview175"
     inkscape:window-height="768"
     inkscape:window-width="1366"
     inkscape:pageshadow="2"
     inkscape:pageopacity="0"
     guidetolerance="10"
     gridtolerance="10"
     objecttolerance="10"
     borderopacity="1"
     inkscape:document-rotation="0"
     bordercolor="#666666"
     pagecolor="#ffffff" />
  <defs
     id="defs17">
    <style
       id="style10">.cls-1{fill:#353535;}.cls-2{fill:url(#linear-gradient);}.cls-3{fill:gray;}.cls-4{fill:#b3b3b3;}.cls-5{fill:#ccc;}.cls-6{fill:#121212;}.cls-7{fill:#fff;}</style>
    <linearGradient
       gradientUnits="userSpaceOnUse"
       y2="349.56"
       x2="40.939999"
       y1="349.56"
       x1="21.09"
       id="linear-gradient">
      <stop
         id="stop12"
         stop-color="#3fa9f5"
         offset="0" />
      <stop
         id="stop14"
         stop-color="#ed1e79"
         offset="1" />
    </linearGradient>
  </defs>
  <title
     id="title19">Asset 10</title>
  <g
     id="Layer_2-2"
     data-name="Layer 2"
     transform="scale(1.3333333,1.3333406)">
    <g
       id="background">
      <path
         style="fill:#353535"
         id="rect4155"
         class="cls-1"
         d="M 0,0 H 86.4 V 364.25 H 0 Z"
         inkscape:connector-curvature="0" />
    </g>
  </g>
  <g
     id="branding"
     transform="scale(1.3333333,1.3333406)">
    <path
       class="cls-2"
       d="m 21.6,355.74 a 0.47,0.47 0 0 1 -0.25,-0.07 0.51,0.51 0 0 1 -0.2,-0.7 l 6.27,-11.32 a 0.52,0.52 0 0 1 1,0.25 v 9.33 l 5.31,-9.58 a 0.51,0.51 0 0 1 0.58,-0.25 0.52,0.52 0 0 1 0.38,0.5 v 9.33 L 40,343.65 a 0.51,0.51 0 0 1 0.58,-0.25 0.51,0.51 0 0 1 0.39,0.5 v 11.32 a 0.52,0.52 0 0 1 -0.52,0.52 0.51,0.51 0 0 1 -0.51,-0.52 v -9.33 l -5.31,9.58 a 0.52,0.52 0 0 1 -1,-0.25 v -9.33 l -5.31,9.58 a 0.51,0.51 0 0 1 -0.58,0.25 0.52,0.52 0 0 1 -0.38,-0.5 v -9.33 l -5.31,9.58 a 0.51,0.51 0 0 1 -0.45,0.27 z"
       id="path24"
       inkscape:connector-curvature="0"
       style="fill:url(#linear-gradient)" />
    <path
       style="fill:#808080"
       class="cls-3"
       d="m 43.43,343.9 a 0.5,0.5 0 0 1 0.5,-0.5 H 44 a 0.54,0.54 0 0 1 0.47,0.26 l 1.71,2.68 1.72,-2.69 a 0.51,0.51 0 0 1 0.46,-0.25 h 0.1 a 0.5,0.5 0 0 1 0.51,0.5 v 4.72 a 0.49,0.49 0 0 1 -0.51,0.49 0.5,0.5 0 0 1 -0.49,-0.49 v -3.39 l -1.38,2.08 a 0.47,0.47 0 0 1 -0.84,0 l -1.37,-2.06 v 3.38 a 0.48,0.48 0 0 1 -0.5,0.48 0.47,0.47 0 0 1 -0.48,-0.48 z"
       id="path26"
       inkscape:connector-curvature="0" />
    <path
       style="fill:#b3b3b3"
       class="cls-4"
       d="m 48.49,343.4 h -0.1 a 0.51,0.51 0 0 0 -0.46,0.25 l -1.72,2.69 -1.71,-2.68 a 0.54,0.54 0 0 0 -0.47,-0.26 h -0.1 a 0.5,0.5 0 0 0 -0.5,0.5 v 4.73 a 0.47,0.47 0 0 0 0.48,0.48 0.48,0.48 0 0 0 0.5,-0.48 v -3.38 l 1.37,2.06 a 0.47,0.47 0 0 0 0.84,0 L 48,345.23 v 3.39 a 0.5,0.5 0 0 0 0.49,0.49 0.49,0.49 0 0 0 0.51,-0.49 v -4.72 a 0.5,0.5 0 0 0 -0.51,-0.5 z"
       id="path28"
       inkscape:connector-curvature="0" />
    <path
       style="fill:#808080"
       class="cls-3"
       d="m 50.11,343.88 a 0.5,0.5 0 0 1 1,0 v 4.74 a 0.5,0.5 0 0 1 -1,0 z"
       id="path30"
       inkscape:connector-curvature="0" />
    <path
       style="fill:#b3b3b3"
       class="cls-4"
       d="m 50.61,343.39 a 0.49,0.49 0 0 0 -0.5,0.49 v 4.74 a 0.5,0.5 0 0 0 1,0 v -4.74 a 0.49,0.49 0 0 0 -0.49,-0.49 z"
       id="path32"
       inkscape:connector-curvature="0" />
    <path
       style="fill:#808080"
       class="cls-3"
       d="m 52.21,343.9 a 0.5,0.5 0 0 1 0.5,-0.5 h 0.11 a 0.64,0.64 0 0 1 0.52,0.29 l 2.83,3.65 v -3.47 a 0.5,0.5 0 0 1 1,0 v 4.74 a 0.49,0.49 0 0 1 -0.49,0.5 v 0 a 0.66,0.66 0 0 1 -0.52,-0.3 l -2.91,-3.76 v 3.58 a 0.5,0.5 0 0 1 -1,0 z"
       id="path34"
       inkscape:connector-curvature="0" />
    <path
       style="fill:#b3b3b3"
       class="cls-4"
       d="m 56.65,343.39 a 0.49,0.49 0 0 0 -0.48,0.48 v 3.47 l -2.83,-3.65 a 0.64,0.64 0 0 0 -0.52,-0.29 h -0.11 a 0.5,0.5 0 0 0 -0.5,0.5 v 4.73 a 0.5,0.5 0 0 0 1,0 v -3.58 l 2.91,3.76 a 0.66,0.66 0 0 0 0.52,0.3 v 0 a 0.49,0.49 0 0 0 0.49,-0.5 v -4.74 a 0.49,0.49 0 0 0 -0.5,-0.48 z"
       id="path36"
       inkscape:connector-curvature="0" />
    <path
       style="fill:#808080"
       class="cls-3"
       d="m 58.2,343.93 a 0.5,0.5 0 0 1 0.51,-0.5 h 1.61 a 2.82,2.82 0 0 1 3,2.8 v 0 a 2.83,2.83 0 0 1 -3,2.82 h -1.61 a 0.49,0.49 0 0 1 -0.51,-0.5 z m 2.12,4.24 a 1.84,1.84 0 0 0 2,-1.9 v 0 a 1.85,1.85 0 0 0 -2,-1.92 H 59.2 v 3.84 z"
       id="path38"
       inkscape:connector-curvature="0" />
    <path
       style="fill:#b3b3b3"
       class="cls-4"
       d="m 60.32,343.43 h -1.61 a 0.5,0.5 0 0 0 -0.51,0.5 v 4.64 a 0.49,0.49 0 0 0 0.51,0.5 h 1.61 a 2.83,2.83 0 0 0 3,-2.82 v 0 a 2.82,2.82 0 0 0 -3,-2.8 z m -1.12,4.74 v -3.84 h 1.12 a 1.85,1.85 0 0 1 2,1.92 v 0 a 1.84,1.84 0 0 1 -2,1.9 z"
       id="path40"
       inkscape:connector-curvature="0" />
    <path
       style="fill:#808080"
       class="cls-3"
       d="m 43.43,350.51 a 0.5,0.5 0 0 1 0.5,-0.5 H 44 a 0.54,0.54 0 0 1 0.47,0.26 l 1.74,2.73 1.72,-2.68 a 0.52,0.52 0 0 1 0.46,-0.26 h 0.1 a 0.5,0.5 0 0 1 0.51,0.5 v 4.72 a 0.5,0.5 0 0 1 -0.51,0.5 0.51,0.51 0 0 1 -0.49,-0.5 v -3.38 l -1.38,2.07 a 0.47,0.47 0 0 1 -0.84,0 l -1.37,-2.06 v 3.38 a 0.49,0.49 0 0 1 -0.5,0.49 0.48,0.48 0 0 1 -0.48,-0.49 z"
       id="path42"
       inkscape:connector-curvature="0" />
    <path
       style="fill:#b3b3b3"
       class="cls-4"
       d="m 48.49,350 h -0.1 a 0.52,0.52 0 0 0 -0.46,0.26 L 46.21,353 44.5,350.32 A 0.54,0.54 0 0 0 44,350 h -0.1 a 0.5,0.5 0 0 0 -0.5,0.5 v 4.73 a 0.48,0.48 0 0 0 0.48,0.49 0.49,0.49 0 0 0 0.5,-0.49 v -3.38 l 1.37,2.06 a 0.47,0.47 0 0 0 0.84,0 L 48,351.85 v 3.38 a 0.51,0.51 0 0 0 0.49,0.5 0.5,0.5 0 0 0 0.51,-0.5 v -4.72 a 0.5,0.5 0 0 0 -0.51,-0.5 z"
       id="path44"
       inkscape:connector-curvature="0" />
    <path
       style="fill:#808080"
       class="cls-3"
       d="m 50.05,355.19 v -4.65 a 0.5,0.5 0 0 1 0.5,-0.5 h 3.3 a 0.45,0.45 0 0 1 0,0.89 h -2.8 v 1.46 h 2.43 a 0.46,0.46 0 0 1 0.45,0.46 0.44,0.44 0 0 1 -0.45,0.43 h -2.43 v 1.52 h 2.84 a 0.45,0.45 0 0 1 0,0.89 h -3.34 a 0.5,0.5 0 0 1 -0.5,-0.5 z"
       id="path46"
       inkscape:connector-curvature="0" />
    <path
       style="fill:#b3b3b3"
       class="cls-4"
       d="m 53.85,350 h -3.3 a 0.5,0.5 0 0 0 -0.5,0.5 v 4.65 a 0.5,0.5 0 0 0 0.5,0.5 h 3.34 a 0.45,0.45 0 0 0 0,-0.89 h -2.84 v -1.52 h 2.43 a 0.44,0.44 0 0 0 0.45,-0.43 0.46,0.46 0 0 0 -0.45,-0.46 h -2.43 v -1.46 h 2.8 a 0.45,0.45 0 0 0 0,-0.89 z"
       id="path48"
       inkscape:connector-curvature="0" />
    <path
       style="fill:#808080"
       class="cls-3"
       d="m 55.07,350.49 a 0.5,0.5 0 0 1 1,0 v 4.29 h 2.56 a 0.45,0.45 0 0 1 0.45,0.45 0.46,0.46 0 0 1 -0.45,0.46 h -3.06 a 0.5,0.5 0 0 1 -0.5,-0.5 z"
       id="path50"
       inkscape:connector-curvature="0" />
    <path
       style="fill:#b3b3b3"
       class="cls-4"
       d="m 55.57,350 a 0.49,0.49 0 0 0 -0.5,0.49 v 4.7 a 0.5,0.5 0 0 0 0.5,0.5 h 3.06 a 0.46,0.46 0 0 0 0.45,-0.46 0.45,0.45 0 0 0 -0.45,-0.45 h -2.56 v -4.29 A 0.49,0.49 0 0 0 55.57,350 Z"
       id="path52"
       inkscape:connector-curvature="0" />
    <path
       style="fill:#808080"
       class="cls-3"
       d="m 59.68,350.54 a 0.5,0.5 0 0 1 0.5,-0.5 h 1.61 a 2.82,2.82 0 0 1 3,2.81 v 0 a 2.84,2.84 0 0 1 -3,2.83 h -1.61 a 0.5,0.5 0 0 1 -0.5,-0.5 z m 2.11,4.24 a 1.85,1.85 0 0 0 2,-1.9 v 0 a 1.86,1.86 0 0 0 -2,-1.92 h -1.12 v 3.84 z"
       id="path54"
       inkscape:connector-curvature="0" />
    <path
       style="fill:#b3b3b3"
       class="cls-4"
       d="m 61.79,350 h -1.61 a 0.5,0.5 0 0 0 -0.5,0.5 v 4.65 a 0.5,0.5 0 0 0 0.5,0.5 h 1.61 a 2.84,2.84 0 0 0 3,-2.83 v 0 a 2.82,2.82 0 0 0 -3,-2.81 z m -1.12,4.74 v -3.84 h 1.12 a 1.86,1.86 0 0 1 2,1.92 v 0 a 1.85,1.85 0 0 1 -2,1.9 z"
       id="path56"
       inkscape:connector-curvature="0" />
    <path
       style="fill:#cccccc"
       class="cls-5"
       d="m 19.55,17.66 a 2.67,2.67 0 0 1 -0.9,-2.12 V 9.89 h 1.65 v 5.52 c 0,0.87 0.49,1.43 1.56,1.43 1.07,0 1.56,-0.56 1.56,-1.43 V 9.89 h 1.65 v 5.65 a 2.67,2.67 0 0 1 -0.9,2.12 3.36,3.36 0 0 1 -2.31,0.79 3.36,3.36 0 0 1 -2.31,-0.79 z"
       id="path58"
       inkscape:connector-curvature="0" />
    <path
       style="fill:#cccccc"
       class="cls-5"
       d="m 32.1,9.89 h 1.66 v 8.4 H 32.5 l -3.6,-5.14 v 5.14 h -1.65 v -8.4 h 1.26 L 32.1,15 Z"
       id="path60"
       inkscape:connector-curvature="0" />
    <path
       style="fill:#cccccc"
       class="cls-5"
       d="m 44.22,9.89 v 8.4 h -1.64 v -5.45 l -2.36,3.9 H 40 l -2.36,-3.89 v 5.44 H 36 v -8.4 h 1.7 l 2.41,4 2.4,-4 z"
       id="path62"
       inkscape:connector-curvature="0" />
    <path
       style="fill:#cccccc"
       class="cls-5"
       d="m 48.12,16.7 h 3.54 v 1.59 h -5.19 v -8.4 h 5.13 v 1.58 h -3.48 v 1.79 h 3.18 v 1.56 h -3.18 z"
       id="path64"
       inkscape:connector-curvature="0" />
    <path
       style="fill:#cccccc"
       class="cls-5"
       d="m 55.17,16.7 h 3.2 v 1.59 h -4.86 v -8.4 h 1.66 z"
       id="path66"
       inkscape:connector-curvature="0" />
    <path
       style="fill:#cccccc"
       class="cls-5"
       d="m 63.33,9.89 a 3.84,3.84 0 0 1 2.88,1.21 4.17,4.17 0 0 1 1.16,3 4.17,4.17 0 0 1 -1.16,3 3.84,3.84 0 0 1 -2.88,1.21 H 60 V 9.89 Z m 0,6.81 A 2.31,2.31 0 0 0 65.1,16 2.63,2.63 0 0 0 65.79,14.11 2.59,2.59 0 0 0 65.1,12.23 2.26,2.26 0 0 0 63.33,11.49 h -1.68 v 5.21 z"
       id="path68"
       inkscape:connector-curvature="0" />
  </g>
  <g
     id="EQ_bgs_copy"
     data-name="EQ bgs copy"
     transform="scale(1.3333333,1.3333406)">
    <rect
       style="fill:#121212"
       class="cls-6"
       x="53.049999"
       y="28.35"
       width="27.92"
       height="36.849998"
       rx="1.42"
       id="rect71" />
    <rect
       style="fill:#121212"
       class="cls-6"
       x="4.9299998"
       y="83.830002"
       width="76.540001"
       height="27.92"
       rx="1.42"
       id="rect73" />
    <rect
       style="fill:#121212"
       class="cls-6"
       x="4.9299998"
       y="114.59"
       width="76.540001"
       height="27.92"
       rx="1.42"
       id="rect75" />
    <rect
       style="fill:#121212"
       class="cls-6"
       x="4.9299998"
       y="145.35001"
       width="76.540001"
       height="27.92"
       rx="1.42"
       id="rect77" />
    <rect
       style="fill:#121212"
       class="cls-6"
       x="4.9299998"
       y="176.10001"
       width="76.540001"
       height="27.92"
       rx="1.42"
       id="rect79" />
    <rect
       style="fill:#121212"
       class="cls-6"
       x="4.9299998"
       y="206.86"
       width="76.540001"
       height="27.92"
       rx="1.42"
       id="rect81" />
    <rect
       style="fill:#121212"
       class="cls-6"
       x="4.9299998"
       y="237.61"
       width="76.540001"
       height="27.92"
       rx="1.42"
       id="rect83" />
    <rect
       style="fill:#121212"
       class="cls-6"
       x="4.9299998"
       y="268.37"
       width="76.540001"
       height="27.92"
       rx="1.42"
       id="rect85" />
    <rect
       style="fill:#121212"
       class="cls-6"
       x="4.9299998"
       y="299.13"
       width="76.540001"
       height="27.92"
       rx="1.42"
       id="rect87" />
  </g>
  <g
     id="labels"
     transform="scale(1.3333333,1.3333406)">
    <path
       style="fill:#cccccc"
       class="cls-5"
       d="m 16.51,31.52 h 0.94 v 4.9 h -0.94 z"
       id="path90"
       inkscape:connector-curvature="0" />
    <path
       style="fill:#cccccc"
       class="cls-5"
       d="m 21.33,31.52 h 0.93 v 4.9 h -0.71 l -2,-3 v 3 h -0.94 v -4.9 h 0.71 l 2,3 z"
       id="path92"
       inkscape:connector-curvature="0" />
    <path
       style="fill:#cccccc"
       class="cls-5"
       d="m 62,31.52 v 0.92 h -1.3 v 4 h -0.93 v -4 H 58.5 v -0.92 z"
       id="path94"
       inkscape:connector-curvature="0" />
    <path
       style="fill:#cccccc"
       class="cls-5"
       d="m 65.46,31.52 h 0.92 v 4.9 h -0.92 v -2 H 63.7 v 2 h -0.93 v -4.9 h 0.93 v 1.94 h 1.76 z"
       id="path96"
       inkscape:connector-curvature="0" />
    <path
       style="fill:#cccccc"
       class="cls-5"
       d="m 70.13,36.42 -1,-1.7 h -0.71 v 1.7 h -0.93 v -4.9 h 1.89 a 1.53,1.53 0 0 1 1.12,0.47 1.63,1.63 0 0 1 0.5,1.15 1.61,1.61 0 0 1 -0.91,1.43 l 1,1.85 z m -1.67,-4 v 1.45 h 1 a 0.69,0.69 0 0 0 0.64,-0.73 0.68,0.68 0 0 0 -0.64,-0.72 z"
       id="path98"
       inkscape:connector-curvature="0" />
    <path
       style="fill:#cccccc"
       class="cls-5"
       d="m 72.41,36.06 a 1.63,1.63 0 0 1 -0.5,-1.24 v -3.3 h 0.92 v 3.22 a 0.88,0.88 0 0 0 1.76,0 v -3.22 h 0.93 v 3.3 a 1.63,1.63 0 0 1 -0.5,1.24 2.08,2.08 0 0 1 -2.61,0 z"
       id="path100"
       inkscape:connector-curvature="0" />
    <path
       style="fill:#ffffff"
       class="cls-7"
       d="m 28.77,78.86 h 2.13 v 1 h -3.24 v -5.6 h 1.11 z"
       id="path102"
       inkscape:connector-curvature="0" />
    <path
       style="fill:#ffffff"
       class="cls-7"
       d="M 58.06,79.91 56.93,78 h -0.84 v 1.94 H 55 v -5.6 h 2.24 A 1.86,1.86 0 0 1 59.1,76.2 1.82,1.82 0 0 1 58,77.8 l 1.24,2.11 z m -2,-4.56 V 77 h 1.14 a 0.81,0.81 0 0 0 0.76,-0.83 0.79,0.79 0 0 0 -0.76,-0.82 z"
       id="path104"
       inkscape:connector-curvature="0" />
  </g>
  <g
     id="Grp_Aux"
     data-name="Grp/Aux"
     transform="scale(1.3333333,1.3333406)">
    <path
       style="fill:#cccccc"
       class="cls-5"
       d="M 11.83,128.67 V 129 a 2.24,2.24 0 0 1 -0.64,1.66 2.3,2.3 0 0 1 -1.68,0.63 2.42,2.42 0 0 1 -1.81,-0.73 2.65,2.65 0 0 1 0,-3.61 2.45,2.45 0 0 1 3.84,0.42 l -0.67,0.4 a 1.55,1.55 0 0 0 -1.4,-0.77 1.6,1.6 0 0 0 -1.22,0.5 1.75,1.75 0 0 0 -0.48,1.26 1.73,1.73 0 0 0 0.48,1.24 1.7,1.7 0 0 0 1.27,0.5 1.42,1.42 0 0 0 1.53,-1.12 H 9.47 v -0.72 z"
       id="path107"
       inkscape:connector-curvature="0" />
    <path
       style="fill:#cccccc"
       class="cls-5"
       d="m 12.41,131.2 v -0.63 l 1.65,-1.74 a 1.72,1.72 0 0 0 0.6,-1.08 0.69,0.69 0 0 0 -0.73,-0.75 0.93,0.93 0 0 0 -0.88,0.6 l -0.65,-0.39 a 1.61,1.61 0 0 1 1.52,-1 1.49,1.49 0 0 1 1.07,0.41 1.4,1.4 0 0 1 0.45,1.1 2.43,2.43 0 0 1 -0.81,1.6 l -1.06,1.11 h 2 v 0.77 z"
       id="path109"
       inkscape:connector-curvature="0" />
    <path
       style="fill:#cccccc"
       class="cls-5"
       d="m 11.8,159.81 v 0.34 a 2.21,2.21 0 0 1 -2.32,2.29 2.43,2.43 0 0 1 -1.81,-0.74 2.65,2.65 0 0 1 0,-3.61 2.44,2.44 0 0 1 3.83,0.42 l -0.67,0.4 a 1.55,1.55 0 0 0 -1.39,-0.77 1.61,1.61 0 0 0 -1.23,0.5 1.81,1.81 0 0 0 -0.48,1.26 1.77,1.77 0 0 0 0.48,1.25 1.72,1.72 0 0 0 1.27,0.5 1.42,1.42 0 0 0 1.52,-1.12 H 9.43 v -0.72 z"
       id="path111"
       inkscape:connector-curvature="0" />
    <path
       style="fill:#cccccc"
       class="cls-5"
       d="m 14.42,159.44 a 1.43,1.43 0 0 1 1.16,1.42 1.51,1.51 0 0 1 -0.48,1.14 1.72,1.72 0 0 1 -1.18,0.42 1.61,1.61 0 0 1 -1.59,-1 L 13,161 a 0.89,0.89 0 0 0 0.93,0.63 0.79,0.79 0 1 0 0,-1.58 h -0.18 l -0.31,-0.48 1,-1.39 h -2 v -0.76 h 2.91 v 0.69 z"
       id="path113"
       inkscape:connector-curvature="0" />
    <path
       style="fill:#cccccc"
       class="cls-5"
       d="m 11.66,190.45 v 0.33 a 2.28,2.28 0 0 1 -0.64,1.66 2.3,2.3 0 0 1 -1.68,0.63 2.42,2.42 0 0 1 -1.81,-0.73 2.65,2.65 0 0 1 0,-3.61 2.35,2.35 0 0 1 1.77,-0.73 2.33,2.33 0 0 1 2.06,1.16 l -0.67,0.4 a 1.54,1.54 0 0 0 -1.39,-0.78 1.61,1.61 0 0 0 -1.22,0.51 1.88,1.88 0 0 0 0,2.51 1.7,1.7 0 0 0 1.27,0.5 1.43,1.43 0 0 0 1.53,-1.12 H 9.29 v -0.72 z"
       id="path115"
       inkscape:connector-curvature="0" />
    <path
       style="fill:#cccccc"
       class="cls-5"
       d="m 15.83,191.35 v 0.75 h -0.54 v 0.9 h -0.78 v -0.88 h -2.33 v -0.75 l 1.63,-3.27 h 0.85 L 13,191.35 h 1.48 v -1.27 h 0.78 v 1.27 z"
       id="path117"
       inkscape:connector-curvature="0" />
    <path
       style="fill:#cccccc"
       class="cls-5"
       d="M 11.35,223 11,222 H 9 l -0.33,1 H 7.83 l 1.72,-4.9 h 0.93 l 1.71,4.9 z m -2.09,-1.74 h 1.5 L 10,219.05 Z"
       id="path119"
       inkscape:connector-curvature="0" />
    <path
       style="fill:#cccccc"
       class="cls-5"
       d="m 13.55,218.1 h 0.68 v 4.9 h -0.78 v -4 l -0.95,0.28 -0.19,-0.68 z"
       id="path121"
       inkscape:connector-curvature="0" />
    <path
       style="fill:#cccccc"
       class="cls-5"
       d="m 10.82,253.76 -0.33,-1 h -2 l -0.33,1 H 7.3 l 1.7,-4.9 h 1 l 1.71,4.9 z M 8.73,252 h 1.5 l -0.75,-2.22 z"
       id="path123"
       inkscape:connector-curvature="0" />
    <path
       style="fill:#cccccc"
       class="cls-5"
       d="m 11.9,253.76 v -0.63 l 1.65,-1.74 a 1.75,1.75 0 0 0 0.6,-1.08 0.7,0.7 0 0 0 -0.73,-0.76 0.92,0.92 0 0 0 -0.88,0.61 l -0.65,-0.4 a 1.62,1.62 0 0 1 1.52,-1 1.53,1.53 0 0 1 1.07,0.4 1.43,1.43 0 0 1 0.45,1.11 2.43,2.43 0 0 1 -0.81,1.6 L 13.06,253 h 2 v 0.78 z"
       id="path125"
       inkscape:connector-curvature="0" />
    <path
       style="fill:#cccccc"
       class="cls-5"
       d="m 10.78,284.52 -0.33,-1 h -2 l -0.33,1 H 7.26 L 9,279.61 h 0.93 l 1.71,4.91 z M 8.7,282.77 h 1.5 l -0.75,-2.21 z"
       id="path127"
       inkscape:connector-curvature="0" />
    <path
       style="fill:#cccccc"
       class="cls-5"
       d="m 13.91,281.62 a 1.43,1.43 0 0 1 1.16,1.38 1.5,1.5 0 0 1 -0.48,1.16 1.72,1.72 0 0 1 -1.18,0.42 1.61,1.61 0 0 1 -1.59,-1 l 0.66,-0.4 a 0.89,0.89 0 0 0 0.93,0.63 0.79,0.79 0 1 0 0,-1.57 h -0.18 l -0.31,-0.49 1,-1.39 H 12 v -0.76 h 2.91 v 0.69 z"
       id="path129"
       inkscape:connector-curvature="0" />
    <path
       style="fill:#cccccc"
       class="cls-5"
       d="m 10.65,315.27 -0.33,-1 h -2 l -0.33,1 H 7.13 l 1.71,-4.9 h 0.94 l 1.71,4.9 z m -2.09,-1.74 h 1.5 l -0.75,-2.21 z"
       id="path131"
       inkscape:connector-curvature="0" />
    <path
       style="fill:#cccccc"
       class="cls-5"
       d="m 15.32,313.64 v 0.75 h -0.54 v 0.88 H 14 v -0.88 h -2.33 v -0.75 l 1.63,-3.27 h 0.85 l -1.63,3.27 H 14 v -1.27 h 0.78 v 1.27 z"
       id="path133"
       inkscape:connector-curvature="0" />
    <path
       style="fill:#cccccc"
       class="cls-5"
       d="m 12.36,97.85 v 0.33 a 2.25,2.25 0 0 1 -0.64,1.66 2.3,2.3 0 0 1 -1.68,0.63 2.42,2.42 0 0 1 -1.81,-0.73 2.65,2.65 0 0 1 0,-3.61 2.45,2.45 0 0 1 3.84,0.42 l -0.67,0.4 a 1.56,1.56 0 0 0 -1.4,-0.78 1.61,1.61 0 0 0 -1.22,0.51 1.88,1.88 0 0 0 0,2.51 1.7,1.7 0 0 0 1.27,0.5 1.42,1.42 0 0 0 1.53,-1.12 H 10 v -0.72 z"
       id="path135"
       inkscape:connector-curvature="0" />
    <path
       style="fill:#cccccc"
       class="cls-5"
       d="m 14.06,95.48 h 0.68 v 4.9 H 14 v -4 l -1,0.28 -0.19,-0.69 z"
       id="path137"
       inkscape:connector-curvature="0" />
    <path
       style="fill:#cccccc"
       class="cls-5"
       d="M 75.55,128.67 V 129 a 2.24,2.24 0 0 1 -0.64,1.66 2.3,2.3 0 0 1 -1.68,0.63 2.42,2.42 0 0 1 -1.81,-0.73 2.65,2.65 0 0 1 0,-3.61 2.39,2.39 0 0 1 1.77,-0.74 2.35,2.35 0 0 1 2.06,1.16 l -0.67,0.4 a 1.53,1.53 0 0 0 -1.39,-0.77 1.6,1.6 0 0 0 -1.22,0.5 1.75,1.75 0 0 0 -0.48,1.26 1.73,1.73 0 0 0 0.51,1.24 1.7,1.7 0 0 0 1.27,0.5 1.42,1.42 0 0 0 1.53,-1.12 h -1.61 v -0.72 z"
       id="path139"
       inkscape:connector-curvature="0" />
    <path
       style="fill:#cccccc"
       class="cls-5"
       d="m 76.13,131.2 v -0.63 l 1.65,-1.74 a 1.72,1.72 0 0 0 0.6,-1.08 0.69,0.69 0 0 0 -0.73,-0.75 0.93,0.93 0 0 0 -0.88,0.6 l -0.65,-0.39 a 1.61,1.61 0 0 1 1.52,-1 1.49,1.49 0 0 1 1.07,0.41 1.4,1.4 0 0 1 0.45,1.1 2.43,2.43 0 0 1 -0.81,1.6 l -1.07,1.11 h 2 v 0.77 z"
       id="path141"
       inkscape:connector-curvature="0" />
    <path
       style="fill:#cccccc"
       class="cls-5"
       d="m 75.51,159.81 v 0.34 a 2.19,2.19 0 0 1 -2.31,2.29 2.45,2.45 0 0 1 -1.82,-0.74 2.65,2.65 0 0 1 0,-3.61 2.45,2.45 0 0 1 3.84,0.42 l -0.67,0.4 a 1.55,1.55 0 0 0 -1.39,-0.77 1.61,1.61 0 0 0 -1.23,0.5 1.77,1.77 0 0 0 -0.48,1.26 1.68,1.68 0 0 0 1.75,1.75 1.42,1.42 0 0 0 1.53,-1.12 h -1.58 v -0.72 z"
       id="path143"
       inkscape:connector-curvature="0" />
    <path
       style="fill:#cccccc"
       class="cls-5"
       d="m 78.14,159.44 a 1.43,1.43 0 0 1 1.16,1.42 1.51,1.51 0 0 1 -0.48,1.16 1.72,1.72 0 0 1 -1.18,0.42 1.61,1.61 0 0 1 -1.59,-1 l 0.66,-0.4 a 0.89,0.89 0 0 0 0.93,0.63 0.79,0.79 0 1 0 0,-1.58 h -0.18 l -0.31,-0.48 1,-1.39 h -2 v -0.76 h 2.95 v 0.69 z"
       id="path145"
       inkscape:connector-curvature="0" />
    <path
       style="fill:#cccccc"
       class="cls-5"
       d="m 75.38,190.45 v 0.33 a 2.28,2.28 0 0 1 -0.64,1.66 2.3,2.3 0 0 1 -1.68,0.63 2.42,2.42 0 0 1 -1.81,-0.73 2.65,2.65 0 0 1 0,-3.61 2.44,2.44 0 0 1 3.83,0.42 l -0.67,0.4 a 1.54,1.54 0 0 0 -1.39,-0.78 1.59,1.59 0 0 0 -1.22,0.51 1.88,1.88 0 0 0 0,2.51 1.7,1.7 0 0 0 1.27,0.5 1.43,1.43 0 0 0 1.53,-1.12 H 73 v -0.72 z"
       id="path147"
       inkscape:connector-curvature="0" />
    <path
       style="fill:#cccccc"
       class="cls-5"
       d="m 79.55,191.35 v 0.75 H 79 v 0.9 h -0.78 v -0.88 H 75.9 v -0.75 l 1.63,-3.27 h 0.85 l -1.63,3.27 h 1.48 V 190.1 H 79 v 1.27 z"
       id="path149"
       inkscape:connector-curvature="0" />
    <path
       style="fill:#cccccc"
       class="cls-5"
       d="m 75.07,223 -0.33,-1 h -2 l -0.34,1 h -0.84 l 1.72,-4.9 h 0.93 l 1.71,4.9 z M 73,221.26 h 1.5 l -0.75,-2.21 z"
       id="path151"
       inkscape:connector-curvature="0" />
    <path
       style="fill:#cccccc"
       class="cls-5"
       d="M 77.27,218.1 H 78 v 4.9 h -0.78 v -4 l -1,0.28 -0.19,-0.68 z"
       id="path153"
       inkscape:connector-curvature="0" />
    <path
       style="fill:#cccccc"
       class="cls-5"
       d="m 74.54,253.76 -0.33,-1 h -2 l -0.34,1 H 71 l 1.72,-4.9 h 0.93 l 1.71,4.9 z M 72.45,252 H 74 l -0.75,-2.22 z"
       id="path155"
       inkscape:connector-curvature="0" />
    <path
       style="fill:#cccccc"
       class="cls-5"
       d="m 75.62,253.76 v -0.63 l 1.65,-1.74 a 1.75,1.75 0 0 0 0.6,-1.08 0.7,0.7 0 0 0 -0.73,-0.76 0.92,0.92 0 0 0 -0.88,0.61 l -0.66,-0.4 a 1.64,1.64 0 0 1 1.53,-1 1.55,1.55 0 0 1 1.07,0.4 1.43,1.43 0 0 1 0.45,1.11 2.43,2.43 0 0 1 -0.81,1.6 L 76.77,253 h 2 v 0.78 z"
       id="path157"
       inkscape:connector-curvature="0" />
    <path
       style="fill:#cccccc"
       class="cls-5"
       d="m 74.5,284.52 -0.33,-1 h -2 l -0.33,1 H 71 l 1.72,-4.91 h 0.93 l 1.71,4.91 z m -2.08,-1.75 h 1.5 l -0.75,-2.21 z"
       id="path159"
       inkscape:connector-curvature="0" />
    <path
       style="fill:#cccccc"
       class="cls-5"
       d="m 77.63,281.62 a 1.43,1.43 0 0 1 1.16,1.38 1.5,1.5 0 0 1 -0.48,1.16 1.72,1.72 0 0 1 -1.18,0.42 1.61,1.61 0 0 1 -1.59,-1 l 0.66,-0.4 a 0.88,0.88 0 0 0 0.93,0.63 0.79,0.79 0 1 0 0,-1.57 H 77 l -0.31,-0.49 1,-1.39 h -2 v -0.76 h 2.91 v 0.69 z"
       id="path161"
       inkscape:connector-curvature="0" />
    <path
       style="fill:#cccccc"
       class="cls-5"
       d="m 74.37,315.27 -0.33,-1 H 72 l -0.33,1 h -0.84 l 1.71,-4.9 h 0.94 l 1.71,4.9 z m -2.09,-1.74 h 1.5 L 73,311.32 Z"
       id="path163"
       inkscape:connector-curvature="0" />
    <path
       style="fill:#cccccc"
       class="cls-5"
       d="m 79,313.64 v 0.75 h -0.5 v 0.88 h -0.78 v -0.88 h -2.33 v -0.75 L 77,310.37 h 0.85 l -1.63,3.27 h 1.48 v -1.27 h 0.78 v 1.27 z"
       id="path165"
       inkscape:connector-curvature="0" />
    <path
       style="fill:#cccccc"
       class="cls-5"
       d="m 76.08,97.85 v 0.33 a 2.25,2.25 0 0 1 -0.64,1.66 2.3,2.3 0 0 1 -1.68,0.63 2.42,2.42 0 0 1 -1.76,-0.73 2.65,2.65 0 0 1 0,-3.61 2.45,2.45 0 0 1 3.84,0.42 l -0.67,0.4 a 1.56,1.56 0 0 0 -1.4,-0.78 1.61,1.61 0 0 0 -1.22,0.51 1.88,1.88 0 0 0 0,2.51 1.7,1.7 0 0 0 1.27,0.5 1.42,1.42 0 0 0 1.53,-1.12 h -1.63 v -0.72 z"
       id="path167"
       inkscape:connector-curvature="0" />
    <path
       style="fill:#cccccc"
       class="cls-5"
       d="m 77.78,95.48 h 0.68 v 4.9 h -0.78 v -4 l -1,0.28 -0.19,-0.69 z"
       id="path169"
       inkscape:connector-curvature="0" />
  </g>
</svg>
