<?xml version="1.0" encoding="UTF-8" standalone="no"?>
<svg
   xmlns:dc="http://purl.org/dc/elements/1.1/"
   xmlns:cc="http://creativecommons.org/ns#"
   xmlns:rdf="http://www.w3.org/1999/02/22-rdf-syntax-ns#"
   xmlns:svg="http://www.w3.org/2000/svg"
   xmlns="http://www.w3.org/2000/svg"
   xmlns:sodipodi="http://sodipodi.sourceforge.net/DTD/sodipodi-0.dtd"
   xmlns:inkscape="http://www.inkscape.org/namespaces/inkscape"
   inkscape:version="0.92.2 (5c3e80d, 2017-08-06)"
   height="128.5mm"
   width="30.48mm"
   sodipodi:docname="unmeld-9-16.svg"
   id="svg169"
   version="1.1"
   viewBox="0 0 115.2 485.66928">
  <metadata
     id="metadata173">
    <rdf:RDF>
      <cc:Work
         rdf:about="">
        <dc:format>image/svg+xml</dc:format>
        <dc:type
           rdf:resource="http://purl.org/dc/dcmitype/StillImage" />
        <dc:title>Asset 9</dc:title>
      </cc:Work>
    </rdf:RDF>
  </metadata>
  <sodipodi:namedview
     inkscape:current-layer="svg169"
     inkscape:window-maximized="0"
     inkscape:window-y="413"
     inkscape:window-x="0"
     inkscape:cy="68.571433"
     inkscape:cx="-121.42857"
     inkscape:zoom="0.35"
     units="mm"
     inkscape:document-units="mm"
     showgrid="false"
     id="namedview171"
     inkscape:window-height="768"
     inkscape:window-width="1366"
     inkscape:pageshadow="2"
     inkscape:pageopacity="0"
     guidetolerance="10"
     gridtolerance="10"
     objecttolerance="10"
     borderopacity="1"
     inkscape:document-rotation="0"
     bordercolor="#666666"
     pagecolor="#ffffff" />
  <defs
     id="defs17">
    <style
       id="style10">.cls-1{fill:#353535;}.cls-2{fill:url(#linear-gradient);}.cls-3{fill:gray;}.cls-4{fill:#b3b3b3;}.cls-5{fill:#ccc;}.cls-6{fill:#121212;}.cls-7{fill:#fff;}</style>
    <linearGradient
       gradientUnits="userSpaceOnUse"
       y2="349.56"
       x2="40.939999"
       y1="349.56"
       x1="21.09"
       id="linear-gradient">
      <stop
         id="stop12"
         stop-color="#3fa9f5"
         offset="0" />
      <stop
         id="stop14"
         stop-color="#ed1e79"
         offset="1" />
    </linearGradient>
  </defs>
  <title
     id="title19">Asset 9</title>
  <g
     id="Layer_2-2"
     data-name="Layer 2"
     transform="scale(1.3333333,1.3333406)">
    <g
       id="background">
      <path
         style="fill:#353535"
         id="rect4155"
         class="cls-1"
         d="M 0,0 H 86.4 V 364.25 H 0 Z"
         inkscape:connector-curvature="0" />
    </g>
  </g>
  <g
     id="branding"
     transform="scale(1.3333333,1.3333406)">
    <path
       class="cls-2"
       d="m 21.6,355.74 a 0.47,0.47 0 0 1 -0.25,-0.07 0.51,0.51 0 0 1 -0.2,-0.7 l 6.27,-11.32 a 0.52,0.52 0 0 1 1,0.25 v 9.33 l 5.31,-9.58 a 0.51,0.51 0 0 1 0.58,-0.25 0.52,0.52 0 0 1 0.38,0.5 v 9.33 L 40,343.65 a 0.51,0.51 0 0 1 0.58,-0.25 0.51,0.51 0 0 1 0.39,0.5 v 11.32 a 0.52,0.52 0 0 1 -0.52,0.52 0.51,0.51 0 0 1 -0.51,-0.52 v -9.33 l -5.31,9.58 a 0.52,0.52 0 0 1 -1,-0.25 v -9.33 l -5.31,9.58 a 0.51,0.51 0 0 1 -0.58,0.25 0.52,0.52 0 0 1 -0.38,-0.5 v -9.33 l -5.31,9.58 a 0.51,0.51 0 0 1 -0.45,0.27 z"
       id="path24"
       inkscape:connector-curvature="0"
       style="fill:url(#linear-gradient)" />
    <path
       style="fill:#808080"
       class="cls-3"
       d="m 43.43,343.9 a 0.5,0.5 0 0 1 0.5,-0.5 H 44 a 0.54,0.54 0 0 1 0.47,0.26 l 1.71,2.68 1.72,-2.69 a 0.51,0.51 0 0 1 0.46,-0.25 h 0.1 a 0.5,0.5 0 0 1 0.51,0.5 v 4.72 a 0.49,0.49 0 0 1 -0.51,0.49 0.5,0.5 0 0 1 -0.49,-0.49 v -3.39 l -1.38,2.08 a 0.47,0.47 0 0 1 -0.84,0 l -1.37,-2.06 v 3.38 a 0.48,0.48 0 0 1 -0.5,0.48 0.47,0.47 0 0 1 -0.48,-0.48 z"
       id="path26"
       inkscape:connector-curvature="0" />
    <path
       style="fill:#b3b3b3"
       class="cls-4"
       d="m 48.49,343.4 h -0.1 a 0.51,0.51 0 0 0 -0.46,0.25 l -1.72,2.69 -1.71,-2.68 a 0.54,0.54 0 0 0 -0.47,-0.26 h -0.1 a 0.5,0.5 0 0 0 -0.5,0.5 v 4.73 a 0.47,0.47 0 0 0 0.48,0.48 0.48,0.48 0 0 0 0.5,-0.48 v -3.38 l 1.37,2.06 a 0.47,0.47 0 0 0 0.84,0 L 48,345.23 v 3.39 a 0.5,0.5 0 0 0 0.49,0.49 0.49,0.49 0 0 0 0.51,-0.49 v -4.72 a 0.5,0.5 0 0 0 -0.51,-0.5 z"
       id="path28"
       inkscape:connector-curvature="0" />
    <path
       style="fill:#808080"
       class="cls-3"
       d="m 50.11,343.88 a 0.5,0.5 0 0 1 1,0 v 4.74 a 0.5,0.5 0 0 1 -1,0 z"
       id="path30"
       inkscape:connector-curvature="0" />
    <path
       style="fill:#b3b3b3"
       class="cls-4"
       d="m 50.61,343.39 a 0.49,0.49 0 0 0 -0.5,0.49 v 4.74 a 0.5,0.5 0 0 0 1,0 v -4.74 a 0.49,0.49 0 0 0 -0.49,-0.49 z"
       id="path32"
       inkscape:connector-curvature="0" />
    <path
       style="fill:#808080"
       class="cls-3"
       d="m 52.21,343.9 a 0.5,0.5 0 0 1 0.5,-0.5 h 0.11 a 0.64,0.64 0 0 1 0.52,0.29 l 2.83,3.65 v -3.47 a 0.5,0.5 0 0 1 1,0 v 4.74 a 0.49,0.49 0 0 1 -0.49,0.5 v 0 a 0.66,0.66 0 0 1 -0.52,-0.3 l -2.91,-3.76 v 3.58 a 0.5,0.5 0 0 1 -1,0 z"
       id="path34"
       inkscape:connector-curvature="0" />
    <path
       style="fill:#b3b3b3"
       class="cls-4"
       d="m 56.65,343.39 a 0.49,0.49 0 0 0 -0.48,0.48 v 3.47 l -2.83,-3.65 a 0.64,0.64 0 0 0 -0.52,-0.29 h -0.11 a 0.5,0.5 0 0 0 -0.5,0.5 v 4.73 a 0.5,0.5 0 0 0 1,0 v -3.58 l 2.91,3.76 a 0.66,0.66 0 0 0 0.52,0.3 v 0 a 0.49,0.49 0 0 0 0.49,-0.5 v -4.74 a 0.49,0.49 0 0 0 -0.5,-0.48 z"
       id="path36"
       inkscape:connector-curvature="0" />
    <path
       style="fill:#808080"
       class="cls-3"
       d="m 58.2,343.93 a 0.5,0.5 0 0 1 0.51,-0.5 h 1.61 a 2.82,2.82 0 0 1 3,2.8 v 0 a 2.83,2.83 0 0 1 -3,2.82 h -1.61 a 0.49,0.49 0 0 1 -0.51,-0.5 z m 2.12,4.24 a 1.84,1.84 0 0 0 2,-1.9 v 0 a 1.85,1.85 0 0 0 -2,-1.92 H 59.2 v 3.84 z"
       id="path38"
       inkscape:connector-curvature="0" />
    <path
       style="fill:#b3b3b3"
       class="cls-4"
       d="m 60.32,343.43 h -1.61 a 0.5,0.5 0 0 0 -0.51,0.5 v 4.64 a 0.49,0.49 0 0 0 0.51,0.5 h 1.61 a 2.83,2.83 0 0 0 3,-2.82 v 0 a 2.82,2.82 0 0 0 -3,-2.8 z m -1.12,4.74 v -3.84 h 1.12 a 1.85,1.85 0 0 1 2,1.92 v 0 a 1.84,1.84 0 0 1 -2,1.9 z"
       id="path40"
       inkscape:connector-curvature="0" />
    <path
       style="fill:#808080"
       class="cls-3"
       d="m 43.43,350.51 a 0.5,0.5 0 0 1 0.5,-0.5 H 44 a 0.54,0.54 0 0 1 0.47,0.26 l 1.74,2.73 1.72,-2.68 a 0.52,0.52 0 0 1 0.46,-0.26 h 0.1 a 0.5,0.5 0 0 1 0.51,0.5 v 4.72 a 0.5,0.5 0 0 1 -0.51,0.5 0.51,0.51 0 0 1 -0.49,-0.5 v -3.38 l -1.38,2.07 a 0.47,0.47 0 0 1 -0.84,0 l -1.37,-2.06 v 3.38 a 0.49,0.49 0 0 1 -0.5,0.49 0.48,0.48 0 0 1 -0.48,-0.49 z"
       id="path42"
       inkscape:connector-curvature="0" />
    <path
       style="fill:#b3b3b3"
       class="cls-4"
       d="m 48.49,350 h -0.1 a 0.52,0.52 0 0 0 -0.46,0.26 L 46.21,353 44.5,350.32 A 0.54,0.54 0 0 0 44,350 h -0.1 a 0.5,0.5 0 0 0 -0.5,0.5 v 4.73 a 0.48,0.48 0 0 0 0.48,0.49 0.49,0.49 0 0 0 0.5,-0.49 v -3.38 l 1.37,2.06 a 0.47,0.47 0 0 0 0.84,0 L 48,351.85 v 3.38 a 0.51,0.51 0 0 0 0.49,0.5 0.5,0.5 0 0 0 0.51,-0.5 v -4.72 a 0.5,0.5 0 0 0 -0.51,-0.5 z"
       id="path44"
       inkscape:connector-curvature="0" />
    <path
       style="fill:#808080"
       class="cls-3"
       d="m 50.05,355.19 v -4.65 a 0.5,0.5 0 0 1 0.5,-0.5 h 3.3 a 0.45,0.45 0 0 1 0,0.89 h -2.8 v 1.46 h 2.43 a 0.46,0.46 0 0 1 0.45,0.46 0.44,0.44 0 0 1 -0.45,0.43 h -2.43 v 1.52 h 2.84 a 0.45,0.45 0 0 1 0,0.89 h -3.34 a 0.5,0.5 0 0 1 -0.5,-0.5 z"
       id="path46"
       inkscape:connector-curvature="0" />
    <path
       style="fill:#b3b3b3"
       class="cls-4"
       d="m 53.85,350 h -3.3 a 0.5,0.5 0 0 0 -0.5,0.5 v 4.65 a 0.5,0.5 0 0 0 0.5,0.5 h 3.34 a 0.45,0.45 0 0 0 0,-0.89 h -2.84 v -1.52 h 2.43 a 0.44,0.44 0 0 0 0.45,-0.43 0.46,0.46 0 0 0 -0.45,-0.46 h -2.43 v -1.46 h 2.8 a 0.45,0.45 0 0 0 0,-0.89 z"
       id="path48"
       inkscape:connector-curvature="0" />
    <path
       style="fill:#808080"
       class="cls-3"
       d="m 55.07,350.49 a 0.5,0.5 0 0 1 1,0 v 4.29 h 2.56 a 0.45,0.45 0 0 1 0.45,0.45 0.46,0.46 0 0 1 -0.45,0.46 h -3.06 a 0.5,0.5 0 0 1 -0.5,-0.5 z"
       id="path50"
       inkscape:connector-curvature="0" />
    <path
       style="fill:#b3b3b3"
       class="cls-4"
       d="m 55.57,350 a 0.49,0.49 0 0 0 -0.5,0.49 v 4.7 a 0.5,0.5 0 0 0 0.5,0.5 h 3.06 a 0.46,0.46 0 0 0 0.45,-0.46 0.45,0.45 0 0 0 -0.45,-0.45 h -2.56 v -4.29 A 0.49,0.49 0 0 0 55.57,350 Z"
       id="path52"
       inkscape:connector-curvature="0" />
    <path
       style="fill:#808080"
       class="cls-3"
       d="m 59.68,350.54 a 0.5,0.5 0 0 1 0.5,-0.5 h 1.61 a 2.82,2.82 0 0 1 3,2.81 v 0 a 2.84,2.84 0 0 1 -3,2.83 h -1.61 a 0.5,0.5 0 0 1 -0.5,-0.5 z m 2.11,4.24 a 1.85,1.85 0 0 0 2,-1.9 v 0 a 1.86,1.86 0 0 0 -2,-1.92 h -1.12 v 3.84 z"
       id="path54"
       inkscape:connector-curvature="0" />
    <path
       style="fill:#b3b3b3"
       class="cls-4"
       d="m 61.79,350 h -1.61 a 0.5,0.5 0 0 0 -0.5,0.5 v 4.65 a 0.5,0.5 0 0 0 0.5,0.5 h 1.61 a 2.84,2.84 0 0 0 3,-2.83 v 0 a 2.82,2.82 0 0 0 -3,-2.81 z m -1.12,4.74 v -3.84 h 1.12 a 1.86,1.86 0 0 1 2,1.92 v 0 a 1.85,1.85 0 0 1 -2,1.9 z"
       id="path56"
       inkscape:connector-curvature="0" />
    <path
       style="fill:#cccccc"
       class="cls-5"
       d="m 19.55,17.66 a 2.67,2.67 0 0 1 -0.9,-2.12 V 9.89 h 1.65 v 5.52 c 0,0.87 0.49,1.43 1.56,1.43 1.07,0 1.56,-0.56 1.56,-1.43 V 9.89 h 1.65 v 5.65 a 2.67,2.67 0 0 1 -0.9,2.12 3.36,3.36 0 0 1 -2.31,0.79 3.36,3.36 0 0 1 -2.31,-0.79 z"
       id="path58"
       inkscape:connector-curvature="0" />
    <path
       style="fill:#cccccc"
       class="cls-5"
       d="m 32.1,9.89 h 1.66 v 8.4 H 32.5 l -3.6,-5.14 v 5.14 h -1.65 v -8.4 h 1.26 L 32.1,15 Z"
       id="path60"
       inkscape:connector-curvature="0" />
    <path
       style="fill:#cccccc"
       class="cls-5"
       d="m 44.22,9.89 v 8.4 h -1.64 v -5.45 l -2.36,3.9 H 40 l -2.36,-3.89 v 5.44 H 36 v -8.4 h 1.7 l 2.41,4 2.4,-4 z"
       id="path62"
       inkscape:connector-curvature="0" />
    <path
       style="fill:#cccccc"
       class="cls-5"
       d="m 48.12,16.7 h 3.54 v 1.59 h -5.19 v -8.4 h 5.13 v 1.58 h -3.48 v 1.79 h 3.18 v 1.56 h -3.18 z"
       id="path64"
       inkscape:connector-curvature="0" />
    <path
       style="fill:#cccccc"
       class="cls-5"
       d="m 55.17,16.7 h 3.2 v 1.59 h -4.86 v -8.4 h 1.66 z"
       id="path66"
       inkscape:connector-curvature="0" />
    <path
       style="fill:#cccccc"
       class="cls-5"
       d="m 63.33,9.89 a 3.84,3.84 0 0 1 2.88,1.21 4.17,4.17 0 0 1 1.16,3 4.17,4.17 0 0 1 -1.16,3 3.84,3.84 0 0 1 -2.88,1.21 H 60 V 9.89 Z m 0,6.81 A 2.31,2.31 0 0 0 65.1,16 2.63,2.63 0 0 0 65.79,14.11 2.59,2.59 0 0 0 65.1,12.23 2.26,2.26 0 0 0 63.33,11.49 h -1.68 v 5.21 z"
       id="path68"
       inkscape:connector-curvature="0" />
  </g>
  <g
     id="EQ_bgs_copy"
     data-name="EQ bgs copy"
     transform="scale(1.3333333,1.3333406)">
    <rect
       style="fill:#121212"
       class="cls-6"
       x="53.049999"
       y="28.35"
       width="27.92"
       height="36.849998"
       rx="1.42"
       id="rect71" />
    <rect
       style="fill:#121212"
       class="cls-6"
       x="4.9299998"
       y="83.830002"
       width="76.540001"
       height="27.92"
       rx="1.42"
       id="rect73" />
    <rect
       style="fill:#121212"
       class="cls-6"
       x="4.9299998"
       y="114.59"
       width="76.540001"
       height="27.92"
       rx="1.42"
       id="rect75" />
    <rect
       style="fill:#121212"
       class="cls-6"
       x="4.9299998"
       y="145.35001"
       width="76.540001"
       height="27.92"
       rx="1.42"
       id="rect77" />
    <rect
       style="fill:#121212"
       class="cls-6"
       x="4.9299998"
       y="176.10001"
       width="76.540001"
       height="27.92"
       rx="1.42"
       id="rect79" />
    <rect
       style="fill:#121212"
       class="cls-6"
       x="4.9299998"
       y="206.86"
       width="76.540001"
       height="27.92"
       rx="1.42"
       id="rect81" />
    <rect
       style="fill:#121212"
       class="cls-6"
       x="4.9299998"
       y="237.61"
       width="76.540001"
       height="27.92"
       rx="1.42"
       id="rect83" />
    <rect
       style="fill:#121212"
       class="cls-6"
       x="4.9299998"
       y="268.37"
       width="76.540001"
       height="27.92"
       rx="1.42"
       id="rect85" />
    <rect
       style="fill:#121212"
       class="cls-6"
       x="4.9299998"
       y="299.13"
       width="76.540001"
       height="27.92"
       rx="1.42"
       id="rect87" />
  </g>
  <g
     id="labels"
     transform="scale(1.3333333,1.3333406)">
    <path
       style="fill:#cccccc"
       class="cls-5"
       d="m 16.51,31.52 h 0.94 v 4.9 h -0.94 z"
       id="path90"
       inkscape:connector-curvature="0" />
    <path
       style="fill:#cccccc"
       class="cls-5"
       d="m 21.33,31.52 h 0.93 v 4.9 h -0.71 l -2,-3 v 3 h -0.94 v -4.9 h 0.71 l 2,3 z"
       id="path92"
       inkscape:connector-curvature="0" />
    <path
       style="fill:#cccccc"
       class="cls-5"
       d="m 62,31.52 v 0.92 h -1.3 v 4 h -0.93 v -4 H 58.5 v -0.92 z"
       id="path94"
       inkscape:connector-curvature="0" />
    <path
       style="fill:#cccccc"
       class="cls-5"
       d="m 65.46,31.52 h 0.92 v 4.9 h -0.92 v -2 H 63.7 v 2 h -0.93 v -4.9 h 0.93 v 1.94 h 1.76 z"
       id="path96"
       inkscape:connector-curvature="0" />
    <path
       style="fill:#cccccc"
       class="cls-5"
       d="m 70.13,36.42 -1,-1.7 h -0.71 v 1.7 h -0.93 v -4.9 h 1.89 a 1.53,1.53 0 0 1 1.12,0.47 1.63,1.63 0 0 1 0.5,1.15 1.61,1.61 0 0 1 -0.91,1.43 l 1,1.85 z m -1.67,-4 v 1.45 h 1 a 0.69,0.69 0 0 0 0.64,-0.73 0.68,0.68 0 0 0 -0.64,-0.72 z"
       id="path98"
       inkscape:connector-curvature="0" />
    <path
       style="fill:#cccccc"
       class="cls-5"
       d="m 72.41,36.06 a 1.63,1.63 0 0 1 -0.5,-1.24 v -3.3 h 0.92 v 3.22 a 0.88,0.88 0 0 0 1.76,0 v -3.22 h 0.93 v 3.3 a 1.63,1.63 0 0 1 -0.5,1.24 2.08,2.08 0 0 1 -2.61,0 z"
       id="path100"
       inkscape:connector-curvature="0" />
    <path
       style="fill:#ffffff"
       class="cls-7"
       d="m 28.77,78.86 h 2.13 v 1 h -3.24 v -5.6 h 1.11 z"
       id="path102"
       inkscape:connector-curvature="0" />
    <path
       style="fill:#ffffff"
       class="cls-7"
       d="M 58.06,79.91 56.93,78 h -0.84 v 1.94 H 55 v -5.6 h 2.24 A 1.86,1.86 0 0 1 59.1,76.2 1.82,1.82 0 0 1 58,77.8 l 1.24,2.11 z m -2,-4.56 V 77 h 1.14 a 0.81,0.81 0 0 0 0.76,-0.83 0.79,0.79 0 0 0 -0.76,-0.82 z"
       id="path104"
       inkscape:connector-curvature="0" />
  </g>
  <g
     id="_9-16"
     data-name="9-16"
     transform="scale(1.3333333,1.3333406)">
    <path
       style="fill:#cccccc"
       class="cls-5"
       d="m 9.21,126.3 h 0.68 v 4.9 H 9.11 v -4 L 8.16,127.48 8,126.76 Z"
       id="path107"
       inkscape:connector-curvature="0" />
    <path
       style="fill:#cccccc"
       class="cls-5"
       d="m 12.52,131.29 a 1.6,1.6 0 0 1 -1.37,-0.69 3.74,3.74 0 0 1 0,-3.7 1.71,1.71 0 0 1 2.74,0 3.74,3.74 0 0 1 0,3.7 1.58,1.58 0 0 1 -1.37,0.69 z m 1.08,-2.54 c 0,-1.13 -0.37,-1.75 -1.08,-1.75 -0.71,0 -1.08,0.62 -1.08,1.75 0,1.13 0.39,1.76 1.08,1.76 0.69,0 1.08,-0.63 1.08,-1.76 z"
       id="path109"
       inkscape:connector-curvature="0" />
    <path
       style="fill:#cccccc"
       class="cls-5"
       d="m 10.08,157.44 h 0.68 v 4.9 H 10 v -4 l -1,0.28 -0.19,-0.68 z"
       id="path111"
       inkscape:connector-curvature="0" />
    <path
       style="fill:#cccccc"
       class="cls-5"
       d="m 12.6,157.44 h 0.67 v 4.9 H 12.5 v -4 l -1,0.28 -0.19,-0.68 z"
       id="path113"
       inkscape:connector-curvature="0" />
    <path
       style="fill:#cccccc"
       class="cls-5"
       d="m 9.55,188.08 h 0.68 V 193 H 9.45 v -4 l -0.95,0.28 -0.19,-0.69 z"
       id="path115"
       inkscape:connector-curvature="0" />
    <path
       style="fill:#cccccc"
       class="cls-5"
       d="m 10.94,193 v -0.63 l 1.65,-1.74 a 1.77,1.77 0 0 0 0.61,-1.08 0.7,0.7 0 0 0 -0.73,-0.76 0.94,0.94 0 0 0 -0.88,0.61 L 10.93,189 a 1.63,1.63 0 0 1 1.53,-1 1.55,1.55 0 0 1 1.07,0.4 1.46,1.46 0 0 1 0.47,1.1 2.46,2.46 0 0 1 -0.8,1.6 l -1.07,1.1 h 2 v 0.8 z"
       id="path117"
       inkscape:connector-curvature="0" />
    <path
       style="fill:#cccccc"
       class="cls-5"
       d="m 9.52,218.1 h 0.67 V 223 H 9.42 v -4 l -1,0.28 -0.19,-0.68 z"
       id="path119"
       inkscape:connector-curvature="0" />
    <path
       style="fill:#cccccc"
       class="cls-5"
       d="m 13,220.11 a 1.41,1.41 0 0 1 1.15,1.41 1.47,1.47 0 0 1 -0.48,1.16 1.71,1.71 0 0 1 -1.17,0.42 1.6,1.6 0 0 1 -1.59,-1 l 0.66,-0.4 a 0.88,0.88 0 0 0 0.93,0.63 0.79,0.79 0 1 0 0,-1.57 h -0.18 l -0.31,-0.49 1,-1.39 H 11 v -0.76 h 2.91 v 0.69 z"
       id="path121"
       inkscape:connector-curvature="0" />
    <path
       style="fill:#cccccc"
       class="cls-5"
       d="m 9.38,248.86 h 0.68 v 4.9 H 9.28 v -4 l -0.95,0.28 -0.19,-0.69 z"
       id="path123"
       inkscape:connector-curvature="0" />
    <path
       style="fill:#cccccc"
       class="cls-5"
       d="m 14.37,252.13 v 0.75 h -0.54 v 0.88 H 13 v -0.88 h -2.28 v -0.75 l 1.63,-3.27 h 0.84 l -1.63,3.27 H 13 v -1.28 h 0.79 v 1.28 z"
       id="path125"
       inkscape:connector-curvature="0" />
    <path
       style="fill:#cccccc"
       class="cls-5"
       d="m 9.5,279.61 h 0.68 v 4.91 H 9.4 v -4 l -1,0.28 -0.19,-0.69 z"
       id="path127"
       inkscape:connector-curvature="0" />
    <path
       style="fill:#cccccc"
       class="cls-5"
       d="m 12.54,281.46 a 1.64,1.64 0 0 1 1.14,0.42 1.64,1.64 0 0 1 0,2.31 1.72,1.72 0 0 1 -1.18,0.42 1.62,1.62 0 0 1 -1.61,-1.05 l 0.67,-0.4 a 0.87,0.87 0 0 0 0.94,0.66 0.78,0.78 0 0 0 0.88,-0.79 0.77,0.77 0 0 0 -0.86,-0.78 h -1.39 l 0.18,-2.64 H 14 v 0.76 h -2 v 1.09 z"
       id="path129"
       inkscape:connector-curvature="0" />
    <path
       style="fill:#cccccc"
       class="cls-5"
       d="m 9.5,310.37 h 0.68 v 4.9 H 9.4 v -4 l -1,0.28 -0.19,-0.68 z"
       id="path131"
       inkscape:connector-curvature="0" />
    <path
       style="fill:#cccccc"
       class="cls-5"
       d="m 12.53,312 a 1.61,1.61 0 0 1 1.67,1.67 1.68,1.68 0 1 1 -3.35,0 1.76,1.76 0 0 1 0.28,-1 l 1.5,-2.33 h 0.89 L 12.44,312 Z m 0.89,1.67 a 0.9,0.9 0 1 0 -0.89,0.91 0.86,0.86 0 0 0 0.89,-0.89 z"
       id="path133"
       inkscape:connector-curvature="0" />
    <path
       style="fill:#cccccc"
       class="cls-5"
       d="m 12.66,98.05 -1.5,2.33 h -0.89 l 1.08,-1.64 h -0.08 a 1.67,1.67 0 0 1 -1.21,-0.47 1.64,1.64 0 0 1 -0.47,-1.21 1.61,1.61 0 0 1 1.68,-1.67 1.59,1.59 0 0 1 1.2,0.47 1.61,1.61 0 0 1 0.47,1.2 1.76,1.76 0 0 1 -0.28,0.99 z M 11.27,98 a 0.91,0.91 0 1 0 -0.9,-0.91 0.87,0.87 0 0 0 0.9,0.91 z"
       id="path135"
       inkscape:connector-curvature="0" />
    <path
       style="fill:#cccccc"
       class="cls-5"
       d="m 72.93,126.3 h 0.68 v 4.9 h -0.78 v -4 l -1,0.28 -0.19,-0.68 z"
       id="path137"
       inkscape:connector-curvature="0" />
    <path
       style="fill:#cccccc"
       class="cls-5"
       d="m 76.24,131.29 a 1.58,1.58 0 0 1 -1.37,-0.69 3.74,3.74 0 0 1 0,-3.7 1.71,1.71 0 0 1 2.74,0 3.74,3.74 0 0 1 0,3.7 1.58,1.58 0 0 1 -1.37,0.69 z m 1.08,-2.54 c 0,-1.13 -0.37,-1.75 -1.08,-1.75 -0.71,0 -1.08,0.62 -1.08,1.75 0,1.13 0.39,1.76 1.08,1.76 0.69,0 1.08,-0.63 1.08,-1.76 z"
       id="path139"
       inkscape:connector-curvature="0" />
    <path
       style="fill:#cccccc"
       class="cls-5"
       d="m 73.8,157.44 h 0.68 v 4.9 H 73.7 v -4 l -1,0.28 -0.19,-0.68 z"
       id="path141"
       inkscape:connector-curvature="0" />
    <path
       style="fill:#cccccc"
       class="cls-5"
       d="M 76.32,157.44 H 77 v 4.9 h -0.78 v -4 l -0.95,0.28 -0.19,-0.68 z"
       id="path143"
       inkscape:connector-curvature="0" />
    <path
       style="fill:#cccccc"
       class="cls-5"
       d="M 73.27,188.08 H 74 V 193 h -0.78 v -4 l -1,0.28 -0.19,-0.69 z"
       id="path145"
       inkscape:connector-curvature="0" />
    <path
       style="fill:#cccccc"
       class="cls-5"
       d="m 74.66,193 v -0.63 l 1.65,-1.74 a 1.75,1.75 0 0 0 0.6,-1.08 0.7,0.7 0 0 0 -0.73,-0.76 0.94,0.94 0 0 0 -0.88,0.61 L 74.65,189 a 1.63,1.63 0 0 1 1.53,-1 1.55,1.55 0 0 1 1.07,0.4 1.46,1.46 0 0 1 0.44,1.11 2.46,2.46 0 0 1 -0.8,1.6 l -1.07,1.1 h 2 V 193 Z"
       id="path147"
       inkscape:connector-curvature="0" />
    <path
       style="fill:#cccccc"
       class="cls-5"
       d="m 73.24,218.1 h 0.67 v 4.9 h -0.78 v -4 l -0.95,0.28 -0.19,-0.68 z"
       id="path149"
       inkscape:connector-curvature="0" />
    <path
       style="fill:#cccccc"
       class="cls-5"
       d="m 76.67,220.11 a 1.41,1.41 0 0 1 1.16,1.41 1.47,1.47 0 0 1 -0.48,1.16 1.72,1.72 0 0 1 -1.18,0.42 1.61,1.61 0 0 1 -1.59,-1 l 0.67,-0.4 a 0.87,0.87 0 0 0 0.92,0.63 0.79,0.79 0 1 0 0,-1.57 H 76 l -0.31,-0.49 1,-1.39 h -2 v -0.76 h 2.9 v 0.69 z"
       id="path151"
       inkscape:connector-curvature="0" />
    <path
       style="fill:#cccccc"
       class="cls-5"
       d="m 73.22,279.61 h 0.67 v 4.91 h -0.77 v -4 l -1,0.28 -0.19,-0.69 z"
       id="path153"
       inkscape:connector-curvature="0" />
    <path
       style="fill:#cccccc"
       class="cls-5"
       d="m 76.26,281.46 a 1.64,1.64 0 0 1 1.14,0.42 1.64,1.64 0 0 1 0,2.31 1.72,1.72 0 0 1 -1.18,0.42 1.62,1.62 0 0 1 -1.61,-1.05 l 0.67,-0.4 a 0.87,0.87 0 0 0 0.94,0.66 0.78,0.78 0 0 0 0.88,-0.79 0.77,0.77 0 0 0 -0.87,-0.78 h -1.38 l 0.18,-2.64 h 2.64 v 0.76 h -1.92 l -0.09,1.09 z"
       id="path155"
       inkscape:connector-curvature="0" />
    <path
       style="fill:#cccccc"
       class="cls-5"
       d="m 73.22,310.37 h 0.67 v 4.9 h -0.77 v -4 l -1,0.28 -0.19,-0.68 z"
       id="path157"
       inkscape:connector-curvature="0" />
    <path
       style="fill:#cccccc"
       class="cls-5"
       d="m 76.25,312 a 1.61,1.61 0 0 1 1.67,1.67 1.71,1.71 0 0 1 -2.92,1.23 1.6,1.6 0 0 1 -0.47,-1.21 1.76,1.76 0 0 1 0.28,-1 l 1.5,-2.33 H 77.2 L 76.16,312 Z m 0.89,1.67 a 0.9,0.9 0 1 0 -0.89,0.91 0.86,0.86 0 0 0 0.89,-0.89 z"
       id="path159"
       inkscape:connector-curvature="0" />
    <path
       style="fill:#cccccc"
       class="cls-5"
       d="m 76.37,98.05 -1.49,2.33 H 74 l 1.08,-1.64 H 75 a 1.67,1.67 0 0 1 -1.21,-0.47 1.64,1.64 0 0 1 -0.47,-1.21 1.61,1.61 0 0 1 1.68,-1.67 1.59,1.59 0 0 1 1.2,0.47 1.61,1.61 0 0 1 0.47,1.2 1.77,1.77 0 0 1 -0.3,0.99 z M 75,98 A 0.91,0.91 0 1 0 74.1,97.09 0.87,0.87 0 0 0 75,98 Z"
       id="path161"
       inkscape:connector-curvature="0" />
    <path
       style="fill:#cccccc"
       class="cls-5"
       d="m 73.18,248.86 h 0.67 v 4.9 h -0.77 v -4 l -1,0.28 -0.19,-0.69 z"
       id="path163"
       inkscape:connector-curvature="0" />
    <path
       style="fill:#cccccc"
       class="cls-5"
       d="m 78.16,252.13 v 0.75 h -0.54 v 0.88 h -0.78 v -0.88 h -2.33 v -0.75 l 1.63,-3.27 H 77 l -1.63,3.27 h 1.48 v -1.28 h 0.78 v 1.28 z"
       id="path165"
       inkscape:connector-curvature="0" />
  </g>
</svg>
