<?xml version="1.0" encoding="UTF-8" standalone="no"?>
<svg xmlns:dc="http://purl.org/dc/elements/1.1/" xmlns:cc="http://creativecommons.org/ns#" xmlns:rdf="http://www.w3.org/1999/02/22-rdf-syntax-ns#" xmlns:svg="http://www.w3.org/2000/svg" xmlns="http://www.w3.org/2000/svg" xmlns:sodipodi="http://sodipodi.sourceforge.net/DTD/sodipodi-0.dtd" xmlns:inkscape="http://www.inkscape.org/namespaces/inkscape" inkscape:version="1.0 (4035a4f, 2020-05-01)" sodipodi:docname="dim-off.svg" id="svg7135" version="1.1" viewBox="0 0 36.47244 18.897638" height="5mm" width="9.6499996mm">
  <metadata id="metadata7139">
    <rdf:RDF>
      <cc:Work rdf:about="">
        <dc:format>image/svg+xml</dc:format>
        <dc:type rdf:resource="http://purl.org/dc/dcmitype/StillImage" />
        <dc:title></dc:title>
      </cc:Work>
    </rdf:RDF>
  </metadata>
  <sodipodi:namedview inkscape:current-layer="svg7135" inkscape:window-maximized="0" inkscape:window-y="23" inkscape:window-x="0" inkscape:cy="7.0727248" inkscape:cx="13.65431" inkscape:zoom="19.584362" units="mm" inkscape:document-units="mm" showgrid="false" id="namedview7137" inkscape:window-height="864" inkscape:window-width="1447" inkscape:pageshadow="2" inkscape:pageopacity="0" guidetolerance="10" gridtolerance="10" objecttolerance="10" borderopacity="1" bordercolor="#666666" pagecolor="#ffffff" />
  <defs id="defs7115">
    <linearGradient gradientUnits="userSpaceOnUse" y2="13.85616" x2="13.65442" y1="0.28878" x1="13.65442" id="linear-gradient">
      <stop id="stop7100" stop-color="#212121" offset="0" />
      <stop id="stop7102" stop-color="#161616" offset="1" />
    </linearGradient>
    <linearGradient gradientUnits="userSpaceOnUse" y2="13.09308" x2="13.65377" y1="0.92113" x1="13.65377" id="linear-gradient-2">
      <stop id="stop7105" stop-color="#747474" offset="0" />
      <stop id="stop7107" stop-color="#5a5a5a" offset="1" />
    </linearGradient>
    <linearGradient gradientUnits="userSpaceOnUse" y2="12.79293" x2="13.65429" y1="1.9645801" x1="13.65429" id="linear-gradient-3">
      <stop id="stop7110" stop-color="#606060" offset="0" />
      <stop id="stop7112" stop-color="#505050" offset="1" />
    </linearGradient>
  </defs>
  <g transform="matrix(1.3355631,0,0,1.3355631,0,9.2098595e-4)" data-name="Layer 2" id="Layer_2">
    <g data-name="Layer 1" id="Layer_1-2">
      <g id="path6">
        <path id="path7117" style="fill:url(#linear-gradient)" d="m 1.64661,13.85616 a 1.34607,1.34607 0 0 1 -1.35791,-1.331 v -11 A 1.27269,1.27269 0 0 1 1.64661,0.28878 h 24.01513 a 1.34618,1.34618 0 0 1 1.3584,1.33105 v 10.90528 a 1.34618,1.34618 0 0 1 -1.3584,1.331 z" />
        <path id="path7119" d="m 25.662,0.57713 a 1.06593,1.06593 0 0 1 1.06952,1.04309 v 10.905 A 1.06594,1.06594 0 0 1 25.662,13.56831 H 1.64664 A 1.06592,1.06592 0 0 1 0.57715,12.52522 V 1.52539 A 0.98976,0.98976 0 0 1 1.64664,0.57713 H 25.662 M 25.662,0 H 1.64664 A 1.55453,1.55453 0 0 0 0,1.52539 v 10.99983 a 1.63544,1.63544 0 0 0 1.64664,1.62023 H 25.662 a 1.63546,1.63546 0 0 0 1.64666,-1.62023 V 1.62022 A 1.63545,1.63545 0 0 0 25.662,0 Z" />
      </g>
    </g>
    <g data-name="Layer 2" id="Layer_2-2">
      <rect id="rect7123" style="fill:url(#linear-gradient-2)" rx="0.89332998" height="12.17195" width="25.3512" y="0.92113" x="0.97816998" />
      <rect id="rect7125" style="fill:url(#linear-gradient-3)" rx="0.82160002" height="10.82835" width="24.10442" y="1.9645801" x="1.60208" />
    </g>
    <g id="M">
      <g id="g7131">
        <path style="fill:#ffffff" d="m 9.60366,4.95264 a 2.291,2.291 0 0 1 1.74028,0.73965 2.52789,2.52789 0 0 1 0.68011,1.81913 2.51791,2.51791 0 0 1 -0.70012,1.80913 2.291,2.291 0 0 1 -1.74027,0.73965 H 7.58334 V 4.95264 Z m 0,4.30794 A 1.51067,1.51067 0 0 0 10.77385,8.76082 1.75852,1.75852 0 0 0 11.23392,7.51142 1.75853,1.75853 0 0 0 10.77385,6.25202 1.50075,1.50075 0 0 0 9.60366,5.76225 H 8.43348 v 3.49833 z" id="path12" />
        <path style="fill:#ffffff" d="m 12.89418,4.95264 h 0.84014 v 5.10756 h -0.84014 z" id="path14" />
        <path style="fill:#ffffff" d="M 19.72526,4.95264 V 10.0602 H 18.88513 V 6.41194 l -1.55024,2.57877 h -0.11 L 15.67462,6.41194 V 10.0602 H 14.83449 V 4.95264 h 0.91014 l 1.54025,2.55878 1.54024,-2.55878 z" id="path16" />
      </g>
    </g>
  </g>
</svg>
