<?xml version="1.0" encoding="UTF-8" standalone="no"?>
<svg xmlns:dc="http://purl.org/dc/elements/1.1/" xmlns:cc="http://creativecommons.org/ns#" xmlns:rdf="http://www.w3.org/1999/02/22-rdf-syntax-ns#" xmlns:svg="http://www.w3.org/2000/svg" xmlns="http://www.w3.org/2000/svg" xmlns:xlink="http://www.w3.org/1999/xlink" xmlns:sodipodi="http://sodipodi.sourceforge.net/DTD/sodipodi-0.dtd" xmlns:inkscape="http://www.inkscape.org/namespaces/inkscape" inkscape:version="1.0 (4035a4f, 2020-05-01)" sodipodi:docname="dim-on.svg" id="svg8353" version="1.1" viewBox="0 0 36.47244 18.897637" height="5mm" width="9.6499996mm">
  <metadata id="metadata8357">
    <rdf:RDF>
      <cc:Work rdf:about="">
        <dc:format>image/svg+xml</dc:format>
        <dc:type rdf:resource="http://purl.org/dc/dcmitype/StillImage" />
        <dc:title></dc:title>
      </cc:Work>
    </rdf:RDF>
  </metadata>
  <sodipodi:namedview inkscape:current-layer="svg8353" inkscape:window-maximized="0" inkscape:window-y="23" inkscape:window-x="0" inkscape:cy="7.0727401" inkscape:cx="13.65431" inkscape:zoom="17.046513" units="mm" inkscape:document-units="mm" showgrid="false" id="namedview8355" inkscape:window-height="743" inkscape:window-width="1375" inkscape:pageshadow="2" inkscape:pageopacity="0" guidetolerance="10" gridtolerance="10" objecttolerance="10" borderopacity="1" bordercolor="#666666" pagecolor="#ffffff" />
  <defs id="defs8331">
    <linearGradient gradientUnits="userSpaceOnUse" y2="13.8564" x2="13.65442" y1="0.28902" x1="13.65442" id="linear-gradient">
      <stop id="stop8313" stop-color="#1e142e" offset="0" />
      <stop id="stop8315" stop-color="#160c1b" offset="1" />
    </linearGradient>
    <linearGradient gradientUnits="userSpaceOnUse" y2="13.0931" x2="13.65377" y1="0.92115003" x1="13.65377" id="linear-gradient-2">
      <stop id="stop8318" stop-color="#7c41a7" offset="0" />
      <stop id="stop8320" stop-color="#6a3689" offset="1" />
    </linearGradient>
    <linearGradient gradientUnits="userSpaceOnUse" y2="7.3787699" x2="1.60068" y1="7.3787699" x1="13.67627" id="linear-gradient-3">
      <stop id="stop8323" stop-color="#8255a4" offset="0" />
      <stop id="stop8325" stop-color="#7a4c9c" offset="0.391" />
      <stop id="stop8327" stop-color="#663588" offset="1" />
    </linearGradient>
    <linearGradient xlink:href="#linear-gradient-3" gradientTransform="matrix(-1,0,0,1,361.24051,0)" y2="7.3787799" x2="335.5347" y1="7.3787799" x1="347.60959" id="linear-gradient-4" />
    <linearGradient y2="7.3787699" x2="1.60068" y1="7.3787699" x1="13.67627" gradientUnits="userSpaceOnUse" id="linearGradient8920" xlink:href="#linear-gradient-3" inkscape:collect="always" />
  </defs>
  <g transform="matrix(1.3355631,0,0,1.3355631,0,9.2077367e-4)" data-name="Layer 2" id="Layer_2">
    <g data-name="Layer 1" id="Layer_1-2">
      <g style="opacity:0.8" id="path6">
        <path id="path8333" style="fill:url(#linear-gradient)" d="M 1.64661,13.8564 A 1.34607,1.34607 0 0 1 0.2887,12.52535 v -11 A 1.27269,1.27269 0 0 1 1.64661,0.289 h 24.01513 a 1.34618,1.34618 0 0 1 1.3584,1.33106 v 10.90529 a 1.34618,1.34618 0 0 1 -1.3584,1.33105 z" />
        <path id="path8335" style="fill:#110816" d="m 25.662,0.57715 a 1.06593,1.06593 0 0 1 1.06952,1.04309 v 10.905 A 1.06593,1.06593 0 0 1 25.662,13.56833 H 1.64664 A 1.06592,1.06592 0 0 1 0.57715,12.52524 V 1.52542 A 0.98975,0.98975 0 0 1 1.64664,0.57715 H 25.662 M 25.662,0 H 1.64664 A 1.55454,1.55454 0 0 0 0,1.52542 v 10.99982 a 1.63545,1.63545 0 0 0 1.64664,1.62024 H 25.662 a 1.63547,1.63547 0 0 0 1.64666,-1.62024 V 1.62024 A 1.63547,1.63547 0 0 0 25.662,0 Z" />
      </g>
    </g>
    <g data-name="Layer 2" id="Layer_2-2">
      <rect id="rect8339" style="fill:url(#linear-gradient-2)" rx="0.89332998" height="12.17195" width="25.3512" y="0.92115003" x="0.97816998" />
      <path id="path8341" style="fill:url(#linearGradient8920)" d="M 13.67627,12.793 H 2.42228 A 0.824,0.824 0 0 1 1.60068,11.9714 V 2.7862 a 0.824,0.824 0 0 1 0.8216,-0.8216 h 11.254 z" />
      <path id="path8343" style="fill:url(#linear-gradient-4)" d="m 13.63092,12.793 h 11.25329 a 0.824,0.824 0 0 0 0.8216,-0.8216 V 2.7862 A 0.824,0.824 0 0 0 24.88421,1.9646 H 13.63092 Z" />
    </g>
    <g id="M">
      <g id="g8349">
        <path style="fill:#ffffff" d="m 9.60366,4.95266 a 2.29109,2.29109 0 0 1 1.74028,0.73965 2.52789,2.52789 0 0 1 0.68011,1.81913 2.518,2.518 0 0 1 -0.70012,1.80914 2.291,2.291 0 0 1 -1.74027,0.73964 H 7.58334 V 4.95266 Z m 0,4.30794 A 1.51067,1.51067 0 0 0 10.77385,8.76084 1.75852,1.75852 0 0 0 11.23392,7.51144 1.75853,1.75853 0 0 0 10.77385,6.25204 1.50071,1.50071 0 0 0 9.60366,5.76228 H 8.43348 V 9.2606 Z" id="path12" />
        <path style="fill:#ffffff" d="m 12.89418,4.95266 h 0.84014 v 5.10756 h -0.84014 z" id="path14" />
        <path style="fill:#ffffff" d="m 19.72526,4.95266 v 5.10756 H 18.88513 V 6.412 l -1.55024,2.57873 h -0.11 L 15.67462,6.412 v 3.64825 H 14.83449 V 4.95266 h 0.91014 l 1.54025,2.55878 1.54024,-2.55878 z" id="path16" />
      </g>
    </g>
  </g>
</svg>
