<?xml version="1.0" encoding="UTF-8" standalone="no"?>
<!-- Generator: Adobe Illustrator 23.0.3, SVG Export Plug-In . SVG Version: 6.00 Build 0)  -->

<svg
   xmlns:dc="http://purl.org/dc/elements/1.1/"
   xmlns:cc="http://creativecommons.org/ns#"
   xmlns:rdf="http://www.w3.org/1999/02/22-rdf-syntax-ns#"
   xmlns:svg="http://www.w3.org/2000/svg"
   xmlns="http://www.w3.org/2000/svg"
   xmlns:sodipodi="http://sodipodi.sourceforge.net/DTD/sodipodi-0.dtd"
   xmlns:inkscape="http://www.inkscape.org/namespaces/inkscape"
   version="1.0"
   x="0px"
   y="0px"
   width="9.6499996mm"
   height="5mm"
   viewBox="0 0 36.47244 18.897638"
   enable-background="new 0 0 27.35433 14.17323"
   xml:space="preserve"
   id="svg46"
   sodipodi:docname="fade-on.svg"
   inkscape:version="0.92.2 5c3e80d, 2017-08-06"><metadata
     id="metadata52"><rdf:RDF><cc:Work
         rdf:about=""><dc:format>image/svg+xml</dc:format><dc:type
           rdf:resource="http://purl.org/dc/dcmitype/StillImage" /><dc:title></dc:title></cc:Work></rdf:RDF></metadata><defs
     id="defs50" /><sodipodi:namedview
     pagecolor="#ffffff"
     bordercolor="#666666"
     borderopacity="1"
     objecttolerance="10"
     gridtolerance="10"
     guidetolerance="10"
     inkscape:pageopacity="0"
     inkscape:pageshadow="2"
     inkscape:window-width="1438"
     inkscape:window-height="949"
     id="namedview48"
     showgrid="false"
     inkscape:document-units="mm"
     units="mm"
     inkscape:zoom="10.528498"
     inkscape:cx="-3.4192907"
     inkscape:cy="7.0866151"
     inkscape:window-x="256"
     inkscape:window-y="39"
     inkscape:window-maximized="0"
     inkscape:current-layer="svg46" /><g
     id="Layer_1"
     transform="translate(0,4.7244077)" /><g
     id="g876"><path
       d="m 1.768226,18.563801 c -0.79101306,0 -1.4348928,-0.643227 -1.4348928,-1.4336 V 1.7682341 c 0,-0.79101304 0.64387974,-1.43489278 1.4348928,-1.43489278 h 32.936187 c 0.791666,0 1.434893,0.64387974 1.434893,1.43489278 V 17.130201 c 0,0.79036 -0.643227,1.4336 -1.434893,1.4336 z"
       id="path3"
       inkscape:connector-curvature="0"
       style="fill:#ff6a1f;stroke-width:0.66519686;stroke:#000000;stroke-opacity:1;stroke-miterlimit:4;stroke-dasharray:none" /><g
       transform="matrix(1.3333328,0,0,1.3333328,0,8.1180171e-6)"
       id="g11"><path
         style="fill:#ffffff"
         inkscape:connector-curvature="0"
         id="path9"
         d="m 15.59601,5.12781 h -2.56104 v 1.76465 h 2.47412 V 7.8827 h -2.47412 v 2.55664 H 12.03643 V 4.13758 H 15.596 v 0.99023 z" /></g></g><g
     id="g15"
     transform="matrix(1.3333328,0,0,1.3333328,0,8.1180171e-6)" /><g
     id="g17"
     transform="matrix(1.3333328,0,0,1.3333328,0,8.1180171e-6)" /><g
     id="g19"
     transform="matrix(1.3333328,0,0,1.3333328,0,8.1180171e-6)" /><g
     id="g21"
     transform="matrix(1.3333328,0,0,1.3333328,0,8.1180171e-6)" /><g
     id="g23"
     transform="matrix(1.3333328,0,0,1.3333328,0,8.1180171e-6)" /><g
     id="g25"
     transform="matrix(1.3333328,0,0,1.3333328,0,8.1180171e-6)" /><g
     id="g27"
     transform="matrix(1.3333328,0,0,1.3333328,0,8.1180171e-6)" /><g
     id="g29"
     transform="matrix(1.3333328,0,0,1.3333328,0,8.1180171e-6)" /><g
     id="g31"
     transform="matrix(1.3333328,0,0,1.3333328,0,8.1180171e-6)" /><g
     id="g33"
     transform="matrix(1.3333328,0,0,1.3333328,0,8.1180171e-6)" /><g
     id="g35"
     transform="matrix(1.3333328,0,0,1.3333328,0,8.1180171e-6)" /><g
     id="g37"
     transform="matrix(1.3333328,0,0,1.3333328,0,8.1180171e-6)" /><g
     id="g39"
     transform="matrix(1.3333328,0,0,1.3333328,0,8.1180171e-6)" /><g
     id="g41"
     transform="matrix(1.3333328,0,0,1.3333328,0,8.1180171e-6)" /><g
     id="g43"
     transform="matrix(1.3333328,0,0,1.3333328,0,8.1180171e-6)" /></svg>