<?xml version="1.0" encoding="UTF-8" standalone="no"?>
<svg xmlns:dc="http://purl.org/dc/elements/1.1/" xmlns:cc="http://creativecommons.org/ns#" xmlns:rdf="http://www.w3.org/1999/02/22-rdf-syntax-ns#" xmlns:svg="http://www.w3.org/2000/svg" xmlns="http://www.w3.org/2000/svg" xmlns:sodipodi="http://sodipodi.sourceforge.net/DTD/sodipodi-0.dtd" xmlns:inkscape="http://www.inkscape.org/namespaces/inkscape" inkscape:version="1.0 (4035a4f, 2020-05-01)" sodipodi:docname="mono-off.svg" id="svg6533" version="1.1" viewBox="0 0 36.47244 18.897638" height="5mm" width="9.6499996mm">
  <metadata id="metadata6537">
    <rdf:RDF>
      <cc:Work rdf:about="">
        <dc:format>image/svg+xml</dc:format>
        <dc:type rdf:resource="http://purl.org/dc/dcmitype/StillImage" />
        <dc:title></dc:title>
      </cc:Work>
    </rdf:RDF>
  </metadata>
  <sodipodi:namedview inkscape:current-layer="svg6533" inkscape:window-maximized="0" inkscape:window-y="23" inkscape:window-x="0" inkscape:cy="7.0727248" inkscape:cx="13.65431" inkscape:zoom="15.908213" units="mm" inkscape:document-units="mm" showgrid="false" id="namedview6535" inkscape:window-height="767" inkscape:window-width="1182" inkscape:pageshadow="2" inkscape:pageopacity="0" guidetolerance="10" gridtolerance="10" objecttolerance="10" borderopacity="1" bordercolor="#666666" pagecolor="#ffffff" />
  <defs id="defs6513">
    <linearGradient gradientUnits="userSpaceOnUse" y2="13.85616" x2="13.65427" y1="0.28878" x1="13.65427" id="linear-gradient">
      <stop id="stop6498" stop-color="#212121" offset="0" />
      <stop id="stop6500" stop-color="#161616" offset="1" />
    </linearGradient>
    <linearGradient gradientUnits="userSpaceOnUse" y2="13.09308" x2="13.65377" y1="0.92113" x1="13.65377" id="linear-gradient-2">
      <stop id="stop6503" stop-color="#747474" offset="0" />
      <stop id="stop6505" stop-color="#5a5a5a" offset="1" />
    </linearGradient>
    <linearGradient gradientUnits="userSpaceOnUse" y2="12.79293" x2="13.65429" y1="1.9645801" x1="13.65429" id="linear-gradient-3">
      <stop id="stop6508" stop-color="#606060" offset="0" />
      <stop id="stop6510" stop-color="#505050" offset="1" />
    </linearGradient>
  </defs>
  <g transform="matrix(1.3355631,0,0,1.3355631,0,9.2098595e-4)" data-name="Layer 2" id="Layer_2">
    <g data-name="Layer 1" id="Layer_1-2">
      <g id="path6">
        <path id="path6515" style="fill:url(#linear-gradient)" d="m 1.64645,13.85616 a 1.34607,1.34607 0 0 1 -1.35791,-1.331 v -11 A 1.27269,1.27269 0 0 1 1.64645,0.28878 H 25.66208 A 1.36273,1.36273 0 0 1 27.02,1.61983 v 10.90528 a 1.34607,1.34607 0 0 1 -1.35791,1.331 z" />
        <path id="path6517" d="m 25.662,0.57713 a 1.06593,1.06593 0 0 1 1.06952,1.04309 v 10.905 A 1.06594,1.06594 0 0 1 25.662,13.56831 H 1.64664 A 1.06592,1.06592 0 0 1 0.57715,12.52522 V 1.52539 A 0.98976,0.98976 0 0 1 1.64664,0.57713 H 25.662 M 25.662,0 H 1.64664 A 1.55453,1.55453 0 0 0 0,1.52539 v 10.99983 a 1.63544,1.63544 0 0 0 1.64664,1.62023 H 25.662 a 1.63546,1.63546 0 0 0 1.64666,-1.62023 V 1.62022 A 1.63545,1.63545 0 0 0 25.662,0 Z" />
      </g>
    </g>
    <g data-name="Layer 2" id="Layer_2-2">
      <rect id="rect6521" style="fill:url(#linear-gradient-2)" rx="0.89332998" height="12.17195" width="25.3512" y="0.92113" x="0.97816998" />
      <rect id="rect6523" style="fill:url(#linear-gradient-3)" rx="0.82160002" height="10.82835" width="24.10442" y="1.9645801" x="1.60208" />
    </g>
    <g id="M">
      <g id="g6529">
        <path style="fill:#ffffff" d="m 10.64883,4.94683 v 5.11081 H 9.8087 V 6.40706 L 8.25845,8.98747 h -0.1 L 6.59819,6.40706 v 3.65058 H 5.75806 V 4.94683 H 6.6682 l 1.54024,2.5604 1.54025,-2.5604 z" id="path12" />
        <path style="fill:#ffffff" d="m 14.14938,10.15765 a 2.5704,2.5704 0 0 1 -1.88029,-0.75012 2.60039,2.60039 0 0 1 -0.77013,-1.8803 2.65043,2.65043 0 0 1 4.52072,-1.9003 2.54043,2.54043 0 0 1 0.78012,1.8803 2.65042,2.65042 0 0 1 -2.65042,2.65042 z m 0,-0.82013 A 1.75028,1.75028 0 0 0 15.42959,8.81744 1.79033,1.79033 0 0 0 15.95967,7.50723 1.7603,1.7603 0 0 0 15.42959,6.197 1.71031,1.71031 0 0 0 14.14938,5.67692 1.75026,1.75026 0 0 0 12.85918,6.197 1.79031,1.79031 0 0 0 12.3391,7.50721 a 1.82026,1.82026 0 0 0 0.52008,1.31021 1.79029,1.79029 0 0 0 1.2902,0.5201 z" id="path14" />
        <path style="fill:#ffffff" d="m 20.71042,4.94683 h 0.84013 v 5.11081 h -0.6601 L 18.49007,6.59709 v 3.46055 H 17.64994 V 4.94683 H 18.3 l 2.41038,3.46054 z" id="path16" />
      </g>
    </g>
  </g>
</svg>
