<?xml version="1.0" encoding="UTF-8" standalone="no"?>
<svg xmlns:dc="http://purl.org/dc/elements/1.1/" xmlns:cc="http://creativecommons.org/ns#" xmlns:rdf="http://www.w3.org/1999/02/22-rdf-syntax-ns#" xmlns:svg="http://www.w3.org/2000/svg" xmlns="http://www.w3.org/2000/svg" xmlns:xlink="http://www.w3.org/1999/xlink" xmlns:sodipodi="http://sodipodi.sourceforge.net/DTD/sodipodi-0.dtd" xmlns:inkscape="http://www.inkscape.org/namespaces/inkscape" inkscape:version="1.0 (4035a4f, 2020-05-01)" sodipodi:docname="mono-on.svg" id="svg7744" version="1.1" viewBox="0 0 36.47244 18.897637" height="5mm" width="9.6499996mm">
  <metadata id="metadata7748">
    <rdf:RDF>
      <cc:Work rdf:about="">
        <dc:format>image/svg+xml</dc:format>
        <dc:type rdf:resource="http://purl.org/dc/dcmitype/StillImage" />
        <dc:title></dc:title>
      </cc:Work>
    </rdf:RDF>
  </metadata>
  <sodipodi:namedview inkscape:current-layer="svg7744" inkscape:window-maximized="0" inkscape:window-y="56" inkscape:window-x="234" inkscape:cy="7.0727401" inkscape:cx="13.65431" inkscape:zoom="12.054786" units="mm" inkscape:document-units="mm" showgrid="false" id="namedview7746" inkscape:window-height="715" inkscape:window-width="1321" inkscape:pageshadow="2" inkscape:pageopacity="0" guidetolerance="10" gridtolerance="10" objecttolerance="10" borderopacity="1" bordercolor="#666666" pagecolor="#ffffff" />
  <defs id="defs7722">
    <linearGradient gradientUnits="userSpaceOnUse" y2="13.8564" x2="13.65433" y1="0.28902" x1="13.65433" id="linear-gradient">
      <stop id="stop7702" stop-color="#1e181b" offset="0" />
      <stop id="stop7704" stop-color="#0e1418" offset="1" />
    </linearGradient>
    <linearGradient gradientUnits="userSpaceOnUse" y2="13.0931" x2="13.65379" y1="0.92115003" x1="13.65379" id="linear-gradient-2">
      <stop id="stop7707" stop-color="#46aab4" offset="0" />
      <stop id="stop7709" stop-color="#4094a0" offset="1" />
    </linearGradient>
    <linearGradient gradientUnits="userSpaceOnUse" y2="7.3787699" x2="1.6007" y1="7.3787699" x1="13.67629" id="linear-gradient-3">
      <stop id="stop7712" stop-color="#68aebc" offset="0" />
      <stop id="stop7714" stop-color="#5fa7b6" offset="0.32002" />
      <stop id="stop7716" stop-color="#4796a4" offset="0.84036" />
      <stop id="stop7718" stop-color="#3e8f9e" offset="1" />
    </linearGradient>
    <linearGradient xlink:href="#linear-gradient-3" gradientTransform="matrix(-1,0,0,1,276.20224,0)" y2="7.3787799" x2="250.49641" y1="7.3787799" x1="262.57132" id="linear-gradient-4" />
    <linearGradient y2="7.3787699" x2="1.6007" y1="7.3787699" x1="13.67629" gradientUnits="userSpaceOnUse" id="linearGradient8311" xlink:href="#linear-gradient-3" inkscape:collect="always" />
  </defs>
  <g transform="matrix(1.3355646,0,0,1.3355646,0,9.2117405e-4)" data-name="Layer 2" id="Layer_2">
    <g data-name="Layer 1" id="Layer_1-2">
      <g style="opacity:0.8" id="path6">
        <path id="path7724" style="fill:url(#linear-gradient)" d="M 1.64651,13.8564 A 1.34607,1.34607 0 0 1 0.2886,12.52535 v -11 A 1.27269,1.27269 0 0 1 1.64651,0.289 h 24.01563 a 1.36273,1.36273 0 0 1 1.35791,1.33106 v 10.90529 a 1.34607,1.34607 0 0 1 -1.35791,1.33105 z" />
        <path id="path7726" style="fill:#070d0f" d="m 25.662,0.57715 a 1.06592,1.06592 0 0 1 1.06949,1.04309 v 10.905 A 1.06592,1.06592 0 0 1 25.662,13.56833 H 1.64667 A 1.06592,1.06592 0 0 1 0.57715,12.52524 V 1.52542 A 0.98976,0.98976 0 0 1 1.64667,0.57715 H 25.662 M 25.662,0 H 1.64667 A 1.55455,1.55455 0 0 0 0,1.52542 v 10.99982 a 1.63548,1.63548 0 0 0 1.64667,1.62024 H 25.662 a 1.63544,1.63544 0 0 0 1.64663,-1.62024 V 1.62024 A 1.63544,1.63544 0 0 0 25.662,0 Z" />
      </g>
    </g>
    <g data-name="Layer 2" id="Layer_2-2">
      <rect id="rect7730" style="fill:url(#linear-gradient-2)" rx="0.89332998" height="12.17195" width="25.3512" y="0.92115003" x="0.97819" />
      <path id="path7732" style="fill:url(#linearGradient8311)" d="M 13.67629,12.793 H 2.4223 A 0.824,0.824 0 0 1 1.6007,11.9714 V 2.7862 A 0.824,0.824 0 0 1 2.4223,1.9646 h 11.254 z" />
      <path id="path7734" style="fill:url(#linear-gradient-4)" d="m 13.63094,12.793 h 11.25329 a 0.824,0.824 0 0 0 0.8216,-0.8216 V 2.7862 A 0.824,0.824 0 0 0 24.88423,1.9646 H 13.63094 Z" />
    </g>
    <g id="M">
      <g id="g7740">
        <path style="fill:#ffffff" d="m 10.64938,4.94685 v 5.11081 H 9.80925 V 6.40708 L 8.259,8.98749 h -0.1 L 6.59874,6.40708 v 3.65058 H 5.7586 V 4.94685 H 6.66875 L 8.209,7.50725 9.74925,4.94685 Z" id="path12" />
        <path style="fill:#ffffff" d="M 14.14993,10.15767 A 2.57044,2.57044 0 0 1 12.26963,9.40755 2.60041,2.60041 0 0 1 11.49951,7.52726 2.65042,2.65042 0 0 1 16.02023,5.627 a 2.54039,2.54039 0 0 1 0.78012,1.88029 2.65042,2.65042 0 0 1 -2.65042,2.65042 z m 0,-0.82013 A 1.75029,1.75029 0 0 0 15.43014,8.81746 1.79031,1.79031 0 0 0 15.96022,7.50725 1.76027,1.76027 0 0 0 15.43014,6.19705 1.71028,1.71028 0 0 0 14.14993,5.677 a 1.7503,1.7503 0 0 0 -1.2902,0.52009 1.79027,1.79027 0 0 0 -0.52008,1.3102 1.82026,1.82026 0 0 0 0.52008,1.31021 1.79025,1.79025 0 0 0 1.2902,0.52004 z" id="path14" />
        <path style="fill:#ffffff" d="m 20.711,4.94685 h 0.84013 v 5.11081 H 20.891 L 18.49062,6.59711 v 3.46055 H 17.65049 V 4.94685 h 0.6501 L 20.711,8.4074 Z" id="path16" />
      </g>
    </g>
  </g>
</svg>
