<?xml version="1.0" encoding="UTF-8" standalone="no"?>
<!-- Generator: Adobe Illustrator 23.0.3, SVG Export Plug-In . SVG Version: 6.00 Build 0)  -->

<svg
   xmlns:dc="http://purl.org/dc/elements/1.1/"
   xmlns:cc="http://creativecommons.org/ns#"
   xmlns:rdf="http://www.w3.org/1999/02/22-rdf-syntax-ns#"
   xmlns:svg="http://www.w3.org/2000/svg"
   xmlns="http://www.w3.org/2000/svg"
   xmlns:sodipodi="http://sodipodi.sourceforge.net/DTD/sodipodi-0.dtd"
   xmlns:inkscape="http://www.inkscape.org/namespaces/inkscape"
   version="1.0"
   x="0px"
   y="0px"
   width="9.6499996mm"
   height="5mm"
   viewBox="0 0 36.47244 18.897638"
   enable-background="new 0 0 27.35433 14.17323"
   xml:space="preserve"
   id="svg1662"
   sodipodi:docname="mute-on.svg"
   inkscape:version="0.92.2 5c3e80d, 2017-08-06"><metadata
     id="metadata1668"><rdf:RDF><cc:Work
         rdf:about=""><dc:format>image/svg+xml</dc:format><dc:type
           rdf:resource="http://purl.org/dc/dcmitype/StillImage" /><dc:title></dc:title></cc:Work></rdf:RDF></metadata><defs
     id="defs1666" /><sodipodi:namedview
     pagecolor="#ffffff"
     bordercolor="#666666"
     borderopacity="1"
     objecttolerance="10"
     gridtolerance="10"
     guidetolerance="10"
     inkscape:pageopacity="0"
     inkscape:pageshadow="2"
     inkscape:window-width="1621"
     inkscape:window-height="1103"
     id="namedview1664"
     showgrid="false"
     inkscape:document-units="mm"
     units="mm"
     inkscape:zoom="16"
     inkscape:cx="8.48072"
     inkscape:cy="9.7231884"
     inkscape:window-x="526"
     inkscape:window-y="57"
     inkscape:window-maximized="0"
     inkscape:current-layer="svg1662" /><g
     id="Layer_1"
     transform="translate(0,4.7244076)" /><g
     id="g887"><path
       d="m 1.6481402,18.561351 c -0.72348304,0 -1.31185288,-0.591905 -1.31185288,-1.319901 V 1.6537469 c 0,-0.72864503 0.58836984,-1.32121282 1.31185288,-1.32121282 H 34.831546 c 0.724142,0 1.311854,0.59256779 1.311854,1.32121282 V 17.24145 c 0,0.727996 -0.587712,1.319901 -1.311854,1.319901 z"
       id="path1619"
       inkscape:connector-curvature="0"
       style="fill:#d41308;stroke:#000000;stroke-width:0.66532904;stroke-miterlimit:4;stroke-dasharray:none;stroke-opacity:1" /><g
       transform="matrix(1.3333329,0,0,1.3333341,0,-1.0517736e-5)"
       id="g1627"><path
         style="fill:#ffffff"
         inkscape:connector-curvature="0"
         id="path1625"
         d="m 16.58527,3.9685 v 6.30176 H 15.58674 V 5.77807 L 13.73762,8.94702 H 13.61604 L 11.76692,5.76929 v 4.50098 H 10.76838 V 3.9685 h 1.07666 L 13.67658,7.11889 15.5174,3.9685 Z" /></g></g><g
     id="g1631"
     transform="matrix(1.3333329,0,0,1.3333341,0,-1.0517736e-5)" /><g
     id="g1633"
     transform="matrix(1.3333329,0,0,1.3333341,0,-1.0517736e-5)" /><g
     id="g1635"
     transform="matrix(1.3333329,0,0,1.3333341,0,-1.0517736e-5)" /><g
     id="g1637"
     transform="matrix(1.3333329,0,0,1.3333341,0,-1.0517736e-5)" /><g
     id="g1639"
     transform="matrix(1.3333329,0,0,1.3333341,0,-1.0517736e-5)" /><g
     id="g1641"
     transform="matrix(1.3333329,0,0,1.3333341,0,-1.0517736e-5)" /><g
     id="g1643"
     transform="matrix(1.3333329,0,0,1.3333341,0,-1.0517736e-5)" /><g
     id="g1645"
     transform="matrix(1.3333329,0,0,1.3333341,0,-1.0517736e-5)" /><g
     id="g1647"
     transform="matrix(1.3333329,0,0,1.3333341,0,-1.0517736e-5)" /><g
     id="g1649"
     transform="matrix(1.3333329,0,0,1.3333341,0,-1.0517736e-5)" /><g
     id="g1651"
     transform="matrix(1.3333329,0,0,1.3333341,0,-1.0517736e-5)" /><g
     id="g1653"
     transform="matrix(1.3333329,0,0,1.3333341,0,-1.0517736e-5)" /><g
     id="g1655"
     transform="matrix(1.3333329,0,0,1.3333341,0,-1.0517736e-5)" /><g
     id="g1657"
     transform="matrix(1.3333329,0,0,1.3333341,0,-1.0517736e-5)" /><g
     id="g1659"
     transform="matrix(1.3333329,0,0,1.3333341,0,-1.0517736e-5)" /></svg>