<?xml version="1.0" encoding="UTF-8" standalone="no"?>
<svg xmlns:dc="http://purl.org/dc/elements/1.1/" xmlns:cc="http://creativecommons.org/ns#" xmlns:rdf="http://www.w3.org/1999/02/22-rdf-syntax-ns#" xmlns:svg="http://www.w3.org/2000/svg" xmlns="http://www.w3.org/2000/svg" xmlns:xlink="http://www.w3.org/1999/xlink" xmlns:sodipodi="http://sodipodi.sourceforge.net/DTD/sodipodi-0.dtd" xmlns:inkscape="http://www.inkscape.org/namespaces/inkscape" inkscape:version="1.0 (4035a4f, 2020-05-01)" sodipodi:docname="solo-on.svg" id="svg1559" version="1.1" viewBox="0 0 36.47244 18.897637" height="5mm" width="9.6499996mm">
  <metadata id="metadata1563">
    <rdf:RDF>
      <cc:Work rdf:about="">
        <dc:format>image/svg+xml</dc:format>
        <dc:type rdf:resource="http://purl.org/dc/dcmitype/StillImage" />
        <dc:title></dc:title>
      </cc:Work>
    </rdf:RDF>
  </metadata>
  <sodipodi:namedview inkscape:current-layer="svg1559" inkscape:window-maximized="0" inkscape:window-y="250" inkscape:window-x="57" inkscape:cy="7.0727401" inkscape:cx="15.476147" inkscape:zoom="22.504756" inkscape:document-units="mm" units="mm" showgrid="false" id="namedview1561" inkscape:window-height="979" inkscape:window-width="1661" inkscape:pageshadow="2" inkscape:pageopacity="0" guidetolerance="10" gridtolerance="10" objecttolerance="10" borderopacity="1" bordercolor="#666666" pagecolor="#ffffff" />
  <defs id="defs1541">
    <linearGradient gradientUnits="userSpaceOnUse" y2="13.85686" x2="13.65414" y1="0.28948" x1="13.65414" id="linear-gradient">
      <stop id="stop1521" stop-color="#173517" offset="0" />
      <stop id="stop1523" stop-color="#0c210c" offset="1" />
    </linearGradient>
    <linearGradient gradientUnits="userSpaceOnUse" y2="13.09309" x2="13.65378" y1="0.92113" x1="13.65378" id="linear-gradient-2">
      <stop id="stop1526" stop-color="#41b633" offset="0" />
      <stop id="stop1528" stop-color="#379a2b" offset="1" />
    </linearGradient>
    <linearGradient gradientUnits="userSpaceOnUse" y2="7.3787599" x2="1.60069" y1="7.3787599" x1="13.67628" id="linear-gradient-3">
      <stop id="stop1531" stop-color="#5fc053" offset="0" />
      <stop id="stop1533" stop-color="#56b74a" offset="0.33171" />
      <stop id="stop1535" stop-color="#3e9f32" offset="0.87111" />
      <stop id="stop1537" stop-color="#37982b" offset="1" />
    </linearGradient>
    <linearGradient xlink:href="#linear-gradient-3" gradientTransform="matrix(-1,0,0,1,130.19992,0)" y2="7.3787599" x2="104.4941" y1="7.3787599" x1="116.569" id="linear-gradient-4" />
    <linearGradient y2="7.3787599" x2="1.60069" y1="7.3787599" x1="13.67628" gradientUnits="userSpaceOnUse" id="linearGradient2126" xlink:href="#linear-gradient-3" inkscape:collect="always" />
  </defs>
  <g transform="matrix(1.3355631,0,0,1.3355631,0,9.2158434e-4)" id="Layer_1-2" data-name="Layer 1">
    <g id="path6" style="opacity:0.8">
      <path d="m 1.64682,13.85686 a 1.347,1.347 0 0 1 -1.3584,-1.332 V 1.52581 A 1.27284,1.27284 0 0 1 1.64682,0.28948 H 25.662 a 1.34607,1.34607 0 0 1 1.35791,1.33105 v 10.9043 a 1.34689,1.34689 0 0 1 -1.35791,1.332 z" style="fill:url(#linear-gradient)" id="path1543" />
      <path d="m 25.662,0.57715 a 1.06592,1.06592 0 0 1 1.06952,1.04306 v 10.905 A 1.066,1.066 0 0 1 25.662,13.56833 H 1.64667 A 1.06594,1.06594 0 0 1 0.57715,12.52524 V 1.52539 A 0.98976,0.98976 0 0 1 1.64667,0.57715 H 25.662 M 25.662,0 H 1.64667 A 1.55453,1.55453 0 0 0 0,1.52539 v 10.99985 a 1.63548,1.63548 0 0 0 1.64667,1.62024 H 25.662 a 1.63547,1.63547 0 0 0 1.64666,-1.62024 V 1.62021 A 1.63546,1.63546 0 0 0 25.662,0 Z" style="fill:#001700" id="path1545" />
    </g>
  </g>
  <g transform="matrix(1.3355631,0,0,1.3355631,0,9.2158434e-4)" id="Layer_2-2" data-name="Layer 2">
    <rect x="0.97817999" y="0.92113" width="25.3512" height="12.17195" rx="0.89332998" style="fill:url(#linear-gradient-2)" id="rect1549" />
    <path d="M 13.67628,12.79293 H 2.42229 a 0.824,0.824 0 0 1 -0.8216,-0.8216 V 2.78619 a 0.824,0.824 0 0 1 0.8216,-0.8216 h 11.254 z" style="fill:url(#linearGradient2126)" id="path1551" />
    <path d="m 13.63093,12.79293 h 11.25329 a 0.824,0.824 0 0 0 0.8216,-0.8216 V 2.78619 a 0.824,0.824 0 0 0 -0.8216,-0.8216 H 13.63093 Z" style="fill:url(#linear-gradient-4)" id="path1553" />
  </g>
  <g id="g13" transform="matrix(1.3333327,0,0,1.3333327,-0.02762251,0.39734663)">
    <path d="m 11.42678,8.95581 0.85938,-0.52148 c 0.24316,0.71094 0.74658,1.06152 1.51074,1.06152 0.75537,0 1.12891,-0.33301 1.12891,-0.82812 0,-0.26074 -0.10449,-0.4502 -0.3042,-0.58496 C 14.4219,7.94801 14.05716,7.79468 13.54495,7.63257 12.96341,7.45288 12.67679,7.33569 12.26907,7.0564 11.87796,6.76831 11.67825,6.35425 11.67825,5.78687 c 0,-0.55762 0.19141,-0.99902 0.57324,-1.32324 0.38184,-0.33301 0.84229,-0.49512 1.38037,-0.49512 0.97266,0 1.72803,0.52246 2.11865,1.38672 L 14.90822,5.85914 C 14.65627,5.27418 14.23097,4.9773 13.63185,4.9773 c -0.58154,0 -0.95508,0.30566 -0.95508,0.7832 0,0.46777 0.29541,0.68359 1.22412,0.98047 0.23486,0.08105 0.39941,0.13574 0.50391,0.18066 0.11279,0.03613 0.26025,0.09863 0.45117,0.17969 0.19971,0.08105 0.34766,0.1709 0.44287,0.25195 0.32129,0.26172 0.66846,0.69336 0.625,1.29688 0,0.56738 -0.19971,1.02637 -0.59863,1.35938 -0.39111,0.33301 -0.91162,0.49512 -1.5542,0.49512 -1.17236,-10e-6 -2.02294,-0.58497 -2.34423,-1.54884 z" id="path11" inkscape:connector-curvature="0" style="fill:#ffffff" />
  </g>
</svg>
