<?xml version="1.0" encoding="UTF-8" standalone="no"?>
<svg xmlns:dc="http://purl.org/dc/elements/1.1/" xmlns:cc="http://creativecommons.org/ns#" xmlns:rdf="http://www.w3.org/1999/02/22-rdf-syntax-ns#" xmlns:svg="http://www.w3.org/2000/svg" xmlns="http://www.w3.org/2000/svg" xmlns:sodipodi="http://sodipodi.sourceforge.net/DTD/sodipodi-0.dtd" xmlns:inkscape="http://www.inkscape.org/namespaces/inkscape" width="9.6499996mm" height="5mm" viewBox="0 0 36.472441 18.897638" version="1.1" id="svg5429" sodipodi:docname="solo-off.svg" inkscape:version="1.0 (4035a4f, 2020-05-01)">
  <metadata id="metadata5433">
    <rdf:RDF>
      <cc:Work rdf:about="">
        <dc:format>image/svg+xml</dc:format>
        <dc:type rdf:resource="http://purl.org/dc/dcmitype/StillImage" />
        <dc:title></dc:title>
      </cc:Work>
    </rdf:RDF>
  </metadata>
  <sodipodi:namedview inkscape:document-rotation="0" pagecolor="#ffffff" bordercolor="#666666" borderopacity="1" objecttolerance="10" gridtolerance="10" guidetolerance="10" inkscape:pageopacity="0" inkscape:pageshadow="2" inkscape:window-width="1910" inkscape:window-height="1100" id="namedview5431" showgrid="false" inkscape:document-units="mm" units="mm" inkscape:zoom="15.926554" inkscape:cx="10.305997" inkscape:cy="7.0727248" inkscape:window-x="0" inkscape:window-y="23" inkscape:window-maximized="0" inkscape:current-layer="svg5429" />
  <defs id="defs5413">
    <linearGradient id="linear-gradient" x1="13.65414" y1="0.28911" x2="13.65414" y2="13.8565" gradientUnits="userSpaceOnUse">
      <stop offset="0" stop-color="#212121" id="stop5398" />
      <stop offset="1" stop-color="#161616" id="stop5400" />
    </linearGradient>
    <linearGradient id="linear-gradient-2" x1="13.6538" y1="0.92113" x2="13.6538" y2="13.09308" gradientUnits="userSpaceOnUse">
      <stop offset="0" stop-color="#747474" id="stop5403" />
      <stop offset="1" stop-color="#5a5a5a" id="stop5405" />
    </linearGradient>
    <linearGradient id="linear-gradient-3" x1="13.65432" y1="1.9645801" x2="13.65432" y2="12.79293" gradientUnits="userSpaceOnUse">
      <stop offset="0" stop-color="#606060" id="stop5408" />
      <stop offset="1" stop-color="#505050" id="stop5410" />
    </linearGradient>
  </defs>
  <g transform="matrix(1.3355631,0,0,1.3355631,0,9.213824e-4)" data-name="Layer 1" id="Layer_1-2">
    <g id="path6">
      <path id="path5415" style="fill:url(#linear-gradient)" d="m 1.64682,13.8565 a 1.34619,1.34619 0 0 1 -1.3584,-1.33106 v -11 A 1.27284,1.27284 0 0 1 1.64682,0.28911 H 25.662 a 1.34607,1.34607 0 0 1 1.35791,1.33106 V 12.52544 A 1.34607,1.34607 0 0 1 25.662,13.8565 Z" />
      <path id="path5417" d="m 25.662,0.57713 a 1.06593,1.06593 0 0 1 1.06952,1.04309 v 10.905 A 1.06594,1.06594 0 0 1 25.662,13.56831 H 1.64667 A 1.06593,1.06593 0 0 1 0.57715,12.52522 V 1.52539 A 0.98977,0.98977 0 0 1 1.64667,0.57713 H 25.662 M 25.662,0 H 1.64667 A 1.55454,1.55454 0 0 0 0,1.52539 v 10.99983 a 1.63547,1.63547 0 0 0 1.64667,1.62023 H 25.662 a 1.63546,1.63546 0 0 0 1.64666,-1.62023 V 1.62022 A 1.63545,1.63545 0 0 0 25.662,0 Z" />
    </g>
  </g>
  <g transform="matrix(1.3355631,0,0,1.3355631,0,9.213824e-4)" data-name="Layer 2" id="Layer_2-2">
    <rect id="rect5421" style="fill:url(#linear-gradient-2)" rx="0.89332998" height="12.17195" width="25.3512" y="0.92113" x="0.97820002" />
    <rect id="rect5423" style="fill:url(#linear-gradient-3)" rx="0.82160002" height="10.82835" width="24.10442" y="1.9645801" x="1.60211" />
  </g>
  <g id="g13" transform="matrix(1.3333328,0,0,1.3333328,-0.02762204,0.39734683)">
    <path d="m 11.42678,8.95581 0.85938,-0.52148 c 0.24316,0.71094 0.74658,1.06152 1.51074,1.06152 0.75537,0 1.12891,-0.33301 1.12891,-0.82812 0,-0.26074 -0.10449,-0.4502 -0.3042,-0.58496 C 14.4219,7.94801 14.05716,7.79468 13.54495,7.63257 12.96341,7.45288 12.67679,7.33569 12.26907,7.0564 11.87796,6.76831 11.67825,6.35425 11.67825,5.78687 c 0,-0.55762 0.19141,-0.99902 0.57324,-1.32324 0.38184,-0.33301 0.84229,-0.49512 1.38037,-0.49512 0.97266,0 1.72803,0.52246 2.11865,1.38672 L 14.90822,5.85914 C 14.65627,5.27418 14.23097,4.9773 13.63185,4.9773 c -0.58154,0 -0.95508,0.30566 -0.95508,0.7832 0,0.46777 0.29541,0.68359 1.22412,0.98047 0.23486,0.08105 0.39941,0.13574 0.50391,0.18066 0.11279,0.03613 0.26025,0.09863 0.45117,0.17969 0.19971,0.08105 0.34766,0.1709 0.44287,0.25195 0.32129,0.26172 0.66846,0.69336 0.625,1.29688 0,0.56738 -0.19971,1.02637 -0.59863,1.35938 -0.39111,0.33301 -0.91162,0.49512 -1.5542,0.49512 -1.17236,-10e-6 -2.02294,-0.58497 -2.34423,-1.54884 z" id="path11" inkscape:connector-curvature="0" style="fill:#ffffff" />
  </g>
</svg>
