<?xml version="1.0" encoding="UTF-8" standalone="no"?>
<svg
   xmlns:dc="http://purl.org/dc/elements/1.1/"
   xmlns:cc="http://creativecommons.org/ns#"
   xmlns:rdf="http://www.w3.org/1999/02/22-rdf-syntax-ns#"
   xmlns:svg="http://www.w3.org/2000/svg"
   xmlns="http://www.w3.org/2000/svg"
   xmlns:sodipodi="http://sodipodi.sourceforge.net/DTD/sodipodi-0.dtd"
   xmlns:inkscape="http://www.inkscape.org/namespaces/inkscape"
   inkscape:version="1.0beta1 (32d4812, 2019-09-19)"
   sodipodi:docname="band2-off.ai.svg"
   viewBox="0 0 16.452267 16.452267"
   height="4.3529954mm"
   width="4.3529954mm"
   xml:space="preserve"
   id="svg761"
   version="1.1">
  <metadata
     id="metadata767">
    <rdf:RDF>
      <cc:Work
         rdf:about="">
        <dc:format>image/svg+xml</dc:format>
        <dc:type
           rdf:resource="http://purl.org/dc/dcmitype/StillImage" />
        <dc:title></dc:title>
      </cc:Work>
    </rdf:RDF>
  </metadata>
  <defs
     id="defs765">
    <linearGradient
       id="linearGradient789"
       spreadMethod="pad"
       gradientTransform="matrix(0,-5.6645813,-12.839728,0,6.1710238,6.1663132)"
       gradientUnits="userSpaceOnUse"
       y2="0"
       x2="1"
       y1="0"
       x1="0">
      <stop
         id="stop783"
         offset="0"
         style="stop-opacity:1;stop-color:#808181" />
      <stop
         id="stop785"
         offset="0.08660784"
         style="stop-opacity:1;stop-color:#808181" />
      <stop
         id="stop787"
         offset="1"
         style="stop-opacity:1;stop-color:#676767" />
    </linearGradient>
    <linearGradient
       id="linearGradient811"
       spreadMethod="pad"
       gradientTransform="matrix(5.6645813,0,0,-12.839728,6.1757345,6.1710234)"
       gradientUnits="userSpaceOnUse"
       y2="0"
       x2="1"
       y1="0"
       x1="0">
      <stop
         id="stop805"
         offset="0"
         style="stop-opacity:1;stop-color:#808181" />
      <stop
         id="stop807"
         offset="0.08660784"
         style="stop-opacity:1;stop-color:#808181" />
      <stop
         id="stop809"
         offset="1"
         style="stop-opacity:1;stop-color:#676767" />
    </linearGradient>
    <linearGradient
       id="linearGradient833"
       spreadMethod="pad"
       gradientTransform="matrix(0,5.6645813,12.839728,0,6.1710238,6.175734)"
       gradientUnits="userSpaceOnUse"
       y2="0"
       x2="1"
       y1="0"
       x1="0">
      <stop
         id="stop827"
         offset="0"
         style="stop-opacity:1;stop-color:#808181" />
      <stop
         id="stop829"
         offset="0.08660784"
         style="stop-opacity:1;stop-color:#808181" />
      <stop
         id="stop831"
         offset="1"
         style="stop-opacity:1;stop-color:#676767" />
    </linearGradient>
    <linearGradient
       id="linearGradient855"
       spreadMethod="pad"
       gradientTransform="matrix(-5.6645813,0,0,12.839728,6.1663127,6.1710238)"
       gradientUnits="userSpaceOnUse"
       y2="0"
       x2="1"
       y1="0"
       x1="0">
      <stop
         id="stop849"
         offset="0"
         style="stop-opacity:1;stop-color:#808181" />
      <stop
         id="stop851"
         offset="0.08660784"
         style="stop-opacity:1;stop-color:#808181" />
      <stop
         id="stop853"
         offset="1"
         style="stop-opacity:1;stop-color:#676767" />
    </linearGradient>
    <clipPath
       id="clipPath865"
       clipPathUnits="userSpaceOnUse">
      <path
         inkscape:connector-curvature="0"
         id="path863"
         d="M 0,12.339 H 12.339 V 0 H 0 Z" />
    </clipPath>
  </defs>
  <sodipodi:namedview
     inkscape:current-layer="g769"
     inkscape:window-maximized="0"
     inkscape:window-y="413"
     inkscape:window-x="0"
     inkscape:cy="8.2261333"
     inkscape:cx="8.2261333"
     inkscape:zoom="33.065353"
     units="mm"
     inkscape:document-units="mm"
     showgrid="false"
     id="namedview763"
     inkscape:window-height="888"
     inkscape:window-width="1137"
     inkscape:pageshadow="2"
     inkscape:pageopacity="0"
     guidetolerance="10"
     gridtolerance="10"
     objecttolerance="10"
     borderopacity="1"
     inkscape:document-rotation="0"
     bordercolor="#666666"
     pagecolor="#ffffff" />
  <g
     transform="matrix(1.3333333,0,0,-1.3333333,0,16.452267)"
     inkscape:label="band2-off"
     inkscape:groupmode="layer"
     id="g769">
    <g
       transform="matrix(1,0,0,1.0360292,0,-0.01805061)"
       id="g771">
      <g
         id="g773">
        <g
           id="g779">
          <g
             id="g781">
            <path
               inkscape:connector-curvature="0"
               id="path791"
               style="fill:url(#linearGradient789);stroke:none"
               d="M 6.163,6.163 0.509,0.51 C 0.506,0.505 0.507,0.501 0.513,0.501 v 0 h 11.316 c 0.006,0 0.008,0.004 0.003,0.009 v 0 L 6.179,6.163 C 6.177,6.165 6.174,6.167 6.171,6.167 v 0 C 6.168,6.167 6.165,6.165 6.163,6.163" />
          </g>
        </g>
      </g>
    </g>
    <g
       transform="matrix(1.0188483,0,0,1,-0.22314497,0)"
       id="g793">
      <g
         id="g795">
        <g
           id="g801">
          <g
             id="g803">
            <path
               inkscape:connector-curvature="0"
               id="path813"
               style="fill:url(#linearGradient811);stroke:none"
               d="M 11.832,11.832 6.179,6.179 C 6.175,6.175 6.175,6.168 6.179,6.163 v 0 L 11.832,0.51 c 0.005,-0.005 0.007,-0.002 0.007,0.003 v 0 11.316 c 0,0.004 -0.001,0.006 -0.002,0.006 v 0 c -0.002,0 -0.003,-0.001 -0.005,-0.003" />
          </g>
        </g>
      </g>
    </g>
    <g
       transform="matrix(1,0,0,1.0520605,0,-0.61639617)"
       id="g815">
      <g
         id="g817">
        <g
           id="g823">
          <g
             id="g825">
            <path
               inkscape:connector-curvature="0"
               id="path835"
               style="fill:url(#linearGradient833);stroke:none"
               d="m 0.513,11.84 c -0.006,0 -0.007,-0.003 -0.004,-0.008 v 0 L 6.163,6.179 c 0.005,-0.004 0.012,-0.004 0.016,0 v 0 l 5.653,5.653 c 0.005,0.005 0.003,0.008 -0.003,0.008 v 0 z" />
          </g>
        </g>
      </g>
    </g>
    <g
       transform="matrix(1.0348594,0,0,1,-0.01749939,0)"
       id="g837">
      <g
         id="g839">
        <g
           id="g845">
          <g
             id="g847">
            <path
               inkscape:connector-curvature="0"
               id="path857"
               style="fill:url(#linearGradient855);stroke:none"
               d="M 0.502,11.829 V 0.513 c 0,-0.005 0.004,-0.008 0.007,-0.003 v 0 l 5.654,5.653 c 0.005,0.005 0.005,0.012 0,0.016 v 0 l -5.654,5.653 c -0.001,0.002 -0.002,0.003 -0.003,0.003 v 0 c -0.002,0 -0.004,-0.002 -0.004,-0.006" />
          </g>
        </g>
      </g>
    </g>
    <g
       id="g859">
      <g
         clip-path="url(#clipPath865)"
         id="g861">
        <g
           transform="translate(10.9902,12.3402)"
           id="g867">
          <path
             inkscape:connector-curvature="0"
             id="path869"
             style="fill:#010101;fill-opacity:1;fill-rule:nonzero;stroke:none"
             d="m 0,0 h -9.638 c -0.745,0 -1.35,-0.605 -1.35,-1.35 v -9.638 c 0,-0.744 0.605,-1.351 1.35,-1.351 H 0 c 0.744,0 1.35,0.607 1.35,1.351 V -1.35 C 1.35,-0.605 0.744,0 0,0 m 0,-0.5 c 0.468,0 0.85,-0.382 0.85,-0.85 v -9.638 c 0,-0.468 -0.382,-0.851 -0.85,-0.851 h -9.638 c -0.468,0 -0.85,0.383 -0.85,0.851 v 9.638 c 0,0.468 0.382,0.85 0.85,0.85 L 0,-0.5" />
        </g>
        <g
           transform="translate(4.6196,3.6742)"
           id="g871">
          <path
             inkscape:connector-curvature="0"
             id="path873"
             style="fill:#212121;fill-opacity:1;fill-rule:nonzero;stroke:none"
             d="m 0,0 v 0.63 l 1.649,1.744 c 0.4,0.413 0.602,0.777 0.602,1.079 0,0.476 -0.304,0.756 -0.73,0.756 C 1.122,4.209 0.832,4.006 0.643,3.6 L -0.014,3.999 C 0.284,4.65 0.858,4.994 1.515,4.994 1.927,4.994 2.285,4.86 2.583,4.588 2.88,4.314 3.029,3.95 3.029,3.48 3.029,2.983 2.758,2.451 2.225,1.884 L 1.156,0.777 H 3.117 V 0 Z" />
        </g>
      </g>
    </g>
  </g>
</svg>
