<?xml version="1.0" encoding="UTF-8" standalone="no"?>
<svg
   xmlns:dc="http://purl.org/dc/elements/1.1/"
   xmlns:cc="http://creativecommons.org/ns#"
   xmlns:rdf="http://www.w3.org/1999/02/22-rdf-syntax-ns#"
   xmlns:svg="http://www.w3.org/2000/svg"
   xmlns="http://www.w3.org/2000/svg"
   xmlns:sodipodi="http://sodipodi.sourceforge.net/DTD/sodipodi-0.dtd"
   xmlns:inkscape="http://www.inkscape.org/namespaces/inkscape"
   version="1.1"
   id="svg637"
   xml:space="preserve"
   width="4.3529954mm"
   height="4.3529954mm"
   viewBox="0 0 16.452267 16.452267"
   sodipodi:docname="band4-on.svg"
   inkscape:version="1.0beta1 (32d4812, 2019-09-19)">
  <metadata
   id="metadata643">
    <rdf:RDF>
      <cc:Work
   rdf:about="">
        <dc:format>image/svg+xml</dc:format>

        <dc:type
   rdf:resource="http://purl.org/dc/dcmitype/StillImage" />

        <dc:title></dc:title>

      </cc:Work>

    </rdf:RDF>

  </metadata>

  <defs
   id="defs641">
    <linearGradient
   x1="0"
   y1="0"
   x2="1"
   y2="0"
   gradientUnits="userSpaceOnUse"
   gradientTransform="matrix(0,-5.6645813,-12.839728,0,6.1710238,6.1663132)"
   spreadMethod="pad"
   id="linearGradient663">
      <stop
   style="stop-opacity:1;stop-color:#967596"
   offset="0"
   id="stop659" />

      <stop
   style="stop-opacity:1;stop-color:#805b83"
   offset="1"
   id="stop661" />

    </linearGradient>

    <linearGradient
   x1="0"
   y1="0"
   x2="1"
   y2="0"
   gradientUnits="userSpaceOnUse"
   gradientTransform="matrix(5.6645813,0,0,-12.839728,6.1757345,6.1710234)"
   spreadMethod="pad"
   id="linearGradient683">
      <stop
   style="stop-opacity:1;stop-color:#967596"
   offset="0"
   id="stop679" />

      <stop
   style="stop-opacity:1;stop-color:#805b83"
   offset="1"
   id="stop681" />

    </linearGradient>

    <linearGradient
   x1="0"
   y1="0"
   x2="1"
   y2="0"
   gradientUnits="userSpaceOnUse"
   gradientTransform="matrix(0,5.6645813,12.839728,0,6.1710238,6.175734)"
   spreadMethod="pad"
   id="linearGradient703">
      <stop
   style="stop-opacity:1;stop-color:#967596"
   offset="0"
   id="stop699" />

      <stop
   style="stop-opacity:1;stop-color:#805b83"
   offset="1"
   id="stop701" />

    </linearGradient>

    <linearGradient
   x1="0"
   y1="0"
   x2="1"
   y2="0"
   gradientUnits="userSpaceOnUse"
   gradientTransform="matrix(-5.6645813,0,0,12.839728,6.1663127,6.1710238)"
   spreadMethod="pad"
   id="linearGradient723">
      <stop
   style="stop-opacity:1;stop-color:#967596"
   offset="0"
   id="stop719" />

      <stop
   style="stop-opacity:1;stop-color:#805b83"
   offset="1"
   id="stop721" />

    </linearGradient>

    <clipPath
   clipPathUnits="userSpaceOnUse"
   id="clipPath733">
      <path
   d="M 0,12.339 H 12.339 V 0 H 0 Z"
   id="path731"
   inkscape:connector-curvature="0" />

    </clipPath>

  
      
    
        
        
      </defs>

  <sodipodi:namedview
   pagecolor="#ffffff"
   bordercolor="#666666"
   inkscape:document-rotation="0"
   borderopacity="1"
   objecttolerance="10"
   gridtolerance="10"
   guidetolerance="10"
   inkscape:pageopacity="0"
   inkscape:pageshadow="2"
   inkscape:window-width="1399"
   inkscape:window-height="884"
   id="namedview639"
   showgrid="false"
   inkscape:document-units="mm"
   units="mm"
   inkscape:zoom="33.065353"
   inkscape:cx="9.6626823"
   inkscape:cy="8.2261333"
   inkscape:window-x="2320"
   inkscape:window-y="423"
   inkscape:window-maximized="0"
   inkscape:current-layer="g645" />

  <g
   id="g645"
   inkscape:groupmode="layer"
   inkscape:label="band4-on"
   transform="matrix(1.3333333,0,0,-1.3333333,0,16.452267)">
    <g
   transform="matrix(1,0,0,1.05061,0,-0.02180133)"
   id="g647">
      <g
   id="g649">
        <g
   id="g655">
          <g
   id="g657">
            <path
   d="M 6.163,6.163 0.509,0.51 C 0.506,0.505 0.507,0.501 0.513,0.501 v 0 h 11.316 c 0.006,0 0.008,0.004 0.003,0.009 v 0 L 6.179,6.163 C 6.177,6.165 6.174,6.167 6.171,6.167 v 0 C 6.168,6.167 6.165,6.165 6.163,6.163"
   style="fill:url(#linearGradient663);stroke:none"
   id="path665"
   inkscape:connector-curvature="0" />

          </g>

        </g>

      </g>

    </g>

    <g
   id="g667"
   transform="matrix(1.0511665,0,0,1,-0.61011428,0)">
      <g
   id="g669">
        <g
   id="g675">
          <g
   id="g677">
            <path
   d="M 11.832,11.832 6.179,6.179 C 6.175,6.175 6.175,6.168 6.179,6.163 v 0 L 11.832,0.51 c 0.005,-0.005 0.007,-0.002 0.007,0.003 v 0 11.316 c 0,0.004 -0.001,0.006 -0.002,0.006 v 0 c -0.002,0 -0.003,-0.001 -0.005,-0.003"
   style="fill:url(#linearGradient683);stroke:none"
   id="path685"
   inkscape:connector-curvature="0" />

          </g>

        </g>

      </g>

    </g>

    <g
   id="g687"
   transform="matrix(1,0,0,1.050981,0,-0.60361406)">
      <g
   id="g689">
        <g
   id="g695">
          <g
   id="g697">
            <path
   d="m 0.513,11.84 c -0.006,0 -0.007,-0.003 -0.004,-0.008 v 0 L 6.163,6.179 c 0.005,-0.004 0.012,-0.004 0.016,0 v 0 l 5.653,5.653 c 0.005,0.005 0.003,0.008 -0.003,0.008 v 0 z"
   style="fill:url(#linearGradient703);stroke:none"
   id="path705"
   inkscape:connector-curvature="0" />

          </g>

        </g>

      </g>

    </g>

    <g
   id="g707"
   transform="matrix(1.0508418,0,0,1,-0.02552255,0)">
      <g
   id="g709">
        <g
   id="g715">
          <g
   id="g717">
            <path
   d="M 0.502,11.829 V 0.513 c 0,-0.005 0.004,-0.008 0.007,-0.003 v 0 l 5.654,5.653 c 0.005,0.005 0.005,0.012 0,0.016 v 0 l -5.654,5.653 c -0.001,0.002 -0.002,0.003 -0.003,0.003 v 0 c -0.002,0 -0.004,-0.002 -0.004,-0.006"
   style="fill:url(#linearGradient723);stroke:none"
   id="path725"
   inkscape:connector-curvature="0" />

          </g>

        </g>

      </g>

    </g>

    <g
   id="g735"
   transform="translate(10.9902,12.3402)"
   style="opacity:1;stop-opacity:1">
          <path
   sodipodi:nodetypes="csssssssc"
   d="m -0.2000829,-0.25570043 h -9.2410217 c -0.7143144,0 -1.2943944,-0.58008074 -1.2943944,-1.29439497 v -9.2410216 c 0,-0.713356 0.58008,-1.295354 1.2943944,-1.295354 h 9.2410217 c 0.71335548,0 1.294395,0.581998 1.294395,1.295354 v 9.2410216 c 0,0.71431423 -0.58103952,1.29439497 -1.294395,1.29439497"
   style="fill:#010101;fill-opacity:0;fill-rule:nonzero;stroke:#010101;stroke-width:0.509402;stroke-miterlimit:4;stroke-dasharray:none;stroke-opacity:1"
   id="path737"
   inkscape:connector-curvature="0" />

        </g>
<g
   id="g739"
   transform="translate(7.9961,5.3519)"
   style="opacity:1;stop-opacity:1">
          <path
   d="m 0,0 v -0.749 h -0.54 v -0.883 h -0.785 v 0.883 H -3.65 V 0 l 1.629,3.271 h 0.845 L -2.805,0 h 1.48 V 1.274 H -0.54 V 0 Z"
   style="fill:#212121;fill-opacity:1;fill-rule:nonzero;stroke:none"
   id="path741"
   inkscape:connector-curvature="0" />

        </g>

  </g>

</svg>
