<?xml version="1.0" encoding="UTF-8" standalone="no"?>
<svg
   xmlns:dc="http://purl.org/dc/elements/1.1/"
   xmlns:cc="http://creativecommons.org/ns#"
   xmlns:rdf="http://www.w3.org/1999/02/22-rdf-syntax-ns#"
   xmlns:svg="http://www.w3.org/2000/svg"
   xmlns="http://www.w3.org/2000/svg"
   xmlns:sodipodi="http://sodipodi.sourceforge.net/DTD/sodipodi-0.dtd"
   xmlns:inkscape="http://www.inkscape.org/namespaces/inkscape"
   inkscape:version="1.0beta1 (32d4812, 2019-09-19)"
   sodipodi:docname="band3-on.ai.svg"
   viewBox="0 0 16.452267 16.452267"
   height="4.3529954mm"
   width="4.3529954mm"
   xml:space="preserve"
   id="svg450"
   version="1.1">
  <metadata
     id="metadata456">
    <rdf:RDF>
      <cc:Work
         rdf:about="">
        <dc:format>image/svg+xml</dc:format>
        <dc:type
           rdf:resource="http://purl.org/dc/dcmitype/StillImage" />
        <dc:title></dc:title>
      </cc:Work>
    </rdf:RDF>
  </metadata>
  <defs
     id="defs454">
    <linearGradient
       id="linearGradient476"
       spreadMethod="pad"
       gradientTransform="matrix(0,-5.6645813,-12.839728,0,6.1710238,6.1663132)"
       gradientUnits="userSpaceOnUse"
       y2="0"
       x2="1"
       y1="0"
       x1="0">
      <stop
         id="stop472"
         offset="0"
         style="stop-opacity:1;stop-color:#6896c0" />
      <stop
         id="stop474"
         offset="1"
         style="stop-opacity:1;stop-color:#3c74ad" />
    </linearGradient>
    <linearGradient
       id="linearGradient496"
       spreadMethod="pad"
       gradientTransform="matrix(5.6645813,0,0,-12.839728,6.1757345,6.1710234)"
       gradientUnits="userSpaceOnUse"
       y2="0"
       x2="1"
       y1="0"
       x1="0">
      <stop
         id="stop492"
         offset="0"
         style="stop-opacity:1;stop-color:#6896c0" />
      <stop
         id="stop494"
         offset="1"
         style="stop-opacity:1;stop-color:#3c74ad" />
    </linearGradient>
    <linearGradient
       id="linearGradient516"
       spreadMethod="pad"
       gradientTransform="matrix(0,5.6645813,12.839728,0,6.1710238,6.175734)"
       gradientUnits="userSpaceOnUse"
       y2="0"
       x2="1"
       y1="0"
       x1="0">
      <stop
         id="stop512"
         offset="0"
         style="stop-opacity:1;stop-color:#6896c0" />
      <stop
         id="stop514"
         offset="1"
         style="stop-opacity:1;stop-color:#3c74ad" />
    </linearGradient>
    <linearGradient
       id="linearGradient536"
       spreadMethod="pad"
       gradientTransform="matrix(-5.6645813,0,0,12.839728,6.1663127,6.1710238)"
       gradientUnits="userSpaceOnUse"
       y2="0"
       x2="1"
       y1="0"
       x1="0">
      <stop
         id="stop532"
         offset="0"
         style="stop-opacity:1;stop-color:#6896c0" />
      <stop
         id="stop534"
         offset="1"
         style="stop-opacity:1;stop-color:#3c74ad" />
    </linearGradient>
    <clipPath
       id="clipPath546"
       clipPathUnits="userSpaceOnUse">
      <path
         inkscape:connector-curvature="0"
         id="path544"
         d="M 0,12.339 H 12.339 V 0 H 0 Z" />
    </clipPath>
  </defs>
  <sodipodi:namedview
     inkscape:current-layer="g458"
     inkscape:window-maximized="0"
     inkscape:window-y="413"
     inkscape:window-x="0"
     inkscape:cy="8.2261333"
     inkscape:cx="8.2261333"
     inkscape:zoom="33.065353"
     units="mm"
     inkscape:document-units="mm"
     showgrid="false"
     id="namedview452"
     inkscape:window-height="837"
     inkscape:window-width="1092"
     inkscape:pageshadow="2"
     inkscape:pageopacity="0"
     guidetolerance="10"
     gridtolerance="10"
     objecttolerance="10"
     borderopacity="1"
     inkscape:document-rotation="0"
     bordercolor="#666666"
     pagecolor="#ffffff" />
  <g
     transform="matrix(1.3333333,0,0,-1.3333333,0,16.452267)"
     inkscape:label="band3-on"
     inkscape:groupmode="layer"
     id="g458">
    <g
       transform="matrix(1,0,0,1.0028259,0,-0.00141575)"
       id="g460">
      <g
         id="g462">
        <g
           id="g468">
          <g
             id="g470">
            <path
               inkscape:connector-curvature="0"
               id="path478"
               style="fill:url(#linearGradient476);stroke:none"
               d="M 6.163,6.163 0.509,0.51 C 0.506,0.505 0.507,0.501 0.513,0.501 v 0 h 11.316 c 0.006,0 0.008,0.004 0.003,0.009 v 0 L 6.179,6.163 C 6.177,6.165 6.174,6.167 6.171,6.167 v 0 C 6.168,6.167 6.165,6.165 6.163,6.163" />
          </g>
        </g>
      </g>
    </g>
    <g
       transform="matrix(1.0268591,0,0,1,-0.31798389,0)"
       id="g480">
      <g
         id="g482">
        <g
           id="g488">
          <g
             id="g490">
            <path
               inkscape:connector-curvature="0"
               id="path498"
               style="fill:url(#linearGradient496);stroke:none"
               d="M 11.832,11.832 6.179,6.179 C 6.175,6.175 6.175,6.168 6.179,6.163 v 0 L 11.832,0.51 c 0.005,-0.005 0.007,-0.002 0.007,0.003 v 0 11.316 c 0,0.004 -0.001,0.006 -0.002,0.006 v 0 c -0.002,0 -0.003,-0.001 -0.005,-0.003" />
          </g>
        </g>
      </g>
    </g>
    <g
       id="g500">
      <g
         id="g502">
        <g
           id="g508">
          <g
             id="g510">
            <path
               inkscape:connector-curvature="0"
               id="path518"
               style="fill:url(#linearGradient516);stroke:none"
               d="m 0.513,11.84 c -0.006,0 -0.007,-0.003 -0.004,-0.008 v 0 L 6.163,6.179 c 0.005,-0.004 0.012,-0.004 0.016,0 v 0 l 5.653,5.653 c 0.005,0.005 0.003,0.008 -0.003,0.008 v 0 z" />
          </g>
        </g>
      </g>
    </g>
    <g
       transform="matrix(1.0028264,0,0,1,-0.00141883,0)"
       id="g520">
      <g
         id="g522">
        <g
           id="g528">
          <g
             id="g530">
            <path
               inkscape:connector-curvature="0"
               id="path538"
               style="fill:url(#linearGradient536);stroke:none"
               d="M 0.502,11.829 V 0.513 c 0,-0.005 0.004,-0.008 0.007,-0.003 v 0 l 5.654,5.653 c 0.005,0.005 0.005,0.012 0,0.016 v 0 l -5.654,5.653 c -0.001,0.002 -0.002,0.003 -0.003,0.003 v 0 c -0.002,0 -0.004,-0.002 -0.004,-0.006" />
          </g>
        </g>
      </g>
    </g>
    <g
       id="g540">
      <g
         clip-path="url(#clipPath546)"
         id="g542">
        <g
           transform="translate(10.9902,12.3402)"
           id="g548">
          <path
             inkscape:connector-curvature="0"
             id="path550"
             style="fill:#010101;fill-opacity:1;fill-rule:nonzero;stroke:none"
             d="m 0,0 h -9.638 c -0.745,0 -1.35,-0.605 -1.35,-1.35 v -9.638 c 0,-0.744 0.605,-1.351 1.35,-1.351 H 0 c 0.744,0 1.35,0.607 1.35,1.351 V -1.35 C 1.35,-0.605 0.744,0 0,0 m 0,-0.5 c 0.468,0 0.85,-0.382 0.85,-0.85 v -9.638 c 0,-0.468 -0.382,-0.851 -0.85,-0.851 h -9.638 c -0.468,0 -0.85,0.383 -0.85,0.851 v 9.638 c 0,0.468 0.382,0.85 0.85,0.85 L 0,-0.5" />
        </g>
        <g
           transform="translate(6.6377,6.6649)"
           id="g552">
          <path
             inkscape:connector-curvature="0"
             id="path554"
             style="fill:#212121;fill-opacity:1;fill-rule:nonzero;stroke:none"
             d="m 0,0 c 0.683,-0.168 1.155,-0.68 1.155,-1.416 0,-0.49 -0.162,-0.875 -0.479,-1.155 -0.318,-0.28 -0.71,-0.42 -1.176,-0.42 -0.724,0 -1.339,0.35 -1.589,1.016 l 0.663,0.398 c 0.141,-0.42 0.446,-0.63 0.926,-0.63 0.541,0 0.878,0.309 0.878,0.791 0,0.484 -0.337,0.786 -0.878,0.786 h -0.176 l -0.311,0.484 1.021,1.393 H -1.947 V 2.003 H 0.96 V 1.316 Z" />
        </g>
      </g>
    </g>
  </g>
</svg>
