<?xml version="1.0" encoding="UTF-8" standalone="no"?>
<svg
   xmlns:dc="http://purl.org/dc/elements/1.1/"
   xmlns:cc="http://creativecommons.org/ns#"
   xmlns:rdf="http://www.w3.org/1999/02/22-rdf-syntax-ns#"
   xmlns:svg="http://www.w3.org/2000/svg"
   xmlns="http://www.w3.org/2000/svg"
   xmlns:sodipodi="http://sodipodi.sourceforge.net/DTD/sodipodi-0.dtd"
   xmlns:inkscape="http://www.inkscape.org/namespaces/inkscape"
   inkscape:version="1.0beta1 (32d4812, 2019-09-19)"
   sodipodi:docname="band1-on.ai.svg"
   viewBox="0 0 16.452267 16.452267"
   height="4.3529954mm"
   width="4.3529954mm"
   xml:space="preserve"
   id="svg194"
   version="1.1">
  <metadata
     id="metadata200">
    <rdf:RDF>
      <cc:Work
         rdf:about="">
        <dc:format>image/svg+xml</dc:format>
        <dc:type
           rdf:resource="http://purl.org/dc/dcmitype/StillImage" />
        <dc:title></dc:title>
      </cc:Work>
    </rdf:RDF>
  </metadata>
  <defs
     id="defs198">
    <linearGradient
       id="linearGradient222"
       spreadMethod="pad"
       gradientTransform="matrix(0,-5.6645813,-12.839728,0,6.1710238,6.1663132)"
       gradientUnits="userSpaceOnUse"
       y2="0"
       x2="1"
       y1="0"
       x1="0">
      <stop
         id="stop216"
         offset="0"
         style="stop-opacity:1;stop-color:#e55648" />
      <stop
         id="stop218"
         offset="0"
         style="stop-opacity:1;stop-color:#e55648" />
      <stop
         id="stop220"
         offset="1"
         style="stop-opacity:1;stop-color:#de3d2f" />
    </linearGradient>
    <linearGradient
       id="linearGradient244"
       spreadMethod="pad"
       gradientTransform="matrix(5.6645813,0,0,-12.839728,6.1757345,6.1710234)"
       gradientUnits="userSpaceOnUse"
       y2="0"
       x2="1"
       y1="0"
       x1="0">
      <stop
         id="stop238"
         offset="0"
         style="stop-opacity:1;stop-color:#e55648" />
      <stop
         id="stop240"
         offset="0"
         style="stop-opacity:1;stop-color:#e55648" />
      <stop
         id="stop242"
         offset="1"
         style="stop-opacity:1;stop-color:#de3d2f" />
    </linearGradient>
    <linearGradient
       id="linearGradient266"
       spreadMethod="pad"
       gradientTransform="matrix(0,5.6645813,12.839728,0,6.1710238,6.175734)"
       gradientUnits="userSpaceOnUse"
       y2="0"
       x2="1"
       y1="0"
       x1="0">
      <stop
         id="stop260"
         offset="0"
         style="stop-opacity:1;stop-color:#e55648" />
      <stop
         id="stop262"
         offset="0"
         style="stop-opacity:1;stop-color:#e55648" />
      <stop
         id="stop264"
         offset="1"
         style="stop-opacity:1;stop-color:#de3d2f" />
    </linearGradient>
    <linearGradient
       id="linearGradient288"
       spreadMethod="pad"
       gradientTransform="matrix(-5.6645813,0,0,12.839728,6.1663127,6.1710238)"
       gradientUnits="userSpaceOnUse"
       y2="0"
       x2="1"
       y1="0"
       x1="0">
      <stop
         id="stop282"
         offset="0"
         style="stop-opacity:1;stop-color:#e55648" />
      <stop
         id="stop284"
         offset="0"
         style="stop-opacity:1;stop-color:#e55648" />
      <stop
         id="stop286"
         offset="1"
         style="stop-opacity:1;stop-color:#de3d2f" />
    </linearGradient>
    <clipPath
       id="clipPath298"
       clipPathUnits="userSpaceOnUse">
      <path
         inkscape:connector-curvature="0"
         id="path296"
         d="M 0,12.339 H 12.339 V 0 H 0 Z" />
    </clipPath>
  </defs>
  <sodipodi:namedview
     inkscape:current-layer="g202"
     inkscape:window-maximized="0"
     inkscape:window-y="413"
     inkscape:window-x="0"
     inkscape:cy="8.2261333"
     inkscape:cx="8.2261333"
     inkscape:zoom="33.065353"
     units="mm"
     inkscape:document-units="mm"
     showgrid="false"
     id="namedview196"
     inkscape:window-height="795"
     inkscape:window-width="1235"
     inkscape:pageshadow="2"
     inkscape:pageopacity="0"
     guidetolerance="10"
     gridtolerance="10"
     objecttolerance="10"
     borderopacity="1"
     inkscape:document-rotation="0"
     bordercolor="#666666"
     pagecolor="#ffffff" />
  <g
     transform="matrix(1.3333333,0,0,-1.3333333,0,16.452267)"
     inkscape:label="band1-on"
     inkscape:groupmode="layer"
     id="g202">
    <g
       id="g204">
      <g
         id="g206">
        <g
           id="g212">
          <g
             id="g214">
            <path
               inkscape:connector-curvature="0"
               id="path224"
               style="fill:url(#linearGradient222);stroke:none"
               d="M 6.163,6.163 0.509,0.51 C 0.506,0.505 0.507,0.501 0.513,0.501 v 0 h 11.316 c 0.006,0 0.008,0.004 0.003,0.009 v 0 L 6.179,6.163 C 6.177,6.165 6.174,6.167 6.171,6.167 v 0 C 6.168,6.167 6.165,6.165 6.163,6.163" />
          </g>
        </g>
      </g>
    </g>
    <g
       transform="matrix(1.0028269,0,0,1,-0.03346714,0)"
       id="g226">
      <g
         id="g228">
        <g
           id="g234">
          <g
             id="g236">
            <path
               inkscape:connector-curvature="0"
               id="path246"
               style="fill:url(#linearGradient244);stroke:none"
               d="M 11.832,11.832 6.179,6.179 C 6.175,6.175 6.175,6.168 6.179,6.163 v 0 L 11.832,0.51 c 0.005,-0.005 0.007,-0.002 0.007,0.003 v 0 11.316 c 0,0.004 -0.001,0.006 -0.002,0.006 v 0 c -0.002,0 -0.003,-0.001 -0.005,-0.003" />
          </g>
        </g>
      </g>
    </g>
    <g
       transform="matrix(1,0,0,1.0028264,0,-0.03346405)"
       id="g248">
      <g
         id="g250">
        <g
           id="g256">
          <g
             id="g258">
            <path
               inkscape:connector-curvature="0"
               id="path268"
               style="fill:url(#linearGradient266);stroke:none"
               d="m 0.513,11.84 c -0.006,0 -0.007,-0.003 -0.004,-0.008 v 0 L 6.163,6.179 c 0.005,-0.004 0.012,-0.004 0.016,0 v 0 l 5.653,5.653 c 0.005,0.005 0.003,0.008 -0.003,0.008 v 0 z" />
          </g>
        </g>
      </g>
    </g>
    <g
       transform="matrix(1.0028264,0,0,1,-0.00141883,0)"
       id="g270">
      <g
         id="g272">
        <g
           id="g278">
          <g
             id="g280">
            <path
               inkscape:connector-curvature="0"
               id="path290"
               style="fill:url(#linearGradient288);stroke:none"
               d="M 0.502,11.829 V 0.513 c 0,-0.005 0.004,-0.008 0.007,-0.003 v 0 l 5.654,5.653 c 0.005,0.005 0.005,0.012 0,0.016 v 0 l -5.654,5.653 c -0.001,0.002 -0.002,0.003 -0.003,0.003 v 0 c -0.002,0 -0.004,-0.002 -0.004,-0.006" />
          </g>
        </g>
      </g>
    </g>
    <g
       id="g292">
      <g
         clip-path="url(#clipPath298)"
         id="g294">
        <g
           transform="translate(10.9902,12.3402)"
           id="g300">
          <path
             inkscape:connector-curvature="0"
             id="path302"
             style="fill:#010101;fill-opacity:1;fill-rule:nonzero;stroke:none"
             d="m 0,0 h -9.638 c -0.745,0 -1.35,-0.605 -1.35,-1.35 v -9.638 c 0,-0.744 0.605,-1.351 1.35,-1.351 H 0 c 0.744,0 1.35,0.607 1.35,1.351 V -1.35 C 1.35,-0.605 0.744,0 0,0 m 0,-0.5 c 0.468,0 0.85,-0.382 0.85,-0.85 v -9.638 c 0,-0.468 -0.382,-0.851 -0.85,-0.851 h -9.638 c -0.468,0 -0.85,0.383 -0.85,0.851 v 9.638 c 0,0.468 0.382,0.85 0.85,0.85 L 0,-0.5" />
        </g>
        <g
           transform="translate(6.1665,8.6224)"
           id="g304">
          <path
             inkscape:connector-curvature="0"
             id="path306"
             style="fill:#212121;fill-opacity:1;fill-rule:nonzero;stroke:none"
             d="m 0,0 h 0.676 v -4.902 h -0.777 v 4.041 l -0.953,-0.281 -0.19,0.687 z" />
        </g>
      </g>
    </g>
  </g>
</svg>
