<?xml version="1.0" encoding="UTF-8" standalone="no"?>
<svg
   xmlns:dc="http://purl.org/dc/elements/1.1/"
   xmlns:cc="http://creativecommons.org/ns#"
   xmlns:rdf="http://www.w3.org/1999/02/22-rdf-syntax-ns#"
   xmlns:svg="http://www.w3.org/2000/svg"
   xmlns="http://www.w3.org/2000/svg"
   xmlns:sodipodi="http://sodipodi.sourceforge.net/DTD/sodipodi-0.dtd"
   xmlns:inkscape="http://www.inkscape.org/namespaces/inkscape"
   version="1.1"
   id="svg450"
   xml:space="preserve"
   width="4.3529954mm"
   height="4.3529954mm"
   viewBox="0 0 16.452267 16.452267"
   sodipodi:docname="band3-on.svg"
   inkscape:version="1.0beta1 (32d4812, 2019-09-19)">
  <metadata
   id="metadata456">
    <rdf:RDF>
      <cc:Work
   rdf:about="">
        <dc:format>image/svg+xml</dc:format>

        <dc:type
   rdf:resource="http://purl.org/dc/dcmitype/StillImage" />

        <dc:title></dc:title>

      </cc:Work>

    </rdf:RDF>

  </metadata>

  <defs
   id="defs454">
    <linearGradient
   x1="0"
   y1="0"
   x2="1"
   y2="0"
   gradientUnits="userSpaceOnUse"
   gradientTransform="matrix(0,-5.6645813,-12.839728,0,6.1710238,6.1663132)"
   spreadMethod="pad"
   id="linearGradient476">
      <stop
   style="stop-opacity:1;stop-color:#6896c0"
   offset="0"
   id="stop472" />

      <stop
   style="stop-opacity:1;stop-color:#3c74ad"
   offset="1"
   id="stop474" />

    </linearGradient>

    <linearGradient
   x1="0"
   y1="0"
   x2="1"
   y2="0"
   gradientUnits="userSpaceOnUse"
   gradientTransform="matrix(5.6645813,0,0,-12.839728,6.1757345,6.1710234)"
   spreadMethod="pad"
   id="linearGradient496">
      <stop
   style="stop-opacity:1;stop-color:#6896c0"
   offset="0"
   id="stop492" />

      <stop
   style="stop-opacity:1;stop-color:#3c74ad"
   offset="1"
   id="stop494" />

    </linearGradient>

    <linearGradient
   x1="0"
   y1="0"
   x2="1"
   y2="0"
   gradientUnits="userSpaceOnUse"
   gradientTransform="matrix(0,5.6645813,12.839728,0,6.1710238,6.175734)"
   spreadMethod="pad"
   id="linearGradient516">
      <stop
   style="stop-opacity:1;stop-color:#6896c0"
   offset="0"
   id="stop512" />

      <stop
   style="stop-opacity:1;stop-color:#3c74ad"
   offset="1"
   id="stop514" />

    </linearGradient>

    <linearGradient
   x1="0"
   y1="0"
   x2="1"
   y2="0"
   gradientUnits="userSpaceOnUse"
   gradientTransform="matrix(-5.6645813,0,0,12.839728,6.1663127,6.1710238)"
   spreadMethod="pad"
   id="linearGradient536">
      <stop
   style="stop-opacity:1;stop-color:#6896c0"
   offset="0"
   id="stop532" />

      <stop
   style="stop-opacity:1;stop-color:#3c74ad"
   offset="1"
   id="stop534" />

    </linearGradient>

    <clipPath
   clipPathUnits="userSpaceOnUse"
   id="clipPath546">
      <path
   d="M 0,12.339 H 12.339 V 0 H 0 Z"
   id="path544"
   inkscape:connector-curvature="0" />

    </clipPath>

  
      
    
        
        
      
          
        </defs>

  <sodipodi:namedview
   pagecolor="#ffffff"
   bordercolor="#666666"
   inkscape:document-rotation="0"
   borderopacity="1"
   objecttolerance="10"
   gridtolerance="10"
   guidetolerance="10"
   inkscape:pageopacity="0"
   inkscape:pageshadow="2"
   inkscape:window-width="1772"
   inkscape:window-height="1086"
   id="namedview452"
   showgrid="false"
   inkscape:document-units="mm"
   units="mm"
   inkscape:zoom="33.065353"
   inkscape:cx="2.4043294"
   inkscape:cy="8.2261333"
   inkscape:window-x="2002"
   inkscape:window-y="202"
   inkscape:window-maximized="0"
   inkscape:current-layer="g458" />

  <g
   id="g458"
   inkscape:groupmode="layer"
   inkscape:label="band3-on"
   transform="matrix(1.3333333,0,0,-1.3333333,0,16.452267)">
    <g
   id="g460"
   transform="matrix(1,0,0,1.05061,0,-0.02180133)">
      <g
   id="g462">
        <g
   id="g468">
          <g
   id="g470">
            <path
   d="M 6.163,6.163 0.509,0.51 C 0.506,0.505 0.507,0.501 0.513,0.501 v 0 h 11.316 c 0.006,0 0.008,0.004 0.003,0.009 v 0 L 6.179,6.163 C 6.177,6.165 6.174,6.167 6.171,6.167 v 0 C 6.168,6.167 6.165,6.165 6.163,6.163"
   style="fill:url(#linearGradient476);stroke:none"
   id="path478"
   inkscape:connector-curvature="0" />

          </g>

        </g>

      </g>

    </g>

    <g
   id="g480"
   transform="matrix(1.0511665,0,0,1,-0.61011428,0)">
      <g
   id="g482">
        <g
   id="g488">
          <g
   id="g490">
            <path
   d="M 11.832,11.832 6.179,6.179 C 6.175,6.175 6.175,6.168 6.179,6.163 v 0 L 11.832,0.51 c 0.005,-0.005 0.007,-0.002 0.007,0.003 v 0 11.316 c 0,0.004 -0.001,0.006 -0.002,0.006 v 0 c -0.002,0 -0.003,-0.001 -0.005,-0.003"
   style="fill:url(#linearGradient496);stroke:none"
   id="path498"
   inkscape:connector-curvature="0" />

          </g>

        </g>

      </g>

    </g>

    <g
   transform="matrix(1,0,0,1.050981,0,-0.60361458)"
   id="g500">
      <g
   id="g502">
        <g
   id="g508">
          <g
   id="g510">
            <path
   d="m 0.513,11.84 c -0.006,0 -0.007,-0.003 -0.004,-0.008 v 0 L 6.163,6.179 c 0.005,-0.004 0.012,-0.004 0.016,0 v 0 l 5.653,5.653 c 0.005,0.005 0.003,0.008 -0.003,0.008 v 0 z"
   style="fill:url(#linearGradient516);stroke:none"
   id="path518"
   inkscape:connector-curvature="0" />

          </g>

        </g>

      </g>

    </g>

    <g
   id="g520"
   transform="matrix(1.0508418,0,0,1,-0.02552257,0)">
      <g
   id="g522">
        <g
   id="g528">
          <g
   id="g530">
            <path
   d="M 0.502,11.829 V 0.513 c 0,-0.005 0.004,-0.008 0.007,-0.003 v 0 l 5.654,5.653 c 0.005,0.005 0.005,0.012 0,0.016 v 0 l -5.654,5.653 c -0.001,0.002 -0.002,0.003 -0.003,0.003 v 0 c -0.002,0 -0.004,-0.002 -0.004,-0.006"
   style="fill:url(#linearGradient536);stroke:none"
   id="path538"
   inkscape:connector-curvature="0" />

          </g>

        </g>

      </g>

    </g>

    <path
   sodipodi:nodetypes="csssssssc"
   inkscape:connector-curvature="0"
   id="path550"
   style="opacity:1;fill:#010101;fill-opacity:0;fill-rule:nonzero;stroke:#010101;stroke-width:0.509402;stroke-miterlimit:4;stroke-dasharray:none;stroke-opacity:1;stop-opacity:1"
   d="M 10.790118,12.0845 H 1.5490959 c -0.71431418,0 -1.29439491,-0.58008 -1.29439491,-1.294394 V 1.5490836 c 0,-0.71335553 0.58008073,-1.29535385 1.29439491,-1.29535385 h 9.2410221 c 0.713356,0 1.294395,0.58199832 1.294395,1.29535385 v 9.2410224 c 0,0.714314 -0.581039,1.294394 -1.294395,1.294394" />
<g
   id="g552"
   transform="translate(6.6377,6.6649)"
   style="opacity:1;stop-opacity:1">
          <path
   d="m 0,0 c 0.683,-0.168 1.155,-0.68 1.155,-1.416 0,-0.49 -0.162,-0.875 -0.479,-1.155 -0.318,-0.28 -0.71,-0.42 -1.176,-0.42 -0.724,0 -1.339,0.35 -1.589,1.016 l 0.663,0.398 c 0.141,-0.42 0.446,-0.63 0.926,-0.63 0.541,0 0.878,0.309 0.878,0.791 0,0.484 -0.337,0.786 -0.878,0.786 h -0.176 l -0.311,0.484 1.021,1.393 H -1.947 V 2.003 H 0.96 V 1.316 Z"
   style="fill:#212121;fill-opacity:1;fill-rule:nonzero;stroke:none"
   id="path554"
   inkscape:connector-curvature="0" />

        </g>

  </g>

</svg>
