<?xml version="1.0" encoding="UTF-8" standalone="no"?>
<svg
   xmlns:dc="http://purl.org/dc/elements/1.1/"
   xmlns:cc="http://creativecommons.org/ns#"
   xmlns:rdf="http://www.w3.org/1999/02/22-rdf-syntax-ns#"
   xmlns:svg="http://www.w3.org/2000/svg"
   xmlns="http://www.w3.org/2000/svg"
   xmlns:sodipodi="http://sodipodi.sourceforge.net/DTD/sodipodi-0.dtd"
   xmlns:inkscape="http://www.inkscape.org/namespaces/inkscape"
   version="1.1"
   id="svg326"
   xml:space="preserve"
   width="4.3529954mm"
   height="4.3529954mm"
   viewBox="0 0 16.452267 16.452267"
   sodipodi:docname="band2-on.svg"
   inkscape:version="1.0beta1 (32d4812, 2019-09-19)">
  <metadata
   id="metadata332">
    <rdf:RDF>
      <cc:Work
   rdf:about="">
        <dc:format>image/svg+xml</dc:format>

        <dc:type
   rdf:resource="http://purl.org/dc/dcmitype/StillImage" />

        <dc:title></dc:title>

      </cc:Work>

    </rdf:RDF>

  </metadata>

  <defs
   id="defs330">
    <linearGradient
   x1="0"
   y1="0"
   x2="1"
   y2="0"
   gradientUnits="userSpaceOnUse"
   gradientTransform="matrix(0,-5.6645813,-12.839728,0,6.1710238,6.1663132)"
   spreadMethod="pad"
   id="linearGradient352">
      <stop
   style="stop-opacity:1;stop-color:#2cb4aa"
   offset="0"
   id="stop348" />

      <stop
   style="stop-opacity:1;stop-color:#049b8a"
   offset="1"
   id="stop350" />

    </linearGradient>

    <linearGradient
   x1="0"
   y1="0"
   x2="1"
   y2="0"
   gradientUnits="userSpaceOnUse"
   gradientTransform="matrix(5.6645813,0,0,-12.839728,6.1757345,6.1710234)"
   spreadMethod="pad"
   id="linearGradient372">
      <stop
   style="stop-opacity:1;stop-color:#2cb4aa"
   offset="0"
   id="stop368" />

      <stop
   style="stop-opacity:1;stop-color:#049b8a"
   offset="1"
   id="stop370" />

    </linearGradient>

    <linearGradient
   x1="0"
   y1="0"
   x2="1"
   y2="0"
   gradientUnits="userSpaceOnUse"
   gradientTransform="matrix(0,5.6645813,12.839728,0,6.1710238,6.175734)"
   spreadMethod="pad"
   id="linearGradient392">
      <stop
   style="stop-opacity:1;stop-color:#2cb4aa"
   offset="0"
   id="stop388" />

      <stop
   style="stop-opacity:1;stop-color:#049b8a"
   offset="1"
   id="stop390" />

    </linearGradient>

    <linearGradient
   x1="0"
   y1="0"
   x2="1"
   y2="0"
   gradientUnits="userSpaceOnUse"
   gradientTransform="matrix(-5.6645813,0,0,12.839728,6.1663127,6.1710238)"
   spreadMethod="pad"
   id="linearGradient412">
      <stop
   style="stop-opacity:1;stop-color:#2cb4aa"
   offset="0"
   id="stop408" />

      <stop
   style="stop-opacity:1;stop-color:#049b8a"
   offset="1"
   id="stop410" />

    </linearGradient>

    <clipPath
   clipPathUnits="userSpaceOnUse"
   id="clipPath422">
      <path
   d="M 0,12.339 H 12.339 V 0 H 0 Z"
   id="path420"
   inkscape:connector-curvature="0" />

    </clipPath>

  
      
    
        
        
      
          
        
          
        </defs>

  <sodipodi:namedview
   pagecolor="#ffffff"
   bordercolor="#666666"
   inkscape:document-rotation="0"
   borderopacity="1"
   objecttolerance="10"
   gridtolerance="10"
   guidetolerance="10"
   inkscape:pageopacity="0"
   inkscape:pageshadow="2"
   inkscape:window-width="1436"
   inkscape:window-height="856"
   id="namedview328"
   showgrid="false"
   inkscape:document-units="mm"
   units="mm"
   inkscape:zoom="33.065353"
   inkscape:cx="7.2432313"
   inkscape:cy="8.2261333"
   inkscape:window-x="2379"
   inkscape:window-y="346"
   inkscape:window-maximized="0"
   inkscape:current-layer="g334" />

  <g
   id="g334"
   inkscape:groupmode="layer"
   inkscape:label="band2-on"
   transform="matrix(1.3333333,0,0,-1.3333333,0,16.452267)">
    <g
   id="g336"
   transform="matrix(1,0,0,1.05061,0,-0.02180133)">
      <g
   id="g338">
        <g
   id="g344">
          <g
   id="g346">
            <path
   d="M 6.163,6.163 0.509,0.51 C 0.506,0.505 0.507,0.501 0.513,0.501 v 0 h 11.316 c 0.006,0 0.008,0.004 0.003,0.009 v 0 L 6.179,6.163 C 6.177,6.165 6.174,6.167 6.171,6.167 v 0 C 6.168,6.167 6.165,6.165 6.163,6.163"
   style="fill:url(#linearGradient352);stroke:none"
   id="path354"
   inkscape:connector-curvature="0" />

          </g>

        </g>

      </g>

    </g>

    <g
   id="g356"
   transform="matrix(1.0511665,0,0,1,-0.61011428,0)">
      <g
   id="g358">
        <g
   id="g364">
          <g
   id="g366">
            <path
   d="M 11.832,11.832 6.179,6.179 C 6.175,6.175 6.175,6.168 6.179,6.163 v 0 L 11.832,0.51 c 0.005,-0.005 0.007,-0.002 0.007,0.003 v 0 11.316 c 0,0.004 -0.001,0.006 -0.002,0.006 v 0 c -0.002,0 -0.003,-0.001 -0.005,-0.003"
   style="fill:url(#linearGradient372);stroke:none"
   id="path374"
   inkscape:connector-curvature="0" />

          </g>

        </g>

      </g>

    </g>

    <g
   id="g376"
   transform="matrix(1,0,0,1.050981,0,-0.60361406)">
      <g
   id="g378">
        <g
   id="g384">
          <g
   id="g386">
            <path
   d="m 0.513,11.84 c -0.006,0 -0.007,-0.003 -0.004,-0.008 v 0 L 6.163,6.179 c 0.005,-0.004 0.012,-0.004 0.016,0 v 0 l 5.653,5.653 c 0.005,0.005 0.003,0.008 -0.003,0.008 v 0 z"
   style="fill:url(#linearGradient392);stroke:none"
   id="path394"
   inkscape:connector-curvature="0" />

          </g>

        </g>

      </g>

    </g>

    <g
   id="g396"
   transform="matrix(1.0508418,0,0,1,-0.02552257,0)">
      <g
   id="g398">
        <g
   id="g404">
          <g
   id="g406">
            <path
   d="M 0.502,11.829 V 0.513 c 0,-0.005 0.004,-0.008 0.007,-0.003 v 0 l 5.654,5.653 c 0.005,0.005 0.005,0.012 0,0.016 v 0 l -5.654,5.653 c -0.001,0.002 -0.002,0.003 -0.003,0.003 v 0 c -0.002,0 -0.004,-0.002 -0.004,-0.006"
   style="fill:url(#linearGradient412);stroke:none"
   id="path414"
   inkscape:connector-curvature="0" />

          </g>

        </g>

      </g>

    </g>

    <path
   sodipodi:nodetypes="csssssssc"
   inkscape:connector-curvature="0"
   id="path426"
   style="opacity:1;fill:#010101;fill-opacity:0;fill-rule:nonzero;stroke:#010101;stroke-width:0.509406;stroke-miterlimit:4;stroke-dasharray:none;stroke-opacity:1;stop-opacity:1"
   d="M 10.790118,12.084495 H 1.5490957 c -0.71431425,0 -1.29439496,-0.580054 -1.29439496,-1.294335 V 1.5495688 c 0,-0.71332222 0.58008071,-1.29529352 1.29439496,-1.29529352 h 9.2410223 c 0.713355,0 1.294394,0.5819713 1.294394,1.29529352 V 10.79016 c 0,0.714281 -0.581039,1.294335 -1.294394,1.294335" />
<path
   inkscape:connector-curvature="0"
   id="path430"
   style="opacity:1;fill:#212121;fill-opacity:1;fill-rule:nonzero;stroke:none;stop-opacity:1"
   d="m 4.6196,3.6742 v 0.63 l 1.649,1.744 c 0.4,0.413 0.602,0.777 0.602,1.079 0,0.476 -0.304,0.756 -0.73,0.756 -0.399,0 -0.689,-0.203 -0.878,-0.609 l -0.657,0.399 c 0.298,0.651 0.872,0.995 1.529,0.995 0.412,0 0.77,-0.134 1.068,-0.406 0.297,-0.274 0.446,-0.638 0.446,-1.108 0,-0.497 -0.271,-1.029 -0.804,-1.596 l -1.069,-1.107 h 1.961 v -0.777 z" />

  </g>

</svg>
