<?xml version="1.0" encoding="UTF-8" standalone="no"?>
<svg
   xmlns:dc="http://purl.org/dc/elements/1.1/"
   xmlns:cc="http://creativecommons.org/ns#"
   xmlns:rdf="http://www.w3.org/1999/02/22-rdf-syntax-ns#"
   xmlns:svg="http://www.w3.org/2000/svg"
   xmlns="http://www.w3.org/2000/svg"
   xmlns:sodipodi="http://sodipodi.sourceforge.net/DTD/sodipodi-0.dtd"
   xmlns:inkscape="http://www.inkscape.org/namespaces/inkscape"
   viewBox="0 0 36.472439 18.897638"
   version="1.1"
   id="svg20"
   sodipodi:docname="bypass-on.svg"
   width="9.6499996mm"
   height="5mm"
   inkscape:version="0.92.4 (5da689c313, 2019-01-14)">
  <metadata
     id="metadata24">
    <rdf:RDF>
      <cc:Work
         rdf:about="">
        <dc:format>image/svg+xml</dc:format>
        <dc:type
           rdf:resource="http://purl.org/dc/dcmitype/StillImage" />
        <dc:title>polyAsset 1</dc:title>
      </cc:Work>
    </rdf:RDF>
  </metadata>
  <sodipodi:namedview
     pagecolor="#ffffff"
     bordercolor="#666666"
     borderopacity="1"
     objecttolerance="10"
     gridtolerance="10"
     guidetolerance="10"
     inkscape:pageopacity="0"
     inkscape:pageshadow="2"
     inkscape:window-width="1737"
     inkscape:window-height="1025"
     id="namedview22"
     showgrid="false"
     inkscape:document-units="mm"
     units="mm"
     inkscape:zoom="10.530164"
     inkscape:cx="-48.94254"
     inkscape:cy="15.481076"
     inkscape:window-x="0"
     inkscape:window-y="0"
     inkscape:window-maximized="0"
     inkscape:current-layer="svg20" />
  <defs
     id="defs4">
    <style
       id="style2">.cls-1{fill:#723a93;}.cls-2{fill:#fff;}</style>
  </defs>
  <title
     id="title6">polyAsset 1</title>
  <rect
     class="cls-1"
     x="0.33351469"
     y="0.33272702"
     width="35.805412"
     height="18.232183"
     rx="1.7869366"
     id="rect8"
     style="fill:#d41308;stroke:#000000;stroke-width:0.66545403;stroke-miterlimit:4;stroke-dasharray:none;stroke-opacity:1;fill-opacity:1" />
  <g
     aria-label="BYPASS"
     style="font-style:normal;font-weight:normal;font-size:40px;line-height:1.25;font-family:sans-serif;letter-spacing:0px;word-spacing:0px;fill:#ffffff;fill-opacity:1;stroke:none"
     id="text824">
    <path
       d="m 4.992969,9.5598764 v 2.1367186 h 1.265625 q 0.6367188,0 0.9414063,-0.261719 0.3085937,-0.265625 0.3085937,-0.808593 0,-0.546875 -0.3085937,-0.8046878 Q 6.8953128,9.5598764 6.258594,9.5598764 Z m 0,-2.3984375 v 1.7578125 h 1.1679688 q 0.578125,0 0.859375,-0.2148437 0.2851562,-0.21875 0.2851562,-0.6640625 0,-0.4414063 -0.2851562,-0.6601563 -0.28125,-0.21875 -0.859375,-0.21875 z M 4.2039065,6.5130014 h 2.015625 q 0.9023438,0 1.390625,0.375 0.4882813,0.375 0.4882813,1.0664063 0,0.5351562 -0.25,0.8515625 -0.25,0.3164062 -0.734375,0.3945312 0.5820312,0.125 0.9023437,0.5234375 0.3242188,0.3945311 0.3242188,0.9882811 0,0.78125 -0.53125,1.207031 -0.53125,0.425782 -1.5117188,0.425782 h -2.09375 z"
       style="font-style:normal;font-variant:normal;font-weight:normal;font-stretch:normal;font-size:8px;font-family:sans-serif;-inkscape-font-specification:'sans-serif, Normal';font-variant-ligatures:normal;font-variant-caps:normal;font-variant-numeric:normal;font-feature-settings:normal;text-align:start;writing-mode:lr-tb;text-anchor:start;fill:#ffffff;fill-opacity:1"
       id="path819" />
    <path
       d="m 8.4500003,6.5130014 h 0.8476562 l 1.6171875,2.3984375 1.605469,-2.3984375 h 0.847656 l -2.0625,3.0546875 V 12.345033 H 10.5125 V 9.5676889 Z"
       style="font-style:normal;font-variant:normal;font-weight:normal;font-stretch:normal;font-size:8px;font-family:sans-serif;-inkscape-font-specification:'sans-serif, Normal';font-variant-ligatures:normal;font-variant-caps:normal;font-variant-numeric:normal;font-feature-settings:normal;text-align:start;writing-mode:lr-tb;text-anchor:start;fill:#ffffff;fill-opacity:1"
       id="path821" />
    <path
       d="m 14.930469,7.1614389 v 2.1914063 h 0.992188 q 0.550781,0 0.851562,-0.2851563 Q 17.075,8.7825327 17.075,8.2551889 17.075,7.7317514 16.774219,7.4465952 16.473438,7.1614389 15.922657,7.1614389 Z M 14.141407,6.5130014 h 1.78125 q 0.980468,0 1.480468,0.4453125 0.503907,0.4414063 0.503907,1.296875 0,0.8632813 -0.503907,1.3046875 -0.5,0.4414066 -1.480468,0.4414066 h -0.992188 v 2.34375 h -0.789062 z"
       style="font-style:normal;font-variant:normal;font-weight:normal;font-stretch:normal;font-size:8px;font-family:sans-serif;-inkscape-font-specification:'sans-serif, Normal';font-variant-ligatures:normal;font-variant-caps:normal;font-variant-numeric:normal;font-feature-settings:normal;text-align:start;writing-mode:lr-tb;text-anchor:start;fill:#ffffff;fill-opacity:1"
       id="path823" />
    <path
       d="m 20.403125,7.2903452 -1.070312,2.9023438 h 2.144531 z M 19.957813,6.5130014 h 0.894531 L 23.075,12.345033 h -0.820312 l -0.53125,-1.496094 h -2.628906 l -0.53125,1.496094 H 17.73125 Z"
       style="font-style:normal;font-variant:normal;font-weight:normal;font-stretch:normal;font-size:8px;font-family:sans-serif;-inkscape-font-specification:'sans-serif, Normal';font-variant-ligatures:normal;font-variant-caps:normal;font-variant-numeric:normal;font-feature-settings:normal;text-align:start;writing-mode:lr-tb;text-anchor:start;fill:#ffffff;fill-opacity:1"
       id="path825" />
    <path
       d="M 27.41875,6.7044077 V 7.4739389 Q 26.969532,7.2590952 26.571094,7.1536264 26.172657,7.0481577 25.801563,7.0481577 q -0.644531,0 -0.996094,0.25 -0.347656,0.25 -0.347656,0.7109375 0,0.3867187 0.230469,0.5859375 0.234375,0.1953125 0.882812,0.3164062 l 0.476563,0.097656 q 0.882812,0.1679687 1.300781,0.59375 0.421875,0.4218748 0.421875,1.1328128 0,0.847656 -0.570313,1.285156 -0.566406,0.4375 -1.664062,0.4375 -0.414063,0 -0.882813,-0.09375 -0.464843,-0.09375 -0.964843,-0.277344 v -0.8125 q 0.480468,0.269531 0.941406,0.40625 0.460937,0.136719 0.90625,0.136719 0.675781,0 1.042969,-0.265625 0.367187,-0.265625 0.367187,-0.757813 0,-0.429687 -0.265625,-0.671875 Q 26.41875,9.8801889 25.817188,9.7590952 l -0.480469,-0.09375 q -0.882812,-0.1757813 -1.277344,-0.5507813 -0.394531,-0.375 -0.394531,-1.0429687 0,-0.7734375 0.542969,-1.21875 0.546875,-0.4453125 1.503906,-0.4453125 0.410156,0 0.835938,0.074219 0.425781,0.074219 0.871093,0.2226563 z"
       style="font-style:normal;font-variant:normal;font-weight:normal;font-stretch:normal;font-size:8px;font-family:sans-serif;-inkscape-font-specification:'sans-serif, Normal';font-variant-ligatures:normal;font-variant-caps:normal;font-variant-numeric:normal;font-feature-settings:normal;text-align:start;writing-mode:lr-tb;text-anchor:start;fill:#ffffff;fill-opacity:1"
       id="path827" />
    <path
       d="M 32.496875,6.7044077 V 7.4739389 Q 32.047657,7.2590952 31.649219,7.1536264 31.250782,7.0481577 30.879688,7.0481577 q -0.644531,0 -0.996094,0.25 -0.347656,0.25 -0.347656,0.7109375 0,0.3867187 0.230469,0.5859375 0.234375,0.1953125 0.882812,0.3164062 l 0.476563,0.097656 q 0.882812,0.1679687 1.300781,0.59375 0.421875,0.4218748 0.421875,1.1328128 0,0.847656 -0.570313,1.285156 -0.566406,0.4375 -1.664062,0.4375 -0.414063,0 -0.882813,-0.09375 -0.464843,-0.09375 -0.964843,-0.277344 v -0.8125 q 0.480468,0.269531 0.941406,0.40625 0.460937,0.136719 0.90625,0.136719 0.675781,0 1.042969,-0.265625 0.367187,-0.265625 0.367187,-0.757813 0,-0.429687 -0.265625,-0.671875 -0.261719,-0.2421871 -0.863281,-0.3632808 l -0.480469,-0.09375 Q 29.532032,9.4895639 29.1375,9.1145639 q -0.394531,-0.375 -0.394531,-1.0429687 0,-0.7734375 0.542969,-1.21875 0.546875,-0.4453125 1.503906,-0.4453125 0.410156,0 0.835938,0.074219 0.425781,0.074219 0.871093,0.2226563 z"
       style="font-style:normal;font-variant:normal;font-weight:normal;font-stretch:normal;font-size:8px;font-family:sans-serif;-inkscape-font-specification:'sans-serif, Normal';font-variant-ligatures:normal;font-variant-caps:normal;font-variant-numeric:normal;font-feature-settings:normal;text-align:start;writing-mode:lr-tb;text-anchor:start;fill:#ffffff;fill-opacity:1"
       id="path829" />
  </g>
</svg>
