<?xml version="1.0" encoding="UTF-8" standalone="no"?>
<svg
   xmlns:dc="http://purl.org/dc/elements/1.1/"
   xmlns:cc="http://creativecommons.org/ns#"
   xmlns:rdf="http://www.w3.org/1999/02/22-rdf-syntax-ns#"
   xmlns:svg="http://www.w3.org/2000/svg"
   xmlns="http://www.w3.org/2000/svg"
   xmlns:sodipodi="http://sodipodi.sourceforge.net/DTD/sodipodi-0.dtd"
   xmlns:inkscape="http://www.inkscape.org/namespaces/inkscape"
   inkscape:version="1.0beta1 (32d4812, 2019-09-19)"
   sodipodi:docname="global-bypass-off.svg"
   viewBox="0 0 41.574804 26.456693"
   height="7mm"
   width="11mm"
   xml:space="preserve"
   id="svg10"
   version="1.1">
  <metadata
   id="metadata16">
    <rdf:RDF>
      <cc:Work
   rdf:about="">
        <dc:format>image/svg+xml</dc:format>


        <dc:type
   rdf:resource="http://purl.org/dc/dcmitype/StillImage" />


        <dc:title></dc:title>


      </cc:Work>


    </rdf:RDF>


  </metadata>


  <defs
   id="defs14">
    <linearGradient
   id="linearGradient38"
   spreadMethod="pad"
   gradientTransform="matrix(0,-9.4885798,-21.507465,0,15.590551,9.9137764)"
   gradientUnits="userSpaceOnUse"
   y2="0"
   x2="1"
   y1="0"
   x1="0">
      <stop
   id="stop32"
   offset="0"
   style="stop-opacity:1;stop-color:#808080" />


      <stop
   id="stop34"
   offset="0.08660784"
   style="stop-opacity:1;stop-color:#808080" />


      <stop
   id="stop36"
   offset="1"
   style="stop-opacity:1;stop-color:#666666" />


    </linearGradient>


    <linearGradient
   id="linearGradient60"
   spreadMethod="pad"
   gradientTransform="matrix(15.153403,0,0,-34.347744,15.602503,9.9212599)"
   gradientUnits="userSpaceOnUse"
   y2="0"
   x2="1"
   y1="0"
   x1="0">
      <stop
   id="stop54"
   offset="0"
   style="stop-opacity:1;stop-color:#808080" />


      <stop
   id="stop56"
   offset="0.08660784"
   style="stop-opacity:1;stop-color:#808080" />


      <stop
   id="stop58"
   offset="1"
   style="stop-opacity:1;stop-color:#666666" />


    </linearGradient>


    <linearGradient
   id="linearGradient82"
   spreadMethod="pad"
   gradientTransform="matrix(0,9.4885798,21.507465,0,15.590551,9.9287434)"
   gradientUnits="userSpaceOnUse"
   y2="0"
   x2="1"
   y1="0"
   x1="0">
      <stop
   id="stop76"
   offset="0"
   style="stop-opacity:1;stop-color:#808080" />


      <stop
   id="stop78"
   offset="0.08660784"
   style="stop-opacity:1;stop-color:#808080" />


      <stop
   id="stop80"
   offset="1"
   style="stop-opacity:1;stop-color:#666666" />


    </linearGradient>


    <linearGradient
   id="linearGradient104"
   spreadMethod="pad"
   gradientTransform="matrix(-15.153403,0,0,34.347744,15.5786,9.9212599)"
   gradientUnits="userSpaceOnUse"
   y2="0"
   x2="1"
   y1="0"
   x1="0">
      <stop
   id="stop98"
   offset="0"
   style="stop-opacity:1;stop-color:#808080" />


      <stop
   id="stop100"
   offset="0.08660784"
   style="stop-opacity:1;stop-color:#808080" />


      <stop
   id="stop102"
   offset="1"
   style="stop-opacity:1;stop-color:#666666" />


    </linearGradient>


    <clipPath
   id="clipPath114"
   clipPathUnits="userSpaceOnUse">
      <path
   inkscape:connector-curvature="0"
   id="path112"
   d="M 0,19.843 H 31.181 V 0 H 0 Z" />


    </clipPath>


  
      
    
        
        
        
        
        
        
        
        
        
        
        
        
        
      </defs>


  <sodipodi:namedview
   inkscape:current-layer="g18"
   inkscape:window-maximized="0"
   inkscape:window-y="184"
   inkscape:window-x="2158"
   inkscape:cy="13.228333"
   inkscape:cx="22.144727"
   inkscape:zoom="15.839192"
   units="mm"
   inkscape:document-units="mm"
   showgrid="false"
   id="namedview12"
   inkscape:window-height="907"
   inkscape:window-width="1600"
   inkscape:pageshadow="2"
   inkscape:pageopacity="0"
   guidetolerance="10"
   gridtolerance="10"
   objecttolerance="10"
   borderopacity="1"
   inkscape:document-rotation="0"
   bordercolor="#666666"
   pagecolor="#ffffff" />


  <g
   transform="matrix(1.3333333,0,0,-1.3333333,0,26.456667)"
   inkscape:label="global-bypass-off"
   inkscape:groupmode="layer"
   id="g18">
    <g
   transform="matrix(1,0,0,1.0895819,0,-0.03898458)"
   id="g20">
      <g
   id="g22">
        <g
   id="g28">
          <g
   id="g30">
            <path
   inkscape:connector-curvature="0"
   id="path40"
   style="fill:url(#linearGradient38);stroke:none"
   d="M 15.57,9.908 0.445,0.438 C 0.435,0.431 0.436,0.426 0.449,0.426 v 0 h 30.282 c 0.014,0 0.016,0.005 0.004,0.012 v 0 l -15.124,9.47 c -0.006,0.004 -0.013,0.006 -0.02,0.006 v 0 c -0.008,0 -0.015,-0.002 -0.021,-0.006" />


          </g>


        </g>


      </g>


    </g>


    <g
   transform="matrix(1.0561701,0,0,1,-1.7276615,0)"
   id="g42">
      <g
   id="g44">
        <g
   id="g50">
          <g
   id="g52">
            <path
   inkscape:connector-curvature="0"
   id="path62"
   style="fill:url(#linearGradient60);stroke:none"
   d="M 30.735,19.405 15.611,9.934 C 15.6,9.927 15.6,9.916 15.611,9.908 v 0 l 15.124,-9.47 c 0.012,-0.007 0.021,-0.002 0.021,0.011 v 0 18.944 c 0,0.01 -0.005,0.015 -0.011,0.015 v 0 c -0.003,0 -0.007,-0.001 -0.01,-0.003" />


          </g>


        </g>


      </g>


    </g>


    <g
   transform="matrix(1.0000195,0,0,1.0895532,-8.5519698e-6,-1.7388544)"
   id="g64">
      <g
   id="g66">
        <g
   id="g72">
          <g
   id="g74">
            <path
   inkscape:connector-curvature="0"
   id="path84"
   style="fill:url(#linearGradient82);stroke:none"
   d="m 0.449,19.417 c -0.013,0 -0.014,-0.006 -0.004,-0.012 v 0 L 15.57,9.934 c 0.012,-0.007 0.03,-0.007 0.041,0 v 0 l 15.124,9.471 c 0.012,0.006 0.01,0.012 -0.004,0.012 v 0 z" />


          </g>


        </g>


      </g>


    </g>


    <g
   transform="matrix(1.0475824,0,0,1,-0.02027009,0)"
   id="g86">
      <g
   id="g88">
        <g
   id="g94">
          <g
   id="g96">
            <path
   inkscape:connector-curvature="0"
   id="path106"
   style="fill:url(#linearGradient104);stroke:none"
   d="M 0.426,19.393 V 0.449 c 0,-0.013 0.009,-0.018 0.019,-0.011 v 0 l 15.125,9.47 c 0.012,0.008 0.012,0.019 0,0.026 v 0 L 0.445,19.405 c -0.003,0.002 -0.006,0.003 -0.009,0.003 v 0 c -0.006,0 -0.01,-0.005 -0.01,-0.015" />


          </g>


        </g>


      </g>


    </g>


    <g
   style="opacity:1;stop-opacity:1"
   transform="translate(29.8555,19.8425)"
   id="g116">
          <path
   inkscape:connector-curvature="0"
   id="path118"
   style="fill:#000000;fill-opacity:0;fill-rule:nonzero;stroke:#010101;stroke-width:0.599966;stroke-miterlimit:4;stroke-dasharray:none;stroke-opacity:1"
   d="M -0.27291408,-0.29887237 H -28.25698 c -0.71505,0 -1.299647,-0.57893484 -1.299647,-1.28587543 V -18.255552 c 0,-0.70694 0.584597,-1.285874 1.299647,-1.285874 h 27.98406592 c 0.71505029,0 1.29964558,0.578934 1.29964558,1.285874 v 16.6708042 c 0,0.70694059 -0.58459529,1.28587543 -1.29964558,1.28587543"
   sodipodi:nodetypes="csssssssc" />


        </g>

<g
   style="opacity:1;stop-opacity:1"
   transform="translate(7.6216,13.3982)"
   id="g120">
          <path
   inkscape:connector-curvature="0"
   id="path122"
   style="fill:#1a1a1a;fill-opacity:1;fill-rule:nonzero;stroke:none"
   d="m 0,0 v -0.288 c 0,-0.576 -0.192,-1.049 -0.57,-1.415 -0.377,-0.366 -0.875,-0.546 -1.487,-0.546 -0.648,0 -1.181,0.21 -1.607,0.63 -0.419,0.42 -0.629,0.935 -0.629,1.547 0,0.606 0.21,1.121 0.629,1.541 0.426,0.426 0.948,0.636 1.571,0.636 0.786,0 1.469,-0.39 1.829,-0.996 L -0.857,0.768 c -0.222,0.401 -0.69,0.665 -1.236,0.665 -0.437,0 -0.803,-0.144 -1.085,-0.432 -0.282,-0.288 -0.426,-0.647 -0.426,-1.079 0,-0.432 0.144,-0.792 0.426,-1.073 0.288,-0.282 0.665,-0.426 1.127,-0.426 0.744,0 1.23,0.378 1.356,0.959 H -2.099 V 0 Z" />


        </g>

<g
   style="opacity:1;stop-opacity:1"
   transform="translate(9.4233,11.8869)"
   id="g124">
          <path
   inkscape:connector-curvature="0"
   id="path126"
   style="fill:#1a1a1a;fill-opacity:1;fill-rule:nonzero;stroke:none"
   d="M 0,0 H 1.709 V -0.66 H -0.689 V 3.538 H 0 Z" />


        </g>

<g
   style="opacity:1;stop-opacity:1"
   transform="translate(13.8208,11.821)"
   id="g128">
          <path
   inkscape:connector-curvature="0"
   id="path130"
   style="fill:#1a1a1a;fill-opacity:1;fill-rule:nonzero;stroke:none"
   d="M 0,0 C 0.42,0 0.773,0.144 1.055,0.426 1.343,0.713 1.487,1.073 1.487,1.505 1.487,1.937 1.343,2.297 1.055,2.579 0.773,2.866 0.42,3.01 0,3.01 -0.42,3.01 -0.773,2.866 -1.062,2.579 -1.343,2.297 -1.487,1.937 -1.487,1.505 -1.487,1.073 -1.343,0.713 -1.062,0.426 -0.773,0.144 -0.42,0 0,0 m 0,-0.672 c -0.605,0 -1.122,0.21 -1.547,0.63 -0.42,0.426 -0.63,0.941 -0.63,1.547 0,0.606 0.21,1.121 0.63,1.541 0.425,0.426 0.942,0.636 1.547,0.636 0.605,0 1.122,-0.21 1.541,-0.636 C 1.967,2.626 2.177,2.111 2.177,1.505 2.177,0.899 1.967,0.384 1.541,-0.042 1.122,-0.462 0.605,-0.672 0,-0.672" />


        </g>

<g
   style="opacity:1;stop-opacity:1"
   transform="translate(18.9092,11.8747)"
   id="g132">
          <path
   inkscape:connector-curvature="0"
   id="path134"
   style="fill:#1a1a1a;fill-opacity:1;fill-rule:nonzero;stroke:none"
   d="M 0,0 C 0.317,0 0.569,0.258 0.569,0.588 0.569,0.917 0.317,1.176 0,1.176 H -1.109 V 0 Z M -1.109,2.902 V 1.799 h 0.977 c 0.306,0 0.539,0.24 0.539,0.552 0,0.312 -0.233,0.551 -0.539,0.551 z M 1.259,0.552 C 1.259,0.21 1.139,-0.078 0.894,-0.306 0.647,-0.534 0.354,-0.647 0,-0.647 H -1.799 V 3.55 h 1.667 C 0.21,3.55 0.504,3.437 0.737,3.214 0.978,2.993 1.098,2.717 1.098,2.387 1.098,2.021 0.953,1.739 0.672,1.529 1.037,1.337 1.259,0.99 1.259,0.552" />


        </g>

<g
   style="opacity:1;stop-opacity:1"
   transform="translate(22.1318,12.7204)"
   id="g136">
          <path
   inkscape:connector-curvature="0"
   id="path138"
   style="fill:#1a1a1a;fill-opacity:1;fill-rule:nonzero;stroke:none"
   d="M 0,0 H 1.331 L 0.665,1.895 Z m 1.853,-1.493 -0.294,0.846 h -1.788 l -0.292,-0.846 h -0.75 l 1.523,4.198 h 0.827 l 1.518,-4.198 z" />


        </g>

<g
   style="opacity:1;stop-opacity:1"
   transform="translate(26.3496,11.8869)"
   id="g140">
          <path
   inkscape:connector-curvature="0"
   id="path142"
   style="fill:#1a1a1a;fill-opacity:1;fill-rule:nonzero;stroke:none"
   d="M 0,0 H 1.709 V -0.66 H -0.689 V 3.538 H 0 Z" />


        </g>

<g
   style="opacity:1;stop-opacity:1"
   transform="translate(6.189,4.8747)"
   id="g144">
          <path
   inkscape:connector-curvature="0"
   id="path146"
   style="fill:#1a1a1a;fill-opacity:1;fill-rule:nonzero;stroke:none"
   d="M 0,0 C 0.318,0 0.57,0.258 0.57,0.588 0.57,0.917 0.318,1.176 0,1.176 H -1.109 V 0 Z M -1.109,2.902 V 1.799 h 0.977 c 0.306,0 0.54,0.24 0.54,0.552 0,0.311 -0.234,0.551 -0.54,0.551 z M 1.259,0.552 C 1.259,0.21 1.139,-0.078 0.894,-0.306 0.647,-0.534 0.354,-0.647 0,-0.647 H -1.799 V 3.55 h 1.667 C 0.21,3.55 0.504,3.437 0.738,3.214 0.978,2.992 1.098,2.717 1.098,2.387 1.098,2.021 0.954,1.739 0.672,1.529 1.038,1.337 1.259,0.989 1.259,0.552" />


        </g>

<g
   style="opacity:1;stop-opacity:1"
   transform="translate(11.5703,8.4245)"
   id="g148">
          <path
   inkscape:connector-curvature="0"
   id="path150"
   style="fill:#1a1a1a;fill-opacity:1;fill-rule:nonzero;stroke:none"
   d="m 0,0 -1.463,-2.53 v -1.667 h -0.69 V -2.53 L -3.616,0 h 0.785 L -1.805,-1.858 -0.786,0 Z" />


        </g>

<g
   style="opacity:1;stop-opacity:1"
   transform="translate(14.0488,6.3142)"
   id="g152">
          <path
   inkscape:connector-curvature="0"
   id="path154"
   style="fill:#1a1a1a;fill-opacity:1;fill-rule:nonzero;stroke:none"
   d="M 0,0 C 0.408,0 0.702,0.306 0.702,0.731 0.702,1.157 0.408,1.463 0,1.463 H -0.857 V 0 Z M 0,2.11 C 0.396,2.11 0.726,1.979 0.99,1.715 1.259,1.451 1.392,1.121 1.392,0.731 1.392,0.342 1.259,0.018 0.99,-0.252 0.726,-0.516 0.396,-0.647 0,-0.647 h -0.857 v -1.44 h -0.69 V 2.11 Z" />


        </g>

<g
   style="opacity:1;stop-opacity:1"
   transform="translate(16.9834,5.7204)"
   id="g156">
          <path
   inkscape:connector-curvature="0"
   id="path158"
   style="fill:#1a1a1a;fill-opacity:1;fill-rule:nonzero;stroke:none"
   d="M 0,0 H 1.331 L 0.666,1.895 Z M 1.854,-1.493 1.56,-0.647 h -1.788 l -0.293,-0.846 h -0.75 L 0.252,2.704 H 1.08 l 1.517,-4.197 z" />


        </g>

<g
   style="opacity:1;stop-opacity:1"
   transform="translate(20.1826,5.1804)"
   id="g160">
          <path
   inkscape:connector-curvature="0"
   id="path162"
   style="fill:#1a1a1a;fill-opacity:1;fill-rule:nonzero;stroke:none"
   d="m 0,0 0.594,0.348 c 0.168,-0.474 0.515,-0.707 1.043,-0.707 0.522,0 0.78,0.221 0.78,0.551 0,0.174 -0.072,0.3 -0.21,0.39 -0.139,0.09 -0.391,0.191 -0.744,0.3 -0.401,0.12 -0.6,0.197 -0.881,0.384 -0.27,0.191 -0.408,0.467 -0.408,0.845 0,0.371 0.132,0.665 0.395,0.881 0.264,0.222 0.582,0.33 0.954,0.33 0.671,0 1.194,-0.347 1.463,-0.924 L 2.404,2.063 C 2.23,2.453 1.937,2.65 1.523,2.65 1.121,2.65 0.863,2.446 0.863,2.129 0.863,1.817 1.067,1.673 1.709,1.476 1.871,1.421 1.984,1.386 2.057,1.355 2.135,1.331 2.236,1.289 2.368,1.235 2.507,1.182 2.608,1.121 2.675,1.067 2.896,0.894 3.136,0.605 3.106,0.204 3.106,-0.174 2.968,-0.479 2.692,-0.701 2.423,-0.924 2.063,-1.031 1.619,-1.031 0.81,-1.031 0.222,-0.642 0,0" />


        </g>

<g
   style="opacity:1;stop-opacity:1"
   transform="translate(24.0098,5.1804)"
   id="g164">
          <path
   inkscape:connector-curvature="0"
   id="path166"
   style="fill:#1a1a1a;fill-opacity:1;fill-rule:nonzero;stroke:none"
   d="m 0,0 0.594,0.348 c 0.168,-0.474 0.515,-0.707 1.044,-0.707 0.521,0 0.779,0.221 0.779,0.551 0,0.174 -0.072,0.3 -0.21,0.39 -0.138,0.09 -0.39,0.191 -0.743,0.3 -0.402,0.12 -0.6,0.197 -0.882,0.384 -0.27,0.191 -0.408,0.467 -0.408,0.845 0,0.371 0.133,0.665 0.396,0.881 0.264,0.222 0.581,0.33 0.953,0.33 0.672,0 1.194,-0.347 1.463,-0.924 L 2.405,2.063 C 2.231,2.453 1.937,2.65 1.523,2.65 1.122,2.65 0.864,2.446 0.864,2.129 0.864,1.817 1.067,1.673 1.709,1.476 1.871,1.421 1.985,1.386 2.058,1.355 2.135,1.331 2.237,1.289 2.369,1.235 2.507,1.182 2.609,1.121 2.675,1.067 2.896,0.894 3.137,0.605 3.106,0.204 3.106,-0.174 2.969,-0.479 2.693,-0.701 2.423,-0.924 2.063,-1.031 1.619,-1.031 0.81,-1.031 0.223,-0.642 0,0" />


        </g>


  </g>


</svg>
